<?xml version="1.0" standalone="no"?>
<!DOCTYPE svg PUBLIC "-//W3C//DTD SVG 1.1//EN" "http://www.w3.org/Graphics/SVG/1.1/DTD/svg11.dtd" >
<svg>
<metadata>
Created by FontForge 20090914 at Fri Sep 23 15:10:08 2016
 By www-data
Copyright (c) 2003-2013, SIL International (http://scripts.sil.org/)
</metadata>
<defs>
<font id="GentiumBasic-Bold" horiz-adv-x="0" >
  <font-face 
    font-family="Gentium Basic"
    font-weight="700"
    font-stretch="normal"
    units-per-em="2048"
    panose-1="2 0 5 3 6 0 0 2 0 4"
    ascent="1638"
    descent="-410"
    x-height="930"
    cap-height="1260"
    bbox="-1031 -733 2143 2207"
    underline-thickness="100"
    underline-position="-200"
    unicode-range="U+0020-U+FB02"
  />
<missing-glyph horiz-adv-x="1400" 
d="M150 50h1100v1700h-1100v-1700zM100 1800h1200v-1800h-1200v1800z" />
    <glyph glyph-name=".notdef" horiz-adv-x="1400" 
d="M150 50h1100v1700h-1100v-1700zM100 1800h1200v-1800h-1200v1800z" />
    <glyph glyph-name="space" unicode=" " horiz-adv-x="510" 
 />
    <glyph glyph-name="exclam" unicode="!" horiz-adv-x="633" 
d="M476 131c0 -26.667 -4.83301 -50.666 -14.5 -71.999s-22.834 -39.333 -39.501 -54s-36.167 -25.834 -58.5 -33.501s-45.833 -11.5 -70.5 -11.5c-20 0 -38.667 2.5 -56 7.5s-32.666 13 -45.999 24s-23.833 25 -31.5 42s-11.5 37.5 -11.5 61.5c0 26 5 49.667 15 71
s23.5 39.333 40.5 54s36.5 26 58.5 34s45.333 12 70 12c18 0 35.667 -2.66699 53 -8s32.833 -13.5 46.5 -24.5s24.5 -25 32.5 -42s12 -37.167 12 -60.5zM377 412.001c-12.667 -9.33301 -29 -16.833 -49 -22.5s-38.333 -11.167 -55 -16.5l-29 21l-77 974l54.5 28.5l67 32.5
l66 30c21 9.33301 38.167 16.333 51.5 21l50 -32z" />
    <glyph glyph-name="quotedbl" unicode="&#x22;" horiz-adv-x="960" 
d="M347 834c-5.33301 -2.66699 -13.332 -5.33301 -23.999 -8s-22.334 -5 -35.001 -7s-25 -3.5 -37 -4.5s-22 -1.5 -30 -1.5l-83 583c4.66699 2.66699 13.167 6.5 25.5 11.5l41.5 16.5c15.333 6 31.666 12 48.999 18l49.5 17l41 13.5
c11.667 3.66699 19.834 6.16699 24.501 7.5l51 -28zM750.001 834.001c-5.33301 -2.66699 -13.3301 -5.33203 -23.9971 -7.99902s-22.334 -5 -35.001 -7s-25 -3.5 -37 -4.5s-22 -1.5 -30 -1.5l-83 583c7.33301 4 22.166 10.5 44.499 19.5s46.166 18 71.499 27l71 24.5
c22 7.33301 36.667 11.666 44 12.999l51 -28z" />
    <glyph glyph-name="numbersign" unicode="#" horiz-adv-x="1036" 
d="M863 976l154.005 -0.00292969l25 -25c-1.33301 -7.33301 -4 -16.666 -8 -27.999s-8.5 -22.833 -13.5 -34.5l-14 -33.5c-4.33301 -10.667 -7.83301 -18.667 -10.5 -24h-174l-65 -226h154l22 -27c-1.33301 -6.66699 -3.83301 -15.5 -7.5 -26.5
s-7.83398 -22.333 -12.501 -34l-13 -33c-4 -10.333 -7.33301 -18.5 -10 -24.5h-174l-83 -290c-6 -4.66699 -14.167 -9 -24.5 -13s-21.166 -7.66699 -32.499 -11l-34.5 -10l-30.5 -9l-26 20l89 313h-174l-83 -290c-6 -4.66699 -14 -9 -24 -13s-20.667 -7.66699 -32 -11
l-34 -10l-30 -9l-26 20l89 313h-166l-22 25c1.33301 6.66699 3.83301 15.334 7.5 26.001s7.83398 21.834 12.501 33.501l13.5 34c4.33301 11 8.16602 19.833 11.499 26.5h185l64 226h-163l-25 24c1.33301 7.33301 4 16.5 8 27.5s8.5 22.333 13.5 34l14 33.5l10.5 26h184
l78 275c7.33301 5.33301 16.166 9.83301 26.499 13.5s21.166 7 32.499 10l32.5 8.5c10.333 2.66699 19.166 5.66699 26.499 9l29 -22l-85 -294h174l78 275c7.33301 5.33301 16.166 9.83301 26.499 13.5s21.166 7 32.499 10l33 8.5c10.667 2.66699 20 5.66699 28 9l27 -22z
M442.005 604.997h174l64 226h-173z" />
    <glyph glyph-name="dollar" unicode="$" horiz-adv-x="1036" 
d="M285 951c0 -21.333 4.33203 -40.333 12.999 -57s20.5 -31.667 35.5 -45s32.833 -25.5 53.5 -36.5s43.334 -21.5 68.001 -31.5v311c-27.333 -2.66699 -51.5 -8.16699 -72.5 -16.5s-38.667 -18.833 -53 -31.5s-25.333 -27 -33 -43s-11.5 -32.667 -11.5 -50zM741.999 317
c0 26 -4.16699 49.332 -12.5 69.999s-20 39.167 -35 55.5s-32.667 31 -53 44s-42.5 24.833 -66.5 35.5v-384c22 3.33301 43 9.5 63 18.5s37.833 20.833 53.5 35.5s28 32.334 37 53.001s13.5 44.667 13.5 72zM574.999 -128.001
c-12 -10.667 -25.1689 -20.0049 -39.502 -28.0049s-29.833 -14 -46.5 -18l-34 29v136c-56.667 2 -117.667 13.333 -183 34s-127 49.334 -185 86.001c-3.33301 2 -5.83301 9.16699 -7.5 21.5s-2.66699 27.333 -3 45s-0.166016 37.334 0.500977 59.001s1.66699 43.167 3 64.5
s3.33301 41.5 6 60.5s5.66699 34.5 9 46.5l73 -4c16 -34 33.5 -65.667 52.5 -95s40.333 -55.333 64 -78s49.5 -41.667 77.5 -57s59 -26.333 93 -33v428l-133.5 49.5c-44.333 17 -84.166 37.833 -119.499 62.5s-64 54.834 -86 90.501s-33 79.834 -33 132.501
c0 28.667 6 59.5 18 92.5s32.5 64.333 61.5 94s67.167 55.334 114.5 77.001s106.666 35.834 177.999 42.501v131c9.33301 5.33301 17.166 10.166 23.499 14.499s12.5 8.16602 18.5 11.499s12.333 6.33301 19 9s15 5.33398 25 8.00098l34 -29v-143
c34.667 -2 69.334 -6.16699 104.001 -12.5s67 -14.166 97 -23.499s56.667 -19.833 80 -31.5s41 -23.5 53 -35.5c4 -4.66699 3.5 -17 -1.5 -37s-12.167 -42 -21.5 -66s-19.666 -46.833 -30.999 -68.5s-21.333 -36.5 -30 -44.5l-69 8c-22.667 46 -48.5 84.167 -77.5 114.5
s-63.5 52.166 -103.5 65.499v-344c44.667 -16 89.5 -33.5 134.5 -52.5s85.5 -42.5 121.5 -70.5s65.167 -61.667 87.5 -101s33.5 -87 33.5 -143c0 -40 -7 -80.167 -21 -120.5s-36.167 -77.833 -66.5 -112.5s-69.333 -64.5 -117 -89.5s-105.167 -41.833 -172.5 -50.5v-125z
" />
    <glyph glyph-name="percent" unicode="%" horiz-adv-x="1491" 
d="M1233 290c0 97.333 -11.668 169.332 -35.001 215.999s-52.666 70 -87.999 70c-33.333 0 -59.333 -18.667 -78 -56s-28 -99.666 -28 -186.999c0 -98.667 10.5 -171.5 31.5 -218.5s51.5 -70.5 91.5 -70.5c34.667 0 61 19 79 57s27 101 27 189zM1438 309.999
c0 -46.667 -8.16699 -90.665 -24.5 -131.998s-39 -77.5 -68 -108.5s-63.5 -55.5 -103.5 -73.5s-84 -27 -132 -27s-91.167 9 -129.5 27s-71 42.5 -98 73.5s-47.667 67.167 -62 108.5s-21.5 85.333 -21.5 132s7.66699 90.667 23 132s37.333 77.5 66 108.5
s63.167 55.5 103.5 73.5s85.5 27 135.5 27c49.333 0 93.333 -9 132 -27s71.167 -42.333 97.5 -73s46.5 -66.834 60.5 -108.501s21 -85.834 21 -132.501zM373.999 7.00098c-7.33301 -4 -17.5 -7.83301 -30.5 -11.5s-26.833 -7 -41.5 -10l-43 -9l-34 -7.5l-24 31l913 1199
c6.66699 3.33301 16.5 6.83301 29.5 10.5s26.833 7.16699 41.5 10.5s28.667 6.33301 42 9s24 5 32 7l26 -30zM487.999 877.001c0 48.667 -3.16699 91 -9.5 127s-15 65.667 -26 89s-24 40.833 -39 52.5s-31.167 17.5 -48.5 17.5c-33.333 0 -59.333 -18.667 -78 -56
s-28 -99.666 -28 -186.999c0 -98.667 10.333 -171.334 31 -218.001s51 -70 91 -70c34.667 0 61.167 19 79.5 57s27.5 100.667 27.5 188zM692.999 897.001c0 -46 -8.16602 -89.665 -24.499 -130.998s-39 -77.5 -68 -108.5s-63.5 -55.5 -103.5 -73.5s-84 -27 -132 -27
s-91.167 9 -129.5 27s-71 42.5 -98 73.5s-47.667 67.167 -62 108.5s-21.5 85 -21.5 131c0 46.667 7.66699 90.667 23 132s37.166 77.5 65.499 108.5s62.666 55.5 102.999 73.5s85.5 27 135.5 27c49.333 0 93.333 -9 132 -27s71.334 -42.333 98.001 -73
s47 -66.834 61 -108.501s21 -85.834 21 -132.501z" />
    <glyph glyph-name="ampersand" unicode="&#x26;" horiz-adv-x="1419" 
d="M497 1130c0 -34.667 4.66992 -70.502 14.0029 -107.502s22.666 -75.167 39.999 -114.5c31.333 18.667 57.5 39 78.5 61s37.667 44.333 50 67s21.166 45.5 26.499 68.5s8 45.167 8 66.5c0 46.667 -10.833 83.334 -32.5 110.001s-47.834 40 -78.501 40
c-18 0 -33.667 -5 -47 -15s-24.333 -23.667 -33 -41s-15.167 -37.666 -19.5 -60.999s-6.5 -48 -6.5 -74zM573.003 113.998c38 0 74.4932 5.66895 109.493 17.002s68.167 26.666 99.5 45.999c-31.333 30 -63.166 62.5 -95.499 97.5s-64.166 71.833 -95.499 110.5
s-61.666 78.667 -90.999 120s-56.666 83.333 -81.999 126c-35.333 -42.667 -59.666 -84.834 -72.999 -126.501s-20 -85.5 -20 -131.5c0 -46.667 7.33301 -86.5 22 -119.5s33.834 -59.833 57.501 -80.5s50.334 -35.667 80.001 -45s59.167 -14 88.5 -14zM1414 748l-27 -33.502
l-30 -36c-10 -11.667 -20 -22.5 -30 -32.5s-19 -18 -27 -24c-24.667 11.333 -51.334 21.833 -80.001 31.5s-54.334 15.167 -77.001 16.5c14 -19.333 23 -39 27 -59s6 -42.667 6 -68c0 -44 -10.167 -91 -30.5 -141s-48.833 -99 -85.5 -147l41 -36l39 -33
c34 -28.667 69.5 -46.667 106.5 -54s72.5 -7 106.5 1l16 -73c-28.667 -12.667 -58.834 -24.5 -90.501 -35.5s-61.5 -20.5 -89.5 -28.5s-52.333 -14.333 -73 -19s-34.667 -7 -42 -7c-16.667 0 -42 10.333 -76 31s-73 49.334 -117 86.001c-52.667 -36 -110 -64.5 -172 -85.5
s-127.333 -31.5 -196 -31.5c-70 0 -132.667 8.16699 -188 24.5s-102.333 40.5 -141 72.5s-68.167 71.833 -88.5 119.5s-30.5 102.834 -30.5 165.501c0 70.667 22.333 141.334 67 212.001s115 141.334 211 212.001c-22 50.667 -39.333 100.834 -52 150.501
s-19 98.5 -19 146.5c0 54 10.333 104 31 150s48.834 85.833 84.501 119.5s77.334 60 125.001 79s98.167 28.5 151.5 28.5c50.667 0 94 -6.83301 130 -20.5s65.667 -31.834 89 -54.501s40.5 -48.834 51.5 -78.501s16.5 -60.5 16.5 -92.5c0 -34.667 -8.83301 -70 -26.5 -106
s-41 -71 -70 -105s-62 -66.5 -99 -97.5s-75.167 -58.833 -114.5 -83.5l-31 -20c22.667 -38 47.5 -76.167 74.5 -114.5s55.333 -75.833 85 -112.5l91 -107.5c31 -35 62.167 -68.167 93.5 -99.5c13.333 24 23.5 48.167 30.5 72.5s10.5 48.166 10.5 71.499
c0 28 -4.33301 53.167 -13 75.5s-20.167 41.333 -34.5 57s-30.666 27.667 -48.999 36s-37.166 12.5 -56.499 12.5l-29 35c3.33301 4 8.66602 9.66699 15.999 17l23.5 22.5c8.33301 7.66699 17 14.667 26 21s16.833 10.833 23.5 13.5h481z" />
    <glyph glyph-name="quotesingle" unicode="'" horiz-adv-x="557" 
d="M347 834c-5.33301 -2.66699 -13.332 -5.33301 -23.999 -8s-22.334 -5 -35.001 -7s-25 -3.5 -37 -4.5s-22 -1.5 -30 -1.5l-83 583c4.66699 2.66699 13.167 6.5 25.5 11.5l41.5 16.5c15.333 6 31.666 12 48.999 18l49.5 17l41 13.5
c11.667 3.66699 19.834 6.16699 24.501 7.5l51 -28z" />
    <glyph glyph-name="parenleft" unicode="(" horiz-adv-x="679" 
d="M601 -315c-83.333 44 -155.833 97.6709 -217.5 161.004s-113.167 135 -154.5 215s-72.166 167.167 -92.499 261.5s-30.5 194.5 -30.5 300.5c0 109.333 11.5 213.333 34.5 312s55.833 189.667 98.5 273s94.667 158.166 156 224.499s130 122.166 206 167.499l54 -75
c-40 -40 -77.5 -88 -112.5 -144s-65.5 -120.167 -91.5 -192.5s-46.667 -153.333 -62 -243s-23 -187.834 -23 -294.501c0 -97.333 6.16699 -189.833 18.5 -277.5s30.666 -169.334 54.999 -245.001s54.5 -144.5 90.5 -206.5s77.667 -116 125 -162z" />
    <glyph glyph-name="parenright" unicode=")" horiz-adv-x="679" 
d="M575 662c0 -109.333 -11.5 -213.332 -34.5 -311.999s-55.833 -189.834 -98.5 -273.501s-94.667 -158.667 -156 -225s-130 -122.166 -206 -167.499l-54 75c40 40 77.5 88 112.5 144s65.5 120.333 91.5 193s46.667 153.667 62 243s23 187.666 23 294.999
c0 96.667 -6.16699 189 -18.5 277s-30.666 169.833 -54.999 245.5s-54.5 144.5 -90.5 206.5s-77.667 115.667 -125 161l54 75c82.667 -44 155 -97.667 217 -161s113.667 -134.833 155 -214.5s72.166 -166.667 92.499 -261s30.5 -194.5 30.5 -300.5z" />
    <glyph glyph-name="asterisk" unicode="*" horiz-adv-x="907" 
d="M501 1220l217 183.999l29.5 -21c13 -9.33301 26.333 -19.5 40 -30.5l38.5 -31.5c12 -10 20.667 -17.667 26 -23l-9 -56l-291 -106l268 -96c-0.666992 -8 -2 -20 -4 -36l-6.5 -50c-2.33301 -17.333 -5 -33.666 -8 -48.999s-5.5 -26.666 -7.5 -33.999l-53 -20l-236 197
l50 -278c-7.33301 -4 -18.333 -9.16699 -33 -15.5s-30.167 -12.666 -46.5 -18.999l-46.5 -17.5c-14.667 -5.33301 -25.667 -8.66602 -33 -9.99902l-44 35l53 305l-216 -184l-29.5 21.5l-40 30.5l-38.5 31c-12 10 -20.333 17.667 -25 23l8 56l292 106l-269 96
c0.666992 8 2 20 4 36l6.5 50c2.33301 17.333 5 33.666 8 48.999s5.5 26.666 7.5 33.999l52 20l237 -198l-50 279c7.33301 4 18.333 9.16699 33 15.5s30.167 12.666 46.5 18.999l46.5 17.5c14.667 5.33301 25.667 9 33 11l44 -36z" />
    <glyph glyph-name="plus" unicode="+" horiz-adv-x="863" 
d="M506 225c-6.66699 -3.33301 -14.832 -7.00195 -24.499 -11.002s-19.834 -7.83301 -30.501 -11.5s-21.167 -7 -31.5 -10s-19.166 -5.16699 -26.499 -6.5l-32 30v275h-276l-32 31c2 7.33301 4.83301 16 8.5 26s7.83398 20.333 12.501 31l13.5 30.5
c4.33301 9.66699 8.16602 17.834 11.499 24.501h262v268l24 8l31 10.5l31.5 10.5c10.333 3.33301 19.166 6 26.499 8l32 -31v-274h271l33 -31c-2 -7.33301 -5 -16.166 -9 -26.499l-13 -32l-13.5 -31c-4.33301 -9.66699 -7.83301 -17.167 -10.5 -22.5h-258v-266z" />
    <glyph glyph-name="comma" unicode="," horiz-adv-x="552" 
d="M480 70c0 -36 -7.66699 -74.667 -23 -116s-36.166 -82.5 -62.499 -123.5s-57.166 -79.833 -92.499 -116.5s-73 -68 -113 -94l-68 50c37.333 43.333 66.666 88.333 87.999 135s32 99 32 157c0 14.667 -3.16699 29.334 -9.5 44.001s-15.333 27.5 -27 38.5
s-26 19.5 -43 25.5s-36.167 8.33301 -57.5 7l-16 77c4 5.33301 12.333 11.666 25 18.999s28.167 14.833 46.5 22.5s38.166 15.334 59.499 23.001s42.333 14.667 63 21s40 11.166 58 14.499s32.667 5 44 5c32 -15.333 56 -37.5 72 -66.5s24 -69.833 24 -122.5z" />
    <glyph glyph-name="hyphen" unicode="-" horiz-adv-x="728" 
d="M675 554c-2 -7.33301 -5 -16.333 -9 -27s-8.33301 -21.5 -13 -32.5l-13.5 -31.5c-4.33301 -10 -7.83301 -17.667 -10.5 -23h-544l-32 32c2 7.33301 4.83301 16.166 8.5 26.499s7.83398 20.833 12.501 31.5l13.5 30.5c4.33301 9.66699 8.16602 17.834 11.499 24.501h543z
" />
    <glyph glyph-name="period" unicode="." horiz-adv-x="552" 
d="M459 131c0 -26.667 -4.83398 -50.666 -14.501 -71.999s-22.667 -39.333 -39 -54s-35.666 -25.834 -57.999 -33.501s-46.166 -11.5 -71.499 -11.5c-19.333 0 -37.833 2.5 -55.5 7.5s-33.167 13 -46.5 24s-23.833 25 -31.5 42s-11.5 37.5 -11.5 61.5c0 26 5 49.667 15 71
s23.5 39.333 40.5 54s36.667 26 59 34s45.5 12 69.5 12c18.667 0 36.667 -2.66699 54 -8s32.666 -13.5 45.999 -24.5s24 -25 32 -42s12 -37.167 12 -60.5z" />
    <glyph glyph-name="slash" unicode="/" horiz-adv-x="975" 
d="M242 -277c-6.66699 -4.66699 -17.3301 -9.83203 -31.9971 -15.499s-30.334 -11.167 -47.001 -16.5l-48.5 -15c-15.667 -4.66699 -27.5 -8.33398 -35.5 -11.001l-44 32l701 1847c8.66699 6 20.167 11.667 34.5 17s29.166 10.5 44.499 15.5s30.166 9.5 44.499 13.5l35.5 10
l45 -29z" />
    <glyph glyph-name="zero" unicode="0" horiz-adv-x="1036" 
d="M714 565c0 91.333 -5.16699 170.832 -15.5 238.499s-24.833 123.834 -43.5 168.501s-40.667 78 -66 100s-53 33 -83 33c-30.667 0 -57.334 -8.33301 -80.001 -25s-41.667 -43.334 -57 -80.001s-26.833 -84.167 -34.5 -142.5s-11.5 -129.166 -11.5 -212.499
c0 -183.333 17.833 -320 53.5 -410s86.834 -135 153.501 -135c30.667 0 57.667 8.33301 81 25s42.5 43.5 57.5 80.5s26.333 85 34 144s11.5 130.833 11.5 215.5zM975 601.999c0 -86 -11.502 -167.336 -34.502 -244.003s-55.167 -143.667 -96.5 -201
s-90.666 -102.833 -147.999 -136.5s-120.666 -50.5 -189.999 -50.5s-131.333 16.833 -186 50.5s-101.334 79.167 -140.001 136.5s-68.167 124.333 -88.5 201s-30.5 158 -30.5 244s10.833 167.333 32.5 244s52.834 143.834 93.501 201.501s90 103.334 148 137.001
s123 50.5 195 50.5c70.667 0 133.667 -16.667 189 -50s102 -78.666 140 -135.999s66.833 -124.5 86.5 -201.5s29.5 -158.833 29.5 -245.5z" />
    <glyph glyph-name="one" unicode="1" horiz-adv-x="1036" 
d="M155 0l-0.00292969 83c52 6 95.333 12.833 130 20.5s62.334 15.5 83.001 23.5s35.334 15.833 44.001 23.5s13 15.167 13 22.5v737c0 26.667 -1 47.334 -3 62.001s-7 26.667 -15 36c-4 4 -11.167 7.33301 -21.5 10s-25.5 3.66699 -45.5 3s-45.167 -3 -75.5 -7
s-67.5 -10.667 -111.5 -20l-29 81c18.667 4 41.834 10 69.501 18s57.167 17 88.5 27l97 32.5l95.5 34.5l84 32c25.667 10 46.5 18.667 62.5 26l44 -42v-1030c0 -6.66699 3.66699 -13.834 11 -21.501s20.333 -15.5 39 -23.5s44.167 -16 76.5 -24s73.5 -15 123.5 -21v-83h-760
z" />
    <glyph glyph-name="two" unicode="2" horiz-adv-x="1036" 
d="M911 0l-799.004 0.000976562l-29 74l205.5 243.5l152.5 189c42.667 55 78.167 103.167 106.5 144.5s50.833 78.166 67.5 110.499s28.5 61.5 35.5 87.5s10.5 51 10.5 75c0 28 -3 54.167 -9 78.5s-15.167 45.5 -27.5 63.5s-28.333 32 -48 42s-43.5 15 -71.5 15
c-27.333 0 -50.833 -6 -70.5 -18s-35.5 -27.667 -47.5 -47s-20 -41.166 -24 -65.499s-4 -48.833 0 -73.5c-11.333 -6 -26.166 -12.5 -44.499 -19.5s-37.833 -13.5 -58.5 -19.5s-41.167 -11.333 -61.5 -16s-38.166 -7.66699 -53.499 -9l-35 68
c0 34.667 12.333 70.334 37 107.001s58.167 70.167 100.5 100.5s91.5 55.333 147.5 75s115.333 29.5 178 29.5c51.333 0 98 -5.33301 140 -16s77.833 -26.667 107.5 -48s52.5 -47.666 68.5 -78.999s24 -68 24 -110c0 -30 -4.16699 -59.833 -12.5 -89.5
s-21.666 -61.334 -39.999 -95.001s-42.166 -70.334 -71.499 -110.001s-65 -84.5 -107 -134.5l-146.5 -168l-190.5 -211h399c11.333 0 21.5 2.83301 30.5 8.5s17 13.167 24 22.5s13 20 18 32s9.16699 24.333 12.5 37c8 29.333 13.667 62.666 17 99.999l80 -19z" />
    <glyph glyph-name="three" unicode="3" horiz-adv-x="1036" 
d="M915 381c0 -56 -10.8291 -108.994 -32.4961 -158.994s-52.5 -93.667 -92.5 -131s-88 -66.833 -144 -88.5s-118.333 -32.5 -187 -32.5c-26 0 -55 3.16699 -87 9.5s-65 16.166 -99 29.499s-67.833 30.333 -101.5 51s-65.5 45.334 -95.5 74.001l41 97
c30 -22.667 58.667 -41.834 86 -57.501s53.666 -28.334 78.999 -38.001s50.166 -16.667 74.499 -21s49.166 -6.5 74.499 -6.5c31.333 0 60.833 5 88.5 15s51.667 25.167 72 45.5s36.5 46 48.5 77s18 67.833 18 110.5c0 46 -7.16699 84.667 -21.5 116s-32.5 56.5 -54.5 75.5
s-45.667 32.667 -71 41s-49 12.5 -71 12.5h-23c-6 0 -11.667 -0.333008 -17 -1s-11.333 -1.33398 -18 -2.00098s-15 -2 -25 -4l-18 90c57.333 15.333 103.166 33.5 137.499 54.5s60.833 43 79.5 66s30.834 46.167 36.501 69.5s8.5 45.333 8.5 66c0 22.667 -2.33301 45 -7 67
s-12.5 41.667 -23.5 59s-25.167 31.166 -42.5 41.499s-38.666 15.5 -63.999 15.5c-18 0 -34.667 -4.33301 -50 -13s-28 -20.334 -38 -35.001s-16.667 -32.167 -20 -52.5s-2 -41.833 4 -64.5c-14 -8 -29.833 -15.667 -47.5 -23s-36.334 -14.166 -56.001 -20.499
s-39.5 -11.833 -59.5 -16.5s-39.333 -7.66699 -58 -9l-34 61c0 28 10.167 58.667 30.5 92s48.833 64.166 85.5 92.499s80.5 52.166 131.5 71.499s107.167 29 168.5 29c60.667 0 112.5 -8 155.5 -24s77.833 -37.167 104.5 -63.5s46.167 -56 58.5 -89s18.5 -66.5 18.5 -100.5
c0 -25.333 -5.16699 -51 -15.5 -77s-24.833 -50.833 -43.5 -74.5s-41 -45 -67 -64s-55 -33.833 -87 -44.5c40.667 -4 77.667 -15.167 111 -33.5s61.666 -41.833 84.999 -70.5s41.5 -61.167 54.5 -97.5s19.5 -74.833 19.5 -115.5z" />
    <glyph glyph-name="four" unicode="4" horiz-adv-x="1036" 
d="M570 980l-319 -505h319v505zM957 445c-14 -21.333 -30.666 -42.168 -49.999 -62.501s-36.666 -36.166 -51.999 -47.499h-55v-201c0 -5.33301 2 -10.166 6 -14.499s11.333 -9 22 -14s25 -10.167 43 -15.5s40.667 -11 68 -17v-73h-579v73
c43.333 7.33301 78.666 14.166 105.999 20.499s48.666 12.333 63.999 18s25.833 11.167 31.5 16.5s8.5 11 8.5 17v190h-474l-41 41l481 791l53 18l59 20.5l58 21l50 18.5l44 -42v-728h131z" />
    <glyph glyph-name="five" unicode="5" horiz-adv-x="1036" 
d="M919 410c0 -58 -8.83496 -113.504 -26.502 -166.504s-45 -99.833 -82 -140.5s-83.667 -73 -140 -97s-123.166 -36 -200.499 -36c-30.667 0 -63 3.33301 -97 10s-68 16.667 -102 30s-67.5 30 -100.5 50s-63.833 43.333 -92.5 70l50 90
c35.333 -24.667 68.333 -44.667 99 -60s59.167 -27.5 85.5 -36.5s50.666 -15.167 72.999 -18.5s43.166 -5 62.499 -5c33.333 0 64 6.83301 92 20.5s52 32.334 72 56.001s35.667 51.834 47 84.501s17 68 17 106c0 45.333 -5.83301 85.5 -17.5 120.5s-28.167 64.333 -49.5 88
s-46.833 41.667 -76.5 54s-62.834 18.5 -99.501 18.5c-53.333 0 -99.333 -8 -138 -24s-75.667 -37.333 -111 -64l-47 33l14 86l16.5 106l17 115.5c5.66699 39.667 10.834 78.167 15.501 115.5s8.66699 72.333 12 105s5.66602 60.667 6.99902 84h526
c19.333 0 36.333 0.833008 51 2.5s27.334 3.83398 38.001 6.50098c12 2.66699 22.667 5.66699 32 9l37 -36l-29 -40.5c-12 -16.333 -24.667 -32.666 -38 -48.999s-26.166 -31.333 -38.499 -45s-22.5 -23.5 -30.5 -29.5h-432c-1.33301 -19.333 -3.33301 -41.5 -6 -66.5
s-6 -50 -10 -75l-12 -71.5l-10 -56c30 13.333 63.333 23.5 100 30.5s76.334 10.5 119.001 10.5c66.667 0 125.334 -10.833 176.001 -32.5s92.667 -50.5 126 -86.5s58.5 -77.167 75.5 -123.5s25.5 -93.833 25.5 -142.5z" />
    <glyph glyph-name="six" unicode="6" horiz-adv-x="1036" 
d="M545 645c-28.667 0 -59.833 -9.5 -93.5 -28.5s-66.5 -45.833 -98.5 -80.5c0 -78.667 5.66699 -145.834 17 -201.501s27 -101 47 -136s43.5 -60.5 70.5 -76.5s56.167 -24 87.5 -24c28.667 0 52.667 7.33301 72 22s34.666 33.667 45.999 57s19.333 50 24 80s7 60.333 7 91
c0 62.667 -5.33301 113.334 -16 152.001s-24.5 68.667 -41.5 90s-36.167 35.833 -57.5 43.5s-42.666 11.5 -63.999 11.5zM971.001 412c0 -31.333 -4.00391 -64.001 -12.0039 -98.001s-19.833 -67.333 -35.5 -100s-35.167 -63.667 -58.5 -93s-50.666 -55.166 -81.999 -77.499
s-66.333 -40.166 -105 -53.499s-81 -20 -127 -20c-63.333 0 -122.666 12.167 -177.999 36.5s-103.666 58.5 -144.999 102.5s-73.833 96.833 -97.5 158.5s-35.5 130.167 -35.5 205.5c0 94 16 184.167 48 270.5s79.5 164 142.5 233s141.5 127.333 235.5 175
s203 80.167 327 97.5l27 -89c-80.667 -17.333 -150.5 -41.833 -209.5 -73.5s-109 -68.5 -150 -110.5s-73.667 -88 -98 -138s-41.5 -102.333 -51.5 -157c42 34.667 84.333 60.667 127 78s81.334 26 116.001 26c56.667 0 107.5 -9.16699 152.5 -27.5s83 -44 114 -77
s54.667 -72.333 71 -118s24.5 -95.834 24.5 -150.501z" />
    <glyph glyph-name="seven" unicode="7" horiz-adv-x="1036" 
d="M960 1167l-90.999 -217.499l-87 -215.5l-80 -206l-70.5 -188l-58.5 -161.5c-17.333 -49 -31.666 -91.167 -42.999 -126.5c-12 -8 -27.167 -16 -45.5 -24s-37.833 -15.667 -58.5 -23s-41.334 -14 -62.001 -20s-39.334 -11 -56.001 -15l-49 41l155 282.5l125.5 249
l109.5 236l107 244.5h-447c-10 0 -20.333 -1 -31 -3s-22 -8.16699 -34 -18.5s-24.667 -26.333 -38 -48s-27 -51.834 -41 -90.501l-68 25l9 67.5l13 92.5c4.66699 32 9.5 62.5 14.5 91.5s9.5 50.833 13.5 65.5h780z" />
    <glyph glyph-name="eight" unicode="8" horiz-adv-x="1036" 
d="M358 950c0 -25.333 5.66699 -47.501 17 -66.501s26.833 -36.167 46.5 -51.5s42.5 -29.333 68.5 -42s53.667 -25.334 83 -38.001c58 60.667 87 122.667 87 186c0 34.667 -4.66699 63.667 -14 87s-21.5 42 -36.5 56s-32.333 23.833 -52 29.5s-40.167 8.5 -61.5 8.5
c-22 0 -41.667 -4.66699 -59 -14s-31.833 -21.666 -43.5 -36.999s-20.5 -33.166 -26.5 -53.499s-9 -41.833 -9 -64.5zM700 308.999c0 38.667 -6.33008 72.167 -18.9971 100.5s-29.834 53.166 -51.501 74.499s-46.667 39.833 -75 55.5s-57.833 30.167 -88.5 43.5
c-21.333 -20.667 -40.166 -41.167 -56.499 -61.5s-29.833 -41.166 -40.5 -62.499s-18.667 -43.833 -24 -67.5s-8 -49.167 -8 -76.5c0 -34.667 5.33301 -65.834 16 -93.501s25 -51 43 -70s38.667 -33.5 62 -43.5s47.333 -15 72 -15c27.333 0 51.666 5.83301 72.999 17.5
s39.166 27.334 53.499 47.001s25.166 42.5 32.499 68.5s11 53.667 11 83zM957.003 351.999c0 -52 -11.832 -100.998 -35.499 -146.998s-56.334 -86.5 -98.001 -121.5s-90.5 -62.667 -146.5 -83s-116.333 -30.5 -181 -30.5c-68 0 -128 8.66699 -180 26
s-95.5 40.666 -130.5 69.999s-61.5 62.833 -79.5 100.5s-27 77.167 -27 118.5c0 34.667 6.66699 68.334 20 101.001s32.166 63.667 56.499 93s53.333 57 87 83s70.5 49.333 110.5 70c-30 14 -58.333 29 -85 45s-50.334 35 -71.001 57s-37 47.667 -49 77s-18 64 -18 104
c0 46 10.5 88.667 31.5 128s49.667 73.166 86 101.499s78.833 50.5 127.5 66.5s101 24 157 24c63.333 0 118.5 -6.66699 165.5 -20s86 -31.666 117 -54.999s54.167 -51.333 69.5 -84s23 -68.334 23 -107.001c0 -26 -5.5 -51 -16.5 -75s-26.167 -47 -45.5 -69
s-42.166 -43.167 -68.499 -63.5s-54.833 -40.5 -85.5 -60.5c34.667 -16 68 -34 100 -54s60.333 -43.667 85 -71s44.334 -59.333 59.001 -96s22 -79.334 22 -128.001z" />
    <glyph glyph-name="nine" unicode="9" horiz-adv-x="1036" 
d="M511 570c38 0 73.167 9.83203 105.5 29.499s61.166 44.5 86.499 74.5c-1.33301 90.667 -8 164.167 -20 220.5s-27 100.333 -45 132s-38.167 53.167 -60.5 64.5s-44.833 17 -67.5 17c-56 0 -99.5 -22.167 -130.5 -66.5s-46.5 -106.166 -46.5 -185.499
c0 -56 6.16699 -102.333 18.5 -139s27.5 -66 45.5 -88s37.333 -37.333 58 -46s39.334 -13 56.001 -13zM960 730.999c0 -101.333 -15.667 -195.831 -47 -283.498s-78.5 -165.334 -141.5 -233.001s-141.667 -123.834 -236 -168.501s-204.5 -74.334 -330.5 -89.001l-25 89
c92.667 22.667 170.667 50.334 234 83.001s114.833 69.5 154.5 110.5s69.5 86 89.5 135s33 101.5 39 157.5c-34.667 -34 -73.334 -60.667 -116.001 -80s-87.667 -29 -135 -29c-58.667 0 -110.5 10 -155.5 30s-82.667 47 -113 81s-53.333 73.5 -69 118.5
s-23.5 92.5 -23.5 142.5c0 33.333 5 67.5 15 102.5s24.333 68.833 43 101.5s41.334 63.334 68.001 92.001s56.667 53.667 90 75s69.833 38.166 109.5 50.499s81.5 18.5 125.5 18.5c61.333 0 118 -9.66699 170 -29s96.833 -49.5 134.5 -90.5s67 -93.167 88 -156.5
s31.5 -139.333 31.5 -228z" />
    <glyph glyph-name="colon" unicode=":" horiz-adv-x="552" 
d="M459 825c0 -26.667 -4.83398 -50.666 -14.501 -71.999s-22.667 -39.333 -39 -54s-35.666 -25.834 -57.999 -33.501s-46.166 -11.5 -71.499 -11.5c-19.333 0 -37.833 2.5 -55.5 7.5s-33.167 13 -46.5 24s-23.833 25 -31.5 42s-11.5 37.5 -11.5 61.5c0 26 5 49.667 15 71
s23.5 39.333 40.5 54s36.667 26 59 34s45.5 12 69.5 12c18.667 0 36.667 -2.66699 54 -8s32.666 -13.5 45.999 -24.5s24 -25 32 -42s12 -37.167 12 -60.5zM458.999 131.001c0 -26.667 -4.83398 -50.666 -14.501 -71.999s-22.667 -39.333 -39 -54
s-35.666 -25.834 -57.999 -33.501s-46.166 -11.5 -71.499 -11.5c-19.333 0 -37.833 2.5 -55.5 7.5s-33.167 13 -46.5 24s-23.833 25 -31.5 42s-11.5 37.5 -11.5 61.5c0 26 5 49.667 15 71s23.5 39.333 40.5 54s36.667 26 59 34s45.5 12 69.5 12
c18.667 0 36.667 -2.66699 54 -8s32.666 -13.5 45.999 -24.5s24 -25 32 -42s12 -37.167 12 -60.5z" />
    <glyph glyph-name="semicolon" unicode=";" horiz-adv-x="552" 
d="M480 70c0 -36 -7.66699 -74.667 -23 -116s-36.166 -82.5 -62.499 -123.5s-57.166 -79.833 -92.499 -116.5s-73 -68 -113 -94l-68 50c37.333 43.333 66.666 88.333 87.999 135s32 99 32 157c0 14.667 -3.16699 29.334 -9.5 44.001s-15.333 27.5 -27 38.5
s-26 19.5 -43 25.5s-36.167 8.33301 -57.5 7l-16 77c4 5.33301 12.333 11.666 25 18.999s28.167 14.833 46.5 22.5s38.166 15.334 59.499 23.001s42.333 14.667 63 21s40 11.166 58 14.499s32.667 5 44 5c32 -15.333 56 -37.5 72 -66.5s24 -69.833 24 -122.5zM459 825
c0 -26.667 -4.83398 -50.666 -14.501 -71.999s-22.667 -39.333 -39 -54s-35.666 -25.834 -57.999 -33.501s-46.166 -11.5 -71.499 -11.5c-19.333 0 -37.833 2.5 -55.5 7.5s-33.167 13 -46.5 24s-23.833 25 -31.5 42s-11.5 37.5 -11.5 61.5c0 26 5 49.667 15 71
s23.5 39.333 40.5 54s36.667 26 59 34s45.5 12 69.5 12c18.667 0 36.667 -2.66699 54 -8s32.666 -13.5 45.999 -24.5s24 -25 32 -42s12 -37.167 12 -60.5z" />
    <glyph glyph-name="less" unicode="&#x3c;" horiz-adv-x="930" 
d="M877 333c-14.667 -13.333 -30.8311 -28.8301 -48.498 -46.4971s-36.834 -32.834 -57.501 -45.501l-686 246l-32 39l3 12l5 18l10 34c1.33301 5.33301 3 10.666 5 15.999s3.66699 10.333 5 15c0.666992 2 1.16699 4.16699 1.5 6.5s1.16602 4.16602 2.49902 5.49902l6 15
l754 272l32 -32l-7.5 -28.5c-3 -11.667 -6.33301 -24 -10 -37l-10.5 -37c-3.33301 -11.667 -6 -20.5 -8 -26.5l-529 -190l541 -193z" />
    <glyph glyph-name="equal" unicode="=" horiz-adv-x="930" 
d="M877 452c-2 -7.33301 -5 -16.168 -9 -26.501s-8.33301 -20.833 -13 -31.5l-13.5 -30.5c-4.33301 -9.66699 -7.5 -17.5 -9.5 -23.5h-747l-32 32c2 7.33301 4.83301 16 8.5 26s7.83398 20.333 12.501 31l13.5 30.5c4.33301 9.66699 8.16602 17.834 11.499 24.501h746z
M877 751.998c-2 -7.33301 -5 -16.168 -9 -26.501l-13 -32l-13.5 -31c-4.33301 -9.66699 -7.5 -17.167 -9.5 -22.5h-747l-32 32c2 6.66699 4.83301 15.167 8.5 25.5s7.83398 20.833 12.501 31.5l13.5 30.5c4.33301 9.66699 8.16602 17.834 11.499 24.501h746z" />
    <glyph glyph-name="greater" unicode="&#x3e;" horiz-adv-x="930" 
d="M877 635c-2 -8.66699 -4.5 -18.333 -7.5 -29s-6.33301 -21.5 -10 -32.5l-11 -32.5l-9.5 -28l-754 -272l-32 33c2 6.66699 4.5 16 7.5 28s6.33301 24.333 10 37l11 36.5l8.5 26.5l526 190l-539 193l-24 44l50.5 46.5c19 17.667 37.5 32.5 55.5 44.5l686 -245z" />
    <glyph glyph-name="question" unicode="?" horiz-adv-x="932" 
d="M866 1165c0 -50 -8.49609 -95.5029 -25.4961 -136.503s-38.333 -79.333 -64 -115s-53.667 -69.5 -84 -101.5s-58.833 -64 -85.5 -96s-49.334 -64.833 -68.001 -98.5s-29.334 -70.167 -32.001 -109.5l-6 -96c-12.667 -9.33301 -27.667 -17.166 -45 -23.499
s-35.333 -12.166 -54 -17.499l-32 28l-8 109c-2 38 2.66699 75.333 14 112s26 72.334 44 107.001s37.667 68.667 59 102s41.333 66.333 60 99s34.334 64.834 47.001 96.501s19 63.5 19 95.5c0 82.667 -13.5 143.667 -40.5 183s-63.833 59 -110.5 59
c-16.667 0 -32.667 -4.33301 -48 -13s-28.833 -20.667 -40.5 -36s-21 -33.833 -28 -55.5s-10.5 -45.5 -10.5 -71.5c0 -9.33301 1.16699 -20.166 3.5 -32.499s5.16602 -23.166 8.49902 -32.499c-10.667 -5.33301 -26.334 -11.333 -47.001 -18s-42.5 -12.834 -65.5 -18.501
s-45.833 -10.834 -68.5 -15.501s-41.334 -7.66699 -56.001 -9l-35 38c-1.33301 5.33301 -2 13.333 -2 24v24c0 46.667 12.5 90.334 37.5 131.001s58.667 76 101 106s91.166 53.667 146.499 71s113.666 26 174.999 26c54.667 0 103.334 -7.66699 146.001 -23
s78.334 -36.833 107.001 -64.5s50.5 -60.834 65.5 -99.501s22.5 -81.334 22.5 -128.001zM608.004 130.997c0 -26.667 -4.83398 -50.666 -14.501 -71.999s-22.667 -39.333 -39 -54s-35.666 -25.834 -57.999 -33.501s-46.166 -11.5 -71.499 -11.5
c-19.333 0 -37.833 2.5 -55.5 7.5s-33.167 13 -46.5 24s-23.833 25 -31.5 42s-11.5 37.5 -11.5 61.5c0 26 5 49.667 15 71s23.5 39.333 40.5 54s36.667 26 59 34s45.5 12 69.5 12c18.667 0 36.667 -2.66699 54 -8s32.666 -13.5 45.999 -24.5s24 -25 32 -42
s12 -37.167 12 -60.5z" />
    <glyph glyph-name="at" unicode="@" horiz-adv-x="1796" 
d="M1044 731c-14.667 30 -31.166 53.667 -49.499 71s-43.833 26 -76.5 26c-58.667 0 -103.334 -28.833 -134.001 -86.5s-46 -148.834 -46 -273.501c0 -56.667 4.66699 -104.667 14 -144s21.5 -71.166 36.5 -95.499s31.667 -41.833 50 -52.5s36.5 -16 54.5 -16
c12.667 0 24.5 1.66699 35.5 5s22 9.5 33 18.5s23 21.333 36 37s28.5 35.5 46.5 59.5v451zM1711 572c0 -56.667 -6.66406 -110.837 -19.9971 -162.504s-31.666 -99.834 -54.999 -144.501s-50.833 -85.167 -82.5 -121.5s-65.834 -67.333 -102.501 -93
s-74.834 -45.5 -114.501 -59.5s-79.5 -21 -119.5 -21c-20 0 -38.667 2.66699 -56 8s-33.166 14.166 -47.499 26.499s-26.833 28.833 -37.5 49.5s-19.334 46.667 -26.001 78c-27.333 -32 -51.166 -58.5 -71.499 -79.5s-39.833 -37.667 -58.5 -50s-38 -20.833 -58 -25.5
s-43.333 -7 -70 -7c-34 0 -68.5 9.33301 -103.5 28s-66.5 47.167 -94.5 85.5s-51 86.833 -69 145.5s-27 128 -27 208c0 42 4.33301 84 13 126s21.5 82.5 38.5 121.5s38 75.167 63 108.5s53.667 62.5 86 87.5s68.166 44.5 107.499 58.5s82 21 128 21
c15.333 0 29.666 -1.16699 42.999 -3.5s26.666 -6.66602 39.999 -12.999s27 -15.5 41 -27.5s29 -27.667 45 -47c36.667 12.667 68.5 25.834 95.5 39.501s55.167 30.834 84.5 51.501l31 -30c-6 -23.333 -11 -47.666 -15 -72.999c-4 -21.333 -7.5 -45.666 -10.5 -72.999
s-4.5 -55 -4.5 -83v-416c0 -40.667 4.66699 -71.334 14 -92.001s28.333 -31 57 -31c16.667 0 34.5 7.66699 53.5 23s36.5 37.833 52.5 67.5s29.167 66.334 39.5 110.001s15.5 93.5 15.5 149.5c0 114 -14 213.5 -42 298.5s-67.333 155.667 -118 212s-111.5 98.5 -182.5 126.5
s-149.5 42 -235.5 42c-102 0 -192.167 -17.833 -270.5 -53.5s-144 -83.834 -197 -144.501s-93 -131.5 -120 -212.5s-40.5 -166.5 -40.5 -256.5c0 -126 17.5 -236.667 52.5 -332s82.667 -175 143 -239s131.166 -112.167 212.499 -144.5s168 -48.5 260 -48.5
c64 0 124 5.83301 180 17.5s107 26.167 153 43.5s86.167 36 120.5 56s61.5 38.667 81.5 56l47 -87c-24 -27.333 -55.167 -56.166 -93.5 -86.499s-83.666 -58.166 -135.999 -83.499s-112 -46.5 -179 -63.5s-141.167 -25.5 -222.5 -25.5c-124 0 -237.667 20 -341 60
s-192.333 97.667 -267 173s-132.667 167.333 -174 276s-62 231.667 -62 369c0 80.667 10.5 158.834 31.5 234.501s50.667 146.667 89 213s84.5 127.166 138.5 182.499s114 102.833 180 142.5s137.167 70.5 213.5 92.5s156.166 33 239.499 33
c108.667 0 208 -16.167 298 -48.5s167.333 -81.333 232 -147s114.834 -148 150.501 -247s53.5 -215.167 53.5 -348.5z" />
    <glyph glyph-name="A" unicode="A" horiz-adv-x="1287" 
d="M747 550l-165 465l-150 -465h315zM392 430l-95.9941 -289.001c-6.66699 -20.667 1.5 -35.667 24.5 -45s61.833 -17 116.5 -23v-73h-437v73c45.333 8 80.166 16.333 104.499 25s39.833 23 46.5 43l349 1066c16 13.333 33.167 25.666 51.5 36.999s37.333 21.5 57 30.5
s39.167 17 58.5 24s37.666 13.167 54.999 18.5l420 -1176c3.33301 -9.33301 7.66602 -17.666 12.999 -24.999s12.666 -13.666 21.999 -18.999s21.166 -10 35.499 -14s32.166 -7.33301 53.499 -10v-73h-497v73c52 3.33301 87.167 10 105.5 20s23.833 26 16.5 48l-102 289
h-397z" />
    <glyph glyph-name="B" unicode="B" horiz-adv-x="1231" 
d="M1129 356c0 -56.667 -11.8311 -107.838 -35.498 -153.505s-57.834 -84.5 -102.501 -116.5s-98.834 -56.667 -162.501 -74s-135.834 -26 -216.501 -26c-14.667 0 -32.834 0.166992 -54.501 0.5s-45.334 0.833008 -71.001 1.5l-80.5 2c-28 0.666992 -55.333 1.66699 -82 3
c-63.333 2 -130.333 4.33301 -201 7h-80v73c45.333 9.33301 79.5 19.5 102.5 30.5s34.5 21.167 34.5 30.5v1031c-25.333 -2.66699 -49.666 -5.66699 -72.999 -9s-44.666 -6.66602 -63.999 -9.99902l-13 84c30 7.33301 65.333 14.5 106 21.5s83.5 13.333 128.5 19
s90.333 10.334 136 14.001s88.5 5.5 128.5 5.5c76.667 0 145.167 -6.16699 205.5 -18.5s111.5 -30.166 153.5 -53.499s74.167 -51.666 96.5 -84.999s33.5 -71 33.5 -113c0 -72 -19.333 -133.667 -58 -185s-95.334 -88.666 -170.001 -111.999c50 -8 95.833 -23 137.5 -45
s77.334 -49.167 107.001 -81.5s52.834 -69 69.501 -110s25 -84.5 25 -130.5zM565.002 638.996c-30.667 0 -56.001 -1.33398 -76.001 -4.00098s-39.667 -5.66699 -59 -9v-499c0 -4.66699 1.66699 -9 5 -13c19.333 -8 40.833 -13.5 64.5 -16.5s48.834 -4.5 75.501 -4.5
c96.667 0 169.5 21.833 218.5 65.5s73.5 103.167 73.5 178.5c0 36.667 -4.83301 73 -14.5 109s-26.167 68.333 -49.5 97s-54.333 51.834 -93 69.501s-87 26.5 -145 26.5zM466.001 1184h-17.001c-6 0 -12.333 -0.333008 -19 -1v-443h19c66.667 0 120.5 6.66699 161.5 20
s73 30.833 96 52.5s38.5 46.334 46.5 74.001s12 55.834 12 84.501c0 33.333 -4.83301 63.166 -14.5 89.499s-26.167 48.666 -49.5 66.999s-54.166 32.333 -92.499 42s-85.833 14.5 -142.5 14.5z" />
    <glyph glyph-name="C" unicode="C" horiz-adv-x="1143" 
d="M1071 211c-42.667 -43.333 -84.6621 -80.335 -125.995 -111.002s-82.333 -55.667 -123 -75s-80.667 -33.333 -120 -42s-78 -13 -116 -13c-67.333 0 -132.833 14 -196.5 42s-120.334 68.333 -170.001 121s-89.5 117.167 -119.5 193.5s-45 162.833 -45 259.5
c0 106.667 16.333 203.334 49 290.001s77.667 160.834 135 222.501s124.666 109.167 201.999 142.5s160.666 49.666 249.999 48.999c36 0 71.667 -2.66699 107 -8s69 -12.5 101 -21.5s61.167 -19.5 87.5 -31.5s48.166 -25 65.499 -39c2.66699 -2 2.5 -8 -0.5 -18
s-7.5 -22 -13.5 -36s-13.167 -29.167 -21.5 -45.5s-16.833 -32 -25.5 -47s-16.834 -28.5 -24.501 -40.5s-14.167 -20.667 -19.5 -26l-65 14c-34 58.667 -72.833 101.167 -116.5 127.5s-91.5 39.5 -143.5 39.5c-22.667 0 -46.167 -3.66699 -70.5 -11
s-48.166 -19.333 -71.499 -36s-45.5 -38.5 -66.5 -65.5s-39.333 -60.167 -55 -99.5s-28 -85.666 -37 -138.999s-13.5 -114.666 -13.5 -183.999c0 -85.333 11.167 -158.666 33.5 -219.999s51.333 -111.833 87 -151.5s75.667 -69 120 -88s88.5 -28.5 132.5 -28.5
c18 0 39.167 2 63.5 6s51 11.5 80 22.5s59.833 25.667 92.5 44s66.667 42.166 102 71.499c3.33301 -2.66699 7.66602 -7.33398 12.999 -14.001s10.5 -13.667 15.5 -21l14 -20.5c4.33301 -6.33301 7.5 -10.5 9.5 -12.5z" />
    <glyph glyph-name="D" unicode="D" horiz-adv-x="1304" 
d="M1221 676c0 -83.333 -8.50098 -157.833 -25.501 -223.5s-40.167 -123.667 -69.5 -174s-63.666 -93 -102.999 -128s-81.333 -63.667 -126 -86s-90.834 -38.666 -138.501 -48.999s-94.167 -15.5 -139.5 -15.5h-576v73c45.333 9.33301 79.5 19.5 102.5 30.5
s34.5 21.167 34.5 30.5v1023l-137 -19l-13 92c32.667 8 71.5 15.667 116.5 23s92.333 13.833 142 19.5s99.5 10 149.5 13s96.667 4.5 140 4.5c102 0 193 -13.833 273 -41.5s147.333 -67.834 202 -120.501s96.334 -117 125.001 -193s43 -162.333 43 -259zM505.999 1184
c-12 0 -24.3281 -0.165039 -36.9951 -0.498047s-25.667 -0.833008 -39 -1.5v-1015c0 -4.66699 0.666992 -9.33398 2 -14.001c2 -7.33301 5.66699 -13.833 11 -19.5s13.666 -10.5 24.999 -14.5s26.166 -7 44.499 -9s41.5 -3 69.5 -3c25.333 0 52.166 4.33301 80.499 13
s56.333 22.334 84 41.001s54 42.167 79 70.5s46.833 62.166 65.5 101.499s33.667 84.166 45 134.499s17 106.833 17 169.5c0 88.667 -9.66699 167 -29 235s-47.833 125.167 -85.5 171.5s-84.334 81.333 -140.001 105s-119.834 35.5 -192.501 35.5z" />
    <glyph glyph-name="E" unicode="E" horiz-adv-x="1076" 
d="M1029 304c-2.66699 -28.667 -5.67383 -58.834 -9.00684 -90.501s-7 -61.667 -11 -90s-7.83301 -53.5 -11.5 -75.5s-6.83398 -38 -9.50098 -48h-945v73c45.333 9.33301 79.5 19.5 102.5 30.5s34.5 21.167 34.5 30.5v991c0 8 -10.833 18 -32.5 30s-56.5 22.667 -104.5 32
v73h881l40 -32c-1.33301 -17.333 -3.33301 -39 -6 -65s-6 -52.667 -10 -80s-8.16699 -53.166 -12.5 -77.499s-8.5 -42.833 -12.5 -55.5h-75c-3.33301 62 -11.666 109.167 -24.999 141.5s-32.333 48.5 -57 48.5h-336v-405h398l33 -35l-19.5 -32.5
c-7.66699 -12.333 -15.667 -24.5 -24 -36.5s-16.666 -23.167 -24.999 -33.5s-16.166 -18.166 -23.499 -23.499c-10 10 -20.833 18.333 -32.5 25s-25 12.334 -40 17.001s-32.667 8 -53 10s-44.5 3 -72.5 3h-141v-445c0 -10 2.33301 -18.833 7 -26.5
s14.334 -14.334 29.001 -20.001s35.334 -10 62.001 -13s62 -4.5 106 -4.5h99c30.667 0 56.834 3.66699 78.501 11s40.834 19.166 57.501 35.499s31.834 37.833 45.501 64.5s27.5 59.667 41.5 99z" />
    <glyph glyph-name="F" unicode="F" horiz-adv-x="1039" 
d="M43 0v72.998c45.333 9.33301 79.5 19.5 102.5 30.5s34.5 21.167 34.5 30.5v991c0 8 -10.833 18 -32.5 30s-56.5 22.667 -104.5 32v73h891l38 -32c-0.666992 -17.333 -2.33398 -39 -5.00098 -65s-5.83398 -52.667 -9.50098 -80s-7.66699 -53.166 -12 -77.499
s-8.5 -42.833 -12.5 -55.5h-77c-2 62 -9.83301 109.167 -23.5 141.5s-33.167 48.5 -58.5 48.5h-344v-405h367l36 -35c-6 -11.333 -13 -23.333 -21 -36s-16.333 -24.667 -25 -36s-17.167 -21.833 -25.5 -31.5s-15.833 -17.167 -22.5 -22.5c-10 10 -20.667 18.333 -32 25
s-24.5 12.334 -39.5 17.001s-32.667 8 -53 10s-44.5 3 -72.5 3h-112v-495c0 -4 2.66699 -8.33301 8 -13s14.333 -9.5 27 -14.5s29.834 -10.333 51.501 -16s48.834 -11.5 81.501 -17.5v-73h-555z" />
    <glyph glyph-name="G" unicode="G" horiz-adv-x="1232" 
d="M1095 1188c3.33301 -2.66699 3.66992 -8.83203 1.00293 -18.499s-7.16699 -21.167 -13.5 -34.5s-14 -28 -23 -44l-27 -46c-9 -14.667 -17.833 -27.667 -26.5 -39s-16 -19.666 -22 -24.999l-63 14c-22 32 -44.167 59 -66.5 81s-45.5 39.5 -69.5 52.5s-49 22.333 -75 28
s-53.333 8.5 -82 8.5c-16.667 0 -36.167 -3.33301 -58.5 -10s-45.333 -18 -69 -34s-47 -37.333 -70 -64s-43.5 -59.5 -61.5 -98.5s-32.667 -85 -44 -138s-17 -114.167 -17 -183.5c0 -89.333 10.333 -166 31 -230s48.167 -116.667 82.5 -158s73.5 -71.833 117.5 -91.5
s89.667 -29.5 137 -29.5c36.667 0 69.5 3.33301 98.5 10s55.167 15.667 78.5 27v305c0 7.33301 -1.33301 14.5 -4 21.5s-9.33398 13.833 -20.001 20.5s-26.834 13.334 -48.501 20.001s-51.167 13.334 -88.5 20.001v73h498v-73c-38 -9.33301 -63.667 -21.5 -77 -36.5
s-20 -30.167 -20 -45.5v-301c-49.333 -40.667 -95.5 -73.834 -138.5 -99.501s-83.167 -45.834 -120.5 -60.501s-72.666 -24.834 -105.999 -30.501s-65 -8.5 -95 -8.5c-48.667 0 -96.667 5.5 -144 16.5s-92.333 27.667 -135 50s-82.334 50.5 -119.001 84.5
s-68.334 73.667 -95.001 119s-47.5 96.5 -62.5 153.5s-22.5 119.833 -22.5 188.5c0 110.667 17.667 209.834 53 297.501s84.333 162 147 223s136.334 107.5 221.001 139.5s176.667 48 276 48c22 0 48.167 -2.33301 78.5 -7s61.5 -11.334 93.5 -20.001
s63.167 -19.334 93.5 -32.001s56.166 -27 77.499 -43z" />
    <glyph glyph-name="H" unicode="H" horiz-adv-x="1399" 
d="M43 0l-0.00292969 72.9961c45.333 9.33301 79.5 19.5 102.5 30.5s34.5 21.167 34.5 30.5v991c0 8 -10.833 18 -32.5 30s-56.5 22.667 -104.5 32v73h525v-73c-45.333 -9.33301 -79.666 -19.666 -102.999 -30.999s-35 -21.666 -35 -30.999v-405h520v405
c0 8 -10.833 18 -32.5 30s-56.5 22.667 -104.5 32v73h525v-73c-45.333 -9.33301 -79.666 -19.666 -102.999 -30.999s-35 -21.666 -35 -30.999v-991c0 -8 11 -17.833 33 -29.5s57 -22.167 105 -31.5v-73h-525v73c45.333 9.33301 79.5 19.5 102.5 30.5s34.5 21.167 34.5 30.5
v466h-520v-466c0 -8 10.833 -17.833 32.5 -29.5s56.834 -22.167 105.501 -31.5v-73h-525z" />
    <glyph glyph-name="I" unicode="I" horiz-adv-x="670" 
d="M63 0l-0.000976562 72.998c45.333 9.33301 79.5 19.5 102.5 30.5s34.5 21.167 34.5 30.5v991c0 8 -10.833 18 -32.5 30s-56.5 22.667 -104.5 32v73h525v-73c-45.333 -9.33301 -79.666 -19.666 -102.999 -30.999s-35 -21.666 -35 -30.999v-991c0 -8 11 -17.833 33 -29.5
s57 -22.167 105 -31.5v-73h-525z" />
    <glyph glyph-name="J" unicode="J" horiz-adv-x="685" 
d="M623 1187c-45.333 -9.33301 -79.667 -19.6631 -103 -30.9961s-35 -21.666 -35 -30.999v-942c0 -73.333 -7.33301 -136.333 -22 -189s-33.5 -98 -56.5 -136s-48.5 -70.333 -76.5 -97s-55 -50.667 -81 -72c-18 -14.667 -38.167 -28.5 -60.5 -41.5s-45.5 -24.333 -69.5 -34
s-48.333 -17.334 -73 -23.001s-48.334 -8.5 -71.001 -8.5c-30 0 -59.333 3.5 -88 10.5s-54.167 15.5 -76.5 25.5s-40.5 20.5 -54.5 31.5s-21 20.167 -21 27.5s7 19.166 21 35.499s30.333 33.166 49 50.499s37.334 33.166 56.001 47.499s32.667 23.166 42 26.499
c37.333 -32 71.833 -54.5 103.5 -67.5s60.167 -19.5 85.5 -19.5c17.333 0 34.5 4 51.5 12s32.333 24.833 46 50.5s24.667 62.167 33 109.5s12.5 110.333 12.5 189v1014c0 4 -2.16699 8.33301 -6.5 13s-13.333 9.66699 -27 15s-32.667 10.833 -57 16.5s-56.5 11.5 -96.5 17.5
v73h575v-73z" />
    <glyph glyph-name="K" unicode="K" horiz-adv-x="1267" 
d="M43 0v73c45.333 9.33301 79.5 19.5 102.5 30.5s34.5 21.167 34.5 30.5v991c0 8 -10.833 18 -32.5 30s-56.5 22.667 -104.5 32v73h525v-73c-45.333 -9.33301 -79.666 -19.666 -102.999 -30.999s-35 -21.666 -35 -30.999v-466l372 439c15.333 18 26.166 32.333 32.499 43
s7.66602 19 3.99902 25s-12.834 10.5 -27.501 13.5s-35 5.5 -61 7.5v73h450v-73c-21.333 -2.66699 -39.5 -5.33398 -54.5 -8.00098s-28.167 -6.16699 -39.5 -10.5s-21.666 -10 -30.999 -17s-19.333 -15.833 -30 -26.5l-429 -449l482 -511
c10.667 -12 21.667 -21.167 33 -27.5s23.5 -10.666 36.5 -12.999s26.833 -3.33301 41.5 -3s30.667 1.5 48 3.5l7 -73l-65 -20.5c-24 -7.66699 -48 -14.834 -72 -21.501s-47 -12.334 -69 -17.001s-41 -7 -57 -7c-19.333 0 -36.5 3 -51.5 9s-29.167 17.333 -42.5 34l-477 596
v-491c0 -8 10.833 -17.833 32.5 -29.5s56.834 -22.167 105.501 -31.5v-73h-525z" />
    <glyph glyph-name="L" unicode="L" horiz-adv-x="1043" 
d="M1019 304c-2.66699 -28.667 -5.83105 -58.835 -9.49805 -90.502s-7.33398 -61.667 -11.001 -90s-7.33398 -53.5 -11.001 -75.5s-6.83398 -38 -9.50098 -48h-935v73c45.333 9.33301 79.5 19.5 102.5 30.5s34.5 21.167 34.5 30.5v991c0 8 -10.833 18 -32.5 30
s-56.5 22.667 -104.5 32v73h525v-73c-45.333 -9.33301 -79.666 -19.666 -102.999 -30.999s-35 -21.666 -35 -30.999v-931c0 -12 2.83301 -22.5 8.5 -31.5s15.5 -16.667 29.5 -23s33 -11.166 57 -14.499s54.333 -5 91 -5h113c30.667 0 56.5 3.66699 77.5 11
s39.5 19.166 55.5 35.499s30.5 37.833 43.5 64.5s26.5 59.667 40.5 99z" />
    <glyph glyph-name="M" unicode="M" horiz-adv-x="1734" 
d="M1633 1187c-16.667 0 -36.168 -2.33301 -58.501 -7s-45.5 -11.667 -69.5 -21l10 -1025c0 -8 12.167 -17.833 36.5 -29.5s60.5 -22.167 108.5 -31.5v-73h-522v73c45.333 9.33301 81.166 19.5 107.499 30.5s39.5 21.167 39.5 30.5l-8 813l-424 -947h-94l-416 945l-8 -811
c0 -8 11 -17.833 33 -29.5s57 -22.167 105 -31.5v-73h-420v73c46 9.33301 80.333 19.5 103 30.5s34 21.167 34 30.5l10 1018c-23.333 13.333 -47.166 22.5 -71.499 27.5s-46.166 7.5 -65.499 7.5v73h346c6.66699 0 12.667 -1 18 -3s10.5 -6 15.5 -12s10.5 -14.5 16.5 -25.5
s13 -25.5 21 -43.5l368 -835l375 835c8.66699 20 16 35.5 22 46.5s11.667 19.333 17 25s10.5 9.16699 15.5 10.5s10.5 2 16.5 2h339v-73z" />
    <glyph glyph-name="N" unicode="N" horiz-adv-x="1359" 
d="M43 0l-0.000976562 72.998c48.667 6 83.667 15.333 105 28s32 23.667 32 33v980c-43.333 40.667 -89 65 -137 73v73h279c10 0 18.167 -0.833008 24.5 -2.5s12.833 -5.16699 19.5 -10.5s13.834 -13.166 21.501 -23.499l30.5 -41.5l612 -848v791
c0 4 -2.16699 8.83301 -6.5 14.5s-11.666 11.334 -21.999 17.001s-24.333 11.167 -42 16.5s-39.834 10 -66.501 14v73h425v-73c-48 -6.66699 -83 -16.334 -105 -29.001s-33 -23.667 -33 -33v-1155c-64 5.33301 -115.333 17.833 -154 37.5s-67 41.834 -85 66.501l-611 846
v-786c0 -4 2.33301 -8.83301 7 -14.5s12.5 -11.334 23.5 -17.001s25.167 -11.167 42.5 -16.5s39 -9.66602 65 -12.999v-73h-425z" />
    <glyph glyph-name="O" unicode="O" horiz-adv-x="1274" 
d="M946 629c0 68.667 -8.16602 134.997 -24.499 198.997s-39.5 120.667 -69.5 170s-66 88.666 -108 117.999s-88.667 44 -140 44c-48 0 -90.5 -11.833 -127.5 -35.5s-68 -57.667 -93 -102s-43.833 -98.666 -56.5 -162.999s-19 -137.166 -19 -218.499
c0 -74.667 8.83301 -144.667 26.5 -210s41.667 -122.166 72 -170.499s65.666 -86.333 105.999 -114s83.5 -41.5 129.5 -41.5c44 0 84.5 10.667 121.5 32s69 53.833 96 97.5s48.167 98.334 63.5 164.001s23 142.5 23 230.5zM1198 646.997
c0 -60.667 -7.33105 -119.332 -21.998 -175.999s-35.167 -110.167 -61.5 -160.5s-57.833 -96.333 -94.5 -138s-77.334 -77.5 -122.001 -107.5s-92.334 -53.333 -143.001 -70s-103 -25 -157 -25c-84 0 -159.667 17.667 -227 53s-124.333 82.666 -171 141.999
s-82.5 127.666 -107.5 204.999s-37.5 158 -37.5 242c0 90.667 14.833 177 44.5 259s71 154 124 216s116.333 111.333 190 148s154.5 55 242.5 55s165.667 -18.167 233 -54.5s124 -84.5 170 -144.5s80.667 -128.667 104 -206s35 -156.666 35 -237.999z" />
    <glyph glyph-name="P" unicode="P" horiz-adv-x="1161" 
d="M43 0l0.000976562 73c45.333 9.33301 79.5 19.5 102.5 30.5s34.5 21.167 34.5 30.5v1024c-25.333 -3.33301 -49.5 -6.66602 -72.5 -9.99902s-44.5 -6.66602 -64.5 -9.99902l-13 92c36 8.66699 76 16.667 120 24s89.833 13.666 137.5 18.999s95.667 9.5 144 12.5
s94.5 4.5 138.5 4.5c77.333 0 147.833 -7.66699 211.5 -23s118.167 -38 163.5 -68s80.333 -67 105 -111s37 -94.667 37 -152c0 -46 -6.33301 -88.333 -19 -127s-29.834 -73.334 -51.501 -104.001s-46.667 -57.667 -75 -81s-58.333 -42.666 -90 -57.999
s-63.667 -26.833 -96 -34.5s-63.166 -11.5 -92.499 -11.5c-30.667 0 -60.667 2.5 -90 7.5s-55.333 12.5 -78 22.5l-31 105c27.333 -12.667 51.5 -20.834 72.5 -24.501s43.167 -5.5 66.5 -5.5c28.667 0 57 5.16699 85 15.5s52.833 26.5 74.5 48.5s39.167 50 52.5 84
s20 74.667 20 122s-7.83301 89 -23.5 125s-37.667 66.167 -66 90.5s-62.166 42.666 -101.499 54.999s-83 18.5 -131 18.5c-13.333 0 -26.833 -0.166992 -40.5 -0.5s-27.834 -0.833008 -42.501 -1.5v-1048c0 -4 2.16699 -8.33301 6.5 -13s12.666 -9.66699 24.999 -15
s29.5 -10.666 51.5 -15.999s50.333 -11 85 -17v-73h-555z" />
    <glyph glyph-name="Q" unicode="Q" horiz-adv-x="1274" 
d="M946 629c0 68.667 -8.16602 134.997 -24.499 198.997s-39.5 120.667 -69.5 170s-66 88.666 -108 117.999s-88.667 44 -140 44c-48 0 -90.5 -11.833 -127.5 -35.5s-68 -57.667 -93 -102s-43.833 -98.666 -56.5 -162.999s-19 -137.166 -19 -218.499
c0 -74.667 8.83301 -144.667 26.5 -210s41.667 -122.166 72 -170.499s65.666 -86.333 105.999 -114s83.5 -41.5 129.5 -41.5c44 0 84.5 10.667 121.5 32s69 53.833 96 97.5s48.167 98.334 63.5 164.001s23 142.5 23 230.5zM1417 -125.003
c-16 -29.333 -33.1641 -56.333 -51.4971 -81s-36.5 -46 -54.5 -64s-34.833 -32.167 -50.5 -42.5s-28.5 -15.5 -38.5 -15.5c-31.333 0 -62.5 5.16699 -93.5 15.5s-62.333 24 -94 41s-63.167 36.333 -94.5 58l-94.5 66l-95 65.5c-31.667 21.333 -63.167 40 -94.5 56
c-9.33301 -1.33301 -19 -2.33301 -29 -3s-19.667 -1 -29 -1c-82.667 0 -157.334 17.5 -224.001 52.5s-123.667 82 -171 141s-83.833 127.167 -109.5 204.5s-38.5 158.666 -38.5 243.999c0 90.667 14.833 177 44.5 259s71 154 124 216s116.333 111.333 190 148
s154.5 55 242.5 55s165.667 -18.167 233 -54.5s124 -84.5 170 -144.5s80.667 -128.667 104 -206s35 -156.666 35 -237.999c0 -67.333 -9 -132.666 -27 -195.999s-43.333 -122 -76 -176s-71.334 -102.333 -116.001 -145s-93.667 -77.334 -147 -104.001
c37.333 -13.333 73.333 -29 108 -47l101 -51c32.667 -16 64.5 -29.667 95.5 -41s61.5 -17 91.5 -17c8 0 16.167 0.833008 24.5 2.5s17.666 5 27.999 10s22.5 12.167 36.5 21.5s31 21.333 51 36z" />
    <glyph glyph-name="R" unicode="R" horiz-adv-x="1239" 
d="M43 0l-0.00878906 73.001c45.333 9.33301 79.5 19.5 102.5 30.5s34.5 21.167 34.5 30.5v1023l-70.5 -9.5c-23 -3 -45.167 -6.16699 -66.5 -9.5l-13 92c70.667 15.333 147.5 29.166 230.5 41.499s172.5 18.5 268.5 18.5c90.667 0 167.834 -7.66699 231.501 -23
s115.667 -36.666 156 -63.999s69.666 -59.5 87.999 -96.5s27.5 -76.833 27.5 -119.5c0 -46 -6.83301 -88.167 -20.5 -126.5s-32.667 -73 -57 -104s-53.666 -58 -87.999 -81s-72.166 -41.5 -113.499 -55.5l315 -436c10.667 -14 20.834 -25.333 30.501 -34
s20.334 -15.167 32.001 -19.5s25.334 -6.83301 41.001 -7.5s34.834 0 57.501 2l15 -73c-22 -7.33301 -46.667 -14.833 -74 -22.5s-54.5 -14.834 -81.5 -21.501s-52 -12 -75 -16s-40.833 -6 -53.5 -6c-19.333 0 -38.166 5.33301 -56.499 16s-32.166 23.667 -41.499 39
l-287 545c-6.66699 -0.666992 -13.334 -1 -20.001 -1h-19c-17.333 0 -34.666 0.833008 -51.999 2.5s-35.333 4.5 -54 8.5v-462c0 -8 10.833 -17.833 32.5 -29.5s56.834 -22.167 105.501 -31.5v-73h-525zM484.991 1184c-8.66699 0 -17.6689 -0.167969 -27.002 -0.500977
s-18.666 -0.833008 -27.999 -1.5v-476c18 -3.33301 33.667 -5.33301 47 -6s27.333 -1 42 -1c90 0 156 22.667 198 68s63 108.333 63 189c0 30.667 -4.66699 59.834 -14 87.501s-25.166 52 -47.499 73s-52.5 37.5 -90.5 49.5s-85.667 18 -143 18z" />
    <glyph glyph-name="S" unicode="S" horiz-adv-x="1050" 
d="M968 377c0 -30 -4.49707 -60.666 -13.4971 -91.999s-22.5 -62.166 -40.5 -92.499s-40.667 -59 -68 -86s-59.5 -50.5 -96.5 -70.5s-78.667 -36 -125 -48s-97.833 -18 -154.5 -18c-24 0 -51.5 2.33301 -82.5 7s-62.667 11.167 -95 19.5s-64 18.5 -95 30.5
s-58.167 25.667 -81.5 41c-3.33301 1.33301 -6 7.83301 -8 19.5s-3.5 26.334 -4.5 44.001s-1.33301 37.667 -1 60s1.33301 44.833 3 67.5s4 45 7 67s6.83301 41.333 11.5 58l71 -5c15.333 -39.333 34 -75.333 56 -108s46.667 -60.667 74 -84s56.666 -41.5 87.999 -54.5
s64 -19.5 98 -19.5c30 0 59 4.33301 87 13s52.667 21.167 74 37.5s38.5 36.666 51.5 60.999s19.5 52.5 19.5 84.5c0 40.667 -9 75.834 -27 105.501s-41.833 56 -71.5 79s-63.334 43.833 -101.001 62.5l-116 55.5c-39.667 18.333 -78.334 37.666 -116.001 57.999
s-71.334 44 -101.001 71s-53.5 58.167 -71.5 93.5s-27 77.333 -27 126c0 31.333 8.83301 66.166 26.5 104.499s45 74.166 82 107.499s84.5 61.333 142.5 84s127.333 34 208 34c36 0 71.333 -2.33301 106 -7s67 -11 97 -19s56.5 -17.667 79.5 -29s40.5 -23.666 52.5 -36.999
c3.33301 -2.66699 4.16602 -8.66699 2.49902 -18s-4.66699 -20.333 -9 -33s-10 -26.334 -17 -41.001s-14.167 -28.667 -21.5 -42s-14.666 -25.333 -21.999 -36s-13.666 -18.334 -18.999 -23.001l-66 6c-14.667 31.333 -31.5 57.5 -50.5 78.5s-39 37.833 -60 50.5
s-42.167 21.667 -63.5 27s-41.333 8 -60 8c-33.333 0 -61.833 -4.33301 -85.5 -13s-43.167 -20.334 -58.5 -35.001s-26.5 -31.167 -33.5 -49.5s-10.5 -36.833 -10.5 -55.5c0 -31.333 9.16699 -59.166 27.5 -83.499s42.333 -47 72 -68s63.5 -40.833 101.5 -59.5l117 -58
c40 -20 79 -41.667 117 -65s71.833 -49.666 101.5 -78.999s53.667 -63 72 -101s27.5 -81.667 27.5 -131z" />
    <glyph glyph-name="T" unicode="T" horiz-adv-x="1188" 
d="M300 0l-0.00292969 73.0049c30.667 6 56 12.333 76 19s36 13.167 48 19.5s20.333 12.333 25 18s7 10.834 7 15.501v995h-254c-10 0 -19.5 -3.5 -28.5 -10.5s-18.167 -18.833 -27.5 -35.5s-19.666 -38.334 -30.999 -65.001s-24.333 -59.334 -39 -98.001l-73 27
c1.33301 19.333 3.5 42.666 6.5 69.999s6.5 55.333 10.5 84l12 82.5c4 26.333 7.66699 48.166 11 65.499h1070l38 -32c-0.666992 -17.333 -2.16699 -38 -4.5 -62s-5.33301 -49.333 -9 -76s-7.66699 -53.167 -12 -79.5s-8.5 -49.833 -12.5 -70.5h-75
c-6.66699 30.667 -12.167 58.5 -16.5 83.5s-9.16602 46 -14.499 63s-12.166 30.167 -20.499 39.5s-19.5 14 -33.5 14h-247v-995c0 -4 2.33301 -8.83301 7 -14.5s13 -11.834 25 -18.501s28.167 -13.334 48.5 -20.001s45.833 -13 76.5 -19v-73h-563z" />
    <glyph glyph-name="U" unicode="U" horiz-adv-x="1369" 
d="M1313 1187c-45.333 -9.33301 -79.667 -19.666 -103 -30.999s-35 -21.666 -35 -30.999v-601c0 -87.333 -12.167 -165.333 -36.5 -234s-58.5 -126.667 -102.5 -174s-96.167 -83.5 -156.5 -108.5s-126.5 -37.5 -198.5 -37.5c-68.667 0 -133.334 9.5 -194.001 28.5
s-113.834 48 -159.501 87s-81.667 88.167 -108 147.5s-39.5 129.666 -39.5 210.999v681c0 8 -10.833 18 -32.5 30s-56.5 22.667 -104.5 32v73h525v-73c-45.333 -9.33301 -79.666 -19.666 -102.999 -30.999s-35 -21.666 -35 -30.999v-616c0 -64 5.66699 -120.5 17 -169.5
s29.333 -90.167 54 -123.5s56.834 -58.5 96.501 -75.5s88.167 -25.5 145.5 -25.5c47.333 0 87.333 10.667 120 32s59.167 49.666 79.5 84.999s35 76.166 44 122.499s13.5 94.166 13.5 143.499v627c0 8 -10.833 18 -32.5 30s-56.5 22.667 -104.5 32v73h450v-73z" />
    <glyph glyph-name="V" unicode="V" horiz-adv-x="1361" 
d="M1328 1187c-45.333 -8.66699 -80.833 -17.167 -106.5 -25.5s-41.834 -21.833 -48.501 -40.5l-376 -1039c-5.33301 -14.667 -15.5 -28 -30.5 -40s-32 -22.833 -51 -32.5s-38.667 -17.667 -59 -24s-38.5 -11.5 -54.5 -15.5l-455 1151c-7.33301 17.333 -21 31.333 -41 42
s-51 18.667 -93 24v73h510v-73c-53.333 -4 -88.666 -10.833 -105.999 -20.5s-22.333 -24.167 -15 -43.5l325 -837l297 835c3.33301 10 3.83301 18.333 1.5 25s-8.5 12.5 -18.5 17.5s-24 9.33301 -42 13s-40.667 7.16699 -68 10.5v73h431v-73z" />
    <glyph glyph-name="W" unicode="W" horiz-adv-x="1741" 
d="M1732 1187c-29.333 -6 -53.668 -11.6689 -73.001 -17.002s-34.666 -10.5 -45.999 -15.5s-19.5 -9.83301 -24.5 -14.5s-7.83301 -9.66699 -8.5 -15l-229 -1066c-3.33301 -14 -10.833 -26.167 -22.5 -36.5s-25 -19 -40 -26s-30.167 -12.667 -45.5 -17s-28 -7.5 -38 -9.5
l-341 907l-287 -818c-4.66699 -14 -13 -26 -25 -36s-25.667 -18.5 -41 -25.5s-31.333 -12.667 -48 -17s-31.667 -7.83301 -45 -10.5l-260 1147c-3.33301 16.667 -15.333 30.334 -36 41.001s-54.667 20.334 -102 29.001v73h489v-73c-32.667 -3.33301 -58 -7.5 -76 -12.5
s-31 -10.5 -39 -16.5s-12.5 -12.5 -13.5 -19.5s-0.833008 -14.167 0.5 -21.5l171 -732l292 875h100l335 -875l161 740c1.33301 8 -1.66699 15 -9 21s-18 11.333 -32 16s-30.667 9 -50 13s-40.333 8 -63 12v73h446v-73z" />
    <glyph glyph-name="X" unicode="X" horiz-adv-x="1290" 
d="M733 0l-0.000976562 73.0049c29.333 2.66699 53 6.16699 71 10.5s31 9.66602 39 15.999s11.5 14.166 10.5 23.499s-6.16699 20.666 -15.5 33.999l-236 343l-227 -343c-10 -14.667 -16.167 -26.834 -18.5 -36.501s0 -17.667 7 -24s19.5 -11.333 37.5 -15
s42.333 -6.5 73 -8.5v-73h-450v73c43.333 3.33301 80 11.5 110 24.5s54 32.833 72 59.5l309 471l-325 475c-10 14.667 -19.667 26.667 -29 36s-19.833 17 -31.5 23s-25 10.833 -40 14.5s-33.5 7.16699 -55.5 10.5v73h541v-73c-56.667 -5.33301 -93.667 -13.5 -111 -24.5
s-16 -30.833 4 -59.5l207 -303l191 303c9.33301 15.333 14.833 27.833 16.5 37.5s-1.16602 17.667 -8.49902 24s-19.833 11.166 -37.5 14.499s-41.5 6 -71.5 8v73h453v-73c-24 -2.66699 -45.5 -6 -64.5 -10s-35.833 -9.16699 -50.5 -15.5s-27.5 -14.166 -38.5 -23.499
s-20.833 -21 -29.5 -35l-274 -428l355 -518c10 -14 19.833 -25.833 29.5 -35.5s20.167 -17.667 31.5 -24s24.333 -11.333 39 -15s31.667 -6.83398 51 -9.50098v-73h-534z" />
    <glyph glyph-name="Y" unicode="Y" horiz-adv-x="1255" 
d="M345 0l-0.00390625 73.002c30 6 55.167 12.333 75.5 19s36.5 13.167 48.5 19.5s20.5 12.333 25.5 18s7.5 10.834 7.5 15.501v384c-24 53.333 -51 108.333 -81 165l-91 164.5c-30.667 53 -60.667 102.167 -90 147.5s-55.666 83.666 -78.999 114.999
c-6 7.33301 -12.333 14 -19 20s-15.667 11 -27 15s-25.666 7.16699 -42.999 9.5s-40 3.5 -68 3.5l-4 73l66.5 9c25 3.33301 49.833 6.33301 74.5 9s47.834 5 69.501 7s39.5 3 53.5 3c18.667 0 37.334 -4 56.001 -12s33.667 -19.333 45 -34
c24.667 -33.333 50.5 -71.333 77.5 -114l82 -136l81 -147.5l74.5 -147.5l234 442c10 17.333 6.83301 31 -9.5 41s-50.166 18.333 -101.499 25v73h418v-73c-45.333 -8.66699 -79 -17.667 -101 -27s-37.667 -22.333 -47 -39l-321 -598v-378c0 -4 2.33301 -8.83301 7 -14.5
s13 -11.834 25 -18.501s28.167 -13.334 48.5 -20.001s46.166 -13 77.499 -19v-73h-565z" />
    <glyph glyph-name="Z" unicode="Z" horiz-adv-x="1116" 
d="M1044 353c-1.33301 -21.333 -2.49902 -48.1641 -3.49902 -80.4971l-3 -99l-3 -97.5l-2.5 -76h-944l-36 53l673 1077h-391c-10.667 0 -22.667 -5.66699 -36 -17s-26.5 -27.333 -39.5 -48s-25.333 -45.334 -37 -74.001s-21.167 -60.334 -28.5 -95.001l-87 19l37 361
c18 -4 34.5 -7.16699 49.5 -9.5s29.667 -4 44 -5s29.166 -1.5 44.499 -1.5h720l33 -50l-668 -1080h456c14 0 26.667 5 38 15s22.166 25.333 32.499 46s20.833 46.167 31.5 76.5s22.334 66.166 35.001 107.499z" />
    <glyph glyph-name="bracketleft" unicode="[" horiz-adv-x="691" 
d="M666 -227c-1.33301 -6.66699 -3.66797 -14.833 -7.00098 -24.5l-10 -30.5c-3.33301 -10.667 -6.83301 -20.667 -10.5 -30s-6.83398 -17 -9.50098 -23h-504v1935h498l41 -33c-1.33301 -8 -3.66602 -17.667 -6.99902 -29l-10 -33.5c-3.33301 -11 -6.66602 -21 -9.99902 -30
s-6 -15.5 -8 -19.5h-274v-1645h268z" />
    <glyph glyph-name="backslash" unicode="\" horiz-adv-x="960" 
d="M878 -335l-34 10.999l-45 15c-15.333 5.33301 -29.833 10.833 -43.5 16.5s-23.5 10.834 -29.5 15.501l-686 1848l45 29c10 -2.66699 21.667 -6 35 -10s27 -8.5 41 -13.5s27.5 -10.167 40.5 -15.5s24.167 -11 33.5 -17l685 -1847z" />
    <glyph glyph-name="bracketright" unicode="]" horiz-adv-x="691" 
d="M68 -335l-40.998 34c1.33301 8 3.5 17.667 6.5 29s6.16699 22.333 9.5 33s6.66602 20.5 9.99902 29.5s6 15.5 8 19.5h274v1645h-267l-43 36c1.33301 6.66699 3.66602 15 6.99902 25l10 31c3.33301 10.667 6.83301 20.667 10.5 30s6.5 17 8.5 23h504v-1935h-497z" />
    <glyph glyph-name="asciicircum" unicode="^" horiz-adv-x="1008" 
d="M907 635c-16.667 -15.333 -32.833 -28.168 -48.5 -38.501s-34.834 -20.833 -57.501 -31.5l-37 27l-283 723l-250 -680c-7.33301 -6.66699 -15.666 -13.5 -24.999 -20.5s-19 -13.667 -29 -20s-19.833 -12 -29.5 -17l-24.5 -12.5l-23 27l322 870
c8 8 17.833 16.167 29.5 24.5l35.5 24.5c12 8 24 15.333 36 22s22.667 12.334 32 17.001z" />
    <glyph glyph-name="underscore" unicode="_" horiz-adv-x="990" 
d="M937 -162c-2 -7.33301 -5 -16.333 -9 -27s-8.33301 -21.5 -13 -32.5l-13.5 -31c-4.33301 -9.66699 -7.83301 -17.167 -10.5 -22.5h-806l-32 32c2 6.66699 4.83301 15.167 8.5 25.5s7.83398 20.833 12.501 31.5l13.5 31c4.33301 10 8.16602 18.333 11.499 25h806z" />
    <glyph glyph-name="grave" unicode="`" horiz-adv-x="653" 
d="M452 1086c-4 -4 -9.66699 -8.16797 -17 -12.501l-23.5 -13.5c-8.33301 -4.66699 -16.5 -8.66699 -24.5 -12s-15 -6 -21 -8l-383 377l30 56l41 8l67 12.5l68.5 12c21.667 3.66699 36.5 5.83398 44.5 6.50098z" />
    <glyph glyph-name="a" unicode="a" horiz-adv-x="1023" 
d="M412 145c12.667 0 26.001 1.50098 40.001 4.50098s29.5 8.33301 46.5 16s35.667 18.334 56 32.001s43.166 31.167 68.499 52.5v221c-40 -6.66699 -73.667 -13.167 -101 -19.5s-50.333 -12.833 -69 -19.5s-33.834 -13.667 -45.501 -21s-21.834 -15.333 -30.501 -24
c-17.333 -17.333 -31.333 -36 -42 -56s-16 -44 -16 -72c0 -22.667 3.16699 -41.334 9.5 -56.001s14.333 -26.334 24 -35.001s19.834 -14.667 30.501 -18s20.334 -5 29.001 -5zM1016 112.001c-28 -19.333 -57.1719 -37.6758 -87.5049 -55.0088s-59 -32.5 -86 -45.5
s-51.667 -23.167 -74 -30.5s-39.5 -11 -51.5 -11c-24.667 0 -45.5 14 -62.5 42s-27.167 67 -30.5 117c-30 -30 -60.167 -55.167 -90.5 -75.5s-59.666 -36.666 -87.999 -48.999s-55.5 -21.166 -81.5 -26.499s-49.667 -8 -71 -8c-28 0 -55.5 4.83301 -82.5 14.5
s-51.333 24 -73 43s-39.167 43 -52.5 72s-20 62.833 -20 101.5c0 45.333 8.16699 83.833 24.5 115.5s36.833 59.834 61.5 84.501c16 16 34.5 31.5 55.5 46.5s49 29.5 84 43.5s79 27.5 132 40.5s119.833 25.5 200.5 37.5v118c0 20.667 -2 39.834 -6 57.501
s-11 32.834 -21 45.501s-23.333 22.5 -40 29.5s-37.667 10.5 -63 10.5c-16 0 -32 -3 -48 -9s-30 -14.5 -42 -25.5s-21.5 -24.333 -28.5 -40s-9.5 -33.5 -7.5 -53.5c0.666992 -4 -4.66602 -9 -15.999 -15s-25.666 -12.167 -42.999 -18.5s-36.5 -12.666 -57.5 -18.999
s-41.167 -11.666 -60.5 -15.999s-36.666 -7.66602 -51.999 -9.99902s-25.666 -2.83301 -30.999 -1.5l-21 54c16 40 41.167 77.167 75.5 111.5s74.5 64.333 120.5 90s96.167 45.834 150.5 60.501s109.166 22 164.499 22c46 0 85.667 -6 119 -18s60.833 -28.833 82.5 -50.5
s37.834 -47.167 48.501 -76.5s16 -61 16 -95v-482c0 -28 3.66699 -48 11 -60s17 -18 29 -18c4.66699 0 9.5 0.333008 14.5 1s11 2 18 4s15.167 4.83301 24.5 8.5l34 13.5z" />
    <glyph glyph-name="b" unicode="b" horiz-adv-x="1100" 
d="M804 416c0 66.667 -5.83301 123.499 -17.5 170.499s-27.5 85.5 -47.5 115.5s-43.5 51.833 -70.5 65.5s-55.833 20.5 -86.5 20.5c-23.333 0 -53.166 -8 -89.499 -24s-78.833 -44.667 -127.5 -86v-460c53.333 -28.667 100.5 -49.167 141.5 -61.5s71.167 -18.5 90.5 -18.5
c34.667 0 65 7.33301 91 22s47.667 34.5 65 59.5s30.166 54.333 38.499 88s12.5 69.834 12.5 108.501zM1025 506.999c0 -38.667 -6.99902 -78.832 -20.999 -120.499s-33.333 -82.334 -58 -122.001s-53.834 -77.334 -87.501 -113.001s-69.834 -67 -108.501 -94
s-79.5 -48.333 -122.5 -64s-85.833 -23.5 -128.5 -23.5c-18 0 -41 3.16699 -69 9.5s-58.5 15.166 -91.5 26.499s-67.833 24.666 -104.5 39.999s-73 32 -109 50v1170c0 30.667 -1.16699 54.334 -3.5 71.001s-7.83301 29.167 -16.5 37.5s-21 13.833 -37 16.5
s-37.667 5.66699 -65 9v70l88.5 15.5c27.667 5 54.334 10.667 80.001 17s50.834 13.333 75.501 21s49.334 16.5 74.001 26.5l11 -10.5l15 -13.5c6 -5.33301 12 -11 18 -17v-707c33.333 28.667 66.166 53 98.499 73s63.333 36.333 93 49s57 21.834 82 27.501
s47.167 8.5 66.5 8.5c49.333 0 93.666 -10.667 132.999 -32s72.833 -51.666 100.5 -90.999s49 -86.833 64 -142.5s22.5 -118.167 22.5 -187.5z" />
    <glyph glyph-name="c" unicode="c" horiz-adv-x="933" 
d="M893 190c-43.333 -49.333 -83.3369 -88.5059 -120.004 -117.506s-71.5 -51.167 -104.5 -66.5s-64.833 -25.166 -95.5 -29.499s-61.667 -6.5 -93 -6.5c-54 0 -106 10.833 -156 32.5s-94.167 52.834 -132.5 93.501s-69 90.334 -92 149.001s-34.5 125 -34.5 199
c0 72 13.333 139.333 40 202s63.834 117.167 111.501 163.5s104.5 83 170.5 110s138.667 40.5 218 40.5c22 0 46.833 -1.83301 74.5 -5.5s54.834 -9 81.501 -16s51.167 -15.333 73.5 -25s39.166 -20.5 50.499 -32.5c0.666992 -5.33301 -0.166016 -14.666 -2.49902 -27.999
s-5.66602 -28.666 -9.99902 -45.999s-9.5 -35.666 -15.5 -54.999s-12 -37.666 -18 -54.999s-12 -33 -18 -47s-11 -24 -15 -30l-67 10c-22 65.333 -49 115.833 -81 151.5s-74.667 53.5 -128 53.5c-29.333 0 -57.5 -6.66699 -84.5 -20s-50.833 -34.5 -71.5 -63.5
s-37.334 -66.167 -50.001 -111.5s-19 -100.333 -19 -165c0 -53.333 6.83301 -100.833 20.5 -142.5s32.334 -76.834 56.001 -105.501s51.5 -50.667 83.5 -66s66 -23 102 -23c18.667 0 36.667 1.16699 54 3.5s36.333 7.5 57 15.5s43.834 19.667 69.501 35s56.167 36 91.5 62z
" />
    <glyph glyph-name="d" unicode="d" horiz-adv-x="1148" 
d="M1141 114c-30.667 -20.667 -61.665 -39.6699 -92.998 -57.0029s-60.5 -32.5 -87.5 -45.5s-50.833 -23.167 -71.5 -30.5s-35.667 -11 -45 -11c-48 0 -78.667 58.333 -92 175c-30.667 -31.333 -58.834 -58 -84.501 -80s-50.834 -40 -75.501 -54s-50 -24.333 -76 -31
s-54.333 -10 -85 -10c-44.667 0 -88.834 10.833 -132.501 32.5s-82.834 52.834 -117.501 93.501s-62.667 90.334 -84 149.001s-32 125 -32 199c0 66.667 11.833 131.167 35.5 193.5s57 117.333 100 165s94.333 85.834 154 114.501s125.167 43 196.5 43
c31.333 0 62.5 -3.66699 93.5 -11s64.5 -23.333 100.5 -48v343c0 36.667 -0.5 65.834 -1.5 87.501s-5.66699 38.334 -14 50.001s-21.833 19.667 -40.5 24s-45.667 7.83301 -81 10.5v69c73.333 7.33301 139.5 17.166 198.5 29.499s105.833 24.166 140.5 35.499l38 -37v-1214
c0 -23.333 0.5 -43 1.5 -59s2.33301 -29 4 -39s4 -17.667 7 -23s6.5 -9.33301 10.5 -12c4 -2 8.33301 -3.5 13 -4.5s10.834 -1 18.501 0s17.334 3.5 29.001 7.5s26.5 10 44.5 18zM745.002 268.997l0.00390625 437c-24 38.667 -53.833 68.667 -89.5 90
s-75.834 32 -120.501 32c-33.333 0 -64 -6.33301 -92 -19s-52.167 -32.5 -72.5 -59.5s-36.333 -61.167 -48 -102.5s-17.5 -91 -17.5 -149c0 -53.333 6.66699 -100.833 20 -142.5s30.666 -77 51.999 -106s45.666 -51.167 72.999 -66.5s54.666 -23 81.999 -23
c36.667 0 71.5 9.16699 104.5 27.5s69.167 45.5 108.5 81.5z" />
    <glyph glyph-name="e" unicode="e" horiz-adv-x="991" 
d="M511 840c-31.333 0 -58.3311 -6 -80.998 -18s-41.834 -29.333 -57.501 -52s-28 -50 -37 -82s-15.5 -68 -19.5 -108h333c15.333 0 25.5 2.5 30.5 7.5s7.5 14.5 7.5 28.5c0 20 -2.66699 42.833 -8 68.5s-14.833 50 -28.5 73s-31.834 42.5 -54.501 58.5s-51 24 -85 24z
M926.002 550c-6 -6.66699 -14.665 -14.0039 -25.998 -22.0039s-23.666 -15.667 -36.999 -23s-26.833 -14.333 -40.5 -21s-25.834 -12 -36.501 -16h-473c1.33301 -48 7.83301 -92.167 19.5 -132.5s28.167 -75.166 49.5 -104.499s47.166 -52.166 77.499 -68.499
s65.166 -24.5 104.499 -24.5c20.667 0 40.834 1.16699 60.501 3.5s41 7.83301 64 16.5s48.833 20.834 77.5 36.501s62.667 37.167 102 64.5c4 -2 8.83301 -6 14.5 -12s11 -12.5 16 -19.5l13.5 -19.5c4 -6 6.66699 -10.333 8 -13c-46 -46.667 -87.333 -84.667 -124 -114
s-71.834 -52.166 -105.501 -68.499s-67.167 -27.5 -100.5 -33.5s-70 -9 -110 -9c-56.667 0 -110.167 11.333 -160.5 34s-94.333 54.667 -132 96s-67.5 91 -89.5 149s-33 122.333 -33 193c0 90.667 17.167 171.5 51.5 242.5s85.833 131.5 154.5 181.5
c17.333 12.667 36.833 24.834 58.5 36.501s44.334 21.667 68.001 30s48.167 15 73.5 20s50.666 7.5 75.999 7.5c65.333 0 121.833 -11.333 169.5 -34s87 -52.834 118 -90.501s54 -81.167 69 -130.5s22.5 -101 22.5 -155z" />
    <glyph glyph-name="f" unicode="f" horiz-adv-x="696" 
d="M891 1454c0 -7.33301 -3.16895 -16.168 -9.50195 -26.501s-14.5 -21.333 -24.5 -33s-21.333 -23.5 -34 -35.5s-25 -23 -37 -33s-23.333 -18.833 -34 -26.5s-19.334 -13.167 -26.001 -16.5c-32 40 -63 68.667 -93 86s-55.667 26 -77 26
c-17.333 0 -33.833 -5.33301 -49.5 -16s-29.5 -30 -41.5 -58s-21.667 -66.667 -29 -116s-11 -112.333 -11 -189v-86h249l37 -36c-6 -11.333 -13.5 -23.166 -22.5 -35.499l-27 -36c-9 -11.667 -17.833 -22.167 -26.5 -31.5s-16 -16.333 -22 -21
c-15.333 8 -37.166 15.833 -65.499 23.5s-69.166 11.5 -122.499 11.5v-673c0 -4 3.16699 -8 9.5 -12s17.333 -8.16699 33 -12.5s36.334 -9.33301 62.001 -15s58.167 -12.167 97.5 -19.5v-73h-574v73c46 8 79.5 17.833 100.5 29.5s31.5 21.5 31.5 29.5v673h-119l-28 36l78 89
h69v31c0 54.667 3.83301 104.334 11.5 149.001s18.667 85.167 33 121.5s32 69.333 53 99s44.833 57.167 71.5 82.5c24.667 24 50.167 44.5 76.5 61.5s52.333 31.167 78 42.5s50.667 19.666 75 24.999s46.5 8 66.5 8c30 0 59.5 -4 88.5 -12s54.667 -17.167 77 -27.5
s40.5 -20.833 54.5 -31.5s21 -19 21 -25z" />
    <glyph glyph-name="g" unicode="g" horiz-adv-x="1059" 
d="M668 600c0 34 -4.5 65.8311 -13.5 95.498s-22.167 55.5 -39.5 77.5s-38.833 39.5 -64.5 52.5s-55.5 19.5 -89.5 19.5c-16.667 0 -33.667 -3.83301 -51 -11.5s-33 -19.167 -47 -34.5s-25.5 -34.666 -34.5 -57.999s-13.5 -50.666 -13.5 -81.999
c0 -33.333 4 -64.833 12 -94.5s20.5 -55.5 37.5 -77.5s38.5 -39.5 64.5 -52.5s57 -19.5 93 -19.5c19.333 0 37.833 3.83301 55.5 11.5s33.167 19.167 46.5 34.5s24 34.5 32 57.5s12 50.167 12 81.5zM556 -42.002c-32 4 -61.9971 8.66602 -89.9971 13.999
s-54.333 10.666 -79 15.999c-30.667 -21.333 -54.834 -40.333 -72.501 -57s-30.834 -31.834 -39.501 -45.501s-14.167 -26 -16.5 -37s-3.5 -21.5 -3.5 -31.5c0 -22 8.16699 -43.167 24.5 -63.5s38.833 -38.166 67.5 -53.499s62.5 -27.5 101.5 -36.5
s81.167 -13.5 126.5 -13.5c39.333 0 73.333 4.83301 102 14.5s52.5 22.834 71.5 39.501s33.167 35.667 42.5 57s14 43.666 14 66.999c0 12.667 -3 25.334 -9 38.001s-18 24.667 -36 36s-43.333 21.833 -76 31.5s-75.334 17.834 -128.001 24.501zM898.003 640.997
c0 -51.333 -11.3252 -98.1689 -33.9922 -140.502s-53 -78.666 -91 -108.999s-82 -54 -132 -71s-102.667 -25.5 -158 -25.5h-10c-25.333 -23.333 -41.5 -42.166 -48.5 -56.499s-10.5 -23.5 -10.5 -27.5c0 -6 2 -11.833 6 -17.5s13.5 -11.334 28.5 -17.001
s37.667 -11.5 68 -17.5s71.5 -12.333 123.5 -19c78 -10 142.667 -22.167 194 -36.5s92.166 -31.5 122.499 -51.5s51.5 -43 63.5 -69s18 -55.333 18 -88c0 -31.333 -7.16699 -62.666 -21.5 -93.999s-34.166 -61.5 -59.499 -90.5s-55 -55.833 -89 -80.5
s-70.833 -46.167 -110.5 -64.5s-81 -32.666 -124 -42.999s-85.833 -15.5 -128.5 -15.5c-34.667 0 -70.834 2.16699 -108.501 6.5s-74.667 11.166 -111 20.499s-70.833 21.166 -103.5 35.499s-61.334 31.666 -86.001 51.999s-44.334 43.5 -59.001 69.5s-22 55 -22 87
c0 16.667 3.5 33.667 10.5 51s19.833 35.833 38.5 55.5s44.167 41 76.5 64s74.166 48.5 125.499 76.5c-76 30.667 -114 63.334 -114 98.001c0 7.33301 3.16699 17.166 9.5 29.499s16.666 26.666 30.999 42.999s33.166 34.5 56.499 54.5s51.666 41.333 84.999 64
c-37.333 10 -71.333 24 -102 42s-56.834 39.333 -78.501 64s-38.5 52.334 -50.5 83.001s-18 63.667 -18 99c0 48.667 12 94.834 36 138.501s56 81.667 96 114s86.5 58 139.5 77s108.5 28.5 166.5 28.5c46 0 89 -6.33301 129 -19s76 -29.667 108 -51
c58 7.33301 110.5 18.333 157.5 33s84.167 27 111.5 37l28 -37c-2 -7.33301 -5.16699 -16 -9.5 -26s-9 -20.167 -14 -30.5s-10.333 -20.666 -16 -30.999s-11.5 -19.5 -17.5 -27.5c-22.667 -4 -45.667 -7.33301 -69 -10s-49 -4.66699 -77 -6
c14 -23.333 24.833 -47.5 32.5 -72.5s11.5 -51.167 11.5 -78.5z" />
    <glyph glyph-name="h" unicode="h" horiz-adv-x="1190" 
d="M663 0l0.000976562 73.0068c48 12.667 82 23.667 102 33s30 18.666 30 27.999v439c0 40.667 -2.16699 74.167 -6.5 100.5s-11 47.166 -20 62.499s-20.667 26.166 -35 32.499s-31.5 9.5 -51.5 9.5c-38.667 0 -78.5 -12 -119.5 -36s-88.5 -58.333 -142.5 -103v-505
c0 -10 11.333 -20.333 34 -31s55.667 -20.667 99 -30v-73h-505v73c44 11.333 77 21.5 99 30.5s33 19.167 33 30.5v1134c0 28 -0.833008 49.833 -2.5 65.5s-6.66699 27.834 -15 36.501s-21.5 14.834 -39.5 18.501s-43 7.5 -75 11.5v70
c37.333 5.33301 70.833 10.666 100.5 15.999s57.167 11.166 82.5 17.499s49.666 13.166 72.999 20.499s47.333 16 72 26l44 -41v-727c76.667 62.667 148.5 108 215.5 136s126.5 42 178.5 42c28.667 0 56.334 -4.5 83.001 -13.5s50.167 -23.667 70.5 -44
s36.666 -46.833 48.999 -79.5s18.5 -72.334 18.5 -119.001v-570c0 -4.66699 2 -9.16699 6 -13.5s11 -8.83301 21 -13.5s23.667 -9.83398 41 -15.501s39 -11.834 65 -18.501v-73h-505z" />
    <glyph glyph-name="i" unicode="i" horiz-adv-x="615" 
d="M63 0l0.00390625 73c45.333 9.33301 78.666 19.5 99.999 30.5s32 21.167 32 30.5v514c0 34 -0.333008 61.5 -1 82.5s-4.83398 37.333 -12.501 49s-20.5 20.167 -38.5 25.5s-44.667 9.66602 -80 12.999v70c57.333 8 111.666 17.833 162.999 29.5
s99.666 25.834 144.999 42.501h64v-826c0 -8 10 -17.833 30 -29.5s54.333 -22.167 103 -31.5v-73h-505zM473.004 1261c0 -22.667 -4.33398 -43.334 -13.001 -62.001s-20.5 -34.667 -35.5 -48s-32.667 -23.666 -53 -30.999s-42.5 -11 -66.5 -11
c-18.667 0 -36.334 2.16699 -53.001 6.5s-31.167 11.166 -43.5 20.499s-22.166 20.833 -29.499 34.5s-11 30.167 -11 49.5c0 22.667 4.33301 43.334 13 62.001s20.5 34.5 35.5 47.5s32.667 23.167 53 30.5s42.166 11 65.499 11c18 0 35.333 -2.16699 52 -6.5
s31.334 -11 44.001 -20s22.834 -20.333 30.501 -34s11.5 -30.167 11.5 -49.5z" />
    <glyph glyph-name="j" unicode="j" horiz-adv-x="590" 
d="M430 107c0 -77.333 -6.83105 -142.336 -20.498 -195.003s-31.334 -97.5 -53.001 -134.5s-46 -68 -73 -93s-53.833 -48.167 -80.5 -69.5c-18 -14 -38 -27.5 -60 -40.5s-44.5 -24.5 -67.5 -34.5s-45.667 -18 -68 -24s-42.833 -9 -61.5 -9c-26 0 -52.833 3.33301 -80.5 10
s-52.834 14.834 -75.501 24.501s-41.334 19.834 -56.001 30.501s-22 19.667 -22 27c0 9.33301 7.16699 22.333 21.5 39s31 33.334 50 50.001s38 32 57 46s33.5 23.333 43.5 28c10.667 -13.333 23.667 -25 39 -35s31 -18.5 47 -25.5s31.833 -12.333 47.5 -16
s29.834 -5.5 42.501 -5.5c17.333 0 33.833 4.83301 49.5 14.5s29.5 27.667 41.5 54s21.5 63.166 28.5 110.499s10.5 108.666 10.5 183.999v605c0 34 -0.333008 61.333 -1 82s-5 36.834 -13 48.501s-21 20.167 -39 25.5s-44.333 10 -79 14v70
c35.333 4.66699 66.166 9.5 92.499 14.5s50.833 10.333 73.5 16s44.834 11.834 66.501 18.501l72.5 23h67v-853zM471.002 1261c0 -22.667 -4.16309 -43.334 -12.4961 -62.001s-20 -34.667 -35 -48s-32.667 -23.666 -53 -30.999s-42.5 -11 -66.5 -11
c-18.667 0 -36.334 2.16699 -53.001 6.5s-31.334 11.166 -44.001 20.499s-22.667 20.833 -30 34.5s-11 30.167 -11 49.5c0 22.667 4.33301 43.334 13 62.001s20.667 34.5 36 47.5s33.166 23.167 53.499 30.5s42.166 11 65.499 11c18 0 35.333 -2.16699 52 -6.5
s31.167 -11 43.5 -20s22.333 -20.333 30 -34s11.5 -30.167 11.5 -49.5z" />
    <glyph glyph-name="k" unicode="k" horiz-adv-x="1129" 
d="M48 0l0.00195312 72.998c44 11.333 77 21.333 99 30s33 19 33 31v1132c0 30.667 -1.5 54.334 -4.5 71.001s-9.16699 29.167 -18.5 37.5s-22.666 13.833 -39.999 16.5s-40.333 5.66699 -69 9v70c64.667 9.33301 124.167 20 178.5 32s104.166 28 149.499 48l44 -41v-975
l263 235c22 20 36.167 35.833 42.5 47.5s7.16602 20.5 2.49902 26.5s-13.667 9.83301 -27 11.5s-28.666 2.5 -45.999 2.5v73h447v-73c-30 -3.33301 -59.5 -10.333 -88.5 -21s-57.833 -26.667 -86.5 -48l-304 -230l361 -409c9.33301 -10.667 18.5 -19.167 27.5 -25.5
s19.167 -11 30.5 -14s24.166 -4.66699 38.499 -5s31.166 0.166992 50.499 1.5l6 -73c-19.333 -4.66699 -41.333 -9.5 -66 -14.5l-71.5 -14c-23 -4.33301 -43.667 -7.83301 -62 -10.5s-30.833 -4 -37.5 -4c-28 0 -51.667 4 -71 12s-36.333 21.667 -51 41l-358 474v-383
c0 -5.33301 1.16699 -10 3.5 -14s7.16602 -8.16699 14.499 -12.5s18.333 -9.16602 33 -14.499s34.334 -12 59.001 -20v-73h-482z" />
    <glyph glyph-name="l" unicode="l" horiz-adv-x="615" 
d="M53 0l-0.000976562 73.001c28.667 4.66699 52.167 9.5 70.5 14.5s32.833 10 43.5 15s18 10.167 22 15.5s6 10.666 6 15.999v1132c0 30 -1.66699 53.333 -5 70s-9.66602 29.167 -18.999 37.5s-22.666 14 -39.999 17s-40 6.16699 -68 9.5v70
c33.333 4.66699 64.333 9.5 93 14.5s56 10.5 82 16.5s51.667 13 77 21s51 17.333 77 28l43 -41v-1375c0 -5.33301 2.33301 -10.5 7 -15.5s12.5 -10.167 23.5 -15.5s25.667 -10.5 44 -15.5s41.166 -9.83301 68.499 -14.5v-73h-525z" />
    <glyph glyph-name="m" unicode="m" horiz-adv-x="1728" 
d="M1209 0l-0.00390625 72.998c24 6 43.5 11.833 58.5 17.5s26.833 11 35.5 16s14.5 9.66699 17.5 14s4.5 8.83301 4.5 13.5v469c0 40.667 -2.16699 73.334 -6.5 98.001s-10.666 43.334 -18.999 56.001s-19.166 21 -32.499 25s-29 6 -47 6
c-29.333 0 -63.666 -10.333 -102.999 -31s-80.666 -52 -123.999 -94v-529c0 -4.66699 1.66699 -9.16699 5 -13.5s9.5 -8.83301 18.5 -13.5s21.833 -9.83398 38.5 -15.501s38 -11.834 64 -18.501v-73h-483v73c24 6 43.667 11.833 59 17.5s27.166 11 35.499 16
s14.166 9.66699 17.499 14s5 8.83301 5 13.5v469c0 40.667 -1.66699 73.334 -5 98.001s-8.83301 43.334 -16.5 56.001s-17.667 21 -30 25s-27.833 6 -46.5 6c-30 0 -64.333 -10 -103 -30s-82.667 -51.667 -132 -95v-529c0 -10 10 -20.333 30 -31s51.667 -20.667 95 -30v-73
h-497v73c44 11.333 77 21.5 99 30.5s33 19.167 33 30.5v555c0 26.667 -0.833008 47.667 -2.5 63s-6.66699 27.166 -15 35.499s-21.5 14.5 -39.5 18.5s-43 8 -75 12v70c34.667 4 66 8.33301 94 13s54.5 10 79.5 16s48.833 12.5 71.5 19.5s46 14.833 70 23.5l42 -42l11 -124
c37.333 32.667 71.833 59.834 103.5 81.501s61.5 38.667 89.5 51s54.667 21 80 26s50 7.5 74 7.5c32 0 60.333 -4 85 -12s45.667 -18.833 63 -32.5s31.333 -29.667 42 -48s18 -38.166 22 -59.499l3 -14c37.333 32.667 72 59.667 104 81s62.167 38.333 90.5 51
s55.166 21.5 80.499 26.5s50.333 7.5 75 7.5c32 0 62.333 -4.5 91 -13.5s53.834 -23.667 75.501 -44s38.834 -46.833 51.501 -79.5s19 -72.334 19 -119.001v-570c0 -9.33301 10.333 -18.5 31 -27.5s57.334 -20.167 110.001 -33.5v-73h-497z" />
    <glyph glyph-name="n" unicode="n" horiz-adv-x="1190" 
d="M663 0v73.002c48 12.667 82 23.667 102 33s30 18.666 30 27.999v454c0 36.667 -1.83301 67.167 -5.5 91.5s-9.5 43.833 -17.5 58.5s-18.667 25 -32 31s-30 9 -50 9c-16 0 -33 -2.16699 -51 -6.5s-37.833 -11.666 -59.5 -21.999s-45.667 -24.5 -72 -42.5
s-55.5 -40.667 -87.5 -68v-505c0 -10 11.333 -20.333 34 -31s55.667 -20.667 99 -30v-73h-505v73c44 11.333 77 21.5 99 30.5s33 19.167 33 30.5v555c0 26 -0.5 46.667 -1.5 62s-5.5 27.333 -13.5 36s-21 15 -39 19s-44 8 -78 12v70c32 3.33301 61.833 7.33301 89.5 12
s54.167 9.83398 79.5 15.501s50 12.167 74 19.5s48 15.666 72 24.999l42 -42l11 -144c78 66.667 150.833 114.334 218.5 143.001s127.5 43 179.5 43c28.667 0 56.334 -4.5 83.001 -13.5s50.167 -23.667 70.5 -44s36.666 -46.833 48.999 -79.5s18.5 -72.334 18.5 -119.001
v-570c0 -4.66699 2 -9.16699 6 -13.5s11 -8.83301 21 -13.5s23.667 -9.83398 41 -15.501s39 -11.834 65 -18.501v-73h-505z" />
    <glyph glyph-name="o" unicode="o" horiz-adv-x="1075" 
d="M758 440c0 52.667 -5.50293 102.832 -16.5029 150.499s-26.5 89.667 -46.5 126s-44.167 65.166 -72.5 86.499s-59.5 32 -93.5 32c-41.333 0 -75.666 -9.16699 -102.999 -27.5s-49 -43.666 -65 -75.999s-27.167 -70.666 -33.5 -114.999s-9.5 -92.166 -9.5 -143.499
c0 -52.667 6.16699 -102 18.5 -148s29 -86 50 -120s45.333 -60.833 73 -80.5s56.834 -29.5 87.501 -29.5c40 0 73.333 7.66699 100 23s48.334 37.666 65.001 66.999s28.5 65.333 35.5 108s10.5 91.667 10.5 147zM1010 484.998c0 -44.667 -6.00098 -88.334 -18.001 -131.001
s-28.833 -83 -50.5 -121s-47.5 -73.167 -77.5 -105.5s-63.167 -60.166 -99.5 -83.499s-75.333 -41.5 -117 -54.5s-84.5 -19.5 -128.5 -19.5c-68.667 0 -131 12 -187 36s-103.667 57 -143 99s-69.833 92 -91.5 150s-32.5 121 -32.5 189c0 66 12.167 130 36.5 192
s58.333 117 102 165s95.667 86.5 156 115.5s126.5 43.5 198.5 43.5c68 0 129.833 -12 185.5 -36s103.334 -57.167 143.001 -99.5s70.167 -92.5 91.5 -150.5s32 -121 32 -189z" />
    <glyph glyph-name="p" unicode="p" horiz-adv-x="1145" 
d="M855 426c0 64 -6.66602 119 -19.999 165s-31 83.667 -53 113s-46.833 51 -74.5 65s-55.834 21 -84.501 21c-12 0 -23.833 -1.33301 -35.5 -4s-25 -8 -40 -16s-32.667 -19.333 -53 -34s-45.166 -34 -74.499 -58v-450c35.333 -20.667 65.833 -37 91.5 -49
s48.334 -21 68.001 -27s37.5 -9.83301 53.5 -11.5s32 -2.5 48 -2.5c26 0 49.667 6.33301 71 19s39.666 31.167 54.999 55.5s27.166 54.5 35.499 90.5s12.5 77 12.5 123zM1080 500c0 -44 -5.83105 -87.5 -17.498 -130.5s-27.334 -84.167 -47.001 -123.5
s-42.5 -75.833 -68.5 -109.5s-53.333 -62.834 -82 -87.501s-58 -44 -88 -58s-58.667 -21 -86 -21c-19.333 0 -38.833 2 -58.5 6s-40.334 10.5 -62.001 19.5s-44.834 20.667 -69.501 35s-51.667 31.833 -81 52.5v-428c0 -10.667 12.5 -21.334 37.5 -32.001
s68.833 -20.667 131.5 -30v-73h-541v73c44 10.667 77 20.834 99 30.501s33 20.167 33 31.5v1034c0 24.667 -1 45 -3 61s-7.16699 28.833 -15.5 38.5s-21.333 16.667 -39 21s-42.5 7.16602 -74.5 8.49902v70c38 4.66699 71 9.33398 99 14.001s53.833 9.83398 77.5 15.501
s46.334 11.834 68.001 18.501s45.167 14.667 70.5 24l42 -42l9 -123c36.667 32.667 71 59.5 103 80.5s61.5 37.833 88.5 50.5s51.833 21.5 74.5 26.5s43.667 7.5 63 7.5c45.333 0 88.5 -9.16699 129.5 -27.5s76.833 -46.5 107.5 -84.5s55 -85.833 73 -143.5
s27 -125.834 27 -204.501z" />
    <glyph glyph-name="q" unicode="q" horiz-adv-x="1123" 
d="M525 160c36.667 0 71.499 9.33301 104.499 28s69.167 46 108.5 82v430c-11.333 19.333 -25.166 36.833 -41.499 52.5s-33.833 29.167 -52.5 40.5s-38 20 -58 26s-39.333 9 -58 9c-32 0 -61.5 -6.16699 -88.5 -18.5s-50.5 -31.5 -70.5 -57.5s-35.667 -59.5 -47 -100.5
s-17 -89.833 -17 -146.5s6.33301 -106.5 19 -149.5s29.334 -79 50.001 -108s44.167 -50.833 70.5 -65.5s53.166 -22 80.499 -22zM567.999 -480l-0.00292969 72.9961c62.667 9.33301 106.667 19.166 132 29.499s38 21.166 38 32.499v483c-30 -30 -58 -55.667 -84 -77
s-51.833 -38.666 -77.5 -51.999s-52 -23.166 -79 -29.499s-56.5 -9.5 -88.5 -9.5c-39.333 0 -79.333 10.833 -120 32.5s-77.5 52.834 -110.5 93.501s-60.167 90.334 -81.5 149.001s-32 125 -32 199c0 58.667 7.33301 111 22 157s33.334 86.667 56.001 122
s47.334 65.333 74.001 90s51.667 44.667 75 60c18.667 12 38.834 23.333 60.501 34s43.834 20 66.501 28s45.334 14.167 68.001 18.5s44 6.5 64 6.5c19.333 0 38.166 -1.33301 56.499 -4s37.166 -7.83398 56.499 -15.501s39.5 -18.667 60.5 -33s43.833 -33.5 68.5 -57.5
c16 8 33 17.167 51 27.5l52 30.5c16.667 10 31.667 19.667 45 29s23 17 29 23l39 -37c-6 -21.333 -11.333 -44.333 -16 -69c-4 -21.333 -7.5 -45.666 -10.5 -72.999s-4.5 -56 -4.5 -86v-1040c0 -5.33301 2 -10.666 6 -15.999s11 -10.666 21 -15.999s23.5 -10.5 40.5 -15.5
s38.167 -9.83301 63.5 -14.5v-73h-541z" />
    <glyph glyph-name="r" unicode="r" horiz-adv-x="909" 
d="M875 916c4 -2.66699 5.99805 -11.165 5.99805 -25.498s-1.5 -31.833 -4.5 -52.5s-7.16699 -43.667 -12.5 -69s-11 -50 -17 -74s-12.333 -46.333 -19 -67s-12.667 -37 -18 -49h-73c-2 26.667 -6 52 -12 76s-13.5 44.833 -22.5 62.5s-20 31.667 -33 42
s-27.5 15.5 -43.5 15.5c-13.333 0 -27.833 -2.5 -43.5 -7.5s-32.167 -14.667 -49.5 -29s-35.5 -34.833 -54.5 -61.5s-38.5 -62 -58.5 -106v-437c0 -10 13.833 -20.333 41.5 -31s72.834 -20.667 135.501 -30v-73h-549v73c88 20 132 40.333 132 61v530
c0 22 -0.666992 40.5 -2 55.5s-3 27.167 -5 36.5s-4.5 16.666 -7.5 21.999s-5.83301 9.66602 -8.5 12.999c-4.66699 4.66699 -9.5 8.5 -14.5 11.5s-11.333 5.5 -19 7.5s-17.5 3.5 -29.5 4.5s-27.333 2.16699 -46 3.5v70c36.667 5.33301 68.5 10.333 95.5 15
s52.167 9.66699 75.5 15s46.166 11.333 68.499 18s47.5 14.667 75.5 24l42 -42l13 -145c18 26 38.333 50.333 61 73s46.834 42.5 72.501 59.5s52.5 30.333 80.5 40s56.333 14.5 85 14.5c25.333 0 51.833 -3.83301 79.5 -11.5s53.834 -18.5 78.501 -32.5z" />
    <glyph glyph-name="s" unicode="s" horiz-adv-x="858" 
d="M782 283c0 -47.333 -7.16406 -87.8281 -21.4971 -121.495s-33 -62.167 -56 -85.5s-48.833 -42 -77.5 -56s-57.834 -24.667 -87.501 -32s-58 -12.166 -85 -14.499s-50.167 -3.5 -69.5 -3.5c-21.333 0 -44.5 1.5 -69.5 4.5s-50.5 7.5 -76.5 13.5s-51.833 13.667 -77.5 23
s-49.5 20 -71.5 32c-4.66699 2 -8.16699 13.833 -10.5 35.5s-3.16602 47.5 -2.49902 77.5s2.5 61.333 5.5 94s7.83301 61.334 14.5 86.001l81 -11c6.66699 -35.333 17.667 -67.333 33 -96s33.666 -53 54.999 -73s45.166 -35.5 71.499 -46.5s53.833 -16.5 82.5 -16.5
c48 0 83.667 8.66699 107 26s35 46 35 86c0 26.667 -6.83301 50.667 -20.5 72s-31.834 41 -54.501 59s-48.334 34.833 -77.001 50.5l-89 47.5c-28 14 -55.833 29.5 -83.5 46.5s-52.5 36 -74.5 57s-40 44.167 -54 69.5s-21 54 -21 86c0 41.333 10.167 78.5 30.5 111.5
s47.166 61 80.499 84s71.333 40.667 114 53s86.667 18.5 132 18.5c28.667 0 57.5 -1.83301 86.5 -5.5s56.833 -8.83398 83.5 -15.501s51.334 -14.667 74.001 -24s41.667 -20 57 -32c4 -3.33301 4.83301 -14.5 2.5 -33.5s-6.66602 -40.333 -12.999 -64
s-13.833 -46.834 -22.5 -69.501s-17 -39.334 -25 -50.001l-69 8c-16.667 58.667 -40.667 103.5 -72 134.5s-69 46.5 -113 46.5c-40 0 -71 -9.16699 -93 -27.5s-33 -41.5 -33 -69.5c0 -21.333 5.33301 -40.333 16 -57s25.834 -32.334 45.501 -47.001s43.667 -29.5 72 -44.5
l95.5 -50.5c28.667 -14.667 57.667 -30.334 87 -47.001s55.666 -35.834 78.999 -57.501s42.333 -46.334 57 -74.001s22 -60.167 22 -97.5z" />
    <glyph glyph-name="t" unicode="t" horiz-adv-x="758" 
d="M736 155c-88.667 -64 -163.668 -110.834 -225.001 -140.501s-109.666 -44.5 -144.999 -44.5c-28.667 0 -55.834 5.5 -81.501 16.5s-48 27.833 -67 50.5s-34.167 51.167 -45.5 85.5s-17 74.833 -17 121.5v561h-121l-29 36l78 89h72v209l202 149l38 -33v-325h305l36 -36
c-6 -11.333 -13.5 -23.166 -22.5 -35.499l-27.5 -36c-9.33301 -11.667 -18.5 -22.167 -27.5 -31.5s-16.833 -16.333 -23.5 -21c-8 4 -18.167 8 -30.5 12s-26.166 7.83301 -41.499 11.5s-31.5 6.5 -48.5 8.5s-34.5 3 -52.5 3h-67v-468c0 -34 2 -62.833 6 -86.5
s9.83301 -42.667 17.5 -57s16.667 -24.666 27 -30.999s21.833 -9.5 34.5 -9.5c12 0 24.5 1.16699 37.5 3.5s27.833 6.16602 44.5 11.499s35.5 12.833 56.5 22.5s45.5 22.167 73.5 37.5z" />
    <glyph glyph-name="u" unicode="u" horiz-adv-x="1153" 
d="M1144 112c-24.667 -16 -51.8301 -32.3311 -81.4971 -48.998s-58.334 -32 -86.001 -46s-52.334 -25.333 -74.001 -34s-36.5 -13 -44.5 -13c-12 0 -23.5 2.16699 -34.5 6.5s-21.333 12.666 -31 24.999s-18.167 29.333 -25.5 51s-13 49.5 -17 83.5
c-41.333 -36 -78.5 -64.833 -111.5 -86.5s-63 -38.5 -90 -50.5s-51.833 -19.833 -74.5 -23.5s-44.667 -5.5 -66 -5.5c-31.333 0 -62 4.33301 -92 13s-57 24.5 -81 47.5s-43.333 54.5 -58 94.5s-22 91.333 -22 154v410c0 32 -0.5 56.833 -1.5 74.5s-5.33301 31 -13 40
s-19.667 15.167 -36 18.5s-39.833 6.66602 -70.5 9.99902v70c33.333 2.66699 63.833 5.66699 91.5 9s54.167 7.16602 79.5 11.499s50.5 9.5 75.5 15.5s51.5 13.333 79.5 22l35 -46v-572c0 -41.333 2.5 -75 7.5 -101s12.5 -46.167 22.5 -60.5s22.167 -24.166 36.5 -29.499
s30.833 -8 49.5 -8c14 0 29.167 1.66699 45.5 5s34.333 9.5 54 18.5s41 21.167 64 36.5s48.167 35 75.5 59v427c0 30 -1.16699 54 -3.5 72s-7.83301 32 -16.5 42s-21.834 17 -39.501 21s-41.834 6.66699 -72.501 8v70c66.667 6 127.167 14.167 181.5 24.5
s105.5 21.5 153.5 33.5l37 -46v-630c0 -20.667 0.333008 -37.834 1 -51.501s1.83398 -25 3.50098 -34s4 -16.167 7 -21.5s6.83301 -9.66602 11.5 -12.999c8 -5.33301 19.167 -6.5 33.5 -3.5s38.5 11.833 72.5 26.5z" />
    <glyph glyph-name="v" unicode="v" horiz-adv-x="1040" 
d="M1027 857c-20 -4.66699 -35.833 -9 -47.5 -13s-21 -8.5 -28 -13.5s-12.333 -10.833 -16 -17.5s-7.5 -14.667 -11.5 -24l-283 -707c-6 -14.667 -15.167 -28 -27.5 -40s-26.5 -22.833 -42.5 -32.5s-33 -17.667 -51 -24s-35 -11.5 -51 -15.5l-353 819
c-7.33301 18 -18.166 32 -32.499 42s-37.833 18.667 -70.5 26v73h453v-73c-26 -3.33301 -46.5 -6.83301 -61.5 -10.5s-26 -8 -33 -13s-10.5 -11 -10.5 -18s2.33301 -15.833 7 -26.5l215 -503l202 503c4 10 6.16699 18.5 6.5 25.5s-2.16699 13 -7.5 18
s-14.333 9.33301 -27 13s-30.334 7.5 -53.001 11.5v73h323v-73z" />
    <glyph glyph-name="w" unicode="w" horiz-adv-x="1469" 
d="M1455 857c-18.667 -4.66699 -33.833 -9.16992 -45.5 -13.5029s-21.167 -8.66602 -28.5 -12.999s-12.833 -9.33301 -16.5 -15s-6.83398 -12.5 -9.50098 -20.5l-221 -736c-4 -14.667 -12.167 -27.167 -24.5 -37.5s-26 -19 -41 -26s-29.667 -12.5 -44 -16.5
s-25.833 -7 -34.5 -9l-255 584l-203 -495c-5.33301 -15.333 -14 -28.166 -26 -38.499s-25 -19 -39 -26s-28 -12.333 -42 -16s-25.333 -6.5 -34 -8.5l-269 825c-4 12 -14.833 23.5 -32.5 34.5s-43.167 20.167 -76.5 27.5v73h453v-73
c-28.667 -3.33301 -51 -7.16602 -67 -11.499s-27.5 -9.33301 -34.5 -15s-10.667 -11.5 -11 -17.5s0.5 -12 2.5 -18l150 -472l239 607h77l251 -607l144 472c2.66699 7.33301 3.83398 14 3.50098 20s-3.33301 11.5 -9 16.5s-15 9.5 -28 13.5s-30.833 8 -53.5 12v73h325v-73z
" />
    <glyph glyph-name="x" unicode="x" horiz-adv-x="1068" 
d="M562 0l0.00292969 73.001c16.667 1.33301 31.834 3.16602 45.501 5.49902s24.167 6.33301 31.5 12s10.5 13.667 9.5 24s-7.83301 24.5 -20.5 42.5l-147 203l-157 -203c-13.333 -17.333 -20 -31.166 -20 -41.499s4.5 -18.333 13.5 -24s20.833 -9.83398 35.5 -12.501
s30 -4.66699 46 -6v-73h-386v73c24.667 4 45.667 9 63 15s32.333 13 45 21s23.334 16.5 32.001 25.5s17 18.5 25 28.5l231 298l-223 310c-8.66699 12 -17.334 22.833 -26.001 32.5s-18.834 18.167 -30.501 25.5s-26 13.333 -43 18s-37.833 8 -62.5 10v73h495v-73
c-20.667 -2 -37.334 -4.5 -50.001 -7.5s-21.334 -7.5 -26.001 -13.5s-5.33398 -14 -2.00098 -24s10.666 -23 21.999 -39l112 -157l121 157c12 16 20 29 24 39s3.66699 18 -1 24s-13.167 10.5 -25.5 13.5s-28.833 5.5 -49.5 7.5v73h381v-73
c-27.333 -2 -50.333 -5.33301 -69 -10s-34.667 -10.667 -48 -18s-25 -15.833 -35 -25.5s-19.667 -20.5 -29 -32.5l-197 -255l254 -353c7.33301 -10 15.333 -19.667 24 -29s18.834 -18 30.501 -26s25.5 -15.167 41.5 -21.5s35 -10.833 57 -13.5v-73h-492z" />
    <glyph glyph-name="y" unicode="y" horiz-adv-x="1040" 
d="M1027 857c-20 -4.66699 -36.3359 -8.99902 -49.0029 -12.999s-23 -8.5 -31 -13.5s-14.167 -10.667 -18.5 -17s-8.16602 -14.5 -11.499 -24.5l-334 -864c-28.667 -73.333 -59.667 -136.333 -93 -189s-68.666 -96 -105.999 -130s-76.333 -59 -117 -75
s-82.334 -24 -125.001 -24c-25.333 0 -50.333 2.33301 -75 7s-46.5 10.5 -65.5 17.5s-34.333 14.5 -46 22.5s-17.5 15 -17.5 21s5.66699 17.5 17 34.5s24.833 35.167 40.5 54.5s31.834 37.666 48.501 54.999s30.334 29.333 41.001 36
c33.333 -21.333 66.833 -34.5 100.5 -39.5s62.834 -2.83301 87.501 6.5c24.667 8.66699 51.167 27.5 79.5 56.5s54.166 72.167 77.499 129.5l29 69l-335 812c-7.33301 18 -19.333 32 -36 42s-41.667 18.667 -75 26v73h453v-73c-26 -3.33301 -46 -6.83301 -60 -10.5
s-24 -8 -30 -13s-8.66699 -11 -8 -18s3.33398 -15.833 8.00098 -26.5l206 -502l196 502c4 10 6.5 18.5 7.5 25.5s-1 13 -6 18s-13.833 9.33301 -26.5 13s-30.334 7.5 -53.001 11.5v73h327v-73z" />
    <glyph glyph-name="z" unicode="z" horiz-adv-x="959" 
d="M882 331c0 -14 -0.168945 -30.834 -0.501953 -50.501s-0.666016 -40.5 -0.999023 -62.5s-0.833008 -44.167 -1.5 -66.5s-1.5 -43.5 -2.5 -63.5s-2 -37.667 -3 -53s-2.16699 -27 -3.5 -35h-783l-26 45l529 765h-260c-29.333 0 -56.833 -16.667 -82.5 -50
s-47.167 -86.666 -64.5 -159.999l-71 20l25 326c14.667 -4 28 -7.16699 40 -9.5s24.5 -4 37.5 -5s27.167 -1.5 42.5 -1.5h616l22 -43l-531 -767h343c12 0 22.5 5.16699 31.5 15.5s17.333 25.333 25 45s15.334 43.5 23.001 71.5l25.5 96z" />
    <glyph glyph-name="braceleft" unicode="{" horiz-adv-x="717" 
d="M693 1523c-52 -32.667 -94.5 -70.835 -127.5 -114.502s-49.5 -90.834 -49.5 -141.501c0 -35.333 2.16699 -66.5 6.5 -93.5s9 -53.167 14 -78.5s9.66699 -51.666 14 -78.999s6.5 -58.333 6.5 -93c0 -28 -4.83301 -55.5 -14.5 -82.5s-23.334 -52.333 -41.001 -76
s-38.334 -45.167 -62.001 -64.5s-49.5 -35 -77.5 -47c66.667 -12 115.834 -41.167 147.501 -87.5s47.5 -106.5 47.5 -180.5c0 -36 -2.16699 -69.333 -6.5 -100s-9 -60.167 -14 -88.5s-9.66699 -56.166 -14 -83.499s-6.5 -55.666 -6.5 -84.999
c0 -27.333 2.16699 -52.166 6.5 -74.499s12.5 -43.5 24.5 -63.5s28.833 -39.167 50.5 -57.5s50.167 -37.166 85.5 -56.499l-38 -91c-61.333 22.667 -116 45.667 -164 69s-88.333 49.5 -121 78.5s-57.5 61.667 -74.5 98s-25.5 78.5 -25.5 126.5
c0 35.333 2.16699 67.166 6.5 95.499s9 56.166 14 83.499s9.66699 55.666 14 84.999s6.5 63 6.5 101c0 54 -11.667 92.333 -35 115s-56 34 -98 34h-21c-4 0 -7.66699 -0.166992 -11 -0.5s-7.16602 -1 -11.499 -2s-11.5 -2.16699 -21.5 -3.5l-17 83
c74.667 20.667 129.167 49.167 163.5 85.5s51.5 79.5 51.5 129.5c0 36.667 -2.16699 68.334 -6.5 95.001s-9 52.5 -14 77.5s-9.66699 51 -14 78s-6.5 59.167 -6.5 96.5c0 44.667 10 86 30 124s47.5 73 82.5 105s76.5 61.167 124.5 87.5s99.667 50.833 155 73.5z" />
    <glyph glyph-name="bar" unicode="|" horiz-adv-x="470" 
d="M335 -346c-6 -5.33301 -14.499 -10.8301 -25.499 -16.4971s-22.667 -11.167 -35 -16.5s-24.5 -10.333 -36.5 -15s-22 -8.33398 -30 -11.001l-43 30v1989c18.667 11.333 39.667 22.166 63 32.499s44.666 18.166 63.999 23.499l43 -29v-1987z" />
    <glyph glyph-name="braceright" unicode="}" horiz-adv-x="717" 
d="M632 636c-74.667 -20.667 -129.167 -48.999 -163.5 -84.999s-51.5 -79.333 -51.5 -130c0 -36.667 2 -68.334 6 -95.001s8.5 -52.334 13.5 -77.001s9.66699 -50.5 14 -77.5s6.5 -59.167 6.5 -96.5c0 -45.333 -10 -86.833 -30 -124.5s-47.5 -72.5 -82.5 -104.5
s-76.333 -61.333 -124 -88s-99.167 -51.334 -154.5 -74.001l-41 78c52 32.667 94.333 70.834 127 114.501s49 90.834 49 141.501c0 34.667 -2.16699 65.5 -6.5 92.5s-9 53.333 -14 79s-9.5 52 -13.5 79s-6 58.167 -6 93.5c0 28 4.83301 55.333 14.5 82
s23.167 51.834 40.5 75.501s38 45.167 62 64.5s50 35 78 47c-67.333 12.667 -116.666 42 -147.999 88s-47 106.333 -47 181c0 36 2 69.333 6 100s8.5 60 13.5 88s9.66699 55.667 14 83s6.5 55.666 6.5 84.999c0 28 -2.16699 53.167 -6.5 75.5s-12.5 43.333 -24.5 63
s-28.833 38.667 -50.5 57s-49.834 37.166 -84.501 56.499l38 91c61.333 -22 115.833 -44.833 163.5 -68.5s87.834 -49.834 120.501 -78.501s57.5 -61.167 74.5 -97.5s25.5 -78.5 25.5 -126.5c0 -35.333 -2.16699 -67.166 -6.5 -95.499s-9 -56.333 -14 -84
s-9.5 -56.167 -13.5 -85.5s-6 -62.666 -6 -99.999c0 -54 11.667 -92.333 35 -115s56 -34 98 -34h20c4.66699 0 8.66699 0.166992 12 0.5s7.16602 0.833008 11.499 1.5s11.5 2 21.5 4z" />
    <glyph glyph-name="asciitilde" unicode="~" horiz-adv-x="999" 
d="M950 774c-14 -32.667 -31.668 -66.5 -53.001 -101.5s-45.166 -67 -71.499 -96s-54.666 -52.833 -84.999 -71.5s-61.5 -28 -93.5 -28c-28 0 -57.667 8.33301 -89 25s-63.166 35 -95.499 55s-64.333 38.333 -96 55s-61.834 25 -90.501 25
c-32.667 0 -62.834 -13 -90.501 -39s-55.5 -67 -83.5 -123l-53 27c14 32.667 31.833 66.5 53.5 101.5s45.667 67 72 96s54.5 52.833 84.5 71.5s61 28 93 28c30.667 0 62.167 -8.33301 94.5 -25s64.333 -35 96 -55s62.667 -38.333 93 -55s58.833 -25 85.5 -25
c32 0 62.333 13 91 39s57 66.333 85 121z" />
    <glyph glyph-name="uni00A0" unicode="&#xa0;" horiz-adv-x="510" 
 />
    <glyph glyph-name="exclamdown" unicode="&#xa1;" horiz-adv-x="633" 
d="M454 -449l-54.5 -28.5l-67 -33c-23 -11 -45 -21 -66 -30s-37.833 -15.833 -50.5 -20.5l-51 31l79 1038c12.667 9.33301 29 16.833 49 22.5s38.333 11.167 55 16.5l29 -20zM474 826c0 -26 -4.99902 -49.668 -14.999 -71.001s-23.333 -39.5 -40 -54.5
s-36.167 -26.5 -58.5 -34.5s-45.5 -12 -69.5 -12c-18.667 0 -36.667 2.66699 -54 8s-32.666 13.5 -45.999 24.5s-24 25 -32 42s-12 37.5 -12 61.5c0 26.667 4.83301 50.5 14.5 71.5s22.667 38.833 39 53.5s35.666 25.834 57.999 33.501s46.166 11.5 71.499 11.5
c19.333 0 37.833 -2.5 55.5 -7.5s33 -13 46 -24s23.333 -25 31 -42s11.5 -37.167 11.5 -60.5z" />
    <glyph glyph-name="cent" unicode="&#xa2;" horiz-adv-x="1036" 
d="M309 616c0 -44.667 4.66602 -84.8311 13.999 -120.498s22.333 -66.834 39 -93.501s36.5 -49 59.5 -67s48.5 -32 76.5 -42v648c-25.333 -6.66699 -49.333 -17.834 -72 -33.501s-42.667 -36.5 -60 -62.5s-31.166 -58 -41.499 -96s-15.5 -82.333 -15.5 -133z
M617.999 7.00293c-12 -10.667 -25.665 -20.001 -40.998 -28.001s-31 -14.667 -47 -20l-32 32v139c-46.667 4 -94.167 16.667 -142.5 38s-92.333 51.333 -132 90s-72 85.334 -97 140.001s-37.5 117.334 -37.5 188.001c0 59.333 9.66699 115 29 167s46.833 98.667 82.5 140
s78.667 76.666 129 105.999s106.5 50.666 168.5 63.999v136l23.5 15.5l18 12c5.66699 3.66699 12 7 19 10s15.5 5.83301 25.5 8.5l34 -29v-138c5.33301 0 10.833 0.166992 16.5 0.5s11.5 0.5 17.5 0.5c22 0 47.333 -1.83301 76 -5.5s56.834 -9 84.501 -16s53 -15.333 76 -25
s40.167 -20.834 51.5 -33.501c1.33301 -7.33301 -0.833984 -21 -6.50098 -41s-12.834 -41.333 -21.501 -64s-17.834 -44.167 -27.501 -64.5s-17.5 -34.833 -23.5 -43.5l-65 17c-5.33301 10 -13 21.833 -23 35.5s-22.167 27.334 -36.5 41.001s-31.333 26.334 -51 38.001
s-42.167 20.167 -67.5 25.5v-666c19.333 0.666992 38.333 3.33398 57 8.00098s38.334 12.667 59.001 24s43.167 26.666 67.5 45.999s52.166 44 83.499 74l62 -71c-34 -38 -65.5 -70.333 -94.5 -97s-56.667 -48.5 -83 -65.5s-51.833 -30.333 -76.5 -40
s-49.667 -16.5 -75 -20.5v-128z" />
    <glyph glyph-name="sterling" unicode="&#xa3;" horiz-adv-x="1036" 
d="M720 521l-263.994 -0.00390625c2 -78.667 -6.33301 -149 -25 -211s-46.334 -119 -83.001 -171c30 2.66699 56 4.33398 78 5.00098s41.5 0.833984 58.5 0.500977s32.667 -0.833008 47 -1.5s29 -1.5 44 -2.5s31.5 -1.66699 49.5 -2s39.333 -0.166016 64 0.500977
c30.667 0.666992 57 3.83398 79 9.50098s41.5 15.5 58.5 29.5s32.5 33.333 46.5 58s28 56.667 42 96l73 -25c-2.66699 -28.667 -6.16699 -59 -10.5 -91s-8.83301 -62.333 -13.5 -91s-9.16699 -54.167 -13.5 -76.5s-7.83301 -38.5 -10.5 -48.5
c-30 -16.667 -67.333 -26 -112 -28s-93.167 -0.666992 -145.5 4s-106.666 10.834 -162.999 18.501s-111 13.167 -164 16.5s-102.833 2.5 -149.5 -2.5s-86.334 -17.833 -119.001 -38.5l-38 72c20 16.667 37.833 32.334 53.5 47.001s29.167 30.667 40.5 48
s20.666 36.833 27.999 58.5s12.666 47.5 15.999 77.5s4.83301 65.167 4.5 105.5s-2.16602 87.833 -5.49902 142.5h-115l-29 33c1.33301 4.66699 3.66602 11 6.99902 19l10.5 24.5l11 24.5c3.66699 8 6.5 14.667 8.5 20h100c-1.33301 88 8.5 168.333 29.5 241
s51.833 135 92.5 187s90.667 92.5 150 121.5s126.333 43.5 201 43.5c17.333 0 36.833 -0.666992 58.5 -2s45.167 -4.5 70.5 -9.5s52.166 -12 80.499 -21s58.166 -21.5 89.499 -37.5l-2.5 -43.5c-1 -17.667 -2.5 -36.834 -4.5 -57.501s-4.33301 -42 -7 -64
s-5.33398 -42.833 -8.00098 -62.5s-5.5 -37.334 -8.5 -53.001s-5.83301 -27.834 -8.5 -36.501h-77c-9.33301 82.667 -32 147.667 -68 195s-84 71 -144 71c-13.333 0 -28 -1.33301 -44 -4s-31.5 -9.16699 -46.5 -19.5s-29.333 -25.666 -43 -45.999s-24.667 -48 -33 -83
s-13.833 -78.5 -16.5 -130.5s-0.666992 -115 6 -189h282l32 -30z" />
    <glyph glyph-name="currency" unicode="&#xa4;" horiz-adv-x="1036" 
d="M366 757c-21.333 -21.333 -37.499 -45.667 -48.499 -73s-16.5 -55 -16.5 -83s5.16699 -55 15.5 -81s26.166 -49.667 47.499 -71c22.667 -22.667 47.334 -39.167 74.001 -49.5s54 -15.5 82 -15.5s55.167 5.16699 81.5 15.5s50.166 26.5 71.499 48.5
c21.333 21.333 37.333 45.333 48 72s16 54 16 82s-5.5 55.5 -16.5 82.5s-27.167 51.167 -48.5 72.5s-45 37.166 -71 47.499s-53 15.5 -81 15.5s-55.333 -5.16699 -82 -15.5s-50.667 -26.166 -72 -47.499zM851.001 182.999l-137.004 137c-28.667 -20 -59.5 -35 -92.5 -45
s-66.833 -15 -101.5 -15c-35.333 0 -69.666 5 -102.999 15s-65 25.667 -95 47l-140 -140l-42 3c-6.66699 11.333 -13.667 24.166 -21 38.499s-13.666 28.5 -18.999 42.5l139 139c-20.667 29.333 -36 60.5 -46 93.5s-15 66.5 -15 100.5c0 34.667 5 68.834 15 102.501
s25.333 65.5 46 95.5l-138 140l2 44c12 6.66699 25 13.5 39 20.5s28 13.5 42 19.5l139 -140c60.667 43.333 126.334 65 197.001 65c34 0 67.333 -5.33301 100 -16s63.667 -26.667 93 -48l138 138l44 1l39 -86l-137 -137c21.333 -30 37.333 -62 48 -96s16 -68.333 16 -103
c0 -34 -5.16699 -67.5 -15.5 -100.5s-26.166 -64.5 -47.499 -94.5l138 -137l1 -45z" />
    <glyph glyph-name="yen" unicode="&#xa5;" horiz-adv-x="1036" 
d="M229 0l-0.00195312 73.001c30 6 55 12.333 75 19s36 13.167 48 19.5s20.5 12.333 25.5 18s7.5 10.834 7.5 15.501v243h-288l-22 24c1.33301 4.66699 3.5 11.334 6.5 20.001l9.5 27.5c3.33301 9.66699 6.66602 18.834 9.99902 27.501l8 21h276v21
c-23.333 51.333 -48 102.5 -74 153.5s-52.333 99.667 -79 146s-53 89.666 -79 129.999s-50.667 75.833 -74 106.5c-6 7.33301 -12.167 14 -18.5 20s-15.166 11 -26.499 15s-25.666 7.16699 -42.999 9.5s-40 3.5 -68 3.5l-4 73l67.5 9c25.667 3.33301 51.167 6.33301 76.5 9
s49.333 5 72 7s41 3 55 3c18.667 0 37.334 -4 56.001 -12s33.667 -19.333 45 -34c24.667 -33.333 48.5 -67.333 71.5 -102s45.833 -71.334 68.5 -110.001s45.167 -79.167 67.5 -121.5l68.5 -135.5l193 366c10 17.333 6.83301 31 -9.5 41s-50.166 18.333 -101.499 25v73h418
v-73c-45.333 -8.66699 -79 -17.667 -101 -27s-37.667 -22.333 -47 -39l-284 -539v-18h267l25 -23l-37 -97h-255v-243c0 -4 2.5 -8.83301 7.5 -14.5s13.5 -11.834 25.5 -18.501s28.167 -13.334 48.5 -20.001s46.166 -13 77.499 -19v-73h-565z" />
    <glyph glyph-name="brokenbar" unicode="&#xa6;" horiz-adv-x="469" 
d="M341 775c-6.66699 -5.33301 -16.001 -10.8291 -28.001 -16.4961s-24.667 -11.334 -38 -17.001s-26.666 -10.834 -39.999 -15.501l-31 -10l-45 30v868c19.333 11.333 42 22.166 68 32.499s49.333 18.166 70 23.499l44 -29v-866zM340.999 -346.996
c-6.66699 -5.33301 -16 -10.833 -28 -16.5s-24.667 -11.167 -38 -16.5s-26.5 -10.333 -39.5 -15l-31.5 -11l-45 30v858c10 6 20.833 11.833 32.5 17.5s23.667 11 36 16s24.5 9.66699 36.5 14l33 11.5l44 -32v-856z" />
    <glyph glyph-name="section" unicode="&#xa7;" horiz-adv-x="1025" 
d="M585 559l45.5029 -22.999c15.667 -8 31.167 -16.333 46.5 -25c9.33301 13.333 16.666 27.833 21.999 43.5s8 32.167 8 49.5c0 33.333 -5.5 62.666 -16.5 87.999s-27.833 49 -50.5 71s-51.334 43.667 -86.001 65s-76 45 -124 71c-10.667 5.33301 -21.334 11 -32.001 17
l-33 19c-14 -15.333 -25.333 -32.5 -34 -51.5s-13 -37.5 -13 -55.5c0 -29.333 5.33301 -55 16 -77s27 -43 49 -63s49.833 -40.167 83.5 -60.5zM920.003 669.001c0 -56.667 -10.6621 -106.832 -31.9951 -150.499s-47.666 -80.167 -78.999 -109.5
c15.333 -18 27.666 -37.833 36.999 -59.5s14 -45.5 14 -71.5c0 -47.333 -7.16699 -87.666 -21.5 -120.999s-33 -61.5 -56 -84.5s-48.833 -41.167 -77.5 -54.5s-57.667 -23.666 -87 -30.999s-57.5 -12 -84.5 -14s-50.167 -3 -69.5 -3c-21.333 0 -44.5 1.66699 -69.5 5
s-50.5 8.16602 -76.5 14.499s-51.833 14.166 -77.5 23.499s-49.5 20.333 -71.5 33c-3.33301 1.33301 -6 7.16602 -8 17.499s-3.5 23.666 -4.5 39.999s-1.33301 34.666 -1 54.999s1.16602 41.166 2.49902 62.499s3.5 42.166 6.5 62.499s6.83301 38.5 11.5 54.5l80 -11
c7.33301 -35.333 18.666 -67.5 33.999 -96.5s33.666 -53.833 54.999 -74.5s45 -36.667 71 -48s53.667 -17 83 -17c48 0 83.5 8.16699 106.5 24.5s34.5 44.5 34.5 84.5c0 26.667 -8 50.5 -24 71.5s-36.667 40.333 -62 58s-53.5 34.334 -84.5 50.001l-92.5 47.5
c-32 16.667 -64.167 35.834 -96.5 57.501s-61.5 46.667 -87.5 75s-47.167 60.5 -63.5 96.5s-24.5 77 -24.5 123c0 22.667 3.66699 45.334 11 68.001s17.333 44.5 30 65.5s27.667 40.667 45 59s36 34.5 56 48.5c-23.333 22.667 -42.5 46.834 -57.5 72.501
s-22.5 54.167 -22.5 85.5c0 41.333 10.167 78.333 30.5 111s47.166 60.167 80.499 82.5s71.333 39.333 114 51s86.667 17.5 132 17.5c28.667 0 57.5 -1.83301 86.5 -5.5s56.833 -9 83.5 -16s51.167 -15.333 73.5 -25s41.166 -20.5 56.499 -32.5
c4 -3.33301 4.83301 -14.5 2.5 -33.5s-6.5 -40.333 -12.5 -64s-13.333 -47 -22 -70s-17 -39.833 -25 -50.5l-69 8c-16.667 59.333 -40.667 104.833 -72 136.5s-69 47.5 -113 47.5c-40.667 0 -71.834 -8.33301 -93.501 -25s-32.5 -40 -32.5 -70c0 -22 6 -41.5 18 -58.5
s29 -33.167 51 -48.5s48.5 -31 79.5 -47l102.5 -54c32.667 -17.333 65.834 -36.5 99.501 -57.5s64 -45.833 91 -74.5s49 -61.667 66 -99s25.5 -81.333 25.5 -132z" />
    <glyph glyph-name="dieresis" unicode="&#xa8;" horiz-adv-x="801" 
d="M749 1268c0 -24.667 -4.16895 -47.667 -12.502 -69s-19.666 -40 -33.999 -56s-31 -28.667 -50 -38s-39.167 -14 -60.5 -14c-38.667 0 -68 10.333 -88 31s-30 51 -30 91c0 24.667 4.33301 47.667 13 69s20.167 40 34.5 56s30.833 28.5 49.5 37.5s38.334 13.5 59.001 13.5
c37.333 0 66.5 -10 87.5 -30s31.5 -50.333 31.5 -91zM325.998 1268c0 -24.667 -4.16699 -47.667 -12.5 -69s-19.5 -40 -33.5 -56s-30.5 -28.667 -49.5 -38s-39.167 -14 -60.5 -14c-38.667 0 -68.167 10.333 -88.5 31s-30.5 51 -30.5 91c0 24.667 4.33301 47.667 13 69
s20.167 40 34.5 56s31 28.5 50 37.5s38.833 13.5 59.5 13.5c37.333 0 66.333 -10 87 -30s31 -50.333 31 -91z" />
    <glyph glyph-name="copyright" unicode="&#xa9;" horiz-adv-x="1496" 
d="M1068 412c-35.333 -38 -68.1611 -68.667 -98.4941 -92s-59.333 -41.333 -87 -54s-54.334 -21.167 -80.001 -25.5s-51.5 -6.5 -77.5 -6.5c-46.667 0 -91.834 9.33301 -135.501 28s-82.5 45.5 -116.5 80.5s-61.167 77.5 -81.5 127.5s-30.5 106.333 -30.5 169
s11.667 121.334 35 176.001s55.666 102.5 96.999 143.5s90.166 73.333 146.499 97s117.833 35.5 184.5 35.5c22 0 44.5 -2 67.5 -6s44.833 -9.5 65.5 -16.5s39.667 -14.833 57 -23.5s31 -18 41 -28c1.33301 -6 -0.5 -19 -5.5 -39s-11.5 -41.667 -19.5 -65
s-16.333 -45.333 -25 -66s-16 -34.667 -22 -42l-54 8c-6.66699 22.667 -14.5 44.5 -23.5 65.5s-19.833 39.667 -32.5 56s-27.667 29.333 -45 39s-38 14.5 -62 14.5c-27.333 0 -53.5 -6 -78.5 -18s-47 -30.833 -66 -56.5s-34 -58.667 -45 -99s-16.5 -88.5 -16.5 -144.5
c0 -46 7.16699 -87.5 21.5 -124.5s33 -68.333 56 -94s49 -45.334 78 -59.001s58.167 -20.5 87.5 -20.5c15.333 0 30.166 1 44.499 3s29.666 6.33301 45.999 13s35 16.167 56 28.5s45.5 28.5 73.5 48.5c0.666992 0 3.33398 -2.83301 8.00098 -8.5l15 -18
c5.33301 -6.33301 10.166 -12.333 14.499 -18s6.83301 -8.5 7.5 -8.5zM1292 666c0 78.667 -13.5 152.834 -40.5 222.501s-64.667 130.5 -113 182.5s-105.833 93 -172.5 123s-139.667 45 -219 45c-78.667 0 -151.167 -15 -217.5 -45s-123.666 -71 -171.999 -123
s-86 -112.833 -113 -182.5s-40.5 -143.834 -40.5 -222.501c0 -79.333 13.5 -154 40.5 -224s64.667 -131 113 -183s105.666 -93 171.999 -123s138.833 -45 217.5 -45c79.333 0 152.333 15 219 45s124.167 71 172.5 123s86 113 113 183s40.5 144.667 40.5 224zM1411 666
c0 -64 -7.49902 -125.668 -22.499 -185.001s-36.5 -114.666 -64.5 -165.999s-61.667 -98.333 -101 -141s-83.666 -79 -132.999 -109s-102.833 -53.333 -160.5 -70s-118.5 -25 -182.5 -25s-124.667 8.33301 -182 25s-110.5 40 -159.5 70s-93.333 66.333 -133 109
s-73.334 89.667 -101.001 141s-49 106.666 -64 165.999s-22.5 121 -22.5 185c0 96 16.5 186 49.5 270s79 157.333 138 220s128.833 112.167 209.5 148.5s169 54.5 265 54.5c64 0 124.833 -8.16699 182.5 -24.5s111.167 -39.666 160.5 -69.999s93.666 -66.5 132.999 -108.5
s73 -88.667 101 -140s49.5 -106.5 64.5 -165.5s22.5 -120.5 22.5 -184.5z" />
    <glyph glyph-name="ordfeminine" unicode="&#xaa;" horiz-adv-x="564" 
d="M550 800c-30.667 -20.667 -60.6641 -38.1641 -89.9971 -52.4971s-54.666 -21.5 -75.999 -21.5c-9.33301 0 -18 5.66699 -26 17s-14 33.666 -18 66.999c-33.333 -32.667 -65.333 -54.834 -96 -66.501s-57.667 -17.5 -81 -17.5c-13.333 0 -27.166 2 -41.499 6
s-27.333 10.5 -39 19.5s-21.334 20.667 -29.001 35s-11.5 32.166 -11.5 53.499c0 20.667 3.5 40.834 10.5 60.501s18.167 38 33.5 55s35.166 32.167 59.499 45.5s53.5 23.666 87.5 30.999l104 22v12c0 20.667 -0.5 38.834 -1.5 54.501s-3.83301 28.834 -8.5 39.501
s-11.5 18.667 -20.5 24s-21.5 8 -37.5 8c-10 0 -19.5 -1.33301 -28.5 -4s-16.5 -7 -22.5 -13s-10.333 -13.5 -13 -22.5s-2.33398 -19.5 0.999023 -31.5c0.666992 -3.33301 -5.5 -7.33301 -18.5 -12s-27.833 -9.33398 -44.5 -14.001s-32.834 -8.5 -48.501 -11.5
s-25.834 -3.83301 -30.501 -2.5l-11 26c8.66699 22.667 22.5 43.667 41.5 63s41 35.666 66 48.999s51.667 23.833 80 31.5s56.166 11.5 83.499 11.5c24 0 45 -2.66699 63 -8s33 -14.833 45 -28.5s21 -32 27 -55s9 -52.167 9 -87.5v-196c0 -18.667 1.33301 -32.167 4 -40.5
s6 -14.833 10 -19.5c3.33301 -2 8.83301 -2.16699 16.5 -0.5s20.834 6.16699 39.501 13.5zM44.0029 586.003v88h479v-88h-479zM337.003 871.003l-0.00195312 131.002l-50 -11c-34 -8.66699 -60.5 -22.334 -79.5 -41.001s-28.5 -42.334 -28.5 -71.001
c0 -12 1.66699 -22 5 -30s7.33301 -14.167 12 -18.5s9.83398 -7.5 15.501 -9.5s10.834 -3 15.501 -3c14 0 29.5 3.5 46.5 10.5s38.167 21.167 63.5 42.5z" />
    <glyph glyph-name="guillemotleft" unicode="&#xab;" horiz-adv-x="1054" 
d="M65 430v35.002c0 9.33301 0.166992 17.666 0.5 24.999s0.833008 11.666 1.5 12.999l397 425l57 -45l-9 -18l-22 -47.5l-32.5 -67l-37.5 -76.5l-37 -76.5l-32 -66.5l-22.5 -46.5c-5.66699 -11.667 -8.16699 -17.5 -7.5 -17.5l201 -420l-58 -45zM473 430.002v35.002
c0 9.33301 0.166992 17.666 0.5 24.999s0.833008 11.666 1.5 12.999l396 425l57 -45l-9 -18l-22 -47.5l-32.5 -67l-37.5 -76.5l-37 -76.5l-32 -66.5l-22.5 -46.5c-5.66699 -11.667 -8.16699 -17.5 -7.5 -17.5l201 -420l-58 -45z" />
    <glyph glyph-name="logicalnot" unicode="&#xac;" horiz-adv-x="1036" 
d="M951 233c-6.66699 -5.33301 -14.999 -11.1689 -24.999 -17.502l-31 -19c-10.667 -6.33301 -21.334 -12.166 -32.001 -17.499s-20 -9.33301 -28 -12l-32 33v291h-695l-33 32c2 6.66699 4.83301 15 8.5 25s7.83398 20.167 12.501 30.5l13.5 30
c4.33301 9.66699 8.16602 17.834 11.499 24.501h794l36 -29v-371z" />
    <glyph glyph-name="uni00AD" unicode="&#xad;" horiz-adv-x="728" 
d="M675 554c-2 -7.33301 -5 -16.333 -9 -27s-8.33301 -21.5 -13 -32.5l-13.5 -31.5c-4.33301 -10 -7.83301 -17.667 -10.5 -23h-544l-32 32c2 7.33301 4.83301 16.166 8.5 26.499s7.83398 20.833 12.501 31.5l13.5 30.5c4.33301 9.66699 8.16602 17.834 11.499 24.501h543z
" />
    <glyph glyph-name="registered" unicode="&#xae;" horiz-adv-x="730" 
d="M711 1084c0 -49.333 -8.66699 -96 -26 -140s-41.5 -82.333 -72.5 -115s-67.667 -58.5 -110 -77.5s-88.5 -28.5 -138.5 -28.5c-49.333 0 -95 9.5 -137 28.5s-78.333 44.833 -109 77.5s-54.667 71 -72 115s-26 90.667 -26 140c0 50 8.66699 96.833 26 140.5
s41.333 81.834 72 114.501s67 58.5 109 77.5s87.667 28.5 137 28.5c50 0 96.167 -9.5 138.5 -28.5s79 -44.833 110 -77.5s55.167 -70.834 72.5 -114.501s26 -90.5 26 -140.5zM637 1084c0 39.333 -6.83301 76.5 -20.5 111.5s-32.5 65.5 -56.5 91.5s-52.667 46.5 -86 61.5
s-70 22.5 -110 22.5c-39.333 0 -75.5 -7.5 -108.5 -22.5s-61.5 -35.5 -85.5 -61.5s-42.833 -56.5 -56.5 -91.5s-20.5 -72.167 -20.5 -111.5c0 -40 6.83301 -77.333 20.5 -112s32.5 -65 56.5 -91s52.5 -46.5 85.5 -61.5s69.167 -22.5 108.5 -22.5c40 0 76.667 7.5 110 22.5
s62 35.5 86 61.5s42.833 56.333 56.5 91s20.5 72 20.5 112zM207 884v22.998c26.667 6 40 12 40 18v324c-6.66699 -1.33301 -13.167 -2.33301 -19.5 -3l-18.5 -2l-4 34c19.333 4.66699 41.666 8.33398 66.999 11.001s52 4 80 4c28.667 0 53.334 -2.5 74.001 -7.5
s37.5 -11.833 50.5 -20.5s22.5 -19 28.5 -31s9 -24.667 9 -38c0 -62 -32.667 -102.333 -98 -121l94 -136c4.66699 -7.33301 10 -12.166 16 -14.499s16.333 -2.83301 31 -1.5l3 -23c-6.66699 -2 -14.5 -4.16699 -23.5 -6.5s-17.833 -4.5 -26.5 -6.5s-16.667 -3.66699 -24 -5
s-13 -2 -17 -2c-6 0 -11.5 1.5 -16.5 4.5s-8.83301 6.5 -11.5 10.5l-89 172h-8c-4 0 -8 0.166992 -12 0.5s-8.33301 0.833008 -13 1.5v-144c0 -2.66699 2.33301 -5.5 7 -8.5s14.667 -6.16699 30 -9.5v-23h-149zM341 1256l-10.999 0.00195312c-4 0 -7.66699 -0.333008 -11 -1
v-145c3.33301 -0.666992 6.66602 -1 9.99902 -1h11c34 0 57.833 6.66699 71.5 20s20.5 32.666 20.5 57.999c0 19.333 -7.5 35.666 -22.5 48.999s-37.833 20 -68.5 20z" />
    <glyph glyph-name="macron" unicode="&#xaf;" horiz-adv-x="1010" 
d="M931 1307c-2 -7.33301 -5.49902 -17.1689 -10.499 -29.502s-10.5 -25.166 -16.5 -38.499l-17 -37.5l-12 -26.5h-764l-32 32c2 7.33301 5.33301 17 10 29s10 24.5 16 37.5l17 37c5.33301 11.667 9.66602 20.834 12.999 27.501h764z" />
    <glyph glyph-name="degree" unicode="&#xb0;" horiz-adv-x="733" 
d="M467 995c0 16.667 -2.16699 32.5029 -6.5 47.5029s-10.333 28.333 -18 40s-17 20.834 -28 27.501s-23.5 10 -37.5 10s-27.667 -2.83301 -41 -8.5s-25.166 -13.834 -35.499 -24.501s-18.5 -23.5 -24.5 -38.5s-9 -31.833 -9 -50.5c0 -16 2 -31.5 6 -46.5s10 -28.333 18 -40
s17.5 -21 28.5 -28s23.5 -10.5 37.5 -10.5s27.5 2.66699 40.5 8s24.667 13.166 35 23.499s18.666 23.166 24.999 38.499s9.5 32.666 9.5 51.999zM619 1050c0 -45.333 -8.83203 -87.501 -26.499 -126.501s-40.667 -72.667 -69 -101s-60 -50.5 -95 -66.5s-69.5 -24 -103.5 -24
c-30.667 0 -58.834 5.66699 -84.501 17s-47.834 26.5 -66.501 45.5s-33.167 41.333 -43.5 67s-15.5 52.834 -15.5 81.501c0 46 8.66699 88.5 26 127.5s40 72.667 68 101s59.5 50.5 94.5 66.5s70.167 24 105.5 24c28.667 0 55.834 -5.66699 81.501 -17s48 -26.666 67 -45.999
s34 -41.833 45 -67.5s16.5 -52.834 16.5 -81.501z" />
    <glyph glyph-name="plusminus" unicode="&#xb1;" horiz-adv-x="840" 
d="M506 355c-6.66699 -3.33301 -14.832 -7.00195 -24.499 -11.002s-19.834 -7.83301 -30.501 -11.5s-21.167 -7 -31.5 -10s-19.166 -5.16699 -26.499 -6.5l-32 30v275h-276l-32 31c2 7.33301 4.83301 16 8.5 26s7.83398 20.333 12.501 31l13.5 30.5
c4.33301 9.66699 8.16602 17.834 11.499 24.501h262v268l24 8l31 10.5l31.5 10.5c10.333 3.33301 19.166 6 26.499 8l32 -31v-274h271l33 -31c-2 -7.33301 -5 -16.166 -9 -26.499l-13 -32l-13.5 -31c-4.33301 -9.66699 -7.83301 -17.167 -10.5 -22.5h-258v-266z
M810.002 223.998c-2 -7.33301 -5 -16.334 -9 -27.001s-8.33301 -21.5 -13 -32.5l-13.5 -31c-4.33301 -9.66699 -7.83301 -17.167 -10.5 -22.5h-679l-32 32c2 6.66699 4.83301 15.167 8.5 25.5s7.83398 20.833 12.501 31.5l13.5 30.5
c4.33301 9.66699 8.16602 17.834 11.499 24.501h678z" />
    <glyph glyph-name="twosuperior" unicode="&#xb2;" horiz-adv-x="711" 
d="M641 620l-564.997 -0.000976562l-20 44l199 207c50.667 55.333 90.167 101.833 118.5 139.5s47.333 69 57 94s14.5 48.167 14.5 69.5c0 34 -6.83301 60.5 -20.5 79.5s-37.5 28.5 -71.5 28.5c-33.333 0 -56.666 -11 -69.999 -33s-17 -48 -11 -78c-8 -4 -19.5 -8 -34.5 -12
s-31 -7.66699 -48 -11l-50.5 -9.5c-16.667 -3 -30.334 -4.83301 -41.001 -5.5l-24 41c0 20.667 8.66699 42 26 64s41 42.167 71 60.5s64.833 33.333 104.5 45s81.5 17.5 125.5 17.5c36.667 0 69.667 -3.16699 99 -9.5s54.5 -16 75.5 -29s37.167 -29 48.5 -48
s17 -40.833 17 -65.5c0 -18 -2.33301 -35.667 -7 -53s-12.334 -35.666 -23.001 -54.999s-25.167 -40.5 -43.5 -63.5s-41.333 -49 -69 -78l-98 -98.5l-131.5 -126h252c15.333 0 27.666 6 36.999 18s16.666 25.333 21.999 40c6 17.333 10 37 12 59l59 -12z" />
    <glyph glyph-name="threesuperior" unicode="&#xb3;" horiz-adv-x="711" 
d="M643 849c0 -34 -7.83398 -65.8359 -23.501 -95.5029s-37.5 -55.834 -65.5 -78.501s-61.667 -40.5 -101 -53.5s-82.666 -19.5 -129.999 -19.5c-18.667 0 -39.5 2 -62.5 6s-46.5 10.167 -70.5 18.5s-48 18.833 -72 31.5s-46.333 27.667 -67 45l28 74
c42.667 -27.333 81.5 -47.166 116.5 -59.499s70.167 -18.5 105.5 -18.5c42 0 76.167 12 102.5 36s39.5 58 39.5 102c0 26.667 -4.16699 48.834 -12.5 66.501s-19 31.5 -32 41.5s-27.5 17 -43.5 21s-31.667 6 -47 6h-16c-4 0 -8 -0.166992 -12 -0.5
s-8.16699 -0.833008 -12.5 -1.5s-10.166 -1.33398 -17.499 -2.00098l-12 64c39.333 8.66699 70.166 19.334 92.499 32.001s38.833 25.834 49.5 39.501s17.167 27.5 19.5 41.5s3.5 27 3.5 39c0 27.333 -6 50.5 -18 69.5s-32.333 28.5 -61 28.5
c-12 0 -23.167 -2.33301 -33.5 -7s-18.833 -11.167 -25.5 -19.5s-11.167 -18.333 -13.5 -30s-1.16602 -24.167 3.50098 -37.5c-10 -5.33301 -21.5 -10.166 -34.5 -14.499s-26.667 -8.5 -41 -12.5s-28.833 -7.33301 -43.5 -10s-28.334 -4.33398 -41.001 -5.00098l-24 37
c0 16.667 7.16699 35.334 21.5 56.001s34.5 40 60.5 58s56.833 33.167 92.5 45.5s75.167 18.5 118.5 18.5c42.667 0 79.167 -4.83301 109.5 -14.5s55 -22.334 74 -38.001s32.833 -33.5 41.5 -53.5s13 -40 13 -60c0 -15.333 -3.16699 -30.833 -9.5 -46.5
s-15.5 -30.667 -27.5 -45s-26.833 -27.166 -44.5 -38.499s-37.5 -20 -59.5 -26c28.667 -2.66699 54.334 -9.5 77.001 -20.5s41.667 -25 57 -42s27.166 -36.5 35.499 -58.5s12.5 -45 12.5 -69z" />
    <glyph glyph-name="acute" unicode="&#xb4;" horiz-adv-x="653" 
d="M289 1040c-6 0.666992 -13.168 2.83496 -21.501 6.50195s-16.833 7.66699 -25.5 12s-16.5 8.66602 -23.5 12.999s-12.5 8.16602 -16.5 11.499l212 429c8 -0.666992 22.833 -2.66699 44.5 -6l69.5 -11c24.667 -4 47.834 -8 69.501 -12s36.167 -7 43.5 -9l31 -54z" />
    <glyph glyph-name="mu" unicode="&#xb5;" horiz-adv-x="1165" 
d="M1160 97c-19.333 -14 -41.8311 -28.666 -67.498 -43.999s-51.5 -29.166 -77.5 -41.499s-51.167 -22.5 -75.5 -30.5s-44.833 -12 -61.5 -12c-17.333 0 -32.833 5 -46.5 15s-25.334 23.5 -35.001 40.5s-17.5 37.167 -23.5 60.5s-10.333 48 -13 74
c-50 -67.333 -95.833 -115.833 -137.5 -145.5s-83.167 -44.5 -124.5 -44.5c-29.333 0 -62 12.333 -98 37s-70.667 58 -104 100v-20c0 -61.333 5 -117 15 -167s23 -95.167 39 -135.5s34 -75.666 54 -105.999s40 -55.833 60 -76.5c-10 -3.33301 -27 -9.66602 -51 -18.999
l-76.5 -30.5l-75.5 -31c-23.333 -9.66699 -39 -16.5 -47 -20.5l-46 36v1158c0 26 -0.5 46.667 -1.5 62s-5.16699 27.5 -12.5 36.5s-19.333 15.667 -36 20s-40.667 8.16602 -72 11.499v70c60 5.33301 115.167 13.166 165.5 23.499s100.5 24.5 150.5 42.5l6 -6l13.5 -14
l15 -16.5c5 -5.66699 8.83301 -10.167 11.5 -13.5v-529c0 -29.333 5 -57 15 -83s22.667 -48.5 38 -67.5s32 -34 50 -45s34.667 -16.5 50 -16.5c12.667 0 25.667 1.5 39 4.5s27.666 9.33301 42.999 19s32.5 23.5 51.5 41.5s40.167 42 63.5 72v442
c0 10.667 -1.16699 23.5 -3.5 38.5s-5.33301 29.833 -9 44.5s-7.66699 28.334 -12 41.001s-8.83301 22 -13.5 28l60.5 11.5c22.333 4.33301 45 9.16602 68 14.499l68 16.5c22.333 5.66699 42.833 11.5 61.5 17.5l36 -46c-1.33301 -8.66699 -2.83301 -17.667 -4.5 -27
s-3.16699 -20 -4.5 -32s-2.66602 -25.833 -3.99902 -41.5s-2.33301 -33.834 -3 -54.501v-461c0 -31.333 0.666992 -56.833 2 -76.5s3.66602 -35.334 6.99902 -47.001s7.33301 -19.667 12 -24s10.667 -6.5 18 -6.5c14.667 0 29.167 2 43.5 6s32.5 11.333 54.5 22z" />
    <glyph glyph-name="paragraph" unicode="&#xb6;" horiz-adv-x="1241" 
d="M867 1143c-25.333 6 -52.001 11 -80.001 15v-1273c0 -7.33301 4.83301 -13.833 14.5 -19.5s17.834 -9.5 24.501 -11.5c8 2 16.833 5.83301 26.5 11.5s14.5 12.167 14.5 19.5v1258zM621.999 633l0.999023 541c-13.333 0.666992 -25.666 1.16699 -36.999 1.5
s-21 0.5 -29 0.5c-32 0 -63.5 -5.33301 -94.5 -16s-58.667 -26.334 -83 -47.001s-44 -45.667 -59 -75s-22.5 -62.666 -22.5 -99.999c0 -36 5.33301 -72.167 16 -108.5s27.334 -69 50.001 -98s51.667 -52.667 87 -71s77.666 -27.5 126.999 -27.5h44zM481.998 -250
l-0.00292969 73.001c46 9.33301 80.667 19.666 104 30.999s35 21.666 35 30.999l1 640c-12 -2 -25 -3.5 -39 -4.5s-30 -1.5 -48 -1.5c-71.333 0 -137.5 8.33301 -198.5 25s-113.833 41.167 -158.5 73.5s-79.667 72.333 -105 120s-38 102.834 -38 165.501
c0 56.667 11.833 108.667 35.5 156s57.334 88.166 101.001 122.499s96.5 61 158.5 80s131.667 28.5 209 28.5c14.667 0 33.834 -0.5 57.501 -1.5l79.5 -3.5c29.333 -1.33301 60.166 -2.83301 92.499 -4.5s64.5 -3.5 96.5 -5.5l239 -15h64v-73
c-45.333 -9.33301 -79.666 -19.666 -102.999 -30.999s-35 -21.666 -35 -30.999v-1240c0 -8.66699 10.833 -18.834 32.5 -30.501s56.834 -22.167 105.501 -31.5v-73h-686z" />
    <glyph glyph-name="periodcentered" unicode="&#xb7;" horiz-adv-x="419" 
d="M369 708c0 -26 -4.66504 -49.1611 -13.998 -69.4941s-22 -37.5 -38 -51.5s-34.833 -24.667 -56.5 -32s-44.5 -11 -68.5 -11c-19.333 0 -37.5 2.5 -54.5 7.5s-31.833 12.667 -44.5 23s-22.834 23.666 -30.501 39.999s-11.5 36.166 -11.5 59.499
c0 25.333 4.83301 48.166 14.5 68.499s22.667 37.666 39 51.999s35.166 25.333 56.499 33s44 11.5 68 11.5c18 0 35.333 -2.5 52 -7.5s31.5 -12.833 44.5 -23.5s23.5 -24.334 31.5 -41.001s12 -36.334 12 -59.001z" />
    <glyph glyph-name="cedilla" unicode="&#xb8;" horiz-adv-x="469" 
d="M454 -229c0 -24.667 -9.00098 -48.6709 -27.001 -72.0039s-43 -44.666 -75 -63.999s-70.167 -36 -114.5 -50s-92.5 -23.667 -144.5 -29l-37 71c58 8.66699 99.5 22.834 124.5 42.501s37.5 40.167 37.5 61.5c0 22.667 -7.66699 38.834 -23 48.501s-38 15.834 -68 18.501
l3 4c2.66699 2.66699 6.83398 11 12.501 25s13.667 35.5 24 64.5s23.833 69.833 40.5 122.5l123 -2l-39 -101c52 -9.33301 92.167 -25.5 120.5 -48.5s42.5 -53.5 42.5 -91.5z" />
    <glyph glyph-name="onesuperior" unicode="&#xb9;" horiz-adv-x="711" 
d="M109 620l-0.00292969 59.999c36.667 4 66.5 8.16699 89.5 12.5s41.167 8.83301 54.5 13.5s22.5 9.5 27.5 14.5s7.5 9.5 7.5 13.5v422c0 16 -0.666992 28.5 -2 37.5s-5 16.167 -11 21.5c-2.66699 2.66699 -7.16699 4.66699 -13.5 6s-15.833 1.83301 -28.5 1.5
s-29.167 -1.66602 -49.5 -3.99902s-45.833 -6.5 -76.5 -12.5l-20 59c20 4 46.667 10.333 80 19l103.5 28c35.667 10 69.334 20 101.001 30s55.834 18.333 72.501 25l32 -25v-608c0 -4 2 -8.33301 6 -13s11.833 -9.5 23.5 -14.5s28.334 -9.66699 50.001 -14
s50.167 -8.5 85.5 -12.5v-60h-532z" />
    <glyph glyph-name="ordmasculine" unicode="&#xba;" horiz-adv-x="575" 
d="M404 979c0 28 -2.66602 55.001 -7.99902 81.001s-13.333 49.167 -24 69.5s-23.667 36.5 -39 48.5s-33 18 -53 18s-36.833 -4.66699 -50.5 -14s-24.834 -22.333 -33.501 -39s-15 -36.834 -19 -60.501s-6 -49.5 -6 -77.5s3.33301 -55 10 -81s15.667 -48.667 27 -68
s24.5 -34.833 39.5 -46.5s30.833 -17.5 47.5 -17.5c40 0 68.167 17 84.5 51s24.5 79.333 24.5 136zM45.001 586.001v88h485v-88h-485zM540.001 1003c0 -34 -7.16602 -67.666 -21.499 -100.999s-33.666 -63 -57.999 -89s-52.5 -47 -84.5 -63s-65.333 -24 -100 -24
c-37.333 0 -70.833 6.5 -100.5 19.5s-54.834 31 -75.501 54s-36.667 50 -48 81s-17 64.833 -17 101.5c0 34.667 6.5 68.834 19.5 102.501s31 63.667 54 90s50.667 47.666 83 63.999s68.166 24.5 107.499 24.5c36 0 68.833 -6.66699 98.5 -20s55 -31.833 76 -55.5
s37.333 -51.334 49 -83.001s17.5 -65.5 17.5 -101.5z" />
    <glyph glyph-name="guillemotright" unicode="&#xbb;" horiz-adv-x="1054" 
d="M988 428l-397 -426l-58 45l201 417l-201 419l58 45l398 -427zM580 428l-397 -426l-57 45l200 417l-201 419l58 45l398 -427z" />
    <glyph glyph-name="onequarter" unicode="&#xbc;" horiz-adv-x="1275" 
d="M309 3c-8 -4 -17.5 -7.5 -28.5 -10.5s-22.667 -5.83301 -35 -8.5s-24.5 -5.16699 -36.5 -7.5s-22.333 -4.5 -31 -6.5l-25 30l890 1203c6.66699 2.66699 15.5 5.5 26.5 8.5s22.667 6 35 9l36 8.5c11.667 2.66699 21.167 4.66699 28.5 6l25 -28zM1218 215
c-8 -10.667 -17.332 -21.1699 -27.999 -31.5029s-20.334 -18.166 -29.001 -23.499h-30v-94c0 -4.66699 5 -9.16699 15 -13.5s30.667 -9.5 62 -15.5v-37h-329v37c24.667 3.33301 44.667 6.5 60 9.5s27.333 5.83301 36 8.5s14.5 5.33398 17.5 8.00098s4.5 5.33398 4.5 8.00098
v89h-269l-24 19l274 381l30 9l35 10l34.5 10c11 3.33301 20.5 6.33301 28.5 9l25 -21v-347h72zM88.001 636.997l0.000976562 41.999c30 2.66699 54.667 5.83398 74 9.50098s34.666 7.33398 45.999 11.001s19.333 7.5 24 11.5s7 7.66699 7 11v350
c0 12.667 -0.333008 22.5 -1 29.5s-3.66699 12.833 -9 17.5c-2 2 -5.83301 3.66699 -11.5 5s-14 1.83301 -25 1.5s-25.167 -1.5 -42.5 -3.5s-38.333 -5.33301 -63 -10l-16 41c16 2.66699 37.167 7.5 63.5 14.5s53.5 14.667 81.5 23l80 24.5c25.333 8 45 14.667 59 20l25 -21
v-492c0 -3.33301 2 -6.83301 6 -10.5s11.167 -7.5 21.5 -11.5s24.5 -7.83301 42.5 -11.5s41.333 -6.83398 70 -9.50098v-42h-432zM997.002 468.996l-180 -239h180v239z" />
    <glyph glyph-name="onehalf" unicode="&#xbd;" horiz-adv-x="1275" 
d="M88 637l0.000976562 41.999c30 2.66699 54.667 5.83398 74 9.50098s34.666 7.33398 45.999 11.001s19.333 7.5 24 11.5s7 7.66699 7 11v350c0 12.667 -0.333008 22.5 -1 29.5s-3.66699 12.833 -9 17.5c-2 2 -5.83301 3.66699 -11.5 5s-14 1.83301 -25 1.5
s-25.167 -1.5 -42.5 -3.5s-38.333 -5.33301 -63 -10l-16 41c16 2.66699 37.167 7.5 63.5 14.5s53.5 14.667 81.5 23l80 24.5c25.333 8 45 14.667 59 20l25 -21v-492c0 -3.33301 2 -6.83301 6 -10.5s11.167 -7.5 21.5 -11.5s24.5 -7.83301 42.5 -11.5
s41.333 -6.83398 70 -9.50098v-42h-432zM309.001 2.99902c-8 -4 -17.5 -7.5 -28.5 -10.5s-22.667 -5.83301 -35 -8.5s-24.5 -5.16699 -36.5 -7.5s-22.333 -4.5 -31 -6.5l-25 30l890 1203c6.66699 2.66699 15.5 5.5 26.5 8.5s22.667 6 35 9l36 8.5
c11.667 2.66699 21.167 4.66699 28.5 6l25 -28zM1198 -0.000976562l-456.998 -0.000976562l-17 36l163.5 165c42.333 44 75.666 81.167 99.999 111.5s41.166 55.5 50.499 75.5s14 38.667 14 56c0 27.333 -6.5 49.333 -19.5 66s-35.167 25 -66.5 25
c-15.333 0 -28.5 -2.66699 -39.5 -8s-19.667 -12.333 -26 -21s-10.666 -18.667 -12.999 -30s-2.16602 -23 0.500977 -35c-6.66699 -3.33301 -15.5 -6.5 -26.5 -9.5s-22.667 -6 -35 -9s-24.5 -5.5 -36.5 -7.5s-22.333 -3.33301 -31 -4l-19 32c0 16.667 7 33.834 21 51.501
s33 33.834 57 48.501s52 26.667 84 36s66 14 102 14c60 0 107.333 -10.167 142 -30.5s52 -50.833 52 -91.5c0 -21.333 -5.33301 -42.833 -16 -64.5s-28.334 -46.834 -53.001 -75.501s-57.334 -62.5 -98.001 -101.5l-152 -143.5h222c13.333 0 23.833 4.83301 31.5 14.5
s13.5 20.5 17.5 32.5c4.66699 13.333 8 29 10 47l47 -10z" />
    <glyph glyph-name="threequarters" unicode="&#xbe;" horiz-adv-x="1275" 
d="M309 3c-8 -4 -17.5 -7.5 -28.5 -10.5s-22.667 -5.83301 -35 -8.5s-24.5 -5.16699 -36.5 -7.5s-22.333 -4.5 -31 -6.5l-25 30l890 1203c6.66699 2.66699 15.5 5.5 26.5 8.5s22.667 6 35 9l36 8.5c11.667 2.66699 21.167 4.66699 28.5 6l25 -28zM1218 215
c-8 -10.667 -17.332 -21.1699 -27.999 -31.5029s-20.334 -18.166 -29.001 -23.499h-30v-94c0 -4.66699 5 -9.16699 15 -13.5s30.667 -9.5 62 -15.5v-37h-329v37c24.667 3.33301 44.667 6.5 60 9.5s27.333 5.83301 36 8.5s14.5 5.33398 17.5 8.00098s4.5 5.33398 4.5 8.00098
v89h-269l-24 19l274 381l30 9l35 10l34.5 10c11 3.33301 20.5 6.33301 28.5 9l25 -21v-347h72zM534.001 820.997c0 -27.333 -6.33008 -52.8301 -18.9971 -76.4971s-30.334 -44.5 -53.001 -62.5s-50 -32.167 -82 -42.5s-67 -15.5 -105 -15.5c-15.333 0 -32.333 1.66699 -51 5
s-37.834 8.33301 -57.501 15s-39.167 15 -58.5 25s-37.666 22 -54.999 36l24 46c34.667 -21.333 66.334 -36.333 95.001 -45s57 -13 85 -13c17.333 0 33.666 2.16699 48.999 6.5s28.833 11.166 40.5 20.499s20.834 21.333 27.501 36s10 32.334 10 53.001
c0 22 -4 40.5 -12 55.5s-18.167 27 -30.5 36s-25.666 15.5 -39.999 19.5s-27.5 6 -39.5 6h-13c-3.33301 0 -6.5 -0.166992 -9.5 -0.5s-6.33301 -0.833008 -10 -1.5s-8.5 -1.33398 -14.5 -2.00098l-9 45c32 7.33301 57.667 16 77 26s34 20.5 44 31.5s16.667 22 20 33
s5 21.5 5 31.5c0 22 -5.66699 41.5 -17 58.5s-31.333 25.5 -60 25.5c-9.33301 0 -18.166 -1.83301 -26.499 -5.5s-15.333 -8.83398 -21 -15.501s-9.33398 -14.667 -11.001 -24s-0.833984 -19.333 2.49902 -30c-15.333 -7.33301 -35.5 -14.333 -60.5 -21
s-48.167 -10.667 -69.5 -12l-19 30c0 13.333 5.83301 27.833 17.5 43.5s28 30.334 49 44.001s46 25.167 75 34.5s61.167 14 96.5 14c34.667 0 64.167 -3.83301 88.5 -11.5s44.333 -17.834 60 -30.501s27 -27 34 -43s10.5 -32 10.5 -48c0 -12 -2.83301 -24.333 -8.5 -37
s-13.834 -24.667 -24.501 -36s-23.334 -21.666 -38.001 -30.999s-31 -16.333 -49 -21c23.333 -2 44.333 -7.33301 63 -16s34.667 -19.834 48 -33.501s23.666 -29.334 30.999 -47.001s11 -36.167 11 -55.5zM997.004 469l-180 -239h180v239z" />
    <glyph glyph-name="questiondown" unicode="&#xbf;" horiz-adv-x="932" 
d="M432 508c12 9.33301 26.667 17.1709 44 23.5039s35.333 12.166 54 17.499l32 -28l8 -109c2 -38 -2.5 -75.167 -13.5 -111.5s-25.333 -71.833 -43 -106.5s-37.334 -68.834 -59.001 -102.501s-41.667 -66.834 -60 -99.501s-33.833 -65 -46.5 -97s-19 -63.667 -19 -95
c0 -82.667 13.333 -143.667 40 -183s63 -59 109 -59c16.667 0 32.667 4.33301 48 13s29 20.667 41 36s21.5 33.833 28.5 55.5s10.5 45.5 10.5 71.5c0 9.33301 -1.33301 20.166 -4 32.499s-5.66699 23.166 -9 32.499c10.667 6 26.334 12.167 47.001 18.5s42.667 12.5 66 18.5
s46.333 11.167 69 15.5s41.334 7.16602 56.001 8.49902l34 -38c1.33301 -5.33301 2 -13.333 2 -24v-24c0 -47.333 -12.5 -91.333 -37.5 -132s-58.5 -76 -100.5 -106s-90.833 -53.5 -146.5 -70.5s-113.834 -25.5 -174.501 -25.5c-55.333 0 -104.333 7.66699 -147 23
s-78.5 36.833 -107.5 64.5s-51 60.834 -66 99.501s-22.5 81.334 -22.5 128.001c0 50 8.5 95.5 25.5 136.5s38.5 79.333 64.5 115s54.167 69.5 84.5 101.5s58.833 64 85.5 96s49.5 64.833 68.5 98.5s29.833 70.167 32.5 109.5zM652 826.005
c0 -26 -5.00195 -49.668 -15.002 -71.001s-23.5 -39.5 -40.5 -54.5s-36.5 -26.5 -58.5 -34.5s-45.333 -12 -70 -12c-18.667 0 -36.667 2.66699 -54 8s-32.666 13.5 -45.999 24.5s-24 25 -32 42s-12 37.5 -12 61.5c0 26.667 4.83301 50.5 14.5 71.5
s22.834 38.833 39.501 53.5s36 25.834 58 33.501s45.667 11.5 71 11.5c19.333 0 37.833 -2.5 55.5 -7.5s33.167 -13 46.5 -24s23.833 -25 31.5 -42s11.5 -37.167 11.5 -60.5z" />
    <glyph glyph-name="Agrave" unicode="&#xc0;" horiz-adv-x="1287" 
d="M747 550l-165 465l-150 -465h315zM392 430l-95.9941 -289.001c-6.66699 -20.667 1.5 -35.667 24.5 -45s61.833 -17 116.5 -23v-73h-437v73c45.333 8 80.166 16.333 104.499 25s39.833 23 46.5 43l349 1066c16 13.333 33.167 25.666 51.5 36.999s37.333 21.5 57 30.5
s39.167 17 58.5 24s37.666 13.167 54.999 18.5l420 -1176c3.33301 -9.33301 7.66602 -17.666 12.999 -24.999s12.666 -13.666 21.999 -18.999s21.166 -10 35.499 -14s32.166 -7.33301 53.499 -10v-73h-497v73c52 3.33301 87.167 10 105.5 20s23.833 26 16.5 48l-102 289
h-397zM825.006 1420c-9.33301 -12.667 -18.833 -24.5 -28.5 -35.5s-20.167 -19.167 -31.5 -24.5l-479 234l10 63c4.66699 5.33301 14.5 13.333 29.5 24s31.333 21.667 49 33l50.5 32c16 10 27.667 17 35 21z" />
    <glyph glyph-name="Aacute" unicode="&#xc1;" horiz-adv-x="1287" 
d="M747 550l-165 465l-150 -465h315zM392 430l-95.9941 -289.001c-6.66699 -20.667 1.5 -35.667 24.5 -45s61.833 -17 116.5 -23v-73h-437v73c45.333 8 80.166 16.333 104.499 25s39.833 23 46.5 43l349 1066c16 13.333 33.167 25.666 51.5 36.999s37.333 21.5 57 30.5
s39.167 17 58.5 24s37.666 13.167 54.999 18.5l420 -1176c3.33301 -9.33301 7.66602 -17.666 12.999 -24.999s12.666 -13.666 21.999 -18.999s21.166 -10 35.499 -14s32.166 -7.33301 53.499 -10v-73h-497v73c52 3.33301 87.167 10 105.5 20s23.833 26 16.5 48l-102 289
h-397zM501.006 1360c-11.333 5.33301 -23.167 14.665 -35.5 27.998s-23.166 26.333 -32.499 39l365 340c15.333 -8 32.333 -17.5 51 -28.5l53.5 -32c17 -10.333 32.167 -20.166 45.5 -29.499s22.666 -16.666 27.999 -21.999l9 -52z" />
    <glyph glyph-name="Acircumflex" unicode="&#xc2;" horiz-adv-x="1287" 
d="M747 550l-165 465l-150 -465h315zM392 430l-95.9941 -289.001c-6.66699 -20.667 1.5 -35.667 24.5 -45s61.833 -17 116.5 -23v-73h-437v73c45.333 8 80.166 16.333 104.499 25s39.833 23 46.5 43l349 1066c16 13.333 33.167 25.666 51.5 36.999s37.333 21.5 57 30.5
s39.167 17 58.5 24s37.666 13.167 54.999 18.5l420 -1176c3.33301 -9.33301 7.66602 -17.666 12.999 -24.999s12.666 -13.666 21.999 -18.999s21.166 -10 35.499 -14s32.166 -7.33301 53.499 -10v-73h-497v73c52 3.33301 87.167 10 105.5 20s23.833 26 16.5 48l-102 289
h-397zM971.006 1420c-8 -12.667 -16.833 -24.5 -26.5 -35.5s-20.167 -19.167 -31.5 -24.5l-281 163l-279 -163c-11.333 5.33301 -21.833 13.5 -31.5 24.5s-19.167 22.833 -28.5 35.5l279 324h122z" />
    <glyph glyph-name="Atilde" unicode="&#xc3;" horiz-adv-x="1287" 
d="M747 550l-165 465l-150 -465h315zM392 430l-95.9941 -289.001c-6.66699 -20.667 1.5 -35.667 24.5 -45s61.833 -17 116.5 -23v-73h-437v73c45.333 8 80.166 16.333 104.499 25s39.833 23 46.5 43l349 1066c16 13.333 33.167 25.666 51.5 36.999s37.333 21.5 57 30.5
s39.167 17 58.5 24s37.666 13.167 54.999 18.5l420 -1176c3.33301 -9.33301 7.66602 -17.666 12.999 -24.999s12.666 -13.666 21.999 -18.999s21.166 -10 35.499 -14s32.166 -7.33301 53.499 -10v-73h-497v73c52 3.33301 87.167 10 105.5 20s23.833 26 16.5 48l-102 289
h-397zM1027.01 1657c-12 -27.333 -26.6699 -57.167 -44.0029 -89.5s-37 -62.5 -59 -90.5s-46.5 -51.5 -73.5 -70.5s-55.833 -28.5 -86.5 -28.5c-28.667 0 -56 5.5 -82 16.5s-51.333 23 -76 36s-49.167 25 -73.5 36s-49.166 16.5 -74.499 16.5c-15.333 0 -29 -2.5 -41 -7.5
s-23.5 -12.333 -34.5 -22s-22 -21.667 -33 -36s-22.5 -30.833 -34.5 -49.5l-75 28c12 27.333 26.5 57.333 43.5 90s36.5 63.167 58.5 91.5s46.333 52 73 71s55.334 28.5 86.001 28.5s59.834 -5.5 87.501 -16.5s54 -23 79 -36l71.5 -36c22.667 -11 44.667 -16.5 66 -16.5
c30 0 56 9.33301 78 28s44.333 47.667 67 87z" />
    <glyph glyph-name="Adieresis" unicode="&#xc4;" horiz-adv-x="1287" 
d="M747 550l-165 465l-150 -465h315zM392 430l-95.9941 -289.001c-6.66699 -20.667 1.5 -35.667 24.5 -45s61.833 -17 116.5 -23v-73h-437v73c45.333 8 80.166 16.333 104.499 25s39.833 23 46.5 43l349 1066c16 13.333 33.167 25.666 51.5 36.999s37.333 21.5 57 30.5
s39.167 17 58.5 24s37.666 13.167 54.999 18.5l420 -1176c3.33301 -9.33301 7.66602 -17.666 12.999 -24.999s12.666 -13.666 21.999 -18.999s21.166 -10 35.499 -14s32.166 -7.33301 53.499 -10v-73h-497v73c52 3.33301 87.167 10 105.5 20s23.833 26 16.5 48l-102 289
h-397zM982.006 1548c0 -24.667 -4.16895 -47.667 -12.502 -69s-19.666 -40 -33.999 -56s-31 -28.667 -50 -38s-39.167 -14 -60.5 -14c-38.667 0 -68 10.333 -88 31s-30 51 -30 91c0 24.667 4.33301 47.667 13 69s20.167 40 34.5 56s30.833 28.5 49.5 37.5
s38.334 13.5 59.001 13.5c37.333 0 66.5 -10 87.5 -30s31.5 -50.333 31.5 -91zM559.004 1548c0 -24.667 -4.16699 -47.667 -12.5 -69s-19.5 -40 -33.5 -56s-30.5 -28.667 -49.5 -38s-39.167 -14 -60.5 -14c-38.667 0 -68.167 10.333 -88.5 31s-30.5 51 -30.5 91
c0 24.667 4.33301 47.667 13 69s20.167 40 34.5 56s31 28.5 50 37.5s38.5 13.5 58.5 13.5c38 0 67.333 -10 88 -30s31 -50.333 31 -91z" />
    <glyph glyph-name="Aring" unicode="&#xc5;" horiz-adv-x="1287" 
d="M747 550l-165 465l-150 -465h315zM392 430l-95.9941 -289.001c-6.66699 -20.667 1.5 -35.667 24.5 -45s61.833 -17 116.5 -23v-73h-437v73c45.333 8 80.166 16.333 104.499 25s39.833 23 46.5 43l349 1066c16 13.333 33.167 25.666 51.5 36.999s37.333 21.5 57 30.5
s39.167 17 58.5 24s37.666 13.167 54.999 18.5l420 -1176c3.33301 -9.33301 7.66602 -17.666 12.999 -24.999s12.666 -13.666 21.999 -18.999s21.166 -10 35.499 -14s32.166 -7.33301 53.499 -10v-73h-497v73c52 3.33301 87.167 10 105.5 20s23.833 26 16.5 48l-102 289
h-397zM706.006 1563c0 32 -6.66797 56.501 -20.001 73.501s-27.666 25.5 -42.999 25.5c-14 0 -26.167 -2.83301 -36.5 -8.5s-19 -13 -26 -22s-12.333 -19.333 -16 -31s-5.5 -23.5 -5.5 -35.5c0 -30.667 6.83301 -54.334 20.5 -71.001s28.167 -25 43.5 -25
c26.667 0 47.167 9 61.5 27s21.5 40.333 21.5 67zM841.005 1604c0 -35.333 -6.66504 -68.667 -19.998 -100s-31.166 -58.5 -53.499 -81.5s-47.833 -41.167 -76.5 -54.5s-58.334 -20 -89.001 -20c-26 0 -50 4.16699 -72 12.5s-40.833 20.166 -56.5 35.499
s-27.834 33.833 -36.501 55.5s-13 45.834 -13 72.501c0 36 6.66699 69.667 20 101s31 58.833 53 82.5s47.5 42.167 76.5 55.5s59.167 20 90.5 20c26.667 0 51 -4.5 73 -13.5s40.667 -21.333 56 -37s27.166 -34.5 35.499 -56.5s12.5 -46 12.5 -72z" />
    <glyph glyph-name="AE" unicode="&#xc6;" horiz-adv-x="1655" 
d="M759 1118c0 7.33301 -2.33203 12.667 -6.99902 16s-10.334 4.5 -17.001 3.5s-13.667 -4.5 -21 -10.5s-13.333 -14.667 -18 -26l-149 -366h212v383zM1609 304.001l-10.4951 -90.498c-3.66699 -31.667 -7.33398 -61.667 -11.001 -90s-7.16699 -53.5 -10.5 -75.5
s-6.33301 -38 -9 -48h-944v73c45.333 9.33301 79.166 19.5 101.499 30.5s33.5 21.167 33.5 30.5v490h-255l-196 -483c-8.66699 -19.333 -5.16699 -34 10.5 -44s48.167 -18 97.5 -24v-73h-416v73c41.333 6 73.666 14 96.999 24s39.333 24.667 48 44l389 962
c4.66699 11.333 5.5 20.833 2.5 28.5s-10.5 14.667 -22.5 21s-29 12.166 -51 17.499s-49.333 11 -82 17v73h1125l37 -32c-1.33301 -17.333 -3.16602 -39 -5.49902 -65s-5.33301 -52.667 -9 -80s-7.83398 -53.166 -12.501 -77.499s-9.33398 -42.833 -14.001 -55.5h-75
c-3.33301 62 -11.333 109.167 -24 141.5s-32 48.5 -58 48.5h-336v-405h398l34 -35l-20.5 -33c-7.66699 -12.667 -15.834 -25.334 -24.501 -38.001l-25 -35c-8 -10.667 -15.333 -19 -22 -25c-10 10 -21.667 18.333 -35 25s-26.333 12.334 -39 17.001s-23.667 8 -33 10
s-15 3 -17 3h-216v-440c0 -10 2.5 -18.833 7.5 -26.5s15 -14.334 30 -20.001s36 -10 63 -13s62.5 -4.5 106.5 -4.5h95c30.667 0 57 3.66699 79 11s41.5 19.166 58.5 35.499s32.333 37.833 46 64.5s27.5 59.667 41.5 99z" />
    <glyph glyph-name="Ccedilla" unicode="&#xc7;" horiz-adv-x="1143" 
d="M804 -229c0 -24.667 -8.99707 -48.6729 -26.9971 -72.0059s-43 -44.666 -75 -63.999s-70.167 -36 -114.5 -50s-92.5 -23.667 -144.5 -29l-37 71c58 8.66699 99.5 22.834 124.5 42.501s37.5 40.167 37.5 61.5c0 22.667 -7.66699 38.834 -23 48.501
s-37.666 15.834 -66.999 18.501l3 4c2 2.66699 5.83301 11 11.5 25s13.5 35.667 23.5 65l27 80c-52 4.66699 -103.333 18 -154 40c-63.333 28 -119.833 68.333 -169.5 121s-89.5 117.167 -119.5 193.5s-45 162.833 -45 259.5c0 106.667 16.333 203.334 49 290.001
s77.667 160.834 135 222.501s124.666 109.167 201.999 142.5s160.666 49.666 249.999 48.999c36 0 71.667 -2.66699 107 -8s69 -12.5 101 -21.5s61.167 -19.5 87.5 -31.5s48.166 -25 65.499 -39c2.66699 -2 2.5 -8 -0.5 -18s-7.5 -22 -13.5 -36s-13.167 -29.167 -21.5 -45.5
s-16.833 -32 -25.5 -47s-16.834 -28.5 -24.501 -40.5s-14.167 -20.667 -19.5 -26l-65 14c-34 58.667 -72.833 101.167 -116.5 127.5s-91.5 39.5 -143.5 39.5c-22.667 0 -46.167 -3.66699 -70.5 -11s-48.166 -19.333 -71.499 -36s-45.5 -38.5 -66.5 -65.5
s-39.333 -60.167 -55 -99.5s-28 -85.666 -37 -138.999s-13.5 -114.666 -13.5 -183.999c0 -85.333 11.167 -158.666 33.5 -219.999s51.333 -111.833 87 -151.5s75.667 -69 120 -88s88.5 -28.5 132.5 -28.5c18 0 39.167 2 63.5 6s51 11.5 80 22.5s59.833 25.667 92.5 44
s66.667 42.166 102 71.499c3.33301 -2.66699 7.66602 -7.33398 12.999 -14.001s10.5 -13.667 15.5 -21l14 -20.5c4.33301 -6.33301 7.5 -10.5 9.5 -12.5c-42.667 -43.333 -84.667 -80.333 -126 -111s-82.333 -55.667 -123 -75s-80.667 -33.333 -120 -42
c-12 -2.66699 -24 -4.66699 -36 -6l-25 -66c52 -9.33301 92.167 -25.5 120.5 -48.5s42.5 -53.5 42.5 -91.5z" />
    <glyph glyph-name="Egrave" unicode="&#xc8;" horiz-adv-x="1076" 
d="M1029 304c-2.66699 -28.667 -5.67383 -58.834 -9.00684 -90.501s-7 -61.667 -11 -90s-7.83301 -53.5 -11.5 -75.5s-6.83398 -38 -9.50098 -48h-945v73c45.333 9.33301 79.5 19.5 102.5 30.5s34.5 21.167 34.5 30.5v991c0 8 -10.833 18 -32.5 30s-56.5 22.667 -104.5 32
v73h881l40 -32c-1.33301 -17.333 -3.33301 -39 -6 -65s-6 -52.667 -10 -80s-8.16699 -53.166 -12.5 -77.499s-8.5 -42.833 -12.5 -55.5h-75c-3.33301 62 -11.666 109.167 -24.999 141.5s-32.333 48.5 -57 48.5h-336v-405h398l33 -35l-19.5 -32.5
c-7.66699 -12.333 -15.667 -24.5 -24 -36.5s-16.666 -23.167 -24.999 -33.5s-16.166 -18.166 -23.499 -23.499c-10 10 -20.833 18.333 -32.5 25s-25 12.334 -40 17.001s-32.667 8 -53 10s-44.5 3 -72.5 3h-141v-445c0 -10 2.33301 -18.833 7 -26.5
s14.334 -14.334 29.001 -20.001s35.334 -10 62.001 -13s62 -4.5 106 -4.5h99c30.667 0 56.834 3.66699 78.501 11s40.834 19.166 57.501 35.499s31.834 37.833 45.501 64.5s27.5 59.667 41.5 99zM727.993 1420c-9.33301 -12.667 -18.833 -24.5 -28.5 -35.5
s-20.167 -19.167 -31.5 -24.5l-479 234l10 63c4.66699 5.33301 14.5 13.333 29.5 24s31.333 21.667 49 33l50.5 32c16 10 27.667 17 35 21z" />
    <glyph glyph-name="Eacute" unicode="&#xc9;" horiz-adv-x="1076" 
d="M1029 304c-2.66699 -28.667 -5.67383 -58.834 -9.00684 -90.501s-7 -61.667 -11 -90s-7.83301 -53.5 -11.5 -75.5s-6.83398 -38 -9.50098 -48h-945v73c45.333 9.33301 79.5 19.5 102.5 30.5s34.5 21.167 34.5 30.5v991c0 8 -10.833 18 -32.5 30s-56.5 22.667 -104.5 32
v73h881l40 -32c-1.33301 -17.333 -3.33301 -39 -6 -65s-6 -52.667 -10 -80s-8.16699 -53.166 -12.5 -77.499s-8.5 -42.833 -12.5 -55.5h-75c-3.33301 62 -11.666 109.167 -24.999 141.5s-32.333 48.5 -57 48.5h-336v-405h398l33 -35l-19.5 -32.5
c-7.66699 -12.333 -15.667 -24.5 -24 -36.5s-16.666 -23.167 -24.999 -33.5s-16.166 -18.166 -23.499 -23.499c-10 10 -20.833 18.333 -32.5 25s-25 12.334 -40 17.001s-32.667 8 -53 10s-44.5 3 -72.5 3h-141v-445c0 -10 2.33301 -18.833 7 -26.5
s14.334 -14.334 29.001 -20.001s35.334 -10 62.001 -13s62 -4.5 106 -4.5h99c30.667 0 56.834 3.66699 78.501 11s40.834 19.166 57.501 35.499s31.834 37.833 45.501 64.5s27.5 59.667 41.5 99zM403.993 1360c-11.333 5.33301 -23.167 14.665 -35.5 27.998
s-23.166 26.333 -32.499 39l365 340c15.333 -8 32.333 -17.5 51 -28.5l53.5 -32c17 -10.333 32.167 -20.166 45.5 -29.499s22.666 -16.666 27.999 -21.999l9 -52z" />
    <glyph glyph-name="Ecircumflex" unicode="&#xca;" horiz-adv-x="1076" 
d="M1029 304c-2.66699 -28.667 -5.67383 -58.834 -9.00684 -90.501s-7 -61.667 -11 -90s-7.83301 -53.5 -11.5 -75.5s-6.83398 -38 -9.50098 -48h-945v73c45.333 9.33301 79.5 19.5 102.5 30.5s34.5 21.167 34.5 30.5v991c0 8 -10.833 18 -32.5 30s-56.5 22.667 -104.5 32
v73h881l40 -32c-1.33301 -17.333 -3.33301 -39 -6 -65s-6 -52.667 -10 -80s-8.16699 -53.166 -12.5 -77.499s-8.5 -42.833 -12.5 -55.5h-75c-3.33301 62 -11.666 109.167 -24.999 141.5s-32.333 48.5 -57 48.5h-336v-405h398l33 -35l-19.5 -32.5
c-7.66699 -12.333 -15.667 -24.5 -24 -36.5s-16.666 -23.167 -24.999 -33.5s-16.166 -18.166 -23.499 -23.499c-10 10 -20.833 18.333 -32.5 25s-25 12.334 -40 17.001s-32.667 8 -53 10s-44.5 3 -72.5 3h-141v-445c0 -10 2.33301 -18.833 7 -26.5
s14.334 -14.334 29.001 -20.001s35.334 -10 62.001 -13s62 -4.5 106 -4.5h99c30.667 0 56.834 3.66699 78.501 11s40.834 19.166 57.501 35.499s31.834 37.833 45.501 64.5s27.5 59.667 41.5 99zM873.993 1420c-8 -12.667 -16.833 -24.5 -26.5 -35.5
s-20.167 -19.167 -31.5 -24.5l-281 163l-279 -163c-11.333 5.33301 -21.833 13.5 -31.5 24.5s-19.167 22.833 -28.5 35.5l279 324h122z" />
    <glyph glyph-name="Edieresis" unicode="&#xcb;" horiz-adv-x="1076" 
d="M1029 304c-2.66699 -28.667 -5.67383 -58.834 -9.00684 -90.501s-7 -61.667 -11 -90s-7.83301 -53.5 -11.5 -75.5s-6.83398 -38 -9.50098 -48h-945v73c45.333 9.33301 79.5 19.5 102.5 30.5s34.5 21.167 34.5 30.5v991c0 8 -10.833 18 -32.5 30s-56.5 22.667 -104.5 32
v73h881l40 -32c-1.33301 -17.333 -3.33301 -39 -6 -65s-6 -52.667 -10 -80s-8.16699 -53.166 -12.5 -77.499s-8.5 -42.833 -12.5 -55.5h-75c-3.33301 62 -11.666 109.167 -24.999 141.5s-32.333 48.5 -57 48.5h-336v-405h398l33 -35l-19.5 -32.5
c-7.66699 -12.333 -15.667 -24.5 -24 -36.5s-16.666 -23.167 -24.999 -33.5s-16.166 -18.166 -23.499 -23.499c-10 10 -20.833 18.333 -32.5 25s-25 12.334 -40 17.001s-32.667 8 -53 10s-44.5 3 -72.5 3h-141v-445c0 -10 2.33301 -18.833 7 -26.5
s14.334 -14.334 29.001 -20.001s35.334 -10 62.001 -13s62 -4.5 106 -4.5h99c30.667 0 56.834 3.66699 78.501 11s40.834 19.166 57.501 35.499s31.834 37.833 45.501 64.5s27.5 59.667 41.5 99zM884.993 1548c0 -24.667 -4.16895 -47.667 -12.502 -69
s-19.666 -40 -33.999 -56s-31 -28.667 -50 -38s-39.167 -14 -60.5 -14c-38.667 0 -68 10.333 -88 31s-30 51 -30 91c0 24.667 4.33301 47.667 13 69s20.167 40 34.5 56s30.833 28.5 49.5 37.5s38.334 13.5 59.001 13.5c37.333 0 66.5 -10 87.5 -30s31.5 -50.333 31.5 -91z
M461.991 1548c0 -24.667 -4.16699 -47.667 -12.5 -69s-19.5 -40 -33.5 -56s-30.5 -28.667 -49.5 -38s-39.167 -14 -60.5 -14c-38.667 0 -68.167 10.333 -88.5 31s-30.5 51 -30.5 91c0 24.667 4.33301 47.667 13 69s20.167 40 34.5 56s31 28.5 50 37.5s38.5 13.5 58.5 13.5
c38 0 67.333 -10 88 -30s31 -50.333 31 -91z" />
    <glyph glyph-name="Igrave" unicode="&#xcc;" horiz-adv-x="670" 
d="M63 0l-0.000976562 72.998c45.333 9.33301 79.5 19.5 102.5 30.5s34.5 21.167 34.5 30.5v991c0 8 -10.833 18 -32.5 30s-56.5 22.667 -104.5 32v73h525v-73c-45.333 -9.33301 -79.666 -19.666 -102.999 -30.999s-35 -21.666 -35 -30.999v-991c0 -8 11 -17.833 33 -29.5
s57 -22.167 105 -31.5v-73h-525zM516.999 1420c-9.33301 -12.667 -18.833 -24.5 -28.5 -35.5s-20.167 -19.167 -31.5 -24.5l-479 234l10 63c4.66699 5.33301 14.5 13.333 29.5 24s31.333 21.667 49 33l50.5 32c16 10 27.667 17 35 21z" />
    <glyph glyph-name="Iacute" unicode="&#xcd;" horiz-adv-x="670" 
d="M63 0l-0.000976562 72.998c45.333 9.33301 79.5 19.5 102.5 30.5s34.5 21.167 34.5 30.5v991c0 8 -10.833 18 -32.5 30s-56.5 22.667 -104.5 32v73h525v-73c-45.333 -9.33301 -79.666 -19.666 -102.999 -30.999s-35 -21.666 -35 -30.999v-991c0 -8 11 -17.833 33 -29.5
s57 -22.167 105 -31.5v-73h-525zM192.999 1360c-11.333 5.33301 -23.167 14.665 -35.5 27.998s-23.166 26.333 -32.499 39l365 340c15.333 -8 32.333 -17.5 51 -28.5l53.5 -32c17 -10.333 32.167 -20.166 45.5 -29.499s22.666 -16.666 27.999 -21.999l9 -52z" />
    <glyph glyph-name="Icircumflex" unicode="&#xce;" horiz-adv-x="670" 
d="M63 0l-0.000976562 72.998c45.333 9.33301 79.5 19.5 102.5 30.5s34.5 21.167 34.5 30.5v991c0 8 -10.833 18 -32.5 30s-56.5 22.667 -104.5 32v73h525v-73c-45.333 -9.33301 -79.666 -19.666 -102.999 -30.999s-35 -21.666 -35 -30.999v-991c0 -8 11 -17.833 33 -29.5
s57 -22.167 105 -31.5v-73h-525zM662.999 1420c-8 -12.667 -16.833 -24.5 -26.5 -35.5s-20.167 -19.167 -31.5 -24.5l-281 163l-279 -163c-11.333 5.33301 -21.833 13.5 -31.5 24.5s-19.167 22.833 -28.5 35.5l279 324h122z" />
    <glyph glyph-name="Idieresis" unicode="&#xcf;" horiz-adv-x="670" 
d="M63 0l-0.000976562 72.998c45.333 9.33301 79.5 19.5 102.5 30.5s34.5 21.167 34.5 30.5v991c0 8 -10.833 18 -32.5 30s-56.5 22.667 -104.5 32v73h525v-73c-45.333 -9.33301 -79.666 -19.666 -102.999 -30.999s-35 -21.666 -35 -30.999v-991c0 -8 11 -17.833 33 -29.5
s57 -22.167 105 -31.5v-73h-525zM673.999 1548c0 -24.667 -4.16895 -47.667 -12.502 -69s-19.666 -40 -33.999 -56s-31 -28.667 -50 -38s-39.167 -14 -60.5 -14c-38.667 0 -68 10.333 -88 31s-30 51 -30 91c0 24.667 4.33301 47.667 13 69s20.167 40 34.5 56
s30.833 28.5 49.5 37.5s38.334 13.5 59.001 13.5c37.333 0 66.5 -10 87.5 -30s31.5 -50.333 31.5 -91zM250.997 1548c0 -24.667 -4.16699 -47.667 -12.5 -69s-19.5 -40 -33.5 -56s-30.5 -28.667 -49.5 -38s-39.167 -14 -60.5 -14c-38.667 0 -68.167 10.333 -88.5 31
s-30.5 51 -30.5 91c0 24.667 4.33301 47.667 13 69s20.167 40 34.5 56s31 28.5 50 37.5s38.5 13.5 58.5 13.5c38 0 67.333 -10 88 -30s31 -50.333 31 -91z" />
    <glyph glyph-name="Eth" unicode="&#xd0;" horiz-adv-x="1304" 
d="M1221 676c0 -83.333 -8.50098 -157.834 -25.501 -223.501s-40.167 -123.667 -69.5 -174s-63.666 -93 -102.999 -128s-81.333 -63.667 -126 -86s-90.834 -38.666 -138.501 -48.999s-94.167 -15.5 -139.5 -15.5h-576v73c45.333 9.33301 79.5 19.5 102.5 30.5
s34.5 21.167 34.5 30.5v481h-130l-22 24c1.33301 4.66699 3.5 11.334 6.5 20.001l9.5 27.5l9.5 27.5l7.5 21h119v422l-137 -19l-13 92c32.667 8 71.5 15.667 116.5 23s92.333 13.833 142 19.5s99.5 10 149.5 13s96.667 4.5 140 4.5c102 0 193 -13.833 273 -41.5
s147.333 -67.834 202 -120.501s96.334 -117 125.001 -193s43 -162.333 43 -259zM505.999 1184c-12 0 -24.3281 -0.165039 -36.9951 -0.498047s-25.667 -0.833008 -39 -1.5v-447h241l25 -23l-36 -97h-230v-448c0 -4.66699 0.666992 -9.33398 2 -14.001
c2 -7.33301 5.66699 -13.833 11 -19.5s13.666 -10.5 24.999 -14.5s26.166 -7 44.499 -9s41.5 -3 69.5 -3c25.333 0 52.166 4.33301 80.499 13s56.333 22.334 84 41.001s54 42.167 79 70.5s46.833 62.166 65.5 101.499s33.667 84.166 45 134.499s17 106.833 17 169.5
c0 88.667 -9.66699 167 -29 235s-47.833 125.167 -85.5 171.5s-84.334 81.333 -140.001 105s-119.834 35.5 -192.501 35.5z" />
    <glyph glyph-name="Ntilde" unicode="&#xd1;" horiz-adv-x="1359" 
d="M43 0l-0.000976562 72.998c48.667 6 83.667 15.333 105 28s32 23.667 32 33v980c-43.333 40.667 -89 65 -137 73v73h279c10 0 18.167 -0.833008 24.5 -2.5s12.833 -5.16699 19.5 -10.5s13.834 -13.166 21.501 -23.499l30.5 -41.5l612 -848v791
c0 4 -2.16699 8.83301 -6.5 14.5s-11.666 11.334 -21.999 17.001s-24.333 11.167 -42 16.5s-39.834 10 -66.501 14v73h425v-73c-48 -6.66699 -83 -16.334 -105 -29.001s-33 -23.667 -33 -33v-1155c-64 5.33301 -115.333 17.833 -154 37.5s-67 41.834 -85 66.501l-611 846
v-786c0 -4 2.33301 -8.83301 7 -14.5s12.5 -11.334 23.5 -17.001s25.167 -11.167 42.5 -16.5s39 -9.66602 65 -12.999v-73h-425zM1074 1657c-12 -27.333 -26.6699 -57.167 -44.0029 -89.5s-37 -62.5 -59 -90.5s-46.5 -51.5 -73.5 -70.5s-55.833 -28.5 -86.5 -28.5
c-28.667 0 -56 5.5 -82 16.5s-51.333 23 -76 36s-49.167 25 -73.5 36s-49.166 16.5 -74.499 16.5c-15.333 0 -29 -2.5 -41 -7.5s-23.5 -12.333 -34.5 -22s-22 -21.667 -33 -36s-22.5 -30.833 -34.5 -49.5l-75 28c12 27.333 26.5 57.333 43.5 90s36.5 63.167 58.5 91.5
s46.333 52 73 71s55.334 28.5 86.001 28.5s59.834 -5.5 87.501 -16.5s54 -23 79 -36l71.5 -36c22.667 -11 44.667 -16.5 66 -16.5c30 0 56 9.33301 78 28s44.333 47.667 67 87z" />
    <glyph glyph-name="Ograve" unicode="&#xd2;" horiz-adv-x="1274" 
d="M946 629c0 68.667 -8.16602 134.997 -24.499 198.997s-39.5 120.667 -69.5 170s-66 88.666 -108 117.999s-88.667 44 -140 44c-48 0 -90.5 -11.833 -127.5 -35.5s-68 -57.667 -93 -102s-43.833 -98.666 -56.5 -162.999s-19 -137.166 -19 -218.499
c0 -74.667 8.83301 -144.667 26.5 -210s41.667 -122.166 72 -170.499s65.666 -86.333 105.999 -114s83.5 -41.5 129.5 -41.5c44 0 84.5 10.667 121.5 32s69 53.833 96 97.5s48.167 98.334 63.5 164.001s23 142.5 23 230.5zM1198 646.997
c0 -60.667 -7.33105 -119.332 -21.998 -175.999s-35.167 -110.167 -61.5 -160.5s-57.833 -96.333 -94.5 -138s-77.334 -77.5 -122.001 -107.5s-92.334 -53.333 -143.001 -70s-103 -25 -157 -25c-84 0 -159.667 17.667 -227 53s-124.333 82.666 -171 141.999
s-82.5 127.666 -107.5 204.999s-37.5 158 -37.5 242c0 90.667 14.833 177 44.5 259s71 154 124 216s116.333 111.333 190 148s154.5 55 242.5 55s165.667 -18.167 233 -54.5s124 -84.5 170 -144.5s80.667 -128.667 104 -206s35 -156.666 35 -237.999zM830.003 1420
c-9.33301 -12.667 -18.833 -24.5 -28.5 -35.5s-20.167 -19.167 -31.5 -24.5l-479 234l10 63c4.66699 5.33301 14.5 13.333 29.5 24s31.333 21.667 49 33l50.5 32c16 10 27.667 17 35 21z" />
    <glyph glyph-name="Oacute" unicode="&#xd3;" horiz-adv-x="1274" 
d="M946 629c0 68.667 -8.16602 134.997 -24.499 198.997s-39.5 120.667 -69.5 170s-66 88.666 -108 117.999s-88.667 44 -140 44c-48 0 -90.5 -11.833 -127.5 -35.5s-68 -57.667 -93 -102s-43.833 -98.666 -56.5 -162.999s-19 -137.166 -19 -218.499
c0 -74.667 8.83301 -144.667 26.5 -210s41.667 -122.166 72 -170.499s65.666 -86.333 105.999 -114s83.5 -41.5 129.5 -41.5c44 0 84.5 10.667 121.5 32s69 53.833 96 97.5s48.167 98.334 63.5 164.001s23 142.5 23 230.5zM1198 646.997
c0 -60.667 -7.33105 -119.332 -21.998 -175.999s-35.167 -110.167 -61.5 -160.5s-57.833 -96.333 -94.5 -138s-77.334 -77.5 -122.001 -107.5s-92.334 -53.333 -143.001 -70s-103 -25 -157 -25c-84 0 -159.667 17.667 -227 53s-124.333 82.666 -171 141.999
s-82.5 127.666 -107.5 204.999s-37.5 158 -37.5 242c0 90.667 14.833 177 44.5 259s71 154 124 216s116.333 111.333 190 148s154.5 55 242.5 55s165.667 -18.167 233 -54.5s124 -84.5 170 -144.5s80.667 -128.667 104 -206s35 -156.666 35 -237.999zM506.003 1360
c-11.333 5.33301 -23.167 14.665 -35.5 27.998s-23.166 26.333 -32.499 39l365 340c15.333 -8 32.333 -17.5 51 -28.5l53.5 -32c17 -10.333 32.167 -20.166 45.5 -29.499s22.666 -16.666 27.999 -21.999l9 -52z" />
    <glyph glyph-name="Ocircumflex" unicode="&#xd4;" horiz-adv-x="1274" 
d="M946 629c0 68.667 -8.16602 134.997 -24.499 198.997s-39.5 120.667 -69.5 170s-66 88.666 -108 117.999s-88.667 44 -140 44c-48 0 -90.5 -11.833 -127.5 -35.5s-68 -57.667 -93 -102s-43.833 -98.666 -56.5 -162.999s-19 -137.166 -19 -218.499
c0 -74.667 8.83301 -144.667 26.5 -210s41.667 -122.166 72 -170.499s65.666 -86.333 105.999 -114s83.5 -41.5 129.5 -41.5c44 0 84.5 10.667 121.5 32s69 53.833 96 97.5s48.167 98.334 63.5 164.001s23 142.5 23 230.5zM1198 646.997
c0 -60.667 -7.33105 -119.332 -21.998 -175.999s-35.167 -110.167 -61.5 -160.5s-57.833 -96.333 -94.5 -138s-77.334 -77.5 -122.001 -107.5s-92.334 -53.333 -143.001 -70s-103 -25 -157 -25c-84 0 -159.667 17.667 -227 53s-124.333 82.666 -171 141.999
s-82.5 127.666 -107.5 204.999s-37.5 158 -37.5 242c0 90.667 14.833 177 44.5 259s71 154 124 216s116.333 111.333 190 148s154.5 55 242.5 55s165.667 -18.167 233 -54.5s124 -84.5 170 -144.5s80.667 -128.667 104 -206s35 -156.666 35 -237.999zM976.003 1420
c-8 -12.667 -16.833 -24.5 -26.5 -35.5s-20.167 -19.167 -31.5 -24.5l-281 163l-279 -163c-11.333 5.33301 -21.833 13.5 -31.5 24.5s-19.167 22.833 -28.5 35.5l279 324h122z" />
    <glyph glyph-name="Otilde" unicode="&#xd5;" horiz-adv-x="1274" 
d="M946 629c0 68.667 -8.16602 134.997 -24.499 198.997s-39.5 120.667 -69.5 170s-66 88.666 -108 117.999s-88.667 44 -140 44c-48 0 -90.5 -11.833 -127.5 -35.5s-68 -57.667 -93 -102s-43.833 -98.666 -56.5 -162.999s-19 -137.166 -19 -218.499
c0 -74.667 8.83301 -144.667 26.5 -210s41.667 -122.166 72 -170.499s65.666 -86.333 105.999 -114s83.5 -41.5 129.5 -41.5c44 0 84.5 10.667 121.5 32s69 53.833 96 97.5s48.167 98.334 63.5 164.001s23 142.5 23 230.5zM1198 646.997
c0 -60.667 -7.33105 -119.332 -21.998 -175.999s-35.167 -110.167 -61.5 -160.5s-57.833 -96.333 -94.5 -138s-77.334 -77.5 -122.001 -107.5s-92.334 -53.333 -143.001 -70s-103 -25 -157 -25c-84 0 -159.667 17.667 -227 53s-124.333 82.666 -171 141.999
s-82.5 127.666 -107.5 204.999s-37.5 158 -37.5 242c0 90.667 14.833 177 44.5 259s71 154 124 216s116.333 111.333 190 148s154.5 55 242.5 55s165.667 -18.167 233 -54.5s124 -84.5 170 -144.5s80.667 -128.667 104 -206s35 -156.666 35 -237.999zM1032 1657
c-12 -27.333 -26.6699 -57.167 -44.0029 -89.5s-37 -62.5 -59 -90.5s-46.5 -51.5 -73.5 -70.5s-55.833 -28.5 -86.5 -28.5c-28.667 0 -56 5.5 -82 16.5s-51.333 23 -76 36s-49.167 25 -73.5 36s-49.166 16.5 -74.499 16.5c-15.333 0 -29 -2.5 -41 -7.5
s-23.5 -12.333 -34.5 -22s-22 -21.667 -33 -36s-22.5 -30.833 -34.5 -49.5l-75 28c12 27.333 26.5 57.333 43.5 90s36.5 63.167 58.5 91.5s46.333 52 73 71s55.334 28.5 86.001 28.5s59.834 -5.5 87.501 -16.5s54 -23 79 -36l71.5 -36c22.667 -11 44.667 -16.5 66 -16.5
c30 0 56 9.33301 78 28s44.333 47.667 67 87z" />
    <glyph glyph-name="Odieresis" unicode="&#xd6;" horiz-adv-x="1274" 
d="M946 629c0 68.667 -8.16602 134.997 -24.499 198.997s-39.5 120.667 -69.5 170s-66 88.666 -108 117.999s-88.667 44 -140 44c-48 0 -90.5 -11.833 -127.5 -35.5s-68 -57.667 -93 -102s-43.833 -98.666 -56.5 -162.999s-19 -137.166 -19 -218.499
c0 -74.667 8.83301 -144.667 26.5 -210s41.667 -122.166 72 -170.499s65.666 -86.333 105.999 -114s83.5 -41.5 129.5 -41.5c44 0 84.5 10.667 121.5 32s69 53.833 96 97.5s48.167 98.334 63.5 164.001s23 142.5 23 230.5zM1198 646.997
c0 -60.667 -7.33105 -119.332 -21.998 -175.999s-35.167 -110.167 -61.5 -160.5s-57.833 -96.333 -94.5 -138s-77.334 -77.5 -122.001 -107.5s-92.334 -53.333 -143.001 -70s-103 -25 -157 -25c-84 0 -159.667 17.667 -227 53s-124.333 82.666 -171 141.999
s-82.5 127.666 -107.5 204.999s-37.5 158 -37.5 242c0 90.667 14.833 177 44.5 259s71 154 124 216s116.333 111.333 190 148s154.5 55 242.5 55s165.667 -18.167 233 -54.5s124 -84.5 170 -144.5s80.667 -128.667 104 -206s35 -156.666 35 -237.999zM987.003 1548
c0 -24.667 -4.16895 -47.667 -12.502 -69s-19.666 -40 -33.999 -56s-31 -28.667 -50 -38s-39.167 -14 -60.5 -14c-38.667 0 -68 10.333 -88 31s-30 51 -30 91c0 24.667 4.33301 47.667 13 69s20.167 40 34.5 56s30.833 28.5 49.5 37.5s38.334 13.5 59.001 13.5
c37.333 0 66.5 -10 87.5 -30s31.5 -50.333 31.5 -91zM564.001 1548c0 -24.667 -4.16699 -47.667 -12.5 -69s-19.5 -40 -33.5 -56s-30.5 -28.667 -49.5 -38s-39.167 -14 -60.5 -14c-38.667 0 -68.167 10.333 -88.5 31s-30.5 51 -30.5 91c0 24.667 4.33301 47.667 13 69
s20.167 40 34.5 56s31 28.5 50 37.5s38.5 13.5 58.5 13.5c38 0 67.333 -10 88 -30s31 -50.333 31 -91z" />
    <glyph glyph-name="multiply" unicode="&#xd7;" horiz-adv-x="863" 
d="M83 315l246.999 248.001l-246 247v34c6.66699 2.66699 15.334 6.33398 26.001 11.001l33.5 14c11.667 4.66699 23 8.83398 34 12.501s20.167 6.5 27.5 8.5l226 -226l225 226c7.33301 -2 16.666 -4.83301 27.999 -8.5s23 -7.83398 35 -12.501s23.333 -9.33398 34 -14.001
s19.334 -8.33398 26.001 -11.001v-34l-247 -248l247 -247v-34l-27 -11l-35 -14l-34 -13c-10.667 -4 -19 -6.66699 -25 -8l-227 227l-226 -227c-6 1.33301 -14.5 4 -25.5 8l-34.5 13l-35 14l-27 11v34z" />
    <glyph glyph-name="Oslash" unicode="&#xd8;" horiz-adv-x="1274" 
d="M946 629c0 45.333 -3.66602 89.499 -10.999 132.499s-17.666 84.167 -30.999 123.5l-477 -655c29.333 -39.333 62.166 -70 98.499 -92s75.166 -33 116.499 -33c44 0 84.5 10.667 121.5 32s69 53.833 96 97.5s48.167 98.334 63.5 164.001s23 142.5 23 230.5z
M308.001 640.999c0 -48 3.83398 -94.1689 11.501 -138.502s18.167 -85.833 31.5 -124.5l477 655c-29.333 39.333 -62.833 70.333 -100.5 93s-78.834 34 -123.501 34c-48 0 -90.5 -11.833 -127.5 -35.5s-68 -57.667 -93 -102s-43.833 -98.666 -56.5 -162.999
s-19 -137.166 -19 -218.499zM1056 1094c46.667 -60.667 82.0029 -129.666 106.003 -206.999s36 -157.333 36 -240c0 -60.667 -7.33301 -119.334 -22 -176.001s-35.167 -110.167 -61.5 -160.5s-57.833 -96.333 -94.5 -138s-77.334 -77.5 -122.001 -107.5
s-92.334 -53.333 -143.001 -70s-103 -25 -157 -25c-56.667 0 -109.5 8 -158.5 24s-93.5 39 -133.5 69l-47 -65c-6 -5.33301 -16.333 -10.666 -31 -15.999s-30.334 -10.5 -47.001 -15.5s-33 -9.16699 -49 -12.5s-28 -5.66602 -36 -6.99902l-32 37l134 184
c-46 59.333 -81.333 127.166 -106 203.499s-37 156.5 -37 240.5c0 90.667 14.833 177 44.5 259s71 154 124 216s116.333 111.333 190 148s154.5 55 242.5 55c58 0 111.167 -8 159.5 -24s92.5 -38.333 132.5 -67l48 65c9.33301 5.33301 21 10.666 35 15.999
s28.667 10.333 44 15s30.333 8.5 45 11.5s27 5.16699 37 6.5l32 -37z" />
    <glyph glyph-name="Ugrave" unicode="&#xd9;" horiz-adv-x="1369" 
d="M1313 1187c-45.333 -9.33301 -79.667 -19.666 -103 -30.999s-35 -21.666 -35 -30.999v-601c0 -87.333 -12.167 -165.333 -36.5 -234s-58.5 -126.667 -102.5 -174s-96.167 -83.5 -156.5 -108.5s-126.5 -37.5 -198.5 -37.5c-68.667 0 -133.334 9.5 -194.001 28.5
s-113.834 48 -159.501 87s-81.667 88.167 -108 147.5s-39.5 129.666 -39.5 210.999v681c0 8 -10.833 18 -32.5 30s-56.5 22.667 -104.5 32v73h525v-73c-45.333 -9.33301 -79.666 -19.666 -102.999 -30.999s-35 -21.666 -35 -30.999v-616c0 -64 5.66699 -120.5 17 -169.5
s29.333 -90.167 54 -123.5s56.834 -58.5 96.501 -75.5s88.167 -25.5 145.5 -25.5c47.333 0 87.333 10.667 120 32s59.167 49.666 79.5 84.999s35 76.166 44 122.499s13.5 94.166 13.5 143.499v627c0 8 -10.833 18 -32.5 30s-56.5 22.667 -104.5 32v73h450v-73zM883.999 1420
c-9.33301 -12.667 -18.833 -24.5 -28.5 -35.5s-20.167 -19.167 -31.5 -24.5l-479 234l10 63c4.66699 5.33301 14.5 13.333 29.5 24s31.333 21.667 49 33l50.5 32c16 10 27.667 17 35 21z" />
    <glyph glyph-name="Uacute" unicode="&#xda;" horiz-adv-x="1369" 
d="M1313 1187c-45.333 -9.33301 -79.667 -19.666 -103 -30.999s-35 -21.666 -35 -30.999v-601c0 -87.333 -12.167 -165.333 -36.5 -234s-58.5 -126.667 -102.5 -174s-96.167 -83.5 -156.5 -108.5s-126.5 -37.5 -198.5 -37.5c-68.667 0 -133.334 9.5 -194.001 28.5
s-113.834 48 -159.501 87s-81.667 88.167 -108 147.5s-39.5 129.666 -39.5 210.999v681c0 8 -10.833 18 -32.5 30s-56.5 22.667 -104.5 32v73h525v-73c-45.333 -9.33301 -79.666 -19.666 -102.999 -30.999s-35 -21.666 -35 -30.999v-616c0 -64 5.66699 -120.5 17 -169.5
s29.333 -90.167 54 -123.5s56.834 -58.5 96.501 -75.5s88.167 -25.5 145.5 -25.5c47.333 0 87.333 10.667 120 32s59.167 49.666 79.5 84.999s35 76.166 44 122.499s13.5 94.166 13.5 143.499v627c0 8 -10.833 18 -32.5 30s-56.5 22.667 -104.5 32v73h450v-73zM559.999 1360
c-11.333 5.33301 -23.167 14.665 -35.5 27.998s-23.166 26.333 -32.499 39l365 340c15.333 -8 32.333 -17.5 51 -28.5l53.5 -32c17 -10.333 32.167 -20.166 45.5 -29.499s22.666 -16.666 27.999 -21.999l9 -52z" />
    <glyph glyph-name="Ucircumflex" unicode="&#xdb;" horiz-adv-x="1369" 
d="M1313 1187c-45.333 -9.33301 -79.667 -19.666 -103 -30.999s-35 -21.666 -35 -30.999v-601c0 -87.333 -12.167 -165.333 -36.5 -234s-58.5 -126.667 -102.5 -174s-96.167 -83.5 -156.5 -108.5s-126.5 -37.5 -198.5 -37.5c-68.667 0 -133.334 9.5 -194.001 28.5
s-113.834 48 -159.501 87s-81.667 88.167 -108 147.5s-39.5 129.666 -39.5 210.999v681c0 8 -10.833 18 -32.5 30s-56.5 22.667 -104.5 32v73h525v-73c-45.333 -9.33301 -79.666 -19.666 -102.999 -30.999s-35 -21.666 -35 -30.999v-616c0 -64 5.66699 -120.5 17 -169.5
s29.333 -90.167 54 -123.5s56.834 -58.5 96.501 -75.5s88.167 -25.5 145.5 -25.5c47.333 0 87.333 10.667 120 32s59.167 49.666 79.5 84.999s35 76.166 44 122.499s13.5 94.166 13.5 143.499v627c0 8 -10.833 18 -32.5 30s-56.5 22.667 -104.5 32v73h450v-73zM1030 1420
c-8 -12.667 -16.833 -24.5 -26.5 -35.5s-20.167 -19.167 -31.5 -24.5l-281 163l-279 -163c-11.333 5.33301 -21.833 13.5 -31.5 24.5s-19.167 22.833 -28.5 35.5l279 324h122z" />
    <glyph glyph-name="Udieresis" unicode="&#xdc;" horiz-adv-x="1369" 
d="M1313 1187c-45.333 -9.33301 -79.667 -19.666 -103 -30.999s-35 -21.666 -35 -30.999v-601c0 -87.333 -12.167 -165.333 -36.5 -234s-58.5 -126.667 -102.5 -174s-96.167 -83.5 -156.5 -108.5s-126.5 -37.5 -198.5 -37.5c-68.667 0 -133.334 9.5 -194.001 28.5
s-113.834 48 -159.501 87s-81.667 88.167 -108 147.5s-39.5 129.666 -39.5 210.999v681c0 8 -10.833 18 -32.5 30s-56.5 22.667 -104.5 32v73h525v-73c-45.333 -9.33301 -79.666 -19.666 -102.999 -30.999s-35 -21.666 -35 -30.999v-616c0 -64 5.66699 -120.5 17 -169.5
s29.333 -90.167 54 -123.5s56.834 -58.5 96.501 -75.5s88.167 -25.5 145.5 -25.5c47.333 0 87.333 10.667 120 32s59.167 49.666 79.5 84.999s35 76.166 44 122.499s13.5 94.166 13.5 143.499v627c0 8 -10.833 18 -32.5 30s-56.5 22.667 -104.5 32v73h450v-73zM1041 1548
c0 -24.667 -4.16895 -47.667 -12.502 -69s-19.666 -40 -33.999 -56s-31 -28.667 -50 -38s-39.167 -14 -60.5 -14c-38.667 0 -68 10.333 -88 31s-30 51 -30 91c0 24.667 4.33301 47.667 13 69s20.167 40 34.5 56s30.833 28.5 49.5 37.5s38.334 13.5 59.001 13.5
c37.333 0 66.5 -10 87.5 -30s31.5 -50.333 31.5 -91zM617.997 1548c0 -24.667 -4.16699 -47.667 -12.5 -69s-19.5 -40 -33.5 -56s-30.5 -28.667 -49.5 -38s-39.167 -14 -60.5 -14c-38.667 0 -68.167 10.333 -88.5 31s-30.5 51 -30.5 91c0 24.667 4.33301 47.667 13 69
s20.167 40 34.5 56s31 28.5 50 37.5s38.5 13.5 58.5 13.5c38 0 67.333 -10 88 -30s31 -50.333 31 -91z" />
    <glyph glyph-name="Yacute" unicode="&#xdd;" horiz-adv-x="1255" 
d="M345 0l-0.00390625 73.002c30 6 55.167 12.333 75.5 19s36.5 13.167 48.5 19.5s20.5 12.333 25.5 18s7.5 10.834 7.5 15.501v384c-24 53.333 -51 108.333 -81 165l-91 164.5c-30.667 53 -60.667 102.167 -90 147.5s-55.666 83.666 -78.999 114.999
c-6 7.33301 -12.333 14 -19 20s-15.667 11 -27 15s-25.666 7.16699 -42.999 9.5s-40 3.5 -68 3.5l-4 73l66.5 9c25 3.33301 49.833 6.33301 74.5 9s47.834 5 69.501 7s39.5 3 53.5 3c18.667 0 37.334 -4 56.001 -12s33.667 -19.333 45 -34
c24.667 -33.333 50.5 -71.333 77.5 -114l82 -136l81 -147.5l74.5 -147.5l234 442c10 17.333 6.83301 31 -9.5 41s-50.166 18.333 -101.499 25v73h418v-73c-45.333 -8.66699 -79 -17.667 -101 -27s-37.667 -22.333 -47 -39l-321 -598v-378c0 -4 2.33301 -8.83301 7 -14.5
s13 -11.834 25 -18.501s28.167 -13.334 48.5 -20.001s46.166 -13 77.499 -19v-73h-565zM494.996 1360c-11.333 5.33301 -23.167 14.665 -35.5 27.998s-23.166 26.333 -32.499 39l365 340c15.333 -8 32.333 -17.5 51 -28.5l53.5 -32c17 -10.333 32.167 -20.166 45.5 -29.499
s22.666 -16.666 27.999 -21.999l9 -52z" />
    <glyph glyph-name="Thorn" unicode="&#xde;" horiz-adv-x="1161" 
d="M42 0l0.00390625 72.999c45.333 9.33301 79.666 19.5 102.999 30.5s35 21.167 35 30.5v991c0 8 -11 18 -33 30s-57 22.667 -105 32v73h556v-73c-34 -6 -62 -11.667 -84 -17s-39.167 -10.5 -51.5 -15.5s-20.833 -10 -25.5 -15s-7 -9.83301 -7 -14.5v-102
c23.333 1.33301 46.666 2.5 69.999 3.5s46.666 1.5 69.999 1.5c77.333 0 147.833 -7.66699 211.5 -23s118.167 -38 163.5 -68s80.333 -67 105 -111s37 -94.667 37 -152c0 -46 -6.33301 -88.333 -19 -127s-29.834 -73.334 -51.501 -104.001s-46.667 -57.667 -75 -81
s-58.333 -42.666 -90 -57.999s-63.667 -26.833 -96 -34.5s-63.166 -11.5 -92.499 -11.5c-30.667 0 -60.667 2.5 -90 7.5s-55.333 12.5 -78 22.5l-31 104c27.333 -12.667 51.5 -20.667 72.5 -24s43.167 -5 66.5 -5c28.667 0 57 5.16699 85 15.5s52.833 26.5 74.5 48.5
s39.167 50 52.5 84s20 74.667 20 122s-7.83301 88.833 -23.5 124.5s-37.667 65.5 -66 89.5s-62.166 42.167 -101.499 54.5s-83 18.5 -131 18.5c-26.667 0 -54.334 -1 -83.001 -3v-783c0 -4 2.16699 -8.33301 6.5 -13s12.666 -9.66699 24.999 -15s29.5 -10.666 51.5 -15.999
s50.333 -11 85 -17v-73h-556z" />
    <glyph glyph-name="germandbls" unicode="&#xdf;" horiz-adv-x="1288" 
d="M1236 283c0 -42.667 -8.1709 -82.9971 -24.5039 -120.997s-40.833 -71.167 -73.5 -99.5s-73.667 -50.833 -123 -67.5s-107 -25 -173 -25c-27.333 0 -56.666 2.66699 -87.999 8s-60.666 11.833 -87.999 19.5s-51 15.667 -71 24s-32.333 15.833 -37 22.5
c-3.33301 4 -5.83301 13.5 -7.5 28.5s-2.83398 32.5 -3.50098 52.5s-0.666992 41.333 0 64s1.83398 44.167 3.50098 64.5s3.83398 38 6.50098 53s5.66699 24.833 9 29.5l80 -12c7.33301 -38.667 18.5 -72.334 33.5 -101.001s32.667 -52.667 53 -72s42.5 -33.833 66.5 -43.5
s48.667 -14.5 74 -14.5c44 0 78.833 9.66699 104.5 29s38.5 48.666 38.5 87.999c0 31.333 -6.5 58.833 -19.5 82.5s-30.333 44.834 -52 63.501s-46.167 35.667 -73.5 51l-84 46c-28.667 15.333 -56.667 31.333 -84 48s-51.833 35.667 -73.5 57s-39 45.833 -52 73.5
s-19.5 60.167 -19.5 97.5c0 41.333 8 75.333 24 102s36 49.167 60 67.5s50.167 34.333 78.5 48s54.5 28.167 78.5 43.5s44 33.166 60 53.499s24 46.5 24 78.5c0 41.333 -6 79.166 -18 113.499s-29.167 64 -51.5 89s-49.5 44.333 -81.5 58s-67.667 20.5 -107 20.5
c-28.667 0 -55.5 -5.5 -80.5 -16.5s-46.667 -31.333 -65 -61s-32.833 -70.5 -43.5 -122.5s-16 -119.333 -16 -202v-1001h-372v73c45.333 8 78.666 17.833 99.999 29.5s32 21.5 32 29.5v814c0 80 7.83301 148.333 23.5 205s35.334 104.834 59.001 144.501
s49.834 72.167 78.501 97.5s56 47 82 65c38.667 26 84 47.833 136 65.5s106 26.5 162 26.5c63.333 0 120 -10.833 170 -32.5s92.333 -49.667 127 -84s61.167 -72.833 79.5 -115.5s27.5 -85.334 27.5 -128.001c0 -54.667 -8.5 -99.334 -25.5 -134.001s-38.167 -63 -63.5 -85
s-53 -40 -83 -54l-83 -40c-25.333 -12.667 -46.5 -27 -63.5 -43s-25.5 -37.333 -25.5 -64c0 -30.667 11.167 -56.667 33.5 -78s50.5 -41.166 84.5 -59.499s70.5 -37 109.5 -56s75.5 -41.333 109.5 -67s62.167 -56.667 84.5 -93s33.5 -80.833 33.5 -133.5z" />
    <glyph glyph-name="agrave" unicode="&#xe0;" horiz-adv-x="1023" 
d="M412 145c12.667 0 26.001 1.50098 40.001 4.50098s29.5 8.33301 46.5 16s35.667 18.334 56 32.001s43.166 31.167 68.499 52.5v221c-40 -6.66699 -73.667 -13.167 -101 -19.5s-50.333 -12.833 -69 -19.5s-33.834 -13.667 -45.501 -21s-21.834 -15.333 -30.501 -24
c-17.333 -17.333 -31.333 -36 -42 -56s-16 -44 -16 -72c0 -22.667 3.16699 -41.334 9.5 -56.001s14.333 -26.334 24 -35.001s19.834 -14.667 30.501 -18s20.334 -5 29.001 -5zM1016 112.001c-28 -19.333 -57.1719 -37.6758 -87.5049 -55.0088s-59 -32.5 -86 -45.5
s-51.667 -23.167 -74 -30.5s-39.5 -11 -51.5 -11c-24.667 0 -45.5 14 -62.5 42s-27.167 67 -30.5 117c-30 -30 -60.167 -55.167 -90.5 -75.5s-59.666 -36.666 -87.999 -48.999s-55.5 -21.166 -81.5 -26.499s-49.667 -8 -71 -8c-28 0 -55.5 4.83301 -82.5 14.5
s-51.333 24 -73 43s-39.167 43 -52.5 72s-20 62.833 -20 101.5c0 45.333 8.16699 83.833 24.5 115.5s36.833 59.834 61.5 84.501c16 16 34.5 31.5 55.5 46.5s49 29.5 84 43.5s79 27.5 132 40.5s119.833 25.5 200.5 37.5v118c0 20.667 -2 39.834 -6 57.501
s-11 32.834 -21 45.501s-23.333 22.5 -40 29.5s-37.667 10.5 -63 10.5c-16 0 -32 -3 -48 -9s-30 -14.5 -42 -25.5s-21.5 -24.333 -28.5 -40s-9.5 -33.5 -7.5 -53.5c0.666992 -4 -4.66602 -9 -15.999 -15s-25.666 -12.167 -42.999 -18.5s-36.5 -12.666 -57.5 -18.999
s-41.167 -11.666 -60.5 -15.999s-36.666 -7.66602 -51.999 -9.99902s-25.666 -2.83301 -30.999 -1.5l-21 54c16 40 41.167 77.167 75.5 111.5s74.5 64.333 120.5 90s96.167 45.834 150.5 60.501s109.166 22 164.499 22c46 0 85.667 -6 119 -18s60.833 -28.833 82.5 -50.5
s37.834 -47.167 48.501 -76.5s16 -61 16 -95v-482c0 -28 3.66699 -48 11 -60s17 -18 29 -18c4.66699 0 9.5 0.333008 14.5 1s11 2 18 4s15.167 4.83301 24.5 8.5l34 13.5zM675.996 1085.99c-4 -4 -9.66895 -8.33301 -17.002 -13s-15.166 -9.16699 -23.499 -13.5
s-16.5 -8.16602 -24.5 -11.499s-15 -6 -21 -8l-382 377l29 56c6.66699 2 20.334 5 41.001 9l67 12.5c24 4.33301 46.833 8.16602 68.5 11.499s36.5 5.33301 44.5 6z" />
    <glyph glyph-name="aacute" unicode="&#xe1;" horiz-adv-x="1023" 
d="M412 145c12.667 0 26.001 1.50098 40.001 4.50098s29.5 8.33301 46.5 16s35.667 18.334 56 32.001s43.166 31.167 68.499 52.5v221c-40 -6.66699 -73.667 -13.167 -101 -19.5s-50.333 -12.833 -69 -19.5s-33.834 -13.667 -45.501 -21s-21.834 -15.333 -30.501 -24
c-17.333 -17.333 -31.333 -36 -42 -56s-16 -44 -16 -72c0 -22.667 3.16699 -41.334 9.5 -56.001s14.333 -26.334 24 -35.001s19.834 -14.667 30.501 -18s20.334 -5 29.001 -5zM1016 112.001c-28 -19.333 -57.1719 -37.6758 -87.5049 -55.0088s-59 -32.5 -86 -45.5
s-51.667 -23.167 -74 -30.5s-39.5 -11 -51.5 -11c-24.667 0 -45.5 14 -62.5 42s-27.167 67 -30.5 117c-30 -30 -60.167 -55.167 -90.5 -75.5s-59.666 -36.666 -87.999 -48.999s-55.5 -21.166 -81.5 -26.499s-49.667 -8 -71 -8c-28 0 -55.5 4.83301 -82.5 14.5
s-51.333 24 -73 43s-39.167 43 -52.5 72s-20 62.833 -20 101.5c0 45.333 8.16699 83.833 24.5 115.5s36.833 59.834 61.5 84.501c16 16 34.5 31.5 55.5 46.5s49 29.5 84 43.5s79 27.5 132 40.5s119.833 25.5 200.5 37.5v118c0 20.667 -2 39.834 -6 57.501
s-11 32.834 -21 45.501s-23.333 22.5 -40 29.5s-37.667 10.5 -63 10.5c-16 0 -32 -3 -48 -9s-30 -14.5 -42 -25.5s-21.5 -24.333 -28.5 -40s-9.5 -33.5 -7.5 -53.5c0.666992 -4 -4.66602 -9 -15.999 -15s-25.666 -12.167 -42.999 -18.5s-36.5 -12.666 -57.5 -18.999
s-41.167 -11.666 -60.5 -15.999s-36.666 -7.66602 -51.999 -9.99902s-25.666 -2.83301 -30.999 -1.5l-21 54c16 40 41.167 77.167 75.5 111.5s74.5 64.333 120.5 90s96.167 45.834 150.5 60.501s109.166 22 164.499 22c46 0 85.667 -6 119 -18s60.833 -28.833 82.5 -50.5
s37.834 -47.167 48.501 -76.5s16 -61 16 -95v-482c0 -28 3.66699 -48 11 -60s17 -18 29 -18c4.66699 0 9.5 0.333008 14.5 1s11 2 18 4s15.167 4.83301 24.5 8.5l34 13.5zM454.996 1039.99c-6 0.666992 -13.168 2.83496 -21.501 6.50195s-16.833 7.66699 -25.5 12
s-16.5 8.66602 -23.5 12.999s-12.5 8.16602 -16.5 11.499l211 429c8 -0.666992 22.833 -2.5 44.5 -5.5s44.834 -6.5 69.501 -10.5s48 -8.16699 70 -12.5s36.667 -7.5 44 -9.5l30 -54z" />
    <glyph glyph-name="acircumflex" unicode="&#xe2;" horiz-adv-x="1023" 
d="M412 145c12.667 0 26.001 1.50098 40.001 4.50098s29.5 8.33301 46.5 16s35.667 18.334 56 32.001s43.166 31.167 68.499 52.5v221c-40 -6.66699 -73.667 -13.167 -101 -19.5s-50.333 -12.833 -69 -19.5s-33.834 -13.667 -45.501 -21s-21.834 -15.333 -30.501 -24
c-17.333 -17.333 -31.333 -36 -42 -56s-16 -44 -16 -72c0 -22.667 3.16699 -41.334 9.5 -56.001s14.333 -26.334 24 -35.001s19.834 -14.667 30.501 -18s20.334 -5 29.001 -5zM1016 112.001c-28 -19.333 -57.1719 -37.6758 -87.5049 -55.0088s-59 -32.5 -86 -45.5
s-51.667 -23.167 -74 -30.5s-39.5 -11 -51.5 -11c-24.667 0 -45.5 14 -62.5 42s-27.167 67 -30.5 117c-30 -30 -60.167 -55.167 -90.5 -75.5s-59.666 -36.666 -87.999 -48.999s-55.5 -21.166 -81.5 -26.499s-49.667 -8 -71 -8c-28 0 -55.5 4.83301 -82.5 14.5
s-51.333 24 -73 43s-39.167 43 -52.5 72s-20 62.833 -20 101.5c0 45.333 8.16699 83.833 24.5 115.5s36.833 59.834 61.5 84.501c16 16 34.5 31.5 55.5 46.5s49 29.5 84 43.5s79 27.5 132 40.5s119.833 25.5 200.5 37.5v118c0 20.667 -2 39.834 -6 57.501
s-11 32.834 -21 45.501s-23.333 22.5 -40 29.5s-37.667 10.5 -63 10.5c-16 0 -32 -3 -48 -9s-30 -14.5 -42 -25.5s-21.5 -24.333 -28.5 -40s-9.5 -33.5 -7.5 -53.5c0.666992 -4 -4.66602 -9 -15.999 -15s-25.666 -12.167 -42.999 -18.5s-36.5 -12.666 -57.5 -18.999
s-41.167 -11.666 -60.5 -15.999s-36.666 -7.66602 -51.999 -9.99902s-25.666 -2.83301 -30.999 -1.5l-21 54c16 40 41.167 77.167 75.5 111.5s74.5 64.333 120.5 90s96.167 45.834 150.5 60.501s109.166 22 164.499 22c46 0 85.667 -6 119 -18s60.833 -28.833 82.5 -50.5
s37.834 -47.167 48.501 -76.5s16 -61 16 -95v-482c0 -28 3.66699 -48 11 -60s17 -18 29 -18c4.66699 0 9.5 0.333008 14.5 1s11 2 18 4s15.167 4.83301 24.5 8.5l34 13.5zM853.996 1106.99c-8 -12.667 -16.833 -25.667 -26.5 -39s-20.167 -22.666 -31.5 -27.999l-281 223
l-279 -223c-11.333 5.33301 -23 14.666 -35 27.999s-22.667 26.333 -32 39l279 387h137z" />
    <glyph glyph-name="atilde" unicode="&#xe3;" horiz-adv-x="1023" 
d="M412 145c12.667 0 26.001 1.50098 40.001 4.50098s29.5 8.33301 46.5 16s35.667 18.334 56 32.001s43.166 31.167 68.499 52.5v221c-40 -6.66699 -73.667 -13.167 -101 -19.5s-50.333 -12.833 -69 -19.5s-33.834 -13.667 -45.501 -21s-21.834 -15.333 -30.501 -24
c-17.333 -17.333 -31.333 -36 -42 -56s-16 -44 -16 -72c0 -22.667 3.16699 -41.334 9.5 -56.001s14.333 -26.334 24 -35.001s19.834 -14.667 30.501 -18s20.334 -5 29.001 -5zM1016 112.001c-28 -19.333 -57.1719 -37.6758 -87.5049 -55.0088s-59 -32.5 -86 -45.5
s-51.667 -23.167 -74 -30.5s-39.5 -11 -51.5 -11c-24.667 0 -45.5 14 -62.5 42s-27.167 67 -30.5 117c-30 -30 -60.167 -55.167 -90.5 -75.5s-59.666 -36.666 -87.999 -48.999s-55.5 -21.166 -81.5 -26.499s-49.667 -8 -71 -8c-28 0 -55.5 4.83301 -82.5 14.5
s-51.333 24 -73 43s-39.167 43 -52.5 72s-20 62.833 -20 101.5c0 45.333 8.16699 83.833 24.5 115.5s36.833 59.834 61.5 84.501c16 16 34.5 31.5 55.5 46.5s49 29.5 84 43.5s79 27.5 132 40.5s119.833 25.5 200.5 37.5v118c0 20.667 -2 39.834 -6 57.501
s-11 32.834 -21 45.501s-23.333 22.5 -40 29.5s-37.667 10.5 -63 10.5c-16 0 -32 -3 -48 -9s-30 -14.5 -42 -25.5s-21.5 -24.333 -28.5 -40s-9.5 -33.5 -7.5 -53.5c0.666992 -4 -4.66602 -9 -15.999 -15s-25.666 -12.167 -42.999 -18.5s-36.5 -12.666 -57.5 -18.999
s-41.167 -11.666 -60.5 -15.999s-36.666 -7.66602 -51.999 -9.99902s-25.666 -2.83301 -30.999 -1.5l-21 54c16 40 41.167 77.167 75.5 111.5s74.5 64.333 120.5 90s96.167 45.834 150.5 60.501s109.166 22 164.499 22c46 0 85.667 -6 119 -18s60.833 -28.833 82.5 -50.5
s37.834 -47.167 48.501 -76.5s16 -61 16 -95v-482c0 -28 3.66699 -48 11 -60s17 -18 29 -18c4.66699 0 9.5 0.333008 14.5 1s11 2 18 4s15.167 4.83301 24.5 8.5l34 13.5zM908.996 1376.99c-12 -27.333 -26.6699 -57.167 -44.0029 -89.5s-37 -62.5 -59 -90.5
s-46.5 -51.5 -73.5 -70.5s-55.833 -28.5 -86.5 -28.5c-28.667 0 -56 5.5 -82 16.5s-51.333 23 -76 36s-49.167 25 -73.5 36s-49.166 16.5 -74.499 16.5c-15.333 0 -29 -2.5 -41 -7.5s-23.5 -12.333 -34.5 -22s-22 -21.667 -33 -36s-22.5 -30.833 -34.5 -49.5l-75 28
c12 27.333 26.5 57.333 43.5 90s36.5 63.167 58.5 91.5s46.333 52 73 71s55.334 28.5 86.001 28.5s59.834 -5.5 87.501 -16.5s54 -23 79 -36l71.5 -36c22.667 -11 44.667 -16.5 66 -16.5c30 0 56 9.33301 78 28s44.333 47.667 67 87z" />
    <glyph glyph-name="adieresis" unicode="&#xe4;" horiz-adv-x="1023" 
d="M412 145c12.667 0 26.001 1.50098 40.001 4.50098s29.5 8.33301 46.5 16s35.667 18.334 56 32.001s43.166 31.167 68.499 52.5v221c-40 -6.66699 -73.667 -13.167 -101 -19.5s-50.333 -12.833 -69 -19.5s-33.834 -13.667 -45.501 -21s-21.834 -15.333 -30.501 -24
c-17.333 -17.333 -31.333 -36 -42 -56s-16 -44 -16 -72c0 -22.667 3.16699 -41.334 9.5 -56.001s14.333 -26.334 24 -35.001s19.834 -14.667 30.501 -18s20.334 -5 29.001 -5zM1016 112.001c-28 -19.333 -57.1719 -37.6758 -87.5049 -55.0088s-59 -32.5 -86 -45.5
s-51.667 -23.167 -74 -30.5s-39.5 -11 -51.5 -11c-24.667 0 -45.5 14 -62.5 42s-27.167 67 -30.5 117c-30 -30 -60.167 -55.167 -90.5 -75.5s-59.666 -36.666 -87.999 -48.999s-55.5 -21.166 -81.5 -26.499s-49.667 -8 -71 -8c-28 0 -55.5 4.83301 -82.5 14.5
s-51.333 24 -73 43s-39.167 43 -52.5 72s-20 62.833 -20 101.5c0 45.333 8.16699 83.833 24.5 115.5s36.833 59.834 61.5 84.501c16 16 34.5 31.5 55.5 46.5s49 29.5 84 43.5s79 27.5 132 40.5s119.833 25.5 200.5 37.5v118c0 20.667 -2 39.834 -6 57.501
s-11 32.834 -21 45.501s-23.333 22.5 -40 29.5s-37.667 10.5 -63 10.5c-16 0 -32 -3 -48 -9s-30 -14.5 -42 -25.5s-21.5 -24.333 -28.5 -40s-9.5 -33.5 -7.5 -53.5c0.666992 -4 -4.66602 -9 -15.999 -15s-25.666 -12.167 -42.999 -18.5s-36.5 -12.666 -57.5 -18.999
s-41.167 -11.666 -60.5 -15.999s-36.666 -7.66602 -51.999 -9.99902s-25.666 -2.83301 -30.999 -1.5l-21 54c16 40 41.167 77.167 75.5 111.5s74.5 64.333 120.5 90s96.167 45.834 150.5 60.501s109.166 22 164.499 22c46 0 85.667 -6 119 -18s60.833 -28.833 82.5 -50.5
s37.834 -47.167 48.501 -76.5s16 -61 16 -95v-482c0 -28 3.66699 -48 11 -60s17 -18 29 -18c4.66699 0 9.5 0.333008 14.5 1s11 2 18 4s15.167 4.83301 24.5 8.5l34 13.5zM863.996 1267.99c0 -24.667 -4.16895 -47.667 -12.502 -69s-19.666 -40 -33.999 -56
s-31 -28.667 -50 -38s-39.167 -14 -60.5 -14c-38.667 0 -68 10.333 -88 31s-30 51 -30 91c0 24.667 4.33301 47.667 13 69s20.167 40 34.5 56s30.833 28.5 49.5 37.5s38.334 13.5 59.001 13.5c37.333 0 66.5 -10 87.5 -30s31.5 -50.333 31.5 -91zM440.994 1267.99
c0 -24.667 -4.16699 -47.667 -12.5 -69s-19.5 -40 -33.5 -56s-30.5 -28.667 -49.5 -38s-39.167 -14 -60.5 -14c-38.667 0 -68.167 10.333 -88.5 31s-30.5 51 -30.5 91c0 24.667 4.33301 47.667 13 69s20.167 40 34.5 56s31 28.5 50 37.5s38.5 13.5 58.5 13.5
c38 0 67.333 -10 88 -30s31 -50.333 31 -91z" />
    <glyph glyph-name="aring" unicode="&#xe5;" horiz-adv-x="1023" 
d="M412 145c12.667 0 26.001 1.50098 40.001 4.50098s29.5 8.33301 46.5 16s35.667 18.334 56 32.001s43.166 31.167 68.499 52.5v221c-40 -6.66699 -73.667 -13.167 -101 -19.5s-50.333 -12.833 -69 -19.5s-33.834 -13.667 -45.501 -21s-21.834 -15.333 -30.501 -24
c-17.333 -17.333 -31.333 -36 -42 -56s-16 -44 -16 -72c0 -22.667 3.16699 -41.334 9.5 -56.001s14.333 -26.334 24 -35.001s19.834 -14.667 30.501 -18s20.334 -5 29.001 -5zM1016 112.001c-28 -19.333 -57.1719 -37.6758 -87.5049 -55.0088s-59 -32.5 -86 -45.5
s-51.667 -23.167 -74 -30.5s-39.5 -11 -51.5 -11c-24.667 0 -45.5 14 -62.5 42s-27.167 67 -30.5 117c-30 -30 -60.167 -55.167 -90.5 -75.5s-59.666 -36.666 -87.999 -48.999s-55.5 -21.166 -81.5 -26.499s-49.667 -8 -71 -8c-28 0 -55.5 4.83301 -82.5 14.5
s-51.333 24 -73 43s-39.167 43 -52.5 72s-20 62.833 -20 101.5c0 45.333 8.16699 83.833 24.5 115.5s36.833 59.834 61.5 84.501c16 16 34.5 31.5 55.5 46.5s49 29.5 84 43.5s79 27.5 132 40.5s119.833 25.5 200.5 37.5v118c0 20.667 -2 39.834 -6 57.501
s-11 32.834 -21 45.501s-23.333 22.5 -40 29.5s-37.667 10.5 -63 10.5c-16 0 -32 -3 -48 -9s-30 -14.5 -42 -25.5s-21.5 -24.333 -28.5 -40s-9.5 -33.5 -7.5 -53.5c0.666992 -4 -4.66602 -9 -15.999 -15s-25.666 -12.167 -42.999 -18.5s-36.5 -12.666 -57.5 -18.999
s-41.167 -11.666 -60.5 -15.999s-36.666 -7.66602 -51.999 -9.99902s-25.666 -2.83301 -30.999 -1.5l-21 54c16 40 41.167 77.167 75.5 111.5s74.5 64.333 120.5 90s96.167 45.834 150.5 60.501s109.166 22 164.499 22c46 0 85.667 -6 119 -18s60.833 -28.833 82.5 -50.5
s37.834 -47.167 48.501 -76.5s16 -61 16 -95v-482c0 -28 3.66699 -48 11 -60s17 -18 29 -18c4.66699 0 9.5 0.333008 14.5 1s11 2 18 4s15.167 4.83301 24.5 8.5l34 13.5zM587.996 1242.99c0 32 -6.66797 56.501 -20.001 73.501s-27.666 25.5 -42.999 25.5
c-14 0 -26.167 -2.83301 -36.5 -8.5s-19 -13 -26 -22s-12.333 -19.333 -16 -31s-5.5 -23.5 -5.5 -35.5c0 -30.667 6.83301 -54.334 20.5 -71.001s28.167 -25 43.5 -25c26.667 0 47.167 9 61.5 27s21.5 40.333 21.5 67zM722.995 1283.99
c0 -35.333 -6.66504 -68.667 -19.998 -100s-31.166 -58.5 -53.499 -81.5s-47.833 -41.167 -76.5 -54.5s-58.334 -20 -89.001 -20c-26 0 -50 4.16699 -72 12.5s-40.833 20.166 -56.5 35.499s-27.834 33.833 -36.501 55.5s-13 45.834 -13 72.501c0 36 6.66699 69.667 20 101
s31 58.833 53 82.5s47.5 42.167 76.5 55.5s59.167 20 90.5 20c26.667 0 51 -4.5 73 -13.5s40.667 -21.333 56 -37s27.166 -34.5 35.499 -56.5s12.5 -46 12.5 -72z" />
    <glyph glyph-name="ae" unicode="&#xe6;" horiz-adv-x="1501" 
d="M1436 550c-6.66699 -6.66699 -15.332 -13.9951 -25.999 -21.9951s-22.167 -15.833 -34.5 -23.5s-25 -14.834 -38 -21.501s-24.833 -12 -35.5 -16h-444c-0.666992 -2.66699 -1 -7 -1 -13v-13c0 -31.333 5 -64.5 15 -99.5s24.833 -67.5 44.5 -97.5
s44.167 -54.833 73.5 -74.5s63.333 -29.5 102 -29.5c20.667 0 41.334 1.83301 62.001 5.5s42.167 10 64.5 19s46.333 21.167 72 36.5s54.167 34.666 85.5 57.999c4 -2 8.83301 -6 14.5 -12s11 -12.5 16 -19.5l13.5 -19.5c4 -6 6.66699 -10.333 8 -13
c-40 -44 -76.833 -80.5 -110.5 -109.5s-66.834 -52 -99.501 -69s-66 -29 -100 -36s-71.333 -10.5 -112 -10.5c-28.667 0 -58.334 4.83301 -89.001 14.5s-60.5 23.5 -89.5 41.5s-56.167 40 -81.5 66s-47.333 55.667 -66 89c-30 -37.333 -61.333 -69.333 -94 -96
s-65.5 -48.5 -98.5 -65.5s-66 -29.5 -99 -37.5s-64.833 -12 -95.5 -12c-24 0 -49.333 4 -76 12s-51.334 21.167 -74.001 39.5s-41.334 42.166 -56.001 71.499s-22 65.333 -22 108c0 39.333 7.5 77 22.5 113s38.333 69.333 70 100s72.167 58.167 121.5 82.5
s108.333 44.833 177 61.5c18 4.66699 43.333 8.5 76 11.5s66 5.16699 100 6.5v79c0 60 -10.333 104.167 -31 132.5s-52.667 42.5 -96 42.5c-17.333 0 -35.5 -3.33301 -54.5 -10s-36 -16 -51 -28s-26.333 -26.5 -34 -43.5s-8.5 -36.167 -2.5 -57.5
c0.666992 -4.66699 -4.33301 -10 -15 -16s-24.5 -12.167 -41.5 -18.5s-36 -12.5 -57 -18.5s-41.167 -11.167 -60.5 -15.5s-36.5 -7.5 -51.5 -9.5s-25.167 -2.33301 -30.5 -1l-21 51c13.333 35.333 31.833 67.166 55.5 95.499s50.167 53.5 79.5 75.5
s60.666 40.833 93.999 56.5s66.333 28.667 99 39s64.167 18 94.5 23s56.833 7.5 79.5 7.5c50 0 93.333 -8.16699 130 -24.5s66.334 -42.833 89.001 -79.5c22 19.333 44.667 35.666 68 48.999s46.833 24 70.5 32s46.834 13.833 69.501 17.5s44 5.5 64 5.5
c58.667 0 110.334 -11.5 155.001 -34.5s82 -53.5 112 -91.5s52.5 -81.667 67.5 -131s22.5 -100.333 22.5 -153zM645.002 264.005c-4 15.333 -7.16895 31.498 -9.50195 48.498s-3.5 34.5 -3.5 52.5v98c-23.333 -1.33301 -45.166 -2.5 -65.499 -3.5
s-33.833 -2.16699 -40.5 -3.5c-42 -9.33301 -76.833 -21.166 -104.5 -35.499s-49.5 -30.166 -65.5 -47.499s-27.333 -35.666 -34 -54.999s-10 -39 -10 -59c0 -20.667 3.16699 -38.334 9.5 -53.001s14.5 -26.5 24.5 -35.5s20.833 -15.5 32.5 -19.5s22.834 -6 33.501 -6
c15.333 0 32 2 50 6s36.833 10.667 56.5 20s40.167 21.5 61.5 36.5s43 33.833 65 56.5zM1050 845.003c-15.333 0 -32.332 -2.83203 -50.999 -8.49902s-36.834 -17.834 -54.501 -36.501s-33.667 -45.5 -48 -80.5s-24.833 -81.5 -31.5 -139.5h307c14 0 23.833 2.5 29.5 7.5
s8.5 14.5 8.5 28.5c0 35.333 -3.83301 67.166 -11.5 95.499s-18.5 52.333 -32.5 72s-30.833 34.834 -50.5 45.501s-41.5 16 -65.5 16z" />
    <glyph glyph-name="ccedilla" unicode="&#xe7;" horiz-adv-x="933" 
d="M710 -229c0 -24.667 -9.00488 -48.6748 -27.0049 -72.0078s-43 -44.666 -75 -63.999s-70.167 -36 -114.5 -50s-92.5 -23.667 -144.5 -29l-37 71c58 8.66699 99.5 22.834 124.5 42.501s37.5 40.167 37.5 61.5c0 22.667 -7.66699 38.834 -23 48.501
s-37.666 15.834 -66.999 18.501l3 4c2 2.66699 5.83301 11 11.5 25s13.5 35.667 23.5 65c7.33301 20 16.333 46.333 27 79c-43.333 4 -85 14.333 -125 31c-50 22 -94.167 53.333 -132.5 94s-69 90.334 -92 149.001s-34.5 125 -34.5 199c0 72 13.333 139.333 40 202
s63.834 117.167 111.501 163.5s104.5 83 170.5 110s138.667 40.5 218 40.5c22 0 46.833 -1.83301 74.5 -5.5s54.834 -9 81.501 -16s51.167 -15.333 73.5 -25s39.166 -20.5 50.499 -32.5c0.666992 -5.33301 -0.166016 -14.666 -2.49902 -27.999
s-5.66602 -28.666 -9.99902 -45.999s-9.5 -35.666 -15.5 -54.999s-12 -37.666 -18 -54.999s-12 -33 -18 -47s-11 -24 -15 -30l-67 10c-22 65.333 -49 115.833 -81 151.5s-74.667 53.5 -128 53.5c-29.333 0 -57.5 -6.66699 -84.5 -20s-50.833 -34.5 -71.5 -63.5
s-37.334 -66.167 -50.001 -111.5s-19 -100.333 -19 -165c0 -53.333 6.83301 -100.833 20.5 -142.5s32.334 -76.834 56.001 -105.501s51.5 -50.667 83.5 -66s66 -23 102 -23c18.667 0 36.667 1.16699 54 3.5s36.333 7.5 57 15.5s43.834 19.667 69.501 35s56.167 36 91.5 62
l54 -64c-43.333 -49.333 -83.333 -88.5 -120 -117.5s-71.5 -51.167 -104.5 -66.5s-64.833 -25 -95.5 -29h-1l-25 -66c52 -9.33301 92.167 -25.5 120.5 -48.5s42.5 -53.5 42.5 -91.5z" />
    <glyph glyph-name="egrave" unicode="&#xe8;" horiz-adv-x="991" 
d="M511 840c-31.333 0 -58.3311 -6 -80.998 -18s-41.834 -29.333 -57.501 -52s-28 -50 -37 -82s-15.5 -68 -19.5 -108h333c15.333 0 25.5 2.5 30.5 7.5s7.5 14.5 7.5 28.5c0 20 -2.66699 42.833 -8 68.5s-14.833 50 -28.5 73s-31.834 42.5 -54.501 58.5s-51 24 -85 24z
M926.002 550c-6 -6.66699 -14.665 -14.0039 -25.998 -22.0039s-23.666 -15.667 -36.999 -23s-26.833 -14.333 -40.5 -21s-25.834 -12 -36.501 -16h-473c1.33301 -48 7.83301 -92.167 19.5 -132.5s28.167 -75.166 49.5 -104.499s47.166 -52.166 77.499 -68.499
s65.166 -24.5 104.499 -24.5c20.667 0 40.834 1.16699 60.501 3.5s41 7.83301 64 16.5s48.833 20.834 77.5 36.501s62.667 37.167 102 64.5c4 -2 8.83301 -6 14.5 -12s11 -12.5 16 -19.5l13.5 -19.5c4 -6 6.66699 -10.333 8 -13c-46 -46.667 -87.333 -84.667 -124 -114
s-71.834 -52.166 -105.501 -68.499s-67.167 -27.5 -100.5 -33.5s-70 -9 -110 -9c-56.667 0 -110.167 11.333 -160.5 34s-94.333 54.667 -132 96s-67.5 91 -89.5 149s-33 122.333 -33 193c0 90.667 17.167 171.5 51.5 242.5s85.833 131.5 154.5 181.5
c17.333 12.667 36.833 24.834 58.5 36.501s44.334 21.667 68.001 30s48.167 15 73.5 20s50.666 7.5 75.999 7.5c65.333 0 121.833 -11.333 169.5 -34s87 -52.834 118 -90.501s54 -81.167 69 -130.5s22.5 -101 22.5 -155zM697.004 1086c-4 -4 -9.66895 -8.33301 -17.002 -13
s-15.166 -9.16699 -23.499 -13.5s-16.5 -8.16602 -24.5 -11.499s-15 -6 -21 -8l-382 377l29 56c6.66699 2 20.334 5 41.001 9l67 12.5c24 4.33301 46.833 8.16602 68.5 11.499s36.5 5.33301 44.5 6z" />
    <glyph glyph-name="eacute" unicode="&#xe9;" horiz-adv-x="991" 
d="M511 840c-31.333 0 -58.3311 -6 -80.998 -18s-41.834 -29.333 -57.501 -52s-28 -50 -37 -82s-15.5 -68 -19.5 -108h333c15.333 0 25.5 2.5 30.5 7.5s7.5 14.5 7.5 28.5c0 20 -2.66699 42.833 -8 68.5s-14.833 50 -28.5 73s-31.834 42.5 -54.501 58.5s-51 24 -85 24z
M926.002 550c-6 -6.66699 -14.665 -14.0039 -25.998 -22.0039s-23.666 -15.667 -36.999 -23s-26.833 -14.333 -40.5 -21s-25.834 -12 -36.501 -16h-473c1.33301 -48 7.83301 -92.167 19.5 -132.5s28.167 -75.166 49.5 -104.499s47.166 -52.166 77.499 -68.499
s65.166 -24.5 104.499 -24.5c20.667 0 40.834 1.16699 60.501 3.5s41 7.83301 64 16.5s48.833 20.834 77.5 36.501s62.667 37.167 102 64.5c4 -2 8.83301 -6 14.5 -12s11 -12.5 16 -19.5l13.5 -19.5c4 -6 6.66699 -10.333 8 -13c-46 -46.667 -87.333 -84.667 -124 -114
s-71.834 -52.166 -105.501 -68.499s-67.167 -27.5 -100.5 -33.5s-70 -9 -110 -9c-56.667 0 -110.167 11.333 -160.5 34s-94.333 54.667 -132 96s-67.5 91 -89.5 149s-33 122.333 -33 193c0 90.667 17.167 171.5 51.5 242.5s85.833 131.5 154.5 181.5
c17.333 12.667 36.833 24.834 58.5 36.501s44.334 21.667 68.001 30s48.167 15 73.5 20s50.666 7.5 75.999 7.5c65.333 0 121.833 -11.333 169.5 -34s87 -52.834 118 -90.501s54 -81.167 69 -130.5s22.5 -101 22.5 -155zM476.004 1040
c-6 0.666992 -13.168 2.83496 -21.501 6.50195s-16.833 7.66699 -25.5 12s-16.5 8.66602 -23.5 12.999s-12.5 8.16602 -16.5 11.499l211 429c8 -0.666992 22.833 -2.5 44.5 -5.5s44.834 -6.5 69.501 -10.5s48 -8.16699 70 -12.5s36.667 -7.5 44 -9.5l30 -54z" />
    <glyph glyph-name="ecircumflex" unicode="&#xea;" horiz-adv-x="991" 
d="M511 840c-31.333 0 -58.3311 -6 -80.998 -18s-41.834 -29.333 -57.501 -52s-28 -50 -37 -82s-15.5 -68 -19.5 -108h333c15.333 0 25.5 2.5 30.5 7.5s7.5 14.5 7.5 28.5c0 20 -2.66699 42.833 -8 68.5s-14.833 50 -28.5 73s-31.834 42.5 -54.501 58.5s-51 24 -85 24z
M926.002 550c-6 -6.66699 -14.665 -14.0039 -25.998 -22.0039s-23.666 -15.667 -36.999 -23s-26.833 -14.333 -40.5 -21s-25.834 -12 -36.501 -16h-473c1.33301 -48 7.83301 -92.167 19.5 -132.5s28.167 -75.166 49.5 -104.499s47.166 -52.166 77.499 -68.499
s65.166 -24.5 104.499 -24.5c20.667 0 40.834 1.16699 60.501 3.5s41 7.83301 64 16.5s48.833 20.834 77.5 36.501s62.667 37.167 102 64.5c4 -2 8.83301 -6 14.5 -12s11 -12.5 16 -19.5l13.5 -19.5c4 -6 6.66699 -10.333 8 -13c-46 -46.667 -87.333 -84.667 -124 -114
s-71.834 -52.166 -105.501 -68.499s-67.167 -27.5 -100.5 -33.5s-70 -9 -110 -9c-56.667 0 -110.167 11.333 -160.5 34s-94.333 54.667 -132 96s-67.5 91 -89.5 149s-33 122.333 -33 193c0 90.667 17.167 171.5 51.5 242.5s85.833 131.5 154.5 181.5
c17.333 12.667 36.833 24.834 58.5 36.501s44.334 21.667 68.001 30s48.167 15 73.5 20s50.666 7.5 75.999 7.5c65.333 0 121.833 -11.333 169.5 -34s87 -52.834 118 -90.501s54 -81.167 69 -130.5s22.5 -101 22.5 -155zM875.004 1107c-8 -12.667 -16.833 -25.667 -26.5 -39
s-20.167 -22.666 -31.5 -27.999l-281 223l-279 -223c-11.333 5.33301 -23 14.666 -35 27.999s-22.667 26.333 -32 39l279 387h137z" />
    <glyph glyph-name="edieresis" unicode="&#xeb;" horiz-adv-x="991" 
d="M511 840c-31.333 0 -58.3311 -6 -80.998 -18s-41.834 -29.333 -57.501 -52s-28 -50 -37 -82s-15.5 -68 -19.5 -108h333c15.333 0 25.5 2.5 30.5 7.5s7.5 14.5 7.5 28.5c0 20 -2.66699 42.833 -8 68.5s-14.833 50 -28.5 73s-31.834 42.5 -54.501 58.5s-51 24 -85 24z
M926.002 550c-6 -6.66699 -14.665 -14.0039 -25.998 -22.0039s-23.666 -15.667 -36.999 -23s-26.833 -14.333 -40.5 -21s-25.834 -12 -36.501 -16h-473c1.33301 -48 7.83301 -92.167 19.5 -132.5s28.167 -75.166 49.5 -104.499s47.166 -52.166 77.499 -68.499
s65.166 -24.5 104.499 -24.5c20.667 0 40.834 1.16699 60.501 3.5s41 7.83301 64 16.5s48.833 20.834 77.5 36.501s62.667 37.167 102 64.5c4 -2 8.83301 -6 14.5 -12s11 -12.5 16 -19.5l13.5 -19.5c4 -6 6.66699 -10.333 8 -13c-46 -46.667 -87.333 -84.667 -124 -114
s-71.834 -52.166 -105.501 -68.499s-67.167 -27.5 -100.5 -33.5s-70 -9 -110 -9c-56.667 0 -110.167 11.333 -160.5 34s-94.333 54.667 -132 96s-67.5 91 -89.5 149s-33 122.333 -33 193c0 90.667 17.167 171.5 51.5 242.5s85.833 131.5 154.5 181.5
c17.333 12.667 36.833 24.834 58.5 36.501s44.334 21.667 68.001 30s48.167 15 73.5 20s50.666 7.5 75.999 7.5c65.333 0 121.833 -11.333 169.5 -34s87 -52.834 118 -90.501s54 -81.167 69 -130.5s22.5 -101 22.5 -155zM885.004 1268
c0 -24.667 -4.16895 -47.667 -12.502 -69s-19.666 -40 -33.999 -56s-31 -28.667 -50 -38s-39.167 -14 -60.5 -14c-38.667 0 -68 10.333 -88 31s-30 51 -30 91c0 24.667 4.33301 47.667 13 69s20.167 40 34.5 56s30.833 28.5 49.5 37.5s38.334 13.5 59.001 13.5
c37.333 0 66.5 -10 87.5 -30s31.5 -50.333 31.5 -91zM462.002 1268c0 -24.667 -4.16699 -47.667 -12.5 -69s-19.5 -40 -33.5 -56s-30.5 -28.667 -49.5 -38s-39.167 -14 -60.5 -14c-38.667 0 -68.167 10.333 -88.5 31s-30.5 51 -30.5 91c0 24.667 4.33301 47.667 13 69
s20.167 40 34.5 56s31 28.5 50 37.5s38.5 13.5 58.5 13.5c38 0 67.333 -10 88 -30s31 -50.333 31 -91z" />
    <glyph glyph-name="igrave" unicode="&#xec;" horiz-adv-x="615" 
d="M63 0l0.00390625 73c45.333 9.33301 78.666 19.5 99.999 30.5s32 21.167 32 30.5v514c0 34 -0.333008 61.5 -1 82.5s-4.83398 37.333 -12.501 49s-20.5 20.167 -38.5 25.5s-44.667 9.66602 -80 12.999v70c57.333 8 111.666 17.833 162.999 29.5
s99.666 25.834 144.999 42.501h64v-826c0 -8 10 -17.833 30 -29.5s54.333 -22.167 103 -31.5v-73h-505zM476.004 1086c-4 -4 -9.66895 -8.33301 -17.002 -13s-15.166 -9.16699 -23.499 -13.5s-16.5 -8.16602 -24.5 -11.499s-15 -6 -21 -8l-382 377l29 56
c6.66699 2 20.334 5 41.001 9l67 12.5c24 4.33301 46.833 8.16602 68.5 11.499s36.5 5.33301 44.5 6z" />
    <glyph glyph-name="iacute" unicode="&#xed;" horiz-adv-x="615" 
d="M63 0l0.00390625 73c45.333 9.33301 78.666 19.5 99.999 30.5s32 21.167 32 30.5v514c0 34 -0.333008 61.5 -1 82.5s-4.83398 37.333 -12.501 49s-20.5 20.167 -38.5 25.5s-44.667 9.66602 -80 12.999v70c57.333 8 111.666 17.833 162.999 29.5
s99.666 25.834 144.999 42.501h64v-826c0 -8 10 -17.833 30 -29.5s54.333 -22.167 103 -31.5v-73h-505zM255.004 1040c-6 0.666992 -13.168 2.83496 -21.501 6.50195s-16.833 7.66699 -25.5 12s-16.5 8.66602 -23.5 12.999s-12.5 8.16602 -16.5 11.499l211 429
c8 -0.666992 22.833 -2.5 44.5 -5.5s44.834 -6.5 69.501 -10.5s48 -8.16699 70 -12.5s36.667 -7.5 44 -9.5l30 -54z" />
    <glyph glyph-name="icircumflex" unicode="&#xee;" horiz-adv-x="615" 
d="M63 0l0.00390625 73c45.333 9.33301 78.666 19.5 99.999 30.5s32 21.167 32 30.5v514c0 34 -0.333008 61.5 -1 82.5s-4.83398 37.333 -12.501 49s-20.5 20.167 -38.5 25.5s-44.667 9.66602 -80 12.999v70c57.333 8 111.666 17.833 162.999 29.5
s99.666 25.834 144.999 42.501h64v-826c0 -8 10 -17.833 30 -29.5s54.333 -22.167 103 -31.5v-73h-505zM654.004 1107c-8 -12.667 -16.833 -25.667 -26.5 -39s-20.167 -22.666 -31.5 -27.999l-281 223l-279 -223c-11.333 5.33301 -23 14.666 -35 27.999
s-22.667 26.333 -32 39l279 387h137z" />
    <glyph glyph-name="idieresis" unicode="&#xef;" horiz-adv-x="615" 
d="M63 0l0.00390625 73c45.333 9.33301 78.666 19.5 99.999 30.5s32 21.167 32 30.5v514c0 34 -0.333008 61.5 -1 82.5s-4.83398 37.333 -12.501 49s-20.5 20.167 -38.5 25.5s-44.667 9.66602 -80 12.999v70c57.333 8 111.666 17.833 162.999 29.5
s99.666 25.834 144.999 42.501h64v-826c0 -8 10 -17.833 30 -29.5s54.333 -22.167 103 -31.5v-73h-505zM664.004 1268c0 -24.667 -4.16895 -47.667 -12.502 -69s-19.666 -40 -33.999 -56s-31 -28.667 -50 -38s-39.167 -14 -60.5 -14c-38.667 0 -68 10.333 -88 31
s-30 51 -30 91c0 24.667 4.33301 47.667 13 69s20.167 40 34.5 56s30.833 28.5 49.5 37.5s38.334 13.5 59.001 13.5c37.333 0 66.5 -10 87.5 -30s31.5 -50.333 31.5 -91zM241.002 1268c0 -24.667 -4.16699 -47.667 -12.5 -69s-19.5 -40 -33.5 -56s-30.5 -28.667 -49.5 -38
s-39.167 -14 -60.5 -14c-38.667 0 -68.167 10.333 -88.5 31s-30.5 51 -30.5 91c0 24.667 4.33301 47.667 13 69s20.167 40 34.5 56s31 28.5 50 37.5s38.5 13.5 58.5 13.5c38 0 67.333 -10 88 -30s31 -50.333 31 -91z" />
    <glyph glyph-name="eth" unicode="&#xf0;" horiz-adv-x="1046" 
d="M740 612c-10.667 36 -25.5 67.5029 -44.5 94.5029s-40.167 49.5 -63.5 67.5s-47.333 31.5 -72 40.5s-48 13.5 -70 13.5c-60 0 -105 -30 -135 -90s-45 -143.333 -45 -250c0 -52.667 6 -102.834 18 -150.501s28.167 -89.5 48.5 -125.5s43.666 -64.5 69.999 -85.5
s53.833 -31.5 82.5 -31.5c36.667 0 68.334 9.16699 95.001 27.5s48.5 46.666 65.5 84.999s29.667 87.166 38 146.499s12.5 130 12.5 212v46zM980 607.003c0 -76.667 -7.33105 -145.662 -21.998 -206.995s-34.334 -115.666 -59.001 -162.999s-52.834 -87.833 -84.501 -121.5
s-64.667 -61.334 -99 -83.001s-68.5 -37.5 -102.5 -47.5s-65.333 -15 -94 -15c-70.667 0 -134.167 12 -190.5 36s-104 57 -143 99s-68.833 92 -89.5 150s-31 121 -31 189c0 44 5 87.333 15 130s24.333 83.167 43 121.5s41.167 73.666 67.5 105.999
s55.833 60.166 88.5 83.499s68 41.666 106 54.999s78.333 20 121 20c40.667 0 78.667 -7.83301 114 -23.5s66.666 -37.834 93.999 -66.501c-13.333 52 -31.333 99.833 -54 143.5s-54.334 88.167 -95.001 133.5l-211 -87c-12.667 0.666992 -24.167 1.33398 -34.5 2.00098
s-20.166 1.5 -29.499 2.5s-19 2.66699 -29 5s-20.667 5.16602 -32 8.49902l-11 44l262 110c-37.333 27.333 -80.166 48.333 -128.499 63s-101.5 18 -159.5 10l-12 71l268 94l55.5 -38l56 -41l53 -41.5c17 -13.667 32.5 -26.834 46.5 -39.501l187 77
c31.333 -3.33301 56.333 -6.33301 75 -9s36.667 -7 54 -13l7 -42l-239 -99c86 -96 147 -195.667 183 -299s54 -209.333 54 -318z" />
    <glyph glyph-name="ntilde" unicode="&#xf1;" horiz-adv-x="1190" 
d="M663 0v73.002c48 12.667 82 23.667 102 33s30 18.666 30 27.999v454c0 36.667 -1.83301 67.167 -5.5 91.5s-9.5 43.833 -17.5 58.5s-18.667 25 -32 31s-30 9 -50 9c-16 0 -33 -2.16699 -51 -6.5s-37.833 -11.666 -59.5 -21.999s-45.667 -24.5 -72 -42.5
s-55.5 -40.667 -87.5 -68v-505c0 -10 11.333 -20.333 34 -31s55.667 -20.667 99 -30v-73h-505v73c44 11.333 77 21.5 99 30.5s33 19.167 33 30.5v555c0 26 -0.5 46.667 -1.5 62s-5.5 27.333 -13.5 36s-21 15 -39 19s-44 8 -78 12v70c32 3.33301 61.833 7.33301 89.5 12
s54.167 9.83398 79.5 15.501s50 12.167 74 19.5s48 15.666 72 24.999l42 -42l11 -144c78 66.667 150.833 114.334 218.5 143.001s127.5 43 179.5 43c28.667 0 56.334 -4.5 83.001 -13.5s50.167 -23.667 70.5 -44s36.666 -46.833 48.999 -79.5s18.5 -72.334 18.5 -119.001
v-570c0 -4.66699 2 -9.16699 6 -13.5s11 -8.83301 21 -13.5s23.667 -9.83398 41 -15.501s39 -11.834 65 -18.501v-73h-505zM1001 1377c-12 -27.333 -26.6699 -57.167 -44.0029 -89.5s-37 -62.5 -59 -90.5s-46.5 -51.5 -73.5 -70.5s-55.833 -28.5 -86.5 -28.5
c-28.667 0 -56 5.5 -82 16.5s-51.333 23 -76 36s-49.167 25 -73.5 36s-49.166 16.5 -74.499 16.5c-15.333 0 -29 -2.5 -41 -7.5s-23.5 -12.333 -34.5 -22s-22 -21.667 -33 -36s-22.5 -30.833 -34.5 -49.5l-75 28c12 27.333 26.5 57.333 43.5 90s36.5 63.167 58.5 91.5
s46.333 52 73 71s55.334 28.5 86.001 28.5s59.834 -5.5 87.501 -16.5s54 -23 79 -36l71.5 -36c22.667 -11 44.667 -16.5 66 -16.5c30 0 56 9.33301 78 28s44.333 47.667 67 87z" />
    <glyph glyph-name="ograve" unicode="&#xf2;" horiz-adv-x="1075" 
d="M758 440c0 52.667 -5.50293 102.832 -16.5029 150.499s-26.5 89.667 -46.5 126s-44.167 65.166 -72.5 86.499s-59.5 32 -93.5 32c-41.333 0 -75.666 -9.16699 -102.999 -27.5s-49 -43.666 -65 -75.999s-27.167 -70.666 -33.5 -114.999s-9.5 -92.166 -9.5 -143.499
c0 -52.667 6.16699 -102 18.5 -148s29 -86 50 -120s45.333 -60.833 73 -80.5s56.834 -29.5 87.501 -29.5c40 0 73.333 7.66699 100 23s48.334 37.666 65.001 66.999s28.5 65.333 35.5 108s10.5 91.667 10.5 147zM1010 484.998c0 -44.667 -6.00098 -88.334 -18.001 -131.001
s-28.833 -83 -50.5 -121s-47.5 -73.167 -77.5 -105.5s-63.167 -60.166 -99.5 -83.499s-75.333 -41.5 -117 -54.5s-84.5 -19.5 -128.5 -19.5c-68.667 0 -131 12 -187 36s-103.667 57 -143 99s-69.833 92 -91.5 150s-32.5 121 -32.5 189c0 66 12.167 130 36.5 192
s58.333 117 102 165s95.667 86.5 156 115.5s126.5 43.5 198.5 43.5c68 0 129.833 -12 185.5 -36s103.334 -57.167 143.001 -99.5s70.167 -92.5 91.5 -150.5s32 -121 32 -189zM719.996 1086c-4 -4 -9.66895 -8.33301 -17.002 -13s-15.166 -9.16699 -23.499 -13.5
s-16.5 -8.16602 -24.5 -11.499s-15 -6 -21 -8l-382 377l29 56c6.66699 2 20.334 5 41.001 9l67 12.5c24 4.33301 46.833 8.16602 68.5 11.499s36.5 5.33301 44.5 6z" />
    <glyph glyph-name="oacute" unicode="&#xf3;" horiz-adv-x="1075" 
d="M758 440c0 52.667 -5.50293 102.832 -16.5029 150.499s-26.5 89.667 -46.5 126s-44.167 65.166 -72.5 86.499s-59.5 32 -93.5 32c-41.333 0 -75.666 -9.16699 -102.999 -27.5s-49 -43.666 -65 -75.999s-27.167 -70.666 -33.5 -114.999s-9.5 -92.166 -9.5 -143.499
c0 -52.667 6.16699 -102 18.5 -148s29 -86 50 -120s45.333 -60.833 73 -80.5s56.834 -29.5 87.501 -29.5c40 0 73.333 7.66699 100 23s48.334 37.666 65.001 66.999s28.5 65.333 35.5 108s10.5 91.667 10.5 147zM1010 484.998c0 -44.667 -6.00098 -88.334 -18.001 -131.001
s-28.833 -83 -50.5 -121s-47.5 -73.167 -77.5 -105.5s-63.167 -60.166 -99.5 -83.499s-75.333 -41.5 -117 -54.5s-84.5 -19.5 -128.5 -19.5c-68.667 0 -131 12 -187 36s-103.667 57 -143 99s-69.833 92 -91.5 150s-32.5 121 -32.5 189c0 66 12.167 130 36.5 192
s58.333 117 102 165s95.667 86.5 156 115.5s126.5 43.5 198.5 43.5c68 0 129.833 -12 185.5 -36s103.334 -57.167 143.001 -99.5s70.167 -92.5 91.5 -150.5s32 -121 32 -189zM498.996 1040c-6 0.666992 -13.168 2.83496 -21.501 6.50195s-16.833 7.66699 -25.5 12
s-16.5 8.66602 -23.5 12.999s-12.5 8.16602 -16.5 11.499l211 429c8 -0.666992 22.833 -2.5 44.5 -5.5s44.834 -6.5 69.501 -10.5s48 -8.16699 70 -12.5s36.667 -7.5 44 -9.5l30 -54z" />
    <glyph glyph-name="ocircumflex" unicode="&#xf4;" horiz-adv-x="1075" 
d="M758 440c0 52.667 -5.50293 102.832 -16.5029 150.499s-26.5 89.667 -46.5 126s-44.167 65.166 -72.5 86.499s-59.5 32 -93.5 32c-41.333 0 -75.666 -9.16699 -102.999 -27.5s-49 -43.666 -65 -75.999s-27.167 -70.666 -33.5 -114.999s-9.5 -92.166 -9.5 -143.499
c0 -52.667 6.16699 -102 18.5 -148s29 -86 50 -120s45.333 -60.833 73 -80.5s56.834 -29.5 87.501 -29.5c40 0 73.333 7.66699 100 23s48.334 37.666 65.001 66.999s28.5 65.333 35.5 108s10.5 91.667 10.5 147zM1010 484.998c0 -44.667 -6.00098 -88.334 -18.001 -131.001
s-28.833 -83 -50.5 -121s-47.5 -73.167 -77.5 -105.5s-63.167 -60.166 -99.5 -83.499s-75.333 -41.5 -117 -54.5s-84.5 -19.5 -128.5 -19.5c-68.667 0 -131 12 -187 36s-103.667 57 -143 99s-69.833 92 -91.5 150s-32.5 121 -32.5 189c0 66 12.167 130 36.5 192
s58.333 117 102 165s95.667 86.5 156 115.5s126.5 43.5 198.5 43.5c68 0 129.833 -12 185.5 -36s103.334 -57.167 143.001 -99.5s70.167 -92.5 91.5 -150.5s32 -121 32 -189zM897.996 1107c-8 -12.667 -16.833 -25.667 -26.5 -39s-20.167 -22.666 -31.5 -27.999l-281 223
l-279 -223c-11.333 5.33301 -23 14.666 -35 27.999s-22.667 26.333 -32 39l279 387h137z" />
    <glyph glyph-name="otilde" unicode="&#xf5;" horiz-adv-x="1075" 
d="M758 440c0 52.667 -5.50293 102.832 -16.5029 150.499s-26.5 89.667 -46.5 126s-44.167 65.166 -72.5 86.499s-59.5 32 -93.5 32c-41.333 0 -75.666 -9.16699 -102.999 -27.5s-49 -43.666 -65 -75.999s-27.167 -70.666 -33.5 -114.999s-9.5 -92.166 -9.5 -143.499
c0 -52.667 6.16699 -102 18.5 -148s29 -86 50 -120s45.333 -60.833 73 -80.5s56.834 -29.5 87.501 -29.5c40 0 73.333 7.66699 100 23s48.334 37.666 65.001 66.999s28.5 65.333 35.5 108s10.5 91.667 10.5 147zM1010 484.998c0 -44.667 -6.00098 -88.334 -18.001 -131.001
s-28.833 -83 -50.5 -121s-47.5 -73.167 -77.5 -105.5s-63.167 -60.166 -99.5 -83.499s-75.333 -41.5 -117 -54.5s-84.5 -19.5 -128.5 -19.5c-68.667 0 -131 12 -187 36s-103.667 57 -143 99s-69.833 92 -91.5 150s-32.5 121 -32.5 189c0 66 12.167 130 36.5 192
s58.333 117 102 165s95.667 86.5 156 115.5s126.5 43.5 198.5 43.5c68 0 129.833 -12 185.5 -36s103.334 -57.167 143.001 -99.5s70.167 -92.5 91.5 -150.5s32 -121 32 -189zM952.996 1377c-12 -27.333 -26.6699 -57.167 -44.0029 -89.5s-37 -62.5 -59 -90.5
s-46.5 -51.5 -73.5 -70.5s-55.833 -28.5 -86.5 -28.5c-28.667 0 -56 5.5 -82 16.5s-51.333 23 -76 36s-49.167 25 -73.5 36s-49.166 16.5 -74.499 16.5c-15.333 0 -29 -2.5 -41 -7.5s-23.5 -12.333 -34.5 -22s-22 -21.667 -33 -36s-22.5 -30.833 -34.5 -49.5l-75 28
c12 27.333 26.5 57.333 43.5 90s36.5 63.167 58.5 91.5s46.333 52 73 71s55.334 28.5 86.001 28.5s59.834 -5.5 87.501 -16.5s54 -23 79 -36l71.5 -36c22.667 -11 44.667 -16.5 66 -16.5c30 0 56 9.33301 78 28s44.333 47.667 67 87z" />
    <glyph glyph-name="odieresis" unicode="&#xf6;" horiz-adv-x="1075" 
d="M758 440c0 52.667 -5.50293 102.832 -16.5029 150.499s-26.5 89.667 -46.5 126s-44.167 65.166 -72.5 86.499s-59.5 32 -93.5 32c-41.333 0 -75.666 -9.16699 -102.999 -27.5s-49 -43.666 -65 -75.999s-27.167 -70.666 -33.5 -114.999s-9.5 -92.166 -9.5 -143.499
c0 -52.667 6.16699 -102 18.5 -148s29 -86 50 -120s45.333 -60.833 73 -80.5s56.834 -29.5 87.501 -29.5c40 0 73.333 7.66699 100 23s48.334 37.666 65.001 66.999s28.5 65.333 35.5 108s10.5 91.667 10.5 147zM1010 484.998c0 -44.667 -6.00098 -88.334 -18.001 -131.001
s-28.833 -83 -50.5 -121s-47.5 -73.167 -77.5 -105.5s-63.167 -60.166 -99.5 -83.499s-75.333 -41.5 -117 -54.5s-84.5 -19.5 -128.5 -19.5c-68.667 0 -131 12 -187 36s-103.667 57 -143 99s-69.833 92 -91.5 150s-32.5 121 -32.5 189c0 66 12.167 130 36.5 192
s58.333 117 102 165s95.667 86.5 156 115.5s126.5 43.5 198.5 43.5c68 0 129.833 -12 185.5 -36s103.334 -57.167 143.001 -99.5s70.167 -92.5 91.5 -150.5s32 -121 32 -189zM907.996 1268c0 -24.667 -4.16895 -47.667 -12.502 -69s-19.666 -40 -33.999 -56
s-31 -28.667 -50 -38s-39.167 -14 -60.5 -14c-38.667 0 -68 10.333 -88 31s-30 51 -30 91c0 24.667 4.33301 47.667 13 69s20.167 40 34.5 56s30.833 28.5 49.5 37.5s38.334 13.5 59.001 13.5c37.333 0 66.5 -10 87.5 -30s31.5 -50.333 31.5 -91zM484.994 1268
c0 -24.667 -4.16699 -47.667 -12.5 -69s-19.5 -40 -33.5 -56s-30.5 -28.667 -49.5 -38s-39.167 -14 -60.5 -14c-38.667 0 -68.167 10.333 -88.5 31s-30.5 51 -30.5 91c0 24.667 4.33301 47.667 13 69s20.167 40 34.5 56s31 28.5 50 37.5s38.5 13.5 58.5 13.5
c38 0 67.333 -10 88 -30s31 -50.333 31 -91z" />
    <glyph glyph-name="divide" unicode="&#xf7;" horiz-adv-x="863" 
d="M538 324c0 -19.333 -2.99805 -37.5 -8.99805 -54.5s-14.5 -32 -25.5 -45s-23.833 -23.333 -38.5 -31s-30.334 -11.5 -47.001 -11.5c-30.667 0 -52.834 8.83301 -66.501 26.5s-20.5 42.5 -20.5 74.5c0 19.333 3.16699 37.5 9.5 54.5s15 31.833 26 44.5
s23.667 22.667 38 30s29.833 11 46.5 11c58 0 87 -33 87 -99zM538.002 845c0 -19.333 -2.99805 -37.5 -8.99805 -54.5s-14.5 -32 -25.5 -45s-23.833 -23.333 -38.5 -31s-30.334 -11.5 -47.001 -11.5c-30.667 0 -52.834 8.66699 -66.501 26s-20.5 42 -20.5 74
c0 19.333 3.16699 37.5 9.5 54.5s15 31.833 26 44.5s23.667 22.667 38 30s29.833 11 46.5 11c58 0 87 -32.667 87 -98zM810.004 603c-2 -7.33301 -5 -16.168 -9 -26.501l-13 -32l-13.5 -31c-4.33301 -9.66699 -7.83301 -17.167 -10.5 -22.5h-679l-32 31
c2 7.33301 4.83301 16 8.5 26s7.83398 20.333 12.501 31l13.5 30.5c4.33301 9.66699 8.16602 17.834 11.499 24.501h678z" />
    <glyph glyph-name="oslash" unicode="&#xf8;" horiz-adv-x="1075" 
d="M760 440c0 29.333 -2.83301 59.6689 -8.5 91.002s-12.167 59.666 -19.5 84.999l-335 -430c20.667 -26 44 -47.667 70 -65s52.667 -26 80 -26c40 0 73.5 7.66699 100.5 23s48.833 37.666 65.5 66.999s28.667 65.333 36 108s11 91.667 11 147zM316 473.003
c0 -27.333 2.33105 -55.5029 6.99805 -84.5029s10.667 -54.833 18 -77.5l337 435c-19.333 26 -42 47.333 -68 64s-53 25 -81 25c-41.333 0 -75.666 -9.16699 -102.999 -27.5s-49.166 -43.666 -65.499 -75.999s-27.833 -70.666 -34.5 -114.999s-10 -92.166 -10 -143.499z
M996.998 952l-104.002 -134.001c36 -42 64.5 -91.667 85.5 -149s31.5 -118.666 31.5 -183.999c0 -44.667 -6 -88.334 -18 -131.001s-28.833 -83 -50.5 -121s-47.5 -73.167 -77.5 -105.5s-63.167 -60.166 -99.5 -83.499s-75.333 -41.5 -117 -54.5s-84.5 -19.5 -128.5 -19.5
c-44.667 0 -87.667 5.66699 -129 17s-78.666 26.666 -111.999 45.999l-14 -19c-6 -5.33301 -15.667 -11.333 -29 -18s-27.833 -13.167 -43.5 -19.5s-31.167 -12.166 -46.5 -17.499s-28 -9.33301 -38 -12l-26 31l103 133c-36 42 -64.833 91.667 -86.5 149
s-32.5 118.666 -32.5 183.999c0 66 12.167 130 36.5 192s58.333 117 102 165s95.667 86.5 156 115.5s126.5 43.5 198.5 43.5c44 0 86.333 -5.66699 127 -17s77.334 -26.666 110.001 -45.999l15 18c8.66699 6 19.667 12.333 33 19l41.5 20
c14.333 6.66699 28.833 12.5 43.5 17.5s27.667 8.83301 39 11.5z" />
    <glyph glyph-name="ugrave" unicode="&#xf9;" horiz-adv-x="1153" 
d="M1144 112c-24.667 -16 -51.8301 -32.3311 -81.4971 -48.998s-58.334 -32 -86.001 -46s-52.334 -25.333 -74.001 -34s-36.5 -13 -44.5 -13c-12 0 -23.5 2.16699 -34.5 6.5s-21.333 12.666 -31 24.999s-18.167 29.333 -25.5 51s-13 49.5 -17 83.5
c-41.333 -36 -78.5 -64.833 -111.5 -86.5s-63 -38.5 -90 -50.5s-51.833 -19.833 -74.5 -23.5s-44.667 -5.5 -66 -5.5c-31.333 0 -62 4.33301 -92 13s-57 24.5 -81 47.5s-43.333 54.5 -58 94.5s-22 91.333 -22 154v410c0 32 -0.5 56.833 -1.5 74.5s-5.33301 31 -13 40
s-19.667 15.167 -36 18.5s-39.833 6.66602 -70.5 9.99902v70c33.333 2.66699 63.833 5.66699 91.5 9s54.167 7.16602 79.5 11.499s50.5 9.5 75.5 15.5s51.5 13.333 79.5 22l35 -46v-572c0 -41.333 2.5 -75 7.5 -101s12.5 -46.167 22.5 -60.5s22.167 -24.166 36.5 -29.499
s30.833 -8 49.5 -8c14 0 29.167 1.66699 45.5 5s34.333 9.5 54 18.5s41 21.167 64 36.5s48.167 35 75.5 59v427c0 30 -1.16699 54 -3.5 72s-7.83301 32 -16.5 42s-21.834 17 -39.501 21s-41.834 6.66699 -72.501 8v70c66.667 6 127.167 14.167 181.5 24.5
s105.5 21.5 153.5 33.5l37 -46v-630c0 -20.667 0.333008 -37.834 1 -51.501s1.83398 -25 3.50098 -34s4 -16.167 7 -21.5s6.83301 -9.66602 11.5 -12.999c8 -5.33301 19.167 -6.5 33.5 -3.5s38.5 11.833 72.5 26.5zM738.004 1086c-4 -4 -9.66895 -8.33301 -17.002 -13
s-15.166 -9.16699 -23.499 -13.5s-16.5 -8.16602 -24.5 -11.499s-15 -6 -21 -8l-382 377l29 56c6.66699 2 20.334 5 41.001 9l67 12.5c24 4.33301 46.833 8.16602 68.5 11.499s36.5 5.33301 44.5 6z" />
    <glyph glyph-name="uacute" unicode="&#xfa;" horiz-adv-x="1153" 
d="M1144 112c-24.667 -16 -51.8301 -32.3311 -81.4971 -48.998s-58.334 -32 -86.001 -46s-52.334 -25.333 -74.001 -34s-36.5 -13 -44.5 -13c-12 0 -23.5 2.16699 -34.5 6.5s-21.333 12.666 -31 24.999s-18.167 29.333 -25.5 51s-13 49.5 -17 83.5
c-41.333 -36 -78.5 -64.833 -111.5 -86.5s-63 -38.5 -90 -50.5s-51.833 -19.833 -74.5 -23.5s-44.667 -5.5 -66 -5.5c-31.333 0 -62 4.33301 -92 13s-57 24.5 -81 47.5s-43.333 54.5 -58 94.5s-22 91.333 -22 154v410c0 32 -0.5 56.833 -1.5 74.5s-5.33301 31 -13 40
s-19.667 15.167 -36 18.5s-39.833 6.66602 -70.5 9.99902v70c33.333 2.66699 63.833 5.66699 91.5 9s54.167 7.16602 79.5 11.499s50.5 9.5 75.5 15.5s51.5 13.333 79.5 22l35 -46v-572c0 -41.333 2.5 -75 7.5 -101s12.5 -46.167 22.5 -60.5s22.167 -24.166 36.5 -29.499
s30.833 -8 49.5 -8c14 0 29.167 1.66699 45.5 5s34.333 9.5 54 18.5s41 21.167 64 36.5s48.167 35 75.5 59v427c0 30 -1.16699 54 -3.5 72s-7.83301 32 -16.5 42s-21.834 17 -39.501 21s-41.834 6.66699 -72.501 8v70c66.667 6 127.167 14.167 181.5 24.5
s105.5 21.5 153.5 33.5l37 -46v-630c0 -20.667 0.333008 -37.834 1 -51.501s1.83398 -25 3.50098 -34s4 -16.167 7 -21.5s6.83301 -9.66602 11.5 -12.999c8 -5.33301 19.167 -6.5 33.5 -3.5s38.5 11.833 72.5 26.5zM517.004 1040
c-6 0.666992 -13.168 2.83496 -21.501 6.50195s-16.833 7.66699 -25.5 12s-16.5 8.66602 -23.5 12.999s-12.5 8.16602 -16.5 11.499l211 429c8 -0.666992 22.833 -2.5 44.5 -5.5s44.834 -6.5 69.501 -10.5s48 -8.16699 70 -12.5s36.667 -7.5 44 -9.5l30 -54z" />
    <glyph glyph-name="ucircumflex" unicode="&#xfb;" horiz-adv-x="1153" 
d="M1144 112c-24.667 -16 -51.8301 -32.3311 -81.4971 -48.998s-58.334 -32 -86.001 -46s-52.334 -25.333 -74.001 -34s-36.5 -13 -44.5 -13c-12 0 -23.5 2.16699 -34.5 6.5s-21.333 12.666 -31 24.999s-18.167 29.333 -25.5 51s-13 49.5 -17 83.5
c-41.333 -36 -78.5 -64.833 -111.5 -86.5s-63 -38.5 -90 -50.5s-51.833 -19.833 -74.5 -23.5s-44.667 -5.5 -66 -5.5c-31.333 0 -62 4.33301 -92 13s-57 24.5 -81 47.5s-43.333 54.5 -58 94.5s-22 91.333 -22 154v410c0 32 -0.5 56.833 -1.5 74.5s-5.33301 31 -13 40
s-19.667 15.167 -36 18.5s-39.833 6.66602 -70.5 9.99902v70c33.333 2.66699 63.833 5.66699 91.5 9s54.167 7.16602 79.5 11.499s50.5 9.5 75.5 15.5s51.5 13.333 79.5 22l35 -46v-572c0 -41.333 2.5 -75 7.5 -101s12.5 -46.167 22.5 -60.5s22.167 -24.166 36.5 -29.499
s30.833 -8 49.5 -8c14 0 29.167 1.66699 45.5 5s34.333 9.5 54 18.5s41 21.167 64 36.5s48.167 35 75.5 59v427c0 30 -1.16699 54 -3.5 72s-7.83301 32 -16.5 42s-21.834 17 -39.501 21s-41.834 6.66699 -72.501 8v70c66.667 6 127.167 14.167 181.5 24.5
s105.5 21.5 153.5 33.5l37 -46v-630c0 -20.667 0.333008 -37.834 1 -51.501s1.83398 -25 3.50098 -34s4 -16.167 7 -21.5s6.83301 -9.66602 11.5 -12.999c8 -5.33301 19.167 -6.5 33.5 -3.5s38.5 11.833 72.5 26.5zM916.004 1107c-8 -12.667 -16.833 -25.667 -26.5 -39
s-20.167 -22.666 -31.5 -27.999l-281 223l-279 -223c-11.333 5.33301 -23 14.666 -35 27.999s-22.667 26.333 -32 39l279 387h137z" />
    <glyph glyph-name="udieresis" unicode="&#xfc;" horiz-adv-x="1153" 
d="M1144 112c-24.667 -16 -51.8301 -32.3311 -81.4971 -48.998s-58.334 -32 -86.001 -46s-52.334 -25.333 -74.001 -34s-36.5 -13 -44.5 -13c-12 0 -23.5 2.16699 -34.5 6.5s-21.333 12.666 -31 24.999s-18.167 29.333 -25.5 51s-13 49.5 -17 83.5
c-41.333 -36 -78.5 -64.833 -111.5 -86.5s-63 -38.5 -90 -50.5s-51.833 -19.833 -74.5 -23.5s-44.667 -5.5 -66 -5.5c-31.333 0 -62 4.33301 -92 13s-57 24.5 -81 47.5s-43.333 54.5 -58 94.5s-22 91.333 -22 154v410c0 32 -0.5 56.833 -1.5 74.5s-5.33301 31 -13 40
s-19.667 15.167 -36 18.5s-39.833 6.66602 -70.5 9.99902v70c33.333 2.66699 63.833 5.66699 91.5 9s54.167 7.16602 79.5 11.499s50.5 9.5 75.5 15.5s51.5 13.333 79.5 22l35 -46v-572c0 -41.333 2.5 -75 7.5 -101s12.5 -46.167 22.5 -60.5s22.167 -24.166 36.5 -29.499
s30.833 -8 49.5 -8c14 0 29.167 1.66699 45.5 5s34.333 9.5 54 18.5s41 21.167 64 36.5s48.167 35 75.5 59v427c0 30 -1.16699 54 -3.5 72s-7.83301 32 -16.5 42s-21.834 17 -39.501 21s-41.834 6.66699 -72.501 8v70c66.667 6 127.167 14.167 181.5 24.5
s105.5 21.5 153.5 33.5l37 -46v-630c0 -20.667 0.333008 -37.834 1 -51.501s1.83398 -25 3.50098 -34s4 -16.167 7 -21.5s6.83301 -9.66602 11.5 -12.999c8 -5.33301 19.167 -6.5 33.5 -3.5s38.5 11.833 72.5 26.5zM926.004 1268c0 -24.667 -4.16895 -47.667 -12.502 -69
s-19.666 -40 -33.999 -56s-31 -28.667 -50 -38s-39.167 -14 -60.5 -14c-38.667 0 -68 10.333 -88 31s-30 51 -30 91c0 24.667 4.33301 47.667 13 69s20.167 40 34.5 56s30.833 28.5 49.5 37.5s38.334 13.5 59.001 13.5c37.333 0 66.5 -10 87.5 -30s31.5 -50.333 31.5 -91z
M503.002 1268c0 -24.667 -4.16699 -47.667 -12.5 -69s-19.5 -40 -33.5 -56s-30.5 -28.667 -49.5 -38s-39.167 -14 -60.5 -14c-38.667 0 -68.167 10.333 -88.5 31s-30.5 51 -30.5 91c0 24.667 4.33301 47.667 13 69s20.167 40 34.5 56s31 28.5 50 37.5s38.5 13.5 58.5 13.5
c38 0 67.333 -10 88 -30s31 -50.333 31 -91z" />
    </font>
</defs>
</svg>
