<?xml version="1.0" standalone="no"?>
<!DOCTYPE svg PUBLIC "-//W3C//DTD SVG 1.1//EN" "http://www.w3.org/Graphics/SVG/1.1/DTD/svg11.dtd" >
<svg>
<metadata>
Created by FontForge 20090914 at Fri Sep 23 15:09:03 2016
 By www-data
Copyright (c) 2003-2013, SIL International (http://scripts.sil.org/)
</metadata>
<defs>
<font id="GentiumBasic-Italic" horiz-adv-x="922" >
  <font-face 
    font-family="Gentium Basic"
    font-weight="400"
    font-style="italic"
    font-stretch="normal"
    units-per-em="2048"
    panose-1="2 0 6 6 8 0 0 2 0 4"
    ascent="1638"
    descent="-410"
    x-height="935.999"
    cap-height="1260"
    bbox="-836 -725 1812 2168"
    underline-thickness="100"
    underline-position="-200"
    slope="-8"
    unicode-range="U+0020-U+FB02"
  />
<missing-glyph horiz-adv-x="1400" 
d="M150 50h1100v1700h-1100v-1700zM100 1800h1200v-1800h-1200v1800z" />
    <glyph glyph-name=".notdef" horiz-adv-x="1400" 
d="M150 50h1100v1700h-1100v-1700zM100 1800h1200v-1800h-1200v1800z" />
    <glyph glyph-name="space" unicode=" " horiz-adv-x="410" 
 />
    <glyph glyph-name="exclam" unicode="!" horiz-adv-x="410" 
d="M283 152c0 -20.667 -3.5 -41.8311 -10.5 -63.498s-17 -41.334 -30 -59.001s-28.5 -32.167 -46.5 -43.5s-38.333 -17 -61 -17c-26.667 0 -47.334 9 -62.001 27s-22 42 -22 72c0 19.333 3.83301 39.5 11.5 60.5s18.334 40.167 32.001 57.5s29.5 31.666 47.5 42.999
s37.667 17 59 17c24.667 0 44.5 -8.66699 59.5 -26s22.5 -40 22.5 -68zM250 389.003c-13.333 -9.33301 -24.832 -16.832 -34.499 -22.499s-22.834 -11.167 -39.501 -16.5l-24 21l86 970l35 24c14 9.33301 28.833 18.666 44.5 27.999s31.5 17.833 47.5 25.5s31 13.5 45 17.5
l36 -25z" />
    <glyph glyph-name="quotedbl" unicode="&#x22;" horiz-adv-x="791" 
d="M305 874c-11.333 -6 -22.832 -10.167 -34.499 -12.5s-24.834 -3.5 -39.501 -3.5l33 524l28 13.5c10.667 5 21.667 9.66699 33 14l32.5 12c10.333 3.66699 18.833 6.5 25.5 8.5l37 -21zM631.001 874c-10.667 -6 -22 -10.167 -34 -12.5s-25.333 -3.5 -40 -3.5l33 524
l28 13.5c10.667 5 21.667 9.66699 33 14l32.5 12c10.333 3.66699 18.833 6.5 25.5 8.5l36 -21z" />
    <glyph glyph-name="numbersign" unicode="#" horiz-adv-x="823" 
d="M354 590h176l95 256h-176zM770 961l141.003 0.000976562l19 -25c-5.33301 -14.667 -12 -30.5 -20 -47.5s-15 -31.167 -21 -42.5h-161l-95 -256h145l19 -27l-19 -45.5c-7.33301 -17 -14 -31.167 -20 -42.5h-168l-113 -305c-12 -9.33301 -25.667 -17.333 -41 -24
s-31.666 -13 -48.999 -19l-20 20l121 328h-176l-113 -305c-12.667 -9.33301 -26.5 -17.333 -41.5 -24s-31.167 -13 -48.5 -19l-23 20l122 328h-134l-19 25c5.33301 13.333 11.666 28.333 18.999 45s14.666 31.667 21.999 45h154l95 256h-138l-19 24
c5.33301 14.667 11.666 30.167 18.999 46.5s14.666 31.166 21.999 44.499h159l108 290c14 10.667 28.5 18.667 43.5 24s29.833 11 44.5 17l22 -22l-115 -309h176l107 290c14.667 10.667 29.5 18.667 44.5 24s29.5 11 43.5 17l23 -22z" />
    <glyph glyph-name="dollar" unicode="$" horiz-adv-x="823" 
d="M249 950c0 -12.667 2.16699 -25.832 6.5 -39.499s12.166 -27.834 23.499 -42.501s27 -30 47 -46s46 -33 78 -51l51 361c-31.333 -2 -59.666 -8.83301 -84.999 -20.5s-47 -26.167 -65 -43.5s-31.833 -36.333 -41.5 -57s-14.5 -41 -14.5 -61zM614 343.002
c0 20.667 -2.83301 40.333 -8.5 59s-15 36.667 -28 54s-29.667 34.5 -50 51.5s-45.166 34.167 -74.499 51.5l-65 -464c32 6 61.667 16.667 89 32s51.166 33.833 71.499 55.5s36.333 46.167 48 73.5s17.5 56.333 17.5 87zM793 1144
c4 -2.66699 2.33203 -10.5029 -5.00098 -23.5029s-16.666 -27 -27.999 -42s-23.333 -29 -36 -42s-22 -21.5 -28 -25.5l-28 5c-16 22 -35.667 42.667 -59 62s-48.666 34 -75.999 44l-55 -390c46 -24 85.5 -47.5 118.5 -70.5s60 -46.833 81 -71.5s36.5 -51 46.5 -79
s15 -59 15 -93c0 -50.667 -9.5 -99.5 -28.5 -146.5s-45.167 -89.833 -78.5 -128.5s-72.333 -72 -117 -100s-92.334 -48 -143.001 -60l-17 -121c-6 -5.33301 -11 -9.5 -15 -12.5s-8.16699 -5.5 -12.5 -7.5s-9 -3.66699 -14 -5l-19.5 -5l-20 21l16 117
c-4.66699 0 -9.33398 -0.166992 -14.001 -0.5s-9.33398 -0.5 -14.001 -0.5c-24 0 -52 4.16699 -84 12.5s-62.333 19 -91 32s-53 27.833 -73 44.5s-30 33.334 -30 50.001c0 8 3.83301 19.333 11.5 34s16.834 29.334 27.501 44.001s22 27.5 34 38.5s22.667 16.5 32 16.5
c6.66699 0 15.5 -7.16699 26.5 -21.5s25 -30.5 42 -48.5s37.667 -35 62 -51s53.5 -25.667 87.5 -29l72 508l-24 12c-42 20 -77.167 41.333 -105.5 64s-51.166 45.667 -68.499 69s-29.666 47 -36.999 71s-11 47.333 -11 70c0 37.333 8 74.333 24 111s38.667 70.5 68 101.5
s64.666 57.667 105.999 80s87 37.833 137 46.5l16 114l19 11.5l10 6c2.66699 1.66699 6 3.16699 10 4.5s10.333 3.33301 19 6l22 -22l-16 -113h1c48 0 93 -8.66699 135 -26s78.333 -37.666 109 -60.999z" />
    <glyph glyph-name="percent" unicode="%" horiz-adv-x="1315" 
d="M1075 387c0 60.667 -10.1631 105.5 -30.4961 134.5s-44.833 43.5 -73.5 43.5c-20.667 0 -38.667 -6.33301 -54 -19s-28.833 -29.167 -40.5 -49.5s-21.334 -43.333 -29.001 -69s-13.667 -51.5 -18 -77.5s-7.5 -50.833 -9.5 -74.5s-3 -43.834 -3 -60.501
c0 -56 9.66699 -97.333 29 -124s44.666 -40 75.999 -40c19.333 0 36.666 6 51.999 18s28.666 27.667 39.999 47s20.833 41.333 28.5 66s14 49.5 19 74.5s8.5 48.833 10.5 71.5s3 42.334 3 59.001zM1212 377c0 -44 -7.83008 -89.999 -23.4971 -137.999
s-37.834 -92 -66.501 -132s-62.834 -73 -102.501 -99s-83.834 -39 -132.501 -39c-32 0 -60.667 7 -86 21s-46.833 33.167 -64.5 57.5s-31.167 53.166 -40.5 86.499s-14 69.333 -14 108c0 28.667 3.5 58.667 10.5 90s17.167 62 30.5 92s29.5 58.5 48.5 85.5
s40.5 50.667 64.5 71s50.333 36.5 79 48.5s59 18 91 18c32.667 0 61.834 -6.83301 87.501 -20.5s47.167 -32.667 64.5 -57s30.666 -53 39.999 -86s14 -68.5 14 -106.5zM256.007 16.001c-6.66699 -4.66699 -15.833 -9.5 -27.5 -14.5s-24 -9.66699 -37 -14l-38 -12.5
l-30.5 -10l-19 35l963 1188c18.667 11.333 40.167 21 64.5 29s45.833 14.667 64.5 20l25 -33zM506.008 975.001c0 60.667 -10.332 105.5 -30.999 134.5s-46 43.5 -76 43.5c-20.667 0 -38.667 -6.33301 -54 -19s-28.666 -29.167 -39.999 -49.5s-20.833 -43.333 -28.5 -69
s-13.667 -51.5 -18 -77.5s-7.5 -50.833 -9.5 -74.5s-3 -43.834 -3 -60.501c0 -56 10 -97.333 30 -124s45.333 -40 76 -40c19.333 0 36.666 6 51.999 18s28.666 27.667 39.999 47s21 41.333 29 66s14.333 49.5 19 74.5s8.16699 48.833 10.5 71.5s3.5 42.334 3.5 59.001z
M641.009 965.001c0 -29.333 -3.49805 -59.665 -10.498 -90.998s-17.167 -62 -30.5 -92s-29.5 -58.667 -48.5 -86s-40.5 -51.333 -64.5 -72s-50.5 -37 -79.5 -49s-59.833 -18 -92.5 -18c-32 0 -60.5 7 -85.5 21s-46.333 33.167 -64 57.5s-31.167 53.166 -40.5 86.499
s-14 69 -14 107c0 29.333 3.5 59.666 10.5 90.999s17.167 62 30.5 92s29.5 58.5 48.5 85.5s40.667 50.667 65 71s50.666 36.5 78.999 48.5s58.833 18 91.5 18c32 0 60.833 -6.83301 86.5 -20.5s47.167 -32.667 64.5 -57s30.666 -53 39.999 -86s14 -68.5 14 -106.5z" />
    <glyph glyph-name="ampersand" unicode="&#x26;" horiz-adv-x="1190" 
d="M516 1130c-5.33301 -38 -5.83691 -78.001 -1.50391 -120.001s12.166 -85 23.499 -129c44.667 26.667 82 52.167 112 76.5s54.5 48 73.5 71s33.333 45.5 43 67.5s16.167 43.667 19.5 65c4.66699 24.667 6.33398 48 5.00098 70s-6.16602 41.333 -14.499 58
s-20.666 29.834 -36.999 39.501s-36.833 14.5 -61.5 14.5c-24 0 -45.333 -6.16699 -64 -18.5s-34.667 -28.5 -48 -48.5s-24.166 -42.833 -32.499 -68.5s-14.166 -51.5 -17.499 -77.5zM445.996 83.999c53.333 0 102.832 8.50098 148.499 25.501s87.5 39.5 125.5 67.5
c-26 34.667 -52.167 72.5 -78.5 113.5s-51.666 84 -75.999 129s-47.333 91.5 -69 139.5s-40.5 96.667 -56.5 146c-36.667 -28.667 -68.167 -56.167 -94.5 -82.5s-48.5 -52.5 -66.5 -78.5s-32.167 -52.167 -42.5 -78.5s-17.5 -53.833 -21.5 -82.5
c-6 -46.667 -3.66699 -88.5 7 -125.5s27 -68.333 49 -94s48.333 -45.334 79 -59.001s62.667 -20.5 96 -20.5zM1274 748c-17.333 -20.667 -34.3369 -37.8301 -51.0039 -51.4971s-33 -26.167 -49 -37.5c-10 6 -21.667 11.333 -35 16s-26.666 8.83398 -39.999 12.501
s-26.666 6.5 -39.999 8.5s-25 3.33301 -35 4c4.66699 -12 8.16699 -23.667 10.5 -35s3.83301 -23.833 4.5 -37.5s0.333984 -29 -0.999023 -46s-3.33301 -36.833 -6 -59.5c-6.66699 -46 -22.167 -94.5 -46.5 -145.5s-55.833 -100.5 -94.5 -148.5l46.5 -54.5
c15 -17 29.5 -32.5 43.5 -46.5c20.667 -21.333 43.834 -35.5 69.501 -42.5s56.5 -5.83301 92.5 3.5l2 -43c-56.667 -25.333 -103.334 -44.333 -140.001 -57s-61.667 -19 -75 -19s-33.833 12.5 -61.5 37.5s-59.5 59.5 -95.5 103.5c-52 -42 -109.167 -76 -171.5 -102
s-128.5 -39 -198.5 -39c-56 0 -106.5 8.83301 -151.5 26.5s-82.5 43.167 -112.5 76.5s-51.5 74.5 -64.5 123.5s-15.167 104.5 -6.5 166.5c4.66699 38 16.167 76.167 34.5 114.5s42.333 76 72 113s64.5 73.333 104.5 109s84.333 70.167 133 103.5
c-11.333 47.333 -18.833 93.666 -22.5 138.999s-2.5 89.333 3.5 132c7.33301 54 22 104 44 150s48.833 85.833 80.5 119.5s66.834 60 105.501 79s78 28.5 118 28.5c38 0 69.5 -7.16699 94.5 -21.5s44.333 -33.333 58 -57s22.334 -50.834 26.001 -81.501
s3.16699 -62.667 -1.5 -96c-10.667 -68 -41.667 -132 -93 -192s-115.333 -114.667 -192 -164l-69 -44c15.333 -44 33.333 -88 54 -132s43 -87.333 67 -130s49 -83.834 75 -123.501s52 -76.834 78 -111.501c21.333 30 38.666 60.833 51.999 92.5s22.666 62.167 27.999 91.5
c4.66699 32 4.5 61.667 -0.5 89s-13.167 51 -24.5 71s-25 35.667 -41 47s-33 17 -51 17l-17 28c8.66699 8.66699 19.834 18 33.501 28s27.167 17.667 40.5 23h399z" />
    <glyph glyph-name="quotesingle" unicode="'" horiz-adv-x="410" 
d="M305 874c-11.333 -6 -22.8311 -10.167 -34.498 -12.5s-24.834 -3.5 -39.501 -3.5l33 524l28 13.5c10.667 5 21.5 9.66699 32.5 14s21.667 8.33301 32 12s19.166 6.5 26.499 8.5l37 -21z" />
    <glyph glyph-name="parenleft" unicode="(" horiz-adv-x="604" 
d="M705 1559c-46 -32 -90.834 -76.167 -134.501 -132.5s-84.167 -122.5 -121.5 -198.5s-70.333 -161 -99 -255s-50.334 -194.333 -65.001 -301c-14 -97.333 -20.5 -193 -19.5 -287s8.66699 -182.333 23 -265s35 -157.667 62 -225s59.833 -122.333 98.5 -165l-37 -45
c-62.667 33.333 -115.667 82 -159 146s-77.166 138.333 -101.499 223s-38.666 177.167 -42.999 277.5s1.16699 203.5 16.5 309.5c15.333 109.333 39.833 214.833 73.5 316.5s74.667 195 123 280s103 159.167 164 222.5s126.5 111.333 196.5 144z" />
    <glyph glyph-name="parenright" unicode=")" horiz-adv-x="604" 
d="M500 627c-15.333 -110 -40 -214.671 -74 -314.004s-75.167 -190.166 -123.5 -272.499s-103 -154 -164 -215s-126.167 -107.833 -195.5 -140.5l-25 45c45.333 32 90 75.167 134 129.5s84.833 118.333 122.5 192s70.834 156.334 99.501 248.001s50.667 191.167 66 298.5
c13.333 96.667 19.5 193 18.5 289s-8.66699 186.5 -23 271.5s-34.833 162.167 -61.5 231.5s-59.334 125.666 -98.001 168.999l37 45c62.667 -33.333 115.5 -83.166 158.5 -149.499s76.5 -143.166 100.5 -230.499s38.333 -182.166 43 -284.499s-0.333008 -206.5 -15 -312.5z
" />
    <glyph glyph-name="asterisk" unicode="*" horiz-adv-x="725" 
d="M415 1188l271.001 196l20 -15l22.5 -17c7.66699 -6 14.667 -12 21 -18s11.166 -11.667 14.499 -17l-4 -41l-324 -142l262 -128c-3.33301 -16.667 -7 -36.334 -11 -59.001s-9 -41.334 -15 -56.001l-37 -23l-234 213l-10 -325l-25 -13.5
c-9.33301 -5 -18.666 -9.66699 -27.999 -14s-18.5 -8.33301 -27.5 -12s-16.833 -6.16699 -23.5 -7.5l-31 18l87 352l-271 -196l-43 33c-16 12.667 -27.667 24 -35 34l6 43l321 140l-262 129c2 8 3.83301 17.167 5.5 27.5s3.66699 20.833 6 31.5l7 30.5
c2.33301 9.66699 5.16602 17.834 8.49902 24.501l37 23l233 -211l11 325c6.66699 4 14.5 8.33301 23.5 13l28 14c9.66699 4.66699 19 8.83398 28 12.501s17.167 6.5 24.5 8.5l33 -21z" />
    <glyph glyph-name="plus" unicode="+" horiz-adv-x="770" 
d="M720 596c-2 -6.66699 -4.66406 -14.334 -7.99707 -23.001l-10 -25c-3.33301 -8 -7 -15.833 -11 -23.5l-10 -19.5h-232l-38 -269c-6 -3.33301 -13.167 -6.5 -21.5 -9.5s-16.833 -5.83301 -25.5 -8.5s-17.334 -5.16699 -26.001 -7.5s-16.334 -4.16602 -23.001 -5.49902
l-20 22l39 278h-240l-19 24l19 45.5c7.33301 17 14.666 32.167 21.999 45.5h234l39 271c11.333 4 26.833 9 46.5 15s36.167 10.667 49.5 14l21 -23l-40 -277h236z" />
    <glyph glyph-name="comma" unicode="," horiz-adv-x="410" 
d="M303 102c0 -17.333 -3.83301 -37.332 -11.5 -59.999s-18.334 -46.667 -32.001 -72s-29.5 -51.333 -47.5 -78s-37.667 -52.334 -59 -77.001s-43.666 -47.334 -66.999 -68.001s-46.666 -38 -69.999 -52l-34 35c102 108 153 198 153 270c0 12 -1.83301 23.833 -5.5 35.5
s-9.66699 21.5 -18 29.5s-19.333 13.833 -33 17.5s-30.834 4.16699 -51.501 1.5l-9 45c7.33301 8 20.833 17.667 40.5 29s41 22.333 64 33s45.333 19.834 67 27.501s37.834 11.167 48.501 10.5c12 -6.66699 22 -13.167 30 -19.5s14.667 -14 20 -23
s9.16602 -20.167 11.499 -33.5s3.5 -30.333 3.5 -51z" />
    <glyph glyph-name="hyphen" unicode="-" horiz-adv-x="641" 
d="M580 541c-5.33301 -14.667 -12 -29.834 -20 -45.501l-21 -40.5h-478l-18 24c5.33301 14.667 11.833 29.334 19.5 44.001s15.5 28.667 23.5 42h475z" />
    <glyph glyph-name="period" unicode="." horiz-adv-x="410" 
d="M283 152c0 -20.667 -3.5 -41.8311 -10.5 -63.498s-17 -41.334 -30 -59.001s-28.5 -32.167 -46.5 -43.5s-38.333 -17 -61 -17c-26.667 0 -47.334 9 -62.001 27s-22 42 -22 72c0 19.333 3.83301 39.5 11.5 60.5s18.334 40.167 32.001 57.5s29.5 31.666 47.5 42.999
s37.667 17 59 17c24.667 0 44.5 -8.66699 59.5 -26s22.5 -40 22.5 -68z" />
    <glyph glyph-name="slash" unicode="/" horiz-adv-x="819" 
d="M43 -285c-6.66699 -4.66699 -15.332 -9.5 -25.999 -14.5s-22 -9.66699 -34 -14l-35.5 -12.5l-29.5 -10l-29 25l904 1861c18 11.333 37.667 21 59 29s41.666 14.667 60.999 20l31 -22z" />
    <glyph glyph-name="zero" unicode="0" horiz-adv-x="823" 
d="M649 786c0 54.667 -4.50098 102.832 -13.501 144.499s-21.333 76.5 -37 104.5s-34 49.167 -55 63.5s-43.167 21.5 -66.5 21.5c-37.333 0 -70.166 -12.5 -98.499 -37.5s-52.833 -57.5 -73.5 -97.5s-37.834 -85 -51.501 -135s-24.5 -100.167 -32.5 -150.5
s-13.667 -98.333 -17 -144s-5 -84.167 -5 -115.5c0 -117.333 15.5 -205.666 46.5 -264.999s73.5 -89 127.5 -89c38.667 0 72.334 12.833 101.001 38.5s53.167 59.167 73.5 100.5s37 87.833 50 139.5s23.333 103.5 31 155.5s13 101.333 16 148s4.5 86 4.5 118z
M802.999 783.998c0 -40 -2 -82.832 -6 -128.499s-11 -92.5 -21 -140.5s-23.5 -95.833 -40.5 -143.5s-38.167 -92.834 -63.5 -135.501c-22 -37.333 -45.5 -72.166 -70.5 -104.499s-51.833 -60.5 -80.5 -84.5s-59.834 -43 -93.501 -57s-69.834 -21 -108.501 -21
c-46.667 0 -87 11.5 -121 34.5s-62.167 54.667 -84.5 95s-39 88.166 -50 143.499s-16.5 115.333 -16.5 180c0 38.667 2.16699 80.334 6.5 125.001s11.333 90.167 21 136.5s22.5 93.166 38.5 140.499s35.667 93 59 137c20.667 38 43.5 73.667 68.5 107s52.167 62.333 81.5 87
s61 44.167 95 58.5s71 21.5 111 21.5c46.667 0 87.334 -11.333 122.001 -34s63.334 -54 86.001 -94s39.5 -87.667 50.5 -143s16.5 -115.333 16.5 -180z" />
    <glyph glyph-name="one" unicode="1" horiz-adv-x="823" 
d="M666 0h-603.002l7 53c48 6 88.167 12.833 120.5 20.5s58.333 15.5 78 23.5s33.834 15.833 42.501 23.5s13.667 15.167 15 22.5l108 797c4 26.667 6.16699 47.334 6.5 62.001s-2.5 26.667 -8.5 36c-3.33301 4 -9.83301 7.33301 -19.5 10s-24 3.66699 -43 3
s-42.833 -3 -71.5 -7s-63 -10.667 -103 -20l-13 51c26 8 57.167 19 93.5 33s73.333 29.167 111 45.5l108 49c34.333 16.333 62.166 30.5 83.499 42.5l28 -35l-145 -1067c-1.33301 -6.66699 0.833984 -13.834 6.50098 -21.501s16.334 -15.5 32.001 -23.5s37.5 -16 65.5 -24
s64.333 -15 109 -21z" />
    <glyph glyph-name="two" unicode="2" horiz-adv-x="823" 
d="M784 1006c0 -41.333 -9.3291 -87.333 -27.9961 -138s-51.334 -110.667 -98.001 -180s-110 -150.5 -190 -243.5s-181.333 -202.833 -304 -329.5h375c10 0 19.167 2.66699 27.5 8s16.333 12.333 24 21s14.5 18.5 20.5 29.5s11.667 22.167 17 33.5
c12 26.667 21.667 57.334 29 92.001l43 -12l-51 -287h-635l-14 74c121.333 120.667 223 227.667 305 321s147.833 176.166 197.5 248.499s85.167 135.5 106.5 189.5s32 102 32 144c0 48 -15 87.333 -45 118s-73 46 -129 46c-24.667 0 -47.167 -6.33301 -67.5 -19
s-38 -29 -53 -49s-27.333 -42.333 -37 -67s-15.834 -48.667 -18.501 -72l-29.5 -17c-9 -5.33301 -18.167 -10.166 -27.5 -14.499s-19.166 -8 -29.499 -11s-22.5 -5.16699 -36.5 -6.5l-21 30c4.66699 34.667 19.167 70.834 43.5 108.501s54.666 72.167 90.999 103.5
s77.166 57.166 122.499 77.499s91 30.5 137 30.5c33.333 0 64.666 -4.5 93.999 -13.5s55 -22.833 77 -41.5s39.5 -42.334 52.5 -71.001s19.5 -63 19.5 -103z" />
    <glyph glyph-name="three" unicode="3" horiz-adv-x="823" 
d="M733 1001c0 -36 -5.8291 -69.4971 -17.4961 -100.497s-27.834 -59.333 -48.501 -85s-45 -48.334 -73 -68.001s-58 -36.167 -90 -49.5c30 -4 57.667 -14 83 -30s47 -36.333 65 -61s32 -52.334 42 -83.001s15 -62.667 15 -96c0 -62.667 -10.333 -121.834 -31 -177.501
s-50 -104.334 -88 -146.001s-84 -74.667 -138 -99s-114.667 -36.5 -182 -36.5c-47.333 0 -93.666 11.833 -138.999 35.5s-93 61.834 -143 114.501l39 67c25.333 -22.667 48.166 -41.334 68.499 -56.001s39.833 -26.334 58.5 -35.001s37.5 -14.667 56.5 -18
s40.167 -5 63.5 -5c47.333 0 88.833 9 124.5 27s65.5 42.333 89.5 73s42.167 65.667 54.5 105s18.5 80.666 18.5 123.999c0 38.667 -5.83301 72 -17.5 100s-26.834 51 -45.501 69s-40 31.333 -64 40s-48 13 -72 13h-18c-3.33301 0 -6.5 -0.333008 -9.5 -1
s-6.66699 -1.33398 -11 -2.00098s-11.166 -2 -20.499 -4l-6 60c38.667 11.333 75.667 24.833 111 40.5s66.5 35.167 93.5 58.5s48.5 51.166 64.5 83.499s24 70.5 24 114.5c0 20.667 -2.83301 41.167 -8.5 61.5s-14.5 38.333 -26.5 54s-27.5 28.334 -46.5 38.001
s-41.833 14.5 -68.5 14.5c-23.333 0 -44.5 -4.5 -63.5 -13.5s-35.333 -21.167 -49 -36.5s-24 -33.166 -31 -53.499s-10.167 -41.833 -9.5 -64.5c-22.667 -11.333 -43.834 -20.166 -63.501 -26.499s-42.167 -10.5 -67.5 -12.5l-21 31c4 28 17.167 57.833 39.5 89.5
s50.166 60.834 83.499 87.501s70.666 48.834 111.999 66.501s83.333 26.5 126 26.5c40 0 75 -6.5 105 -19.5s54.667 -30.333 74 -52s33.833 -46.667 43.5 -75s14.5 -57.5 14.5 -87.5z" />
    <glyph glyph-name="four" unicode="4" horiz-adv-x="823" 
d="M162 455h338l80 585zM756 426c-8 -10 -15.5 -18.668 -22.5 -26.001s-13.833 -13.666 -20.5 -18.999l-19.5 -15c-6.33301 -4.66699 -12.833 -10 -19.5 -16h-64l-32 -246c-1.33301 -5.33301 -0.5 -10.166 2.5 -14.499s8.83301 -9 17.5 -14s20.834 -10.167 36.501 -15.5
s35.5 -11 59.5 -17l-6 -43h-440l6 43c39.333 7.33301 71.666 14.166 96.999 20.499s45.333 12.333 60 18s25 11.167 31 16.5s9.66699 11 11 17l30 235h-444l-27 33l553 791c28 12 53 24.333 75 37l60 34l27 -35l-102 -753h108z" />
    <glyph glyph-name="five" unicode="5" horiz-adv-x="823" 
d="M799 1194c-8 -10.667 -16.999 -21.667 -26.999 -33s-20 -22 -30 -32s-19.833 -19.333 -29.5 -28s-18.5 -16 -26.5 -22h-348c-4 -19.333 -9.83301 -44.5 -17.5 -75.5l-24.5 -94.5l-25 -90.5c-8 -28.333 -14.333 -49.833 -19 -64.5c24.667 8 53.5 14.333 86.5 19
s64.833 7 95.5 7c46 0 87 -8.33301 123 -25s66.167 -39 90.5 -67s43 -60.333 56 -97s19.5 -74.667 19.5 -114c0 -40 -4.33301 -80.167 -13 -120.5s-21.167 -79.333 -37.5 -117s-36.5 -73 -60.5 -106s-51.5 -61.667 -82.5 -86s-65.5 -43.5 -103.5 -57.5s-79 -21 -123 -21
c-55.333 0 -108.5 11.833 -159.5 35.5s-100.167 61.834 -147.5 114.501l41 67c30 -23.333 57.167 -42.5 81.5 -57.5s46.833 -26.667 67.5 -35s39.667 -14 57 -17s34.666 -4.5 51.999 -4.5c50 0 92.667 11.167 128 33.5s64.166 51.166 86.499 86.499
s38.833 75.166 49.5 119.499s16 88.5 16 132.5c0 32.667 -4.66699 62.834 -14 90.501s-23 51.5 -41 71.5s-40 35.667 -66 47s-55.667 17 -89 17c-68 0 -137.667 -26.667 -209 -80l-37 33l23.5 83.5l28.5 100.5l30 108l28.5 107.5l25 99.5
c7.66699 31.333 13.5 58.666 17.5 81.999h394c16.667 0 31.834 0.833008 45.501 2.5s25.167 3.83398 34.5 6.50098c11.333 2.66699 21.333 6 30 10z" />
    <glyph glyph-name="six" unicode="6" horiz-adv-x="823" 
d="M451 659c-38.667 0 -76.001 -9.00098 -112.001 -27.001s-73 -49 -111 -93c-4.66699 -28 -8 -55.667 -10 -83s-3 -55 -3 -83c0 -100 17.667 -174.5 53 -223.5s83.333 -73.5 144 -73.5c26.667 0 50.5 5.5 71.5 16.5s39.167 25.833 54.5 44.5s28.333 40 39 64
s19.167 48.667 25.5 74s11 50.833 14 76.5s4.5 49.167 4.5 70.5c0 47.333 -5.16699 86.333 -15.5 117s-23.666 54.834 -39.999 72.501s-34.5 30 -54.5 37s-40 10.5 -60 10.5zM798.999 1190c-72 -15.333 -137.334 -39.833 -196.001 -73.5s-110.834 -74 -156.501 -121
s-84.5 -99.5 -116.5 -157.5s-57.333 -119 -76 -183c46 43.333 90.333 73.333 133 90s81.667 25 117 25c85.333 0 149.666 -25.333 192.999 -76s65 -121 65 -211c0 -36 -4.16699 -73.833 -12.5 -113.5s-20.666 -78.5 -36.999 -116.5s-36.166 -74.167 -59.499 -108.5
s-49.833 -64.5 -79.5 -90.5s-62.5 -46.667 -98.5 -62s-74.333 -23 -115 -23c-43.333 0 -82.833 9.5 -118.5 28.5s-66.334 45.667 -92.001 80s-45.667 75.5 -60 123.5s-21.5 101 -21.5 159c0 72 7.5 142.5 22.5 211.5s37 134.667 66 197s64.333 120.5 106 174.5
s89.334 102 143.001 144s112.834 77 177.501 105s134 47 208 57z" />
    <glyph glyph-name="seven" unicode="7" horiz-adv-x="823" 
d="M866 1167l-112.998 -218.002l-112 -217l-105.5 -208l-94 -190.5l-78.5 -163.5c-23.333 -49.333 -42.666 -91.666 -57.999 -126.999c-44 -32 -95.667 -56.667 -155 -74l-33 33c65.333 102 125.166 199.667 179.499 293l153.5 272l137.5 258.5l133.5 253.5h-410
c-8.66699 0 -17.5 -0.5 -26.5 -1.5s-18.833 -6 -29.5 -15s-22.834 -23.667 -36.501 -44s-29.834 -49.833 -48.501 -88.5l-37 18l15.5 57.5l19.5 71.5l20 71c6.66699 22.667 13 41.334 19 56.001h635z" />
    <glyph glyph-name="eight" unicode="8" horiz-adv-x="823" 
d="M287 940c0 -26 5.66504 -49 16.998 -69s26.5 -38.333 45.5 -55s40.833 -32.334 65.5 -47.001l76 -44c22 14.667 42.333 30.5 61 47.5s34.667 35.667 48 56s23.833 42.5 31.5 66.5s11.5 50.667 11.5 80c0 54 -15.667 95.167 -47 123.5s-73 42.5 -125 42.5
c-26.667 0 -51.167 -5.66699 -73.5 -17s-41.666 -26.333 -57.999 -45s-29.166 -40.167 -38.499 -64.5s-14 -49.166 -14 -74.499zM591.998 342c0 36.667 -5.83301 68.3369 -17.5 95.0039s-27.167 50.334 -46.5 71.001s-41.333 39.167 -66 55.5s-50 32.166 -76 47.499
c-32.667 -22 -61.834 -44.333 -87.501 -67s-47.5 -47.334 -65.5 -74.001s-31.667 -55.834 -41 -87.501s-14 -67.834 -14 -108.501c0 -28.667 4.33301 -55.334 13 -80.001s21.334 -46.167 38.001 -64.5s36.667 -32.833 60 -43.5s50 -16 80 -16c36.667 0 69 8.16699 97 24.5
s51.333 37.5 70 63.5s32.667 55.167 42 87.5s14 64.5 14 96.5zM777.998 1001c0 -36.667 -6.33203 -70.333 -18.999 -101s-29.334 -58.667 -50.001 -84s-44.5 -48.666 -71.5 -69.999s-54.5 -41 -82.5 -59c24.667 -15.333 48.167 -32.166 70.5 -50.499s42 -39 59 -62
s30.667 -49.167 41 -78.5s15.5 -62.333 15.5 -99c0 -56.667 -11.667 -110.834 -35 -162.501s-54.833 -97.167 -94.5 -136.5s-85.5 -70.666 -137.5 -93.999s-106.333 -35 -163 -35c-46 0 -86.333 7.66699 -121 23s-63.667 36 -87 62s-40.833 55.833 -52.5 89.5
s-17.5 69.167 -17.5 106.5c0 46 8.33301 88.667 25 128s38.5 75.5 65.5 108.5s58 63 93 90s70.833 50.5 107.5 70.5c-21.333 13.333 -41.666 27.5 -60.999 42.5s-36.333 32.167 -51 51.5s-26.334 41 -35.001 65s-13 51.667 -13 83c0 48.667 10.167 94.167 30.5 136.5
s47.5 79 81.5 110s73 55.333 117 73s89.667 26.5 137 26.5c40.667 0 76.5 -5.83301 107.5 -17.5s57 -27.834 78 -48.501s36.667 -45.334 47 -74.001s15.5 -60 15.5 -94z" />
    <glyph glyph-name="nine" unicode="9" horiz-adv-x="823" 
d="M420 555c49.333 0 92.167 12.668 128.5 38.001s68.5 58.666 96.5 99.999c2.66699 23.333 4.66699 46.833 6 70.5s2 47.834 2 72.501c0 54 -5 99.667 -15 137s-23 67.666 -39 90.999s-34.167 40.166 -54.5 50.499s-40.833 15.5 -61.5 15.5
c-30.667 0 -57.667 -5.5 -81 -16.5s-43.833 -25.667 -61.5 -44s-32.667 -39.666 -45 -63.999s-22.333 -49.833 -30 -76.5s-13.167 -53.667 -16.5 -81s-5 -53.333 -5 -78c0 -43.333 5.83301 -79 17.5 -107s26.167 -50 43.5 -66s36.333 -27 57 -33s40 -9 58 -9z
M803.001 862.001c0 -114 -15.999 -222.335 -47.999 -325.002s-78.833 -194.5 -140.5 -275.5s-137.667 -148.167 -228 -201.5s-193.833 -87.666 -310.5 -102.999l-8 59c78.667 18 148.834 44.333 210.501 79s115.5 76 161.5 124s84.167 101.833 114.5 161.5
s53.5 124.167 69.5 193.5c-34.667 -39.333 -73.834 -70.833 -117.501 -94.5s-90.167 -35.5 -139.5 -35.5c-40 0 -76.167 7 -108.5 21s-60 33.5 -83 58.5s-40.667 54.667 -53 89s-18.5 71.833 -18.5 112.5c0 37.333 5 76 15 116s24 78.833 42 116.5s40 73.334 66 107.001
s55 63.167 87 88.5s66.5 45.333 103.5 60s76.167 22 117.5 22c36 0 70.333 -7.5 103 -22.5s61.167 -37.833 85.5 -68.5s43.666 -69.5 57.999 -116.5s21.5 -102.167 21.5 -165.5z" />
    <glyph glyph-name="colon" unicode=":" horiz-adv-x="410" 
d="M383 866c0 -20 -3.50098 -40.668 -10.501 -62.001s-16.833 -40.666 -29.5 -57.999s-28 -31.666 -46 -42.999s-38.333 -17 -61 -17c-27.333 0 -48.166 8.83301 -62.499 26.5s-21.5 41.5 -21.5 71.5c0 18.667 3.83301 38.5 11.5 59.5s18.167 40.167 31.5 57.5
s29 31.666 47 42.999s37.667 17 59 17c24.667 0 44.5 -8.5 59.5 -25.5s22.5 -40.167 22.5 -69.5zM282.999 151.999c0 -20.667 -3.5 -41.8311 -10.5 -63.498s-17 -41.334 -30 -59.001s-28.5 -32.167 -46.5 -43.5s-38.333 -17 -61 -17c-26.667 0 -47.334 9 -62.001 27
s-22 42 -22 72c0 19.333 3.83301 39.5 11.5 60.5s18.334 40.167 32.001 57.5s29.5 31.666 47.5 42.999s37.667 17 59 17c24.667 0 44.5 -8.66699 59.5 -26s22.5 -40 22.5 -68z" />
    <glyph glyph-name="semicolon" unicode=";" horiz-adv-x="410" 
d="M383 866c0 -20 -3.50098 -40.668 -10.501 -62.001s-16.833 -40.666 -29.5 -57.999s-28 -31.666 -46 -42.999s-38.333 -17 -61 -17c-27.333 0 -48.166 8.83301 -62.499 26.5s-21.5 41.5 -21.5 71.5c0 18.667 3.83301 38.5 11.5 59.5s18.167 40.167 31.5 57.5
s29 31.666 47 42.999s37.667 17 59 17c24.667 0 44.5 -8.5 59.5 -25.5s22.5 -40.167 22.5 -69.5zM302.999 101.999c0 -17.333 -3.83301 -37.332 -11.5 -59.999s-18.334 -46.667 -32.001 -72s-29.5 -51.333 -47.5 -78s-37.667 -52.334 -59 -77.001
s-43.666 -47.334 -66.999 -68.001s-46.666 -38 -69.999 -52l-34 35c102 108 153 198 153 270c0 12 -1.83301 23.833 -5.5 35.5s-9.66699 21.5 -18 29.5s-19.333 13.833 -33 17.5s-30.834 4.16699 -51.501 1.5l-9 45c7.33301 8 20.833 17.667 40.5 29s41 22.333 64 33
s45.333 19.834 67 27.501s37.834 11.167 48.501 10.5c12 -6.66699 22 -13.167 30 -19.5s14.667 -14 20 -23s9.16602 -20.167 11.499 -33.5s3.5 -30.333 3.5 -51z" />
    <glyph glyph-name="less" unicode="&#x3c;" horiz-adv-x="840" 
d="M805 874c-2.66699 -6.66699 -5.5 -14.5 -8.5 -23.5l-9.5 -28l-10 -28c-3.33301 -9 -6.33301 -16.5 -9 -22.5l-540 -208l484 -210l11 -37l-21 -17l-17 -14c-5.33301 -4.66699 -11.5 -9.33398 -18.5 -14.001s-15.5 -10 -25.5 -16l-569 248l-22 26c4 15.333 10 32.333 18 51
s14.667 33.334 20 44.001l698 274z" />
    <glyph glyph-name="equal" unicode="=" horiz-adv-x="840" 
d="M805 746c-2 -6.66699 -4.66602 -14.333 -7.99902 -23l-10 -25c-3.33301 -8 -7 -15.833 -11 -23.5l-10 -19.5h-657l-19 24l19 45.5c7.33301 17 14.666 32.167 21.999 45.5h656zM765.001 446.001c-2 -6.66699 -4.66602 -14.333 -7.99902 -23l-10 -25
c-3.33301 -8 -7 -15.833 -11 -23.5l-10 -19.5h-657l-19 24l19 45.5c7.33301 17 14.666 32.167 21.999 45.5h656z" />
    <glyph glyph-name="greater" unicode="&#x3e;" horiz-adv-x="840" 
d="M785 625c-4.66699 -14.667 -10.333 -31.001 -17 -49.001s-13.667 -33.333 -21 -46l-698 -274l-19 25c2.66699 6.66699 5.5 14.5 8.5 23.5l9.5 28l9.5 28c3 9 6.16699 16.5 9.5 22.5l540 208l-484 210l-11 37l20 17l17 14c6 4.66699 12.5 9.33398 19.5 14.001
s15.5 10 25.5 16l569 -248z" />
    <glyph glyph-name="question" unicode="?" horiz-adv-x="813" 
d="M442 152c0 -20.667 -3.50098 -41.8311 -10.501 -63.498s-17 -41.334 -30 -59.001s-28.667 -32.167 -47 -43.5s-38.833 -17 -61.5 -17c-25.333 0 -45.666 9 -60.999 27s-23 42 -23 72c0 19.333 3.83301 39.5 11.5 60.5s18.167 40.167 31.5 57.5s29 31.666 47 42.999
s37.667 17 59 17c26 0 46.5 -8.66699 61.5 -26s22.5 -40 22.5 -68zM808.999 1186c0 -58.667 -8.50195 -110.003 -25.502 -154.003s-38.5 -84 -64.5 -120s-54.5 -69.333 -85.5 -100s-60.667 -62.334 -89 -95.001s-53.333 -67.5 -75 -104.5s-36.167 -79.5 -43.5 -127.5
l-12 -96c-12.667 -9.33301 -24 -17.166 -34 -23.499s-23.333 -12.166 -40 -17.499l-23 21l5 116c0.666992 44.667 9.33398 85.667 26.001 123s37.167 73 61.5 107s50.5 66.833 78.5 98.5s53.833 63.834 77.5 96.501s43.5 66.834 59.5 102.501s24 74.167 24 115.5
c0 66.667 -14.5 117.834 -43.5 153.501s-72.5 53.5 -130.5 53.5c-27.333 0 -51.666 -6.33301 -72.999 -19s-38.5 -29.834 -51.5 -51.501s-21.5 -46.834 -25.5 -75.501s-3 -59 3 -91c-14.667 -6.66699 -27.834 -12.167 -39.501 -16.5s-23 -8 -34 -11
s-22.167 -5.33301 -33.5 -7s-24.333 -3.16699 -39 -4.5l-20 31c0 42.667 9.33301 84.334 28 125.001s45.334 77 80.001 109s76.5 57.667 125.5 77s104.167 29 165.5 29c42.667 0 79.5 -6.33301 110.5 -19s56.667 -30 77 -52s35.5 -47.833 45.5 -77.5s15 -61.5 15 -95.5z" />
    <glyph glyph-name="at" unicode="@" horiz-adv-x="1593" 
d="M1161 842l-1.99805 -2.00293c-4.66699 -9.33301 -8.66699 -20.333 -12 -33s-6.66602 -28.334 -9.99902 -47.001c-10 -48 -19.333 -97.167 -28 -147.5s-16.167 -97.833 -22.5 -142.5s-11.166 -84 -14.499 -118s-5 -58.333 -5 -73c0 -38 1.66699 -69 5 -93
s7.83301 -42.833 13.5 -56.5s12.167 -23 19.5 -28s15 -7.5 23 -7.5c16.667 0 37.834 11 63.501 33s51.167 52 76.5 90s48.5 82.167 69.5 132.5s35.833 103.833 44.5 160.5c11.333 75.333 14.333 145 9 209s-17.5 122 -36.5 174s-43.667 98 -74 138s-65 73.5 -104 100.5
s-81.333 47.5 -127 61.5s-93.167 21 -142.5 21c-62 0 -120.5 -9.16699 -175.5 -27.5s-106.167 -43.833 -153.5 -76.5s-90.5 -71.334 -129.5 -116.001s-73.333 -93.334 -103 -146.001s-54.334 -108.167 -74.001 -166.5s-33.834 -117.5 -42.501 -177.5
c-16.667 -121.333 -13.5 -229 9.5 -323s60.667 -173.5 113 -238.5s116.833 -114.333 193.5 -148s160 -50.5 250 -50.5c50 0 99.667 5.83301 149 17.5s95.666 26.334 138.999 44.001s82.333 36.5 117 56.5s62.667 38.667 84 56l16 -55
c-25.333 -25.333 -57.166 -52 -95.499 -80s-81.833 -53.667 -130.5 -77s-101.834 -42.666 -159.501 -57.999s-118.834 -23 -183.501 -23c-110.667 0 -210 19.667 -298 59s-161 95.5 -219 168.5s-99 161.333 -123 265s-27 219.5 -9 347.5
c10.667 74.667 29.5 148.167 56.5 220.5s60.833 140.5 101.5 204.5s87.5 123.167 140.5 177.5s110.167 101.166 171.5 140.499s126.5 70 195.5 92s140.167 33 213.5 33c88.667 0 170 -17.333 244 -52s136 -85.5 186 -152.5s85.333 -149.167 106 -246.5s22 -208.333 4 -333
c-8 -58 -21.5 -112.667 -40.5 -164s-41.833 -98.833 -68.5 -142.5s-55.667 -83 -87 -118s-63.333 -64.833 -96 -89.5s-64.834 -43.5 -96.501 -56.5s-60.5 -19.5 -86.5 -19.5c-12 0 -23.833 4.16699 -35.5 12.5s-22.334 24 -32.001 47s-17.5 54.667 -23.5 95
s-9 92.833 -9 157.5l-58 -99.5c-22 -36.333 -45.5 -70.333 -70.5 -102s-51 -58 -78 -79s-54.5 -31.5 -82.5 -31.5c-22.667 0 -46.5 6.33301 -71.5 19s-48 32.834 -69 60.501s-38.333 63.334 -52 107.001s-20.5 96.834 -20.5 159.501c0 52.667 5.16699 104.167 15.5 154.5
s26.333 98.5 48 144.5s49.334 89.167 83.001 129.5s74.167 76.5 121.5 108.5c18 12 37.667 23.667 59 35s43.5 21.333 66.5 30s45.833 15.667 68.5 21s44.667 8 66 8c26.667 0 51.667 -6.33301 75 -19s45 -25.667 65 -39c15.333 10.667 31.5 20.834 48.5 30.501
s34.167 18.834 51.5 27.501l20 -35c-13.333 -10.667 -24 -20.167 -32 -28.5s-14.667 -18.5 -20 -30.5h1zM943.002 428.997l15.002 96.0029c5.33301 33.333 10.833 65.333 16.5 96l15 84c4.33301 25.333 7.83301 45 10.5 59c-10 8 -20.5 15.833 -31.5 23.5
s-22.833 14.834 -35.5 21.501s-25.834 12 -39.501 16s-28.167 6 -43.5 6c-30.667 0 -59 -7.5 -85 -22.5s-49.667 -34.833 -71 -59.5s-40.333 -52.834 -57 -84.501s-30.5 -64.334 -41.5 -98.001s-19.5 -66.834 -25.5 -99.501s-9 -62 -9 -88
c0 -43.333 3.66699 -82.333 11 -117s17.166 -64.334 29.499 -89.001s27 -43.667 44 -57s35.167 -20 54.5 -20c16.667 0 35.167 10.167 55.5 30.5s41.166 46.5 62.499 78.5s42.833 67.667 64.5 107s41.834 78.333 60.501 117z" />
    <glyph glyph-name="A" unicode="A" horiz-adv-x="1147" 
d="M371 444l-143.002 -332.998c-9.33301 -20.667 -4.16602 -35.5 15.501 -44.5s55.167 -16.833 106.5 -23.5l-6 -43h-379l6 43c42 8 75.667 16.5 101 25.5s42.333 23.167 51 42.5l487 1118c8.66699 8 19 16.167 31 24.5s24.333 16.333 37 24l36.5 22
c11.667 7 21.834 12.833 30.501 17.5l216 -1206c1.33301 -9.33301 3.83301 -17.5 7.5 -24.5s9.5 -13.333 17.5 -19s18.833 -10.5 32.5 -14.5s31.167 -7.33301 52.5 -10l-4 -43h-385l4 43c47.333 3.33301 81.333 10.166 102 20.499s29 26.166 25 47.499l-58 333h-384z
M738.998 535.002l-94 544l-235 -544h329z" />
    <glyph glyph-name="B" unicode="B" horiz-adv-x="1014" 
d="M551 1206c-20 0 -39.002 -0.165039 -57.002 -0.498047s-35 -0.833008 -51 -1.5l-65 -479h32c46.667 0 91.834 3.66699 135.501 11s82.334 20.666 116.001 39.999s60.5 46 80.5 80s30 77.667 30 131c0 40.667 -7.16699 75 -21.5 103s-32.5 50.667 -54.5 68
s-46 29.666 -72 36.999s-50.333 11 -73 11zM517.998 649.002c-29.333 0 -56.3301 -1.50293 -80.9971 -4.50293s-48.334 -6.16699 -71.001 -9.5l-73 -531c-2 -5.33301 1.66699 -11.666 11 -18.999c12.667 -6 26.667 -11.167 42 -15.5s31.166 -7.66602 47.499 -9.99902
s32.5 -4 48.5 -5s31 -1.5 45 -1.5c44 0 83.833 9.16699 119.5 27.5s66.167 42.5 91.5 72.5s45 64.333 59 103s21 78.334 21 119.001c0 33.333 -4.83301 66.333 -14.5 99s-24.834 62 -45.501 88s-47.5 47 -80.5 63s-72.833 24 -119.5 24zM934.001 409.999
c0 -65.333 -12.6689 -124.998 -38.002 -178.998s-59.666 -100.333 -102.999 -139s-93.666 -68.834 -150.999 -90.501s-117.666 -32.5 -180.999 -32.5c-13.333 0 -29.333 0.333008 -48 1s-38.5 1.83398 -59.5 3.50098l-65 5c-22.333 1.66699 -44.166 3.5 -65.499 5.5
c-50 4.66699 -102.333 10 -157 16h-66l6 43c42 9.33301 75.667 19.5 101 30.5s38.666 21.167 39.999 30.5l149 1089c-30 -4 -57.333 -8.33301 -82 -13s-49 -9.66699 -73 -15v62c30.667 8.66699 62 16.834 94 24.501s65.667 14.334 101 20.001s73 10.167 113 13.5s83 5 129 5
c54 0 102.5 -5.66699 145.5 -17s79.667 -27.833 110 -49.5s53.666 -48 69.999 -79s24.5 -65.833 24.5 -104.5c0 -34.667 -5.5 -68.334 -16.5 -101.001s-26.333 -62.834 -46 -90.501s-43 -52.334 -70 -74.001s-56.5 -38.834 -88.5 -51.501c34 -8 64.833 -21.333 92.5 -40
s51.5 -41.5 71.5 -68.5s35.5 -57.833 46.5 -92.5s16.5 -72 16.5 -112z" />
    <glyph glyph-name="C" unicode="C" horiz-adv-x="995" 
d="M1016 1190c2.66699 -3.33301 0.335938 -10.6689 -6.99707 -22.002s-16.833 -24 -28.5 -38s-24 -27.833 -37 -41.5s-23.833 -24.167 -32.5 -31.5l-30 8c-27.333 30 -60.5 54.833 -99.5 74.5s-85.833 29.5 -140.5 29.5c-26.667 0 -56.667 -6.33301 -90 -19
s-63.333 -29.334 -90 -50.001c-42 -32.667 -77.833 -73.667 -107.5 -123s-53.834 -101.166 -72.501 -155.499s-32.334 -108.333 -41.001 -162s-13 -101.5 -13 -143.5c0 -72.667 9.83301 -135.5 29.5 -188.5s45 -96.667 76 -131s65 -59.666 102 -75.999
s73.167 -24.5 108.5 -24.5c37.333 0 82.166 11.833 134.499 35.5s115.833 65.167 190.5 124.5c3.33301 -1.33301 6.33301 -4.16602 9 -8.49902l8 -13.5c2.66699 -4.66699 5 -9.16699 7 -13.5s3.66699 -7.5 5 -9.5c-45.333 -45.333 -87.833 -83.333 -127.5 -114
s-77.5 -55.167 -113.5 -73.5s-70.333 -31.333 -103 -39s-64.667 -11.5 -96 -11.5c-50 0 -98 10.833 -144 32.5s-86.5 53.167 -121.5 94.5s-63 92.166 -84 152.499s-31.5 129.166 -31.5 206.499c0 62.667 6.16699 126.5 18.5 191.5s31.5 128.333 57.5 190
s59.333 120.334 100 176.001s89 105.834 145 150.501c48.667 38 101.167 68 157.5 90s115.833 33 178.5 33c66 0 122.333 -9.66699 169 -29s84.667 -43 114 -71z" />
    <glyph glyph-name="D" unicode="D" horiz-adv-x="1118" 
d="M1077 745c0 -58.667 -5.66602 -117.834 -16.999 -177.501s-28.333 -117 -51 -172s-50.667 -106.667 -84 -155s-72.166 -90.333 -116.499 -126s-93.833 -63.667 -148.5 -84s-114.334 -30.5 -179.001 -30.5h-481l6 43c42 9.33301 75.667 19.5 101 30.5
s38.666 21.167 39.999 30.5l149 1089l-153 -17v63c76.667 18.667 152.5 31.834 227.5 39.501s146.833 11.5 215.5 11.5c78 0 147.333 -13 208 -39s112 -62.667 154 -110s74 -104.5 96 -171.5s33 -141.833 33 -224.5zM504.001 1206h-30c-10 0 -20 -0.333008 -30 -1
l-145 -1066c-1.33301 -10 0 -18.333 4 -25s11.667 -12.334 23 -17.001s27.5 -8 48.5 -10s47.833 -3 80.5 -3c49.333 0 94.833 9.33301 136.5 28s79.5 44 113.5 76s64.167 69.333 90.5 112s48.333 87.834 66 135.501s31 96.5 40 146.5s13.5 98.333 13.5 145
c0 71.333 -9 136.333 -27 195s-44.333 109 -79 151s-77.5 74.667 -128.5 98s-109.833 35 -176.5 35z" />
    <glyph glyph-name="E" unicode="E" horiz-adv-x="946" 
d="M856 244c-13.333 -58 -26.8301 -108.329 -40.4971 -150.996s-24.167 -73.667 -31.5 -93h-784l6 43c42 9.33301 75.667 19.5 101 30.5s38.666 21.167 39.999 30.5l146 1051c1.33301 8 -8.33398 18 -29.001 30s-52.667 22.667 -96 32l6 43h737l25 -25
c-3.33301 -17.333 -7.5 -36.333 -12.5 -57s-10.667 -41.334 -17 -62.001s-12.833 -40.334 -19.5 -59.001s-13 -34.334 -19 -47.001h-43c3.33301 30.667 4.66602 56.167 3.99902 76.5s-3.33398 36.666 -8.00098 48.999s-11 21 -19 26s-18 7.5 -30 7.5h-335l-59 -434h374
l20 -28c-6.66699 -9.33301 -14.167 -19 -22.5 -29s-17 -19.833 -26 -29.5s-17.833 -18.667 -26.5 -27l-23 -21.5c-10.667 11.333 -22 20.5 -34 27.5s-26.833 12.5 -44.5 16.5s-39.334 6.83301 -65.001 8.5s-57.167 2.5 -94.5 2.5h-69l-68 -501
c-1.33301 -10 -0.333008 -18.833 3 -26.5s11.333 -14.334 24 -20.001s31 -10 55 -13s56 -4.5 96 -4.5h121c28 0 51.667 1.66699 71 5s36.833 10.833 52.5 22.5s30.834 28.834 45.501 51.501s31.334 53.667 50.001 93z" />
    <glyph glyph-name="F" unicode="F" horiz-adv-x="891" 
d="M944 1235c-3.33301 -17.333 -7.49805 -36.3291 -12.498 -56.9961s-10.667 -41.334 -17 -62.001s-12.833 -40.334 -19.5 -59.001s-12.667 -34.334 -18 -47.001h-41c2.66699 30.667 3.33398 56.167 2.00098 76.5s-4.33301 36.666 -9 48.999s-11 21 -19 26s-18 7.5 -30 7.5
h-343l-60 -434h323l23 -28l-23.5 -29l-25.5 -29.5c-8.66699 -9.66699 -17.334 -18.667 -26.001 -27l-23 -21.5c-22.667 22.667 -48.834 37.5 -78.501 44.5s-66.5 10.5 -110.5 10.5h-70l-75 -551c-1.33301 -8 9.33398 -17 32.001 -27s63 -21.333 121 -34l-6 -43h-438l6 43
c42 9.33301 75.667 19.5 101 30.5s38.666 21.167 39.999 30.5l146 1051c1.33301 8 -8.33398 18 -29.001 30s-52.667 22.667 -96 32l6 43h746z" />
    <glyph glyph-name="G" unicode="G" horiz-adv-x="1073" 
d="M1057 539c-36 -10.667 -62.3359 -23.168 -79.0029 -37.501s-26 -29.166 -28 -44.499l-10 -70.5l-12 -88.5l-11.5 -85c-3.66699 -26.667 -6.16699 -46.334 -7.5 -59.001c-50.667 -40.667 -95.334 -73.167 -134.001 -97.5s-73.667 -43 -105 -56s-60.5 -21.5 -87.5 -25.5
s-53.833 -6 -80.5 -6c-55.333 0 -108.666 11.167 -159.999 33.5s-96.666 55 -135.999 98s-70.833 95.833 -94.5 158.5s-35.5 134 -35.5 214c0 63.333 7.33301 127.166 22 191.499s35.5 126 62.5 185s59.167 113.667 96.5 164s78.666 93.5 123.999 129.5
c56.667 44.667 119.667 80.334 189 107.001s143.666 40 222.999 40c20 0 41.667 -2.33301 65 -7s46.666 -11.334 69.999 -20.001s46 -19.334 68 -32.001s41.667 -27 59 -43c4 -3.33301 2.33301 -10.666 -5 -21.999s-17 -23.833 -29 -37.5s-24.833 -27.167 -38.5 -40.5
s-25.167 -23.666 -34.5 -30.999l-28 6c-17.333 20.667 -35.666 38 -54.999 52s-40.166 25.167 -62.499 33.5s-46.333 14.166 -72 17.499s-53.5 5 -83.5 5c-25.333 0 -56.166 -8.66699 -92.499 -26s-72.5 -40.666 -108.5 -69.999c-34 -27.333 -64.5 -63 -91.5 -107
s-50.167 -91.833 -69.5 -143.5s-34.166 -104.334 -44.499 -158.001s-15.5 -103.834 -15.5 -150.501c0 -71.333 10.833 -133.166 32.5 -185.499s49.5 -95.833 83.5 -130.5s72 -60.334 114 -77.001s83.667 -25 125 -25c36 0 71.333 5.33301 106 16s63.667 24.667 87 42l40 301
c0.666992 6.66699 -0.666016 13.334 -3.99902 20.001s-12.5 13.334 -27.5 20.001s-37.167 13.334 -66.5 20.001s-69 14 -119 22l6 43h461z" />
    <glyph glyph-name="H" unicode="H" horiz-adv-x="1235" 
d="M578 1217c-42 -9.33301 -75.666 -19.6699 -100.999 -31.0029s-39 -21.666 -41 -30.999l-61 -450h556l62 450c1.33301 8 -8.33398 18 -29.001 30s-52 22.667 -94 32l4 43h412l-6 -43c-42 -9.33301 -75.667 -19.666 -101 -30.999s-38.666 -21.666 -39.999 -30.999
l-146 -1051c-1.33301 -8 8.33398 -17.833 29.001 -29.5s52.667 -22.167 96 -31.5l-6 -43h-410l7 43c42 9.33301 75.333 19.5 100 30.5s37.667 21.167 39 30.5l70 510h-556l-69 -510c-2 -8 7.5 -17.833 28.5 -29.5s52.5 -22.167 94.5 -31.5l-6 -43h-410l6 43
c42 9.33301 75.667 19.5 101 30.5s38.666 21.167 39.999 30.5l146 1051c1.33301 8 -8.33398 18 -29.001 30s-52.667 22.667 -96 32l6 43h410z" />
    <glyph glyph-name="I" unicode="I" horiz-adv-x="573" 
d="M598 1217c-42 -9.33301 -75.668 -19.668 -101.001 -31.001s-38.666 -21.666 -39.999 -30.999l-146 -1051c-1.33301 -8 8.33398 -17.833 29.001 -29.5s52.667 -22.167 96 -31.5l-6 -43h-410l7 43c42 9.33301 75.5 19.5 100.5 30.5s38.5 21.167 40.5 30.5l143 1051
c1.33301 8 -8.33398 18 -29.001 30s-52 22.667 -94 32l7 43h409z" />
    <glyph glyph-name="J" unicode="J" horiz-adv-x="578" 
d="M623 1217c-42 -9.33301 -75.833 -19.665 -101.5 -30.998s-39.167 -21.666 -40.5 -30.999l-131 -950c-10.667 -79.333 -24.667 -145.5 -42 -198.5s-36.833 -97.833 -58.5 -134.5s-45.167 -67.334 -70.5 -92.001s-51.666 -47.667 -78.999 -69
c-18 -14 -37.5 -26.667 -58.5 -38s-42 -21 -63 -29s-40.5 -14.167 -58.5 -18.5s-33 -6.5 -45 -6.5c-18.667 0 -36.334 3.16699 -53.001 9.5s-31.334 13.666 -44.001 21.999s-22.834 17 -30.501 26s-11.5 16.5 -11.5 22.5c0 6.66699 4.83301 15.667 14.5 27s21 22.333 34 33
s26.333 20 40 28s24.5 12 32.5 12c6.66699 0 13.5 -3 20.5 -9s15.333 -12.5 25 -19.5s21.5 -13.5 35.5 -19.5s31.333 -9 52 -9c16 0 33.667 5.66699 53 17s38.666 31.666 57.999 60.999s37.5 69.333 54.5 120s30.833 115 41.5 193l141 1022
c0.666992 4 -1.16602 8.33301 -5.49902 13s-12.666 9.66699 -24.999 15s-29.666 10.833 -51.999 16.5s-51.5 11.5 -87.5 17.5l4 43h457z" />
    <glyph glyph-name="K" unicode="K" horiz-adv-x="1102" 
d="M578 1217c-42 -9.33301 -75.6641 -19.6611 -100.997 -30.9941s-39 -21.666 -41 -30.999l-69 -507l458 480c16.667 17.333 27.667 31.333 33 42s5.5 19.167 0.5 25.5s-15 11 -30 14s-33.833 5.5 -56.5 7.5l6 43h383l-6 -43
c-20.667 -2.66699 -38.834 -5.33398 -54.501 -8.00098s-29.834 -6.33398 -42.501 -11.001s-24.334 -10.334 -35.001 -17.001s-21.334 -15.334 -32.001 -26.001l-485 -484l350 -515c9.33301 -14 19.333 -24.667 30 -32s23.5 -11.5 38.5 -12.5s33.333 1.5 55 7.5
s48.167 15.333 79.5 28l18 -36c-25.333 -19.333 -50.166 -36.833 -74.499 -52.5s-47.333 -28.834 -69 -39.501s-41.667 -18.834 -60 -24.501s-33.833 -8.5 -46.5 -8.5c-10 0 -19.167 0.833008 -27.5 2.5s-16.166 5 -23.499 10s-14.666 11.667 -21.999 20
s-15 19.166 -23 32.499l-366 586l-72 -533c-2 -8 7.5 -17.833 28.5 -29.5s52.5 -22.167 94.5 -31.5l-6 -43h-410l6 43c42 9.33301 75.667 19.5 101 30.5s38.666 21.167 39.999 30.5l146 1051c1.33301 8 -8.33398 18 -29.001 30s-52.667 22.667 -96 32l6 43h410z" />
    <glyph glyph-name="L" unicode="L" horiz-adv-x="918" 
d="M848 244c-13.333 -58 -26.8311 -108.336 -40.498 -151.003s-24.834 -73.667 -33.501 -93h-774l6 43c42 9.33301 75.667 19.5 101 30.5s38.666 21.167 39.999 30.5l146 1051c1.33301 8 -8.33398 18 -29.001 30s-52.667 22.667 -96 32l6 43h410l-6 -43
c-42 -9.33301 -75.667 -19.666 -101 -30.999s-39 -21.666 -41 -30.999l-137 -1001c-1.33301 -12 0 -22.167 4 -30.5s12.167 -15 24.5 -20s29.333 -8.5 51 -10.5s49.167 -3 82.5 -3h127c28 0 51.833 1.66699 71.5 5s37.5 10.833 53.5 22.5s31.333 28.834 46 51.501
s31.334 53.667 50.001 93z" />
    <glyph glyph-name="M" unicode="M" horiz-adv-x="1511" 
d="M1532 1217c-18 0 -38.665 -3.16797 -61.998 -9.50098s-47 -15.166 -71 -26.499l-121 -1077c-1.33301 -8 9 -17.833 31 -29.5s54.667 -22.167 98 -31.5l-6 -43h-410l6 43c42 9.33301 76.5 19.5 103.5 30.5s41.167 21.167 42.5 30.5l108 955l-540 -1059h-41l-278 1047
l-136 -943c-1.33301 -8 8 -17.833 28 -29.5s51.667 -22.167 95 -31.5l-6 -43h-369l6 43c43.333 9.33301 77.166 19.5 101.499 30.5s37.166 21.167 38.499 30.5l156 1075c-20.667 14 -42.167 23.833 -64.5 29.5s-42.166 8.5 -59.499 8.5l6 43h265
c5.33301 0 9.83301 -1 13.5 -3s7 -6 10 -12s6.16699 -14.5 9.5 -25.5s7.33301 -25.5 12 -43.5l249 -895l459 895c9.33301 18 17.166 32.5 23.499 43.5s12 19.5 17 25.5s9.66699 10 14 12s9.5 3 15.5 3h260z" />
    <glyph glyph-name="N" unicode="N" horiz-adv-x="1239" 
d="M1288 1217c-44 -6.66699 -77.165 -15.833 -99.498 -27.5s-34.166 -23.167 -35.499 -34.5l-164 -1186c-14 2 -26.667 4.33301 -38 7s-21.666 6.66699 -30.999 12s-18 12.5 -26 21.5s-16 20.833 -24 35.5l-497 959l-123 -900c-2 -8 6.33301 -18.333 25 -31
s50.667 -22.667 96 -30l-6 -43h-365l6 43c45.333 6 79.166 15.333 101.499 28s34.166 23.667 35.499 33l146 1050c-17.333 20 -36.333 34.167 -57 42.5s-45.334 15.166 -74.001 20.499l6 43h178c14.667 0 26.167 -0.333008 34.5 -1s15.666 -3.5 21.999 -8.5
s12.333 -12.833 18 -23.5l23.5 -45l484 -924l123 897c0.666992 4 -1 8.83301 -5 14.5s-10.833 11.334 -20.5 17.001s-22.5 11.167 -38.5 16.5s-35.667 10 -59 14l6 43h364z" />
    <glyph glyph-name="O" unicode="O" horiz-adv-x="1116" 
d="M936 756c0 56 -6.00098 108.835 -18.001 158.502s-29.667 93 -53 130s-52 66.333 -86 88s-73 32.5 -117 32.5c-50.667 0 -96.167 -9.83301 -136.5 -29.5s-76.166 -45.834 -107.499 -78.501s-58 -70.667 -80 -114s-40.167 -88.333 -54.5 -135
s-24.833 -93.834 -31.5 -141.501s-10 -92.5 -10 -134.5c0 -62 6.5 -119.5 19.5 -172.5s31.5 -98.667 55.5 -137s52.833 -68.333 86.5 -90s71.167 -32.5 112.5 -32.5c51.333 0 97.5 10.333 138.5 31s77 48.167 108 82.5s57.5 74 79.5 119s40 91.833 54 140.5
s24.167 97.5 30.5 146.5s9.5 94.5 9.5 136.5zM1085 774.002c0 -47.333 -3.82812 -95.334 -11.4951 -144.001s-19.334 -96.667 -35.001 -144s-35 -93.166 -58 -137.499s-49.5 -85.5 -79.5 -123.5c-28 -36 -57.833 -69.5 -89.5 -100.5s-65.334 -58 -101.001 -81
s-73.334 -41.167 -113.001 -54.5s-81.834 -20 -126.501 -20c-64 0 -119.833 13.667 -167.5 41s-87.334 64.5 -119.001 111.5s-55.334 101.833 -71.001 164.5s-23.5 129 -23.5 199c0 42 3.83301 86.5 11.5 133.5s18.667 94 33 141s31.833 92.667 52.5 137
s44.334 84.833 71.001 121.5c28 37.333 58.167 72.5 90.5 105.5s67 61.833 104 86.5s76.5 44.167 118.5 58.5s86.667 21.5 134 21.5c65.333 0 122 -13.667 170 -41s87.5 -64.5 118.5 -111.5s54 -101.833 69 -164.5s22.5 -129 22.5 -199z" />
    <glyph glyph-name="P" unicode="P" horiz-adv-x="965" 
d="M975 942c0 -56.667 -10.998 -109.834 -32.998 -159.501s-52.167 -92.834 -90.5 -129.501s-83.166 -65.5 -134.499 -86.5s-106 -31.5 -164 -31.5c-25.333 0 -51 3.16699 -77 9.5s-48 14.5 -66 24.5l-11 74c22.667 -9.33301 45.167 -17.166 67.5 -23.499
s44.166 -9.5 65.499 -9.5c44 0 84.333 7.16699 121 21.5s68.167 34.5 94.5 60.5s46.833 57.167 61.5 93.5s22 76.166 22 119.499c0 56 -9 103.167 -27 141.5s-42.333 69.333 -73 93s-66.334 40.667 -107.001 51s-83.334 15.5 -128.001 15.5h-27
c-8.66699 0 -17.334 -0.333008 -26.001 -1l-150 -1101c-1.33301 -4 0 -8.33301 4 -13s11.667 -9.66699 23 -15s27 -10.666 47 -15.999s45.667 -11 77 -17l-6 -43h-438l6 43c42 9.33301 75.667 19.5 101 30.5s38.666 21.167 39.999 30.5l149 1091
c-23.333 -3.33301 -47.666 -7.33301 -72.999 -12s-52.666 -10.667 -81.999 -18v60c28 10 56.833 19.167 86.5 27.5s61.5 15.166 95.5 20.499s70.5 9.5 109.5 12.5s81.167 4.5 126.5 4.5c64 0 121.667 -7.33301 173 -22s95 -36.667 131 -66s63.667 -65.666 83 -108.999
s29 -93.666 29 -150.999z" />
    <glyph glyph-name="Q" unicode="Q" horiz-adv-x="1135" 
d="M936 756c0 56 -6.00098 108.835 -18.001 158.502s-29.667 93 -53 130s-52 66.333 -86 88s-73 32.5 -117 32.5c-50.667 0 -96.167 -9.83301 -136.5 -29.5s-76.166 -45.834 -107.499 -78.501s-58 -70.667 -80 -114s-40.167 -88.333 -54.5 -135
s-24.833 -93.834 -31.5 -141.501s-10 -92.5 -10 -134.5c0 -62 6.5 -119.5 19.5 -172.5s31.5 -98.667 55.5 -137s52.833 -68.333 86.5 -90s71.167 -32.5 112.5 -32.5c51.333 0 97.5 10.333 138.5 31s77 48.167 108 82.5s57.5 74 79.5 119s40 91.833 54 140.5
s24.167 97.5 30.5 146.5s9.5 94.5 9.5 136.5zM1104 -116.998c-19.333 -29.333 -38.332 -55.168 -56.999 -77.501s-36.5 -41 -53.5 -56s-32.5 -26.5 -46.5 -34.5s-26 -12 -36 -12c-37.333 0 -72.666 9.66699 -105.999 29s-66 43 -98 71s-63.833 57.5 -95.5 88.5
s-64.167 57.833 -97.5 80.5c-14 -2 -28.333 -3 -43 -3c-64 0 -119.833 13.667 -167.5 41s-87.334 64.5 -119.001 111.5s-55.334 101.833 -71.001 164.5s-23.5 129 -23.5 199c0 42 3.83301 86.5 11.5 133.5s18.667 94 33 141s31.833 92.667 52.5 137
s44.334 84.833 71.001 121.5c28 37.333 58.167 72.5 90.5 105.5s67 61.833 104 86.5s76.5 44.167 118.5 58.5s86.667 21.5 134 21.5c65.333 0 122 -13.667 170 -41s87.5 -64.5 118.5 -111.5s54 -101.833 69 -164.5s22.5 -129 22.5 -199
c0 -47.333 -3.83301 -95.333 -11.5 -144s-19.334 -96.667 -35.001 -144s-35 -93.166 -58 -137.499s-49.5 -85.5 -79.5 -123.5c-36 -46 -74.5 -87.5 -115.5 -124.5s-85.5 -67.167 -133.5 -90.5c26 -16 51.167 -33.833 75.5 -53.5l72 -55.5
c23.667 -17.333 47 -31.833 70 -43.5s45.833 -17.5 68.5 -17.5c8 0 16.167 1.33301 24.5 4s18 7 29 13s23.833 14 38.5 24l53 37z" />
    <glyph glyph-name="R" unicode="R" horiz-adv-x="1077" 
d="M1077 109c-26 -17.333 -51.6699 -33.5049 -77.0029 -48.5049s-48.666 -28 -69.999 -39s-40.5 -19.667 -57.5 -26s-29.833 -9.5 -38.5 -9.5c-11.333 0 -22.166 1.66699 -32.499 5s-20.666 9.83301 -30.999 19.5s-21.166 23 -32.499 40s-23.333 39.167 -36 66.5l-226 472
c-19.333 1.33301 -39.166 3.33301 -59.499 6s-38.833 6 -55.5 10l-68 -501c-2 -8 7.5 -17.833 28.5 -29.5s52.5 -22.167 94.5 -31.5l-6 -43h-410l6 43c42 9.33301 75.667 19.5 101 30.5s38.666 21.167 39.999 30.5l149 1089c-26 -3.33301 -51.833 -7.16602 -77.5 -11.499
s-51.5 -9.16602 -77.5 -14.499v60c30 8.66699 60.167 16.834 90.5 24.501s62.166 14.334 95.499 20.001s69 10.167 107 13.5s79.667 5 125 5c58.667 0 111.834 -6.83301 159.501 -20.5s88.5 -34 122.5 -61s60.333 -60.333 79 -100s28 -85.5 28 -137.5
c0 -26 -5.83301 -57.833 -17.5 -95.5s-30.667 -75 -57 -112s-60.833 -71 -103.5 -102s-95.334 -52.5 -158.001 -64.5l234 -413c12 -21.333 23.5 -37.666 34.5 -48.999s24 -18.333 39 -21s33.5 -1 55.5 5s50 15.333 84 28zM513.997 1206l-36.002 -0.000976562
c-12 0 -23.667 -0.333008 -35 -1l-72 -527c19.333 -5.33301 38.5 -9.33301 57.5 -12s37.833 -4 56.5 -4c42 0 82.333 5.83301 121 17.5s72.667 29 102 52s52.833 52 70.5 87s26.5 76.167 26.5 123.5c0 49.333 -9.16699 90.833 -27.5 124.5s-41.666 60.834 -69.999 81.501
s-59.666 35.5 -93.999 44.5s-67.5 13.5 -99.5 13.5z" />
    <glyph glyph-name="S" unicode="S" horiz-adv-x="899" 
d="M872 1198c2.66699 -2 2.66699 -6.49609 0 -13.4961s-6.83398 -15.167 -12.501 -24.5s-12.667 -19.333 -21 -30s-16.833 -20.834 -25.5 -30.501s-16.834 -18.167 -24.501 -25.5s-13.834 -12.333 -18.501 -15l-29 6c-11.333 16 -24 31.167 -38 45.5
s-29.333 27.166 -46 38.499s-34.167 20.333 -52.5 27s-37.5 10 -57.5 10c-36 0 -68 -5.83301 -96 -17.5s-51.5 -26.667 -70.5 -45s-33.5 -38.833 -43.5 -61.5s-15 -45 -15 -67c0 -14.667 2.33301 -30 7 -46s14.334 -32.667 29.001 -50s35.5 -35.833 62.5 -55.5
s62.833 -40.834 107.5 -63.501c52.667 -27.333 97.334 -53.333 134.001 -78s66.334 -50.167 89.001 -76.5s39 -54.5 49 -84.5s15 -63.667 15 -101c0 -62.667 -13 -122.334 -39 -179.001s-61.167 -106.667 -105.5 -150s-96 -77.833 -155 -103.5s-121.5 -38.5 -187.5 -38.5
c-25.333 0 -54.166 4.33301 -86.499 13s-63 20 -92 34s-53.333 29.667 -73 47s-29.5 34.666 -29.5 51.999c0 8 4 19.667 12 35s17.5 30.833 28.5 46.5s22.667 29.167 35 40.5s22.833 17 31.5 17c8 0 17.667 -8.16699 29 -24.5s26.166 -34.5 44.499 -54.5
s41 -38.167 68 -54.5s60.167 -24.5 99.5 -24.5c40.667 0 78.5 6.83301 113.5 20.5s65.5 32.334 91.5 56.001s46.5 51.5 61.5 83.5s22.5 66.667 22.5 104c0 27.333 -4 52.833 -12 76.5s-22 46.667 -42 69s-46.667 44.5 -80 66.5s-75.333 45 -126 69
c-44 20.667 -80.333 42.834 -109 66.501s-51.167 47.667 -67.5 72s-27.833 49.166 -34.5 74.499s-10 50 -10 74c0 44 10.167 87.667 30.5 131s49 82 86 116s81.667 61.667 134 83s110.833 32 175.5 32c48 0 92.5 -9.16699 133.5 -27.5s77.5 -39.833 109.5 -64.5z" />
    <glyph glyph-name="T" unicode="T" horiz-adv-x="1067" 
d="M684 0h-446.001l6 43c57.333 12.667 97.833 25.5 121.5 38.5s36.167 24.167 37.5 33.5l147 1054h-271c-8.66699 0 -16.834 -1.83301 -24.501 -5.5s-16.167 -11.5 -25.5 -23.5s-20.333 -29.5 -33 -52.5s-28 -53.833 -46 -92.5l-37 19c2 17.333 5.16699 36.833 9.5 58.5
s9.33301 43.667 15 66s11.667 44 18 65s12.5 39.833 18.5 56.5h922l22 -25c-2.66699 -16 -6 -34.167 -10 -54.5s-8.66699 -41.166 -14 -62.499l-16.5 -63c-5.66699 -20.667 -11.167 -39.334 -16.5 -56.001h-41c-1.33301 33.333 -3.33301 61 -6 83s-6.5 39.5 -11.5 52.5
s-11.667 22 -20 27s-19.166 7.5 -32.499 7.5h-257l-144 -1054c-1.33301 -8.66699 8.33398 -19.667 29.001 -33s58 -26.333 112 -39z" />
    <glyph glyph-name="U" unicode="U" horiz-adv-x="1227" 
d="M1280 1217c-42 -9.33301 -74.6582 -19.6699 -97.9912 -31.0029s-35.666 -21.666 -36.999 -30.999l-90 -643c-12 -87.333 -32.333 -164.833 -61 -232.5s-64.334 -124.5 -107.001 -170.5s-91.834 -80.833 -147.501 -104.5s-116.5 -35.5 -182.5 -35.5
c-54.667 0 -104.834 8.33301 -150.501 25s-84.834 41 -117.501 73s-58 71.5 -76 118.5s-27 101.167 -27 162.5c0 35.333 3 73.666 9 114.999l98 692c1.33301 8 -8.33398 18 -29.001 30s-52.667 22.667 -96 32l6 43h410l-6 -43c-42 -9.33301 -75.833 -19.666 -101.5 -30.999
s-39.167 -21.666 -40.5 -30.999l-88 -645c-2.66699 -19.333 -4.33398 -38.666 -5.00098 -57.999s-1 -37.666 -1 -54.999c0 -46.667 5.66699 -89 17 -127s28.166 -70.667 50.499 -98s50.166 -48.5 83.499 -63.5s71.666 -22.5 114.999 -22.5s83.333 10.667 120 32
s69 49.666 97 84.999s51.167 76 69.5 122s30.833 94 37.5 144l92 686c1.33301 8 -7.33398 18 -26.001 30s-49.667 22.667 -93 32l6 43h375z" />
    <glyph glyph-name="V" unicode="V" horiz-adv-x="1214" 
d="M1298 1217c-42 -8.66699 -75.502 -17.166 -100.502 -25.499s-41.833 -21.833 -50.5 -40.5l-500 -1092c-6.66699 -14.667 -16.667 -27.334 -30 -38.001s-27.666 -19.5 -42.999 -26.5s-30.166 -12.5 -44.499 -16.5s-25.5 -7 -33.5 -9l-240 1182
c-3.33301 17.333 -13.833 31.333 -31.5 42s-46.167 18.667 -85.5 24l6 43h398l-6 -43c-48 -3.33301 -82 -10 -102 -20s-27.667 -25.333 -23 -46l190 -956l440 956c9.33301 19.333 3.33301 33.5 -18 42.5s-56 16.833 -104 23.5l6 43h379z" />
    <glyph glyph-name="W" unicode="W" horiz-adv-x="1571" 
d="M1665 1217l-54.999 -13.001c-17.333 -4 -32.666 -8.33301 -45.999 -13s-24.5 -9.83398 -33.5 -15.501s-14.833 -12.5 -17.5 -20.5l-360 -1096c-5.33301 -14.667 -13.833 -27.334 -25.5 -38.001s-24.334 -19.5 -38.001 -26.5s-27.334 -12.5 -41.001 -16.5
s-24.5 -7 -32.5 -9l-165 977l-384 -887c-6.66699 -15.333 -16.667 -28.166 -30 -38.499s-27.333 -19 -42 -26s-29 -12.5 -43 -16.5s-25 -7 -33 -9l-73 1178c-1.33301 16.667 -10.333 30.334 -27 41.001s-46.667 20.334 -90 29.001l6 43h391l-6 -43
c-29.333 -3.33301 -53 -7.5 -71 -12.5s-31.833 -10.5 -41.5 -16.5s-16 -12.5 -19 -19.5s-4.16699 -14.167 -3.5 -21.5l59 -893l437 1006h55l180 -1006l293 901c2.66699 8 1.16699 15 -4.5 21s-14.5 11.333 -26.5 16s-26.5 9 -43.5 13s-35.833 8 -56.5 12l6 43h385z" />
    <glyph glyph-name="X" unicode="X" horiz-adv-x="1171" 
d="M1085 0l-410.997 0.00585938l6 43c26.667 2.66699 48.667 6.16699 66 10.5s30.166 9.66602 38.499 15.999s12.666 14.166 12.999 23.499s-2.83398 20.666 -9.50098 33.999l-208 421l-293 -421c-20.667 -29.333 -21.334 -49.666 -2.00098 -60.999s56.666 -19 111.999 -23
l-6 -43h-411l6 43c40 3.33301 75 11.166 105 23.499s54.333 32.5 73 60.5l364 527l-235 479c-8 14.667 -15.667 26.667 -23 36s-16 17 -26 23s-21.833 10.833 -35.5 14.5s-30.5 7.16699 -50.5 10.5l6 43h411l-6 -43c-52 -5.33301 -87 -13.333 -105 -24
s-19.667 -30.667 -5 -60l180 -365l256 365c10.667 15.333 16 27.833 16 37.5s-5 17.667 -15 24s-24.5 11.166 -43.5 14.499s-41.833 6 -68.5 8l7 43h411l-6 -43c-22 -2.66699 -41.667 -5.83398 -59 -9.50098s-33.166 -8.66699 -47.499 -15s-27.333 -14.333 -39 -24
s-22.5 -21.5 -32.5 -35.5l-329 -467l267 -539c6.66699 -14 14.334 -25.833 23.001 -35.5s18.5 -17.667 29.5 -24s23.333 -11.333 37 -15s29.167 -6.83398 46.5 -9.50098z" />
    <glyph glyph-name="Y" unicode="Y" horiz-adv-x="1145" 
d="M733 0l-445.997 0.000976562l6 43c58 12.667 98.833 25.5 122.5 38.5s36.167 24.167 37.5 33.5l59 436c-12 48.667 -27.667 101.167 -47 157.5s-40.5 112 -63.5 167s-46.667 107 -71 156s-47.833 90.167 -70.5 123.5c-6.66699 10 -13.834 18 -21.501 24
s-17 10.5 -28 13.5s-24.5 4.33301 -40.5 4s-35.667 -1.83301 -59 -4.5l-9 43c18 4.66699 37.833 9.33398 59.5 14.001s43.167 9 64.5 13s41.5 7.33301 60.5 10s34.833 4 47.5 4c17.333 0 34.333 -13 51 -39c14.667 -22 30 -48 46 -78s32.167 -62.167 48.5 -96.5
s32 -69.333 47 -105s29 -70.667 42 -105s24.333 -66.5 34 -96.5s17.167 -56 22.5 -78l309 473c11.333 18.667 9.5 32.667 -5.5 42s-45.167 17.333 -90.5 24l6 43h360l-6 -43c-42 -8.66699 -74.833 -17.5 -98.5 -26.5s-41.167 -22.167 -52.5 -39.5l-390 -609l-59 -427
c-0.666992 -4 1.16602 -8.83301 5.49902 -14.5s12 -11.834 23 -18.501s25.667 -13.334 44 -20.001s41.166 -13 68.499 -19z" />
    <glyph glyph-name="Z" unicode="Z" horiz-adv-x="1022" 
d="M242 100l485.001 0.000976562c13.333 0 26 3.16699 38 9.5s24.167 17.666 36.5 33.999s25.333 38.5 39 66.5s29.167 63.667 46.5 107l49 -14l-13 -73.5l-14 -82l-14 -80l-12 -67.5h-834l-18 45l790 1122h-422c-10 0 -21.5 -3.66699 -34.5 -11s-26.667 -19 -41 -35
s-28.5 -37 -42.5 -63s-27 -57.667 -39 -95l-52 12l72 311c16 -6.66699 30.667 -11.667 44 -15s26.666 -5.83301 39.999 -7.5s27 -2.66699 41 -3s29.667 -0.5 47 -0.5h572l18 -46z" />
    <glyph glyph-name="bracketleft" unicode="[" horiz-adv-x="586" 
d="M686 1573c-4 -16.667 -9.83301 -33.1689 -17.5 -49.502s-14.167 -28.5 -19.5 -36.5h-262l-240 -1708h256l29 -29c-4 -13.333 -9.5 -28.166 -16.5 -44.499s-13.833 -30.166 -20.5 -41.499h-393l272 1935h385z" />
    <glyph glyph-name="backslash" unicode="\" horiz-adv-x="819" 
d="M647 -336l-26.999 10l-32.5 12.5c-11 4.33301 -21.333 9 -31 14s-16.834 9.83301 -21.501 14.5l-390 1862l37 22c18.667 -5.33301 38 -12 58 -20s38.333 -17.667 55 -29l387 -1861z" />
    <glyph glyph-name="bracketright" unicode="]" horiz-adv-x="586" 
d="M328 -336l-385 -0.00195312l-29 29c5.33301 15.333 11.5 31.333 18.5 48s13.167 29.334 18.5 38.001h262l240 1708h-254l-29 26c4 14.667 9.66699 29.834 17 45.501s14 29.167 20 40.5h391z" />
    <glyph glyph-name="asciicircum" unicode="^" horiz-adv-x="938" 
d="M854 635c-18.667 -15.333 -36.168 -28.168 -52.501 -38.501s-35.833 -20.833 -58.5 -31.5l-30 27l-160 723l-330 -680c-7.33301 -6.66699 -16 -13.5 -26 -20.5s-20.167 -13.667 -30.5 -20s-20.166 -12 -29.499 -17l-24 -12.5l-19 27l422 870c8.66699 8 19 16.167 31 24.5
l37 24.5c12.667 8 25 15.333 37 22s22.667 12.334 32 17.001z" />
    <glyph glyph-name="underscore" unicode="_" horiz-adv-x="893" 
d="M731 -156c-4 -14 -9.83203 -29.332 -17.499 -45.999s-14.834 -31.334 -21.501 -44.001h-729l-16 27c4 13.333 9.66699 28 17 44s15.333 30.667 24 44h725z" />
    <glyph glyph-name="grave" unicode="`" horiz-adv-x="606" 
d="M565 1047c-13.333 -8 -24.002 -13.3311 -32.002 -15.998s-18 -4.33398 -30 -5.00098l-250 386l32 36c8 1.33301 18.167 2.66602 30.5 3.99902s25.333 2.5 39 3.5s26.834 1.83301 39.501 2.5s23.334 1 32.001 1z" />
    <glyph glyph-name="a" unicode="a" 
d="M603 431c4.66699 30 9.83301 61.1709 15.5 93.5039l17 93.5l15 82.5l10.5 59.5c-10 8 -21 16.167 -33 24.5s-24.833 16 -38.5 23s-28 12.667 -43 17s-30.5 6.5 -46.5 6.5c-30.667 0 -59.5 -7.5 -86.5 -22.5s-52 -34.833 -75 -59.5s-43.667 -52.834 -62 -84.501
s-33.833 -64.334 -46.5 -98.001s-22.5 -66.834 -29.5 -99.501s-10.5 -62 -10.5 -88c0 -43.333 3.66699 -82.333 11 -117s17.333 -64.334 30 -89.001s27.667 -43.667 45 -57s36 -20 56 -20c16 0 35.5 10.167 58.5 30.5s47 46.666 72 78.999s49.833 68.333 74.5 108
s46.667 78.834 66 117.501zM900.999 68.0039c-58 -38 -104.834 -65.6719 -140.501 -83.0049s-63.167 -26 -82.5 -26c-12 0 -23.5 4.16699 -34.5 12.5s-20.833 24 -29.5 47s-15.5 54.833 -20.5 95.5s-7.5 93.334 -7.5 158.001c-17.333 -30.667 -38.5 -64.167 -63.5 -100.5
s-51.833 -70.333 -80.5 -102s-58.167 -58 -88.5 -79s-59.5 -31.5 -87.5 -31.5c-22 0 -45.5 6.33301 -70.5 19s-48 32.834 -69 60.501s-38.5 63.334 -52.5 107.001s-21 96.834 -21 159.501c0 52.667 6.16699 104.167 18.5 154.5s30.833 98.5 55.5 144.5
s54.834 89.167 90.501 129.5s77.167 76.5 124.5 108.5c18 12 37.833 23.667 59.5 35s44 21.333 67 30s45.833 15.667 68.5 21s44.334 8 65.001 8c14 0 27.667 -1.83301 41 -5.5s26.333 -8.5 39 -14.5s24.667 -12.5 36 -19.5l32 -20.5c15.333 11.333 31.666 22 48.999 32
s35 19.333 53 28l20 -35c-11.333 -9.33301 -20.666 -17.666 -27.999 -24.999s-13.833 -15.833 -19.5 -25.5s-10.5 -21.5 -14.5 -35.5s-8.33301 -32.333 -13 -55c-10 -48 -19.5 -97.167 -28.5 -147.5s-16.667 -97.833 -23 -142.5s-11.333 -84 -15 -118s-5.5 -58.333 -5.5 -73
c0 -38 1.16699 -70 3.5 -96s5.5 -46.833 9.5 -62.5s9 -27 15 -34s13 -10.5 21 -10.5c13.333 0 29.166 1.83301 47.499 5.5s40.833 11.167 67.5 22.5z" />
    <glyph glyph-name="b" unicode="b" horiz-adv-x="956" 
d="M604 803c-12.667 0 -30.998 -8.16699 -54.998 -24.5s-50.5 -39.333 -79.5 -69s-58.667 -64.667 -89 -105s-57.833 -84.5 -82.5 -132.5c-7.33301 -48 -12.833 -90.833 -16.5 -128.5s-5.5 -66.834 -5.5 -87.501c0 -17.333 5.16699 -36 15.5 -56s24.166 -38.5 41.499 -55.5
s36.833 -31 58.5 -42s44.167 -16.5 67.5 -16.5c24 0 46.333 4.33301 67 13s39.834 19.834 57.501 33.501s33.5 29 47.5 46s26.333 33.833 37 50.5c15.333 24 27.666 49 36.999 75s16.666 52 21.999 78s9 51.5 11 76.5s3 48.833 3 71.5c0 46 -4.16699 86.167 -12.5 120.5
s-19 62.833 -32 85.5s-27.667 39.5 -44 50.5s-32.5 16.5 -48.5 16.5zM885.002 610c-1.33301 -70.667 -11.8301 -141.828 -31.4971 -213.495s-53.5 -141.167 -101.5 -208.5c-22.667 -30 -47.834 -58.833 -75.501 -86.5s-57.834 -52 -90.501 -73s-67.667 -37.833 -105 -50.5
s-77 -19 -119 -19c-14 0 -29.5 3.5 -46.5 10.5s-34.333 16.833 -52 29.5s-35 27.334 -52 44.001s-32 34.5 -45 53.5s-23.5 38.833 -31.5 59.5s-12 41 -12 61c0 17.333 2.16699 44.666 6.5 81.999s10 81 17 131s15 104.333 24 163l27 179.5l27 181
c9 59.667 17 115.167 24 166.5s12.667 96.666 17 135.999s6.5 69.333 6.5 90c0 15.333 -1.66699 27.5 -5 36.5s-7.66602 15.667 -12.999 20s-11 7.16602 -17 8.49902s-12 2 -18 2s-14.5 -1.5 -25.5 -4.5l-33.5 -9.5l-41 -13l-13 39c28 12.667 56.667 24.667 86 36
s56.833 21.333 82.5 30s48.167 15.667 67.5 21s33 8 41 8c18.667 0 31.5 -6 38.5 -18s10.5 -33.333 10.5 -64c0 -20.667 -1.66699 -47.834 -5 -81.501s-7.83301 -72 -13.5 -115s-12.334 -89.667 -20.001 -140l-24 -155.5l-25 -161.5l-24.5 -157.5
c34 57.333 69.167 105.666 105.5 144.999s71.5 71.166 105.5 95.499s65.833 41.833 95.5 52.5s54.834 16 75.501 16c26 0 50.333 -7.16699 73 -21.5s42.167 -35.166 58.5 -62.499s29.166 -61.333 38.499 -102s13.666 -87.334 12.999 -140.001z" />
    <glyph glyph-name="c" unicode="c" horiz-adv-x="795" 
d="M813 815l-44.501 -32.0059c-15.667 -11.333 -30.834 -21.5 -45.501 -30.5s-28.5 -16.5 -41.5 -22.5s-23.833 -9 -32.5 -9c-7.33301 0 -16.333 5.66699 -27 17l-37.5 38c-14.333 14 -30.5 26.667 -48.5 38s-37.667 17 -59 17c-30.667 0 -58.667 -7.33301 -84 -22
s-48.333 -34.334 -69 -59.001s-38.834 -53.167 -54.501 -85.5s-28.667 -66 -39 -101s-18.166 -70.167 -23.499 -105.5s-8 -68.666 -8 -99.999c0 -43.333 4.83301 -82.333 14.5 -117s23.167 -64.167 40.5 -88.5s38 -43.166 62 -56.499s50.333 -20 79 -20c12 0 27.333 2 46 6
s40.167 11.5 64.5 22.5s51.5 25.833 81.5 44.5s63 42.667 99 72c5.33301 -7.33301 11 -14.666 17 -21.999s10.667 -13.666 14 -18.999c-52 -47.333 -98.667 -85.5 -140 -114.5s-78.833 -51.333 -112.5 -67s-64 -26.167 -91 -31.5s-52.5 -8 -76.5 -8
c-22.667 0 -48 5.66699 -76 17s-54.5 31 -79.5 59s-46 65.333 -63 112s-25.5 105 -25.5 175c0 44.667 4.66699 90.834 14 138.501s24.5 94.334 45.5 140.001s48.333 89.167 82 130.5s75.167 78.333 124.5 111c18.667 12 39.334 23.667 62.001 35s46.167 21.333 70.5 30
s48.333 15.667 72 21s45.834 8 66.501 8c29.333 0 55.5 -5.66699 78.5 -17s43.5 -24.166 61.5 -38.499s33.833 -28 47.5 -41s25.5 -21.167 35.5 -24.5z" />
    <glyph glyph-name="d" unicode="d" horiz-adv-x="969" 
d="M621 424l20.998 136.502l26 161.5l-36.5 37.5c-13 13 -27 24.833 -42 35.5s-30.833 19.334 -47.5 26.001s-34.334 10 -53.001 10c-30.667 0 -59.167 -7.5 -85.5 -22.5s-50.666 -34.833 -72.999 -59.5s-42.166 -52.834 -59.499 -84.501s-32 -64.334 -44 -98.001
s-21.167 -66.834 -27.5 -99.501s-9.5 -62 -9.5 -88c0 -43.333 4.5 -82.333 13.5 -117s20.833 -64.334 35.5 -89.001s31.334 -43.667 50.001 -57s37.667 -20 57 -20c18 0 38 8.33301 60 25s44.833 39.834 68.5 69.501s48 64.5 73 104.5s49.5 83 73.5 129zM923.998 68.002
c-56.667 -38 -103.161 -65.668 -139.494 -83.001s-65.833 -26 -88.5 -26c-12.667 0 -24.334 5.16699 -35.001 15.5s-19.834 28 -27.501 53s-13.834 58.167 -18.501 99.5s-7 92.666 -7 153.999c-22.667 -42 -47.167 -82.333 -73.5 -121s-53.833 -73 -82.5 -103
s-58 -53.833 -88 -71.5s-59.333 -26.5 -88 -26.5c-22.667 0 -47 6.83301 -73 20.5s-50.167 35 -72.5 64s-40.833 66 -55.5 111s-22 98.5 -22 160.5c0 52.667 5.66699 103.834 17 153.501s28.5 97 51.5 142s52 87 87 126s76.167 74.167 123.5 105.5
c18.667 12 38.834 23.5 60.501 34.5s43.834 21 66.501 30s45.334 16.167 68.001 21.5s44.334 8 65.001 8c16.667 0 33.667 -5.33301 51 -16s34.666 -23 51.999 -37l22.5 143c7 46.667 13.167 90.167 18.5 130.5s9.66602 76.833 12.999 109.5s5 59.334 5 80.001
c0 15.333 -1.16699 27.5 -3.5 36.5s-5.66602 15.667 -9.99902 20s-9.16602 7.16602 -14.499 8.49902s-11 2 -17 2s-14.833 -1.5 -26.5 -4.5l-35.5 -9.5l-45 -13l-12 39c28 12.667 56.167 24.667 84.5 36s54.666 21.333 78.999 30s45.833 15.667 64.5 21s32 8 40 8
c18.667 0 32.5 -6 41.5 -18s13.5 -33.333 13.5 -64c0 -26 -2.33301 -59.667 -7 -101s-10.834 -87.666 -18.501 -138.999s-16.334 -106 -26.001 -164l-30 -175.5l-30 -174.5l-26 -160c-7.66699 -49.333 -13.834 -93.5 -18.501 -132.5s-7 -69.833 -7 -92.5
c0 -77.333 3.66699 -133.5 11 -168.5s18.666 -52.5 33.999 -52.5c17.333 0 35.166 1.83301 53.499 5.5s39.166 10.5 62.499 20.5z" />
    <glyph glyph-name="e" unicode="e" horiz-adv-x="805" 
d="M391 782c-22 -20 -43.499 -44.3369 -64.499 -73.0039s-40 -59.667 -57 -93s-31.167 -68.166 -42.5 -104.499s-18.333 -72.166 -21 -107.499c87.333 34 156.5 64.833 207.5 92.5s89.5 53.834 115.5 78.501s42.667 48.334 50 71.001s11 45.667 11 69
c0 20.667 -2.66699 38.5 -8 53.5s-12.333 27 -21 36s-18.5 15.667 -29.5 20s-22.167 6.5 -33.5 6.5c-10.667 0 -26.334 -3.83301 -47.001 -11.5s-40.667 -20.167 -60 -37.5zM750.001 759.996c0 -18.667 -2.1709 -38.3301 -6.50391 -58.9971s-13.333 -42 -27 -64
s-32.667 -45 -57 -69s-56.666 -48.833 -96.999 -74.5s-89.5 -52.334 -147.5 -80.001s-127.333 -56.5 -208 -86.5c4 -37.333 11.833 -71.333 23.5 -102s25.334 -57 41.001 -79s32.667 -39.167 51 -51.5s36.5 -18.5 54.5 -18.5c14 0 31 1.5 51 4.5s43.167 9.5 69.5 19.5
s56 24.667 89 44s69.5 45 109.5 77c7.33301 -4 13.833 -10.5 19.5 -19.5s9.5 -16.167 11.5 -21.5c-54.667 -47.333 -103 -85.5 -145 -114.5s-79.5 -51.333 -112.5 -67s-62.667 -26.167 -89 -31.5s-51.5 -8 -75.5 -8c-22 0 -47 6.16699 -75 18.5s-54.333 32 -79 59
s-45.5 62.333 -62.5 106s-25.5 97.167 -25.5 160.5c0 52 6.33301 103.167 19 153.5s30.834 98.666 54.501 144.999s52.834 90.166 87.501 131.499s74 79 118 113c15.333 12 32.666 23.5 51.999 34.5s39.5 20.667 60.5 29s42.333 14.833 64 19.5s42.834 7 63.501 7
c28.667 0 53.5 -5.16699 74.5 -15.5s38.5 -23.833 52.5 -40.5s24.333 -35.5 31 -56.5s10 -42.167 10 -63.5z" />
    <glyph glyph-name="f" unicode="f" horiz-adv-x="559" 
d="M903 1403l-44.9971 -32.498c-16 -11.667 -31.667 -22.334 -47 -32.001s-29.5 -17.667 -42.5 -24s-23.5 -9.5 -31.5 -9.5c-8.66699 0 -17.334 5.83301 -26.001 17.5l-29 38.5c-10.667 14 -23 26.833 -37 38.5s-30.333 17.5 -49 17.5c-25.333 0 -47.666 -7.5 -66.999 -22.5
s-36.333 -35 -51 -60s-27.334 -53.667 -38.001 -86s-19.667 -65.833 -27 -100.5s-13.333 -69 -18 -103s-8.66699 -65 -12 -93l-6 -47h256l20 -28c-6.66699 -9.33301 -15.667 -19.5 -27 -30.5s-23.333 -21.5 -36 -31.5s-24.834 -19.167 -36.501 -27.5
s-20.834 -14.166 -27.501 -17.499c-3.33301 9.33301 -8.5 16.833 -15.5 22.5s-16.5 10.167 -28.5 13.5s-27 5.66602 -45 6.99902s-39.333 2 -64 2h-6l-72 -622c-8.66699 -73.333 -23.5 -144.166 -44.5 -212.499s-47.333 -132 -79 -191s-68.167 -112 -109.5 -159
s-86.666 -85.5 -135.999 -115.5l-26 63c33.333 18.667 63.5 48 90.5 88s50.667 86 71 138s37.166 107.167 50.499 165.5s23 114.833 29 169.5l78 676h-151l-15 31l101 59h75c6.66699 53.333 14.5 104.666 23.5 153.999s21.667 96 38 140s38 85.167 65 123.5
s61.5 73.166 103.5 104.499l52 36c16.667 11.333 33.667 21.333 51 30s35.166 15.334 53.499 20.001s37.833 7 58.5 7c29.333 0 55.833 -5.5 79.5 -16.5s44.834 -23.333 63.501 -37s35.167 -26.834 49.5 -39.501s26.5 -20.667 36.5 -24z" />
    <glyph glyph-name="g" unicode="g" horiz-adv-x="911" 
d="M338 96c14 0 33 11.1719 57 33.5049s49.833 52.166 77.5 89.499s55.667 80.666 84 129.999s53.5 101 75.5 155l8.5 79.5c3 27.667 7.16699 57.167 12.5 88.5c2 14 4.83301 27.333 8.5 40s7.83398 24.667 12.501 36l-33 26c-12 9.33301 -25.167 18.333 -39.5 27
s-29.833 15.834 -46.5 21.501s-34.334 8.5 -53.001 8.5c-30.667 0 -59.667 -7.5 -87 -22.5s-52.5 -34.833 -75.5 -59.5s-43.667 -52.834 -62 -84.501s-34 -64.334 -47 -98.001s-23 -66.834 -30 -99.501s-10.5 -62 -10.5 -88c0 -43.333 4 -82.333 12 -117
s18.667 -64.334 32 -89.001s29 -43.667 47 -57s37 -20 57 -20zM879 901.005c-22.667 -18.667 -40.5029 -41.668 -53.5029 -69.001s-22.5 -65 -28.5 -113c-9.33301 -79.333 -16.166 -151.666 -20.499 -216.999s-8 -126.5 -11 -183.5s-6.66699 -111.333 -11 -163
s-11.166 -103.167 -20.499 -154.5c-12 -69.333 -33.167 -134.333 -63.5 -195s-66.333 -113.667 -108 -159s-87.667 -81.166 -138 -107.499s-101.5 -39.5 -153.5 -39.5c-28 0 -58.167 4.16699 -90.5 12.5s-62.166 18.5 -89.499 30.5s-50.166 25 -68.499 39s-27.5 27 -27.5 39
c0 11.333 4.33301 24.166 13 38.499s18.667 27.666 30 39.999s22.5 22.833 33.5 31.5s18.833 13 23.5 13c5.33301 0 10.833 -3.33301 16.5 -10l21 -24.5c8.33301 -9.66699 18.333 -20.334 30 -32.001s25.834 -22.334 42.501 -32.001s36.667 -17.834 60 -24.501
s50.666 -10 81.999 -10c64.667 0 116 29 154 87s66.667 142.667 86 254c6 37.333 10.833 72.5 14.5 105.5s6.66699 65 9 96s4.16602 61.333 5.49902 91l4 91.5c-21.333 -42 -46.166 -85.167 -74.499 -129.5s-58.333 -84.833 -90 -121.5s-63.834 -66.834 -96.501 -90.501
s-63.667 -35.5 -93 -35.5c-22 0 -45.5 6.33301 -70.5 19s-48.333 32.834 -70 60.501s-39.5 63.334 -53.5 107.001s-21 96.834 -21 159.501c0 52.667 6 104.167 18 154.5s30.167 98.333 54.5 144s54.833 88.667 91.5 129s79.667 76.833 129 109.5
c18.667 12 38.667 23.667 60 35s43.333 21.333 66 30s45.167 15.667 67.5 21s43.833 8 64.5 8c14.667 0 29 -2.16699 43 -6.5s27.5 -9.83301 40.5 -16.5s25.333 -14 37 -22l33.5 -22c15.333 14.667 31.5 27.334 48.5 38.001s34.167 20.334 51.5 29.001z" />
    <glyph glyph-name="h" unicode="h" horiz-adv-x="1012" 
d="M969 72c-62 -36 -113.171 -63.8271 -153.504 -83.4941s-74.5 -29.5 -102.5 -29.5c-19.333 0 -36.5 10.5 -51.5 31.5s-22.5 49.5 -22.5 85.5c0 12 2.16699 33.5 6.5 64.5s9.66602 67.167 15.999 108.5l20.5 132l20.5 133c6.33301 42 11.666 79.667 15.999 113
s6.5 57.666 6.5 72.999c0 25.333 -1 46.5 -3 63.5s-5.5 30.833 -10.5 41.5s-12 18.167 -21 22.5s-20.833 6.5 -35.5 6.5c-8.66699 0 -24 -5.16699 -46 -15.5s-47.167 -26 -75.5 -47s-57.666 -47.167 -87.999 -78.5s-58.166 -68.333 -83.499 -111
c-18 -32 -33 -71.833 -45 -119.5s-22.667 -101.5 -32 -161.5c-6 -36.667 -10.667 -69 -14 -97s-5.83301 -52.833 -7.5 -74.5s-2.66699 -41 -3 -58s0.166992 -32.5 1.5 -46.5c-8.66699 -4.66699 -19.5 -9.83398 -32.5 -15.501l-40 -17.5l-39.5 -17.5
c-12.667 -5.66699 -23 -10.834 -31 -15.501l-33 31l22.5 133.5l29 175l32 201.5l32.5 211.5l30.5 206c9.66699 67 18 128.667 25 185s12.667 105.666 17 147.999s6.5 74.166 6.5 95.499c0 15.333 -1.16699 27.5 -3.5 36.5s-5.33301 15.667 -9 20s-8 7.16602 -13 8.49902
s-10.167 2 -15.5 2c-6.66699 0 -16.167 -1.5 -28.5 -4.5l-38.5 -9.5l-48 -13l-12 39c28 12.667 56.167 24.667 84.5 36s54.833 21.333 79.5 30s46.334 15.667 65.001 21s32.334 8 41.001 8c18.667 0 33.167 -6 43.5 -18s15.5 -33.333 15.5 -64c0 -16 -2 -42.5 -6 -79.5
s-9.16699 -79.5 -15.5 -127.5s-13.5 -99.333 -21.5 -154l-23.5 -158.5l-21.5 -140.5l-16 -100c38.667 48 77 88.5 115 121.5s75 59.5 111 79.5s70.5 34.5 103.5 43.5s64.5 13.5 94.5 13.5c42 0 72 -13.167 90 -39.5s27 -71.833 27 -136.5
c0 -23.333 -2.16699 -52.333 -6.5 -87s-9.66602 -72 -15.999 -112l-20.5 -124l-20.5 -121.5c-6.33301 -38.333 -11.666 -73.333 -15.999 -105s-6.5 -56.834 -6.5 -75.501c0 -22.667 4 -38.167 12 -46.5s16 -12.5 24 -12.5c18.667 0 38 2.83301 58 8.5
s42.333 13.834 67 24.501z" />
    <glyph glyph-name="i" unicode="i" horiz-adv-x="504" 
d="M455 72l-84.499 -48.9961c-25 -14 -47.833 -25.833 -68.5 -35.5s-39.334 -16.834 -56.001 -21.501s-32.334 -7 -47.001 -7c-22.667 0 -40.667 10.5 -54 31.5s-20 49.5 -20 85.5c0 20 2.5 48.5 7.5 85.5s11.167 78 18.5 123l24 141l24 140
c7.33301 44.333 13.5 83.833 18.5 118.5s7.5 60 7.5 76c0 15.333 -1 27.5 -3 36.5s-4.66699 15.667 -8 20s-7.66602 7.16602 -12.999 8.49902s-11 2 -17 2c-5.33301 0 -13.5 -1.16699 -24.5 -3.5s-22.167 -5.16602 -33.5 -8.49902
c-12.667 -3.33301 -26.667 -7.33301 -42 -12l-14 37l83.5 36.5c27.667 11.667 53.5 21.834 77.5 30.501s45 15.667 63 21s31.333 8 40 8c18.667 0 31.834 -6.33301 39.501 -19s11.5 -34.334 11.5 -65.001c0 -19.333 -2.5 -47.833 -7.5 -85.5s-11.5 -79.834 -19.5 -126.501
l-25 -146.5l-25 -146.5c-8 -46.667 -14.5 -88.834 -19.5 -126.501s-7.5 -66.167 -7.5 -85.5c0 -20.667 2.16699 -35.667 6.5 -45s12.166 -14 23.499 -14c20.667 0 40.5 2.66699 59.5 8s42.167 13.666 69.5 24.999zM482.001 1262
c0 -18.667 -2.83203 -37.166 -8.49902 -55.499s-13.834 -35 -24.501 -50s-23.667 -27.167 -39 -36.5s-32.333 -14 -51 -14c-20.667 0 -36.667 6 -48 18s-17 29.333 -17 52c0 18 3 36.167 9 54.5s14.333 35.166 25 50.499s23.5 27.833 38.5 37.5s31.833 14.5 50.5 14.5
c20.667 0 36.667 -6.16699 48 -18.5s17 -29.833 17 -52.5z" />
    <glyph glyph-name="j" unicode="j" horiz-adv-x="502" 
d="M375 870c0 -7.33301 -0.832031 -20.1709 -2.49902 -38.5039s-3.83398 -39.833 -6.50098 -64.5l-8.5 -79.5l-9 -83l-8.5 -75c-2.66699 -23 -4.66699 -41.833 -6 -56.5c-2.66699 -23.333 -5.33398 -49.833 -8.00098 -79.5s-6 -61.834 -10 -96.501l-13 -110.5
c-4.66699 -39 -10.334 -79.167 -17.001 -120.5c-13.333 -78 -29.833 -143.5 -49.5 -196.5s-41.167 -97.667 -64.5 -134s-48.166 -66.666 -74.499 -90.999s-53.166 -47.166 -80.499 -68.499c-18 -14 -37.667 -25.833 -59 -35.5s-42.333 -17.5 -63 -23.5s-40 -10.333 -58 -13
s-33 -4 -45 -4c-18.667 0 -38.334 2.66699 -59.001 8s-39.667 12 -57 20s-31.666 16.333 -42.999 25s-17 16.334 -17 23.001c0 8.66699 4.33301 20 13 34s19 27.5 31 40.5s24.167 24.333 36.5 34s21.833 14.5 28.5 14.5c5.33301 0 12 -4.33301 20 -13s18.667 -18 32 -28
s30 -19.333 50 -28s44.667 -13 74 -13c56.667 0 103.334 34.333 140.001 103s65.667 165.667 87 291c8.66699 49.333 16 96.333 22 141s11 86 15 124s7.33301 71.833 10 101.5s5 54.167 7 73.5c0.666992 10.667 2 24.834 4 42.501s4 36.667 6 57l6.5 63l6.5 61.5
c2 19.333 3.5 36.5 4.5 51.5s1.5 26.167 1.5 33.5c0 15.333 -1 27.5 -3 36.5s-4.83301 15.667 -8.5 20s-8 7.16602 -13 8.49902s-10.5 2 -16.5 2s-14.5 -1.16699 -25.5 -3.5s-22.167 -5.16602 -33.5 -8.49902c-12.667 -3.33301 -26.334 -7.33301 -41.001 -12l-15 37l84 36.5
c28 11.667 54 21.834 78 30.501s45 15.667 63 21s31 8 39 8c18.667 0 32.667 -4 42 -12s14 -26 14 -54zM458.001 1262c0 -18.667 -3.00195 -37.166 -9.00195 -55.499s-14.5 -35 -25.5 -50s-24.167 -27.167 -39.5 -36.5s-32.333 -14 -51 -14c-42.667 0 -64 23.333 -64 70
c0 18 2.83301 36.167 8.5 54.5s13.834 35.166 24.501 50.499s23.5 27.833 38.5 37.5s32.167 14.5 51.5 14.5c20.667 0 36.834 -6.16699 48.501 -18.5s17.5 -29.833 17.5 -52.5z" />
    <glyph glyph-name="k" unicode="k" horiz-adv-x="899" 
d="M440 1417c0 -26 -1.99512 -58.4971 -5.99512 -97.4971s-9.16699 -82.833 -15.5 -131.5s-13.833 -100.834 -22.5 -156.501l-27 -171.5l-28.5 -178l-27.5 -175l215 163c46 34.667 83.667 64.334 113 89.001s48.166 44.5 56.499 59.5s4.66602 25.667 -11.001 32
s-45.834 8.83301 -90.501 7.5l-4 39c39.333 5.33301 77.166 12.166 113.499 20.499s75.5 12.5 117.5 12.5c32 0 52.667 -4.66699 62 -14s14 -25.333 14 -48c0 -10 -7.16699 -24 -21.5 -42s-35.333 -39.167 -63 -63.5s-61.167 -50.833 -100.5 -79.5s-84 -58.334 -134 -89.001
l-117 -71c17.333 -21.333 35 -47.166 53 -77.499s35.667 -62 53 -95l51.5 -98.5c17 -32.667 33.5 -62 49.5 -88s31.333 -47.167 46 -63.5s28.667 -24.5 42 -24.5c15.333 0 31.833 0.833008 49.5 2.5s39.167 9.5 64.5 23.5l17 -34c-44 -37.333 -82.5 -64.5 -115.5 -81.5
s-62.167 -25.5 -87.5 -25.5c-24 0 -47.333 11.333 -70 34s-44.834 51.667 -66.501 87s-42.834 74.333 -63.501 117l-60.5 124c-19.667 40 -38.834 76.167 -57.501 108.5s-37 55.5 -55 69.5c-8.66699 -56.667 -16.5 -110.667 -23.5 -162s-12.667 -97.833 -17 -139.5
s-6.83301 -77.334 -7.5 -107.001s1 -51.5 5 -65.5c-9.33301 -4.66699 -20.833 -10 -34.5 -16l-41.5 -18.5l-41 -18c-13.333 -5.66699 -24 -10.834 -32 -15.501l-35 31c2.66699 19.333 7.33398 50.833 14.001 94.5l24.5 154l32 194.5l34.5 216l33.5 218
c11 72 20.667 139 29 201s15 117 20 165s7.5 84.667 7.5 110c0 16.667 -1 29.667 -3 39s-5 16.333 -9 21s-9 7.5 -15 8.5s-13 1.5 -21 1.5c-5.33301 0 -14 -1.5 -26 -4.5s-24 -6.16699 -36 -9.5l-46 -13l-14 39c28 12.667 56.333 24.667 85 36s55.334 21.333 80.001 30
s46.334 15.667 65.001 21s32 8 40 8c9.33301 0 17.666 -1 24.999 -3s13.5 -6.5 18.5 -13.5s8.83301 -17.333 11.5 -31s4 -32.167 4 -55.5z" />
    <glyph glyph-name="l" unicode="l" horiz-adv-x="481" 
d="M436 72c-32.667 -20.667 -61.499 -38.1641 -86.499 -52.4971s-47.667 -26 -68 -35s-39.166 -15.5 -56.499 -19.5s-34.333 -6 -51 -6c-18.667 0 -35.334 10 -50.001 30s-22 49.667 -22 89c0 16.667 2.5 45 7.5 85s11.5 87.667 19.5 143l27.5 182.5l31.5 203.5l31.5 206
c10.333 68 19.5 131.333 27.5 190s14.5 110.5 19.5 155.5s7.5 79.167 7.5 102.5c0 15.333 -1.5 27.5 -4.5 36.5s-6.83301 15.667 -11.5 20s-10.167 7.16602 -16.5 8.49902s-12.5 2 -18.5 2c-5.33301 0 -13.833 -1.5 -25.5 -4.5s-23.167 -6.16699 -34.5 -9.5l-44 -13l-15 39
c28 12.667 56.167 24.667 84.5 36s54.666 21.333 78.999 30s45.833 15.667 64.5 21s32.334 8 41.001 8c18.667 0 33.5 -6 44.5 -18s16.5 -33.333 16.5 -64c0 -26 -2.5 -62 -7.5 -108s-11.5 -98.5 -19.5 -157.5s-17.333 -122.333 -28 -190l-32 -205.5l-32 -204.5
c-10.667 -67 -20 -129.167 -28 -186.5s-14.5 -107.833 -19.5 -151.5s-7.5 -76.834 -7.5 -99.501s3.16699 -38.167 9.5 -46.5s14.833 -12.5 25.5 -12.5c15.333 0 33.166 2.66699 53.499 8s45.5 13.666 75.5 24.999z" />
    <glyph glyph-name="m" unicode="m" horiz-adv-x="1477" 
d="M1413 72c-62 -36 -113.336 -63.8232 -154.003 -83.4902s-75.334 -29.5 -104.001 -29.5c-19.333 0 -35.833 10.5 -49.5 31.5s-20.5 49.5 -20.5 85.5c0 12 2.33301 33 7 63l17 105.5c6.66699 40.333 14.167 83.5 22.5 129.5s15.833 90.833 22.5 134.5
s12.334 84.167 17.001 121.5s7 67 7 89c0 41.333 -4.16699 70.833 -12.5 88.5s-18.5 26.5 -30.5 26.5c-12.667 0 -28.667 -4.5 -48 -13.5s-40.666 -23 -63.999 -42s-48.166 -43.333 -74.499 -73s-52.5 -64.834 -78.5 -105.501c-14.667 -23.333 -26.834 -46.333 -36.501 -69
s-17.667 -46.167 -24 -70.5s-11.833 -50 -16.5 -77l-15 -88.5c-9.33301 -60.667 -15.166 -112.667 -17.499 -156s-2.5 -81.333 -0.5 -114c-9.33301 -4.66699 -20.666 -9.83398 -33.999 -15.501l-41 -17.5l-40.5 -17.5c-13 -5.66699 -23.833 -10.834 -32.5 -15.501l-32 31
c14.667 68 28.834 138.667 42.501 212s25.834 142.833 36.501 208.5s19.167 124.167 25.5 175.5s9.5 89.333 9.5 114c0 50.667 -5.16699 85.667 -15.5 105s-24.833 29 -43.5 29c-8.66699 0 -22 -4.33301 -40 -13s-38.667 -22.5 -62 -41.5s-48.166 -43.167 -74.499 -72.5
s-52.166 -64.333 -77.499 -105c-14 -21.333 -25.833 -43.333 -35.5 -66s-18 -46.5 -25 -71.5s-13.333 -51.5 -19 -79.5s-11.167 -58 -16.5 -90c-10.667 -60.667 -17.5 -112.834 -20.5 -156.501s-3.83301 -81.5 -2.5 -113.5c-8.66699 -4.66699 -19.5 -9.83398 -32.5 -15.501
l-40 -17.5l-39.5 -17.5c-12.667 -5.66699 -23 -10.834 -31 -15.501l-33 31c9.33301 46.667 18.5 95.5 27.5 146.5l26 152.5l23.5 148.5c7.33301 48.333 13.666 93.166 18.999 134.499s9.5 78.166 12.5 110.499s4.5 58.166 4.5 77.499c0 15.333 -1 27.5 -3 36.5
s-4.83301 16 -8.5 21s-7.83398 8.16699 -12.501 9.5s-9.66699 2 -15 2c-6.66699 0 -15.834 -1.33301 -27.501 -4s-23.5 -5.66699 -35.5 -9l-44 -13l-12 39l84 35c28 11.333 54 21.333 78 30s45 15.667 63 21s31 8 39 8c10 0 18 -1.66699 24 -5s10.5 -9.16602 13.5 -17.499
s5 -20 6 -35s1.5 -34.167 1.5 -57.5c0 -7.33301 -0.5 -16.5 -1.5 -27.5s-2 -23 -3 -36s-2.33301 -26.5 -4 -40.5s-2.83398 -27 -3.50098 -39c39.333 46.667 76.166 86.5 110.499 119.5s67 59.667 98 80s60.667 35.166 89 44.499s56.166 14 83.499 14
c24.667 0 45.334 -5 62.001 -15s29.667 -23.333 39 -40s16 -35.5 20 -56.5s6 -42.5 6 -64.5c0 -12.667 -0.333008 -24.167 -1 -34.5s-1.66699 -22.833 -3 -37.5c38.667 44.667 74.334 82.667 107.001 114s63.167 57 91.5 77s55.333 34.5 81 43.5s51.167 13.5 76.5 13.5
c19.333 0 37 -3.16699 53 -9.5s29.667 -16.5 41 -30.5s20 -32.167 26 -54.5s9 -49.5 9 -81.5c0 -25.333 -2.16699 -55.833 -6.5 -91.5s-9.83301 -73.5 -16.5 -113.5l-21 -123l-21 -119.5c-6.66699 -37.667 -12.167 -72 -16.5 -103s-6.5 -55.833 -6.5 -74.5
c0 -22.667 3.33301 -37.834 10 -45.501s15.667 -11.5 27 -11.5c19.333 0 38.5 2.5 57.5 7.5s42.167 12.833 69.5 23.5z" />
    <glyph glyph-name="n" unicode="n" horiz-adv-x="1012" 
d="M973 72c-60.667 -36 -112.162 -63.8242 -154.495 -83.4912s-76.166 -29.5 -101.499 -29.5c-23.333 0 -41.5 10.5 -54.5 31.5s-19.5 49.5 -19.5 85.5c0 12 2.16699 33.5 6.5 64.5s9.83301 67.167 16.5 108.5l22 132l22 133c6.66699 42 12.167 79.667 16.5 113
s6.5 57.666 6.5 72.999c0 50.667 -5.33301 86 -16 106s-30.667 30 -60 30c-8.66699 0 -23.834 -5.33301 -45.501 -16s-46.167 -26.667 -73.5 -48s-55.833 -48 -85.5 -80s-56.834 -69.333 -81.501 -112c-18.667 -32 -33.834 -70.333 -45.501 -115
s-23.167 -99.334 -34.5 -164.001c-10.667 -59.333 -17.5 -110.333 -20.5 -153s-3.83301 -83.667 -2.5 -123c-8.66699 -4.66699 -19.5 -9.83398 -32.5 -15.501l-40 -17.5l-39.5 -17.5c-12.667 -5.66699 -23 -10.834 -31 -15.501l-33 31c9.33301 44 18.5 91.667 27.5 143
l26 154.5c8.33301 51.667 16.166 102.667 23.499 153s13.666 96.666 18.999 138.999s9.5 79.5 12.5 111.5s4.5 55.667 4.5 71s-0.833008 27.5 -2.5 36.5s-4 15.667 -7 20s-6.83301 7.16602 -11.5 8.49902s-10 2 -16 2s-14.833 -1.33301 -26.5 -4s-23.5 -5.66699 -35.5 -9
l-45 -13l-14 39l84.5 35c28.333 11.333 54.833 21.333 79.5 30s46.167 15.667 64.5 21s31.5 8 39.5 8c9.33301 0 16.666 -1.5 21.999 -4.5s9.16602 -8.5 11.499 -16.5s3.83301 -19.333 4.5 -34s1 -34 1 -58c0 -7.33301 -0.333008 -17.333 -1 -30s-1.5 -26.167 -2.5 -40.5
s-2.16699 -28.333 -3.5 -42s-2.33301 -24.5 -3 -32.5c36 45.333 72.333 84.333 109 117s72.667 59.5 108 80.5s69.5 36.333 102.5 46s64.5 14.5 94.5 14.5c20.667 0 39.167 -3 55.5 -9s29.833 -15.833 40.5 -29.5s18.834 -31.667 24.501 -54s8.5 -49.5 8.5 -81.5
c0 -23.333 -2.16699 -52.333 -6.5 -87s-9.83301 -72.167 -16.5 -112.5s-14 -81.833 -22 -124.5l-22 -122c-6.66699 -38.667 -12.167 -73.834 -16.5 -105.501s-6.5 -56.834 -6.5 -75.501c0 -22.667 3 -38.167 9 -46.5s15 -12.5 27 -12.5c15.333 0 33 2.66699 53 8
s44 13.666 72 24.999z" />
    <glyph glyph-name="o" unicode="o" horiz-adv-x="864" 
d="M668 504c0 102 -18.667 180.002 -56 234.002s-90.333 81 -159 81c-48 0 -88.333 -13.833 -121 -41.5s-59 -62.5 -79 -104.5s-34.333 -87.5 -43 -136.5s-13 -94.833 -13 -137.5c0 -44.667 5.5 -86.834 16.5 -126.501s26.333 -74.334 46 -104.001s42.667 -53.167 69 -70.5
s54.833 -26 85.5 -26s58.167 6.83301 82.5 20.5s46 32 65 55s35.167 49.333 48.5 79s24.333 60.5 33 92.5s15 64 19 96s6 61.667 6 89zM811 559.002c0 -44.667 -5.00293 -89.832 -15.0029 -135.499s-24.667 -90 -44 -133s-43.166 -84 -71.499 -123
s-61.166 -73.833 -98.499 -104.5c-17.333 -14 -35.666 -27.333 -54.999 -40s-39 -23.834 -59 -33.501s-40.333 -17.167 -61 -22.5s-41 -8 -61 -8c-46.667 0 -88.167 9.83301 -124.5 29.5s-67 46.667 -92 81s-44 75 -57 122s-19.5 97.833 -19.5 152.5c0 48 4 94.167 12 138.5
s21 87.166 39 128.499s42 81 72 119s67 74.667 111 110c34 26.667 71.333 49.334 112 68.001s81.667 28 123 28c52 0 96.333 -9.33301 133 -28s66.5 -44.667 89.5 -78s39.833 -73 50.5 -119s16 -96.667 16 -152z" />
    <glyph glyph-name="p" unicode="p" horiz-adv-x="965" 
d="M610 805c-18 0 -40.6689 -8.33398 -68.002 -25.001s-56 -40.167 -86 -70.5s-59.667 -66.666 -89 -108.999s-54.666 -89.166 -75.999 -140.499l-25 -146c10 -20 24 -42.167 42 -66.5s38.667 -47 62 -68s48.333 -38.5 75 -52.5s53.667 -21 81 -21
c36 0 67.833 9.83301 95.5 29.5s49.167 47.5 64.5 83.5c12 26 21.667 53.167 29 81.5s12.666 56.333 15.999 84s5.5 54.167 6.5 79.5s1.5 48 1.5 68c0 46.667 -3.66699 87.167 -11 121.5s-17.166 62.666 -29.499 84.999s-26.166 39 -41.499 50s-31 16.5 -47 16.5z
M347.998 869.999c0 -20 -2.16699 -48.001 -6.5 -84.001s-11.166 -83.333 -20.499 -142c42.667 66 82.667 118.333 120 157s71.5 68 102.5 88s59.167 32.833 84.5 38.5s48 8.5 68 8.5c26 0 50.333 -6.66699 73 -20s42.667 -33.166 60 -59.499s31 -58.666 41 -96.999
s15 -82.5 15 -132.5c0 -66.667 -9.33301 -137.334 -28 -212.001s-49 -150.334 -91 -227.001c-15.333 -26.667 -32.833 -53.5 -52.5 -80.5s-41.167 -51.5 -64.5 -73.5s-48.166 -40 -74.499 -54s-53.833 -21 -82.5 -21c-22.667 0 -44.834 6.83301 -66.501 20.5
s-43 31.5 -64 53.5s-41.167 47 -60.5 75s-37.666 56 -54.999 84l-31 -186c-22.667 -137.333 -36.667 -242.5 -42 -315.5s-4.33301 -118.833 3 -137.5c-10 -2.66699 -21.667 -6.16699 -35 -10.5l-41.5 -14c-14.333 -5 -28 -10 -41 -15s-23.833 -9.5 -32.5 -13.5l-32 29
c2.66699 19.333 7.5 49.333 14.5 90l25 143l31.5 179l34.5 197l34 198c11 65.333 20.667 125.833 29 181.5s15 104.667 20 147s7.5 74.166 7.5 95.499c0 15.333 -1.33301 27.5 -4 36.5s-6.33398 15.667 -11.001 20s-9.66699 7.16602 -15 8.49902s-11 2 -17 2
s-14.5 -1.16699 -25.5 -3.5s-22.167 -5.16602 -33.5 -8.49902c-12.667 -3.33301 -26.334 -7.33301 -41.001 -12l-14 37c28 12.667 56.333 24.834 85 36.501s55.5 21.834 80.5 30.501s47 15.667 66 21s32.5 8 40.5 8c13.333 0 24.5 -4.5 33.5 -13.5s13.5 -26.5 13.5 -52.5z
" />
    <glyph glyph-name="q" unicode="q" horiz-adv-x="918" 
d="M348 96c17.333 0 37.667 10.0049 61 30.0049s47.666 46 72.999 78s50.833 68.167 76.5 108.5s49.834 81.166 72.501 122.499l54 324c-10.667 8 -22.334 16.167 -35.001 24.5s-26.167 16 -40.5 23s-29.666 12.833 -45.999 17.5s-33.5 7 -51.5 7
c-30.667 0 -60 -7.5 -88 -22.5s-54.167 -34.833 -78.5 -59.5s-46.5 -52.834 -66.5 -84.501s-37.167 -64.334 -51.5 -98.001s-25.5 -66.834 -33.5 -99.501s-12 -62 -12 -88c0 -43.333 5 -82.333 15 -117s23 -64.334 39 -89.001s33.833 -43.667 53.5 -57s39.167 -20 58.5 -20z
M895.001 901.005c-11.333 -9.33301 -20.6631 -17.6699 -27.9961 -25.0029s-13.833 -15.833 -19.5 -25.5s-10.5 -21.5 -14.5 -35.5s-8 -32.333 -12 -55l-44.5 -268l-42.5 -261.5l-36.5 -240c-11 -75.667 -19.5 -143.5 -25.5 -203.5s-9.33301 -110.333 -10 -151
s2.66602 -68.334 9.99902 -83.001c-9.33301 -3.33301 -20.666 -7.16602 -33.999 -11.499l-41.5 -13.5c-14.333 -4.66699 -28.166 -9.5 -41.499 -14.5s-24 -9.5 -32 -13.5l-35 29c3.33301 25.333 8.66602 62.333 15.999 111l26.5 170l34 212l38.5 238
c-23.333 -38.667 -48.5 -76.167 -75.5 -112.5s-54.833 -68.5 -83.5 -96.5s-57.167 -50.333 -85.5 -67s-55.833 -25 -82.5 -25c-22 0 -46 6.33301 -72 19s-50.167 32.834 -72.5 60.501s-41 63.334 -56 107.001s-22.5 96.834 -22.5 159.501c0 52.667 6.83301 104.5 20.5 155.5
s33.5 99.667 59.5 146s57.5 89.5 94.5 129.5s79.167 75.333 126.5 106c18.667 12 38.667 23.667 60 35s43.166 21.333 65.499 30s44.666 15.667 66.999 21s44.166 8 65.499 8c14.667 0 29 -2 43 -6s27.667 -9 41 -15s26 -12.5 38 -19.5l35 -20.5
c15.333 11.333 31.666 22 48.999 32s35.333 19.667 54 29z" />
    <glyph glyph-name="r" unicode="r" horiz-adv-x="727" 
d="M768 850c-8 -10.667 -16.8281 -23.666 -26.4951 -38.999l-29 -44.5c-9.66699 -14.333 -18.834 -26.5 -27.501 -36.5s-16.334 -15 -23.001 -15c-12.667 0 -23.5 3.66699 -32.5 11s-17.333 15.166 -25 23.499s-15.334 16.166 -23.001 23.499s-16.5 11 -26.5 11
c-17.333 0 -37.5 -11.833 -60.5 -35.5s-46 -54.667 -69 -93s-45 -81.333 -66 -129s-38.5 -95.5 -52.5 -143.5c-7.33301 -25.333 -13.833 -53.166 -19.5 -83.499s-10.667 -61.5 -15 -93.5s-7.5 -63.5 -9.5 -94.5s-2.33301 -59.833 -1 -86.5
c-8.66699 -4.66699 -19.5 -9.83398 -32.5 -15.501l-40 -17.5l-39.5 -17.5c-12.667 -5.66699 -23 -10.834 -31 -15.501l-33 31c10 47.333 19.667 96.333 29 147s18.166 101.167 26.499 151.5s16 99.5 23 147.5s13 92.667 18 134s9 78.333 12 111s4.5 59 4.5 79
c0 15.333 -1.16699 27.5 -3.5 36.5s-5.33301 15.667 -9 20s-8 7.16602 -13 8.49902s-10.167 2 -15.5 2c-6.66699 0 -15.667 -1.16699 -27 -3.5s-22.666 -5.16602 -33.999 -8.49902c-13.333 -3.33301 -27.333 -7.33301 -42 -12l-14 37l84.5 36.5
c28.333 11.667 54.833 21.834 79.5 30.501s46.167 15.667 64.5 21s31.5 8 39.5 8c9.33301 0 16.666 -1.66699 21.999 -5s9.16602 -9.16602 11.499 -17.499s3.83301 -20 4.5 -35s1 -34.167 1 -57.5c0 -7.33301 -1 -19.666 -3 -36.999s-4.33301 -36.166 -7 -56.499
s-5.5 -40.5 -8.5 -60.5l-7.5 -49c32 66 62.333 119.667 91 161s55.834 73.666 81.501 96.999s50.167 39.166 73.5 47.499s45.666 12.5 66.999 12.5c12 0 22.833 -3.33301 32.5 -10s19.5 -14.667 29.5 -24l32 -28.5c11.333 -9.66699 24.333 -17.5 39 -23.5z" />
    <glyph glyph-name="s" unicode="s" horiz-adv-x="711" 
d="M698 844c-13.333 -15.333 -26.501 -29.165 -39.501 -41.498s-25.167 -23.166 -36.5 -32.499s-21.5 -16.5 -30.5 -21.5s-15.833 -7.5 -20.5 -7.5c-8.66699 0 -17.834 5.83301 -27.501 17.5l-33 38c-12.333 13.667 -26.666 26.334 -42.999 38.001s-35.5 17.5 -57.5 17.5
c-18.667 0 -37 -3.5 -55 -10.5s-34.167 -16.667 -48.5 -29s-26 -27.333 -35 -45s-13.5 -37.167 -13.5 -58.5c0 -23.333 11.167 -48 33.5 -74s60.5 -51.333 114.5 -76c27.333 -12.667 54.666 -27.334 81.999 -44.001s51.833 -35.834 73.5 -57.501
s39.334 -46.334 53.001 -74.001s20.5 -59.167 20.5 -94.5c0 -46 -11.833 -89.167 -35.5 -129.5s-54 -75.333 -91 -105s-78.167 -53 -123.5 -70s-89.666 -25.5 -132.999 -25.5c-31.333 0 -62.333 4.5 -93 13.5s-58 20.5 -82 34.5s-43.5 29.167 -58.5 45.5
s-22.5 31.5 -22.5 45.5c0 7.33301 4 18 12 32s17.5 27.833 28.5 41.5s22.167 25.667 33.5 36s20.666 15.5 27.999 15.5c4.66699 0 9.5 -4.16699 14.5 -12.5l19 -31c7.66699 -12.333 16.834 -25.833 27.501 -40.5s24 -28.167 40 -40.5s34.833 -22.666 56.5 -30.999
s47.167 -12.5 76.5 -12.5c23.333 0 45.5 4.5 66.5 13.5s39.333 21 55 36s28 32.667 37 53s13.5 42.166 13.5 65.499c0 26 -5.33301 49.5 -16 70.5s-24.834 40 -42.501 57s-38.167 32.5 -61.5 46.5s-47.666 27 -72.999 39c-35.333 16.667 -65 33.334 -89 50.001
s-43.333 33.667 -58 51s-25.167 35.666 -31.5 54.999s-9.5 39.666 -9.5 60.999c0 42 10.333 80.333 31 115s47.334 64.5 80.001 89.5s69.167 44.333 109.5 58s80.166 20.5 119.499 20.5c34 0 62.667 -4 86 -12s43.833 -17.333 61.5 -28s33.167 -21 46.5 -31s27 -17 41 -21z
" />
    <glyph glyph-name="t" unicode="t" horiz-adv-x="629" 
d="M580 117c-32.667 -25.333 -65.3301 -47.8369 -97.9971 -67.5039s-63.667 -36.167 -93 -49.5s-55.833 -23.5 -79.5 -30.5s-42.834 -10.5 -57.501 -10.5c-16.667 0 -32.5 5 -47.5 15s-28.333 23.833 -40 41.5s-20.834 38.834 -27.501 63.501s-10 51.667 -10 81
c0 12.667 0.333008 25.334 1 38.001s1.5 25.834 2.5 39.501s2.33301 28.167 4 43.5s3.83398 32.333 6.50098 51l77 483h-144l-15 31l101 59h72l6 35c4 27.333 8.16699 50 12.5 68s9.33301 33 15 45s11.834 21.833 18.501 29.5s14.334 14.834 23.001 21.501l101 72l28 -25
c-4.66699 -6 -9.66699 -16.667 -15 -32c-4.66699 -13.333 -10.167 -32.333 -16.5 -57s-12.833 -57.667 -19.5 -99l-9 -58h249l20 -28c-6.66699 -9.33301 -15.834 -19.5 -27.501 -30.5s-23.834 -21.5 -36.501 -31.5s-24.834 -19.167 -36.501 -27.5
s-20.5 -14.166 -26.5 -17.499c-4 9.33301 -9.5 16.833 -16.5 22.5s-16.5 10.167 -28.5 13.5s-26.833 5.66602 -44.5 6.99902s-38.834 2 -63.501 2h-3l-71 -459c-2 -12.667 -3.83301 -26.167 -5.5 -40.5s-3 -28 -4 -41s-1.66699 -25.167 -2 -36.5s-0.5 -20.333 -0.5 -27
c0 -41.333 7.5 -71.833 22.5 -91.5s31.833 -29.5 50.5 -29.5c23.333 0 51.833 5 85.5 15s75.5 26.333 125.5 49z" />
    <glyph glyph-name="u" unicode="u" horiz-adv-x="1022" 
d="M975 68c-54 -36 -99.8379 -63.1729 -137.505 -81.5059s-69.167 -27.5 -94.5 -27.5c-12.667 0 -25.167 5.83301 -37.5 17.5s-23 30.834 -32 57.501s-15.333 61.5 -19 104.5s-3.16699 95.833 1.5 158.5c-27.333 -49.333 -56.166 -94.666 -86.499 -135.999
s-61.833 -77 -94.5 -107s-66.334 -53.333 -101.001 -70s-70 -25 -106 -25c-13.333 0 -28.5 5.16699 -45.5 15.5s-33 25.833 -48 46.5s-27.667 46.334 -38 77.001s-15.5 66.334 -15.5 107.001c0 20 1.83301 45.333 5.5 76s8.16699 63.667 13.5 99s11.333 72 18 110
s12.667 74.333 18 109s9.83301 66.167 13.5 94.5s5.5 50.5 5.5 66.5c0 15.333 -1 27.5 -3 36.5s-4.83301 15.667 -8.5 20s-8 7.16602 -13 8.49902s-10.5 2 -16.5 2s-14.667 -1.16699 -26 -3.5s-22.666 -5.16602 -33.999 -8.49902
c-13.333 -3.33301 -27.666 -7.33301 -42.999 -12l-12 37l84.5 36.5c28.333 11.667 54.5 21.834 78.5 30.501s45.167 15.667 63.5 21s31.5 8 39.5 8c19.333 0 32.333 -6.33301 39 -19s10 -34.334 10 -65.001c0 -19.333 -2 -44.666 -6 -75.999s-9 -65.666 -15 -102.999
l-19 -116l-19 -116c-6 -37.333 -11 -71.666 -15 -102.999s-6 -56.666 -6 -75.999c0 -64 6.83301 -110.333 20.5 -139s32.834 -43 57.501 -43c13.333 0 31 6.5 53 19.5s47 34 75 63s58.5 66.833 91.5 113.5s67.167 103.667 102.5 171l14.5 86.5l14.5 84
c4.66699 27 8.5 52.667 11.5 77s4.5 46.166 4.5 65.499c0 15.333 -0.833008 27.5 -2.5 36.5s-4.16699 15.667 -7.5 20s-7.16602 7.16602 -11.499 8.49902s-9.5 2 -15.5 2s-14.167 -1.16699 -24.5 -3.5s-20.833 -5.16602 -31.5 -8.49902
c-12 -3.33301 -24.667 -7.33301 -38 -12l-15 37l83 36.5c27.333 11.667 52.5 21.834 75.5 30.501s43.167 15.667 60.5 21s30.333 8 39 8c18.667 0 31 -6.33301 37 -19s9 -34.334 9 -65.001c0 -19.333 -2 -44.5 -6 -75.5s-9 -65 -15 -102s-12.667 -75.667 -20 -116
s-14 -79.333 -20 -117s-11 -72.834 -15 -105.501s-6 -60 -6 -82c0 -60.667 4.33301 -105.5 13 -134.5s21.334 -43.5 38.001 -43.5c17.333 0 34.833 2.16699 52.5 6.5s38.5 11.5 62.5 21.5z" />
    <glyph glyph-name="v" unicode="v" horiz-adv-x="913" 
d="M893 852c0 -21.333 -7.33203 -52.999 -21.999 -94.999s-39 -97 -73 -165s-78.833 -150.5 -134.5 -247.5s-124.5 -211.167 -206.5 -342.5c-6 -3.33301 -13 -6.83301 -21 -10.5l-25 -11l-26 -11.5c-8.66699 -4 -16.334 -7.33301 -23.001 -10l-32 31
c-4.66699 37.333 -10.334 79.166 -17.001 125.499l-21.5 143c-7.66699 49 -15.834 98.167 -24.501 147.5l-25 139c-8 43.333 -15.833 82.333 -23.5 117s-14.167 62.334 -19.5 83.001c-5.33301 18 -11 32.333 -17 43s-12.167 19 -18.5 25s-12.5 9.83301 -18.5 11.5
s-12 2.5 -18 2.5c-6.66699 0 -15.334 -1.16699 -26.001 -3.5s-21.334 -5.16602 -32.001 -8.49902c-12 -3.33301 -25.333 -7.33301 -40 -12l-13 37l81 36.5c26 11.667 49.667 21.834 71 30.501s40 15.667 56 21s28 8 36 8c10 0 18.5 -2.16699 25.5 -6.5
s13.333 -11.5 19 -21.5s11.334 -23.167 17.001 -39.5s11.834 -36.166 18.501 -59.499c4.66699 -17.333 10.834 -44.333 18.501 -81s15.667 -78 24 -124l25.5 -143.5l23.5 -139.5c7 -43.333 12.667 -80.5 17 -111.5s6.5 -50.833 6.5 -59.5
c49.333 80 92.666 155.667 129.999 227s68.5 135.166 93.5 191.499s43.833 104.166 56.5 143.499s19 67.666 19 84.999c0 13.333 -5.66699 23.5 -17 30.5s-26.333 10.5 -45 10.5c-11.333 0 -23.833 -1.16699 -37.5 -3.5s-27.834 -6.16602 -42.501 -11.499l-18 35
c18.667 10 38.834 19.667 60.501 29s42.834 17.666 63.501 24.999s39.834 13.166 57.501 17.499s32.167 6.5 43.5 6.5c23.333 0 41.5 -6 54.5 -18s19.5 -34 19.5 -66z" />
    <glyph glyph-name="w" unicode="w" horiz-adv-x="1290" 
d="M1278 860c0 -18 -1.66895 -38.6602 -5.00195 -61.9932s-9.5 -51.333 -18.5 -84s-21.5 -70.834 -37.5 -114.501s-36.833 -94.334 -62.5 -152.001s-56.667 -123.167 -93 -196.5l-129.5 -249c-6 -3.33301 -12.833 -6.83301 -20.5 -10.5s-15.834 -7.33398 -24.501 -11.001
s-17 -7.5 -25 -11.5s-15.333 -7.33301 -22 -10l-33 31l-15.5 121.5l-18 133l-19.5 134c-6.66699 44.333 -13.334 86.166 -20.001 125.499s-13.167 75 -19.5 107s-12.5 58.333 -18.5 79c-0.666992 -14 -5 -35.167 -13 -63.5s-18.667 -61.5 -32 -99.5s-29 -79 -47 -123
s-37.333 -89 -58 -135s-42.167 -91.167 -64.5 -135.5s-44.833 -85.5 -67.5 -123.5l-21.5 -11.5l-26.5 -14l-27.5 -14.5c-9 -4.66699 -16.833 -8.33398 -23.5 -11.001l-32 31c-4.66699 37.333 -9.5 78.833 -14.5 124.5l-15 141l-15.5 145.5
c-5.33301 48.667 -10.666 94.667 -15.999 138s-10.833 82.833 -16.5 118.5s-11.5 64.834 -17.5 87.501c-4 18 -8.83301 32.333 -14.5 43s-11.667 19 -18 25s-12.833 9.83301 -19.5 11.5s-13 2.5 -19 2.5s-14.333 -1.16699 -25 -3.5s-21.667 -5.16602 -33 -8.49902
c-12.667 -3.33301 -26.334 -7.33301 -41.001 -12l-14 37l80 36.5c25.333 11.667 48.333 21.834 69 30.501s38.834 15.667 54.501 21s27.834 8 36.501 8c18.667 0 32.667 -10.833 42 -32.5s19.666 -56.5 30.999 -104.5c4 -18.667 8.66699 -44.834 14 -78.501
s10.833 -71.167 16.5 -112.5s11.167 -84.5 16.5 -129.5l15 -128.5c4.66699 -40.667 8.5 -77.334 11.5 -110.001s5.16699 -57.334 6.5 -74.001c26.667 52 54 108.833 82 170.5s53.667 123.834 77 186.501s42.833 123.5 58.5 182.5s25.167 111.833 28.5 158.5
c10 8.66699 20.833 17.334 32.5 26.001s23.334 16.334 35.001 23.001s22.667 12.167 33 16.5s19.166 6.5 26.499 6.5c2.66699 0 6 -5.5 10 -16.5s8.33301 -25.5 13 -43.5s9.5 -38.833 14.5 -62.5s9.83301 -47.834 14.5 -72.501l14 -74c4.66699 -24.667 8.66699 -47 12 -67
c4.66699 -31.333 10.167 -66 16.5 -104l19 -117c6.33301 -40 12.333 -80 18 -120s10.167 -77.333 13.5 -112c50 92 90.833 173 122.5 243s56.334 131.167 74.001 183.5s29.667 96.666 36 132.999s9.5 67.166 9.5 92.499c0 14 -4.83301 25 -14.5 33s-23.167 12 -40.5 12
c-9.33301 0 -20.666 -1.33301 -33.999 -4s-27.333 -6.33398 -42 -11.001l-18 37c22.667 13.333 44.334 24.5 65.001 33.5s39.167 16.167 55.5 21.5s30.166 9.16602 41.499 11.499s19.333 3.5 24 3.5c11.333 0 22 -0.833008 32 -2.5s18.833 -5.16699 26.5 -10.5
s13.834 -13 18.501 -23s7 -23.333 7 -40z" />
    <glyph glyph-name="x" unicode="x" horiz-adv-x="901" 
d="M877 72l-75.9961 -51.5c-22 -14.333 -41.833 -26 -59.5 -35s-33.667 -15.667 -48 -20s-27.833 -6.5 -40.5 -6.5c-20 0 -40.167 10.5 -60.5 31.5s-40.333 49 -60 84s-39.334 75.333 -59.001 121s-38.834 93.167 -57.501 142.5l-52.5 -69.5l-63 -82.5l-69.5 -93.5
l-71 -102.5c-24.667 -3.33301 -52.334 -7.5 -83.001 -12.5s-58.334 -11.167 -83.001 -18.5l-23 35c30.667 26.667 63.667 57.667 99 93l107.5 111l107 117.5l97.5 113.5l-57 148c-18.667 48 -37.167 90.5 -55.5 127.5s-36.166 66.667 -53.499 89s-34 33.5 -50 33.5
c-6 0 -15.833 -1.33301 -29.5 -4s-27.5 -5.66699 -41.5 -9l-54 -13l-14 39l80.5 35.5l70.5 31c21.333 9 39.5 16.167 54.5 21.5s26.167 8 33.5 8c18 0 36.333 -11.333 55 -34s37.667 -52.834 57 -90.501s39 -80.667 59 -129l60 -149.5l80 100c26 34 49 65.5 69 94.5
s36.167 53.5 48.5 73.5s18.5 32.333 18.5 37c0 6.66699 -1 12.667 -3 18s-6.33301 9.33301 -13 12s-16.5 4.16699 -29.5 4.5s-30.167 -0.5 -51.5 -2.5l-2 41c44 9.33301 83 15.833 117 19.5s59.333 5.5 76 5.5c32 0 54.333 -5.33301 67 -16s19 -23 19 -37
c0 -13.333 -7.83301 -31.5 -23.5 -54.5s-38.667 -52.333 -69 -88s-68.166 -78 -113.499 -127l-156 -169.5l55.5 -138.5c18.333 -44.333 36.166 -83.5 53.499 -117.5s34.333 -61.167 51 -81.5s32.667 -30.5 48 -30.5s33.166 2.33301 53.499 7s42.833 13.334 67.5 26.001z" />
    <glyph glyph-name="y" unicode="y" horiz-adv-x="926" 
d="M893 860c0 -22.667 -6.16016 -51.833 -18.4932 -87.5s-32.333 -83.334 -60 -143.001s-64 -133.834 -109 -222.501l-164.5 -325c-44.667 -87.333 -89.167 -166.666 -133.5 -237.999s-89.833 -132.5 -136.5 -183.5s-95.334 -90.5 -146.001 -118.5
s-104.334 -42 -161.001 -42c-20 0 -38.833 1.66699 -56.5 5s-33 7.5 -46 12.5s-23.333 10.5 -31 16.5s-11.5 11.667 -11.5 17c0 8 3.16699 19.167 9.5 33.5s14.166 29.333 23.499 45s19.5 30 30.5 43s21.167 21.833 30.5 26.5c16 -10.667 30.167 -19 42.5 -25
s23.833 -10.333 34.5 -13s21.334 -4.16699 32.001 -4.5s22 -0.5 34 -0.5c54 0 106.833 26.167 158.5 78.5s105.5 126.166 161.5 221.499c-6.66699 38.667 -14.834 82.334 -24.501 131.001s-20.334 98.667 -32.001 150l-36.5 154.5
c-12.667 51.667 -25.334 100.167 -38.001 145.5s-24.834 86.166 -36.501 122.499s-22.5 64.833 -32.5 85.5c-15.333 34 -28.333 56.167 -39 66.5s-21.667 15.5 -33 15.5c-6 0 -14.5 -1.16699 -25.5 -3.5s-21.833 -5.16602 -32.5 -8.49902
c-12.667 -3.33301 -26 -7.33301 -40 -12l-12 37l80 36.5l68.5 30.5c20.333 8.66699 38.166 15.667 53.499 21s27 8 35 8c9.33301 0 17.5 -2.33301 24.5 -7s13.833 -12 20.5 -22s13.167 -23.167 19.5 -39.5s13.5 -35.833 21.5 -58.5c12.667 -36 26.5 -78.5 41.5 -127.5
s30.167 -101.833 45.5 -158.5s30.333 -115.5 45 -176.5s28 -121.5 40 -181.5l64.5 128.5l62.5 129.5l55.5 122.5c17 39 32 74.833 45 107.5s23.167 60.834 30.5 84.501s11 41.5 11 53.5c0 33.333 -17.667 51 -53 53c-21.333 2 -51.666 -5.66699 -90.999 -23l-18 37
c48 28 90.167 48 126.5 60s65.833 18 88.5 18c11.333 0 22 -0.833008 32 -2.5s18.667 -5.16699 26 -10.5s13.166 -13 17.499 -23s6.5 -23.333 6.5 -40z" />
    <glyph glyph-name="z" unicode="z" horiz-adv-x="776" 
d="M776 885c-54.667 -59.333 -104.002 -118.169 -148.002 -176.502l-128.5 -178l-127 -185c-43 -63 -90.833 -128.167 -143.5 -195.5c2 1.33301 11 4.33301 27 9s34.333 7 55 7c13.333 0 31.166 -3.16699 53.499 -9.5l73.5 -21.5c26.667 -8 53.834 -15.167 81.501 -21.5
s53.834 -9.5 78.501 -9.5c6 0 13.333 0.833008 22 2.5s18 6.16699 28 13.5s21 18.333 33 33s24.667 34.667 38 60l35 -20c-18.667 -41.333 -35 -75.666 -49 -102.999s-29.167 -49.166 -45.5 -65.499s-35.166 -27.833 -56.499 -34.5s-48.333 -10 -81 -10
s-63.667 3.5 -93 10.5s-57 14.667 -83 23l-74.5 23c-23.667 7 -45.834 10.5 -66.501 10.5c-10.667 0 -21.667 -1.66699 -33 -5s-24.166 -8.33301 -38.499 -15s-30.833 -14.834 -49.5 -24.501l-66 -33.5l-22 33c33.333 40 67.833 84.167 103.5 132.5l107.5 149l106.5 153
l99.5 145l87 124c26.667 37 49.667 66.833 69 89.5h-301c-16 0 -29.5 -1.5 -40.5 -4.5s-21 -9 -30 -18s-17.5 -22 -25.5 -39s-17 -39.5 -27 -67.5l-39 8c12.667 60 25.167 111.5 37.5 154.5s21.166 78.833 26.499 107.5c12.667 -3.33301 26.334 -7.66602 41.001 -12.999
s33.667 -8 57 -8h488z" />
    <glyph glyph-name="braceleft" unicode="{" horiz-adv-x="641" 
d="M741 1552c-26.667 -16 -51.834 -34.3301 -75.501 -54.9971s-45 -43.5 -64 -68.5s-35 -52.167 -48 -81.5s-22.167 -61.333 -27.5 -96c-5.33301 -38.667 -7.5 -70.334 -6.5 -95.001s2.33301 -47.834 4 -69.501s2.66699 -44.834 3 -69.501s-2.5 -56.334 -8.5 -95.001
c-4 -28 -11.667 -55.333 -23 -82s-25.666 -51.834 -42.999 -75.501s-37.833 -45.167 -61.5 -64.5s-49.5 -35 -77.5 -47c30 -6 54.667 -16.5 74 -31.5s34 -33.833 44 -56.5s15.667 -49.167 17 -79.5s-0.666992 -63.833 -6 -100.5c-5.33301 -40 -12 -74 -20 -102
s-16 -54.333 -24 -79l-23.5 -74c-7.66699 -24.667 -13.834 -53.667 -18.501 -87c-5.33301 -36.667 -7.5 -69.167 -6.5 -97.5s6 -54 15 -77s22.5 -44.333 40.5 -64s42 -39.167 72 -58.5l-28 -61c-48.667 22.667 -90 46.5 -124 71.5s-60.833 52.833 -80.5 83.5
s-32.5 65 -38.5 103s-5.66699 81 1 129c5.33301 39.333 11.833 71.833 19.5 97.5s15.5 50.334 23.5 74.001s16 49 24 76s15 61.167 21 102.5c7.33301 54 0.166016 94.833 -21.501 122.5s-55.5 41.5 -101.5 41.5h-18c-4 0 -7.66699 -0.166992 -11 -0.5s-7.33301 -1 -12 -2
s-11.334 -2.16699 -20.001 -3.5l-9 53c76.667 20.667 136.334 51.5 179.001 92.5s67.667 86.5 75 136.5c4 26.667 6.33301 49.667 7 69s0.833984 36.833 0.500977 52.5s-1.33301 30.334 -3 44.001s-2.66699 28.167 -3 43.5s-0.166016 32.833 0.500977 52.5s3 43.167 7 70.5
c13.333 90.667 51.333 169.5 114 236.5s144 123.167 244 168.5z" />
    <glyph glyph-name="bar" unicode="|" horiz-adv-x="410" 
d="M176 -285c-13.333 -9.33301 -29.999 -18.833 -49.999 -28.5s-38 -17.167 -54 -22.5l-29 25l262 1861c18.667 11.333 35.667 21 51 29s32.666 14.667 51.999 20l30 -22z" />
    <glyph glyph-name="braceright" unicode="}" horiz-adv-x="641" 
d="M557 651c-76 -20.667 -135.501 -51.1719 -178.501 -91.5049s-68.167 -86.166 -75.5 -137.499c-4 -27.333 -6.33301 -50.5 -7 -69.5s-0.666992 -36.167 0 -51.5s1.66699 -29.666 3 -42.999s2.33301 -27.833 3 -43.5s0.666992 -33.167 0 -52.5s-3 -42.666 -7 -69.999
c-6.66699 -45.333 -19.834 -87.666 -39.501 -126.999s-45 -76 -76 -110s-67 -65.167 -108 -93.5s-85.833 -53.833 -134.5 -76.5l-19 49c26.667 16 52 34.167 76 54.5s45.333 43 64 68s34.334 52.333 47.001 82s21.334 61.834 26.001 96.501c4 26 6.5 48.5 7.5 67.5
s1.33301 36.333 1 52s-1.16602 30.5 -2.49902 44.5s-2.16602 28.833 -2.49902 44.5s-0.166016 33.167 0.500977 52.5s2.66699 42.333 6 69c4 27.333 11.667 54.333 23 81s25.833 51.667 43.5 75s38.167 44.5 61.5 63.5s49 34.5 77 46.5c-30 6.66699 -54.667 17.5 -74 32.5
s-33.833 33.833 -43.5 56.5s-15.334 49.167 -17.001 79.5s0.166016 64.166 5.49902 101.499c6 39.333 12.833 73 20.5 101s15.5 54.333 23.5 79s15.5 49.334 22.5 74.001s12.833 53.334 17.5 86.001c6 37.333 8.66699 70.333 8 99s-5.5 54.5 -14.5 77.5s-22.833 44 -41.5 63
s-43 38.167 -73 57.5l31 61c49.333 -22 90.833 -45.5 124.5 -70.5s60.334 -52.833 80.001 -83.5s32.5 -64.834 38.5 -102.501s5.66699 -80.5 -1 -128.5c-6 -39.333 -12.667 -72 -20 -98s-15 -50.833 -23 -74.5s-15.833 -49 -23.5 -76s-14.167 -60.833 -19.5 -101.5
c-8.66699 -54 -2.33398 -94.833 18.999 -122.5s55 -41.5 101 -41.5h18c4 0 7.66699 0.166992 11 0.5s7.16602 1 11.499 2s11.5 2.5 21.5 4.5z" />
    <glyph glyph-name="asciitilde" unicode="~" horiz-adv-x="983" 
d="M964 774c-18 -32.667 -39.334 -66.5 -64.001 -101.5s-51.167 -67 -79.5 -96s-57.666 -52.833 -87.999 -71.5s-60.166 -28 -89.499 -28c-26.667 0 -53.5 8.33301 -80.5 25s-54.167 35 -81.5 55s-54.5 38.333 -81.5 55s-53.833 25 -80.5 25
c-30.667 0 -60.834 -13 -90.501 -39s-60.834 -67 -93.501 -123l-45 27c17.333 32.667 38.333 66.5 63 101.5s51.334 67 80.001 96s58.167 52.833 88.5 71.5s60.166 28 89.499 28c28.667 0 56.834 -8.33301 84.501 -25s55 -35 82 -55s53.333 -38.333 79 -55
s51.167 -25 76.5 -25c30 0 60 13 90 39s62 66.333 96 121z" />
    <glyph glyph-name="uni00A0" unicode="&#xa0;" horiz-adv-x="410" 
 />
    <glyph glyph-name="exclamdown" unicode="&#xa1;" horiz-adv-x="410" 
d="M111 748c0 20 3.49902 40.8311 10.499 62.498s17 41.334 30 59.001s28.5 32.167 46.5 43.5s38 17 60 17c26.667 0 47.667 -9 63 -27s23 -42 23 -72c0 -19.333 -3.83301 -39.5 -11.5 -60.5s-18.167 -40.167 -31.5 -57.5s-29.166 -31.666 -47.499 -42.999
s-37.833 -17 -58.5 -17c-26 0 -46.5 8.83301 -61.5 26.5s-22.5 40.5 -22.5 68.5zM157.999 -442.002l-36.4971 -24l-45 -28c-15.667 -9.33301 -31.334 -17.833 -47.001 -25.5s-30.167 -13.5 -43.5 -17.5l-37 25l194 1022c13.333 9.33301 25.166 16.833 35.499 22.5
s23.166 11.167 38.499 16.5l25 -21z" />
    <glyph glyph-name="cent" unicode="&#xa2;" horiz-adv-x="823" 
d="M250 510c0 -34 3.66797 -65.666 11.001 -94.999s17.5 -55.5 30.5 -78.5s28.5 -42.833 46.5 -59.5s37.333 -29.334 58 -38.001l97 707c-38.667 -9.33301 -73.167 -29.5 -103.5 -60.5s-55.833 -67.333 -76.5 -109s-36.334 -86 -47.001 -133s-16 -91.5 -16 -133.5z
M586.001 1050c9.33301 1.33301 18.6719 2.49609 28.0049 3.49609s18.333 1.5 27 1.5c29.333 0 55.5 -5.5 78.5 -16.5s43.5 -23.5 61.5 -37.5s33.833 -27.5 47.5 -40.5s25.5 -21.167 35.5 -24.5c-14 -10 -27.833 -21.167 -41.5 -33.5l-39 -34.5
c-12.333 -10.667 -23.833 -19.5 -34.5 -26.5s-20 -10.5 -28 -10.5c-6.66699 0 -13.5 5.16699 -20.5 15.5s-16 22.333 -27 36s-24.667 26.834 -41 39.501s-36.5 21.334 -60.5 26.001l-99 -723c12 0.666992 26.167 3.33398 42.5 8.00098s35.166 12.667 56.499 24
s45.5 26.333 72.5 45s57.833 42.334 92.5 71.001c5.33301 -8.66699 11 -16.5 17 -23.5s10.667 -13.5 14 -19.5c-36.667 -33.333 -69.834 -61.833 -99.501 -85.5s-57 -43.834 -82 -60.501s-47.833 -29.834 -68.5 -39.501s-40.334 -17.167 -59.001 -22.5l-19 -140
c-6 -5.33301 -11.167 -9.5 -15.5 -12.5s-8.5 -5.5 -12.5 -7.5s-8.5 -3.66699 -13.5 -5s-11.5 -3.33301 -19.5 -6l-19 22l19 138h-12c-15.333 0 -32.333 2.33301 -51 7s-37.834 12.5 -57.501 23.5s-38.667 25.667 -57 44s-34.833 40.833 -49.5 67.5s-26.334 58 -35.001 94
s-13 77.333 -13 124c0 44.667 4.66699 89.834 14 135.501s24.5 90.167 45.5 133.5s48.5 84.833 82.5 124.5s75.667 75.834 125 108.501c18.667 12 39.5 23 62.5 33s46.833 18.667 71.5 26l21 154c8.66699 6 15 10.5 19 13.5s7.5 5.33301 10.5 7s6.5 3.16699 10.5 4.5
s10.667 3.33301 20 6l20 -23z" />
    <glyph glyph-name="sterling" unicode="&#xa3;" horiz-adv-x="823" 
d="M523 537l-217.997 0.00195312c-4.66699 -46 -12.167 -90 -22.5 -132s-22.833 -81.5 -37.5 -118.5s-30.834 -71.167 -48.501 -102.5s-35.834 -59 -54.501 -83c41.333 4 75.666 6 102.999 6s52.5 -0.666992 75.5 -2l70 -4c23.667 -1.33301 52.167 -1.33301 85.5 0
c28 0.666992 52 2.66699 72 6s38.5 10.666 55.5 21.999s33.167 28.166 48.5 50.499s32 53.166 50 92.499l37 -18c-6 -28.667 -12.5 -56.167 -19.5 -82.5s-13.833 -50.666 -20.5 -72.999s-12.834 -41.833 -18.501 -58.5l-13.5 -40c-29.333 -16.667 -62.333 -26 -99 -28
s-75.5 -0.666992 -116.5 4s-83 10.834 -126 18.501s-85.5 13.167 -127.5 16.5s-82.5 2.5 -121.5 -2.5s-74.833 -17.833 -107.5 -38.5l-13 49c20.667 16.667 39.167 32.334 55.5 47.001s30.833 30.5 43.5 47.5s23.834 36.833 33.501 59.5s18.167 50.334 25.5 83.001
s13.833 71.834 19.5 117.501s11.167 100.167 16.5 163.5h-103l-15 25c3.33301 10 7.5 20.667 12.5 32s10.167 22.333 15.5 33h97c9.33301 94.667 25.833 179.667 49.5 255s54.667 139.166 93 191.499s84.166 92.333 137.499 120s114.333 41.5 183 41.5
c16 0 31.167 -0.666992 45.5 -2s29.5 -4.5 45.5 -9.5s33.833 -12 53.5 -21s42.5 -21.5 68.5 -37.5c-3.33301 -17.333 -7.83301 -38.333 -13.5 -63s-12 -49.834 -19 -75.501s-14 -50 -21 -73s-13.167 -40.833 -18.5 -53.5h-43c2.66699 82.667 -11.166 142.667 -41.499 180
s-75.833 56 -136.5 56c-16 0 -32.167 -1.83301 -48.5 -5.5s-32.5 -11.334 -48.5 -23.001s-31.333 -28.667 -46 -51s-27.834 -52.333 -39.501 -90s-21.667 -84.334 -30 -140.001s-14.166 -122.167 -17.499 -199.5h226l20 -23z" />
    <glyph glyph-name="currency" unicode="&#xa4;" horiz-adv-x="823" 
d="M455 770c-23.333 0 -45.168 -4.33203 -65.501 -12.999s-38.166 -20.667 -53.499 -36s-28 -33.333 -38 -54s-16.333 -42.667 -19 -66c-2.66699 -21.333 -1.5 -42 3.5 -62s13.167 -37.667 24.5 -53s25.5 -27.833 42.5 -37.5s36.5 -14.5 58.5 -14.5
c23.333 0 44.833 4.5 64.5 13.5s37.167 21.167 52.5 36.5s27.833 33.166 37.5 53.499s16.167 41.833 19.5 64.5c2.66699 20.667 1.66699 41 -3 61s-12.5 38 -23.5 54s-25 28.833 -42 38.5s-36.5 14.5 -58.5 14.5zM615.998 280.001l-78.9951 103.999
c-43.333 -30 -90.666 -45 -141.999 -45c-26.667 0 -50.834 4.16699 -72.501 12.5s-40.834 20.166 -57.501 35.499l-111 -106l-29 2l-10.5 30c-3.66699 10.667 -6.83398 21.334 -9.50098 32.001l111 106c-22.667 45.333 -30.334 95 -23.001 149
c3.33301 32 10.5 60.833 21.5 86.5s24.167 48.5 39.5 68.5l-86 112l7 33c8.66699 5.33301 19.667 9.5 33 12.5s25 6.83301 35 11.5l80 -106c24.667 16.667 49.667 28.834 75 36.501s48.666 11.5 69.999 11.5c25.333 0 48.666 -4.5 69.999 -13.5s40.333 -21.167 57 -36.5
l109 105l31 1l18 -66l-110 -105c11.333 -22.667 19 -47 23 -73s4.33301 -52 1 -78c-8 -57.333 -29 -108 -63 -152l87 -113l-3 -34z" />
    <glyph glyph-name="yen" unicode="&#xa5;" horiz-adv-x="823" 
d="M972 1179c-36.667 -8 -65.3369 -16.334 -86.0039 -25.001s-35.667 -21.667 -45 -39l-339 -591l-1 -13h210l17 -23l-28 -66h-210l-38 -311c-1.33301 -8 6.83398 -18.5 24.501 -31.5s50.167 -25.5 97.5 -37.5l-5 -42h-387l6 42c50 12 85.167 24.167 105.5 36.5
s31.166 23.166 32.499 32.499l38 311h-213l-14 25l25 64h213l3 23c-10.667 47.333 -24.5 98.333 -41.5 153s-35.333 108.5 -55 161.5s-40.167 103.167 -61.5 150.5s-41.666 87.333 -60.999 120c-6 9.33301 -12.167 17 -18.5 23s-14.333 10.5 -24 13.5s-21.5 4.33301 -35.5 4
s-31 -1.83301 -51 -4.5l-8 42l51 13c18.667 4.66699 37.334 9 56.001 13s36.167 7.16699 52.5 9.5s30.166 3.5 41.499 3.5c14.667 0 29.334 -12.333 44.001 -37c12.667 -21.333 26 -46.666 40 -75.999s28 -60.5 42 -93.5s27.667 -66.833 41 -101.5s25.5 -68.5 36.5 -101.5
s20.667 -64.167 29 -93.5s14.833 -54.666 19.5 -75.999l268 458c10.667 17.333 9.33398 30.833 -3.99902 40.5s-39.666 17.5 -78.999 23.5l5 42h312z" />
    <glyph glyph-name="brokenbar" unicode="&#xa6;" horiz-adv-x="410" 
d="M180 -285c-6 -4.66699 -13.832 -9.49902 -23.499 -14.499s-19.834 -9.66699 -30.501 -14l-31.5 -12.5l-26.5 -10l-29 25l113 800c18 11.333 36 21.166 54 29.499s36.667 15.833 56 22.5l33 -25zM330.001 766.001c-6.66699 -5.33301 -14.8291 -10.5 -24.4961 -15.5
s-19.834 -9.66699 -30.501 -14s-21.334 -8.33301 -32.001 -12l-28 -9.5l-31 22l115 813c19.333 11.333 38.166 21 56.499 29s37.166 14.667 56.499 20l30 -22z" />
    <glyph glyph-name="section" unicode="&#xa7;" horiz-adv-x="865" 
d="M517 529l44.001 -27.4971c14.667 -9 29 -18.5 43 -28.5c21.333 13.333 38.833 30.5 52.5 51.5s22.167 44.167 25.5 69.5c4 30.667 2.33301 58.5 -5 83.5s-20.833 49.333 -40.5 73s-45.167 47.334 -76.5 71.001s-68.333 49.5 -111 77.5c-25.333 15.333 -48.333 33 -69 53
c-11.333 -4 -21.5 -11 -30.5 -21s-17 -21.333 -24 -34s-12.833 -25.667 -17.5 -39s-7.66699 -25.333 -9 -36c-4 -30.667 -2.66699 -57.834 4 -81.501s19 -46.334 37 -68.001s41.667 -43.834 71 -66.501s64.666 -48.334 105.999 -77.001zM809.001 656.003
c-8.66699 -59.333 -26.3311 -109.832 -52.998 -151.499s-55.334 -73.834 -86.001 -96.501c13.333 -18.667 22.833 -39.667 28.5 -63s6.5 -50.666 2.5 -81.999c-6.66699 -47.333 -18.334 -87.333 -35.001 -120s-36 -59.834 -58 -81.501s-45.667 -38.667 -71 -51
s-49.833 -21.5 -73.5 -27.5s-45.667 -9.66699 -66 -11s-36.166 -2 -47.499 -2c-28.667 0 -62.167 7.66699 -100.5 23s-75.833 35.333 -112.5 60c-4 2 -5.33301 12.833 -4 32.5s4.16602 42.334 8.49902 68.001s9.66602 51.5 15.999 77.5s12.5 46.667 18.5 62l38 -11
c-2.66699 -28 0.166016 -54.833 8.49902 -80.5s21.166 -48.5 38.499 -68.5s38.5 -35.833 63.5 -47.5s53.167 -17.5 84.5 -17.5c43.333 0 80.333 11.333 111 34s49.334 57.667 56.001 105c4 26.667 0.833008 49.667 -9.5 69s-25 36.833 -44 52.5s-41 30.5 -66 44.5
s-49.833 29.333 -74.5 46c-36.667 24 -69.167 48.167 -97.5 72.5s-51.666 50.333 -69.999 78s-31.166 58.167 -38.499 91.5s-8 71.333 -2 114c3.33301 24.667 10.166 48.5 20.499 71.5s22.666 44.5 36.999 64.5s30.333 38.333 48 55s35.834 30.667 54.501 42
c-17.333 26.667 -29.5 55.834 -36.5 87.501s-7.83301 66.5 -2.5 104.5c6 41.333 18.667 77.166 38 107.499s42.833 55.333 70.5 75s58.167 34.167 91.5 43.5s67 14 101 14c18.667 0 38.834 -2.33301 60.501 -7s42.834 -11 63.501 -19s39.834 -17.167 57.501 -27.5
s31.834 -21.5 42.501 -33.5c3.33301 -4 2.66602 -13 -2.00098 -27s-11 -29.333 -19 -46s-16.333 -32.334 -25 -47.001s-15.334 -24.667 -20.001 -30l-34 8c-22 48 -46.833 83.167 -74.5 105.5s-56.5 33.5 -86.5 33.5c-40 0 -72.333 -9.5 -97 -28.5
s-39.667 -46.167 -45 -81.5c-3.33301 -23.333 -2.16602 -44.5 3.50098 -63.5s15.667 -37.5 30 -55.5s32.666 -36 54.999 -54s48.5 -37.333 78.5 -58c36.667 -25.333 70.167 -49.5 100.5 -72.5s55.666 -47.667 75.999 -74s35 -55.833 44 -88.5s10.5 -72 4.5 -118z" />
    <glyph glyph-name="dieresis" unicode="&#xa8;" horiz-adv-x="1042" 
d="M513 1262c0 -18.667 -3 -37.166 -9 -55.499s-14.333 -35 -25 -50s-23.834 -27.167 -39.501 -36.5s-32.834 -14 -51.501 -14c-21.333 0 -38 6 -50 18s-18 29.333 -18 52c0 18 3.16699 36.167 9.5 54.5s15 35.166 26 50.499s24.333 27.833 40 37.5s32.834 14.5 51.501 14.5
c20.667 0 36.834 -6.16699 48.501 -18.5s17.5 -29.833 17.5 -52.5zM886 1262c0 -18.667 -2.99805 -37.166 -8.99805 -55.499s-14.5 -35 -25.5 -50s-24.333 -27.167 -40 -36.5s-33.167 -14 -52.5 -14c-20.667 0 -36.834 6 -48.501 18s-17.5 29.333 -17.5 52
c0 18 3 36.167 9 54.5s14.333 35.166 25 50.499s23.667 27.833 39 37.5s32.666 14.5 51.999 14.5c20.667 0 37.167 -6.16699 49.5 -18.5s18.5 -29.833 18.5 -52.5z" />
    <glyph glyph-name="copyright" unicode="&#xa9;" horiz-adv-x="1360" 
d="M1014 942l-71.9932 -47.5c-22.667 -15 -41.667 -22.5 -57 -22.5c-6.66699 0 -14.5 4.66699 -23.5 14s-19.833 19.833 -32.5 31.5s-27.5 22.167 -44.5 31.5s-36.833 14 -59.5 14c-28 0 -54 -6.33301 -78 -19s-45.667 -29.667 -65 -51s-36.666 -45.833 -51.999 -73.5
s-28 -56.5 -38 -86.5s-17.667 -60 -23 -90s-8 -58 -8 -84c0 -36 5.66699 -69 17 -99s26.666 -55.833 45.999 -77.5s41.833 -38.334 67.5 -50.001s52.5 -17.5 80.5 -17.5c10.667 0 23.167 2 37.5 6s31.333 11 51 21s42.5 23.167 68.5 39.5s55.667 37.166 89 62.499
c5.33301 -7.33301 10.5 -13.833 15.5 -19.5s9.16699 -11.167 12.5 -16.5c-48 -40 -89.833 -72.167 -125.5 -96.5s-67.5 -43 -95.5 -56s-53.5 -21.667 -76.5 -26s-45.833 -6.5 -68.5 -6.5c-20.667 0 -45 4.83301 -73 14.5s-54.667 26 -80 49s-46.833 54 -64.5 93
s-26.5 87.833 -26.5 146.5c0 38 3.66699 76.167 11 114.5s19.666 76 36.999 113s40.333 73.333 69 109s64.667 69.834 108 102.501c15.333 12 33.333 23 54 33s42.167 18.333 64.5 25s44.666 11.834 66.999 15.501s43.166 5.5 62.499 5.5
c27.333 0 51.666 -4.83301 72.999 -14.5s40.166 -20.5 56.499 -32.5s30.666 -23.5 42.999 -34.5s23.166 -17.833 32.499 -20.5zM1200.01 719c0 67.333 -10.002 130.5 -30.002 189.5s-48.667 110.333 -86 154s-82.666 78.167 -135.999 103.5s-113.333 38 -180 38
c-57.333 0 -111.666 -8.83301 -162.999 -26.5s-99.166 -42 -143.499 -73s-84.333 -67.5 -120 -109.5s-66 -87.5 -91 -136.5s-44.333 -100.167 -58 -153.5s-20.5 -106.666 -20.5 -159.999c0 -68 10 -131.667 30 -191s48.833 -111.166 86.5 -155.499
s83.167 -79.333 136.5 -105s113.666 -38.5 180.999 -38.5c57.333 0 111.833 8.83301 163.5 26.5s99.5 42.167 143.5 73.5s83.667 68.166 119 110.499s65.5 88.166 90.5 137.499s44.167 100.833 57.5 154.5s20 107.5 20 161.5zM1280 752
c0 -63.333 -7.33301 -126.667 -22 -190s-36 -124 -64 -182s-62.167 -112 -102.5 -162s-85.833 -93.5 -136.5 -130.5s-106.334 -66 -167.001 -87s-125.334 -31.5 -194.001 -31.5c-76 0 -144.833 14.333 -206.5 43s-114.334 68 -158.001 118s-77.167 109 -100.5 177
s-35 141 -35 219c0 62 7.66699 124 23 186s37.333 121.333 66 178s63.334 109.334 104.001 158.001s86.334 91 137.001 127s105.834 64.167 165.501 84.5s122.5 30.5 188.5 30.5c75.333 0 143.833 -13.667 205.5 -41s114.5 -65 158.5 -113s78 -104.833 102 -170.5
s36 -136.834 36 -213.501z" />
    <glyph glyph-name="ordfeminine" unicode="&#xaa;" horiz-adv-x="586" 
d="M549 635c-3.33301 -10.667 -7.16797 -19.168 -11.501 -25.501s-8.16602 -14.166 -11.499 -23.499h-450l-17 20c3.33301 10.667 7 19.667 11 27s8 16 12 26h448zM400.998 961.999l8.49707 52.501l8.5 52.5c2.66699 16.667 5.33398 31.667 8.00098 45
s4.66699 23.666 6 30.999c-11.333 8.66699 -24.166 17 -38.499 25s-30.166 12 -47.499 12c-24.667 0 -47.167 -8.66699 -67.5 -26s-37.833 -38.5 -52.5 -63.5s-26 -51.5 -34 -79.5s-12 -52.333 -12 -73c0 -47.333 7.33301 -84.833 22 -112.5s32.667 -41.5 54 -41.5
c8.66699 0 19 5.33301 31 16s24.833 24.5 38.5 41.5s27 36.167 40 57.5s24.833 42.333 35.5 63zM562.995 768c-30.667 -19.333 -55.832 -33.335 -75.499 -42.002s-34.834 -13 -45.501 -13c-6.66699 0 -13 2.16699 -19 6.5s-11.167 12.5 -15.5 24.5
s-7.83301 28.833 -10.5 50.5s-4 49.834 -4 84.501c-9.33301 -16.667 -20.5 -34.667 -33.5 -54s-27.333 -37.333 -43 -54s-31.667 -30.5 -48 -41.5s-32.166 -16.5 -47.499 -16.5c-12 0 -24.667 3.33301 -38 10s-25.666 17.334 -36.999 32.001s-20.833 33.667 -28.5 57
s-11.5 51.666 -11.5 84.999c0 58 13.167 111.833 39.5 161.5s65.166 92.167 116.499 127.5c10 6.66699 20.833 13 32.5 19s23.5 11.333 35.5 16s24.167 8.5 36.5 11.5s23.833 4.5 34.5 4.5c15.333 0 29.833 -3.66699 43.5 -11s26.167 -14.666 37.5 -21.999
c15.333 12 33.666 23 54.999 33l10 -20c-6 -4.66699 -11.167 -9 -15.5 -13s-8 -8.5 -11 -13.5s-5.5 -11.167 -7.5 -18.5s-4.33301 -17 -7 -29c-6 -26 -11.167 -52.667 -15.5 -80s-8.16602 -53 -11.499 -77s-5.83301 -45.167 -7.5 -63.5s-2.5 -31.5 -2.5 -39.5
c0 -41.333 2 -69.833 6 -85.5s10.333 -23.5 19 -23.5c7.33301 0 15.666 0.833008 24.999 2.5s21.333 5.5 36 11.5z" />
    <glyph glyph-name="guillemotleft" unicode="&#xab;" horiz-adv-x="882" 
d="M58 414c1.33301 12.667 2.99902 24.001 4.99902 34.001c1.33301 8.66699 2.5 16.667 3.5 24s2.16699 11.666 3.5 12.999l372 404l34 -29l-11 -18l-29.5 -46l-42 -66l-48 -75.5l-47.5 -75.5l-41.5 -66l-29.5 -46c-7.33301 -11.333 -10.666 -17 -9.99902 -17l148 -414
l-42 -29zM385.999 414.001c1.33301 12.667 2.99902 24.001 4.99902 34.001c1.33301 8.66699 2.5 16.667 3.5 24s2.16699 11.666 3.5 12.999l372 404l34 -29l-11 -18l-29.5 -46l-42 -66l-48 -75.5l-47.5 -75.5l-41.5 -66l-29.5 -46
c-7.33301 -11.333 -10.666 -17 -9.99902 -17l148 -414l-42 -29z" />
    <glyph glyph-name="logicalnot" unicode="&#xac;" horiz-adv-x="823" 
d="M725 324c-13.333 -10.667 -28.998 -20.668 -46.998 -30.001s-35 -16.666 -51 -21.999l-21 25l31 209h-567l-19 24c5.33301 13.333 11.666 28 18.999 44s14.666 30.667 21.999 44h647l23 -22z" />
    <glyph glyph-name="uni00AD" unicode="&#xad;" horiz-adv-x="641" 
d="M580 541c-5.33301 -14.667 -12 -29.834 -20 -45.501l-21 -40.5h-478l-18 24c5.33301 14.667 11.833 29.334 19.5 44.001s15.5 28.667 23.5 42h475z" />
    <glyph glyph-name="registered" unicode="&#xae;" horiz-adv-x="704" 
d="M736 1084c-6.66699 -48 -20.334 -93 -41.001 -135s-46.5 -78.667 -77.5 -110s-66 -56 -105 -74s-79.833 -27 -122.5 -27c-43.333 0 -81.833 9 -115.5 27s-61.5 42.667 -83.5 74s-37.5 68 -46.5 110s-10.167 87 -3.5 135s20.334 93 41.001 135s46.5 78.667 77.5 110
s65.833 56 104.5 74s79.667 27 123 27c42.667 0 81 -9 115 -27s62 -42.667 84 -74s37.5 -68 46.5 -110s10.167 -87 3.5 -135zM683 1084c5.33301 39.333 4.16797 76.666 -3.49902 111.999s-20.667 66.166 -39 92.499s-41.666 47.333 -69.999 63s-60.5 23.5 -96.5 23.5
c-35.333 0 -68.833 -7.83301 -100.5 -23.5s-59.834 -36.667 -84.501 -63s-45.334 -57.166 -62.001 -92.499s-27.667 -72.666 -33 -111.999c-5.33301 -40 -4.33301 -77.5 3 -112.5s20.333 -65.833 39 -92.5s42 -47.667 70 -63s59.667 -23 95 -23
c36 0 69.833 7.66699 101.5 23s60 36.333 85 63s45.833 57.5 62.5 92.5s27.667 72.5 33 112.5zM276.002 887l1.99805 18.001c26.667 6 40.667 12.333 42 19l45 326l-39 -6l2 29c18 4.66699 36.833 8.83398 56.5 12.501s41.834 5.5 66.501 5.5c22.667 0 42.167 -3 58.5 -9
s29.666 -13.833 39.999 -23.5s17.666 -20.834 21.999 -33.501s5.5 -25.667 3.5 -39c-4.66699 -31.333 -16.667 -55.833 -36 -73.5s-42.666 -29.834 -69.999 -36.501l72 -142c3.33301 -7.33301 8.33301 -11.5 15 -12.5s16.667 1.16699 30 6.5l3 -18l-3 -2
c-11.333 -6 -24.166 -12 -38.499 -18s-24.833 -9 -31.5 -9c-5.33301 0 -10.5 2 -15.5 6s-8.16699 8 -9.5 12l-71 171h-2c-9.33301 0 -18.333 1 -27 3l-21 -149c-1.33301 -6.66699 10.334 -13 35.001 -19l-2 -18h-127zM436 1256l-10.002 0.000976562
c-3.33301 0 -6.66602 -0.333008 -9.99902 -1l-20 -146c4 -1.33301 7.66699 -2 11 -2h13c30 0 53.167 5.33301 69.5 16s26.166 28.667 29.499 54c1.33301 10 1 19.667 -1 29s-6.16699 17.666 -12.5 24.999s-15.166 13.333 -26.499 18s-25.666 7 -42.999 7z" />
    <glyph glyph-name="macron" unicode="&#xaf;" horiz-adv-x="801" 
d="M834 1258c-2 -7.33301 -5.16699 -15.668 -9.5 -25.001s-9 -18.666 -14 -27.999l-14.5 -27c-4.66699 -8.66699 -8.66699 -15.667 -12 -21h-549l-16 24c2.66699 6.66699 6 14.5 10 23.5l12.5 27.5c4.33301 9.33301 8.83301 18.5 13.5 27.5s9 16.833 13 23.5h547z" />
    <glyph glyph-name="degree" unicode="&#xb0;" horiz-adv-x="628" 
d="M362 851c23.333 0 44.166 5.66504 62.499 16.998s33.666 25.833 45.999 43.5s21.833 36.834 28.5 57.501s10 40.334 10 59.001c0 32 -7 59 -21 81s-33.667 33 -59 33c-18 0 -35.667 -4.66699 -53 -14s-32.833 -22 -46.5 -38s-24.667 -34.667 -33 -56s-12.5 -44 -12.5 -68
c0 -15.333 1.66699 -30 5 -44s8.33301 -26.333 15 -37s14.834 -19 24.501 -25s20.834 -9 33.501 -9zM614 1073c0 -31.333 -4.83008 -60.8311 -14.4971 -88.498s-22.334 -53.167 -38.001 -76.5s-33.667 -44.166 -54 -62.499s-41.166 -34 -62.499 -47
s-42.333 -22.833 -63 -29.5s-39.334 -10 -56.001 -10c-22 0 -42.167 4.16699 -60.5 12.5s-34 19.666 -47 33.999s-23 31.166 -30 50.499s-10.5 40 -10.5 62c0 44 9.5 85.167 28.5 123.5s43 71.833 72 100.5s60.167 51.334 93.5 68.001s64.666 25 93.999 25
c21.333 0 41 -4.16699 59 -12.5s33.667 -19.833 47 -34.5s23.666 -31.834 30.999 -51.501s11 -40.834 11 -63.501z" />
    <glyph glyph-name="plusminus" unicode="&#xb1;" horiz-adv-x="770" 
d="M735 726c-2 -6.66699 -4.66406 -14.334 -7.99707 -23.001l-10 -25c-3.33301 -8 -7 -15.833 -11 -23.5l-10 -19.5h-232l-38 -269c-6 -3.33301 -13.167 -6.5 -21.5 -9.5s-16.833 -5.83301 -25.5 -8.5s-17.334 -5.16699 -26.001 -7.5s-16.334 -4.16602 -23.001 -5.49902
l-20 22l39 278h-240l-19 24l19 45.5c7.33301 17 14.666 32.167 21.999 45.5h234l39 271c11.333 4 26.833 9 46.5 15s36.167 10.667 49.5 14l21 -23l-40 -277h236zM665.003 221c-2 -6.66699 -4.66602 -14.333 -7.99902 -23l-10 -25c-3.33301 -8 -7 -15.833 -11 -23.5
l-10 -19.5h-587l-19 24l19 45.5c7.33301 17 14.666 32.167 21.999 45.5h586z" />
    <glyph glyph-name="twosuperior" unicode="&#xb2;" horiz-adv-x="576" 
d="M604 1212c0 -25.333 -6.5 -52.501 -19.5 -81.501s-36 -63.833 -69 -104.5s-77.333 -88.334 -133 -143.001s-126.5 -120 -212.5 -196h252c14 0 26 5.16699 36 15.5s18.667 21.833 26 34.5c8 14.667 15 31.334 21 50.001l40 -7l-36 -172h-454l-10 54
c84.667 72.667 155.167 136.5 211.5 191.5s101.333 103.5 135 145.5s57.5 78.667 71.5 110s21 59.666 21 84.999c0 29.333 -9.33301 51.5 -28 66.5s-45 22.5 -79 22.5c-17.333 0 -32.833 -3.33301 -46.5 -10s-25.5 -15.334 -35.5 -26.001s-18 -23 -24 -37s-10 -28 -12 -42
c-15.333 -7.33301 -32 -13.5 -50 -18.5s-36.667 -8.5 -56 -10.5l-15 18c3.33301 20.667 13.5 42.167 30.5 64.5s38.5 42.833 64.5 61.5s55.5 34.167 88.5 46.5s67.167 18.833 102.5 19.5c26 0.666992 50 -1.66602 72 -6.99902s41 -13.666 57 -24.999
s28.5 -25.666 37.5 -42.999s13.5 -38 13.5 -62z" />
    <glyph glyph-name="threesuperior" unicode="&#xb3;" horiz-adv-x="576" 
d="M568 1209c0 -22 -3.8291 -42.3301 -11.4961 -60.9971s-18.334 -35.667 -32.001 -51s-30 -28.833 -49 -40.5s-39.833 -21.5 -62.5 -29.5c20.667 -2.66699 39.5 -8.83398 56.5 -18.501s31.5 -21.834 43.5 -36.501s21.333 -31.167 28 -49.5s10 -37.5 10 -57.5
c0 -37.333 -7.16699 -72.833 -21.5 -106.5s-34.833 -63 -61.5 -88s-59 -44.833 -97 -59.5s-80.333 -22 -127 -22c-33.333 0 -67.333 7 -102 21s-69.667 37 -105 69l27 51c18 -13.333 34.5 -24.5 49.5 -33.5s29.333 -16.167 43 -21.5s27 -9 40 -11s26.5 -3 40.5 -3
c30.667 0 57.834 4.83301 81.501 14.5s43.667 23 60 40s28.666 37 36.999 60s12.5 47.5 12.5 73.5c0 22.667 -3.66699 42.167 -11 58.5s-17 29.666 -29 39.999s-25.833 17.833 -41.5 22.5s-31.834 7 -48.501 7h-12c-2.66699 0 -5 -0.166992 -7 -0.5
s-4.5 -0.833008 -7.5 -1.5s-7.83301 -1.33398 -14.5 -2.00098l-4 46c26.667 6.66699 52 14.5 76 23.5s44.667 20.167 62 33.5s31.166 29.333 41.499 48s15.5 41.334 15.5 68.001c0 25.333 -7.66699 46.833 -23 64.5s-39.333 26.5 -72 26.5c-28 0 -51.5 -8.33301 -70.5 -25
s-27.833 -38.667 -26.5 -66c-16 -7.33301 -34.167 -12.833 -54.5 -16.5s-39.5 -6.16699 -57.5 -7.5l-15 19c2.66699 16.667 12 34.5 28 53.5s36 36.5 60 52.5s51.167 29.333 81.5 40s61.5 16 93.5 16c30.667 0 57.167 -4 79.5 -12s40.666 -18.5 54.999 -31.5
s24.833 -27.833 31.5 -44.5s10 -34 10 -52z" />
    <glyph glyph-name="acute" unicode="&#xb4;" horiz-adv-x="606" 
d="M572 1374l-354.999 -348.001c-10.667 2.66699 -18.5 6.33398 -23.5 11.001s-12.167 12.667 -21.5 24l272 398l25.5 -7.5c10.333 -3 21.166 -6.33301 32.499 -10s22 -7.5 32 -11.5s17.667 -7.66699 23 -11z" />
    <glyph glyph-name="mu" unicode="&#xb5;" horiz-adv-x="1051" 
d="M716 500l17.001 102.501c5.33301 33 9.83301 63.5 13.5 91.5s5.5 50 5.5 66c0 21.333 -1.16699 43 -3.5 65s-6.83301 39.333 -13.5 52l39.5 15l44.5 16l46 15.5c15.333 5 30 9.16699 44 12.5c5.33301 -7.33301 9.66602 -14.166 12.999 -20.499s6 -12.5 8 -18.5l-16 -79
l-21.5 -110.5l-23 -126.5c-7.66699 -44 -14.667 -86.667 -21 -128s-11.5 -79.333 -15.5 -114s-6 -63 -6 -85c0 -30 1 -54 3 -72s4.66699 -31.667 8 -41s7.16602 -15.333 11.499 -18s9.16602 -4 14.499 -4c6.66699 0 13.167 0.833008 19.5 2.5s14 6.5 23 14.5
s19.833 20.5 32.5 37.5s28.667 40.5 48 70.5l35 -29c-28 -51.333 -53 -93.5 -75 -126.5s-42.667 -59.167 -62 -78.5s-38.5 -32.666 -57.5 -39.999s-38.833 -11 -59.5 -11c-56.667 0 -86 95 -88 285c-23.333 -42 -46.833 -80.5 -70.5 -115.5s-48 -65 -73 -90
s-50.5 -44.5 -76.5 -58.5s-52.333 -21 -79 -21c-22 0 -43 4.83301 -63 14.5s-38.333 23.334 -55 41.001s-31.667 39 -45 64s-24.666 52.833 -33.999 83.5l-8 -58c-9.33301 -68.667 -13 -132.834 -11 -192.501s6.5 -112.5 13.5 -158.5s14.667 -84.167 23 -114.5
s14.166 -49.833 17.499 -58.5l-40 -16.5l-52 -22.5l-51 -23.5l-36 -17.5l-33 29c4.66699 38 10.834 81.333 18.501 130l25 155l29 169l30 172.5l28 165l24.5 146.5c2.66699 26 6.16699 52.5 10.5 79.5s8.16602 53.167 11.499 78.5s6.33301 49.666 9 72.999s4 44 4 62
c0 15.333 -1 27.5 -3 36.5s-4.83301 15.667 -8.5 20s-7.83398 7.16602 -12.501 8.49902s-9.66699 2 -15 2c-6.66699 0 -15.667 -1.16699 -27 -3.5s-22.666 -5.16602 -33.999 -8.49902c-13.333 -3.33301 -27.333 -7.33301 -42 -12l-14 37l84.5 36.5
c28.333 11.667 54.833 21.834 79.5 30.501s46.167 15.667 64.5 21s31.5 8 39.5 8c18.667 0 31.167 -6.33301 37.5 -19s9.5 -34.334 9.5 -65.001c0 -19.333 -1.5 -42.333 -4.5 -69s-6.83301 -54.834 -11.5 -84.501l-15 -91.5l-15 -91
c-4.66699 -29.333 -8.5 -56.666 -11.5 -81.999s-4.5 -47 -4.5 -65c0 -36.667 3 -70.334 9 -101.001s14.333 -57 25 -79s23.334 -39.167 38.001 -51.5s30.667 -18.5 48 -18.5c24.667 0 50.834 8.83301 78.501 26.5s56.5 45 86.5 82s61.333 84.167 94 141.5
c10 17.333 20 35.666 30 54.999z" />
    <glyph glyph-name="paragraph" unicode="&#xb6;" horiz-adv-x="1020" 
d="M799 1160c-12 4.66699 -24.166 8.66699 -36.499 12l-35.5 10l-184 -1327c-1.33301 -7.33301 1.83398 -13.833 9.50098 -19.5s14.5 -9.5 20.5 -11.5c7.33301 2 15.666 5.83301 24.999 11.5s14.666 12.167 15.999 19.5zM555.001 610l83 590c-37.333 4 -69 6 -95 6
c-37.333 0 -72.666 -7 -105.999 -21s-62.833 -33 -88.5 -57s-47 -52.333 -64 -85s-27.833 -67.667 -32.5 -105c-6 -36 -5.83301 -73.333 0.5 -112s19.666 -74 39.999 -106s48.5 -58.333 84.5 -79s81 -31 135 -31h43zM1034 1217
c-43.333 -9.33301 -77.6689 -19.665 -103.002 -30.998s-38.666 -21.666 -39.999 -30.999l-182 -1300c-1.33301 -8.66699 8.5 -18.834 29.5 -30.501s53.5 -22.167 97.5 -31.5l-7 -43h-530l6 43c43.333 9.33301 77.5 19.666 102.5 30.999s38.833 21.666 41.5 30.999l95 677
c-11.333 -2 -23.666 -3.5 -36.999 -4.5s-28.666 -1.5 -45.999 -1.5c-58 0 -111.5 7.83301 -160.5 23.5s-90.333 39.334 -124 71.001s-58.334 71 -74.001 118s-19.167 101.833 -10.5 164.5c8 56.667 25.833 108.667 53.5 156s62.667 88.166 105 122.499s90.833 61 145.5 80
s113 28.5 175 28.5c13.333 0 29.5 -0.5 48.5 -1.5s39.167 -2.16699 60.5 -3.5s43.5 -2.83301 66.5 -4.5s45.5 -3.5 67.5 -5.5l161 -15h65z" />
    <glyph glyph-name="periodcentered" unicode="&#xb7;" horiz-adv-x="410" 
d="M336 678c0 -20 -3.49902 -40.6689 -10.499 -62.002s-16.833 -40.666 -29.5 -57.999s-28 -31.666 -46 -42.999s-38.333 -17 -61 -17c-26.667 0 -47.334 8.83301 -62.001 26.5s-22 41.5 -22 71.5c0 18.667 3.83301 38.5 11.5 59.5s18.167 40 31.5 57s29 31.167 47 42.5
s37.667 17 59 17c25.333 0 45.333 -8.66699 60 -26s22 -40 22 -68z" />
    <glyph glyph-name="cedilla" unicode="&#xb8;" horiz-adv-x="324" 
d="M220 -221c0 -35.333 -10.335 -67.6689 -31.002 -97.002s-47.5 -52.166 -80.5 -68.499s-70 -24.333 -111 -24s-81.5 12.166 -121.5 35.499l-2 39c34.667 -16 65.667 -24.5 93 -25.5s50.333 2.66699 69 11s32.834 20.166 42.501 35.499s14.5 31 14.5 47
c0 17.333 -7.66699 30.833 -23 40.5s-38.666 13.834 -69.999 12.501c9.33301 24.667 17.166 46.5 23.499 65.5s11.833 36.833 16.5 53.5s8.83398 32.834 12.501 48.501l11.5 51.5l68 -2c-5.33301 -27.333 -10 -49.166 -14 -65.499s-8.33301 -32.833 -13 -49.5
c34 -1.33301 61.667 -11.5 83 -30.5s32 -44.833 32 -77.5z" />
    <glyph glyph-name="onesuperior" unicode="&#xb9;" horiz-adv-x="576" 
d="M511 608l-422 -0.00292969l7 42c33.333 4 60.833 8.16699 82.5 12.5s38.667 8.83301 51 13.5s21.166 9.5 26.499 14.5s8.33301 9.5 9 13.5l73 458c2.66699 16 4.16699 28.5 4.5 37.5s-1.83398 16.167 -6.50098 21.5c-2 2.66699 -6 4.66699 -12 6s-15 1.83301 -27 1.5
s-27.5 -1.66602 -46.5 -3.99902s-42.5 -6.5 -70.5 -12.5l-8 41c18 4.66699 40.333 11.334 67 20.001l81.5 27.5c27.667 9.66699 54 19.334 79 29.001s45.167 18.167 60.5 25.5l19 -21l-99 -630c-0.666992 -4 0.333008 -8.33301 3 -13s8.83398 -9.5 18.501 -14.5
s23.834 -9.66699 42.501 -14s43.667 -8.5 75 -12.5z" />
    <glyph glyph-name="ordmasculine" unicode="&#xba;" horiz-adv-x="508" 
d="M440 1006c0 54 -10.002 95.833 -30.002 125.5s-48 44.5 -84 44.5c-26 0 -48 -7.5 -66 -22.5s-32.5 -34 -43.5 -57s-18.833 -47.833 -23.5 -74.5s-7 -51.334 -7 -74.001c0 -23.333 3 -45.666 9 -66.999s14.333 -40 25 -56s23.167 -28.833 37.5 -38.5
s29.5 -14.5 45.5 -14.5c24.667 0 45.834 8 63.501 24s31.834 36 42.501 60s18.5 49.5 23.5 76.5s7.5 51.5 7.5 73.5zM468.998 635c-3.33301 -10.667 -7.16797 -19.168 -11.501 -25.501s-8.16602 -14.166 -11.499 -23.499h-370l-17 20c3.33301 10.667 7 19.667 11 27
s8 16 12 26h369zM517.996 1034c0 -24 -2.66895 -48.333 -8.00195 -73s-13.166 -48.5 -23.499 -71.5s-23.166 -44.833 -38.499 -65.5s-33 -39.334 -53 -56.001c-19.333 -15.333 -40 -28.333 -62 -39s-43.667 -16 -65 -16c-25.333 0 -47.666 5.16699 -66.999 15.5
s-35.666 24.833 -48.999 43.5s-23.5 40.5 -30.5 65.5s-10.5 52.5 -10.5 82.5c0 50.667 9 98.334 27 143.001s50.667 85.667 98 123c18 14 38.167 26 60.5 36s44.166 15 65.499 15c28.667 0 53 -5 73 -15s36.167 -24 48.5 -42s21.166 -39.333 26.499 -64s8 -52 8 -82z" />
    <glyph glyph-name="guillemotright" unicode="&#xbb;" horiz-adv-x="882" 
d="M806 485c0 -1.33301 -0.333984 -5.66602 -1.00098 -12.999s-1.66699 -15.333 -3 -24l-4 -34l-376 -407l-34 29l261 414c0.666992 -0.666992 -2.66602 9.16602 -9.99902 29.499l-27.5 76l-36 99l-36.5 99l-28 75.5l-11 31l42 29zM477.999 485
c0 -1.33301 -0.333984 -5.66602 -1.00098 -12.999s-1.66699 -15.333 -3 -24l-4 -34l-376 -407l-34 29l261 414c0.666992 -0.666992 -2.66602 9.16602 -9.99902 29.499l-27.5 76l-36 99l-36.5 99l-28 75.5l-11 31l42 29z" />
    <glyph glyph-name="onequarter" unicode="&#xbc;" horiz-adv-x="1110" 
d="M881 491l-217 -265h181zM996 210l-23.5 -26.501c-7 -7.66699 -14.833 -14.167 -23.5 -19.5h-27l-15 -106c0 -2.66699 0.5 -5 1.5 -7s3.5 -4.16699 7.5 -6.5s10 -4.83301 18 -7.5s18.667 -5.33398 32 -8.00098l-3 -29h-247l3 29c22 3.33301 39.833 6.5 53.5 9.5
s24.167 5.83301 31.5 8.5s12.333 5.33398 15 8.00098s4 5.33398 4 8.00098l14 101h-250l-15 16l304 383l46.5 18c15.667 6 29.167 11.667 40.5 17l15 -17l-48 -355h54zM133 636.999l5 33.998c26.667 2.66699 48.667 5.83398 66 9.50098s31 7.33398 41 11.001s17 7.5 21 11.5
s6 7.66699 6 11l50 366c2 13.333 3 23.5 3 30.5s-2 12.5 -6 16.5c-1.33301 2 -4.33301 3.66699 -9 5s-11.834 1.83301 -21.501 1.5s-22 -1.5 -37 -3.5s-33.833 -5.33301 -56.5 -10l-7 33c14.667 4 32.5 9.33301 53.5 16s42.333 13.834 64 21.501s42.334 15.5 62.001 23.5
s35.5 15 47.5 21l16 -17l-69 -504c0 -3.33301 1.16699 -6.83301 3.5 -10.5s7.5 -7.5 15.5 -11.5s19.5 -7.83301 34.5 -11.5s35.167 -6.83398 60.5 -9.50098l-5 -34h-338zM244 2.99707c-15.333 -7.33301 -29.499 -13.499 -42.499 -18.499s-28.167 -9.83301 -45.5 -14.5
l-18 30l849 1203l41 17.5c15.333 6.33301 29.666 11.166 42.999 14.499l19 -28z" />
    <glyph glyph-name="onehalf" unicode="&#xbd;" horiz-adv-x="1110" 
d="M133 637l5 33.998c26.667 2.66699 48.667 5.83398 66 9.50098s31 7.33398 41 11.001s17 7.5 21 11.5s6 7.66699 6 11l50 366c2 13.333 3 23.5 3 30.5s-2 12.5 -6 16.5c-1.33301 2 -4.33301 3.66699 -9 5s-11.834 1.83301 -21.501 1.5s-22 -1.5 -37 -3.5
s-33.833 -5.33301 -56.5 -10l-7 33c14.667 4 32.5 9.33301 53.5 16s42.333 13.834 64 21.501s42.334 15.5 62.001 23.5s35.5 15 47.5 21l16 -17l-69 -504c0 -3.33301 1.16699 -6.83301 3.5 -10.5s7.5 -7.5 15.5 -11.5s19.5 -7.83301 34.5 -11.5
s35.167 -6.83398 60.5 -9.50098l-5 -34h-338zM244 2.99805c-15.333 -7.33301 -29.499 -13.499 -42.499 -18.499s-28.167 -9.83301 -45.5 -14.5l-18 30l849 1203l41 17.5c15.333 6.33301 29.666 11.166 42.999 14.499l19 -28zM961.001 -0.000976562l-364.998 0.000976562
l-10 35l168 165c43.333 44 77.5 81 102.5 111s42.667 55 53 75s16.833 39 19.5 57c4 30 0.166992 53.667 -11.5 71s-34.834 26 -69.501 26c-12.667 0 -24.667 -2.66699 -36 -8s-21.333 -12.333 -30 -21s-15.834 -18.5 -21.501 -29.5s-9.5 -22.167 -11.5 -33.5
c-24.667 -12.667 -52.334 -20.334 -83.001 -23.001l-12 14c2 16.667 10.333 34.167 25 52.5s33 35 55 50s46.5 27.333 73.5 37s54.5 14.5 82.5 14.5c44 0 78.667 -11 104 -33s35 -56.333 29 -103c-3.33301 -21.333 -11 -43 -23 -65s-30.667 -47.5 -56 -76.5
s-58.166 -63.333 -98.499 -103l-149.5 -146.5h196c11.333 0 21 4 29 12s14.667 16.667 20 26c6 11.333 10.667 24.333 14 39l31 -5z" />
    <glyph glyph-name="threequarters" unicode="&#xbe;" horiz-adv-x="1110" 
d="M244 3c-15.333 -7.33301 -29.499 -13.499 -42.499 -18.499s-28.167 -9.83301 -45.5 -14.5l-18 30l849 1203l41 17.5c15.333 6.33301 29.666 11.166 42.999 14.499l19 -28zM996.001 210.001l-23.5 -26.501c-7 -7.66699 -14.833 -14.167 -23.5 -19.5h-27l-15 -106
c0 -2.66699 0.5 -5 1.5 -7s3.5 -4.16699 7.5 -6.5s10 -4.83301 18 -7.5s18.667 -5.33398 32 -8.00098l-3 -29h-247l3 29c22 3.33301 39.833 6.5 53.5 9.5s24.167 5.83301 31.5 8.5s12.333 5.33398 15 8.00098s4 5.33398 4 8.00098l14 101h-250l-15 16l304 383l46.5 18
c15.667 6 29.167 11.667 40.5 17l15 -17l-48 -355h54zM539.001 825c-3.33301 -27.333 -11.4961 -52.834 -24.4961 -76.501s-29.833 -44.5 -50.5 -62.5s-44.834 -32.167 -72.501 -42.5s-57.834 -15.5 -90.501 -15.5c-30 0 -59.667 6.16699 -89 18.5
s-57.666 32.5 -84.999 60.5l22 33c28 -22 53 -36.833 75 -44.5s45.667 -11.5 71 -11.5c39.333 0 72.333 10.667 99 32s42.667 52.333 48 93c3.33301 24 2.5 44.167 -2.5 60.5s-12.667 29.5 -23 39.5s-22.333 17.167 -36 21.5s-27.5 6.5 -41.5 6.5h-11
c-2 0 -4 -0.166992 -6 -0.5s-4.33301 -0.833008 -7 -1.5l-12 -1l-1 37c30.667 8 55.667 17 75 27s34.333 20.5 45 31.5s18.167 21.833 22.5 32.5s7.16602 21 8.49902 31c1.33301 10.667 1.16602 21.334 -0.500977 32.001s-5.5 20.334 -11.5 29.001s-14 15.5 -24 20.5
s-22.667 7.5 -38 7.5c-25.333 0 -45.5 -6.83301 -60.5 -20.5s-21.833 -31.167 -20.5 -52.5c-11.333 -5.33301 -24.833 -9.5 -40.5 -12.5s-31.167 -5.16699 -46.5 -6.5l-12 15c2 13.333 9.5 27.666 22.5 42.999s29.5 29.5 49.5 42.5s42.5 23.667 67.5 32s50.5 12.5 76.5 12.5
s48 -3.83301 66 -11.5s32.167 -17.834 42.5 -30.501s17.333 -27 21 -43s4.5 -32 2.5 -48c-1.33301 -12 -5.33301 -24.167 -12 -36.5s-15.334 -24.166 -26.001 -35.499s-23.167 -21.5 -37.5 -30.5s-30.166 -16.5 -47.499 -22.5c18.667 -2 35.834 -7.5 51.501 -16.5
s28.667 -20.167 39 -33.5s17.666 -28.833 21.999 -46.5s5.16602 -36.167 2.49902 -55.5zM881.005 490.999l-217 -265h181z" />
    <glyph glyph-name="questiondown" unicode="&#xbf;" horiz-adv-x="813" 
d="M352 750c0 20 3.5 40.5 10.5 61.5s17 40.333 30 58s28.5 32.167 46.5 43.5s38.333 17 61 17c26.667 0 47.334 -9 62.001 -27s22 -42 22 -72c0 -18.667 -3.83301 -38.334 -11.5 -59.001s-18.334 -39.667 -32.001 -57s-29.667 -31.666 -48 -42.999s-37.833 -17 -58.5 -17
c-24.667 0 -44.5 8.5 -59.5 25.5s-22.5 40.167 -22.5 69.5zM631 -190c0 -42.667 -9.33203 -84.332 -27.999 -124.999s-45.334 -77 -80.001 -109s-76.667 -57.667 -126 -77s-104.666 -29 -165.999 -29c-42 0 -78.5 6.5 -109.5 19.5s-56.667 30.5 -77 52.5
s-35.5 47.833 -45.5 77.5s-15 61.5 -15 95.5c0 58.667 8.5 110.167 25.5 154.5s38.5 84.333 64.5 120s54.5 68.834 85.5 99.501s60.667 62.167 89 94.5s53.333 66.833 75 103.5s36.167 79 43.5 127l14 96c12.667 10 23.834 18.333 33.501 25s23.167 12.667 40.5 18l20 -23
l-2 -116c-1.33301 -44.667 -10.333 -85.667 -27 -123s-37.334 -73 -62.001 -107s-51 -66.833 -79 -98.5s-54 -63.834 -78 -96.501s-44 -66.834 -60 -102.501s-24 -74.167 -24 -115.5c0 -66 14.667 -116.667 44 -152s72.666 -53 129.999 -53c28 0 52.667 6.33301 74 19
s38.5 29.834 51.5 51.501s21.667 46.667 26 75s3.83301 58.166 -1.5 89.499c14 6.66699 26.5 12.167 37.5 16.5s22 8 33 11s22.333 5.33301 34 7s24.5 3.16699 38.5 4.5z" />
    <glyph glyph-name="Agrave" unicode="&#xc0;" horiz-adv-x="1147" 
d="M371 444l-143.002 -332.998c-9.33301 -20.667 -4.16602 -35.5 15.501 -44.5s55.167 -16.833 106.5 -23.5l-6 -43h-379l6 43c42 8 75.667 16.5 101 25.5s42.333 23.167 51 42.5l487 1118c8.66699 8 19 16.167 31 24.5s24.333 16.333 37 24l36.5 22
c11.667 7 21.834 12.833 30.501 17.5l216 -1206c1.33301 -9.33301 3.83301 -17.5 7.5 -24.5s9.5 -13.333 17.5 -19s18.833 -10.5 32.5 -14.5s31.167 -7.33301 52.5 -10l-4 -43h-385l4 43c47.333 3.33301 81.333 10.166 102 20.499s29 26.166 25 47.499l-58 333h-384z
M738.998 535.002l-94 544l-235 -544h329zM846.998 1393c-9.33301 -13.333 -16.832 -23.002 -22.499 -29.002s-13.834 -12 -24.501 -18l-401 244l12 47c6 4.66699 14.333 10.334 25 17.001s22 13.334 34 20.001l35 19l29 15z" />
    <glyph glyph-name="Aacute" unicode="&#xc1;" horiz-adv-x="1147" 
d="M371 444l-143.002 -332.998c-9.33301 -20.667 -4.16602 -35.5 15.501 -44.5s55.167 -16.833 106.5 -23.5l-6 -43h-379l6 43c42 8 75.667 16.5 101 25.5s42.333 23.167 51 42.5l487 1118c8.66699 8 19 16.167 31 24.5s24.333 16.333 37 24l36.5 22
c11.667 7 21.834 12.833 30.501 17.5l216 -1206c1.33301 -9.33301 3.83301 -17.5 7.5 -24.5s9.5 -13.333 17.5 -19s18.833 -10.5 32.5 -14.5s31.167 -7.33301 52.5 -10l-4 -43h-385l4 43c47.333 3.33301 81.333 10.166 102 20.499s29 26.166 25 47.499l-58 333h-384z
M738.998 535.002l-94 544l-235 -544h329zM1033 1590l-455.002 -243.998c-9.33301 6 -15.666 12 -18.999 18s-8 15.667 -14 29l391 315l23 -15l27.5 -19c9.66699 -6.66699 18.834 -13.334 27.501 -20.001s15 -12.334 19 -17.001v-47z" />
    <glyph glyph-name="Acircumflex" unicode="&#xc2;" horiz-adv-x="1147" 
d="M371 444l-143.002 -332.998c-9.33301 -20.667 -4.16602 -35.5 15.501 -44.5s55.167 -16.833 106.5 -23.5l-6 -43h-379l6 43c42 8 75.667 16.5 101 25.5s42.333 23.167 51 42.5l487 1118c8.66699 8 19 16.167 31 24.5s24.333 16.333 37 24l36.5 22
c11.667 7 21.834 12.833 30.501 17.5l216 -1206c1.33301 -9.33301 3.83301 -17.5 7.5 -24.5s9.5 -13.333 17.5 -19s18.833 -10.5 32.5 -14.5s31.167 -7.33301 52.5 -10l-4 -43h-385l4 43c47.333 3.33301 81.333 10.166 102 20.499s29 26.166 25 47.499l-58 333h-384z
M738.998 535.002l-94 544l-235 -544h329zM983.998 1391c-9.33301 -13.333 -16.499 -22.999 -21.499 -28.999s-12.833 -11.333 -23.5 -16l-215 205l-266 -205c-6 4 -11.333 9.16699 -16 15.5s-10.334 16.166 -17.001 29.499l275 301h92z" />
    <glyph glyph-name="Atilde" unicode="&#xc3;" horiz-adv-x="1147" 
d="M371 444l-143.002 -332.998c-9.33301 -20.667 -4.16602 -35.5 15.501 -44.5s55.167 -16.833 106.5 -23.5l-6 -43h-379l6 43c42 8 75.667 16.5 101 25.5s42.333 23.167 51 42.5l487 1118c8.66699 8 19 16.167 31 24.5s24.333 16.333 37 24l36.5 22
c11.667 7 21.834 12.833 30.501 17.5l216 -1206c1.33301 -9.33301 3.83301 -17.5 7.5 -24.5s9.5 -13.333 17.5 -19s18.833 -10.5 32.5 -14.5s31.167 -7.33301 52.5 -10l-4 -43h-385l4 43c47.333 3.33301 81.333 10.166 102 20.499s29 26.166 25 47.499l-58 333h-384z
M738.998 535.002l-94 544l-235 -544h329zM1042 1613c-14 -26.667 -29.8301 -53.333 -47.4971 -80s-36.834 -50.5 -57.501 -71.5s-42.834 -38 -66.501 -51s-48.5 -19.5 -74.5 -19.5c-21.333 0 -40.5 5.66699 -57.5 17s-33.333 23.833 -49 37.5s-31.334 26.167 -47.001 37.5
s-32.167 17 -49.5 17c-23.333 0 -47 -10.5 -71 -31.5s-50 -50.167 -78 -87.5l-43 21c14 26.667 29.833 53.167 47.5 79.5s37 50 58 71s43.5 38 67.5 51s48.667 19.5 74 19.5c22 0 42.167 -5.66699 60.5 -17s35.5 -23.833 51.5 -37.5l45 -37.5c14 -11.333 28 -17 42 -17
c23.333 0 47.833 10.5 73.5 31.5s51.167 50.167 76.5 87.5z" />
    <glyph glyph-name="Adieresis" unicode="&#xc4;" horiz-adv-x="1147" 
d="M371 444l-143.002 -332.998c-9.33301 -20.667 -4.16602 -35.5 15.501 -44.5s55.167 -16.833 106.5 -23.5l-6 -43h-379l6 43c42 8 75.667 16.5 101 25.5s42.333 23.167 51 42.5l487 1118c8.66699 8 19 16.167 31 24.5s24.333 16.333 37 24l36.5 22
c11.667 7 21.834 12.833 30.501 17.5l216 -1206c1.33301 -9.33301 3.83301 -17.5 7.5 -24.5s9.5 -13.333 17.5 -19s18.833 -10.5 32.5 -14.5s31.167 -7.33301 52.5 -10l-4 -43h-385l4 43c47.333 3.33301 81.333 10.166 102 20.499s29 26.166 25 47.499l-58 333h-384z
M738.998 535.002l-94 544l-235 -544h329zM630.998 1549c0 -18.667 -3 -37.166 -9 -55.499s-14.333 -35 -25 -50s-23.834 -27.167 -39.501 -36.5s-32.834 -14 -51.501 -14c-21.333 0 -38 6 -50 18s-18 29.333 -18 52c0 18 3.16699 36.167 9.5 54.5s15 35.166 26 50.499
s24.333 27.833 40 37.5s32.834 14.5 51.501 14.5c20.667 0 36.834 -6.16699 48.501 -18.5s17.5 -29.833 17.5 -52.5zM1004 1549c0 -18.667 -2.99805 -37.166 -8.99805 -55.499s-14.5 -35 -25.5 -50s-24.333 -27.167 -40 -36.5s-33.167 -14 -52.5 -14
c-20.667 0 -36.834 6 -48.501 18s-17.5 29.333 -17.5 52c0 18 3 36.167 9 54.5s14.333 35.166 25 50.499s23.667 27.833 39 37.5s32.666 14.5 51.999 14.5c20.667 0 37.167 -6.16699 49.5 -18.5s18.5 -29.833 18.5 -52.5z" />
    <glyph glyph-name="Aring" unicode="&#xc5;" horiz-adv-x="1147" 
d="M371 444l-143.002 -332.998c-9.33301 -20.667 -4.16602 -35.5 15.501 -44.5s55.167 -16.833 106.5 -23.5l-6 -43h-379l6 43c42 8 75.667 16.5 101 25.5s42.333 23.167 51 42.5l487 1118c8.66699 8 19 16.167 31 24.5s24.333 16.333 37 24l36.5 22
c11.667 7 21.834 12.833 30.501 17.5l216 -1206c1.33301 -9.33301 3.83301 -17.5 7.5 -24.5s9.5 -13.333 17.5 -19s18.833 -10.5 32.5 -14.5s31.167 -7.33301 52.5 -10l-4 -43h-385l4 43c47.333 3.33301 81.333 10.166 102 20.499s29 26.166 25 47.499l-58 333h-384z
M738.998 535.002l-94 544l-235 -544h329zM811.998 1563c0 23.333 -4.99902 44.1689 -14.999 62.502s-25.333 27.5 -46 27.5c-18.667 0 -35 -4.33301 -49 -13s-25.833 -19.834 -35.5 -33.501s-16.834 -28.834 -21.501 -45.501s-7 -33 -7 -49
c0 -24.667 5.5 -46.167 16.5 -64.5s26.833 -27.5 47.5 -27.5c18 0 33.833 4.5 47.5 13.5s25.167 20.333 34.5 34s16.333 29 21 46s7 33.5 7 49.5zM895.999 1600c0 -27.333 -5.82812 -55.835 -17.4951 -85.502s-27.667 -57 -48 -82s-44 -45.667 -71 -62
s-55.833 -24.5 -86.5 -24.5c-17.333 0 -33.333 3.33301 -48 10s-27.334 15.667 -38.001 27s-18.834 24.333 -24.501 39s-8.5 30.334 -8.5 47.001c0 30 5.83301 60.333 17.5 91s27.667 58.5 48 83.5s44.166 45.5 71.499 61.5s56.666 24 87.999 24
c35.333 0 63.666 -12.167 84.999 -36.5s32 -55.166 32 -92.499z" />
    <glyph glyph-name="AE" unicode="&#xc6;" horiz-adv-x="1464" 
d="M819 1147c0.666992 7.33301 -1.66699 12.833 -7 16.5s-12 5 -20 4s-16.333 -4.5 -25 -10.5s-16 -15 -22 -27l-194 -395h213zM1380 244c-13.333 -58 -26.501 -108.331 -39.501 -150.998s-23.5 -73.667 -31.5 -93h-777l7 43c42 9.33301 75.333 19.5 100 30.5
s37.667 21.167 39 30.5l74 551h-242l-272 -544c-10.667 -19.333 -7.5 -34 9.5 -44s49.167 -18 96.5 -24l-4 -43h-375l6 43c41.333 8 74.333 16.5 99 25.5s41.667 23.167 51 42.5l514 1022c5.33301 11.333 5.33301 20.833 0 28.5s-15.166 14.667 -29.499 21
s-32.833 12.166 -55.5 17.499s-48.334 11 -77.001 17l6 43h953l22 -25c-3.33301 -17.333 -7.5 -36.333 -12.5 -57s-10.5 -41.334 -16.5 -62.001s-12.167 -40.334 -18.5 -59.001s-12.166 -34.334 -17.499 -47.001h-41c2.66699 30.667 3.5 56.167 2.5 76.5
s-3.66699 36.666 -8 48.999s-10.5 21 -18.5 26s-18 7.5 -30 7.5h-327l-60 -434h365l20 -28c-6.66699 -9.33301 -14.167 -19.166 -22.5 -29.499s-16.833 -20.333 -25.5 -30s-17.334 -18.667 -26.001 -27s-16.667 -15.166 -24 -20.499c-8 10 -16.667 18.333 -26 25
s-20.5 12.334 -33.5 17.001s-28.5 8 -46.5 10s-39.333 3 -64 3h-127l-70 -501c-1.33301 -10 -0.333008 -18.833 3 -26.5s11.333 -14.334 24 -20.001s30.834 -10 54.501 -13s55.5 -4.5 95.5 -4.5h114c28 0 52 1.66699 72 5s38.333 10.833 55 22.5s32.667 28.834 48 51.501
s32 53.667 50 93z" />
    <glyph glyph-name="Ccedilla" unicode="&#xc7;" horiz-adv-x="995" 
d="M588 -221c0 -35.333 -10.3311 -67.6699 -30.998 -97.0029s-47.5 -52.166 -80.5 -68.499s-70 -24.333 -111 -24s-81.5 12.166 -121.5 35.499l-2 39c34.667 -16 65.667 -24.5 93 -25.5s50.333 2.66699 69 11s32.834 20.166 42.501 35.499s14.5 31 14.5 47
c0 17.333 -7.66699 30.833 -23 40.5s-38.666 13.834 -69.999 12.501c9.33301 24.667 17.166 46.5 23.499 65.5s11.833 36.833 16.5 53.5s8.66699 33 12 49c2 6.66699 3.66699 14 5 22c-38.667 3.33301 -76 13.333 -112 30c-46 22 -86.5 53.667 -121.5 95
s-63 92.166 -84 152.499s-31.5 129.166 -31.5 206.499c0 62.667 6.16699 126.5 18.5 191.5s31.5 128.333 57.5 190s59.333 120.334 100 176.001s89 105.834 145 150.501c48.667 38 101.167 68 157.5 90s115.833 33 178.5 33c66 0 122.333 -9.66699 169 -29
s84.667 -43 114 -71c2.66699 -3.33301 0.333984 -10.666 -6.99902 -21.999s-16.833 -24 -28.5 -38s-24 -27.833 -37 -41.5s-23.833 -24.167 -32.5 -31.5l-30 8c-27.333 30 -60.5 54.833 -99.5 74.5s-85.833 29.5 -140.5 29.5c-26.667 0 -56.667 -6.33301 -90 -19
s-63.333 -29.334 -90 -50.001c-42 -32.667 -77.833 -73.667 -107.5 -123s-53.834 -101.166 -72.501 -155.499s-32.334 -108.333 -41.001 -162s-13 -101.5 -13 -143.5c0 -72.667 9.83301 -135.5 29.5 -188.5s45 -96.667 76 -131s65 -59.666 102 -75.999
s73.167 -24.5 108.5 -24.5c37.333 0 82.166 11.833 134.499 35.5s115.833 65.167 190.5 124.5c3.33301 -1.33301 6.33301 -4.16602 9 -8.49902l8 -13.5c2.66699 -4.66699 5 -9.16699 7 -13.5s3.66699 -7.5 5 -9.5c-45.333 -45.333 -87.833 -83.333 -127.5 -114
s-77.5 -55.167 -113.5 -73.5s-70.333 -31.166 -103 -38.499c-20 -4.66699 -39.667 -8 -59 -10c-2.66699 -15.333 -5.33398 -28 -8.00098 -38c-4 -16.667 -8.33301 -33.334 -13 -50.001c34 -1.33301 61.667 -11.5 83 -30.5s32 -44.833 32 -77.5z" />
    <glyph glyph-name="Egrave" unicode="&#xc8;" horiz-adv-x="946" 
d="M856 244c-13.333 -58 -26.8301 -108.329 -40.4971 -150.996s-24.167 -73.667 -31.5 -93h-784l6 43c42 9.33301 75.667 19.5 101 30.5s38.666 21.167 39.999 30.5l146 1051c1.33301 8 -8.33398 18 -29.001 30s-52.667 22.667 -96 32l6 43h737l25 -25
c-3.33301 -17.333 -7.5 -36.333 -12.5 -57s-10.667 -41.334 -17 -62.001s-12.833 -40.334 -19.5 -59.001s-13 -34.334 -19 -47.001h-43c3.33301 30.667 4.66602 56.167 3.99902 76.5s-3.33398 36.666 -8.00098 48.999s-11 21 -19 26s-18 7.5 -30 7.5h-335l-59 -434h374
l20 -28c-6.66699 -9.33301 -14.167 -19 -22.5 -29s-17 -19.833 -26 -29.5s-17.833 -18.667 -26.5 -27l-23 -21.5c-10.667 11.333 -22 20.5 -34 27.5s-26.833 12.5 -44.5 16.5s-39.334 6.83301 -65.001 8.5s-57.167 2.5 -94.5 2.5h-69l-68 -501
c-1.33301 -10 -0.333008 -18.833 3 -26.5s11.333 -14.334 24 -20.001s31 -10 55 -13s56 -4.5 96 -4.5h121c28 0 51.667 1.66699 71 5s36.833 10.833 52.5 22.5s30.834 28.834 45.501 51.501s31.334 53.667 50.001 93zM742.003 1393
c-9.33301 -13.333 -16.832 -23.002 -22.499 -29.002s-13.834 -12 -24.501 -18l-401 244l12 47c6 4.66699 14.333 10.334 25 17.001s22 13.334 34 20.001l35 19l29 15z" />
    <glyph glyph-name="Eacute" unicode="&#xc9;" horiz-adv-x="946" 
d="M856 244c-13.333 -58 -26.8301 -108.329 -40.4971 -150.996s-24.167 -73.667 -31.5 -93h-784l6 43c42 9.33301 75.667 19.5 101 30.5s38.666 21.167 39.999 30.5l146 1051c1.33301 8 -8.33398 18 -29.001 30s-52.667 22.667 -96 32l6 43h737l25 -25
c-3.33301 -17.333 -7.5 -36.333 -12.5 -57s-10.667 -41.334 -17 -62.001s-12.833 -40.334 -19.5 -59.001s-13 -34.334 -19 -47.001h-43c3.33301 30.667 4.66602 56.167 3.99902 76.5s-3.33398 36.666 -8.00098 48.999s-11 21 -19 26s-18 7.5 -30 7.5h-335l-59 -434h374
l20 -28c-6.66699 -9.33301 -14.167 -19 -22.5 -29s-17 -19.833 -26 -29.5s-17.833 -18.667 -26.5 -27l-23 -21.5c-10.667 11.333 -22 20.5 -34 27.5s-26.833 12.5 -44.5 16.5s-39.334 6.83301 -65.001 8.5s-57.167 2.5 -94.5 2.5h-69l-68 -501
c-1.33301 -10 -0.333008 -18.833 3 -26.5s11.333 -14.334 24 -20.001s31 -10 55 -13s56 -4.5 96 -4.5h121c28 0 51.667 1.66699 71 5s36.833 10.833 52.5 22.5s30.834 28.834 45.501 51.501s31.334 53.667 50.001 93zM928.003 1590l-455.002 -243.998
c-9.33301 6 -15.666 12 -18.999 18s-8 15.667 -14 29l391 315l23 -15l27.5 -19c9.66699 -6.66699 18.834 -13.334 27.501 -20.001s15 -12.334 19 -17.001v-47z" />
    <glyph glyph-name="Ecircumflex" unicode="&#xca;" horiz-adv-x="946" 
d="M856 244c-13.333 -58 -26.8301 -108.329 -40.4971 -150.996s-24.167 -73.667 -31.5 -93h-784l6 43c42 9.33301 75.667 19.5 101 30.5s38.666 21.167 39.999 30.5l146 1051c1.33301 8 -8.33398 18 -29.001 30s-52.667 22.667 -96 32l6 43h737l25 -25
c-3.33301 -17.333 -7.5 -36.333 -12.5 -57s-10.667 -41.334 -17 -62.001s-12.833 -40.334 -19.5 -59.001s-13 -34.334 -19 -47.001h-43c3.33301 30.667 4.66602 56.167 3.99902 76.5s-3.33398 36.666 -8.00098 48.999s-11 21 -19 26s-18 7.5 -30 7.5h-335l-59 -434h374
l20 -28c-6.66699 -9.33301 -14.167 -19 -22.5 -29s-17 -19.833 -26 -29.5s-17.833 -18.667 -26.5 -27l-23 -21.5c-10.667 11.333 -22 20.5 -34 27.5s-26.833 12.5 -44.5 16.5s-39.334 6.83301 -65.001 8.5s-57.167 2.5 -94.5 2.5h-69l-68 -501
c-1.33301 -10 -0.333008 -18.833 3 -26.5s11.333 -14.334 24 -20.001s31 -10 55 -13s56 -4.5 96 -4.5h121c28 0 51.667 1.66699 71 5s36.833 10.833 52.5 22.5s30.834 28.834 45.501 51.501s31.334 53.667 50.001 93zM879.003 1391
c-9.33301 -13.333 -16.499 -22.999 -21.499 -28.999s-12.833 -11.333 -23.5 -16l-215 205l-266 -205c-6 4 -11.333 9.16699 -16 15.5s-10.334 16.166 -17.001 29.499l275 301h92z" />
    <glyph glyph-name="Edieresis" unicode="&#xcb;" horiz-adv-x="946" 
d="M856 244c-13.333 -58 -26.8301 -108.329 -40.4971 -150.996s-24.167 -73.667 -31.5 -93h-784l6 43c42 9.33301 75.667 19.5 101 30.5s38.666 21.167 39.999 30.5l146 1051c1.33301 8 -8.33398 18 -29.001 30s-52.667 22.667 -96 32l6 43h737l25 -25
c-3.33301 -17.333 -7.5 -36.333 -12.5 -57s-10.667 -41.334 -17 -62.001s-12.833 -40.334 -19.5 -59.001s-13 -34.334 -19 -47.001h-43c3.33301 30.667 4.66602 56.167 3.99902 76.5s-3.33398 36.666 -8.00098 48.999s-11 21 -19 26s-18 7.5 -30 7.5h-335l-59 -434h374
l20 -28c-6.66699 -9.33301 -14.167 -19 -22.5 -29s-17 -19.833 -26 -29.5s-17.833 -18.667 -26.5 -27l-23 -21.5c-10.667 11.333 -22 20.5 -34 27.5s-26.833 12.5 -44.5 16.5s-39.334 6.83301 -65.001 8.5s-57.167 2.5 -94.5 2.5h-69l-68 -501
c-1.33301 -10 -0.333008 -18.833 3 -26.5s11.333 -14.334 24 -20.001s31 -10 55 -13s56 -4.5 96 -4.5h121c28 0 51.667 1.66699 71 5s36.833 10.833 52.5 22.5s30.834 28.834 45.501 51.501s31.334 53.667 50.001 93zM526.003 1549c0 -18.667 -3 -37.166 -9 -55.499
s-14.333 -35 -25 -50s-23.834 -27.167 -39.501 -36.5s-32.834 -14 -51.501 -14c-21.333 0 -38 6 -50 18s-18 29.333 -18 52c0 18 3.16699 36.167 9.5 54.5s15 35.166 26 50.499s24.333 27.833 40 37.5s32.834 14.5 51.501 14.5c20.667 0 36.834 -6.16699 48.501 -18.5
s17.5 -29.833 17.5 -52.5zM899.003 1549c0 -18.667 -2.99805 -37.166 -8.99805 -55.499s-14.5 -35 -25.5 -50s-24.333 -27.167 -40 -36.5s-33.167 -14 -52.5 -14c-20.667 0 -36.834 6 -48.501 18s-17.5 29.333 -17.5 52c0 18 3 36.167 9 54.5s14.333 35.166 25 50.499
s23.667 27.833 39 37.5s32.666 14.5 51.999 14.5c20.667 0 37.167 -6.16699 49.5 -18.5s18.5 -29.833 18.5 -52.5z" />
    <glyph glyph-name="Igrave" unicode="&#xcc;" horiz-adv-x="573" 
d="M598 1217c-42 -9.33301 -75.668 -19.668 -101.001 -31.001s-38.666 -21.666 -39.999 -30.999l-146 -1051c-1.33301 -8 8.33398 -17.833 29.001 -29.5s52.667 -22.167 96 -31.5l-6 -43h-410l7 43c42 9.33301 75.5 19.5 100.5 30.5s38.5 21.167 40.5 30.5l143 1051
c1.33301 8 -8.33398 18 -29.001 30s-52 22.667 -94 32l7 43h409zM556.999 1393c-9.33301 -13.333 -16.832 -23.002 -22.499 -29.002s-13.834 -12 -24.501 -18l-401 244l12 47c6 4.66699 14.333 10.334 25 17.001s22 13.334 34 20.001l35 19l29 15z" />
    <glyph glyph-name="Iacute" unicode="&#xcd;" horiz-adv-x="573" 
d="M598 1217c-42 -9.33301 -75.668 -19.668 -101.001 -31.001s-38.666 -21.666 -39.999 -30.999l-146 -1051c-1.33301 -8 8.33398 -17.833 29.001 -29.5s52.667 -22.167 96 -31.5l-6 -43h-410l7 43c42 9.33301 75.5 19.5 100.5 30.5s38.5 21.167 40.5 30.5l143 1051
c1.33301 8 -8.33398 18 -29.001 30s-52 22.667 -94 32l7 43h409zM742.999 1590l-455.002 -243.998c-9.33301 6 -15.666 12 -18.999 18s-8 15.667 -14 29l391 315l23 -15l27.5 -19c9.66699 -6.66699 18.834 -13.334 27.501 -20.001s15 -12.334 19 -17.001v-47z" />
    <glyph glyph-name="Icircumflex" unicode="&#xce;" horiz-adv-x="573" 
d="M598 1217c-42 -9.33301 -75.668 -19.668 -101.001 -31.001s-38.666 -21.666 -39.999 -30.999l-146 -1051c-1.33301 -8 8.33398 -17.833 29.001 -29.5s52.667 -22.167 96 -31.5l-6 -43h-410l7 43c42 9.33301 75.5 19.5 100.5 30.5s38.5 21.167 40.5 30.5l143 1051
c1.33301 8 -8.33398 18 -29.001 30s-52 22.667 -94 32l7 43h409zM693.999 1391c-9.33301 -13.333 -16.499 -22.999 -21.499 -28.999s-12.833 -11.333 -23.5 -16l-215 205l-266 -205c-6 4 -11.333 9.16699 -16 15.5s-10.334 16.166 -17.001 29.499l275 301h92z" />
    <glyph glyph-name="Idieresis" unicode="&#xcf;" horiz-adv-x="573" 
d="M598 1217c-42 -9.33301 -75.668 -19.668 -101.001 -31.001s-38.666 -21.666 -39.999 -30.999l-146 -1051c-1.33301 -8 8.33398 -17.833 29.001 -29.5s52.667 -22.167 96 -31.5l-6 -43h-410l7 43c42 9.33301 75.5 19.5 100.5 30.5s38.5 21.167 40.5 30.5l143 1051
c1.33301 8 -8.33398 18 -29.001 30s-52 22.667 -94 32l7 43h409zM340.999 1549c0 -18.667 -3 -37.166 -9 -55.499s-14.333 -35 -25 -50s-23.834 -27.167 -39.501 -36.5s-32.834 -14 -51.501 -14c-21.333 0 -38 6 -50 18s-18 29.333 -18 52c0 18 3.16699 36.167 9.5 54.5
s15 35.166 26 50.499s24.333 27.833 40 37.5s32.834 14.5 51.501 14.5c20.667 0 36.834 -6.16699 48.501 -18.5s17.5 -29.833 17.5 -52.5zM713.999 1549c0 -18.667 -2.99805 -37.166 -8.99805 -55.499s-14.5 -35 -25.5 -50s-24.333 -27.167 -40 -36.5s-33.167 -14 -52.5 -14
c-20.667 0 -36.834 6 -48.501 18s-17.5 29.333 -17.5 52c0 18 3 36.167 9 54.5s14.333 35.166 25 50.499s23.667 27.833 39 37.5s32.666 14.5 51.999 14.5c20.667 0 37.167 -6.16699 49.5 -18.5s18.5 -29.833 18.5 -52.5z" />
    <glyph glyph-name="Eth" unicode="&#xd0;" horiz-adv-x="1118" 
d="M1077 745c0 -58.667 -5.66602 -117.834 -16.999 -177.501s-28.333 -117 -51 -172s-50.667 -106.667 -84 -155s-72.166 -90.333 -116.499 -126s-93.833 -63.667 -148.5 -84s-114.334 -30.5 -179.001 -30.5h-481l6 43c42 9.33301 75.667 19.5 101 30.5
s38.666 21.167 39.999 30.5l70 510h-129l-16 25l13 32c4.66699 12 9.66699 23.333 15 34h129l67 488l-153 -17v63c76.667 18.667 152.5 31.834 227.5 39.501s146.833 11.5 215.5 11.5c78 0 147.333 -13 208 -39s112 -62.667 154 -110s74 -104.5 96 -171.5
s33 -141.833 33 -224.5zM504.001 1206h-30c-10 0 -20 -0.333008 -30 -1l-68 -500h232l19 -23l-29 -68h-235l-64 -475c-1.33301 -10 0 -18.333 4 -25s11.667 -12.334 23 -17.001s27.5 -8 48.5 -10s47.833 -3 80.5 -3c49.333 0 94.833 9.33301 136.5 28s79.5 44 113.5 76
s64.167 69.333 90.5 112s48.333 87.834 66 135.501s31 96.5 40 146.5s13.5 98.333 13.5 145c0 71.333 -9 136.333 -27 195s-44.333 109 -79 151s-77.5 74.667 -128.5 98s-109.833 35 -176.5 35z" />
    <glyph glyph-name="Ntilde" unicode="&#xd1;" horiz-adv-x="1239" 
d="M1288 1217c-44 -6.66699 -77.165 -15.833 -99.498 -27.5s-34.166 -23.167 -35.499 -34.5l-164 -1186c-14 2 -26.667 4.33301 -38 7s-21.666 6.66699 -30.999 12s-18 12.5 -26 21.5s-16 20.833 -24 35.5l-497 959l-123 -900c-2 -8 6.33301 -18.333 25 -31
s50.667 -22.667 96 -30l-6 -43h-365l6 43c45.333 6 79.166 15.333 101.499 28s34.166 23.667 35.499 33l146 1050c-17.333 20 -36.333 34.167 -57 42.5s-45.334 15.166 -74.001 20.499l6 43h178c14.667 0 26.167 -0.333008 34.5 -1s15.666 -3.5 21.999 -8.5
s12.333 -12.833 18 -23.5l23.5 -45l484 -924l123 897c0.666992 4 -1 8.83301 -5 14.5s-10.833 11.334 -20.5 17.001s-22.5 11.167 -38.5 16.5s-35.667 10 -59 14l6 43h364zM1083 1613c-14 -26.667 -29.8301 -53.333 -47.4971 -80s-36.834 -50.5 -57.501 -71.5
s-42.834 -38 -66.501 -51s-48.5 -19.5 -74.5 -19.5c-21.333 0 -40.5 5.66699 -57.5 17s-33.333 23.833 -49 37.5s-31.334 26.167 -47.001 37.5s-32.167 17 -49.5 17c-23.333 0 -47 -10.5 -71 -31.5s-50 -50.167 -78 -87.5l-43 21c14 26.667 29.833 53.167 47.5 79.5
s37 50 58 71s43.5 38 67.5 51s48.667 19.5 74 19.5c22 0 42.167 -5.66699 60.5 -17s35.5 -23.833 51.5 -37.5l45 -37.5c14 -11.333 28 -17 42 -17c23.333 0 47.833 10.5 73.5 31.5s51.167 50.167 76.5 87.5z" />
    <glyph glyph-name="Ograve" unicode="&#xd2;" horiz-adv-x="1116" 
d="M936 756c0 56 -6.00098 108.835 -18.001 158.502s-29.667 93 -53 130s-52 66.333 -86 88s-73 32.5 -117 32.5c-50.667 0 -96.167 -9.83301 -136.5 -29.5s-76.166 -45.834 -107.499 -78.501s-58 -70.667 -80 -114s-40.167 -88.333 -54.5 -135
s-24.833 -93.834 -31.5 -141.501s-10 -92.5 -10 -134.5c0 -62 6.5 -119.5 19.5 -172.5s31.5 -98.667 55.5 -137s52.833 -68.333 86.5 -90s71.167 -32.5 112.5 -32.5c51.333 0 97.5 10.333 138.5 31s77 48.167 108 82.5s57.5 74 79.5 119s40 91.833 54 140.5
s24.167 97.5 30.5 146.5s9.5 94.5 9.5 136.5zM1085 774.002c0 -47.333 -3.82812 -95.334 -11.4951 -144.001s-19.334 -96.667 -35.001 -144s-35 -93.166 -58 -137.499s-49.5 -85.5 -79.5 -123.5c-28 -36 -57.833 -69.5 -89.5 -100.5s-65.334 -58 -101.001 -81
s-73.334 -41.167 -113.001 -54.5s-81.834 -20 -126.501 -20c-64 0 -119.833 13.667 -167.5 41s-87.334 64.5 -119.001 111.5s-55.334 101.833 -71.001 164.5s-23.5 129 -23.5 199c0 42 3.83301 86.5 11.5 133.5s18.667 94 33 141s31.833 92.667 52.5 137
s44.334 84.833 71.001 121.5c28 37.333 58.167 72.5 90.5 105.5s67 61.833 104 86.5s76.5 44.167 118.5 58.5s86.667 21.5 134 21.5c65.333 0 122 -13.667 170 -41s87.5 -64.5 118.5 -111.5s54 -101.833 69 -164.5s22.5 -129 22.5 -199zM851.004 1393
c-9.33301 -13.333 -16.832 -23.002 -22.499 -29.002s-13.834 -12 -24.501 -18l-401 244l12 47c6 4.66699 14.333 10.334 25 17.001s22 13.334 34 20.001l35 19l29 15z" />
    <glyph glyph-name="Oacute" unicode="&#xd3;" horiz-adv-x="1116" 
d="M936 756c0 56 -6.00098 108.835 -18.001 158.502s-29.667 93 -53 130s-52 66.333 -86 88s-73 32.5 -117 32.5c-50.667 0 -96.167 -9.83301 -136.5 -29.5s-76.166 -45.834 -107.499 -78.501s-58 -70.667 -80 -114s-40.167 -88.333 -54.5 -135
s-24.833 -93.834 -31.5 -141.501s-10 -92.5 -10 -134.5c0 -62 6.5 -119.5 19.5 -172.5s31.5 -98.667 55.5 -137s52.833 -68.333 86.5 -90s71.167 -32.5 112.5 -32.5c51.333 0 97.5 10.333 138.5 31s77 48.167 108 82.5s57.5 74 79.5 119s40 91.833 54 140.5
s24.167 97.5 30.5 146.5s9.5 94.5 9.5 136.5zM1085 774.002c0 -47.333 -3.82812 -95.334 -11.4951 -144.001s-19.334 -96.667 -35.001 -144s-35 -93.166 -58 -137.499s-49.5 -85.5 -79.5 -123.5c-28 -36 -57.833 -69.5 -89.5 -100.5s-65.334 -58 -101.001 -81
s-73.334 -41.167 -113.001 -54.5s-81.834 -20 -126.501 -20c-64 0 -119.833 13.667 -167.5 41s-87.334 64.5 -119.001 111.5s-55.334 101.833 -71.001 164.5s-23.5 129 -23.5 199c0 42 3.83301 86.5 11.5 133.5s18.667 94 33 141s31.833 92.667 52.5 137
s44.334 84.833 71.001 121.5c28 37.333 58.167 72.5 90.5 105.5s67 61.833 104 86.5s76.5 44.167 118.5 58.5s86.667 21.5 134 21.5c65.333 0 122 -13.667 170 -41s87.5 -64.5 118.5 -111.5s54 -101.833 69 -164.5s22.5 -129 22.5 -199zM1037 1590l-455.002 -243.998
c-9.33301 6 -15.666 12 -18.999 18s-8 15.667 -14 29l391 315l23 -15l27.5 -19c9.66699 -6.66699 18.834 -13.334 27.501 -20.001s15 -12.334 19 -17.001v-47z" />
    <glyph glyph-name="Ocircumflex" unicode="&#xd4;" horiz-adv-x="1116" 
d="M936 756c0 56 -6.00098 108.835 -18.001 158.502s-29.667 93 -53 130s-52 66.333 -86 88s-73 32.5 -117 32.5c-50.667 0 -96.167 -9.83301 -136.5 -29.5s-76.166 -45.834 -107.499 -78.501s-58 -70.667 -80 -114s-40.167 -88.333 -54.5 -135
s-24.833 -93.834 -31.5 -141.501s-10 -92.5 -10 -134.5c0 -62 6.5 -119.5 19.5 -172.5s31.5 -98.667 55.5 -137s52.833 -68.333 86.5 -90s71.167 -32.5 112.5 -32.5c51.333 0 97.5 10.333 138.5 31s77 48.167 108 82.5s57.5 74 79.5 119s40 91.833 54 140.5
s24.167 97.5 30.5 146.5s9.5 94.5 9.5 136.5zM1085 774.002c0 -47.333 -3.82812 -95.334 -11.4951 -144.001s-19.334 -96.667 -35.001 -144s-35 -93.166 -58 -137.499s-49.5 -85.5 -79.5 -123.5c-28 -36 -57.833 -69.5 -89.5 -100.5s-65.334 -58 -101.001 -81
s-73.334 -41.167 -113.001 -54.5s-81.834 -20 -126.501 -20c-64 0 -119.833 13.667 -167.5 41s-87.334 64.5 -119.001 111.5s-55.334 101.833 -71.001 164.5s-23.5 129 -23.5 199c0 42 3.83301 86.5 11.5 133.5s18.667 94 33 141s31.833 92.667 52.5 137
s44.334 84.833 71.001 121.5c28 37.333 58.167 72.5 90.5 105.5s67 61.833 104 86.5s76.5 44.167 118.5 58.5s86.667 21.5 134 21.5c65.333 0 122 -13.667 170 -41s87.5 -64.5 118.5 -111.5s54 -101.833 69 -164.5s22.5 -129 22.5 -199zM988.004 1391
c-9.33301 -13.333 -16.499 -22.999 -21.499 -28.999s-12.833 -11.333 -23.5 -16l-215 205l-266 -205c-6 4 -11.333 9.16699 -16 15.5s-10.334 16.166 -17.001 29.499l275 301h92z" />
    <glyph glyph-name="Otilde" unicode="&#xd5;" horiz-adv-x="1116" 
d="M936 756c0 56 -6.00098 108.835 -18.001 158.502s-29.667 93 -53 130s-52 66.333 -86 88s-73 32.5 -117 32.5c-50.667 0 -96.167 -9.83301 -136.5 -29.5s-76.166 -45.834 -107.499 -78.501s-58 -70.667 -80 -114s-40.167 -88.333 -54.5 -135
s-24.833 -93.834 -31.5 -141.501s-10 -92.5 -10 -134.5c0 -62 6.5 -119.5 19.5 -172.5s31.5 -98.667 55.5 -137s52.833 -68.333 86.5 -90s71.167 -32.5 112.5 -32.5c51.333 0 97.5 10.333 138.5 31s77 48.167 108 82.5s57.5 74 79.5 119s40 91.833 54 140.5
s24.167 97.5 30.5 146.5s9.5 94.5 9.5 136.5zM1085 774.002c0 -47.333 -3.82812 -95.334 -11.4951 -144.001s-19.334 -96.667 -35.001 -144s-35 -93.166 -58 -137.499s-49.5 -85.5 -79.5 -123.5c-28 -36 -57.833 -69.5 -89.5 -100.5s-65.334 -58 -101.001 -81
s-73.334 -41.167 -113.001 -54.5s-81.834 -20 -126.501 -20c-64 0 -119.833 13.667 -167.5 41s-87.334 64.5 -119.001 111.5s-55.334 101.833 -71.001 164.5s-23.5 129 -23.5 199c0 42 3.83301 86.5 11.5 133.5s18.667 94 33 141s31.833 92.667 52.5 137
s44.334 84.833 71.001 121.5c28 37.333 58.167 72.5 90.5 105.5s67 61.833 104 86.5s76.5 44.167 118.5 58.5s86.667 21.5 134 21.5c65.333 0 122 -13.667 170 -41s87.5 -64.5 118.5 -111.5s54 -101.833 69 -164.5s22.5 -129 22.5 -199zM1046 1613
c-14 -26.667 -29.8301 -53.333 -47.4971 -80s-36.834 -50.5 -57.501 -71.5s-42.834 -38 -66.501 -51s-48.5 -19.5 -74.5 -19.5c-21.333 0 -40.5 5.66699 -57.5 17s-33.333 23.833 -49 37.5s-31.334 26.167 -47.001 37.5s-32.167 17 -49.5 17c-23.333 0 -47 -10.5 -71 -31.5
s-50 -50.167 -78 -87.5l-43 21c14 26.667 29.833 53.167 47.5 79.5s37 50 58 71s43.5 38 67.5 51s48.667 19.5 74 19.5c22 0 42.167 -5.66699 60.5 -17s35.5 -23.833 51.5 -37.5l45 -37.5c14 -11.333 28 -17 42 -17c23.333 0 47.833 10.5 73.5 31.5s51.167 50.167 76.5 87.5
z" />
    <glyph glyph-name="Odieresis" unicode="&#xd6;" horiz-adv-x="1116" 
d="M936 756c0 56 -6.00098 108.835 -18.001 158.502s-29.667 93 -53 130s-52 66.333 -86 88s-73 32.5 -117 32.5c-50.667 0 -96.167 -9.83301 -136.5 -29.5s-76.166 -45.834 -107.499 -78.501s-58 -70.667 -80 -114s-40.167 -88.333 -54.5 -135
s-24.833 -93.834 -31.5 -141.501s-10 -92.5 -10 -134.5c0 -62 6.5 -119.5 19.5 -172.5s31.5 -98.667 55.5 -137s52.833 -68.333 86.5 -90s71.167 -32.5 112.5 -32.5c51.333 0 97.5 10.333 138.5 31s77 48.167 108 82.5s57.5 74 79.5 119s40 91.833 54 140.5
s24.167 97.5 30.5 146.5s9.5 94.5 9.5 136.5zM1085 774.002c0 -47.333 -3.82812 -95.334 -11.4951 -144.001s-19.334 -96.667 -35.001 -144s-35 -93.166 -58 -137.499s-49.5 -85.5 -79.5 -123.5c-28 -36 -57.833 -69.5 -89.5 -100.5s-65.334 -58 -101.001 -81
s-73.334 -41.167 -113.001 -54.5s-81.834 -20 -126.501 -20c-64 0 -119.833 13.667 -167.5 41s-87.334 64.5 -119.001 111.5s-55.334 101.833 -71.001 164.5s-23.5 129 -23.5 199c0 42 3.83301 86.5 11.5 133.5s18.667 94 33 141s31.833 92.667 52.5 137
s44.334 84.833 71.001 121.5c28 37.333 58.167 72.5 90.5 105.5s67 61.833 104 86.5s76.5 44.167 118.5 58.5s86.667 21.5 134 21.5c65.333 0 122 -13.667 170 -41s87.5 -64.5 118.5 -111.5s54 -101.833 69 -164.5s22.5 -129 22.5 -199zM635.004 1549
c0 -18.667 -3 -37.166 -9 -55.499s-14.333 -35 -25 -50s-23.834 -27.167 -39.501 -36.5s-32.834 -14 -51.501 -14c-21.333 0 -38 6 -50 18s-18 29.333 -18 52c0 18 3.16699 36.167 9.5 54.5s15 35.166 26 50.499s24.333 27.833 40 37.5s32.834 14.5 51.501 14.5
c20.667 0 36.834 -6.16699 48.501 -18.5s17.5 -29.833 17.5 -52.5zM1008 1549c0 -18.667 -2.99805 -37.166 -8.99805 -55.499s-14.5 -35 -25.5 -50s-24.333 -27.167 -40 -36.5s-33.167 -14 -52.5 -14c-20.667 0 -36.834 6 -48.501 18s-17.5 29.333 -17.5 52
c0 18 3 36.167 9 54.5s14.333 35.166 25 50.499s23.667 27.833 39 37.5s32.666 14.5 51.999 14.5c20.667 0 37.167 -6.16699 49.5 -18.5s18.5 -29.833 18.5 -52.5z" />
    <glyph glyph-name="multiply" unicode="&#xd7;" horiz-adv-x="770" 
d="M65 314l257.002 248l-187 246l5 34c12 6 26.167 11.833 42.5 17.5s31.166 10.167 44.499 13.5l177 -233l242 233c12.667 -3.33301 26.167 -7.83301 40.5 -13.5s27.166 -11.5 38.499 -17.5l-5 -34l-256 -247l188 -247l-5 -34c-12.667 -5.33301 -27.334 -11 -44.001 -17
s-30.667 -10.667 -42 -14l-179 234l-243 -234c-10.667 3.33301 -23.667 8 -39 14s-28.666 11.667 -39.999 17z" />
    <glyph glyph-name="Oslash" unicode="&#xd8;" horiz-adv-x="1116" 
d="M1085 774c0 -47.333 -3.83008 -95.335 -11.4971 -144.002s-19.334 -96.667 -35.001 -144s-35 -93.166 -58 -137.499s-49.5 -85.5 -79.5 -123.5c-28 -36 -57.833 -69.5 -89.5 -100.5s-65.334 -58 -101.001 -81s-73.334 -41.167 -113.001 -54.5s-81.834 -20 -126.501 -20
c-52 0 -98.167 8.83301 -138.5 26.5s-75.833 42.5 -106.5 74.5l-56 -72c-6.66699 -5.33301 -15.334 -10.5 -26.001 -15.5s-22 -9.66699 -34 -14s-23.667 -8.16602 -35 -11.499l-28 -10l-20 33l136 177c-24.667 45.333 -43 95.833 -55 151.5s-18 114.5 -18 176.5
c0 42 3.83301 86.5 11.5 133.5s18.667 94 33 141s31.833 92.667 52.5 137s44.334 84.833 71.001 121.5c28 37.333 58.167 72.5 90.5 105.5s67 61.833 104 86.5s76.5 44.167 118.5 58.5s86.667 21.5 134 21.5c52.667 0 99.5 -8.83301 140.5 -26.5s76.5 -42.5 106.5 -74.5
l58 75c18.667 11.333 38.834 21 60.501 29s41.5 14.667 59.5 20l23 -33l-138 -180c23.333 -45.333 40.833 -95.5 52.5 -150.5s17.5 -113.5 17.5 -175.5zM242.003 531.998c0 -85.333 11.666 -160.331 34.999 -224.998l577 754c-23.333 32 -51 57.333 -83 76
s-68.333 28 -109 28c-50.667 0 -96.167 -9.83301 -136.5 -29.5s-76.166 -45.834 -107.499 -78.501s-58 -70.667 -80 -114s-40.167 -88.333 -54.5 -135s-24.833 -93.834 -31.5 -141.501s-10 -92.5 -10 -134.5zM936.002 756c0 36.667 -2.66699 71.832 -8 105.499
s-13 65.5 -23 95.5l-576 -752c23.333 -33.333 50.833 -59.166 82.5 -77.499s66.5 -27.5 104.5 -27.5c51.333 0 97.5 10.333 138.5 31s77 48.167 108 82.5s57.5 74 79.5 119s40 91.833 54 140.5s24.167 97.5 30.5 146.5s9.5 94.5 9.5 136.5z" />
    <glyph glyph-name="Ugrave" unicode="&#xd9;" horiz-adv-x="1227" 
d="M1280 1217c-42 -9.33301 -74.6582 -19.6699 -97.9912 -31.0029s-35.666 -21.666 -36.999 -30.999l-90 -643c-12 -87.333 -32.333 -164.833 -61 -232.5s-64.334 -124.5 -107.001 -170.5s-91.834 -80.833 -147.501 -104.5s-116.5 -35.5 -182.5 -35.5
c-54.667 0 -104.834 8.33301 -150.501 25s-84.834 41 -117.501 73s-58 71.5 -76 118.5s-27 101.167 -27 162.5c0 35.333 3 73.666 9 114.999l98 692c1.33301 8 -8.33398 18 -29.001 30s-52.667 22.667 -96 32l6 43h410l-6 -43c-42 -9.33301 -75.833 -19.666 -101.5 -30.999
s-39.167 -21.666 -40.5 -30.999l-88 -645c-2.66699 -19.333 -4.33398 -38.666 -5.00098 -57.999s-1 -37.666 -1 -54.999c0 -46.667 5.66699 -89 17 -127s28.166 -70.667 50.499 -98s50.166 -48.5 83.499 -63.5s71.666 -22.5 114.999 -22.5s83.333 10.667 120 32
s69 49.666 97 84.999s51.167 76 69.5 122s30.833 94 37.5 144l92 686c1.33301 8 -7.33398 18 -26.001 30s-49.667 22.667 -93 32l6 43h375zM908.009 1393c-9.33301 -13.333 -16.832 -23.002 -22.499 -29.002s-13.834 -12 -24.501 -18l-401 244l12 47
c6 4.66699 14.333 10.334 25 17.001s22 13.334 34 20.001l35 19l29 15z" />
    <glyph glyph-name="Uacute" unicode="&#xda;" horiz-adv-x="1227" 
d="M1280 1217c-42 -9.33301 -74.6582 -19.6699 -97.9912 -31.0029s-35.666 -21.666 -36.999 -30.999l-90 -643c-12 -87.333 -32.333 -164.833 -61 -232.5s-64.334 -124.5 -107.001 -170.5s-91.834 -80.833 -147.501 -104.5s-116.5 -35.5 -182.5 -35.5
c-54.667 0 -104.834 8.33301 -150.501 25s-84.834 41 -117.501 73s-58 71.5 -76 118.5s-27 101.167 -27 162.5c0 35.333 3 73.666 9 114.999l98 692c1.33301 8 -8.33398 18 -29.001 30s-52.667 22.667 -96 32l6 43h410l-6 -43c-42 -9.33301 -75.833 -19.666 -101.5 -30.999
s-39.167 -21.666 -40.5 -30.999l-88 -645c-2.66699 -19.333 -4.33398 -38.666 -5.00098 -57.999s-1 -37.666 -1 -54.999c0 -46.667 5.66699 -89 17 -127s28.166 -70.667 50.499 -98s50.166 -48.5 83.499 -63.5s71.666 -22.5 114.999 -22.5s83.333 10.667 120 32
s69 49.666 97 84.999s51.167 76 69.5 122s30.833 94 37.5 144l92 686c1.33301 8 -7.33398 18 -26.001 30s-49.667 22.667 -93 32l6 43h375zM1094.01 1590l-455.002 -243.998c-9.33301 6 -15.666 12 -18.999 18s-8 15.667 -14 29l391 315l23 -15l27.5 -19
c9.66699 -6.66699 18.834 -13.334 27.501 -20.001s15 -12.334 19 -17.001v-47z" />
    <glyph glyph-name="Ucircumflex" unicode="&#xdb;" horiz-adv-x="1227" 
d="M1280 1217c-42 -9.33301 -74.6582 -19.6699 -97.9912 -31.0029s-35.666 -21.666 -36.999 -30.999l-90 -643c-12 -87.333 -32.333 -164.833 -61 -232.5s-64.334 -124.5 -107.001 -170.5s-91.834 -80.833 -147.501 -104.5s-116.5 -35.5 -182.5 -35.5
c-54.667 0 -104.834 8.33301 -150.501 25s-84.834 41 -117.501 73s-58 71.5 -76 118.5s-27 101.167 -27 162.5c0 35.333 3 73.666 9 114.999l98 692c1.33301 8 -8.33398 18 -29.001 30s-52.667 22.667 -96 32l6 43h410l-6 -43c-42 -9.33301 -75.833 -19.666 -101.5 -30.999
s-39.167 -21.666 -40.5 -30.999l-88 -645c-2.66699 -19.333 -4.33398 -38.666 -5.00098 -57.999s-1 -37.666 -1 -54.999c0 -46.667 5.66699 -89 17 -127s28.166 -70.667 50.499 -98s50.166 -48.5 83.499 -63.5s71.666 -22.5 114.999 -22.5s83.333 10.667 120 32
s69 49.666 97 84.999s51.167 76 69.5 122s30.833 94 37.5 144l92 686c1.33301 8 -7.33398 18 -26.001 30s-49.667 22.667 -93 32l6 43h375zM1045.01 1391c-9.33301 -13.333 -16.499 -22.999 -21.499 -28.999s-12.833 -11.333 -23.5 -16l-215 205l-266 -205
c-6 4 -11.333 9.16699 -16 15.5s-10.334 16.166 -17.001 29.499l275 301h92z" />
    <glyph glyph-name="Udieresis" unicode="&#xdc;" horiz-adv-x="1227" 
d="M1280 1217c-42 -9.33301 -74.6582 -19.6699 -97.9912 -31.0029s-35.666 -21.666 -36.999 -30.999l-90 -643c-12 -87.333 -32.333 -164.833 -61 -232.5s-64.334 -124.5 -107.001 -170.5s-91.834 -80.833 -147.501 -104.5s-116.5 -35.5 -182.5 -35.5
c-54.667 0 -104.834 8.33301 -150.501 25s-84.834 41 -117.501 73s-58 71.5 -76 118.5s-27 101.167 -27 162.5c0 35.333 3 73.666 9 114.999l98 692c1.33301 8 -8.33398 18 -29.001 30s-52.667 22.667 -96 32l6 43h410l-6 -43c-42 -9.33301 -75.833 -19.666 -101.5 -30.999
s-39.167 -21.666 -40.5 -30.999l-88 -645c-2.66699 -19.333 -4.33398 -38.666 -5.00098 -57.999s-1 -37.666 -1 -54.999c0 -46.667 5.66699 -89 17 -127s28.166 -70.667 50.499 -98s50.166 -48.5 83.499 -63.5s71.666 -22.5 114.999 -22.5s83.333 10.667 120 32
s69 49.666 97 84.999s51.167 76 69.5 122s30.833 94 37.5 144l92 686c1.33301 8 -7.33398 18 -26.001 30s-49.667 22.667 -93 32l6 43h375zM692.009 1549c0 -18.667 -3 -37.166 -9 -55.499s-14.333 -35 -25 -50s-23.834 -27.167 -39.501 -36.5s-32.834 -14 -51.501 -14
c-21.333 0 -38 6 -50 18s-18 29.333 -18 52c0 18 3.16699 36.167 9.5 54.5s15 35.166 26 50.499s24.333 27.833 40 37.5s32.834 14.5 51.501 14.5c20.667 0 36.834 -6.16699 48.501 -18.5s17.5 -29.833 17.5 -52.5zM1065.01 1549
c0 -18.667 -2.99805 -37.166 -8.99805 -55.499s-14.5 -35 -25.5 -50s-24.333 -27.167 -40 -36.5s-33.167 -14 -52.5 -14c-20.667 0 -36.834 6 -48.501 18s-17.5 29.333 -17.5 52c0 18 3 36.167 9 54.5s14.333 35.166 25 50.499s23.667 27.833 39 37.5
s32.666 14.5 51.999 14.5c20.667 0 37.167 -6.16699 49.5 -18.5s18.5 -29.833 18.5 -52.5z" />
    <glyph glyph-name="Yacute" unicode="&#xdd;" horiz-adv-x="1145" 
d="M733 0l-445.997 0.000976562l6 43c58 12.667 98.833 25.5 122.5 38.5s36.167 24.167 37.5 33.5l59 436c-12 48.667 -27.667 101.167 -47 157.5s-40.5 112 -63.5 167s-46.667 107 -71 156s-47.833 90.167 -70.5 123.5c-6.66699 10 -13.834 18 -21.501 24
s-17 10.5 -28 13.5s-24.5 4.33301 -40.5 4s-35.667 -1.83301 -59 -4.5l-9 43c18 4.66699 37.833 9.33398 59.5 14.001s43.167 9 64.5 13s41.5 7.33301 60.5 10s34.833 4 47.5 4c17.333 0 34.333 -13 51 -39c14.667 -22 30 -48 46 -78s32.167 -62.167 48.5 -96.5
s32 -69.333 47 -105s29 -70.667 42 -105s24.333 -66.5 34 -96.5s17.167 -56 22.5 -78l309 473c11.333 18.667 9.5 32.667 -5.5 42s-45.167 17.333 -90.5 24l6 43h360l-6 -43c-42 -8.66699 -74.833 -17.5 -98.5 -26.5s-41.167 -22.167 -52.5 -39.5l-390 -609l-59 -427
c-0.666992 -4 1.16602 -8.83301 5.49902 -14.5s12 -11.834 23 -18.501s25.667 -13.334 44 -20.001s41.166 -13 68.499 -19zM1024 1590l-455.002 -243.998c-9.33301 6 -15.666 12 -18.999 18s-8 15.667 -14 29l391 315l23 -15l27.5 -19
c9.66699 -6.66699 18.834 -13.334 27.501 -20.001s15 -12.334 19 -17.001v-47z" />
    <glyph glyph-name="Thorn" unicode="&#xde;" horiz-adv-x="965" 
d="M604 1217c-31.333 -6 -57.4912 -11.6641 -78.4912 -16.9971s-37.833 -10.5 -50.5 -15.5s-21.834 -10 -27.501 -15s-8.83398 -9.83301 -9.50098 -14.5l-20 -146c42.667 7.33301 89 11 139 11c59.333 0 112.666 -7.83301 159.999 -23.5s87.333 -37.834 120 -66.501
s57.667 -63.334 75 -104.001s26 -86 26 -136c0 -58 -11 -112.833 -33 -164.5s-52.167 -96.834 -90.5 -135.501s-83.5 -69.334 -135.5 -92.001s-107.667 -34 -167 -34c-28 0 -53.833 2.66699 -77.5 8s-44.834 13.666 -63.501 24.999l-11 74c24 -12.667 47.333 -20.667 70 -24
s44.667 -5 66 -5c45.333 0 86.5 8 123.5 24s68.667 37.833 95 65.5s46.666 60.334 60.999 98.001s21.5 78.167 21.5 121.5c0 46 -7.66699 86.833 -23 122.5s-36.5 65.667 -63.5 90s-58.833 42.833 -95.5 55.5s-76.334 19 -119.001 19c-15.333 0 -30.333 -0.833008 -45 -2.5
s-29.334 -4.16699 -44.001 -7.5l-112 -824c-1.33301 -4 0 -8.33301 4 -13s11.667 -9.66699 23 -15s26.666 -10.666 45.999 -15.999s44 -11 74 -17l-6 -43h-432l6 43c42 9.33301 75.5 19.5 100.5 30.5s38.167 21.167 39.5 30.5l145 1051c1.33301 8 -8.33398 18 -29.001 30
s-52 22.667 -94 32l6 43h432z" />
    <glyph glyph-name="germandbls" unicode="&#xdf;" horiz-adv-x="999" 
d="M940 1225c0 -59.333 -8.66309 -108.5 -25.9961 -147.5s-39.166 -71.667 -65.499 -98s-54.833 -48.333 -85.5 -66s-59.167 -35 -85.5 -52s-48.166 -35.333 -65.499 -55s-26 -44.834 -26 -75.501c0 -24 8.33301 -45.333 25 -64s37.5 -36.667 62.5 -54
s52.167 -35.166 81.5 -53.499s56.5 -39 81.5 -62s45.833 -49.5 62.5 -79.5s25 -65.667 25 -107s-7.83301 -82.833 -23.5 -124.5s-38.334 -79.334 -68.001 -113.001s-66.334 -61.167 -110.001 -82.5s-93.5 -32 -149.5 -32c-28 0 -55.833 4.83301 -83.5 14.5
s-52.334 21.667 -74.001 36s-39.334 30 -53.001 47s-20.5 32.833 -20.5 47.5c0 6.66699 3.83301 16.667 11.5 30s16.834 26.5 27.501 39.5s21.667 24.5 33 34.5s20.666 15 27.999 15c4 0 8.16699 -4.16699 12.5 -12.5l15.5 -30.5c6 -12 13.167 -25.333 21.5 -40
s18.333 -28 30 -40s25.667 -22.167 42 -30.5s35.5 -12.5 57.5 -12.5c53.333 0 94.5 15.167 123.5 45.5s43.5 73.833 43.5 130.5c0 40.667 -8.16699 74.667 -24.5 102s-36.833 51.166 -61.5 71.499s-51.5 38.833 -80.5 55.5s-55.833 34.334 -80.5 53.001s-45.167 40 -61.5 64
s-24.5 53.667 -24.5 89c0 39.333 5 72.666 15 99.999s23 50.833 39 70.5s34.333 36.5 55 50.5s41.667 27.167 63 39.5l63 37.5c20.667 12.667 39 27.334 55 44.001s29 36.334 39 59.001s15 50.667 15 84c0 30 -3.66699 59.5 -11 88.5s-18.833 55 -34.5 78
s-35.834 41.667 -60.501 56s-54.334 21.5 -89.001 21.5c-37.333 0 -71.166 -12.833 -101.499 -38.5s-57 -59.334 -80 -101.001s-42 -89.167 -57 -142.5s-25.5 -107.666 -31.5 -162.999l-88 -759c-8.66699 -74 -23.5 -145.167 -44.5 -213.5s-47.333 -132 -79 -191
s-68.167 -111.833 -109.5 -158.5s-86.666 -85 -135.999 -115l-27 63c33.333 18.667 63.666 48 90.999 88s51.166 86 71.499 138s37.166 107.167 50.499 165.5s23 114.833 29 169.5l88 760c6.66699 54.667 16.667 107 30 157s31 97.167 53 141.5s48.5 85.5 79.5 123.5
s67.833 72.667 110.5 104c18 14.667 36.5 27.667 55.5 39s38 21 57 29s37.333 14.167 55 18.5s34.167 6.5 49.5 6.5c42.667 0 80.834 -8.66699 114.501 -26s62 -40 85 -68s40.5 -59.5 52.5 -94.5s18 -69.833 18 -104.5z" />
    <glyph glyph-name="agrave" unicode="&#xe0;" 
d="M603 431c4.66699 30 9.83301 61.1709 15.5 93.5039l17 93.5l15 82.5l10.5 59.5c-10 8 -21 16.167 -33 24.5s-24.833 16 -38.5 23s-28 12.667 -43 17s-30.5 6.5 -46.5 6.5c-30.667 0 -59.5 -7.5 -86.5 -22.5s-52 -34.833 -75 -59.5s-43.667 -52.834 -62 -84.501
s-33.833 -64.334 -46.5 -98.001s-22.5 -66.834 -29.5 -99.501s-10.5 -62 -10.5 -88c0 -43.333 3.66699 -82.333 11 -117s17.333 -64.334 30 -89.001s27.667 -43.667 45 -57s36 -20 56 -20c16 0 35.5 10.167 58.5 30.5s47 46.666 72 78.999s49.833 68.333 74.5 108
s46.667 78.834 66 117.501zM900.999 68.0039c-58 -38 -104.834 -65.6719 -140.501 -83.0049s-63.167 -26 -82.5 -26c-12 0 -23.5 4.16699 -34.5 12.5s-20.833 24 -29.5 47s-15.5 54.833 -20.5 95.5s-7.5 93.334 -7.5 158.001c-17.333 -30.667 -38.5 -64.167 -63.5 -100.5
s-51.833 -70.333 -80.5 -102s-58.167 -58 -88.5 -79s-59.5 -31.5 -87.5 -31.5c-22 0 -45.5 6.33301 -70.5 19s-48 32.834 -69 60.501s-38.5 63.334 -52.5 107.001s-21 96.834 -21 159.501c0 52.667 6.16699 104.167 18.5 154.5s30.833 98.5 55.5 144.5
s54.834 89.167 90.501 129.5s77.167 76.5 124.5 108.5c18 12 37.833 23.667 59.5 35s44 21.333 67 30s45.833 15.667 68.5 21s44.334 8 65.001 8c14 0 27.667 -1.83301 41 -5.5s26.333 -8.5 39 -14.5s24.667 -12.5 36 -19.5l32 -20.5c15.333 11.333 31.666 22 48.999 32
s35 19.333 53 28l20 -35c-11.333 -9.33301 -20.666 -17.666 -27.999 -24.999s-13.833 -15.833 -19.5 -25.5s-10.5 -21.5 -14.5 -35.5s-8.33301 -32.333 -13 -55c-10 -48 -19.5 -97.167 -28.5 -147.5s-16.667 -97.833 -23 -142.5s-11.333 -84 -15 -118s-5.5 -58.333 -5.5 -73
c0 -38 1.16699 -70 3.5 -96s5.5 -46.833 9.5 -62.5s9 -27 15 -34s13 -10.5 21 -10.5c13.333 0 29.166 1.83301 47.499 5.5s40.833 11.167 67.5 22.5zM619.998 1047c-13.333 -8 -24.002 -13.3311 -32.002 -15.998s-18 -4.33398 -30 -5.00098l-250 386l32 36
c8 1.33301 18.167 2.66602 30.5 3.99902s25.333 2.5 39 3.5s26.834 1.83301 39.501 2.5s23.334 1 32.001 1z" />
    <glyph glyph-name="aacute" unicode="&#xe1;" 
d="M603 431c4.66699 30 9.83301 61.1709 15.5 93.5039l17 93.5l15 82.5l10.5 59.5c-10 8 -21 16.167 -33 24.5s-24.833 16 -38.5 23s-28 12.667 -43 17s-30.5 6.5 -46.5 6.5c-30.667 0 -59.5 -7.5 -86.5 -22.5s-52 -34.833 -75 -59.5s-43.667 -52.834 -62 -84.501
s-33.833 -64.334 -46.5 -98.001s-22.5 -66.834 -29.5 -99.501s-10.5 -62 -10.5 -88c0 -43.333 3.66699 -82.333 11 -117s17.333 -64.334 30 -89.001s27.667 -43.667 45 -57s36 -20 56 -20c16 0 35.5 10.167 58.5 30.5s47 46.666 72 78.999s49.833 68.333 74.5 108
s46.667 78.834 66 117.501zM900.999 68.0039c-58 -38 -104.834 -65.6719 -140.501 -83.0049s-63.167 -26 -82.5 -26c-12 0 -23.5 4.16699 -34.5 12.5s-20.833 24 -29.5 47s-15.5 54.833 -20.5 95.5s-7.5 93.334 -7.5 158.001c-17.333 -30.667 -38.5 -64.167 -63.5 -100.5
s-51.833 -70.333 -80.5 -102s-58.167 -58 -88.5 -79s-59.5 -31.5 -87.5 -31.5c-22 0 -45.5 6.33301 -70.5 19s-48 32.834 -69 60.501s-38.5 63.334 -52.5 107.001s-21 96.834 -21 159.501c0 52.667 6.16699 104.167 18.5 154.5s30.833 98.5 55.5 144.5
s54.834 89.167 90.501 129.5s77.167 76.5 124.5 108.5c18 12 37.833 23.667 59.5 35s44 21.333 67 30s45.833 15.667 68.5 21s44.334 8 65.001 8c14 0 27.667 -1.83301 41 -5.5s26.333 -8.5 39 -14.5s24.667 -12.5 36 -19.5l32 -20.5c15.333 11.333 31.666 22 48.999 32
s35 19.333 53 28l20 -35c-11.333 -9.33301 -20.666 -17.666 -27.999 -24.999s-13.833 -15.833 -19.5 -25.5s-10.5 -21.5 -14.5 -35.5s-8.33301 -32.333 -13 -55c-10 -48 -19.5 -97.167 -28.5 -147.5s-16.667 -97.833 -23 -142.5s-11.333 -84 -15 -118s-5.5 -58.333 -5.5 -73
c0 -38 1.16699 -70 3.5 -96s5.5 -46.833 9.5 -62.5s9 -27 15 -34s13 -10.5 21 -10.5c13.333 0 29.166 1.83301 47.499 5.5s40.833 11.167 67.5 22.5zM894.998 1374l-354.999 -348.001c-10.667 2.66699 -18.5 6.33398 -23.5 11.001s-12.167 12.667 -21.5 24l272 398
l25.5 -7.5c10.333 -3 21.166 -6.33301 32.499 -10s22 -7.5 32 -11.5s17.667 -7.66699 23 -11z" />
    <glyph glyph-name="acircumflex" unicode="&#xe2;" 
d="M603 431c4.66699 30 9.83301 61.1709 15.5 93.5039l17 93.5l15 82.5l10.5 59.5c-10 8 -21 16.167 -33 24.5s-24.833 16 -38.5 23s-28 12.667 -43 17s-30.5 6.5 -46.5 6.5c-30.667 0 -59.5 -7.5 -86.5 -22.5s-52 -34.833 -75 -59.5s-43.667 -52.834 -62 -84.501
s-33.833 -64.334 -46.5 -98.001s-22.5 -66.834 -29.5 -99.501s-10.5 -62 -10.5 -88c0 -43.333 3.66699 -82.333 11 -117s17.333 -64.334 30 -89.001s27.667 -43.667 45 -57s36 -20 56 -20c16 0 35.5 10.167 58.5 30.5s47 46.666 72 78.999s49.833 68.333 74.5 108
s46.667 78.834 66 117.501zM900.999 68.0039c-58 -38 -104.834 -65.6719 -140.501 -83.0049s-63.167 -26 -82.5 -26c-12 0 -23.5 4.16699 -34.5 12.5s-20.833 24 -29.5 47s-15.5 54.833 -20.5 95.5s-7.5 93.334 -7.5 158.001c-17.333 -30.667 -38.5 -64.167 -63.5 -100.5
s-51.833 -70.333 -80.5 -102s-58.167 -58 -88.5 -79s-59.5 -31.5 -87.5 -31.5c-22 0 -45.5 6.33301 -70.5 19s-48 32.834 -69 60.501s-38.5 63.334 -52.5 107.001s-21 96.834 -21 159.501c0 52.667 6.16699 104.167 18.5 154.5s30.833 98.5 55.5 144.5
s54.834 89.167 90.501 129.5s77.167 76.5 124.5 108.5c18 12 37.833 23.667 59.5 35s44 21.333 67 30s45.833 15.667 68.5 21s44.334 8 65.001 8c14 0 27.667 -1.83301 41 -5.5s26.333 -8.5 39 -14.5s24.667 -12.5 36 -19.5l32 -20.5c15.333 11.333 31.666 22 48.999 32
s35 19.333 53 28l20 -35c-11.333 -9.33301 -20.666 -17.666 -27.999 -24.999s-13.833 -15.833 -19.5 -25.5s-10.5 -21.5 -14.5 -35.5s-8.33301 -32.333 -13 -55c-10 -48 -19.5 -97.167 -28.5 -147.5s-16.667 -97.833 -23 -142.5s-11.333 -84 -15 -118s-5.5 -58.333 -5.5 -73
c0 -38 1.16699 -70 3.5 -96s5.5 -46.833 9.5 -62.5s9 -27 15 -34s13 -10.5 21 -10.5c13.333 0 29.166 1.83301 47.499 5.5s40.833 11.167 67.5 22.5zM840.998 1071c-9.33301 -13.333 -16.499 -22.999 -21.499 -28.999s-12.833 -11.333 -23.5 -16l-208 265l-273 -265
c-6 4 -11.333 9.16699 -16 15.5s-10.334 16.166 -17.001 29.499l284 371h92z" />
    <glyph glyph-name="atilde" unicode="&#xe3;" 
d="M603 431c4.66699 30 9.83301 61.1709 15.5 93.5039l17 93.5l15 82.5l10.5 59.5c-10 8 -21 16.167 -33 24.5s-24.833 16 -38.5 23s-28 12.667 -43 17s-30.5 6.5 -46.5 6.5c-30.667 0 -59.5 -7.5 -86.5 -22.5s-52 -34.833 -75 -59.5s-43.667 -52.834 -62 -84.501
s-33.833 -64.334 -46.5 -98.001s-22.5 -66.834 -29.5 -99.501s-10.5 -62 -10.5 -88c0 -43.333 3.66699 -82.333 11 -117s17.333 -64.334 30 -89.001s27.667 -43.667 45 -57s36 -20 56 -20c16 0 35.5 10.167 58.5 30.5s47 46.666 72 78.999s49.833 68.333 74.5 108
s46.667 78.834 66 117.501zM900.999 68.0039c-58 -38 -104.834 -65.6719 -140.501 -83.0049s-63.167 -26 -82.5 -26c-12 0 -23.5 4.16699 -34.5 12.5s-20.833 24 -29.5 47s-15.5 54.833 -20.5 95.5s-7.5 93.334 -7.5 158.001c-17.333 -30.667 -38.5 -64.167 -63.5 -100.5
s-51.833 -70.333 -80.5 -102s-58.167 -58 -88.5 -79s-59.5 -31.5 -87.5 -31.5c-22 0 -45.5 6.33301 -70.5 19s-48 32.834 -69 60.501s-38.5 63.334 -52.5 107.001s-21 96.834 -21 159.501c0 52.667 6.16699 104.167 18.5 154.5s30.833 98.5 55.5 144.5
s54.834 89.167 90.501 129.5s77.167 76.5 124.5 108.5c18 12 37.833 23.667 59.5 35s44 21.333 67 30s45.833 15.667 68.5 21s44.334 8 65.001 8c14 0 27.667 -1.83301 41 -5.5s26.333 -8.5 39 -14.5s24.667 -12.5 36 -19.5l32 -20.5c15.333 11.333 31.666 22 48.999 32
s35 19.333 53 28l20 -35c-11.333 -9.33301 -20.666 -17.666 -27.999 -24.999s-13.833 -15.833 -19.5 -25.5s-10.5 -21.5 -14.5 -35.5s-8.33301 -32.333 -13 -55c-10 -48 -19.5 -97.167 -28.5 -147.5s-16.667 -97.833 -23 -142.5s-11.333 -84 -15 -118s-5.5 -58.333 -5.5 -73
c0 -38 1.16699 -70 3.5 -96s5.5 -46.833 9.5 -62.5s9 -27 15 -34s13 -10.5 21 -10.5c13.333 0 29.166 1.83301 47.499 5.5s40.833 11.167 67.5 22.5zM900.998 1326c-14 -26.667 -29.8301 -53.333 -47.4971 -80s-36.834 -50.5 -57.501 -71.5s-42.834 -38 -66.501 -51
s-48.5 -19.5 -74.5 -19.5c-21.333 0 -40.5 5.66699 -57.5 17s-33.333 23.833 -49 37.5s-31.334 26.167 -47.001 37.5s-32.167 17 -49.5 17c-23.333 0 -47 -10.5 -71 -31.5s-50 -50.167 -78 -87.5l-43 21c14 26.667 29.833 53.167 47.5 79.5s37 50 58 71s43.5 38 67.5 51
s48.667 19.5 74 19.5c22 0 42.167 -5.66699 60.5 -17s35.5 -23.833 51.5 -37.5l45 -37.5c14 -11.333 28 -17 42 -17c23.333 0 47.833 10.5 73.5 31.5s51.167 50.167 76.5 87.5z" />
    <glyph glyph-name="adieresis" unicode="&#xe4;" 
d="M603 431c4.66699 30 9.83301 61.1709 15.5 93.5039l17 93.5l15 82.5l10.5 59.5c-10 8 -21 16.167 -33 24.5s-24.833 16 -38.5 23s-28 12.667 -43 17s-30.5 6.5 -46.5 6.5c-30.667 0 -59.5 -7.5 -86.5 -22.5s-52 -34.833 -75 -59.5s-43.667 -52.834 -62 -84.501
s-33.833 -64.334 -46.5 -98.001s-22.5 -66.834 -29.5 -99.501s-10.5 -62 -10.5 -88c0 -43.333 3.66699 -82.333 11 -117s17.333 -64.334 30 -89.001s27.667 -43.667 45 -57s36 -20 56 -20c16 0 35.5 10.167 58.5 30.5s47 46.666 72 78.999s49.833 68.333 74.5 108
s46.667 78.834 66 117.501zM900.999 68.0039c-58 -38 -104.834 -65.6719 -140.501 -83.0049s-63.167 -26 -82.5 -26c-12 0 -23.5 4.16699 -34.5 12.5s-20.833 24 -29.5 47s-15.5 54.833 -20.5 95.5s-7.5 93.334 -7.5 158.001c-17.333 -30.667 -38.5 -64.167 -63.5 -100.5
s-51.833 -70.333 -80.5 -102s-58.167 -58 -88.5 -79s-59.5 -31.5 -87.5 -31.5c-22 0 -45.5 6.33301 -70.5 19s-48 32.834 -69 60.501s-38.5 63.334 -52.5 107.001s-21 96.834 -21 159.501c0 52.667 6.16699 104.167 18.5 154.5s30.833 98.5 55.5 144.5
s54.834 89.167 90.501 129.5s77.167 76.5 124.5 108.5c18 12 37.833 23.667 59.5 35s44 21.333 67 30s45.833 15.667 68.5 21s44.334 8 65.001 8c14 0 27.667 -1.83301 41 -5.5s26.333 -8.5 39 -14.5s24.667 -12.5 36 -19.5l32 -20.5c15.333 11.333 31.666 22 48.999 32
s35 19.333 53 28l20 -35c-11.333 -9.33301 -20.666 -17.666 -27.999 -24.999s-13.833 -15.833 -19.5 -25.5s-10.5 -21.5 -14.5 -35.5s-8.33301 -32.333 -13 -55c-10 -48 -19.5 -97.167 -28.5 -147.5s-16.667 -97.833 -23 -142.5s-11.333 -84 -15 -118s-5.5 -58.333 -5.5 -73
c0 -38 1.16699 -70 3.5 -96s5.5 -46.833 9.5 -62.5s9 -27 15 -34s13 -10.5 21 -10.5c13.333 0 29.166 1.83301 47.499 5.5s40.833 11.167 67.5 22.5zM489.998 1262c0 -18.667 -3 -37.166 -9 -55.499s-14.333 -35 -25 -50s-23.834 -27.167 -39.501 -36.5
s-32.834 -14 -51.501 -14c-21.333 0 -38 6 -50 18s-18 29.333 -18 52c0 18 3.16699 36.167 9.5 54.5s15 35.166 26 50.499s24.333 27.833 40 37.5s32.834 14.5 51.501 14.5c20.667 0 36.834 -6.16699 48.501 -18.5s17.5 -29.833 17.5 -52.5zM862.998 1262
c0 -18.667 -2.99805 -37.166 -8.99805 -55.499s-14.5 -35 -25.5 -50s-24.333 -27.167 -40 -36.5s-33.167 -14 -52.5 -14c-20.667 0 -36.834 6 -48.501 18s-17.5 29.333 -17.5 52c0 18 3 36.167 9 54.5s14.333 35.166 25 50.499s23.667 27.833 39 37.5
s32.666 14.5 51.999 14.5c20.667 0 37.167 -6.16699 49.5 -18.5s18.5 -29.833 18.5 -52.5z" />
    <glyph glyph-name="aring" unicode="&#xe5;" 
d="M603 431c4.66699 30 9.83301 61.1709 15.5 93.5039l17 93.5l15 82.5l10.5 59.5c-10 8 -21 16.167 -33 24.5s-24.833 16 -38.5 23s-28 12.667 -43 17s-30.5 6.5 -46.5 6.5c-30.667 0 -59.5 -7.5 -86.5 -22.5s-52 -34.833 -75 -59.5s-43.667 -52.834 -62 -84.501
s-33.833 -64.334 -46.5 -98.001s-22.5 -66.834 -29.5 -99.501s-10.5 -62 -10.5 -88c0 -43.333 3.66699 -82.333 11 -117s17.333 -64.334 30 -89.001s27.667 -43.667 45 -57s36 -20 56 -20c16 0 35.5 10.167 58.5 30.5s47 46.666 72 78.999s49.833 68.333 74.5 108
s46.667 78.834 66 117.501zM900.999 68.0039c-58 -38 -104.834 -65.6719 -140.501 -83.0049s-63.167 -26 -82.5 -26c-12 0 -23.5 4.16699 -34.5 12.5s-20.833 24 -29.5 47s-15.5 54.833 -20.5 95.5s-7.5 93.334 -7.5 158.001c-17.333 -30.667 -38.5 -64.167 -63.5 -100.5
s-51.833 -70.333 -80.5 -102s-58.167 -58 -88.5 -79s-59.5 -31.5 -87.5 -31.5c-22 0 -45.5 6.33301 -70.5 19s-48 32.834 -69 60.501s-38.5 63.334 -52.5 107.001s-21 96.834 -21 159.501c0 52.667 6.16699 104.167 18.5 154.5s30.833 98.5 55.5 144.5
s54.834 89.167 90.501 129.5s77.167 76.5 124.5 108.5c18 12 37.833 23.667 59.5 35s44 21.333 67 30s45.833 15.667 68.5 21s44.334 8 65.001 8c14 0 27.667 -1.83301 41 -5.5s26.333 -8.5 39 -14.5s24.667 -12.5 36 -19.5l32 -20.5c15.333 11.333 31.666 22 48.999 32
s35 19.333 53 28l20 -35c-11.333 -9.33301 -20.666 -17.666 -27.999 -24.999s-13.833 -15.833 -19.5 -25.5s-10.5 -21.5 -14.5 -35.5s-8.33301 -32.333 -13 -55c-10 -48 -19.5 -97.167 -28.5 -147.5s-16.667 -97.833 -23 -142.5s-11.333 -84 -15 -118s-5.5 -58.333 -5.5 -73
c0 -38 1.16699 -70 3.5 -96s5.5 -46.833 9.5 -62.5s9 -27 15 -34s13 -10.5 21 -10.5c13.333 0 29.166 1.83301 47.499 5.5s40.833 11.167 67.5 22.5zM665.998 1243c0 23.333 -4.99902 44.1689 -14.999 62.502s-25.333 27.5 -46 27.5c-18.667 0 -35 -4.33301 -49 -13
s-25.833 -19.834 -35.5 -33.501s-16.834 -28.834 -21.501 -45.501s-7 -33 -7 -49c0 -24.667 5.5 -46.167 16.5 -64.5s26.833 -27.5 47.5 -27.5c18 0 33.833 4.5 47.5 13.5s25.167 20.333 34.5 34s16.333 29 21 46s7 33.5 7 49.5zM749.999 1280
c0 -27.333 -5.82812 -55.835 -17.4951 -85.502s-27.667 -57 -48 -82s-44 -45.667 -71 -62s-55.833 -24.5 -86.5 -24.5c-17.333 0 -33.333 3.33301 -48 10s-27.334 15.667 -38.001 27s-18.834 24.333 -24.501 39s-8.5 30.334 -8.5 47.001c0 30 5.83301 60.333 17.5 91
s27.667 58.5 48 83.5s44.166 45.5 71.499 61.5s56.666 24 87.999 24c35.333 0 63.666 -12.167 84.999 -36.5s32 -55.166 32 -92.499z" />
    <glyph glyph-name="ae" unicode="&#xe6;" horiz-adv-x="1325" 
d="M911 782c-22 -20 -43.499 -44.3369 -64.499 -73.0039s-40 -59.667 -57 -93s-31.167 -68.166 -42.5 -104.499s-18.333 -72.166 -21 -107.499c87.333 34 156.5 64.833 207.5 92.5s89.5 53.834 115.5 78.501s42.667 48.334 50 71.001s11 45.667 11 69
c0 20.667 -2.66699 38.5 -8 53.5s-12.333 27 -21 36s-18.5 15.667 -29.5 20s-22.167 6.5 -33.5 6.5c-10.667 0 -26.334 -3.83301 -47.001 -11.5s-40.667 -20.167 -60 -37.5zM599.001 442.996l14.499 94.0039l14.5 93l12.5 78.5c3.66699 23 6.5 40.167 8.5 51.5v2
c-10 8 -21 16 -33 24s-24.667 15.333 -38 22s-27.5 12.167 -42.5 16.5s-30.5 6.5 -46.5 6.5c-30.667 0 -59.167 -7.5 -85.5 -22.5s-50.666 -34.833 -72.999 -59.5s-42.166 -52.834 -59.499 -84.501s-32 -64.334 -44 -98.001s-21.167 -66.834 -27.5 -99.501
s-9.5 -62 -9.5 -88c0 -43.333 3.5 -82.333 10.5 -117s16.5 -64.334 28.5 -89.001s26.333 -43.667 43 -57s34.667 -20 54 -20c16 0 35.667 10.667 59 32s47.666 48.833 72.999 82.5s50.333 71 75 112s46.667 81.167 66 120.5zM862 901
c-10 -8 -18.5059 -15.502 -25.5059 -22.502s-13 -14.5 -18 -22.5s-9.66699 -17.333 -14 -28s-8.5 -24.334 -12.5 -41.001c21.333 20.667 44 40.334 68 59.001c16 12 33.833 23.5 53.5 34.5s40 20.667 61 29s42.333 14.833 64 19.5s42.834 7 63.501 7
c28.667 0 53.5 -5.16699 74.5 -15.5s38.5 -23.833 52.5 -40.5s24.333 -35.5 31 -56.5s10 -42.167 10 -63.5c0 -18.667 -2.16699 -38.334 -6.5 -59.001s-13.333 -42 -27 -64s-32.667 -45 -57 -69s-56.666 -48.833 -96.999 -74.5s-89.5 -52.334 -147.5 -80.001
s-127.333 -56.5 -208 -86.5c4 -37.333 11.833 -71.333 23.5 -102s25.334 -57 41.001 -79s32.667 -39.167 51 -51.5s36.5 -18.5 54.5 -18.5c14 0 31 1.5 51 4.5s43.167 9.5 69.5 19.5s56 24.667 89 44s69.833 45 110.5 77c7.33301 -4 13.333 -10.5 18 -19.5
s8.66699 -16.167 12 -21.5c-55.333 -47.333 -103.833 -85.5 -145.5 -114.5s-79 -51.333 -112 -67s-62.667 -26.167 -89 -31.5s-51.5 -8 -75.5 -8c-21.333 0 -45.166 5.5 -71.499 16.5s-51.5 28.833 -75.5 53.5s-44.667 56.834 -62 96.501s-27.666 87.834 -30.999 144.501
c-17.333 -30.667 -38.833 -64 -64.5 -100s-53.167 -69.667 -82.5 -101s-59.333 -57.5 -90 -78.5s-59.334 -31.5 -86.001 -31.5c-22.667 0 -46.334 6.33301 -71.001 19s-47.167 32.834 -67.5 60.501s-37.166 63.334 -50.499 107.001s-20 96.834 -20 159.501
c0 52.667 5.83301 104.167 17.5 154.5s29.334 98.5 53.001 144.5s53.334 89.167 89.001 129.5s77.5 76.5 125.5 108.5c18 12 37.5 23.667 58.5 35s42.5 21.333 64.5 30s44.167 15.667 66.5 21s43.833 8 64.5 8c14 0 27.667 -1.83301 41 -5.5s26.333 -8.5 39 -14.5
s25 -12.667 37 -20l34 -21c15.333 11.333 31.333 22.166 48 32.499s33.667 19.833 51 28.5z" />
    <glyph glyph-name="ccedilla" unicode="&#xe7;" horiz-adv-x="795" 
d="M476 -221c0 -35.333 -10.335 -67.6709 -31.002 -97.0039s-47.5 -52.166 -80.5 -68.499s-70 -24.333 -111 -24s-81.5 12.166 -121.5 35.499l-2 39c34.667 -16 65.667 -24.5 93 -25.5s50.333 2.66699 69 11s32.834 20.166 42.501 35.499s14.5 31 14.5 47
c0 17.333 -7.66699 30.833 -23 40.5s-38.666 13.834 -69.999 12.501c9.33301 24.667 17.166 46.5 23.499 65.5s11.833 36.833 16.5 53.5s8.66699 33 12 49l2 6h-13c-22.667 0 -48 5.66699 -76 17s-54.5 31 -79.5 59s-46 65.333 -63 112s-25.5 105 -25.5 175
c0 44.667 4.66699 90.834 14 138.501s24.5 94.334 45.5 140.001s48.333 89.167 82 130.5s75.167 78.333 124.5 111c18.667 12 39.334 23.667 62.001 35s46.167 21.333 70.5 30s48.333 15.667 72 21s45.834 8 66.501 8c29.333 0 55.5 -5.66699 78.5 -17
s43.5 -24.166 61.5 -38.499s33.833 -28 47.5 -41s25.5 -21.167 35.5 -24.5l-44.5 -32c-15.667 -11.333 -30.834 -21.5 -45.501 -30.5s-28.5 -16.5 -41.5 -22.5s-23.833 -9 -32.5 -9c-7.33301 0 -16.333 5.66699 -27 17l-37.5 38c-14.333 14 -30.5 26.667 -48.5 38
s-37.667 17 -59 17c-30.667 0 -58.667 -7.33301 -84 -22s-48.333 -34.334 -69 -59.001s-38.834 -53.167 -54.501 -85.5s-28.667 -66 -39 -101s-18.166 -70.167 -23.499 -105.5s-8 -68.666 -8 -99.999c0 -43.333 4.83301 -82.333 14.5 -117s23.167 -64.167 40.5 -88.5
s38 -43.166 62 -56.499s50.333 -20 79 -20c12 0 27.333 2 46 6s40.167 11.5 64.5 22.5s51.5 25.833 81.5 44.5s63 42.667 99 72c5.33301 -7.33301 11 -14.666 17 -21.999s10.667 -13.666 14 -18.999c-52 -47.333 -98.667 -85.5 -140 -114.5s-79 -51.167 -113 -66.5
c-30 -14.667 -57.667 -24.667 -83 -30c-2.66699 -12.667 -5 -23.334 -7 -32.001c-4 -16.667 -8.33301 -33.334 -13 -50.001c34 -1.33301 61.667 -11.5 83 -30.5s32 -44.833 32 -77.5z" />
    <glyph glyph-name="egrave" unicode="&#xe8;" horiz-adv-x="805" 
d="M391 782c-22 -20 -43.499 -44.3369 -64.499 -73.0039s-40 -59.667 -57 -93s-31.167 -68.166 -42.5 -104.499s-18.333 -72.166 -21 -107.499c87.333 34 156.5 64.833 207.5 92.5s89.5 53.834 115.5 78.501s42.667 48.334 50 71.001s11 45.667 11 69
c0 20.667 -2.66699 38.5 -8 53.5s-12.333 27 -21 36s-18.5 15.667 -29.5 20s-22.167 6.5 -33.5 6.5c-10.667 0 -26.334 -3.83301 -47.001 -11.5s-40.667 -20.167 -60 -37.5zM750.001 759.996c0 -18.667 -2.1709 -38.3301 -6.50391 -58.9971s-13.333 -42 -27 -64
s-32.667 -45 -57 -69s-56.666 -48.833 -96.999 -74.5s-89.5 -52.334 -147.5 -80.001s-127.333 -56.5 -208 -86.5c4 -37.333 11.833 -71.333 23.5 -102s25.334 -57 41.001 -79s32.667 -39.167 51 -51.5s36.5 -18.5 54.5 -18.5c14 0 31 1.5 51 4.5s43.167 9.5 69.5 19.5
s56 24.667 89 44s69.5 45 109.5 77c7.33301 -4 13.833 -10.5 19.5 -19.5s9.5 -16.167 11.5 -21.5c-54.667 -47.333 -103 -85.5 -145 -114.5s-79.5 -51.333 -112.5 -67s-62.667 -26.167 -89 -31.5s-51.5 -8 -75.5 -8c-22 0 -47 6.16699 -75 18.5s-54.333 32 -79 59
s-45.5 62.333 -62.5 106s-25.5 97.167 -25.5 160.5c0 52 6.33301 103.167 19 153.5s30.834 98.666 54.501 144.999s52.834 90.166 87.501 131.499s74 79 118 113c15.333 12 32.666 23.5 51.999 34.5s39.5 20.667 60.5 29s42.333 14.833 64 19.5s42.834 7 63.501 7
c28.667 0 53.5 -5.16699 74.5 -15.5s38.5 -23.833 52.5 -40.5s24.333 -35.5 31 -56.5s10 -42.167 10 -63.5zM579.997 1047c-13.333 -8 -24.002 -13.3311 -32.002 -15.998s-18 -4.33398 -30 -5.00098l-250 386l32 36c8 1.33301 18.167 2.66602 30.5 3.99902
s25.333 2.5 39 3.5s26.834 1.83301 39.501 2.5s23.334 1 32.001 1z" />
    <glyph glyph-name="eacute" unicode="&#xe9;" horiz-adv-x="805" 
d="M391 782c-22 -20 -43.499 -44.3369 -64.499 -73.0039s-40 -59.667 -57 -93s-31.167 -68.166 -42.5 -104.499s-18.333 -72.166 -21 -107.499c87.333 34 156.5 64.833 207.5 92.5s89.5 53.834 115.5 78.501s42.667 48.334 50 71.001s11 45.667 11 69
c0 20.667 -2.66699 38.5 -8 53.5s-12.333 27 -21 36s-18.5 15.667 -29.5 20s-22.167 6.5 -33.5 6.5c-10.667 0 -26.334 -3.83301 -47.001 -11.5s-40.667 -20.167 -60 -37.5zM750.001 759.996c0 -18.667 -2.1709 -38.3301 -6.50391 -58.9971s-13.333 -42 -27 -64
s-32.667 -45 -57 -69s-56.666 -48.833 -96.999 -74.5s-89.5 -52.334 -147.5 -80.001s-127.333 -56.5 -208 -86.5c4 -37.333 11.833 -71.333 23.5 -102s25.334 -57 41.001 -79s32.667 -39.167 51 -51.5s36.5 -18.5 54.5 -18.5c14 0 31 1.5 51 4.5s43.167 9.5 69.5 19.5
s56 24.667 89 44s69.5 45 109.5 77c7.33301 -4 13.833 -10.5 19.5 -19.5s9.5 -16.167 11.5 -21.5c-54.667 -47.333 -103 -85.5 -145 -114.5s-79.5 -51.333 -112.5 -67s-62.667 -26.167 -89 -31.5s-51.5 -8 -75.5 -8c-22 0 -47 6.16699 -75 18.5s-54.333 32 -79 59
s-45.5 62.333 -62.5 106s-25.5 97.167 -25.5 160.5c0 52 6.33301 103.167 19 153.5s30.834 98.666 54.501 144.999s52.834 90.166 87.501 131.499s74 79 118 113c15.333 12 32.666 23.5 51.999 34.5s39.5 20.667 60.5 29s42.333 14.833 64 19.5s42.834 7 63.501 7
c28.667 0 53.5 -5.16699 74.5 -15.5s38.5 -23.833 52.5 -40.5s24.333 -35.5 31 -56.5s10 -42.167 10 -63.5zM854.997 1374l-354.999 -348.001c-10.667 2.66699 -18.5 6.33398 -23.5 11.001s-12.167 12.667 -21.5 24l272 398l25.5 -7.5c10.333 -3 21.166 -6.33301 32.499 -10
s22 -7.5 32 -11.5s17.667 -7.66699 23 -11z" />
    <glyph glyph-name="ecircumflex" unicode="&#xea;" horiz-adv-x="805" 
d="M391 782c-22 -20 -43.499 -44.3369 -64.499 -73.0039s-40 -59.667 -57 -93s-31.167 -68.166 -42.5 -104.499s-18.333 -72.166 -21 -107.499c87.333 34 156.5 64.833 207.5 92.5s89.5 53.834 115.5 78.501s42.667 48.334 50 71.001s11 45.667 11 69
c0 20.667 -2.66699 38.5 -8 53.5s-12.333 27 -21 36s-18.5 15.667 -29.5 20s-22.167 6.5 -33.5 6.5c-10.667 0 -26.334 -3.83301 -47.001 -11.5s-40.667 -20.167 -60 -37.5zM750.001 759.996c0 -18.667 -2.1709 -38.3301 -6.50391 -58.9971s-13.333 -42 -27 -64
s-32.667 -45 -57 -69s-56.666 -48.833 -96.999 -74.5s-89.5 -52.334 -147.5 -80.001s-127.333 -56.5 -208 -86.5c4 -37.333 11.833 -71.333 23.5 -102s25.334 -57 41.001 -79s32.667 -39.167 51 -51.5s36.5 -18.5 54.5 -18.5c14 0 31 1.5 51 4.5s43.167 9.5 69.5 19.5
s56 24.667 89 44s69.5 45 109.5 77c7.33301 -4 13.833 -10.5 19.5 -19.5s9.5 -16.167 11.5 -21.5c-54.667 -47.333 -103 -85.5 -145 -114.5s-79.5 -51.333 -112.5 -67s-62.667 -26.167 -89 -31.5s-51.5 -8 -75.5 -8c-22 0 -47 6.16699 -75 18.5s-54.333 32 -79 59
s-45.5 62.333 -62.5 106s-25.5 97.167 -25.5 160.5c0 52 6.33301 103.167 19 153.5s30.834 98.666 54.501 144.999s52.834 90.166 87.501 131.499s74 79 118 113c15.333 12 32.666 23.5 51.999 34.5s39.5 20.667 60.5 29s42.333 14.833 64 19.5s42.834 7 63.501 7
c28.667 0 53.5 -5.16699 74.5 -15.5s38.5 -23.833 52.5 -40.5s24.333 -35.5 31 -56.5s10 -42.167 10 -63.5zM800.997 1071c-9.33301 -13.333 -16.499 -22.999 -21.499 -28.999s-12.833 -11.333 -23.5 -16l-208 265l-273 -265c-6 4 -11.333 9.16699 -16 15.5
s-10.334 16.166 -17.001 29.499l284 371h92z" />
    <glyph glyph-name="edieresis" unicode="&#xeb;" horiz-adv-x="805" 
d="M391 782c-22 -20 -43.499 -44.3369 -64.499 -73.0039s-40 -59.667 -57 -93s-31.167 -68.166 -42.5 -104.499s-18.333 -72.166 -21 -107.499c87.333 34 156.5 64.833 207.5 92.5s89.5 53.834 115.5 78.501s42.667 48.334 50 71.001s11 45.667 11 69
c0 20.667 -2.66699 38.5 -8 53.5s-12.333 27 -21 36s-18.5 15.667 -29.5 20s-22.167 6.5 -33.5 6.5c-10.667 0 -26.334 -3.83301 -47.001 -11.5s-40.667 -20.167 -60 -37.5zM750.001 759.996c0 -18.667 -2.1709 -38.3301 -6.50391 -58.9971s-13.333 -42 -27 -64
s-32.667 -45 -57 -69s-56.666 -48.833 -96.999 -74.5s-89.5 -52.334 -147.5 -80.001s-127.333 -56.5 -208 -86.5c4 -37.333 11.833 -71.333 23.5 -102s25.334 -57 41.001 -79s32.667 -39.167 51 -51.5s36.5 -18.5 54.5 -18.5c14 0 31 1.5 51 4.5s43.167 9.5 69.5 19.5
s56 24.667 89 44s69.5 45 109.5 77c7.33301 -4 13.833 -10.5 19.5 -19.5s9.5 -16.167 11.5 -21.5c-54.667 -47.333 -103 -85.5 -145 -114.5s-79.5 -51.333 -112.5 -67s-62.667 -26.167 -89 -31.5s-51.5 -8 -75.5 -8c-22 0 -47 6.16699 -75 18.5s-54.333 32 -79 59
s-45.5 62.333 -62.5 106s-25.5 97.167 -25.5 160.5c0 52 6.33301 103.167 19 153.5s30.834 98.666 54.501 144.999s52.834 90.166 87.501 131.499s74 79 118 113c15.333 12 32.666 23.5 51.999 34.5s39.5 20.667 60.5 29s42.333 14.833 64 19.5s42.834 7 63.501 7
c28.667 0 53.5 -5.16699 74.5 -15.5s38.5 -23.833 52.5 -40.5s24.333 -35.5 31 -56.5s10 -42.167 10 -63.5zM449.997 1262c0 -18.667 -3 -37.166 -9 -55.499s-14.333 -35 -25 -50s-23.834 -27.167 -39.501 -36.5s-32.834 -14 -51.501 -14c-21.333 0 -38 6 -50 18
s-18 29.333 -18 52c0 18 3.16699 36.167 9.5 54.5s15 35.166 26 50.499s24.333 27.833 40 37.5s32.834 14.5 51.501 14.5c20.667 0 36.834 -6.16699 48.501 -18.5s17.5 -29.833 17.5 -52.5zM822.997 1262c0 -18.667 -2.99805 -37.166 -8.99805 -55.499s-14.5 -35 -25.5 -50
s-24.333 -27.167 -40 -36.5s-33.167 -14 -52.5 -14c-20.667 0 -36.834 6 -48.501 18s-17.5 29.333 -17.5 52c0 18 3 36.167 9 54.5s14.333 35.166 25 50.499s23.667 27.833 39 37.5s32.666 14.5 51.999 14.5c20.667 0 37.167 -6.16699 49.5 -18.5s18.5 -29.833 18.5 -52.5z
" />
    <glyph glyph-name="igrave" unicode="&#xec;" horiz-adv-x="504" 
d="M455 72l-84.499 -48.9961c-25 -14 -47.833 -25.833 -68.5 -35.5s-39.334 -16.834 -56.001 -21.501s-32.334 -7 -47.001 -7c-22.667 0 -40.667 10.5 -54 31.5s-20 49.5 -20 85.5c0 20 2.5 48.5 7.5 85.5s11.167 78 18.5 123l24 141l24 140
c7.33301 44.333 13.5 83.833 18.5 118.5s7.5 60 7.5 76c0 15.333 -1 27.5 -3 36.5s-4.66699 15.667 -8 20s-7.66602 7.16602 -12.999 8.49902s-11 2 -17 2c-5.33301 0 -13.5 -1.16699 -24.5 -3.5s-22.167 -5.16602 -33.5 -8.49902
c-12.667 -3.33301 -26.667 -7.33301 -42 -12l-14 37l83.5 36.5c27.667 11.667 53.5 21.834 77.5 30.501s45 15.667 63 21s31.333 8 40 8c18.667 0 31.834 -6.33301 39.501 -19s11.5 -34.334 11.5 -65.001c0 -19.333 -2.5 -47.833 -7.5 -85.5s-11.5 -79.834 -19.5 -126.501
l-25 -146.5l-25 -146.5c-8 -46.667 -14.5 -88.834 -19.5 -126.501s-7.5 -66.167 -7.5 -85.5c0 -20.667 2.16699 -35.667 6.5 -45s12.166 -14 23.499 -14c20.667 0 40.5 2.66699 59.5 8s42.167 13.666 69.5 24.999zM427.001 1047
c-13.333 -8 -24.002 -13.3311 -32.002 -15.998s-18 -4.33398 -30 -5.00098l-250 386l32 36c8 1.33301 18.167 2.66602 30.5 3.99902s25.333 2.5 39 3.5s26.834 1.83301 39.501 2.5s23.334 1 32.001 1z" />
    <glyph glyph-name="iacute" unicode="&#xed;" horiz-adv-x="504" 
d="M455 72l-84.499 -48.9961c-25 -14 -47.833 -25.833 -68.5 -35.5s-39.334 -16.834 -56.001 -21.501s-32.334 -7 -47.001 -7c-22.667 0 -40.667 10.5 -54 31.5s-20 49.5 -20 85.5c0 20 2.5 48.5 7.5 85.5s11.167 78 18.5 123l24 141l24 140
c7.33301 44.333 13.5 83.833 18.5 118.5s7.5 60 7.5 76c0 15.333 -1 27.5 -3 36.5s-4.66699 15.667 -8 20s-7.66602 7.16602 -12.999 8.49902s-11 2 -17 2c-5.33301 0 -13.5 -1.16699 -24.5 -3.5s-22.167 -5.16602 -33.5 -8.49902
c-12.667 -3.33301 -26.667 -7.33301 -42 -12l-14 37l83.5 36.5c27.667 11.667 53.5 21.834 77.5 30.501s45 15.667 63 21s31.333 8 40 8c18.667 0 31.834 -6.33301 39.501 -19s11.5 -34.334 11.5 -65.001c0 -19.333 -2.5 -47.833 -7.5 -85.5s-11.5 -79.834 -19.5 -126.501
l-25 -146.5l-25 -146.5c-8 -46.667 -14.5 -88.834 -19.5 -126.501s-7.5 -66.167 -7.5 -85.5c0 -20.667 2.16699 -35.667 6.5 -45s12.166 -14 23.499 -14c20.667 0 40.5 2.66699 59.5 8s42.167 13.666 69.5 24.999zM702.001 1374l-354.999 -348.001
c-10.667 2.66699 -18.5 6.33398 -23.5 11.001s-12.167 12.667 -21.5 24l272 398l25.5 -7.5c10.333 -3 21.166 -6.33301 32.499 -10s22 -7.5 32 -11.5s17.667 -7.66699 23 -11z" />
    <glyph glyph-name="icircumflex" unicode="&#xee;" horiz-adv-x="504" 
d="M455 72l-84.499 -48.9961c-25 -14 -47.833 -25.833 -68.5 -35.5s-39.334 -16.834 -56.001 -21.501s-32.334 -7 -47.001 -7c-22.667 0 -40.667 10.5 -54 31.5s-20 49.5 -20 85.5c0 20 2.5 48.5 7.5 85.5s11.167 78 18.5 123l24 141l24 140
c7.33301 44.333 13.5 83.833 18.5 118.5s7.5 60 7.5 76c0 15.333 -1 27.5 -3 36.5s-4.66699 15.667 -8 20s-7.66602 7.16602 -12.999 8.49902s-11 2 -17 2c-5.33301 0 -13.5 -1.16699 -24.5 -3.5s-22.167 -5.16602 -33.5 -8.49902
c-12.667 -3.33301 -26.667 -7.33301 -42 -12l-14 37l83.5 36.5c27.667 11.667 53.5 21.834 77.5 30.501s45 15.667 63 21s31.333 8 40 8c18.667 0 31.834 -6.33301 39.501 -19s11.5 -34.334 11.5 -65.001c0 -19.333 -2.5 -47.833 -7.5 -85.5s-11.5 -79.834 -19.5 -126.501
l-25 -146.5l-25 -146.5c-8 -46.667 -14.5 -88.834 -19.5 -126.501s-7.5 -66.167 -7.5 -85.5c0 -20.667 2.16699 -35.667 6.5 -45s12.166 -14 23.499 -14c20.667 0 40.5 2.66699 59.5 8s42.167 13.666 69.5 24.999zM648.001 1071
c-9.33301 -13.333 -16.499 -22.999 -21.499 -28.999s-12.833 -11.333 -23.5 -16l-208 265l-273 -265c-6 4 -11.333 9.16699 -16 15.5s-10.334 16.166 -17.001 29.499l284 371h92z" />
    <glyph glyph-name="idieresis" unicode="&#xef;" horiz-adv-x="504" 
d="M455 72l-84.499 -48.9961c-25 -14 -47.833 -25.833 -68.5 -35.5s-39.334 -16.834 -56.001 -21.501s-32.334 -7 -47.001 -7c-22.667 0 -40.667 10.5 -54 31.5s-20 49.5 -20 85.5c0 20 2.5 48.5 7.5 85.5s11.167 78 18.5 123l24 141l24 140
c7.33301 44.333 13.5 83.833 18.5 118.5s7.5 60 7.5 76c0 15.333 -1 27.5 -3 36.5s-4.66699 15.667 -8 20s-7.66602 7.16602 -12.999 8.49902s-11 2 -17 2c-5.33301 0 -13.5 -1.16699 -24.5 -3.5s-22.167 -5.16602 -33.5 -8.49902
c-12.667 -3.33301 -26.667 -7.33301 -42 -12l-14 37l83.5 36.5c27.667 11.667 53.5 21.834 77.5 30.501s45 15.667 63 21s31.333 8 40 8c18.667 0 31.834 -6.33301 39.501 -19s11.5 -34.334 11.5 -65.001c0 -19.333 -2.5 -47.833 -7.5 -85.5s-11.5 -79.834 -19.5 -126.501
l-25 -146.5l-25 -146.5c-8 -46.667 -14.5 -88.834 -19.5 -126.501s-7.5 -66.167 -7.5 -85.5c0 -20.667 2.16699 -35.667 6.5 -45s12.166 -14 23.499 -14c20.667 0 40.5 2.66699 59.5 8s42.167 13.666 69.5 24.999zM297.001 1262c0 -18.667 -3 -37.166 -9 -55.499
s-14.333 -35 -25 -50s-23.834 -27.167 -39.501 -36.5s-32.834 -14 -51.501 -14c-21.333 0 -38 6 -50 18s-18 29.333 -18 52c0 18 3.16699 36.167 9.5 54.5s15 35.166 26 50.499s24.333 27.833 40 37.5s32.834 14.5 51.501 14.5c20.667 0 36.834 -6.16699 48.501 -18.5
s17.5 -29.833 17.5 -52.5zM670.001 1262c0 -18.667 -2.99805 -37.166 -8.99805 -55.499s-14.5 -35 -25.5 -50s-24.333 -27.167 -40 -36.5s-33.167 -14 -52.5 -14c-20.667 0 -36.834 6 -48.501 18s-17.5 29.333 -17.5 52c0 18 3 36.167 9 54.5s14.333 35.166 25 50.499
s23.667 27.833 39 37.5s32.666 14.5 51.999 14.5c20.667 0 37.167 -6.16699 49.5 -18.5s18.5 -29.833 18.5 -52.5z" />
    </font>
</defs>
</svg>
