<?xml version="1.0" standalone="no"?>
<!DOCTYPE svg PUBLIC "-//W3C//DTD SVG 1.1//EN" "http://www.w3.org/Graphics/SVG/1.1/DTD/svg11.dtd" >
<svg>
<metadata>
Created by FontForge 20090914 at Fri Sep 23 14:59:31 2016
 By www-data
Copyright (c) 2003-2013, SIL International (http://scripts.sil.org/)
</metadata>
<defs>
<font id="GentiumBasic" horiz-adv-x="0" >
  <font-face 
    font-family="Gentium Basic"
    font-weight="400"
    font-stretch="normal"
    units-per-em="2048"
    panose-1="2 0 5 3 6 0 0 2 0 4"
    ascent="1638"
    descent="-410"
    x-height="930"
    cap-height="1260"
    bbox="-1028 -724.999 1999 2169"
    underline-thickness="100"
    underline-position="-200"
    unicode-range="U+0020-U+FB02"
  />
<missing-glyph horiz-adv-x="1400" 
d="M150 50h1100v1700h-1100v-1700zM100 1800h1200v-1800h-1200v1800z" />
    <glyph glyph-name=".notdef" horiz-adv-x="1400" 
d="M150 50h1100v1700h-1100v-1700zM100 1800h1200v-1800h-1200v1800z" />
    <glyph glyph-name="space" unicode=" " horiz-adv-x="451" 
 />
    <glyph glyph-name="exclam" unicode="!" horiz-adv-x="557" 
d="M390 123c0 -23.333 -3.49902 -44.833 -10.499 -64.5s-16.667 -36.834 -29 -51.501s-27 -26.167 -44 -34.5s-35.167 -12.5 -54.5 -12.5c-36 0 -61.667 9.66699 -77 29s-23 47 -23 83c0 22.667 3.66699 43.834 11 63.501s17.333 37 30 52s27.5 26.833 44.5 35.5
s34.833 13 53.5 13c33.333 0 58.166 -9.83301 74.499 -29.5s24.5 -47.5 24.5 -83.5zM326.001 389c-12.667 -9.33301 -24 -16.832 -34 -22.499s-23.333 -11.167 -40 -16.5l-29 21l-47 1027c25.333 16.667 52 32.167 80 46.5s53.333 26.166 76 35.499l43 -25z" />
    <glyph glyph-name="quotedbl" unicode="&#x22;" horiz-adv-x="870" 
d="M309 834c-5.33301 -2.66699 -11.8311 -5.33203 -19.498 -7.99902s-15.834 -5 -24.501 -7s-17.5 -3.5 -26.5 -4.5s-17.5 -1.5 -25.5 -1.5l-53 613c7.33301 4 18 8.83301 32 14.5s28.5 11.167 43.5 16.5l42.5 14.5c13.333 4.33301 23.666 7.16602 30.999 8.49902l43 -21z
M668.002 834.002c-5.33301 -2.66699 -11.833 -5.33203 -19.5 -7.99902s-16 -5 -25 -7s-18 -3.5 -27 -4.5s-17.5 -1.5 -25.5 -1.5l-53 613c7.33301 4 17.833 8.83301 31.5 14.5s28.167 11.167 43.5 16.5l43.5 14.5c13.667 4.33301 24.167 7.16602 31.5 8.49902l43 -21z" />
    <glyph glyph-name="numbersign" unicode="#" horiz-adv-x="961" 
d="M399 590h189l73 256h-188zM806 961h150.998l25 -25c-3.33301 -14.667 -8 -30.5 -14 -47.5s-11.667 -31.167 -17 -42.5h-178l-73 -256h151l22 -27c-3.33301 -13.333 -7.5 -28.5 -12.5 -45.5s-10.167 -31.167 -15.5 -42.5h-178l-87 -305c-12 -9.33301 -26 -17.333 -42 -24
s-32.667 -13 -50 -19l-26 20l93 328h-189l-87 -305c-12 -9.33301 -25.667 -17.333 -41 -24s-31.666 -13 -48.999 -19l-26 20l93 328h-147l-22 25c3.33301 13.333 7.66602 28.333 12.999 45s11 31.667 17 45h172l73 256h-144l-25 24c3.33301 14.667 8 30.167 14 46.5l17 44.5
h171l83 290c14.667 10.667 29.334 18.667 44.001 24s29.334 11 44.001 17l29 -22l-89 -309h188l83 290c14.667 10.667 29.5 18.667 44.5 24l45.5 17l27 -22z" />
    <glyph glyph-name="dollar" unicode="$" horiz-adv-x="961" 
d="M225 958c0 -25.333 5.33105 -47.501 15.998 -66.501s25.334 -36.167 44.001 -51.5s40.667 -29.166 66 -41.499s52.333 -24.166 81 -35.499v352c-38.667 -1.33301 -71.167 -6.83301 -97.5 -16.5s-47.666 -21.834 -63.999 -36.501s-28 -31.167 -35 -49.5
s-10.5 -36.5 -10.5 -54.5zM726.998 323.999c0 31.333 -5.33301 59.001 -16 83.001s-25.334 45.167 -44.001 63.5s-40.5 34.5 -65.5 48.5s-51.5 27 -79.5 39v-445c26.667 3.33301 52.334 10.833 77.001 22.5s46.5 26.667 65.5 45s34.167 39.666 45.5 63.999
s17 50.833 17 79.5zM521.998 -143c-6 -5.33301 -11.168 -9.5 -15.501 -12.5s-8.66602 -5.5 -12.999 -7.5s-9.16602 -3.83301 -14.499 -5.5s-12 -3.5 -20 -5.5l-27 22v142c-32 0.666992 -61.667 3 -89 7s-54 10.333 -80 19s-52 19.5 -78 32.5s-53.667 28.833 -83 47.5
c-4.66699 3.33301 -8.16699 14.5 -10.5 33.5s-3.5 41 -3.5 66s1 50.667 3 77s5.66699 48.833 11 67.5l43 -4c32 -68.667 72.667 -120.834 122 -156.501s104.333 -57.5 165 -65.5v479c-41.333 15.333 -81.833 31.333 -121.5 48s-75.334 36.834 -107.001 60.501
s-57.167 52.167 -76.5 85.5s-29 74.666 -29 123.999c0 28 5.5 58.167 16.5 90.5s29.5 62.666 55.5 90.999s60.333 53.166 103 74.499s95.667 35.666 159 42.999v146c9.33301 5.33301 16 9.33301 20 12s7.66699 4.83398 11 6.50098s7.16602 3 11.499 4s11.5 2.83301 21.5 5.5
l26 -22v-148c30.667 -0.666992 60.5 -3.16699 89.5 -7.5s56.167 -10.5 81.5 -18.5s48 -17.5 68 -28.5s36.667 -22.833 50 -35.5c4 -4.66699 3.5 -13.167 -1.5 -25.5s-12.167 -25.666 -21.5 -39.999s-19.666 -28.5 -30.999 -42.5s-21.333 -25 -30 -33l-39 8
c-26.667 30.667 -54 55.334 -82 74.001s-56 32 -84 40v-377c41.333 -16 82.333 -33.333 123 -52s77 -41.5 109 -68.5s58 -59 78 -96s30 -81.833 30 -134.5c0 -40 -7.16699 -80.667 -21.5 -122s-35.833 -79.666 -64.5 -114.999s-64.167 -66 -106.5 -92
s-91.5 -43.333 -147.5 -52v-139z" />
    <glyph glyph-name="percent" unicode="%" horiz-adv-x="1413" 
d="M1194 289c0 46.667 -4.16895 87.333 -12.502 122s-19.5 63.5 -33.5 86.5s-30 40 -48 51s-36.667 16.5 -56 16.5c-14.667 0 -29.167 -4.83301 -43.5 -14.5s-27.166 -24.167 -38.499 -43.5s-20.5 -43.5 -27.5 -72.5s-10.5 -63.167 -10.5 -102.5
c0 -48 3.66699 -89.667 11 -125s17.5 -64.5 30.5 -87.5s28.5 -40.167 46.5 -51.5s37.667 -17 59 -17c16.667 0 32.334 5 47.001 15s27.667 25 39 45s20.333 44.833 27 74.5s10 64.167 10 103.5zM1337 308.999c0 -46 -7.99805 -89.501 -23.998 -130.501s-37.333 -77 -64 -108
s-57.834 -55.5 -93.501 -73.5s-72.834 -27 -111.501 -27s-74.334 9 -107.001 27s-60.667 42.5 -84 73.5s-41.666 67 -54.999 108s-20 84.5 -20 130.5s8.16699 89.5 24.5 130.5s38 76.833 65 107.5s58.167 54.834 93.5 72.501s72 26.5 110 26.5
c40 0 76.333 -8.83301 109 -26.5s60.667 -41.667 84 -72s41.333 -66 54 -107s19 -84.833 19 -131.5zM358 16.998c-6 -4.66699 -14.835 -9.5 -26.502 -14.5s-24.167 -9.66699 -37.5 -14l-39.5 -12.5l-31.5 -10l-24 35l856 1187c18.667 11.333 40.334 21 65.001 29
s47.334 14.667 68.001 20l29 -33zM491.998 876.998c0 47.333 -4.16602 88.332 -12.499 122.999s-19.5 63.334 -33.5 86.001s-30 39.5 -48 50.5s-36.667 16.5 -56 16.5c-14.667 0 -29.167 -4.83301 -43.5 -14.5s-27.333 -24.167 -39 -43.5s-21 -43.5 -28 -72.5
s-10.5 -63.167 -10.5 -102.5c0 -48 3.66699 -89.667 11 -125s17.5 -64.5 30.5 -87.5s28.667 -40.167 47 -51.5s38.166 -17 59.499 -17c16 0 31.5 5 46.5 15s28.167 25 39.5 45s20.333 44.833 27 74.5s10 64.167 10 103.5zM636.999 896.997
c0 -46 -8.00195 -89.4971 -24.002 -130.497s-37.5 -77 -64.5 -108s-58.333 -55.5 -94 -73.5s-73.167 -27 -112.5 -27s-75.166 9 -107.499 27s-60.333 42.5 -84 73.5s-42 67 -55 108s-19.5 84.5 -19.5 130.5s8 89.5 24 130.5s37.5 76.667 64.5 107s58.167 54.5 93.5 72.5
s72.333 27 111 27c40 0 76.333 -8.83301 109 -26.5s60.834 -41.834 84.501 -72.501s42 -66.334 55 -107.001s19.5 -84.334 19.5 -131.001z" />
    <glyph glyph-name="ampersand" unicode="&#x26;" horiz-adv-x="1366" 
d="M444 1130c0 -38.667 5.66797 -79.168 17.001 -121.501s27 -85.5 47 -129.5c45.333 26 82.333 51.667 111 77s51.167 50.333 67.5 75s27.5 48.667 33.5 72s9 46 9 68c0 23.333 -3 45.333 -9 66s-14.833 38.834 -26.5 54.501s-26.334 28.167 -44.001 37.5
s-38.167 14 -61.5 14c-24 0 -45 -6.16699 -63 -18.5s-33 -28.5 -45 -48.5s-21 -42.833 -27 -68.5s-9 -51.5 -9 -77.5zM528.001 83.999c56.667 0 108.665 9.00098 155.998 27.001s90 42 128 72l-103 112.5c-35.333 40.333 -69.833 82.666 -103.5 126.999
s-66 90.166 -97 137.499s-58.833 95 -83.5 143c-34 -29.333 -62.667 -57.666 -86 -84.999s-42.166 -54.5 -56.499 -81.5s-24.666 -54 -30.999 -81s-9.5 -54.5 -9.5 -82.5c0 -46.667 8 -88 24 -124s37.333 -66.167 64 -90.5s57.167 -42.833 91.5 -55.5s69.833 -19 106.5 -19z
M1346 748c-16.667 -20.667 -33.1592 -37.8359 -49.4922 -51.5029s-32.833 -26.167 -49.5 -37.5c-12 6 -25.667 11.333 -41 16s-30.833 8.83398 -46.5 12.501s-30.834 6.5 -45.501 8.5s-27.667 3.33301 -39 4c7.33301 -12 13.166 -23.167 17.499 -33.5
s7.66602 -21.5 9.99902 -33.5s3.83301 -25.167 4.5 -39.5s1 -31.166 1 -50.499c0 -47.333 -10.333 -97.333 -31 -150s-50 -104 -88 -154c46 -44 88.333 -81.333 127 -112c25.333 -21.333 52.666 -35.5 81.999 -42.5s63.333 -5.83301 102 3.5l9 -43
c-58 -25.333 -106.833 -44.166 -146.5 -56.499s-66.834 -18.5 -81.501 -18.5s-40.334 13.333 -77.001 40s-79 63 -127 109c-52 -44 -110 -79.833 -174 -107.5s-132.333 -41.5 -205 -41.5c-62 0 -118.667 8.16699 -170 24.5s-95.333 40.5 -132 72.5
s-65.167 71.833 -85.5 119.5s-30.5 102.834 -30.5 165.501c0 37.333 6.66699 75.333 20 114s32.666 77 57.999 115s56.666 75.333 93.999 112s80 72 128 106c-19.333 47.333 -34.666 93.833 -45.999 139.5s-17 90.5 -17 134.5c0 54 9 104 27 150s42 85.833 72 119.5
s64.5 60 103.5 79s79.5 28.5 121.5 28.5c42.667 0 78.5 -6.83301 107.5 -20.5s52.333 -31.834 70 -54.501s30.334 -48.834 38.001 -78.501s11.5 -60.5 11.5 -92.5c0 -70 -21.833 -135.5 -65.5 -196.5s-105.167 -116.167 -184.5 -165.5l-36 -23.5l-33 -22.5
c23.333 -43.333 49.5 -86.666 78.5 -129.999s59.667 -86 92 -128s65.666 -82.667 99.999 -122s68.5 -76.333 102.5 -111c21.333 33.333 37.5 67 48.5 101s16.5 66 16.5 96c0 28 -4.66699 54.333 -14 79s-21.5 46.167 -36.5 64.5s-32.167 32.833 -51.5 43.5
s-38.666 16 -57.999 16l-22 28c7.33301 8.66699 18.166 18 32.499 28s28.166 17.667 41.499 23h444z" />
    <glyph glyph-name="quotesingle" unicode="'" horiz-adv-x="512" 
d="M309 834c-5.33301 -2.66699 -11.8311 -5.33203 -19.498 -7.99902s-15.834 -5 -24.501 -7s-17.5 -3.5 -26.5 -4.5s-17.5 -1.5 -25.5 -1.5l-53 613c7.33301 4 18 8.83301 32 14.5s28.5 11.167 43.5 16.5l42.5 14.5c13.333 4.33301 23.666 7.16602 30.999 8.49902l43 -21z
" />
    <glyph glyph-name="parenleft" unicode="(" horiz-adv-x="649" 
d="M578 -315c-75.333 34.667 -141.499 83.165 -198.499 145.498s-104.667 134.5 -143 216.5s-67.166 172 -86.499 270s-29 200 -29 306c0 109.333 10.833 215 32.5 317s52.5 196 92.5 282s88.167 161.5 144.5 226.5s118.833 115.5 187.5 151.5l32 -45
c-43.333 -36 -84.333 -83.333 -123 -142s-72.5 -126.667 -101.5 -204s-52 -163 -69 -257s-25.5 -194.333 -25.5 -301c0 -97.333 7 -192.166 21 -284.499s34.667 -178.666 62 -258.999s60.666 -152.833 99.999 -217.5s84.666 -118 135.999 -160z" />
    <glyph glyph-name="parenright" unicode=")" horiz-adv-x="649" 
d="M530 664c0 -110 -11.001 -216.168 -33.001 -318.501s-53 -196.5 -93 -282.5s-88.167 -161.5 -144.5 -226.5s-118.833 -115.5 -187.5 -151.5l-31 45c42.667 36 83.334 83.333 122.001 142s72.667 126.667 102 204s52.5 163 69.5 257s25.5 194.667 25.5 302
c0 96.667 -7 191.167 -21 283.5s-34.5 178.833 -61.5 259.5s-60.333 153.334 -100 218.001s-85.167 117.667 -136.5 159l31 45c75.333 -34 141.5 -82.167 198.5 -144.5s104.833 -134.5 143.5 -216.5s67.667 -171.833 87 -269.5s29 -199.5 29 -305.5z" />
    <glyph glyph-name="asterisk" unicode="*" horiz-adv-x="915" 
d="M489 1188l261.003 195.999l49.5 -32c19 -12 33.833 -23.667 44.5 -35l2 -41l-326 -141l301 -129c-1.33301 -16.667 -2.33301 -36.334 -3 -59.001s-3.66699 -41.334 -9 -56.001l-37 -23l-282 211l38 -323l-24 -13.5c-8.66699 -5 -17.834 -9.66699 -27.501 -14l-28 -12
c-9 -3.66699 -17.167 -6.16699 -24.5 -7.5l-39 18l42 352l-261 -196l-24.5 15.5l-26.5 17.5l-24.5 17.5c-7.66699 5.66699 -13.834 11.167 -18.501 16.5l-2 43l326 140l-302 129c0.666992 8 1.16699 17.167 1.5 27.5s0.833008 20.833 1.5 31.5s1.66699 20.834 3 30.501
s3.33301 17.834 6 24.501l35 23l285 -212l-39 326l25 13l28.5 14c9.66699 4.66699 19.167 8.83398 28.5 12.501s17.666 6.5 24.999 8.5l36 -21z" />
    <glyph glyph-name="plus" unicode="+" horiz-adv-x="840" 
d="M477 236c-13.333 -6.66699 -28.002 -12.668 -44.002 -18.001s-31.333 -9.66602 -46 -12.999l-25 22v280h-276l-25 24c3.33301 13.333 7.83301 27.666 13.5 42.999s11.5 29.666 17.5 42.999h270v274c12.667 4 27.334 9 44.001 15s32.334 10.667 47.001 14l24 -23v-280h277
l24 -24c-3.33301 -13.333 -7.83301 -28.166 -13.5 -44.499s-11.167 -30.166 -16.5 -41.499h-271v-271z" />
    <glyph glyph-name="comma" unicode="," horiz-adv-x="469" 
d="M390 70c0 -26 -5.16699 -55.332 -15.5 -87.999s-25.166 -66 -44.499 -100s-42.833 -67.167 -70.5 -99.5s-58.834 -61.5 -93.501 -87.5l-45 35c18.667 21.333 34.5 42 47.5 62s23.833 40.667 32.5 62s15 43.833 19 67.5s6 49.834 6 78.501
c0 29.333 -9.66699 52.666 -29 69.999s-50.333 24.666 -93 21.999l-16 47c6 8 18.667 17.167 38 27.5s40.5 20.333 63.5 30s45.667 17.667 68 24s39.5 9.16602 51.5 8.49902c32 -15.333 53.5 -36.166 64.5 -62.499s16.5 -58.5 16.5 -96.5z" />
    <glyph glyph-name="hyphen" unicode="-" horiz-adv-x="690" 
d="M629 546c-4 -14.667 -8.83301 -30.667 -14.5 -48s-11.167 -31.666 -16.5 -42.999h-512l-25 24c3.33301 14.667 7.83301 30.167 13.5 46.5s11.5 31.166 17.5 44.499h512z" />
    <glyph glyph-name="period" unicode="." horiz-adv-x="469" 
d="M369 123c0 -23.333 -3.49902 -44.833 -10.499 -64.5s-16.667 -36.834 -29 -51.501s-27 -26.167 -44 -34.5s-35.167 -12.5 -54.5 -12.5c-36 0 -61.667 9.66699 -77 29s-23 47 -23 83c0 22.667 3.66699 43.834 11 63.501s17.333 37 30 52s27.5 26.833 44.5 35.5
s34.833 13 53.5 13c33.333 0 58.166 -9.83301 74.499 -29.5s24.5 -47.5 24.5 -83.5z" />
    <glyph glyph-name="slash" unicode="/" horiz-adv-x="961" 
d="M211 -284c-6.66699 -4.66699 -15.333 -9.5 -26 -14.5s-22 -9.66699 -34 -14l-35.5 -12.5l-29.5 -10l-37 25l701 1861c18 11.333 38 21 60 29s42.667 14.667 62 20l37 -22z" />
    <glyph glyph-name="zero" unicode="0" horiz-adv-x="961" 
d="M721 565c0 91.333 -7.16699 171.667 -21.5 241s-33.5 127.166 -57.5 173.499s-51.667 81.333 -83 105s-64 35.5 -98 35.5s-64.667 -9.16699 -92 -27.5s-50.5 -46.666 -69.5 -84.999s-33.667 -87.5 -44 -147.5s-15.5 -131.667 -15.5 -215c0 -91.333 6.66699 -172 20 -242
s31.5 -128.5 54.5 -175.5s50.333 -82.5 82 -106.5s66.167 -36 103.5 -36c34.667 0 65.667 9.16699 93 27.5s50.5 47 69.5 86s33.5 88.667 43.5 149s15 132.833 15 217.5zM885 602.001c0 -86 -10.168 -167.336 -30.501 -244.003s-49 -143.667 -86 -201
s-81.667 -102.833 -134 -136.5s-110.166 -50.5 -173.499 -50.5s-119 16.833 -167 50.5s-88.167 79.167 -120.5 136.5s-56.666 124.333 -72.999 201s-24.5 158 -24.5 244s10.333 167.333 31 244s49.5 143.834 86.5 201.501s81.5 103.334 133.5 137.001s109.667 50.5 173 50.5
s119 -16.667 167 -50s88.167 -78.666 120.5 -135.999s56.666 -124.5 72.999 -201.5s24.5 -158.833 24.5 -245.5z" />
    <glyph glyph-name="one" unicode="1" horiz-adv-x="961" 
d="M170 0v53.001c52 6 95.333 12.833 130 20.5s62.334 15.5 83.001 23.5s35.334 15.833 44.001 23.5s13 15.167 13 22.5v797c0 26.667 -1 47.334 -3 62.001s-7 26.667 -15 36c-4 4 -11.667 7.33301 -23 10s-27.333 3.66699 -48 3s-46.667 -3 -78 -7s-69 -10.667 -113 -20
l-21 51c28 8 61.167 19 99.5 33s77.166 29.167 116.499 45.5s76.666 32.666 111.999 48.999s64 30.5 86 42.5l37 -35v-1067c0 -6.66699 3.66699 -13.834 11 -21.501s20.333 -15.5 39 -23.5s44.167 -16 76.5 -24s73.5 -15 123.5 -21v-53h-670z" />
    <glyph glyph-name="two" unicode="2" horiz-adv-x="961" 
d="M821 0l-694.001 0.000976562l-29 74l207.5 244l151.5 187.5c42 54.333 76.667 102 104 143s49 77.667 65 110s27 61.666 33 87.999s9 52.166 9 77.499c0 30.667 -3.66699 59.5 -11 86.5s-19 50.5 -35 70.5s-36.833 35.667 -62.5 47s-56.5 17 -92.5 17
c-27.333 0 -52.5 -6.66699 -75.5 -20s-42.667 -30.166 -59 -50.499s-29.166 -43 -38.499 -68s-14 -49.167 -14 -72.5c-11.333 -6 -21.5 -11.667 -30.5 -17s-18.167 -10.166 -27.5 -14.499s-19.5 -8 -30.5 -11s-24.167 -5.16699 -39.5 -6.5l-27 30
c0 34.667 11.667 70.834 35 108.501s54.333 72.167 93 103.5s82.5 57.166 131.5 77.499s99.167 30.5 150.5 30.5c40 0 77.5 -5.66699 112.5 -17s65.5 -28.5 91.5 -51.5s46.5 -52.333 61.5 -88s22.5 -77.834 22.5 -126.501c0 -30 -4.33301 -60 -13 -90
s-22.167 -62.5 -40.5 -97.5s-42 -73.167 -71 -114.5s-64.167 -87.833 -105.5 -139.5l-143 -173.5l-184 -216h418c11.333 0 21.5 2.5 30.5 7.5s17 11.667 24 20s13 17.833 18 28.5s9.16699 21.667 12.5 33c8 26 13.667 55.667 17 89l50 -12z" />
    <glyph glyph-name="three" unicode="3" horiz-adv-x="961" 
d="M825 381c0 -56 -9.00586 -109.004 -27.0059 -159.004s-44.667 -93.667 -80 -131s-79 -66.833 -131 -88.5s-112.333 -32.5 -181 -32.5c-26 0 -52.667 2.33301 -80 7s-55.166 12.834 -83.499 24.501s-57 27 -86 46s-58.5 42.833 -88.5 71.5l34 67
c30 -22.667 57.5 -41.334 82.5 -56.001s48.667 -26.5 71 -35.5s44.5 -15.333 66.5 -19s45.667 -5.5 71 -5.5c40.667 0 77.667 6.5 111 19.5s62 31.5 86 55.5s42.5 53.167 55.5 87.5s19.5 72.833 19.5 115.5c0 50 -7.83301 92.5 -23.5 127.5s-35.667 63.5 -60 85.5
s-51.666 37.833 -81.999 47.5s-60.166 14.5 -89.499 14.5h-21c-4 0 -7.83301 -0.333008 -11.5 -1s-8 -1.33398 -13 -2.00098s-12.5 -2 -22.5 -4l-14 60c61.333 16.667 110.333 36 147 58s64.834 44.833 84.501 68.5s32.667 47.334 39 71.001s9.5 45.834 9.5 66.501
c0 22.667 -3.5 46.167 -10.5 70.5s-18 46.5 -33 66.5s-33.833 36.333 -56.5 49s-50 19 -82 19c-26.667 0 -50.5 -4.66699 -71.5 -14s-38.5 -22 -52.5 -38s-23.833 -34.333 -29.5 -55s-6.5 -42.334 -2.5 -65.001c-22.667 -11.333 -44.334 -20.166 -65.001 -26.499
s-45.334 -10.5 -74.001 -12.5l-27 31c0 28 10.333 57.833 31 89.5s48.334 60.834 83.001 87.501s74.834 48.834 120.501 66.501s93.834 26.5 144.501 26.5c50 0 92.833 -8 128.5 -24s65.167 -37.167 88.5 -63.5s40.5 -56 51.5 -89s16.5 -66.5 16.5 -100.5
c0 -25.333 -5 -50.333 -15 -75s-24.167 -48.334 -42.5 -71.001s-40.666 -43.667 -66.999 -63s-55.833 -36.333 -88.5 -51c38 -4.66699 73.5 -16.167 106.5 -34.5s61.5 -41.666 85.5 -69.999s43 -60.666 57 -96.999s21 -74.833 21 -115.5z" />
    <glyph glyph-name="four" unicode="4" horiz-adv-x="961" 
d="M585 1040l-372 -580h372v580zM874 430c-14 -21.333 -26.8311 -37.168 -38.498 -47.501s-25.167 -21.166 -40.5 -32.499h-70v-246c0 -5.33301 2 -10.166 6 -14.499s11.333 -9 22 -14s25 -10.167 43 -15.5s40.667 -11 68 -17v-43h-489v43
c43.333 7.33301 78.666 14.166 105.999 20.499s48.666 12.333 63.999 18s25.833 11.167 31.5 16.5s8.5 11 8.5 17v235h-497l-33 33l496 791c28 12 53 24.333 75 37s42.667 24 62 34l37 -35v-750h123z" />
    <glyph glyph-name="five" unicode="5" horiz-adv-x="961" 
d="M836 410c0 -58 -8.83105 -113.498 -26.498 -166.498s-43.334 -99.833 -77.001 -140.5s-75.167 -73 -124.5 -97s-105.333 -36 -168 -36c-62 0 -123.333 11.333 -184 34s-120 61 -178 115l35 67c35.333 -24.667 67.5 -44.5 96.5 -59.5s55.833 -26.667 80.5 -35
s47.334 -14 68.001 -17s40.667 -4.5 60 -4.5c43.333 0 81.166 8.33301 113.499 25s59.166 38.834 80.499 66.501s37.333 59.334 48 95.001s16 72.5 16 110.5c0 45.333 -5.5 86.666 -16.5 123.999s-27.667 69.166 -50 95.499s-50.666 46.833 -84.999 61.5
s-74.833 22 -121.5 22c-14 0 -30 -1.66699 -48 -5s-36.833 -8.33301 -56.5 -15s-39.334 -15 -59.001 -25s-38.167 -21.667 -55.5 -35l-47 33l14 83.5l16.5 100.5l17 108.5c5.66699 37 10.834 73 15.501 108s8.66699 68.167 12 99.5s5.66602 58.666 6.99902 81.999h436
c19.333 0 36.333 0.833008 51 2.5s27.334 3.83398 38.001 6.50098c12 2.66699 22.667 5.66699 32 9l29 -29c-7.33301 -10.667 -15.833 -21.834 -25.5 -33.501s-19.5 -22.834 -29.5 -33.501s-19.833 -20.5 -29.5 -29.5s-18.5 -16.5 -26.5 -22.5h-387
c-1.33301 -19.333 -3.66602 -44.166 -6.99902 -74.499s-7.16602 -61.333 -11.499 -93s-8.83301 -61.5 -13.5 -89.5s-8.33398 -49.333 -11.001 -64c26.667 8 58 14.333 94 19s71 7 105 7c60.667 0 114.167 -10.167 160.5 -30.5s85.166 -47.5 116.499 -81.5
s55.166 -73.333 71.499 -118s24.5 -91.334 24.5 -140.001z" />
    <glyph glyph-name="six" unicode="6" horiz-adv-x="961" 
d="M500 660c-34 0 -71.5 -9.49805 -112.5 -28.498s-80.167 -50.833 -117.5 -95.5c0 -79.333 6.5 -147.833 19.5 -205.5s31.5 -105.5 55.5 -143.5s53 -66.167 87 -84.5s71.667 -27.5 113 -27.5c36 0 65.833 8.5 89.5 25.5s42.667 38.667 57 65s24.5 55.666 30.5 87.999
s9 63.833 9 94.5c0 62.667 -7.5 114.167 -22.5 154.5s-33.833 72.166 -56.5 95.499s-47.5 39.5 -74.5 48.5s-52.833 13.5 -77.5 13.5zM881 412.002c0 -31.333 -3.49707 -64.001 -10.4971 -98.001s-17.667 -67.333 -32 -100s-32 -63.667 -53 -93s-45.333 -55.166 -73 -77.499
s-58.834 -40.166 -93.501 -53.499s-72.334 -20 -113.001 -20c-54.667 0 -106 12.167 -154 36.5s-90 58.5 -126 102.5s-64.333 96.833 -85 158.5s-31 130.167 -31 205.5c0 94 13.5 184.167 40.5 270.5s68.5 164.166 124.5 233.499s126.5 127.833 211.5 175.5
s185.5 79.834 301.5 96.501l19 -59c-78.667 -18 -148.5 -45.167 -209.5 -81.5s-113.333 -78.5 -157 -126.5s-79 -100.5 -106 -157.5s-45.5 -115.167 -55.5 -174.5c23.333 22.667 47.166 41.667 71.499 57s48 27.666 71 36.999s44.833 16 65.5 20s38.667 6 54 6
c54 0 102 -8.33301 144 -25s77.5 -40.5 106.5 -71.5s51.167 -68.667 66.5 -113s23 -93.833 23 -148.5z" />
    <glyph glyph-name="seven" unicode="7" horiz-adv-x="961" 
d="M885 1167l-93 -217.999l-91.5 -217l-85.5 -208l-75.5 -190l-62.5 -163c-18.667 -49.333 -33.667 -91.666 -45 -126.999c-23.333 -16.667 -47.833 -31 -73.5 -43s-55.167 -22.333 -88.5 -31l-41 33c58 102 110 199.333 156 292s88.667 182.5 128 269.5l112 256.5l108 254
h-454c-10 0 -19.667 -0.333008 -29 -1s-19 -5.16699 -29 -13.5s-20.833 -22.5 -32.5 -42.5s-24.5 -49.333 -38.5 -88l-46 18c2 15.333 4.66699 34.666 8 57.999s7 47.166 11 71.499l12 71c4 23 8 41.833 12 56.5h705z" />
    <glyph glyph-name="eight" unicode="8" horiz-adv-x="961" 
d="M275 950c0 -29.333 7.16797 -54.834 21.501 -76.501s33.5 -41 57.5 -58s51.5 -32.667 82.5 -47l96.5 -43.5c48.667 35.333 83.167 70.666 103.5 105.999s30.5 71 30.5 107c0 34.667 -5.16699 64.834 -15.5 90.501s-24.833 46.834 -43.5 63.501s-41.334 29 -68.001 37
s-56.334 12 -89.001 12c-30 0 -56 -5.66699 -78 -17s-40.167 -26.166 -54.5 -44.499s-25.166 -38.833 -32.499 -61.5s-11 -45.334 -11 -68.001zM707.001 308.999c0 44 -7.83105 81.665 -23.498 112.998s-36.167 58.333 -61.5 81s-54.333 42.334 -87 59.001
s-66.334 32.667 -101.001 48c-32 -23.333 -59.333 -46.166 -82 -68.499s-41.167 -45.166 -55.5 -68.499s-25 -48 -32 -74s-10.5 -54 -10.5 -84c0 -34.667 5.66699 -67 17 -97s27.666 -56 48.999 -78s47.166 -39.167 77.499 -51.5s64.5 -18.5 102.5 -18.5
c36.667 0 68.167 7 94.5 21s47.833 32.333 64.5 55s28.834 48.167 36.501 76.5s11.5 57.166 11.5 86.499zM867.003 351.997c0 -52 -10.999 -100.996 -32.999 -146.996s-52 -86.5 -90 -121.5s-82.167 -62.667 -132.5 -83s-103.833 -30.5 -160.5 -30.5
c-57.333 0 -108 8.66699 -152 26s-81.333 40.666 -112 69.999s-53.834 62.833 -69.501 100.5s-23.5 77.167 -23.5 118.5c0 36 6.16699 70.833 18.5 104.5s30 65.667 53 96s50.667 58.833 83 85.5s68.5 51 108.5 73c-28.667 13.333 -55.834 28 -81.501 44
s-48.167 34.667 -67.5 56s-34.666 45.833 -45.999 73.5s-17 60.167 -17 97.5c0 46 9.16699 88.667 27.5 128s43.5 73.166 75.5 101.499s69.833 50.5 113.5 66.5s90.5 24 140.5 24s94.5 -6.66699 133.5 -20s72 -31.666 99 -54.999s47.5 -51.333 61.5 -84
s21 -68.334 21 -107.001c0 -28 -5.16699 -54.5 -15.5 -79.5s-24.5 -49 -42.5 -72s-39.5 -45.167 -64.5 -66.5s-52.167 -42.333 -81.5 -63c33.333 -16 65.333 -33.833 96 -53.5s57.667 -42.834 81 -69.501s42 -57.334 56 -92.001s21 -75 21 -121z" />
    <glyph glyph-name="nine" unicode="9" horiz-adv-x="961" 
d="M481 555c46 0 88.499 12.832 127.499 38.499s72.5 59.167 100.5 100.5c-1.33301 83.333 -9.83301 153 -25.5 209s-35.167 100.833 -58.5 134.5s-49.166 57.5 -77.499 71.5s-55.833 21 -82.5 21c-34 0 -64.333 -6.83301 -91 -20.5s-49.167 -32.667 -67.5 -57
s-32.333 -53.333 -42 -87s-14.5 -70.167 -14.5 -109.5c0 -61.333 7.5 -111.5 22.5 -150.5s33.833 -69.667 56.5 -92s47.5 -37.666 74.5 -45.999s52.833 -12.5 77.5 -12.5zM869.999 730.999c0 -101.333 -13.667 -195.503 -41 -282.503s-69 -164 -125 -231
s-126.667 -123 -212 -168s-186 -75.833 -302 -92.5l-18 59c88.667 22 165.167 51 229.5 87s117.833 77.833 160.5 125.5s75.5 100.834 98.5 159.501s37.833 121.667 44.5 189c-18 -20 -37.667 -38.167 -59 -54.5s-43.5 -30.166 -66.5 -41.499s-46.667 -20.166 -71 -26.499
s-47.833 -9.5 -70.5 -9.5c-53.333 0 -100.833 8.83301 -142.5 26.5s-77 42.167 -106 73.5s-51.167 68.333 -66.5 111s-23 89 -23 139c0 33.333 4.5 67.5 13.5 102.5s22 68.833 39 101.5s37.667 63.334 62 92.001s51.5 53.667 81.5 75s62.667 38.166 98 50.499
s72.666 18.5 111.999 18.5c46.667 0 91.834 -9.66699 135.501 -29s82.5 -49.5 116.5 -90.5s61.167 -93.167 81.5 -156.5s30.5 -139.333 30.5 -228z" />
    <glyph glyph-name="colon" unicode=":" horiz-adv-x="469" 
d="M369 123c0 -23.333 -3.49902 -44.833 -10.499 -64.5s-16.667 -36.834 -29 -51.501s-27 -26.167 -44 -34.5s-35.167 -12.5 -54.5 -12.5c-36 0 -61.667 9.66699 -77 29s-23 47 -23 83c0 22.667 3.66699 43.834 11 63.501s17.333 37 30 52s27.5 26.833 44.5 35.5
s34.833 13 53.5 13c33.333 0 58.166 -9.83301 74.499 -29.5s24.5 -47.5 24.5 -83.5zM369.001 848c0 -23.333 -3.49902 -44.833 -10.499 -64.5s-16.667 -36.834 -29 -51.501s-27 -26.167 -44 -34.5s-35.167 -12.5 -54.5 -12.5c-36 0 -61.667 9.66699 -77 29s-23 47 -23 83
c0 22.667 3.66699 43.834 11 63.501s17.333 37 30 52s27.5 26.833 44.5 35.5s34.833 13 53.5 13c33.333 0 58.166 -9.83301 74.499 -29.5s24.5 -47.5 24.5 -83.5z" />
    <glyph glyph-name="semicolon" unicode=";" horiz-adv-x="469" 
d="M390 70c0 -26 -5.16699 -55.332 -15.5 -87.999s-25.166 -66 -44.499 -100s-42.833 -67.167 -70.5 -99.5s-58.834 -61.5 -93.501 -87.5l-45 35c18.667 21.333 34.5 42 47.5 62s23.833 40.667 32.5 62s15 43.833 19 67.5s6 49.834 6 78.501
c0 29.333 -9.66699 52.666 -29 69.999s-50.333 24.666 -93 21.999l-16 47c6 8 18.667 17.167 38 27.5s40.5 20.333 63.5 30s45.667 17.667 68 24s39.5 9.16602 51.5 8.49902c32 -15.333 53.5 -36.166 64.5 -62.499s16.5 -58.5 16.5 -96.5zM369 848.001
c0 -23.333 -3.49902 -44.833 -10.499 -64.5s-16.667 -36.834 -29 -51.501s-27 -26.167 -44 -34.5s-35.167 -12.5 -54.5 -12.5c-36 0 -61.667 9.66699 -77 29s-23 47 -23 83c0 22.667 3.66699 43.834 11 63.501s17.333 37 30 52s27.5 26.833 44.5 35.5s34.833 13 53.5 13
c33.333 0 58.166 -9.83301 74.499 -29.5s24.5 -47.5 24.5 -83.5z" />
    <glyph glyph-name="less" unicode="&#x3c;" horiz-adv-x="899" 
d="M838 322l-19.499 -18c-5.66699 -5.33301 -11.667 -10.5 -18 -15.5l-20.5 -15.5c-7.33301 -5.33301 -16 -11 -26 -17l-668 250l-25 24c0 1.33301 0.166992 2.33301 0.5 3s0.5 1.66699 0.5 3l3 9c0 1.33301 0.666992 4 2 8l3 13l3 8c0.666992 2 1.16699 4.16699 1.5 6.5
s1.16602 4.5 2.49902 6.5l2 8l6 18l5 12l2 4l721 270l25 -25l-6.5 -24l-7.5 -27l-8 -27l-7 -22l-555 -206l567 -210z" />
    <glyph glyph-name="equal" unicode="=" horiz-adv-x="899" 
d="M838 440c-3.33301 -14 -8 -28.498 -14 -43.498s-11 -28.833 -15 -41.5h-723l-25 27c3.33301 13.333 7.83301 27.166 13.5 41.499s11.5 28.166 17.5 41.499h721zM838 740.002c-3.33301 -13.333 -8 -27.999 -14 -43.999l-15 -41h-723l-25 25
c3.33301 13.333 7.83301 27.666 13.5 42.999s11.5 29.333 17.5 42h721z" />
    <glyph glyph-name="greater" unicode="&#x3e;" horiz-adv-x="899" 
d="M838 625c-3.33301 -12.667 -7.83496 -28.832 -13.502 -48.499s-11.5 -37.167 -17.5 -52.5l-721 -268l-25 25l7 23l8 27c2.66699 9.33301 5.33398 18.166 8.00098 26.499s5.33398 15.5 8.00098 21.5l551 206l-565 210l-17 39l44.5 34c14.333 10.667 27.5 21 39.5 31
l670 -250z" />
    <glyph glyph-name="question" unicode="?" horiz-adv-x="887" 
d="M806 1165c0 -50 -7.82812 -94.999 -23.4951 -134.999s-35.5 -77.333 -59.5 -112s-50 -67.834 -78 -99.501s-54.5 -64.334 -79.5 -98.001s-46.5 -69.5 -64.5 -107.5s-28.667 -80.667 -32 -128l-6 -96c-12.667 -9.33301 -23.834 -17.166 -33.501 -23.499
s-23.834 -12.166 -42.501 -17.499l-25 21l-8 116c-2 38 3.66699 75.833 17 113.5s30.666 74.667 51.999 111s44.833 72.333 70.5 108s49.5 70.5 71.5 104.5s40.333 67.5 55 100.5s22 65.5 22 97.5c0 82.667 -18.833 147.334 -56.5 194.001s-91.5 70 -161.5 70
c-24 0 -46.833 -5.5 -68.5 -16.5s-40.834 -25.5 -57.501 -43.5s-29.834 -39 -39.501 -63s-14.5 -49 -14.5 -75c0 -9.33301 1.16699 -19 3.5 -29s5.16602 -19.667 8.49902 -29c-21.333 -11.333 -43.666 -19.666 -66.999 -24.999s-50 -9.66602 -80 -12.999l-27 30
c-1.33301 5.33301 -2 10.666 -2 15.999v17c0 46.667 11.5 90 34.5 130s54 74.667 93 104s83.833 52.166 134.5 68.499s104 24.5 160 24.5c48.667 0 92 -7.66699 130 -23s69.833 -36.833 95.5 -64.5s45.167 -60.834 58.5 -99.501s20 -81.334 20 -128.001zM539.005 123.001
c0 -23.333 -3.49902 -44.833 -10.499 -64.5s-16.667 -36.834 -29 -51.501s-27 -26.167 -44 -34.5s-35.167 -12.5 -54.5 -12.5c-36 0 -61.667 9.66699 -77 29s-23 47 -23 83c0 22.667 3.66699 43.834 11 63.501s17.333 37 30 52s27.5 26.833 44.5 35.5s34.833 13 53.5 13
c33.333 0 58.166 -9.83301 74.499 -29.5s24.5 -47.5 24.5 -83.5z" />
    <glyph glyph-name="at" unicode="@" horiz-adv-x="1653" 
d="M1014 731c-18.667 37.333 -39.332 66.5039 -61.999 87.5039s-54 31.5 -94 31.5c-36.667 0 -70.167 -7.83301 -100.5 -23.5s-56.5 -39.167 -78.5 -70.5s-39 -70.333 -51 -117s-18 -101.334 -18 -164.001c0 -56.667 6.83301 -108.167 20.5 -154.5s31 -85.833 52 -118.5
s44.167 -57.834 69.5 -75.501s49.666 -26.5 72.999 -26.5c12.667 0 25 2.16699 37 6.5s25 12.166 39 23.499s30 26.666 48 45.999s39.667 44 65 74v481zM1583 549.004c0 -58 -6.49805 -112.495 -19.498 -163.495s-30.667 -97.833 -53 -140.5s-48 -81 -77 -115
s-59.167 -62.833 -90.5 -86.5s-63 -41.834 -95 -54.501s-62.333 -19 -91 -19c-16 0 -31.333 3.5 -46 10.5s-28 18.167 -40 33.5s-22.333 35.166 -31 59.499s-15.334 53.833 -20.001 88.5c-27.333 -38 -51.5 -69.333 -72.5 -94s-41.5 -44.334 -61.5 -59.001
s-40.333 -24.834 -61 -30.501s-44.334 -8.5 -71.001 -8.5c-34 0 -68.5 10.833 -103.5 32.5s-66.5 52.834 -94.5 93.501s-51 90.334 -69 149.001s-27 125 -27 199c0 38 4.5 77.333 13.5 118s22.167 80 39.5 118s38.666 74 63.999 108s53.833 63.833 85.5 89.5
s66.5 45.834 104.5 60.501s78.667 22 122 22c15.333 0 29.333 -1.16699 42 -3.5s25.167 -6.83301 37.5 -13.5s25.5 -16 39.5 -28s29.667 -27.667 47 -47c17.333 10.667 35 23.5 53 38.5s36.333 32.833 55 53.5l31 -30c-6 -19.333 -11 -40 -15 -62
c-4 -19.333 -7.5 -41.333 -10.5 -66s-4.5 -51 -4.5 -79v-438c0 -60 10 -104.333 30 -133s46 -43 78 -43c16.667 0 36 10.5 58 31.5s42.833 49.667 62.5 86s36.334 79 50.001 128s20.5 101.5 20.5 157.5c0 112 -14.333 211.667 -43 299s-68.5 160.666 -119.5 219.999
s-111.833 104.5 -182.5 135.5s-148.334 46.5 -233.001 46.5c-68 0 -131.667 -8.66699 -191 -26s-113.666 -41.5 -162.999 -72.5s-93.166 -67.833 -131.499 -110.5s-70.833 -89.5 -97.5 -140.5s-47 -105.333 -61 -163s-21 -116.5 -21 -176.5
c0 -80.667 8.5 -155.834 25.5 -225.501s40.667 -133.334 71 -191.001s66.666 -109 108.999 -154s88.833 -83 139.5 -114s104.667 -54.5 162 -70.5s116 -24 176 -24c56 0 110.833 5.83301 164.5 17.5s103.5 26.167 149.5 43.5s86.833 36 122.5 56s63.5 38.667 83.5 56l27 -55
c-24 -25.333 -55.167 -52 -93.5 -80s-82.666 -53.667 -132.999 -77s-106.5 -42.666 -168.5 -57.999s-129 -23 -201 -23c-114.667 0 -220 19.667 -316 59s-178.667 95.5 -248 168.5s-123.333 161.333 -162 265s-58 219.5 -58 347.5c0 75.333 10.167 149.166 30.5 221.499
s49.166 140.666 86.499 204.999s82 123.5 134 177.5s109.667 100.5 173 139.5s131.333 69.5 204 91.5s148 33 226 33c99.333 0 189.5 -16.833 270.5 -50.5s150.333 -83.5 208 -149.5s102.167 -147.833 133.5 -245.5s47 -210.5 47 -338.5z" />
    <glyph glyph-name="A" unicode="A" horiz-adv-x="1219" 
d="M758 535l-176 514l-171 -514h347zM381 445l-111.001 -334.003c-6.66699 -20.667 2.33301 -35.667 27 -45s64.334 -17 119.001 -23v-43h-416v43c45.333 8 81.333 16.333 108 25s43.334 23 50.001 43l372 1126c15.333 16.667 34.333 31.834 57 45.501
s42.667 25.167 60 34.5l420 -1206c3.33301 -9.33301 8 -17.666 14 -24.999s14 -13.666 24 -18.999s22.667 -10 38 -14s33.666 -7.33301 54.999 -10v-43h-422v43c52 3.33301 88 10 108 20s26.333 26 19 48l-114 334h-408z" />
    <glyph glyph-name="B" unicode="B" horiz-adv-x="1126" 
d="M413 1206c-9.33301 0 -18.833 -0.166016 -28.5 -0.499023s-19.5 -0.833008 -29.5 -1.5v-479h34c76 0 137.5 7.5 184.5 22.5s83.5 34.167 109.5 57.5s43.667 49.666 53 78.999s14 58.333 14 87c0 33.333 -5.5 64.333 -16.5 93s-29.5 53.5 -55.5 74.5
s-60.5 37.5 -103.5 49.5s-96.833 18 -161.5 18zM520 650.001c-32 0 -61.5 -1.50195 -88.5 -4.50195s-52.5 -6.5 -76.5 -10.5v-531c0 -5.33301 3 -10.333 9 -15c11.333 -4 24.333 -7.16699 39 -9.5s29.667 -4.16602 45 -5.49902s30.666 -2.33301 45.999 -3
s29.666 -1 42.999 -1c48 0 91.333 6.16699 130 18.5s71.834 29.5 99.501 51.5s48.834 48.5 63.501 79.5s22 65.167 22 102.5c0 36.667 -6.5 74.334 -19.5 113.001s-33 74 -60 106s-61.333 58.167 -103 78.5s-91.5 30.5 -149.5 30.5zM1016 355.999
c0 -56.667 -11.1709 -107.835 -33.5039 -153.502s-53.666 -84.5 -93.999 -116.5s-88.5 -56.667 -144.5 -74s-117.667 -26 -185 -26c-14.667 0 -32.167 0.166992 -52.5 0.5s-42.166 0.833008 -65.499 1.5l-72 2c-24.667 0.666992 -48.667 1.66699 -72 3
c-55.333 2 -113.333 4.33301 -174 7h-73v43c45.333 9.33301 80.833 19.5 106.5 30.5s38.5 21.167 38.5 30.5v1086c-25.333 -3.33301 -50.166 -6.83301 -74.499 -10.5s-47.833 -7.5 -70.5 -11.5l-9 62c26 7.33301 56.167 14.5 90.5 21.5s70.5 13.333 108.5 19
s76.667 10.334 116 14.001s77 5.5 113 5.5c66.667 0 127 -6.16699 181 -18.5s99.833 -30.166 137.5 -53.499s66.667 -51.666 87 -84.999s30.5 -71 30.5 -113c0 -72 -17 -133.833 -51 -185.5s-80.333 -88.834 -139 -111.501c42.667 -8 82.334 -23 119.001 -45
s68.5 -49.167 95.5 -81.5s48.167 -69 63.5 -110s23 -84.5 23 -130.5z" />
    <glyph glyph-name="C" unicode="C" horiz-adv-x="1098" 
d="M1018 211c-42.667 -45.333 -83.4971 -83.502 -122.497 -114.502s-76.667 -55.833 -113 -74.5s-72 -32 -107 -40s-69.833 -12 -104.5 -12c-62 0 -122.833 14 -182.5 42s-113.167 68.333 -160.5 121s-85.5 117.167 -114.5 193.5s-43.5 162.833 -43.5 259.5
c0 106.667 16.167 203.334 48.5 290.001s76.166 160.667 131.499 222s119.666 108.666 192.999 141.999s151 50 233 50c72 0 135.167 -9.66699 189.5 -29s98.833 -43 133.5 -71c4 -3.33301 3 -10 -3 -20s-14.167 -21.333 -24.5 -34s-21.333 -25.334 -33 -38.001l-29.5 -31
l-35 6c-34 31.333 -74.333 57 -121 77s-100.334 30 -161.001 30c-22.667 0 -47.5 -4.16699 -74.5 -12.5s-54.167 -21.5 -81.5 -39.5s-53.666 -41.5 -78.999 -70.5s-47.833 -64.167 -67.5 -105.5s-35.334 -89.166 -47.001 -143.499s-17.5 -116.166 -17.5 -185.499
c0 -88.667 12.833 -166.334 38.5 -233.001s58.667 -122.167 99 -166.5s85.333 -77.666 135 -99.999s98.167 -33.5 145.5 -33.5c36 0 83 12.333 141 37s123.667 67.667 197 129c3.33301 -1.33301 6.83301 -4.16602 10.5 -8.49902s7.16699 -8.83301 10.5 -13.5
s6.33301 -9.16699 9 -13.5s5 -7.5 7 -9.5z" />
    <glyph glyph-name="D" unicode="D" horiz-adv-x="1214" 
d="M453 1206c-33.333 0 -66.001 -1 -98.001 -3v-1049c0 -14.667 3.33301 -26.667 10 -36c9.33301 -11.333 27.333 -19.833 54 -25.5s66 -8.5 118 -8.5c46 0 93.5 11.167 142.5 33.5s93.833 56.333 134.5 102s74 103.167 100 172.5s39 151 39 245
c0 88.667 -11 168.167 -33 238.5s-54.167 130 -96.5 179s-94.666 86.5 -156.999 112.5s-133.5 39 -213.5 39zM1123 676c0 -83.333 -8.49902 -157.834 -25.499 -223.501s-39.833 -123.667 -68.5 -174s-61.834 -93 -99.501 -128s-77.5 -63.667 -119.5 -86
s-84.5 -38.666 -127.5 -48.999s-84.167 -15.5 -123.5 -15.5h-509v43c45.333 9.33301 80.833 19.5 106.5 30.5s38.5 21.167 38.5 30.5v1084c-26.667 -3.33301 -52 -6.66602 -76 -9.99902l-69 -10l-9 62c29.333 8 63.166 15.667 101.499 23s78.833 13.833 121.5 19.5
s85.834 10 129.501 13s85.167 4.5 124.5 4.5c92.667 0 176.334 -13.833 251.001 -41.5s138.167 -67.834 190.5 -120.501s92.666 -117 120.999 -193s42.5 -162.333 42.5 -259z" />
    <glyph glyph-name="E" unicode="E" horiz-adv-x="1016" 
d="M954 244c-5.33301 -57.333 -12.1748 -107.499 -20.5078 -150.499s-15.166 -74.167 -20.499 -93.5h-863v43c45.333 9.33301 80.833 19.5 106.5 30.5s38.5 21.167 38.5 30.5v1051c0 8 -12.167 18 -36.5 30s-60.5 22.667 -108.5 32v43h806l33 -25
c-1.33301 -17.333 -3.33301 -36.333 -6 -57s-6 -41.334 -10 -62.001s-8.16699 -40.334 -12.5 -59.001s-8.5 -34.334 -12.5 -47.001h-45c-1.33301 30.667 -4.16602 56.334 -8.49902 77.001s-9.83301 37.167 -16.5 49.5s-14.834 21 -24.501 26s-20.5 7.5 -32.5 7.5h-366v-435
h405l26 -28c-5.33301 -9.33301 -11.833 -19.333 -19.5 -30s-15.667 -21.167 -24 -31.5s-16.666 -19.833 -24.999 -28.5s-16.166 -15.667 -23.499 -21c-10 10 -20.833 18.333 -32.5 25s-25 12.334 -40 17.001s-32.667 8 -53 10s-44.5 3 -72.5 3h-141v-497
c0 -10 2.33301 -18.833 7 -26.5s14.334 -14.334 29.001 -20.001s35.334 -10 62.001 -13s62 -4.5 106 -4.5h129c30.667 0 56.834 1.66699 78.501 5s40.834 10.833 57.501 22.5s31.834 28.834 45.501 51.501s27.5 53.667 41.5 93z" />
    <glyph glyph-name="F" unicode="F" horiz-adv-x="979" 
d="M50 0l0.00292969 43.001c45.333 9.33301 80.833 19.5 106.5 30.5s38.5 21.167 38.5 30.5v1051c0 8 -12.167 18 -36.5 30s-60.5 22.667 -108.5 32v43h816l31 -25c-0.666992 -17.333 -2.33398 -36.333 -5.00098 -57s-5.83398 -41.334 -9.50098 -62.001
s-7.66699 -40.334 -12 -59.001s-8.5 -34.334 -12.5 -47.001h-47c-1.33301 30.667 -3.83301 56.334 -7.5 77.001s-9 37.167 -16 49.5s-15.333 21 -25 26s-20.834 7.5 -33.501 7.5h-374v-435h374l29 -28c-6 -9.33301 -13 -19.333 -21 -30s-16.333 -21.167 -25 -31.5
s-17.167 -19.833 -25.5 -28.5s-15.833 -15.667 -22.5 -21c-10 10 -20.667 18.333 -32 25s-24.5 12.334 -39.5 17.001s-32.667 8 -53 10s-44.5 3 -72.5 3h-112v-547c0 -8 12.833 -17 38.5 -27s71.167 -21.333 136.5 -34v-43h-480z" />
    <glyph glyph-name="G" unicode="G" horiz-adv-x="1194" 
d="M1042 1188c4.66699 -3.33301 4.00293 -9.83301 -1.99707 -19.5s-14.5 -20.5 -25.5 -32.5s-23 -23.833 -36 -35.5l-32.5 -29.5l-33 6c-22 20.667 -44.667 37.834 -68 51.501s-47.833 24.167 -73.5 31.5s-52.834 12.5 -81.501 15.5s-59.334 4.5 -92.001 4.5
c-16.667 0 -37.5 -3.83301 -62.5 -11.5s-51.333 -20 -79 -37s-55.167 -39.333 -82.5 -67s-52.166 -61.667 -74.499 -102s-40.333 -87.333 -54 -141s-20.5 -115.167 -20.5 -184.5c0 -92.667 12.333 -173.334 37 -242.001s57 -125.5 97 -170.5s85 -78.667 135 -101
s100.333 -33.5 151 -33.5c48.667 0 93.5 4.83301 134.5 14.5s77.833 23.5 110.5 41.5v339c0 7.33301 -3.16699 14.5 -9.5 21.5s-17.333 13.833 -33 20.5s-36.667 13.334 -63 20.001s-59.833 13.334 -100.5 20.001v43h461v-43c-38 -9.33301 -65 -21.5 -81 -36.5
s-24 -30.167 -24 -45.5v-331c-49.333 -40.667 -93.5 -73 -132.5 -97s-74.833 -42.5 -107.5 -55.5s-63.667 -21.5 -93 -25.5s-59 -6 -89 -6c-67.333 0 -133.666 12.5 -198.999 37.5s-123.833 63 -175.5 114s-93.5 114.667 -125.5 191s-48 166.166 -48 269.499
c0 110.667 17.5 209.834 52.5 297.501s82.833 162 143.5 223s131.5 107.5 212.5 139.5s167.167 48 258.5 48c22 0 46.167 -2.33301 72.5 -7s53.166 -11.334 80.499 -20.001s54.166 -19.334 80.499 -32.001s50.166 -27 71.499 -43z" />
    <glyph glyph-name="H" unicode="H" horiz-adv-x="1339" 
d="M50 0v42.9961c45.333 9.33301 80.833 19.5 106.5 30.5s38.5 21.167 38.5 30.5v1051c0 8 -12.167 18 -36.5 30s-60.5 22.667 -108.5 32v43h450v-43c-45.333 -9.33301 -80.833 -19.666 -106.5 -30.999s-38.5 -21.666 -38.5 -30.999v-450h610v450c0 8 -12.167 18 -36.5 30
s-60.5 22.667 -108.5 32v43h450v-43c-45.333 -9.33301 -80.833 -19.666 -106.5 -30.999s-38.5 -21.666 -38.5 -30.999v-1051c0 -8 12.167 -17.833 36.5 -29.5s60.5 -22.167 108.5 -31.5v-43h-450v43c45.333 9.33301 80.833 19.5 106.5 30.5s38.5 21.167 38.5 30.5v511h-610
v-511c0 -8 12 -17.833 36 -29.5s60.333 -22.167 109 -31.5v-43h-450z" />
    <glyph glyph-name="I" unicode="I" horiz-adv-x="610" 
d="M70 0v42.998c45.333 9.33301 80.833 19.5 106.5 30.5s38.5 21.167 38.5 30.5v1051c0 8 -12.167 18 -36.5 30s-60.5 22.667 -108.5 32v43h450v-43c-45.333 -9.33301 -80.833 -19.666 -106.5 -30.999s-38.5 -21.666 -38.5 -30.999v-1051c0 -8 12.167 -17.833 36.5 -29.5
s60.5 -22.167 108.5 -31.5v-43h-450z" />
    <glyph glyph-name="J" unicode="J" horiz-adv-x="625" 
d="M555 1217c-45.333 -9.33301 -80.833 -19.668 -106.5 -31.001s-38.5 -21.666 -38.5 -30.999v-950c0 -79.333 -5.5 -145.5 -16.5 -198.5s-25.667 -97.833 -44 -134.5s-39.5 -67.167 -63.5 -91.5s-49 -47.166 -75 -68.499c-18 -14.667 -37.833 -27.667 -59.5 -39
s-43.5 -21 -65.5 -29s-42.833 -14 -62.5 -18s-35.834 -6 -48.501 -6c-20 0 -40 3.16699 -60 9.5s-37.667 13.666 -53 21.999s-27.833 17 -37.5 26s-14.5 16.5 -14.5 22.5c0 5.33301 4.33301 13 13 23s19 20 31 30s24.667 19.5 38 28.5s24.666 15.167 33.999 18.5
c18.667 -12 35 -21.833 49 -29.5s27 -13.5 39 -17.5s23.5 -6.66699 34.5 -8s22.833 -2 35.5 -2c17.333 0 35.833 5.66699 55.5 17s37.667 31.5 54 60.5s29.833 68.833 40.5 119.5s16 115 16 193v1022c0 4 -2.66699 8.33301 -8 13s-15.166 9.66699 -29.499 15
s-34.166 10.833 -59.499 16.5s-58 11.5 -98 17.5v43h500v-43z" />
    <glyph glyph-name="K" unicode="K" horiz-adv-x="1184" 
d="M50 0l-0.000976562 42.999c45.333 9.33301 80.833 19.5 106.5 30.5s38.5 21.167 38.5 30.5v1051c0 8 -12.167 18 -36.5 30s-60.5 22.667 -108.5 32v43h450v-43c-45.333 -9.33301 -80.833 -19.666 -106.5 -30.999s-38.5 -21.666 -38.5 -30.999v-509l409 482
c15.333 18 25 32.333 29 43s2.66699 19 -4 25s-18.334 10.5 -35.001 13.5s-38 5.5 -64 7.5v43h420v-43c-21.333 -2.66699 -40.333 -5.33398 -57 -8.00098s-31.667 -6.16699 -45 -10.5s-25.5 -9.83301 -36.5 -16.5s-21.5 -15.667 -31.5 -27l-438 -484l483 -544
c12 -13.333 24.833 -23.666 38.5 -30.999s28.334 -12.5 44.001 -15.5s31.834 -4.33301 48.501 -4s33.667 1.5 51 3.5l7 -43c-39.333 -12.667 -78.833 -24.334 -118.5 -35.001s-75.5 -16 -107.5 -16c-19.333 0 -36.5 3 -51.5 9s-29.167 17.333 -42.5 34l-499 610v-535
c0 -8 12 -17.833 36 -29.5s60.333 -22.167 109 -31.5v-43h-450z" />
    <glyph glyph-name="L" unicode="L" horiz-adv-x="975" 
d="M944 244c-5.33301 -58 -12.168 -108.337 -20.501 -151.004s-15.166 -73.667 -20.499 -93h-853v43c45.333 9.33301 80.833 19.5 106.5 30.5s38.5 21.167 38.5 30.5v1051c0 8 -12.167 18 -36.5 30s-60.5 22.667 -108.5 32v43h450v-43
c-45.333 -9.33301 -80.833 -19.666 -106.5 -30.999s-38.5 -21.666 -38.5 -30.999v-991c0 -12 2.83301 -22.5 8.5 -31.5s15.5 -16.667 29.5 -23s33 -11.166 57 -14.499s54.333 -5 91 -5h143c30.667 0 56.5 1.66699 77.5 5s39.5 10.833 55.5 22.5s30.5 28.834 43.5 51.501
s26.5 53.667 40.5 93z" />
    <glyph glyph-name="M" unicode="M" horiz-adv-x="1651" 
d="M1550 1217c-19.333 0 -40.832 -3.16602 -64.499 -9.49902s-47.167 -15.166 -70.5 -26.499l10 -1077c0 -8 12.167 -17.833 36.5 -29.5s60.5 -22.167 108.5 -31.5v-43h-455v43c45.333 9.33301 82.5 19.5 111.5 30.5s43.5 21.167 43.5 30.5l-9 936l-438 -1040h-49l-445 1033
l-9 -929c0 -8 12.167 -17.833 36.5 -29.5s60.5 -22.167 108.5 -31.5v-43h-405v43c46 9.33301 81.667 19.5 107 30.5s38 21.167 38 30.5l10 1073c-25.333 14.667 -50.833 25 -76.5 31s-48.5 9 -68.5 9v43h286c6.66699 0 12.334 -1 17.001 -3s9.16699 -6 13.5 -12
s9 -14.5 14 -25.5l19.5 -43.5l398 -902l382 902c8.66699 20 15.667 35.667 21 47s10.166 19.666 14.499 24.999s8.66602 8.66602 12.999 9.99902s9.5 2 15.5 2h286v-43z" />
    <glyph glyph-name="N" unicode="N" horiz-adv-x="1329" 
d="M50 0l-0.000976562 43.001c49.333 6 85.833 15.333 109.5 28s35.5 23.667 35.5 33v1045c-22 20.667 -45.167 36.167 -69.5 46.5s-49.5 17.5 -75.5 21.5v43h212c10 0 18.167 -0.833008 24.5 -2.5s12.833 -5.16699 19.5 -10.5s13.834 -13.166 21.501 -23.499l30.5 -41.5
l657 -906v879c0 8 -10.833 18.5 -32.5 31.5s-59.167 23.167 -112.5 30.5v43h410v-43c-48 -6.66699 -84.167 -16.334 -108.5 -29.001s-36.5 -23.667 -36.5 -33v-1185c-33.333 4 -59.5 10.667 -78.5 20s-32.5 19.666 -40.5 30.999l-701 972v-889c0 -8 11.167 -18.333 33.5 -31
s59.5 -22.667 111.5 -30v-43h-410z" />
    <glyph glyph-name="O" unicode="O" horiz-adv-x="1229" 
d="M983 629c0 46 -4.16895 91.502 -12.502 136.502s-20.166 87.667 -35.499 128s-34.166 77.666 -56.499 111.999s-47.5 64 -75.5 89s-58.667 44.667 -92 59s-69 21.5 -107 21.5c-59.333 0 -112.5 -12.5 -159.5 -37.5s-86.667 -60.667 -119 -107
s-57.166 -102.5 -74.499 -168.5s-26 -139.667 -26 -221c0 -74.667 10.167 -145.334 30.5 -212.001s47.666 -125.167 81.999 -175.5s74.5 -90.166 120.5 -119.499s94.667 -44 146 -44c55.333 0 106.166 11.5 152.499 34.5s86.333 57.167 120 102.5
s59.834 101.666 78.501 168.999s28 145 28 233zM1138 647.002c0 -90.667 -15.0029 -176.832 -45.0029 -258.499s-70.833 -153.5 -122.5 -215.5s-111.5 -111.333 -179.5 -148s-140 -55 -216 -55c-80 0 -151.333 17.667 -214 53s-115.5 82.666 -158.5 141.999
s-75.833 127.666 -98.5 204.999s-34 158 -34 242c0 90.667 14.667 177 44 259s69.333 154 120 216s110.167 111.333 178.5 148s141.833 55 220.5 55c82.667 0 155.334 -18.167 218.001 -54.5s115.334 -84.5 158.001 -144.5s74.834 -128.667 96.501 -206
s32.5 -156.666 32.5 -237.999z" />
    <glyph glyph-name="P" unicode="P" horiz-adv-x="1071" 
d="M50 0l-0.00585938 43.0029c45.333 9.33301 80.833 19.5 106.5 30.5s38.5 21.167 38.5 30.5v1086c-24.667 -3.33301 -49.167 -6.83301 -73.5 -10.5s-48.166 -7.5 -71.499 -11.5l-9 62c32 8.66699 66.833 16.667 104.5 24s76.834 13.666 117.501 18.999
s81.834 9.5 123.501 12.5s82.834 4.5 123.501 4.5c72 0 137 -7.66699 195 -23s107.5 -38 148.5 -68s72.667 -67 95 -111s33.5 -94.667 33.5 -152c0 -46 -6.5 -88 -19.5 -126s-30.333 -71.833 -52 -101.5s-46.5 -55.334 -74.5 -77.001s-57.167 -39.667 -87.5 -54
s-60.666 -25 -90.999 -32s-58.5 -10.5 -84.5 -10.5c-62.667 0 -116.334 10 -161.001 30l-23 75c28 -12.667 54.833 -20.834 80.5 -24.501s50.167 -5.5 73.5 -5.5c30.667 0 62.667 6 96 18s64 30 92 54s51 53.667 69 89s27 76.666 27 123.999
c0 54.667 -9.83301 101.667 -29.5 141s-46.5 71.5 -80.5 96.5s-73.667 43.5 -119 55.5s-93.666 18 -144.999 18c-16.667 0 -33.167 -0.166992 -49.5 -0.5s-32.5 -0.833008 -48.5 -1.5v-1100c0 -4 2.66699 -8.33301 8 -13s14.5 -9.66699 27.5 -15
s30.833 -10.666 53.5 -15.999s51.334 -11 86.001 -17v-43h-480z" />
    <glyph glyph-name="Q" unicode="Q" horiz-adv-x="1229" 
d="M983 629c0 46 -4.16895 91.502 -12.502 136.502s-20.166 87.667 -35.499 128s-34.166 77.666 -56.499 111.999s-47.5 64 -75.5 89s-58.667 44.667 -92 59s-69 21.5 -107 21.5c-59.333 0 -112.5 -12.5 -159.5 -37.5s-86.667 -60.667 -119 -107
s-57.166 -102.5 -74.499 -168.5s-26 -139.667 -26 -221c0 -74.667 10.167 -145.334 30.5 -212.001s47.666 -125.167 81.999 -175.5s74.5 -90.166 120.5 -119.499s94.667 -44 146 -44c55.333 0 106.166 11.5 152.499 34.5s86.333 57.167 120 102.5
s59.834 101.666 78.501 168.999s28 145 28 233zM1282 -116.998c-16 -29.333 -32.3369 -55.5 -49.0039 -78.5s-33 -42.667 -49 -59s-31.167 -28.833 -45.5 -37.5s-26.5 -13 -36.5 -13c-41.333 0 -82.166 10.167 -122.499 30.5s-80.5 45 -120.5 74l-119.5 91
c-39.667 31.667 -79.5 59.167 -119.5 82.5c-15.333 -2 -30.333 -3 -45 -3c-73.333 0 -141 17 -203 51s-115.333 80 -160 138s-79.5 126 -104.5 204s-37.5 161 -37.5 249c0 90.667 14.667 177 44 259s69.333 154 120 216s110.167 111.333 178.5 148s141.833 55 220.5 55
c82.667 0 155.334 -18.167 218.001 -54.5s115.334 -84.5 158.001 -144.5s74.834 -128.667 96.501 -206s32.5 -156.666 32.5 -237.999c0 -70.667 -9.33301 -139 -28 -205s-44.667 -126.833 -78 -182.5s-72.833 -104.834 -118.5 -147.501s-95.167 -76 -148.5 -100
c30.667 -16 61.167 -34 91.5 -54s60 -38.667 89 -56s57.167 -32 84.5 -44s53.333 -18 78 -18c8 0 16.5 1.33301 25.5 4s19.167 7 30.5 13s24.333 14 39 24l52 37z" />
    <glyph glyph-name="R" unicode="R" horiz-adv-x="1149" 
d="M50 0l-0.00195312 43c45.333 9.33301 80.833 19.5 106.5 30.5s38.5 21.167 38.5 30.5v1085l-71.5 -10.5c-24.333 -3.66699 -48.833 -7.16699 -73.5 -10.5l-9 62c31.333 8 63 15.5 95 22.5s65.333 13.333 100 19s71.167 10.167 109.5 13.5s79.5 5 123.5 5
c77.333 0 144.666 -7.66699 201.999 -23s105 -36.666 143 -63.999s66.333 -59.5 85 -96.5s28 -76.833 28 -119.5c0 -48 -6.83301 -91.5 -20.5 -130.5s-33 -73.5 -58 -103.5s-54.833 -55.667 -89.5 -77s-72.667 -38.333 -114 -51l303 -486
c10 -14.667 20.833 -26.334 32.5 -35.001s24.667 -15.167 39 -19.5s30.333 -6.66602 48 -6.99902s37.834 0.5 60.501 2.5l11 -43c-44 -14.667 -85.833 -26.834 -125.5 -36.501s-72.5 -14.5 -98.5 -14.5c-19.333 0 -38.166 5.33301 -56.499 16s-32.166 23.667 -41.499 39
l-303 561c-8.66699 -1.33301 -17.334 -2 -26.001 -2h-27c-17.333 0 -34.666 0.833008 -51.999 2.5s-35.333 4.5 -54 8.5v-507c0 -8 12 -17.833 36 -29.5s60.333 -22.167 109 -31.5v-43h-450zM431.998 1206c-25.333 0 -51 -1.00098 -77 -3.00098v-512
c18 -3.33301 33.667 -5.33301 47 -6s27.333 -1 42 -1c105.333 0 186.333 23.167 243 69.5s85 113.833 85 202.5c0 36.667 -6.5 70.334 -19.5 101.001s-33.333 57 -61 79s-63 39.167 -106 51.5s-94.167 18.5 -153.5 18.5z" />
    <glyph glyph-name="S" unicode="S" horiz-adv-x="975" 
d="M885 377c0 -30 -4.00195 -60.668 -12.002 -92.001s-20.167 -62.166 -36.5 -92.499s-36.666 -59 -60.999 -86s-53 -50.5 -86 -70.5s-70.333 -36 -112 -48s-87.5 -18 -137.5 -18c-22 0 -46 2.33301 -72 7s-52.667 11.167 -80 19.5s-54.5 18.5 -81.5 30.5
s-52.167 25.667 -75.5 41c-4.66699 2.66699 -8.16699 14 -10.5 34s-3.5 43.5 -3.5 70.5s1 54.5 3 82.5s5.66699 51 11 69l41 -5c15.333 -39.333 34.5 -73.333 57.5 -102s48.5 -52.5 76.5 -71.5s58.167 -33 90.5 -42s65.5 -13.5 99.5 -13.5c30 0 60.167 6.16699 90.5 18.5
s57.5 29.166 81.5 50.499s43.667 46.166 59 74.499s23 58.5 23 90.5c0 40.667 -9 75.667 -27 105s-41.5 55.333 -70.5 78s-62.167 43 -99.5 61l-114.5 54c-39 18 -77.167 37 -114.5 57s-70.5 43.333 -99.5 70s-52.5 57.5 -70.5 92.5s-27 76.833 -27 125.5
c0 20.667 3 43 9 67s15.667 48 29 72s30.5 47.167 51.5 69.5s46.333 42 76 59s63.834 30.5 102.501 40.5s82.334 15 131.001 15c30 0 60.167 -2.33301 90.5 -7s58.666 -11 84.999 -19s50.166 -17.667 71.499 -29s38 -23.666 50 -36.999
c4.66699 -4 4.83398 -11.833 0.500977 -23.5s-11 -24.334 -20 -38.001s-19 -27.167 -30 -40.5s-20.5 -23.666 -28.5 -30.999l-36 6c-18.667 22 -38.167 40.5 -58.5 55.5s-41 27.333 -62 37s-41.833 16.5 -62.5 20.5s-40.334 6 -59.001 6
c-37.333 0 -69.166 -5.66699 -95.499 -17s-48 -25.5 -65 -42.5s-29.5 -36 -37.5 -57s-12 -40.833 -12 -59.5c0 -31.333 9 -59.166 27 -83.499s41.667 -46.666 71 -66.999s62.833 -39.5 100.5 -57.5l115.5 -56.5c39.333 -19.667 77.833 -40.834 115.5 -63.501
s71.167 -48.667 100.5 -78s53 -62.833 71 -100.5s27 -81.167 27 -130.5z" />
    <glyph glyph-name="T" unicode="T" horiz-adv-x="1128" 
d="M307 0l-0.00195312 42.998c30.667 6 56.5 12.333 77.5 19s37.833 13.167 50.5 19.5s21.834 12.333 27.501 18s8.5 10.834 8.5 15.501v1055h-299c-10 0 -19.167 -1.83301 -27.5 -5.5s-16.666 -11.5 -24.999 -23.5s-17.833 -29.667 -28.5 -53s-23.334 -54.333 -38.001 -93
l-43 19c3.33301 39.333 7.83301 81.333 13.5 126s12.167 84.667 19.5 120h1010l30 -25c-1.33301 -34 -4.66602 -71.167 -9.99902 -111.5s-12 -81.5 -20 -123.5h-45l-17.5 78.5c-5 21.667 -10.833 39.334 -17.5 53.001s-14.5 23.5 -23.5 29.5s-20.5 9 -34.5 9h-284v-1055
c0 -8.66699 12 -19.667 36 -33s66.667 -26.333 128 -39v-43h-488z" />
    <glyph glyph-name="U" unicode="U" horiz-adv-x="1339" 
d="M1275 1217c-45.333 -9.33301 -80.8301 -19.6689 -106.497 -31.002s-38.5 -21.666 -38.5 -30.999v-631c0 -87.333 -10.667 -165.333 -32 -234s-52 -126.667 -92 -174s-88.667 -83.5 -146 -108.5s-122 -37.5 -194 -37.5c-68.667 0 -131.834 9.5 -189.501 28.5
s-107.334 48 -149.001 87s-74.167 88.167 -97.5 147.5s-35 129.666 -35 210.999v711c0 8 -12.167 18 -36.5 30s-60.5 22.667 -108.5 32v43h450v-43c-45.333 -9.33301 -80.833 -19.666 -106.5 -30.999s-38.5 -21.666 -38.5 -30.999v-661c0 -64 7.5 -121.333 22.5 -172
s37.333 -93.5 67 -128.5s66.167 -61.833 109.5 -80.5s93.666 -28 150.999 -28c47.333 0 89.333 11.5 126 34.5s67.5 53.167 92.5 90.5s44 79.833 57 127.5s19.5 96.167 19.5 145.5v672c0 8 -12.167 18 -36.5 30s-60.5 22.667 -108.5 32v43h420v-43z" />
    <glyph glyph-name="V" unicode="V" horiz-adv-x="1331" 
d="M1290 1217c-45.333 -8.66699 -80.8281 -17.167 -106.495 -25.5s-41.834 -21.833 -48.501 -40.5l-383 -1092c-5.33301 -14.667 -14.5 -27.167 -27.5 -37.5s-27.167 -19 -42.5 -26s-30.333 -12.5 -45 -16.5s-26.334 -7 -35.001 -9l-440 1181
c-6.66699 17.333 -21.5 31.333 -44.5 42s-55.5 18.667 -97.5 24v43h435v-43c-53.333 -4 -89.833 -10.833 -109.5 -20.5s-25.834 -24.167 -18.501 -43.5l353 -950l336 948c7.33301 19.333 -0.833984 33.5 -24.501 42.5s-62.834 16.833 -117.501 23.5v43h416v-43z" />
    <glyph glyph-name="W" unicode="W" horiz-adv-x="1741" 
d="M1702 1217c-29.333 -6 -53.667 -11.6689 -73 -17.002s-34.666 -10.5 -45.999 -15.5s-19.5 -9.83301 -24.5 -14.5s-7.83301 -9.66699 -8.5 -15l-229 -1096c-3.33301 -14 -10.5 -26.167 -21.5 -36.5s-23.5 -19 -37.5 -26s-28.333 -12.667 -43 -17s-27 -7.5 -37 -9.5
l-326 974l-287 -885c-4.66699 -14 -12.667 -26 -24 -36s-24.166 -18.5 -38.499 -25.5s-29.333 -12.667 -45 -17s-30.167 -7.83301 -43.5 -10.5l-260 1177c-3.33301 16.667 -15.333 30.334 -36 41.001s-54.667 20.334 -102 29.001v43h429v-43
c-32.667 -3.33301 -58.334 -7.5 -77.001 -12.5s-32.667 -10.5 -42 -16.5s-14.833 -12.5 -16.5 -19.5s-1.83398 -14.167 -0.500977 -21.5l199 -897l324 1010h55l354 -1010l187 905c1.33301 8 -1.66699 15 -9 21s-18 11.333 -32 16s-30.667 9 -50 13s-40.333 8 -63 12v43h424
v-43z" />
    <glyph glyph-name="X" unicode="X" horiz-adv-x="1260" 
d="M778 0l0.000976562 43.0059c29.333 2.66699 53 6.16699 71 10.5s31 9.66602 39 15.999s11.5 14.166 10.5 23.499s-6.16699 20.666 -15.5 33.999l-279 408l-252 -408c-18.667 -29.333 -17.167 -49.666 4.5 -60.999s63.167 -19 124.5 -23v-43h-450v43
c43.333 3.33301 80.333 11.166 111 23.499s54.334 32.5 71.001 60.5l317 517l-333 489c-10 14.667 -19.667 26.667 -29 36s-19.833 17 -31.5 23s-25 10.833 -40 14.5s-33.5 7.16699 -55.5 10.5v43h451v-43c-56.667 -5.33301 -93.667 -13.5 -111 -24.5s-16 -30.833 4 -59.5
l247 -363l226 363c9.33301 15.333 13.333 27.833 12 37.5s-7.66602 17.667 -18.999 24s-27.333 11.166 -48 14.499s-46 6 -76 8v43h453v-43c-24 -2.66699 -45.5 -5.83398 -64.5 -9.50098s-35.833 -8.66699 -50.5 -15s-27.5 -14.333 -38.5 -24s-20.833 -21.5 -29.5 -35.5
l-291 -471l365 -535c10 -14 20.167 -25.833 30.5 -35.5s21.666 -17.667 33.999 -24s26.166 -11.333 41.499 -15s32.666 -6.83398 51.999 -9.50098v-43h-451z" />
    <glyph glyph-name="Y" unicode="Y" horiz-adv-x="1217" 
d="M360 0l-0.00292969 43.0039c60.667 12.667 103.167 25.5 127.5 38.5s36.5 24.167 36.5 33.5v422c-24.667 54 -52.667 110.333 -84 169s-63.333 115.667 -96 171l-95 154.5c-30.667 47.667 -57.667 87.5 -81 119.5c-6 7.33301 -12.833 14.333 -20.5 21
s-17.5 12.5 -29.5 17.5s-27 9 -45 12s-41 4.5 -69 4.5l-4 43c39.333 5.33301 78.666 10.166 117.999 14.499s73 6.5 101 6.5c30.667 0 56.667 -13 78 -39c24.667 -32 51.334 -69.833 80.001 -113.5s57.334 -89.834 86.001 -138.501s56.667 -98.667 84 -150l76 -149l268 471
c10 17.333 6.83301 31 -9.5 41s-50.166 18.333 -101.499 25v43h396v-43c-46 -8.66699 -81.167 -17.5 -105.5 -26.5s-41.166 -22.167 -50.499 -39.5l-336 -610v-426c0 -4 2.83301 -8.83301 8.5 -14.5s15 -11.834 28 -18.501s30 -13.334 51 -20.001s47.167 -13 78.5 -19v-43
h-490z" />
    <glyph glyph-name="Z" unicode="Z" horiz-adv-x="1071" 
d="M991 293c-1.33301 -21.333 -2.49805 -44.999 -3.49805 -70.999l-3 -78.5l-3 -77c-1 -25 -1.83301 -47.167 -2.5 -66.5h-891l-29 45l711 1115h-459c-10.667 0 -22.334 -3.66699 -35.001 -11s-25 -19 -37 -35s-23.333 -36.5 -34 -61.5s-19.667 -54.833 -27 -89.5l-57 12
l29 301c18 -4 34.5 -7.16699 49.5 -9.5s29.667 -4 44 -5s29.166 -1.5 44.499 -1.5h668l25 -43l-705 -1117h523c14 0 26.667 3.16699 38 9.5s22.166 17.166 32.499 32.499s20.833 36.333 31.5 63s22.334 60.667 35.001 102z" />
    <glyph glyph-name="bracketleft" unicode="[" horiz-adv-x="631" 
d="M590 -249c-3.33301 -13.333 -7.66895 -28.168 -13.002 -44.501s-10.666 -30.166 -15.999 -41.499h-421v1935h415l33 -26c-3.33301 -16.667 -7.66602 -33.667 -12.999 -51s-10 -30 -14 -38h-281v-1705h275z" />
    <glyph glyph-name="backslash" unicode="\" horiz-adv-x="961" 
d="M870 -335c-8 2.66699 -17.333 6 -28 10l-32 12.5c-10.667 4.33301 -20.834 9 -30.501 14s-17.5 9.83301 -23.5 14.5l-701 1862l37 22c38.667 -10 76.334 -26.333 113.001 -49l700 -1861z" />
    <glyph glyph-name="bracketright" unicode="]" horiz-adv-x="631" 
d="M76 -335l-33.001 28.998c2 15.333 5.5 31.333 10.5 48s9.83301 29.334 14.5 38.001h282v1705h-274l-35 26c2 14.667 5.83301 30.334 11.5 47.001s10.834 30.667 15.501 42h422v-1935h-414z" />
    <glyph glyph-name="asciicircum" unicode="^" horiz-adv-x="1008" 
d="M907 635c-16.667 -15.333 -32.833 -28.168 -48.5 -38.501s-34.834 -20.833 -57.501 -31.5l-37 27l-283 723l-250 -680c-7.33301 -6.66699 -15.666 -13.5 -24.999 -20.5s-19 -13.667 -29 -20s-19.833 -12 -29.5 -17l-24.5 -12.5l-23 27l322 870
c8 8 17.833 16.167 29.5 24.5l35.5 24.5c12 8 24 15.333 36 22s22.667 12.334 32 17.001z" />
    <glyph glyph-name="underscore" unicode="_" horiz-adv-x="961" 
d="M897 -156c-3.33301 -14 -7.66797 -29.332 -13.001 -45.999s-10.666 -31.334 -15.999 -44.001h-782l-25 27c3.33301 13.333 7.83301 28 13.5 44s11.5 30.667 17.5 44h782z" />
    <glyph glyph-name="grave" unicode="`" horiz-adv-x="653" 
d="M438 1078c-6 -5.33301 -14 -10.999 -24 -16.999s-20.667 -10.667 -32 -14l-352 377l22 41c6.66699 1.33301 16.5 3.16602 29.5 5.49902l41 7.5c14.333 2.66699 28.5 5 42.5 7s25 3.33301 33 4z" />
    <glyph glyph-name="a" unicode="a" horiz-adv-x="940" 
d="M352 100c40 0 82.5 10.1689 127.5 30.502s92.833 52.5 143.5 96.5v259c-56 -9.33301 -102.167 -18.333 -138.5 -27s-66.166 -17.5 -89.499 -26.5s-42 -18.5 -56 -28.5s-26.333 -20.667 -37 -32c-17.333 -18 -31.333 -38.5 -42 -61.5s-16 -50.167 -16 -81.5
c0 -26.667 4 -48.334 12 -65.001s17.667 -29.834 29 -39.501s23.166 -16.167 35.499 -19.5s22.833 -5 31.5 -5zM926 82.002c-56.667 -39.333 -103.502 -67.8301 -140.502 -85.4971s-64.833 -26.5 -83.5 -26.5c-22 0 -40.333 15.333 -55 46s-22.667 73 -24 127
c-30 -30 -60 -56 -90 -78s-59.333 -40 -88 -54s-55.834 -24.333 -81.501 -31s-49.167 -10 -70.5 -10c-24 0 -48.667 4 -74 12s-48.166 20.667 -68.499 38s-37.166 39.666 -50.499 66.999s-20 60.333 -20 99c0 50.667 8.83301 93 26.5 127s38.834 63.333 63.501 88
c16 16 34.167 31.167 54.5 45.5s47.333 28.166 81 41.499s75.834 26 126.501 38s114.334 23.667 191.001 35v141c0 22.667 -2.66699 43.834 -8 63.501s-14.333 36.667 -27 51s-29.834 25.333 -51.501 33s-48.834 11.167 -81.501 10.5
c-21.333 -0.666992 -42.333 -4.33398 -63 -11.001s-38.667 -16 -54 -28s-27.333 -26.167 -36 -42.5s-12 -34.5 -10 -54.5c0.666992 -6 -6.16602 -12.833 -20.499 -20.5s-31.333 -14.5 -51 -20.5s-39 -10.667 -58 -14s-32.5 -4 -40.5 -2l-14 39
c15.333 33.333 38.666 65.333 69.999 96s67.166 57.667 107.499 81s83 42 128 56s88.5 21 130.5 21c73.333 0 129.833 -19.167 169.5 -57.5s59.5 -91.833 59.5 -160.5v-564c0 -28 3.66699 -48 11 -60s17 -18 29 -18c9.33301 0 21.333 1.66699 36 5
s35.334 10.666 62.001 21.999z" />
    <glyph glyph-name="b" unicode="b" horiz-adv-x="1040" 
d="M950 492c0 -38.667 -5 -78.334 -15 -119.001s-24.667 -80.334 -44 -119.001s-43 -75.334 -71 -110.001s-59.833 -64.834 -95.5 -90.501s-74.834 -46 -117.501 -61s-88.667 -22.5 -138 -22.5c-12.667 0 -30.167 2.83301 -52.5 8.5s-48 13.834 -77 24.501
s-60.5 23.834 -94.5 39.501s-69 33.5 -105 53.5v1200c0 30.667 -1.66699 54.334 -5 71.001s-9.66602 29.167 -18.999 37.5s-22.5 13.833 -39.5 16.5s-39.167 5.66699 -66.5 9v40c44 10.667 86 21.5 126 32.5s79 26.833 117 47.5l10 -10c4 -4 8 -7.66699 12 -11l15 -13v-789
c33.333 40 66.5 74.667 99.5 104s64.667 53.5 95 72.5s58.5 33.167 84.5 42.5s48.667 14 68 14c45.333 0 87.166 -10.667 125.499 -32s71.333 -52.166 99 -92.499s49.334 -89.5 65.001 -147.5s23.5 -123.333 23.5 -196zM815 408c0 66.667 -6.83398 125.832 -20.501 177.499
s-32 95.167 -55 130.5s-49.5 62.333 -79.5 81s-61 28 -93 28c-12 0 -27.833 -3.5 -47.5 -10.5s-41.834 -18.667 -66.501 -35s-51 -38.333 -79 -66s-56 -62.167 -84 -103.5v-407c26.667 -20 53.834 -36.667 81.501 -50s54 -23.833 79 -31.5s47.667 -13.167 68 -16.5
s36.5 -5 48.5 -5c40.667 0 76.334 8.83301 107.001 26.5s56.5 41 77.5 70s36.833 61.833 47.5 98.5s16 74.334 16 113.001z" />
    <glyph glyph-name="c" unicode="c" horiz-adv-x="895" 
d="M840 190c-43.333 -51.333 -81.501 -91.501 -114.501 -120.501s-63.5 -51 -91.5 -66s-55.333 -24.333 -82 -28s-55.667 -5.5 -87 -5.5c-48.667 0 -96.167 10.833 -142.5 32.5s-87.5 52.834 -123.5 93.501s-64.833 90.334 -86.5 149.001s-32.5 125 -32.5 199
c0 72 13.167 139.333 39.5 202s62.333 117.167 108 163.5s99.5 83 161.5 110s129 40.5 201 40.5c22 0 44.5 -1.83301 67.5 -5.5s45 -9 66 -16s40.333 -15.333 58 -25s32.167 -20.5 43.5 -32.5c1.33301 -8 0.333008 -19.333 -3 -34s-8 -30.167 -14 -46.5s-12.667 -32 -20 -47
s-14 -27.167 -20 -36.5l-37 10c-5.33301 12 -14 25 -26 39s-27.5 27.333 -46.5 40s-41.667 23.167 -68 31.5s-56.5 12.5 -90.5 12.5c-35.333 0 -69.166 -7.83301 -101.499 -23.5s-61 -39.167 -86 -70.5s-45 -70.333 -60 -117s-22.5 -101.334 -22.5 -164.001
c0 -56.667 8.5 -108.167 25.5 -154.5s39.667 -85.833 68 -118.5s61 -57.834 98 -75.501s75.5 -26.5 115.5 -26.5c18.667 0 36 0.833008 52 2.5s33.5 6.83398 52.5 15.501s41 21.667 66 39s56.167 42 93.5 74z" />
    <glyph glyph-name="d" unicode="d" horiz-adv-x="1065" 
d="M1051 84c-30.667 -20.667 -57.834 -38.1689 -81.501 -52.502s-44.334 -26 -62.001 -35s-32.834 -15.667 -45.501 -20s-23.667 -6.5 -33 -6.5c-22 0 -40 15 -54 45s-23.333 81.333 -28 154c-25.333 -30.667 -50.5 -58.334 -75.5 -83.001s-50.667 -45.5 -77 -62.5
s-54.166 -30.167 -83.499 -39.5s-61 -14 -95 -14c-37.333 0 -75.666 10.833 -114.999 32.5s-75.5 52.834 -108.5 93.501s-60 90.334 -81 149.001s-31.5 125 -31.5 199c0 38 5.16699 77.333 15.5 118s25.166 80 44.499 118s43 74 71 108s59.333 63.833 94 89.5
s72.667 45.834 114 60.501s85.333 22 132 22c31.333 0 62.5 -3.83301 93.5 -11.5s64.5 -24.834 100.5 -51.501v377c0 36.667 -1 65.834 -3 87.501s-7.66699 38.334 -17 50.001s-23.666 19.667 -42.999 24s-46.666 7.83301 -81.999 10.5v39
c54.667 7.33301 103.667 17.166 147 29.499s82.333 24.166 117 35.499l31 -30v-1266c0 -23.333 0.5 -43.333 1.5 -60s2.5 -30.667 4.5 -42s4.33301 -20.666 7 -27.999s6 -13.333 10 -18c6 -7.33301 17.5 -9.5 34.5 -6.5s45.5 12.167 85.5 27.5zM745 260.998
l0.00292969 469.002c-22 38 -53 67.5 -93 88.5s-84 31.5 -132 31.5c-42.667 0 -81.667 -7.83301 -117 -23.5s-65.833 -39.167 -91.5 -70.5s-45.667 -70.333 -60 -117s-21.5 -101.334 -21.5 -164.001c0 -56.667 8.16699 -108.167 24.5 -154.5s37.166 -85.833 62.499 -118.5
s53.166 -57.834 83.499 -75.501s59.166 -26.5 86.499 -26.5c22.667 0 45 4.66699 67 14s43.667 21.5 65 36.5s42.5 32.167 63.5 51.5z" />
    <glyph glyph-name="e" unicode="e" horiz-adv-x="946" 
d="M496 855c-34.667 0 -66.5 -6.66699 -95.5 -20s-54.667 -32.166 -77 -56.499s-41 -53.333 -56 -87s-25.5 -70.834 -31.5 -111.501h428c15.333 0 25.5 2.5 30.5 7.5s7.5 14.5 7.5 28.5c0 18 -2.5 40.5 -7.5 67.5s-15 53.333 -30 79s-36 47.5 -63 65.5s-62.167 27 -105.5 27
zM866 557c-12 -13.333 -28.002 -25.665 -48.002 -36.998s-40.667 -21.333 -62 -30h-526c0.666992 -52 7.83398 -101.5 21.501 -148.5s33.334 -88.333 59.001 -124s56.667 -64.167 93 -85.5s77.166 -32 122.499 -32c20.667 0 40.834 1.33301 60.501 4
s40.834 8.66699 63.501 18s47.834 23 75.501 41s60.167 42.333 97.5 73c8.66699 -4.66699 16.167 -11.334 22.5 -20.001s11.166 -15.667 14.499 -21c-44.667 -48.667 -83.834 -87.834 -117.501 -117.501s-65.334 -52.5 -95.001 -68.5s-59 -26.5 -88 -31.5
s-60.5 -7.5 -94.5 -7.5c-51.333 0 -100.166 11 -146.499 33s-87.166 53.167 -122.499 93.5s-63.5 89 -84.5 146s-31.5 120.833 -31.5 191.5c0 44.667 5 88.667 15 132s24.5 84.333 43.5 123s42.167 74.334 69.5 107.001s58.333 61 93 85c14.667 10 31.167 19.833 49.5 29.5
s37.5 18.167 57.5 25.5s39.833 13.166 59.5 17.499s38.5 6.5 56.5 6.5c43.333 0 82 -6 116 -18s63.667 -28.167 89 -48.5s46.666 -44 63.999 -71s31.5 -55.5 42.5 -85.5s18.833 -60.5 23.5 -91.5s7 -60.5 7 -88.5z" />
    <glyph glyph-name="f" unicode="f" horiz-adv-x="637" 
d="M817 1454c0 -5.33301 -4.83301 -13.3301 -14.5 -23.9971s-21.167 -21.667 -34.5 -33s-27.166 -22 -41.499 -32s-26.5 -17.333 -36.5 -22c-16 14 -32.167 26.167 -48.5 36.5s-32 18.833 -47 25.5s-29 11.667 -42 15s-23.833 5 -32.5 5
c-17.333 0 -35.833 -5.83301 -55.5 -17.5s-38 -32.834 -55 -63.501s-31.167 -72.334 -42.5 -125.001s-17 -120.334 -17 -203.001v-86h258l29 -29c-6 -9.33301 -13.5 -19.333 -22.5 -30s-18 -20.667 -27 -30s-17.833 -17.833 -26.5 -25.5s-16 -12.834 -22 -15.501
c-15.333 8 -37.333 15.833 -66 23.5s-69.667 11.5 -123 11.5v-733c0 -4 3.5 -8 10.5 -12s18.833 -8.16699 35.5 -12.5s38.167 -9.33301 64.5 -15s59.166 -12.167 98.499 -19.5v-43h-499v43c46 8 80.833 17.833 104.5 29.5s35.5 21.5 35.5 29.5v733h-134l-21 28l78 67h77v31
c0 78.667 5.33301 144.834 16 198.501s25.167 99 43.5 136s39.5 68 63.5 93s49.333 48.167 76 69.5c18 14.667 37.667 27.667 59 39s42.5 21 63.5 29s41 14 60 18s34.833 6 47.5 6c20.667 0 42 -4 64 -12s42.167 -17.167 60.5 -27.5s33.5 -20.833 45.5 -31.5s18 -19 18 -25z
" />
    <glyph glyph-name="g" unicode="g" horiz-adv-x="999" 
d="M690 600c0 35.333 -5.83105 68.832 -17.498 100.499s-29 59.334 -52 83.001s-51.667 42.334 -86 56.001s-73.833 20.5 -118.5 20.5c-16.667 0 -35.167 -4.33301 -55.5 -13s-39.5 -21.334 -57.5 -38.001s-33 -37.667 -45 -63s-18 -54.333 -18 -87
c0 -35.333 5.5 -68.833 16.5 -100.5s27.667 -59.167 50 -82.5s50.666 -41.833 84.999 -55.5s75.166 -20.5 122.499 -20.5c19.333 0 39.5 4.16699 60.5 12.5s40 21 57 38s31 37.833 42 62.5s16.5 53.667 16.5 87zM518.002 -4.00098
c-25.333 2.66699 -48.665 5.66406 -69.998 8.99707s-41.333 7 -60 11c-48 -26 -85.833 -49.333 -113.5 -70s-48.5 -39.167 -62.5 -55.5s-22.833 -31.166 -26.5 -44.499s-5.5 -25.333 -5.5 -36c0 -28 9.33301 -54.5 28 -79.5s43.667 -46.667 75 -65s67.666 -33 108.999 -44
s84.666 -16.5 129.999 -16.5c44.667 0 85.334 6 122.001 18s68 28.5 94 49.5s46.167 46 60.5 75s21.5 60.833 21.5 95.5c0 18.667 -4.33301 35.834 -13 51.501s-24.334 29.834 -47.001 42.501s-53.5 24 -92.5 34s-88.833 18.333 -149.5 25zM830.003 640.996
c0 -51.333 -11.5 -98.1621 -34.5 -140.495s-53.167 -78.666 -90.5 -108.999s-79.666 -54 -126.999 -71s-95.333 -25.5 -144 -25.5h-4c-32 -26.667 -54 -48.834 -66 -66.501s-18 -28.5 -18 -32.5c0 -8 3.5 -15.833 10.5 -23.5s20 -15 39 -22s45.167 -14 78.5 -21
s76 -13.5 128 -19.5c72.667 -8 132.667 -20 180 -36s85 -34.5 113 -55.5s47.5 -43.5 58.5 -67.5s16.5 -47.667 16.5 -71c0 -36.667 -7 -71.5 -21 -104.5s-33 -63.5 -57 -91.5s-52.333 -53.333 -85 -76s-67.667 -42 -105 -58s-76 -28.333 -116 -37s-79.667 -13 -119 -13
c-31.333 0 -63.666 2.16699 -96.999 6.5s-66.333 11.166 -99 20.499s-63.5 21.166 -92.5 35.499s-54.5 31.666 -76.5 51.999s-39.5 43.333 -52.5 69s-19.5 54.834 -19.5 87.501c0 17.333 3.16699 35.5 9.5 54.5s19.166 39.5 38.499 61.5s46.333 45.667 81 71
s80.667 53.333 138 84c-43.333 15.333 -73.333 32.666 -90 51.999s-25 39 -25 59c0 5.33301 1.66699 12.5 5 21.5s10.166 20 20.499 33s25 27.833 44 44.5s43.833 35.667 74.5 57c-34 9.33301 -64.833 22.833 -92.5 40.5s-51.334 39 -71.001 64s-35 53.333 -46 85
s-16.5 66.167 -16.5 103.5c0 48.667 11 94.834 33 138.501s51 81.667 87 114s77 58 123 77s93.333 28.5 142 28.5c40 0 77.5 -5.66699 112.5 -17s66.833 -27.333 95.5 -48c34.667 3.33301 66 7.66602 94 12.999s53.167 11 75.5 17s42.166 12 59.499 18s33 11.667 47 17
l20 -30l-23 -51.5c-7.33301 -15.667 -18.666 -31.834 -33.999 -48.501c-25.333 -4.66699 -50.166 -8.33398 -74.499 -11.001s-51.833 -4.66699 -82.5 -6c17.333 -25.333 30.833 -52.333 40.5 -81s14.5 -59 14.5 -91z" />
    <glyph glyph-name="h" unicode="h" horiz-adv-x="1130" 
d="M670 0l0.000976562 43.002c48 12.667 83.333 23.667 106 33s34 18.666 34 27.999v529c0 40.667 -2.5 73.667 -7.5 99s-12.833 45.333 -23.5 60s-24 24.667 -40 30s-35 8 -57 8c-23.333 0 -48.5 -6 -75.5 -18s-55.167 -29.667 -84.5 -53s-59 -52.5 -89 -87.5
s-59.333 -75.833 -88 -122.5v-445c0 -10 12.5 -20.333 37.5 -31s59.167 -20.667 102.5 -30v-43h-430v43c44 11.333 78.333 21.5 103 30.5s37 19.167 37 30.5v1194c0 28 -1.16699 49.833 -3.5 65.5s-8.33301 27.834 -18 36.501s-23.834 14.834 -42.501 18.501
s-44 7.5 -76 11.5v40c28 5.33301 53.5 10.666 76.5 15.999s44.333 11.166 64 17.499s38.5 13.166 56.5 20.499s36.667 16 56 26l37 -34v-832c28.667 42.667 60.5 81 95.5 115s70.167 63 105.5 87s69.833 42.333 103.5 55s63.5 19 89.5 19
c28.667 0 56.334 -4.33301 83.001 -13s50.167 -22 70.5 -40s36.666 -40.833 48.999 -68.5s18.5 -60.167 18.5 -97.5v-637c0 -9.33301 10.167 -18.5 30.5 -27.5s56.833 -20.167 109.5 -33.5v-43h-430z" />
    <glyph glyph-name="i" unicode="i" horiz-adv-x="555" 
d="M70 0l-0.000976562 43.001c45.333 9.33301 80 19.5 104 30.5s36 21.167 36 30.5v566c0 34 -0.666992 61.5 -2 82.5s-6.33301 37.333 -15 49s-22.5 20.167 -41.5 25.5s-46.167 9.66602 -81.5 12.999v40c20.667 4 42.5 8.83301 65.5 14.5s45.833 12 68.5 19
s44.334 14.5 65.001 22.5s39.667 16 57 24h34v-856c0 -8 11.167 -17.833 33.5 -29.5s57.833 -22.167 106.5 -31.5v-43h-430zM389.999 1261c0 -18.667 -3.00098 -36.3359 -9.00098 -53.0029s-14.167 -31.167 -24.5 -43.5s-22.5 -22.166 -36.5 -29.499s-29.333 -11 -46 -11
c-30 0 -51.5 8.33301 -64.5 25s-19.5 40.334 -19.5 71.001c0 18.667 3 36.334 9 53.001s14.333 31.167 25 43.5s22.834 22 36.501 29s28.5 10.5 44.5 10.5c56.667 0 85 -31.667 85 -95z" />
    <glyph glyph-name="j" unicode="j" horiz-adv-x="530" 
d="M355 99c0 -76.667 -4.82715 -141.833 -14.4941 -195.5s-23 -99.334 -40 -137.001s-37.167 -69.5 -60.5 -95.5s-48.333 -49.667 -75 -71c-18 -14 -37 -27.167 -57 -39.5s-40 -23 -60 -32s-38.833 -16 -56.5 -21s-32.834 -7.5 -45.501 -7.5
c-20.667 0 -40.834 2.5 -60.501 7.5s-37.334 11.167 -53.001 18.5s-28.334 15 -38.001 23s-14.5 14.667 -14.5 20c0 6 4.83301 14.167 14.5 24.5s21.167 21.166 34.5 32.499s27.166 22 41.499 32s26.5 17.333 36.5 22c21.333 -18.667 43.333 -30.834 66 -36.501
s46.667 -8.5 72 -8.5c19.333 0 38.5 6.16699 57.5 18.5s36.167 33.833 51.5 64.5s27.666 72.334 36.999 125.001s14 119.334 14 200.001v627c0 34 -0.833008 61.333 -2.5 82s-6.83398 36.834 -15.501 48.501s-22.5 20.167 -41.5 25.5s-45.833 10 -80.5 14v40
c28 4.66699 52.833 10 74.5 16s42.334 12.167 62.001 18.5s38.667 13.333 57 21l59.5 24.5h37v-861zM385.006 1261c0 -18.667 -3 -36.3359 -9 -53.0029s-14.167 -31.167 -24.5 -43.5s-22.5 -22.166 -36.5 -29.499s-29 -11 -45 -11c-30 0 -51.667 8.33301 -65 25
s-20 40.334 -20 71.001c0 18.667 3 36.334 9 53.001s14.167 31.167 24.5 43.5s22.5 22 36.5 29s29 10.5 45 10.5c56.667 0 85 -31.667 85 -95z" />
    <glyph glyph-name="k" unicode="k" horiz-adv-x="1024" 
d="M55 0l-0.00195312 42.999c44 11.333 78.333 21.333 103 30s37 19 37 31v1192c0 30.667 -1.83301 54.334 -5.5 71.001s-10.667 29.167 -21 37.5s-24.666 13.833 -42.999 16.5s-41.833 5.66699 -70.5 9v40c46 9.33301 91.167 20.166 135.5 32.499s83.5 28.166 117.5 47.499
l37 -34v-986l308 269c22 19.333 35.333 34.833 40 46.5s3.83398 20.5 -2.49902 26.5s-17 10 -32 12s-31.167 3 -48.5 3v43h379v-43c-29.333 -3.33301 -56.333 -8.83301 -81 -16.5s-51 -22.834 -79 -45.501l-341 -273l376 -441c9.33301 -10.667 19 -19.5 29 -26.5
s21 -12.5 33 -16.5s25.5 -6.5 40.5 -7.5s32.167 -0.833008 51.5 0.5l6 -43c-19.333 -4.66699 -38.5 -8.66699 -57.5 -12s-36.667 -6.16602 -53 -8.49902s-31 -4.16602 -44 -5.49902s-22.833 -2 -29.5 -2c-28 0 -50.5 4 -67.5 12s-32.833 21.667 -47.5 41l-380 479v-418
c0 -5.33301 1.16699 -10 3.5 -14s7.16602 -8.16699 14.499 -12.5s18.333 -9.16602 33 -14.499s34.334 -12 59.001 -20v-43h-400z" />
    <glyph glyph-name="l" unicode="l" horiz-adv-x="555" 
d="M60 0v43.0029c28.667 4.66699 52.667 9.5 72 14.5s34.666 10 45.999 15s19.5 10.167 24.5 15.5s7.5 10.666 7.5 15.999v1192c0 30 -2 53.333 -6 70s-11.333 29.167 -22 37.5s-25 14 -43 17s-41 6.16699 -69 9.5v40c48 9.33301 92 19.666 132 30.999
s80.667 27.666 122 48.999l36 -34v-1412c0 -10 11.333 -20.333 34 -31s61.334 -20.667 116.001 -30v-43h-450z" />
    <glyph glyph-name="m" unicode="m" horiz-adv-x="1645" 
d="M1186 0l0.000976562 43.0039c48 12.667 83.167 23.667 105.5 33s33.5 18.666 33.5 27.999v529c0 40.667 -2.16699 74.5 -6.5 101.5s-11 48.167 -20 63.5s-20.667 26.166 -35 32.499s-31.5 9.5 -51.5 9.5c-22 0 -45.333 -6.16699 -70 -18.5s-50 -30 -76 -53
s-52.167 -51 -78.5 -84s-52.166 -70.167 -77.499 -111.5v-469c0 -9.33301 10.333 -18.5 31 -27.5s57.334 -20.167 110.001 -33.5v-43h-430v43c48 12.667 83.167 23.667 105.5 33s33.5 18.666 33.5 27.999v529c0 40.667 -2 74.5 -6 101.5s-10.5 48.167 -19.5 63.5
s-20.667 26.166 -35 32.499s-31.833 9.5 -52.5 9.5c-45.333 0 -92.833 -23.333 -142.5 -70s-102.834 -112.334 -159.501 -197.001v-469c0 -10 12.5 -20.333 37.5 -31s59.167 -20.667 102.5 -30v-43h-430v43c44 11.333 78.333 21.5 103 30.5s37 19.167 37 30.5v607
c0 26.667 -1.16699 47.667 -3.5 63s-8.33301 27.166 -18 35.499s-23.834 14.5 -42.501 18.5s-44 8 -76 12v40c25.333 4 48.666 8.83301 69.999 14.5s41.666 11.834 60.999 18.501s37.833 14 55.5 22l53.5 25l35 -35l11 -229c30 44 60.333 82.5 91 115.5s61 60.5 91 82.5
s59 38.5 87 49.5s54 16.5 78 16.5c32 0 61.5 -3.83301 88.5 -11.5s50.333 -20.667 70 -39s35.167 -42.5 46.5 -72.5s17 -67.333 17 -112v-21c28 42 57 78.833 87 110.5s59.833 58.334 89.5 80.001s58.667 38 87 49s54.833 16.5 79.5 16.5c32 0 61.5 -4.33301 88.5 -13
s50.333 -22 70 -40s35.167 -40.833 46.5 -68.5s17 -60.167 17 -97.5v-637c0 -9.33301 10.333 -18.5 31 -27.5s57.334 -20.167 110.001 -33.5v-43h-430z" />
    <glyph glyph-name="n" unicode="n" horiz-adv-x="1130" 
d="M670 0v43c48 12.667 83.333 23.667 106 33s34 18.666 34 27.999v529c0 40.667 -2.33301 73.667 -7 99s-12 45.333 -22 60s-23.167 24.667 -39.5 30s-36.166 8 -59.499 8c-20.667 0 -43.667 -5 -69 -15s-52.5 -26 -81.5 -48s-59.333 -50.833 -91 -86.5
s-63.5 -79.5 -95.5 -131.5v-445c0 -10 12.5 -20.333 37.5 -31s59.167 -20.667 102.5 -30v-43h-430v43c44 11.333 78.333 21.5 103 30.5s37 19.167 37 30.5v607c0 26 -1 46.667 -3 62s-7.5 27.333 -16.5 36s-22.833 15 -41.5 19s-45 8 -79 12v40
c45.333 7.33301 87.333 17.833 126 31.5s76.667 29.834 114 48.501l35 -35l11 -249c29.333 44.667 61.666 84.5 96.999 119.5s71 64.667 107 89s70.833 43 104.5 56s63.5 19.5 89.5 19.5c28.667 0 56.334 -4.33301 83.001 -13s50.167 -22 70.5 -40
s36.666 -40.833 48.999 -68.5s18.5 -60.167 18.5 -97.5v-637c0 -9.33301 10.167 -18.5 30.5 -27.5s56.833 -20.167 109.5 -33.5v-43h-430z" />
    <glyph glyph-name="o" unicode="o" horiz-adv-x="1030" 
d="M795 455c0 52.667 -8.66699 102.834 -26 150.501s-39.666 89.667 -66.999 126s-58.333 65.166 -93 86.499s-69 32 -103 32c-50.667 0 -93.334 -9.66699 -128.001 -29s-62.5 -45.833 -83.5 -79.5s-36.167 -73.5 -45.5 -119.5s-14 -95.667 -14 -149
c0 -52.667 9.33301 -102.834 28 -150.501s42.167 -89.5 70.5 -125.5s59.5 -64.5 93.5 -85.5s66.333 -31.5 97 -31.5c47.333 0 88 8.83301 122 26.5s62 42.834 84 75.501s38.333 72 49 118s16 97.667 16 155zM950 485c0 -44.667 -5.66895 -88.3311 -17.002 -130.998
s-27 -83 -47 -121s-44 -73.167 -72 -105.5s-58.833 -60.166 -92.5 -83.499s-69.5 -41.5 -107.5 -54.5s-77.333 -19.5 -118 -19.5c-63.333 0 -120.5 12 -171.5 36s-94.667 57 -131 99s-64.333 92 -84 150s-29.5 121 -29.5 189c0 44 5.5 87.333 16.5 130
s26.333 83.167 46 121.5s43.334 73.666 71.001 105.999s58.334 60.166 92.001 83.499s70 41.666 109 54.999s79.167 20 120.5 20c62.667 0 119.5 -12 170.5 -36s94.667 -57.167 131 -99.5s64.333 -92.5 84 -150.5s29.5 -121 29.5 -189z" />
    <glyph glyph-name="p" unicode="p" horiz-adv-x="1085" 
d="M870 426c0 58 -6.83203 111.998 -20.499 161.998s-31.834 93.333 -54.501 130s-49 65.334 -79 86.001s-61 31 -93 31c-12 0 -27.667 -3.66699 -47 -11s-41.333 -19.666 -66 -36.999s-51 -40.5 -79 -69.5s-56.667 -64.833 -86 -107.5v-397
c30 -22.667 57.833 -41.334 83.5 -56.001s49.667 -26.167 72 -34.5s43.5 -14.166 63.5 -17.499s39 -5 57 -5c36 0 69.167 7 99.5 21s56.5 34.667 78.5 62s39.333 61.333 52 102s19 87.667 19 141zM1005 491.998c0 -38.667 -5.00293 -78.3311 -15.0029 -118.998
s-23.667 -80.334 -41 -119.001s-38 -75.334 -62 -110.001s-50.167 -64.834 -78.5 -90.501s-58.166 -46 -89.499 -61s-63.333 -22.5 -96 -22.5c-39.333 0 -83.666 11 -132.999 33s-97.666 53.667 -144.999 95v-473c0 -10.667 12.5 -21.334 37.5 -32.001
s68.833 -20.667 131.5 -30v-43h-459v43c44 10.667 78.333 20.834 103 30.501s37 20.167 37 31.5v1086c0 24.667 -1.33301 45 -4 61s-8.83398 28.833 -18.501 38.5s-23.667 16.667 -42 21s-43.5 7.16602 -75.5 8.49902v40c22.667 4.66699 44.334 9.83398 65.001 15.501
s40.667 11.667 60 18s38.5 13.333 57.5 21s38.167 16.167 57.5 25.5l35 -35l9 -198c33.333 40 66.833 74.667 100.5 104s65.834 53.5 96.501 72.5s59.167 33.167 85.5 42.5s49.166 14 68.499 14c45.333 0 87.333 -10.667 126 -32s72 -52.166 100 -92.499
s49.833 -89.5 65.5 -147.5s23.5 -123.333 23.5 -196z" />
    <glyph glyph-name="q" unicode="q" horiz-adv-x="1055" 
d="M487 100c22.667 0 45.0029 4.66895 67.0029 14.002s43.667 21.5 65 36.5s42.5 32.167 63.5 51.5l62.5 59v469c-22 38 -53 67.5 -93 88.5s-84 31.5 -132 31.5c-37.333 0 -73.333 -7.83301 -108 -23.5s-65.5 -39.167 -92.5 -70.5s-48.667 -70.333 -65 -117
s-24.5 -101.334 -24.5 -164.001c0 -56.667 8.16699 -108.167 24.5 -154.5s37.166 -85.833 62.499 -118.5s53.166 -57.834 83.499 -75.501s59.166 -26.5 86.499 -26.5zM575.003 -479.998v43.0029c62.667 9.33301 106.667 19.166 132 29.499s38 21.166 38 32.499v541
c-25.333 -30.667 -50.333 -58 -75 -82s-50.167 -44.5 -76.5 -61.5s-54 -30 -83 -39s-60.5 -13.5 -94.5 -13.5c-37.333 0 -75.666 10.833 -114.999 32.5s-75.5 52.834 -108.5 93.501s-60 90.334 -81 149.001s-31.5 125 -31.5 199c0 58.667 9.33301 112.667 28 162
s41.5 93.166 68.5 131.499s55.833 70.833 86.5 97.5s57.667 46.667 81 60c38 20.667 75.667 36.667 113 48s68.666 17 93.999 17c18 0 36 -1.16699 54 -3.5s36.333 -6.83301 55 -13.5s38 -16 58 -28s41.333 -28 64 -48c10 6 20.333 13.167 31 21.5l31 25
c10 8.33301 19.5 16.666 28.5 24.999l22.5 21.5l31 -30c-6 -18.667 -11.333 -39 -16 -61c-4 -19.333 -7.5 -42 -10.5 -68s-4.5 -54 -4.5 -84v-1092c0 -10.667 10.333 -21.334 31 -32.001s56.667 -20.667 108 -30v-43h-459z" />
    <glyph glyph-name="r" unicode="r" horiz-adv-x="811" 
d="M770 923c6 -4 8.83789 -15.6689 8.50488 -35.002s-3 -41.666 -8 -66.999s-11.5 -51.333 -19.5 -78s-16 -49 -24 -67h-43c-4 26.667 -9.66699 49.334 -17 68.001s-15.833 33.5 -25.5 44.5s-20.334 19 -32.001 24s-23.834 7.5 -36.501 7.5
c-14.667 0 -31.834 -6.16699 -51.501 -18.5s-39.834 -31.666 -60.501 -57.999s-41.167 -60 -61.5 -101s-38.5 -89.833 -54.5 -146.5v-392c0 -10 12.5 -20.333 37.5 -31s68.833 -20.667 131.5 -30v-43h-459v43c44 10 78.333 19.833 103 29.5s37 20.167 37 31.5v582
c0 22 -0.666992 40.5 -2 55.5s-3 27.167 -5 36.5s-4.5 16.666 -7.5 21.999s-5.83301 9.66602 -8.5 12.999c-4.66699 4.66699 -9.83398 8.5 -15.501 11.5s-13 5.5 -22 7.5s-19.833 3.5 -32.5 4.5s-28.334 2.16699 -47.001 3.5v40l127.5 34.5
c41.667 11.667 79.167 26.834 112.5 45.501l35 -35l13 -227c18 36.667 37.5 71 58.5 103s43.5 59.833 67.5 83.5s49.167 42.167 75.5 55.5s53.833 20 82.5 20c21.333 0 44.333 -2.66699 69 -8s49.334 -15 74.001 -29z" />
    <glyph glyph-name="s" unicode="s" horiz-adv-x="791" 
d="M700 283c0 -47.333 -6.67188 -87.8301 -20.0049 -121.497s-30.666 -62.167 -51.999 -85.5s-45 -42 -71 -56s-51.667 -24.667 -77 -32s-49.166 -12.166 -71.499 -14.499s-39.833 -3.5 -52.5 -3.5c-32 0 -70.5 6 -115.5 18s-89.833 30.333 -134.5 55
c-4.66699 2 -7.83398 12.833 -9.50098 32.5s-2 42.334 -1 68.001s3 51.5 6 77.5s6.83301 46.667 11.5 62l43 -11c1.33301 -28 8.66602 -54.333 21.999 -79s31.166 -46 53.499 -64s48.333 -32.333 78 -43s61.834 -16 96.501 -16c24 0 46 3.83301 66 11.5
s37.333 18.334 52 32.001s26 30.167 34 49.5s12 40.666 12 63.999c0 26.667 -7.16699 50.334 -21.5 71.001s-33.166 39.5 -56.499 56.5s-49.833 33 -79.5 48l-90.5 46.5c-28 14 -55 29 -81 45s-49.167 34 -69.5 54s-36.666 42.333 -48.999 67s-18.5 53 -18.5 85
c0 41.333 8.33301 78.166 25 110.499s38.834 59.5 66.501 81.5s59.334 38.833 95.001 50.5s72.5 17.5 110.5 17.5c20.667 0 43.5 -1.83301 68.5 -5.5s49.667 -8.83398 74 -15.501s47.166 -14.667 68.499 -24s38.666 -20 51.999 -32c4 -4 4.5 -13 1.5 -27
s-7.66699 -29.333 -14 -46s-13.166 -32.334 -20.499 -47.001s-13 -24.667 -17 -30l-39 8c-32 48 -65.167 81.5 -99.5 100.5s-67.833 28.5 -100.5 28.5c-22 0 -41.667 -3.66699 -59 -11s-32.166 -16.833 -44.499 -28.5s-21.666 -24.5 -27.999 -38.5s-9.5 -28 -9.5 -42
c0 -21.333 6.33301 -40.5 19 -57.5s29.334 -33 50.001 -48s44.167 -29.333 70.5 -43l81.5 -42.5c28.667 -14.667 57.667 -30.334 87 -47.001s55.666 -35.834 78.999 -57.501s42.333 -46.334 57 -74.001s22 -60.167 22 -97.5z" />
    <glyph glyph-name="t" unicode="t" horiz-adv-x="705" 
d="M676 117c-32.667 -24 -65.001 -45.167 -97.001 -63.5s-62.5 -33.666 -91.5 -45.999s-55.833 -21.666 -80.5 -27.999s-45.667 -9.5 -63 -9.5c-23.333 0 -45.5 4.33301 -66.5 13s-39.5 22.834 -55.5 42.501s-28.667 45.5 -38 77.5s-14 71.333 -14 118v614h-129l-21 28
l78 67h72v246l119 104l31 -25v-325h327l29 -29c-6 -9.33301 -13.5 -19.333 -22.5 -30s-18.167 -20.667 -27.5 -30s-18.5 -17.833 -27.5 -25.5s-16.833 -12.834 -23.5 -15.501c-16 8 -40.333 15.833 -73 23.5s-76 11.5 -130 11.5h-52v-528c0 -40 1.83301 -73.333 5.5 -100
s9.83398 -47.834 18.501 -63.501s19.834 -26.834 33.501 -33.501s30.5 -10 50.5 -10c23.333 0 52.666 4.66699 87.999 14s79 27.333 131 54z" />
    <glyph glyph-name="u" unicode="u" horiz-adv-x="1085" 
d="M1069 82l-71.002 -44.501c-22.667 -13.667 -43.667 -25.5 -63 -35.5s-36.333 -17.833 -51 -23.5s-26 -8.5 -34 -8.5c-23.333 0 -42.333 15.5 -57 46.5s-24 80.833 -28 149.5c-41.333 -41.333 -79.166 -74.833 -113.499 -100.5s-66 -45.5 -95 -59.5
s-55.667 -23.5 -80 -28.5s-47.166 -7.5 -68.499 -7.5c-31.333 0 -61.333 4.33301 -90 13s-54 24.5 -76 47.5s-39.5 54.5 -52.5 94.5s-19.5 91.333 -19.5 154v432c0 32 -1 56.833 -3 74.5s-7.16699 31 -15.5 40s-21.166 15.167 -38.499 18.5s-41.333 6.66602 -72 9.99902v40
c24 2.66699 46.5 6 67.5 10s41.333 8.66699 61 14s39.5 11.5 59.5 18.5s41 14.833 63 23.5l28 -39v-587c0 -46.667 3.5 -85.667 10.5 -117s17 -56.333 30 -75s29 -32 48 -40s40.5 -12 64.5 -12c21.333 0 43.166 3.16699 65.499 9.5s45.333 16.333 69 30
s48.5 31.334 74.5 53.001s53.667 48.167 83 79.5v449c0 30 -1.5 54 -4.5 72s-9.5 32 -19.5 42s-24.167 17 -42.5 21s-42.833 6.66699 -73.5 8v40c48 6 94 15.333 138 28s84.667 25.334 122 38.001l30 -39v-667c0 -41.333 1.5 -75 4.5 -101s9.16699 -42.333 18.5 -49
c8 -5.33301 21.667 -6.5 41 -3.5s46 11.833 80 26.5z" />
    <glyph glyph-name="v" unicode="v" horiz-adv-x="1010" 
d="M989 887c-20 -4.66699 -36.3359 -9.00195 -49.0029 -13.002s-23 -8.5 -31 -13.5s-14.167 -10.667 -18.5 -17s-8.16602 -14.5 -11.499 -24.5l-283 -760c-6 -14.667 -14.667 -27.167 -26 -37.5s-23.666 -19 -36.999 -26s-26.5 -12.5 -39.5 -16.5s-23.833 -7 -32.5 -9
l-330 849c-6 18.667 -17.667 32.834 -35 42.501s-42.666 18.167 -75.999 25.5v43h386v-43c-26 -3.33301 -47.167 -6.66602 -63.5 -9.99902s-29 -7.5 -38 -12.5s-14.167 -11.167 -15.5 -18.5s0 -16.333 4 -27l246 -641l231 641c3.33301 10 4.5 18.5 3.5 25.5
s-5.5 13 -13.5 18s-19.5 9.33301 -34.5 13s-34.833 7.5 -59.5 11.5v43h323v-43z" />
    <glyph glyph-name="w" unicode="w" horiz-adv-x="1446" 
d="M1425 887c-20.667 -4.66699 -36.999 -9.16797 -48.999 -13.501s-21.5 -8.66602 -28.5 -12.999s-12 -9.33301 -15 -15s-5.5 -12.5 -7.5 -20.5l-221 -766c-4 -14.667 -11.833 -27.167 -23.5 -37.5s-24.5 -19 -38.5 -26s-27.833 -12.5 -41.5 -16.5s-24.834 -7 -33.501 -9
l-238 678l-205 -589c-5.33301 -15.333 -13.5 -28.166 -24.5 -38.499s-23.167 -19 -36.5 -26s-26.5 -12.333 -39.5 -16s-23.833 -6.5 -32.5 -8.5l-262 855c-6 26 -42.333 46.667 -109 62v43h386v-43c-32.667 -3.33301 -58 -7.16602 -76 -11.499s-31 -9.33301 -39 -15
s-12.167 -11.5 -12.5 -17.5s0.5 -12 2.5 -18l188 -635l246 740h69l260 -740l173 635c4 15.333 -3 27.666 -21 36.999s-50 17.666 -96 24.999v43h325v-43z" />
    <glyph glyph-name="x" unicode="x" horiz-adv-x="1030" 
d="M614 0l0.000976562 43.0049c16.667 1.33301 32.334 3.33301 47.001 6s26.167 7 34.5 13s12.5 14.5 12.5 25.5s-6.66699 25.5 -20 43.5l-198 269l-189 -269c-12.667 -18 -17.667 -32.5 -15 -43.5s9.66699 -19.5 21 -25.5s25.5 -10.333 42.5 -13s33.5 -4.66699 49.5 -6v-43
h-379v43c26.667 4 49.334 9.16699 68.001 15.5s34.5 13.666 47.5 21.999s24 17.333 33 27s17.167 19.5 24.5 29.5l243 338l-235 322c-8.66699 12 -17.334 23.167 -26.001 33.5s-19.167 19.333 -31.5 27s-27.5 14 -45.5 19s-40.333 8.5 -67 10.5v43h420v-43
c-20.667 -2 -38.5 -4.83301 -53.5 -8.5s-26.333 -8.66699 -34 -15s-11 -14.666 -10 -24.999s7.5 -23.5 19.5 -39.5l161 -222l154 222c12 16 18.667 29.333 20 40s-1.5 19.167 -8.5 25.5s-17.833 11.166 -32.5 14.499s-32.334 6 -53.001 8v43h381v-43
c-54 -4 -95.833 -13.833 -125.5 -29.5s-53.167 -35.834 -70.5 -60.501l-210 -295l267 -365c8 -10 16.667 -19.833 26 -29.5s20.166 -18.834 32.499 -27.501s26.833 -16.334 43.5 -23.001s36 -11.334 58 -14.001v-43h-402z" />
    <glyph glyph-name="y" unicode="y" horiz-adv-x="1010" 
d="M989 887c-20 -4.66699 -36.3398 -9 -49.0068 -13s-23 -8.5 -31 -13.5s-14.167 -10.667 -18.5 -17s-8.16602 -14.5 -11.499 -24.5l-334 -901c-28 -74 -59.167 -137.333 -93.5 -190s-70 -95.834 -107 -129.501s-74.167 -58.5 -111.5 -74.5s-72.666 -24 -105.999 -24
c-25.333 0 -48.666 1.66699 -69.999 5s-39.666 7.5 -54.999 12.5s-27.333 10.667 -36 17s-13 12.5 -13 18.5c0 4 4 12 12 24s18 25.167 30 39.5s24.833 28.166 38.5 41.499s25.834 23.333 36.501 30c32 -18.667 63.833 -28.667 95.5 -30s59.834 2.66699 84.501 12
c12 4 26 13.333 42 28s32.167 32.667 48.5 54s32.333 45.5 48 72.5s29.5 54.833 41.5 83.5l29 69l-328 842c-6 18.667 -17.667 32.834 -35 42.501s-42.666 18.167 -75.999 25.5v43h386v-43c-26 -3.33301 -47.167 -6.66602 -63.5 -9.99902s-29 -7.5 -38 -12.5
s-14.167 -11.167 -15.5 -18.5s0 -16.333 4 -27l246 -637l231 637c3.33301 10 3.83301 18.5 1.5 25.5s-8 13 -17 18s-21.667 9.33301 -38 13s-36.833 7.5 -61.5 11.5v43h334v-43z" />
    <glyph glyph-name="z" unicode="z" horiz-adv-x="905" 
d="M829 248c0 -21.333 -0.333008 -44 -1 -68s-1.5 -47.333 -2.5 -70s-2.16699 -43.667 -3.5 -63s-3 -35 -5 -47h-715l-26 45l555 795h-346c-10.667 0 -21.5 -2 -32.5 -6s-21.667 -11.5 -32 -22.5s-20 -26.333 -29 -46s-16.833 -44.834 -23.5 -75.501l-49 12l18 244
c14.667 -4 28 -7.16699 40 -9.5s24.5 -4 37.5 -5s27.167 -1.5 42.5 -1.5h548l22 -43l-557 -797h422c16.667 0 32 12.833 46 38.5s28.667 68.834 44 129.501z" />
    <glyph glyph-name="braceleft" unicode="{" horiz-adv-x="688" 
d="M649 1553c-26 -16 -50.1689 -34.332 -72.502 -54.999s-41.833 -43.5 -58.5 -68.5s-29.667 -52.167 -39 -81.5s-14 -61.333 -14 -96c0 -38.667 2.16699 -70.334 6.5 -95.001s9 -47.834 14 -69.501s9.66699 -44.834 14 -69.501s6.5 -56.334 6.5 -95.001
c0 -28 -4.16699 -55.5 -12.5 -82.5s-20.166 -52.333 -35.499 -76s-34.166 -45.167 -56.499 -64.5s-47.5 -35 -75.5 -47c33.333 -6 61.5 -16.5 84.5 -31.5s41.5 -33.833 55.5 -56.5s24.167 -49.167 30.5 -79.5s9.5 -63.833 9.5 -100.5c0 -40 -2.16699 -74 -6.5 -102
s-9 -54.333 -14 -79s-9.66699 -49.334 -14 -74.001s-6.5 -53.667 -6.5 -87c0 -36.667 2.5 -69.167 7.5 -97.5s14 -54 27 -77s30.667 -44.333 53 -64s51.166 -39.167 86.499 -58.5l-23 -61c-56 22.667 -104 46.5 -144 71.5s-72.833 52.833 -98.5 83.5s-44.5 65 -56.5 103
s-18 81 -18 129c0 39.333 2.16699 71.833 6.5 97.5s9 50.334 14 74.001s9.66699 49 14 76s6.5 61.167 6.5 102.5c0 54 -13.5 94.833 -40.5 122.5s-65.5 41.5 -115.5 41.5h-21c-4 0 -7.66699 -0.166992 -11 -0.5s-7.16602 -1 -11.499 -2s-11.5 -2.16699 -21.5 -3.5l-17 53
c78.667 20.667 138 51.667 178 93s60 87 60 137c0 26.667 -1 49.667 -3 69s-4.5 36.833 -7.5 52.5s-6.33301 30.334 -10 44.001s-7 28.167 -10 43.5s-5.5 32.833 -7.5 52.5s-3 43.167 -3 70.5c0 44.667 7.5 86.834 22.5 126.501s36.5 76.334 64.5 110.001s62 64.5 102 92.5
s85 53.333 135 76z" />
    <glyph glyph-name="bar" unicode="|" horiz-adv-x="469" 
d="M320 -353c-12 -10.667 -28.333 -20.668 -49 -30.001s-39.334 -16.666 -56.001 -21.999l-35 23v2003c18.667 11.333 35.834 21 51.501 29s33.167 14.667 52.5 20l36 -22v-2001z" />
    <glyph glyph-name="braceright" unicode="}" horiz-adv-x="688" 
d="M588 651c-79.333 -20.667 -138.833 -51.1719 -178.5 -91.5049s-59.5 -86.166 -59.5 -137.499c0 -27.333 1 -50.5 3 -69.5s4.33301 -36.167 7 -51.5s5.83398 -29.666 9.50098 -42.999s6.83398 -27.833 9.50098 -43.5s5 -33.167 7 -52.5s3 -42.666 3 -69.999
c0 -45.333 -7.5 -87.666 -22.5 -126.999s-36.5 -76 -64.5 -110s-62 -65.167 -102 -93.5s-84.667 -53.833 -134 -76.5l-27 49c26 16 50.167 34.167 72.5 54.5s41.833 43 58.5 68s29.667 52.333 39 82s14 61.834 14 96.501c0 38.667 -2 70.167 -6 94.5s-8.5 47.333 -13.5 69
s-9.5 45 -13.5 70s-6 57.167 -6 96.5c0 27.333 4 54.333 12 81s19.833 51.667 35.5 75s34.667 44.5 57 63.5s47.833 34.5 76.5 46.5c-34 6.66699 -62.5 17.5 -85.5 32.5s-41.667 34 -56 57s-24.5 49.667 -30.5 80s-9 64.166 -9 101.499c0 39.333 2 73 6 101
s8.5 54.333 13.5 79s9.5 49.334 13.5 74.001s6 53.334 6 86.001c0 37.333 -2.5 70.333 -7.5 99s-14 54.5 -27 77.5s-30.833 44 -53.5 63s-51.334 38.167 -86.001 57.5l23 61c56 -22 104.167 -45.5 144.5 -70.5s73.166 -52.833 98.499 -83.5s44 -64.834 56 -102.501
s18 -80.5 18 -128.5c0 -39.333 -2 -72 -6 -98s-8.5 -50.833 -13.5 -74.5s-9.5 -49 -13.5 -76s-6 -60.833 -6 -101.5c0 -54 13.5 -95 40.5 -123s65.5 -42 115.5 -42h19c4 0 7.66699 0.166992 11 0.5s7.33301 0.833008 12 1.5l23 5z" />
    <glyph glyph-name="asciitilde" unicode="~" horiz-adv-x="999" 
d="M950 774c-14 -32.667 -31.668 -66.5 -53.001 -101.5s-45.166 -67 -71.499 -96s-54.666 -52.833 -84.999 -71.5s-61.5 -28 -93.5 -28c-28 0 -57.667 8.33301 -89 25s-63.166 35 -95.499 55s-64.333 38.333 -96 55s-61.834 25 -90.501 25
c-32.667 0 -62.834 -13 -90.501 -39s-55.5 -67 -83.5 -123l-53 27c14 32.667 31.833 66.5 53.5 101.5s45.667 67 72 96s54.5 52.833 84.5 71.5s61 28 93 28c30.667 0 62.167 -8.33301 94.5 -25s64.333 -35 96 -55s62.667 -38.333 93 -55s58.833 -25 85.5 -25
c32 0 62.333 13 91 39s57 66.333 85 121z" />
    <glyph glyph-name="uni00A0" unicode="&#xa0;" horiz-adv-x="451" 
 />
    <glyph glyph-name="exclamdown" unicode="&#xa1;" horiz-adv-x="557" 
d="M371 -483c-26 -16.667 -52.832 -32.5 -80.499 -47.5s-52.834 -26.5 -75.501 -34.5l-43 22l47 1073c13.333 10.667 25 18.5 35 23.5s23.667 10.167 41 15.5l27 -18zM391.001 848c0 -22.667 -3.66699 -43.835 -11 -63.502s-17.333 -37 -30 -52s-27.167 -26.833 -43.5 -35.5
s-33.833 -13 -52.5 -13c-34 0 -59.167 9.83301 -75.5 29.5s-24.5 48.167 -24.5 85.5c0 22.667 3.5 43.834 10.5 63.501s16.667 36.834 29 51.501s27 26.167 44 34.5s35.5 12.5 55.5 12.5c34.667 0 59.667 -9.83301 75 -29.5s23 -47.5 23 -83.5z" />
    <glyph glyph-name="cent" unicode="&#xa2;" horiz-adv-x="961" 
d="M256 616c0 -46.667 5.66504 -88.999 16.998 -126.999s26.833 -71.333 46.5 -100s42.834 -52.5 69.501 -71.5s55.334 -33.167 86.001 -42.5v691c-30 -6 -58.167 -17.333 -84.5 -34s-49.5 -39.334 -69.5 -68.001s-35.833 -63.5 -47.5 -104.5s-17.5 -88.833 -17.5 -143.5z
M564.998 -7.99902c-6 -5.33301 -11.335 -9.49707 -16.002 -12.4971s-9.16699 -5.66699 -13.5 -8s-9.33301 -4.33301 -15 -6s-12.5 -3.83398 -20.5 -6.50098l-25 25v145c-47.333 2 -93.166 13.333 -137.499 34s-83.833 50.167 -118.5 88.5s-62.5 85.5 -83.5 141.5
s-31.5 120.333 -31.5 193c0 58.667 9.16699 114 27.5 166s43.833 98.5 76.5 139.5s71.834 76 117.501 105s95.5 50.5 149.5 64.5v153c9.33301 6 16 10.5 20 13.5s7.5 5.33301 10.5 7s6.83301 3.16699 11.5 4.5l22 6l26 -22v-146c8 0.666992 16 1.16699 24 1.5
s16.333 0.5 25 0.5c22 0 44.5 -1.83301 67.5 -5.5s45.167 -9 66.5 -16s40.833 -15.333 58.5 -25s32.167 -20.834 43.5 -33.501c1.33301 -7.33301 0.333008 -18.333 -3 -33s-8 -30 -14 -46s-12.667 -31.5 -20 -46.5s-14 -26.833 -20 -35.5l-35 10
c-6 10.667 -14.167 22.334 -24.5 35.001s-23.333 24.667 -39 36s-34.167 21.5 -55.5 30.5s-46 15.167 -74 18.5v-706c18 0 35 0.833008 51 2.5s33.5 6.66699 52.5 15s40.833 21.166 65.5 38.499s55 41.666 91 72.999l39 -41c-34 -40 -64.667 -73.333 -92 -100
s-52.833 -48.167 -76.5 -64.5s-46 -28.5 -67 -36.5s-42.167 -13.333 -63.5 -16v-141z" />
    <glyph glyph-name="sterling" unicode="&#xa3;" horiz-adv-x="961" 
d="M615 536l-241.991 -0.000976562c2 -45.333 0.333008 -89 -5 -131s-13.166 -81.5 -23.499 -118.5s-23 -71.167 -38 -102.5s-31.167 -59 -48.5 -83c30 2.66699 56.667 4.33398 80 5.00098s44.666 0.833984 63.999 0.500977s37.333 -0.833008 54 -1.5
s33.834 -1.5 51.501 -2.5s36.167 -1.66699 55.5 -2s41.333 -0.166016 66 0.500977c30.667 0.666992 57 2.66699 79 6s41.5 10.666 58.5 21.999s32.5 28.166 46.5 50.499s28 53.166 42 92.499l43 -18c-2.66699 -28.667 -5.83398 -56.167 -9.50098 -82.5
s-7.33398 -50.666 -11.001 -72.999s-7.33398 -41.833 -11.001 -58.5s-6.83398 -30 -9.50098 -40c-30 -16.667 -65.167 -26 -105.5 -28s-83.666 -0.666992 -129.999 4s-94 10.834 -143 18.501s-97.167 13.167 -144.5 16.5s-92.166 2.5 -134.499 -2.5
s-79.833 -17.833 -112.5 -38.5l-23 49c20.667 16.667 39 32.334 55 47.001s29.667 30.5 41 47.5s20.666 36.667 27.999 59s12.666 49.833 15.999 82.5s4.66602 71.834 3.99902 117.501s-3.33398 100.167 -8.00098 163.5h-114l-22 25l10.5 32.5
c3.66699 11.667 7.5 22.834 11.5 33.501h108c-4 94.667 1.33301 179.667 16 255s39.167 139.166 73.5 191.499s79 92.333 134 120s120.5 41.5 196.5 41.5c17.333 0 34.166 -0.666992 50.499 -2s33.833 -4.5 52.5 -9.5s39.5 -12 62.5 -21s50.167 -21.5 81.5 -37.5
c-0.666992 -17.333 -2.33398 -38.333 -5.00098 -63s-5.83398 -49.834 -9.50098 -75.501s-7.66699 -50 -12 -73s-8.5 -40.833 -12.5 -53.5h-47c-9.33301 82.667 -34.166 142.667 -74.499 180s-93.833 56 -160.5 56c-18 0 -35.833 -1.83301 -53.5 -5.5
s-34.334 -11.334 -50.001 -23.001s-29.834 -28.667 -42.501 -51s-22.5 -52.333 -29.5 -90s-10.833 -84.334 -11.5 -140.001s3 -122.167 11 -199.5h251l25 -23z" />
    <glyph glyph-name="currency" unicode="&#xa4;" horiz-adv-x="961" 
d="M363 721c-16.667 -16.667 -29.168 -35.5029 -37.501 -56.5029s-12.5 -42.167 -12.5 -63.5s4 -42.166 12 -62.499s20.333 -38.5 37 -54.5c17.333 -17.333 36.333 -30 57 -38s41.667 -12 63 -12s42.333 4 63 12s39.334 20.333 56.001 37
c16 16.667 28.167 35.334 36.5 56.001s12.5 41.667 12.5 63s-4.16699 42.333 -12.5 63s-20.833 39.334 -37.5 56.001s-35.167 29 -55.5 37s-41.166 12 -62.499 12s-42.333 -4 -63 -12s-39.334 -20.333 -56.001 -37zM737.999 279.997l-105 105.001
c-22.667 -15.333 -46.834 -26.833 -72.501 -34.5s-51.834 -11.5 -78.501 -11.5s-53 3.83301 -79 11.5s-50.333 19.5 -73 35.5l-108 -107l-33 2c-5.33301 9.33301 -10.666 19.333 -15.999 30s-10.333 21.334 -15 32.001l107 107c-16 22 -27.833 45.833 -35.5 71.5
s-11.5 51.834 -11.5 78.501s4 53 12 79s20 50.333 36 73l-107 108l2 33c9.33301 5.33301 19.333 10.666 30 15.999s21.334 10.333 32.001 15l107 -107c22.667 16 47 28.167 73 36.5s52.333 12.5 79 12.5s52.667 -4 78 -12s49.333 -20.333 72 -37l106 106l34 1l30 -66
l-106 -106c16 -22.667 28.167 -47 36.5 -73s12.5 -52.333 12.5 -79s-4 -52.834 -12 -78.501s-20 -49.834 -36 -72.501l106 -105l1 -34z" />
    <glyph glyph-name="yen" unicode="&#xa5;" horiz-adv-x="961" 
d="M236 0l-0.000976562 43.002c60.667 12.667 103.167 25.5 127.5 38.5s36.5 24.167 36.5 33.5v321h-272l-22 25l10.5 32.5c3.66699 11.667 7.5 22.834 11.5 33.501h272v53l-73 146.5c-25.333 49 -51 96 -77 141s-51.667 87 -77 126s-49.333 72.833 -72 101.5
c-6 7.33301 -12.667 14.333 -20 21s-17 12.5 -29 17.5s-27.167 9 -45.5 12s-41.5 4.5 -69.5 4.5l-4 43c39.333 5.33301 78.666 10.166 117.999 14.499s73 6.5 101 6.5c30.667 0 56.667 -13 78 -39c24.667 -32 48.334 -65 71.001 -99s44.667 -69.667 66 -107l64.5 -118.5
l67.5 -134.5l214 379c10 17.333 6.83301 31 -9.5 41s-50.166 18.333 -101.499 25v43h396v-43c-45.333 -8.66699 -80.333 -17.5 -105 -26.5s-41.667 -22.167 -51 -39.5l-282 -517v-51h271l25 -23l-25 -68h-271v-321c0 -4 2.83301 -8.83301 8.5 -14.5s15 -11.834 28 -18.501
s30 -13.334 51 -20.001s47.167 -13 78.5 -19v-43h-490z" />
    <glyph glyph-name="brokenbar" unicode="&#xa6;" horiz-adv-x="469" 
d="M326 -354c-6.66699 -5.33301 -14.8301 -10.498 -24.4971 -15.498s-19.834 -9.83301 -30.501 -14.5s-21.334 -8.83398 -32.001 -12.501l-28 -9.5l-37 23v872c19.333 11.333 38.166 21.166 56.499 29.499s37.833 15.833 58.5 22.5l37 -25v-870zM326.004 767.002
c-6.66699 -5.33301 -14.8301 -10.5 -24.4971 -15.5s-19.834 -9.66699 -30.501 -14s-21.334 -8.33301 -32.001 -12l-28 -9.5l-37 22v883c19.333 11.333 38.166 21 56.499 29s37.833 14.667 58.5 20l37 -22v-881z" />
    <glyph glyph-name="section" unicode="&#xa7;" horiz-adv-x="961" 
d="M538 529l52.501 -27.498c17.667 -9 34.834 -18.5 51.501 -28.5c21.333 13.333 38.166 30.5 50.499 51.5s18.5 44.167 18.5 69.5c0 30.667 -6.16699 58.5 -18.5 83.5s-31.166 49.333 -56.499 73s-57.166 47.334 -95.499 71.001s-83.5 49.5 -135.5 77.5
c-15.333 8 -30 16.5 -44 25.5l-41 27.5c-12 -4 -22.333 -11 -31 -21s-15.834 -21.333 -21.501 -34s-10 -25.667 -13 -39s-4.5 -25.333 -4.5 -36c0 -30.667 5.66699 -57.834 17 -81.501s28.666 -46.334 51.999 -68.001s53.166 -43.834 89.499 -66.501zM842.001 656.002
c0 -29.333 -3.16406 -56.6641 -9.49707 -81.9971s-15 -48.5 -26 -69.5s-23.5 -39.5 -37.5 -55.5s-28.333 -29.667 -43 -41c17.333 -18.667 31.166 -39.667 41.499 -63s15.5 -50.666 15.5 -81.999c0 -47.333 -6.66699 -87.333 -20 -120s-30.666 -59.834 -51.999 -81.501
s-45 -38.667 -71 -51s-51.667 -21.5 -77 -27.5s-49 -9.66699 -71 -11s-39.667 -2 -53 -2c-16 0 -33.833 2 -53.5 6s-40.334 9.66699 -62.001 17s-44 16.166 -67 26.499s-45.5 21.5 -67.5 33.5c-4.66699 2 -7.83398 12.833 -9.50098 32.5s-2 42.334 -1 68.001s3 51.5 6 77.5
s6.83301 46.667 11.5 62l43 -11c1.33301 -28 8.66602 -54.833 21.999 -80.5s31.166 -48.5 53.499 -68.5s48.333 -35.833 78 -47.5s61.834 -17.5 96.501 -17.5c48 0 87.333 11.333 118 34s46 57.667 46 105c0 26.667 -7.16699 49.667 -21.5 69s-33.333 36.833 -57 52.5
s-50.334 30.5 -80.001 44.5s-59.5 29.333 -89.5 46c-44 24 -83.667 48.167 -119 72.5s-65.333 50.333 -90 78s-43.667 58.167 -57 91.5s-20 71.333 -20 114c0 24.667 3.83301 48.5 11.5 71.5s18 44.667 31 65s28 38.666 45 54.999s34.833 30.5 53.5 42.5
c-23.333 26.667 -41.333 55.667 -54 87s-19 66 -19 104c0 41.333 8.33301 77.166 25 107.499s38.834 55.333 66.501 75s59.334 34.167 95.001 43.5s72.5 14 110.5 14c20.667 0 43.5 -2.33301 68.5 -7s49.667 -11 74 -19s47.166 -17.167 68.499 -27.5
s38.666 -21.5 51.999 -33.5c4 -4 4.5 -13 1.5 -27s-7.66699 -29.333 -14 -46s-13.166 -32.334 -20.499 -47.001s-13 -24.667 -17 -30l-39 8c-32 48 -65.167 83.167 -99.5 105.5s-67.833 33.5 -100.5 33.5c-44 0 -78.5 -9.5 -103.5 -28.5s-37.5 -46.167 -37.5 -81.5
c0 -23.333 4.66699 -44.5 14 -63.5s23.166 -37.5 41.499 -55.5s41.333 -36 69 -54s59.834 -37.333 96.501 -58c44.667 -25.333 85.5 -49.5 122.5 -72.5s69 -47.667 96 -74s48 -55.833 63 -88.5s22.5 -72 22.5 -118z" />
    <glyph glyph-name="dieresis" unicode="&#xa8;" horiz-adv-x="801" 
d="M700 1261c0 -18.667 -3.00098 -36.3359 -9.00098 -53.0029s-14.167 -31.167 -24.5 -43.5s-22.5 -22.166 -36.5 -29.499s-29.333 -11 -46 -11c-30 0 -51.5 8.33301 -64.5 25s-19.5 40.334 -19.5 71.001c0 18.667 3 36.334 9 53.001s14.333 31.167 25 43.5
s22.834 22 36.501 29s28.5 10.5 44.5 10.5c56.667 0 85 -31.667 85 -95zM299.999 1261c0 -18.667 -3.00098 -36.3359 -9.00098 -53.0029s-14.167 -31.167 -24.5 -43.5s-22.5 -22.166 -36.5 -29.499s-29.333 -11 -46 -11c-30 0 -51.5 8.33301 -64.5 25
s-19.5 40.334 -19.5 71.001c0 18.667 3 36.334 9 53.001s14.333 31.167 25 43.5s22.834 22 36.501 29s28.5 10.5 44.5 10.5c56.667 0 85 -31.667 85 -95z" />
    <glyph glyph-name="copyright" unicode="&#xa9;" horiz-adv-x="1460" 
d="M1018 369c-30 -28.667 -58.5029 -52.6689 -85.5029 -72.002s-53.167 -35 -78.5 -47s-50.166 -20.5 -74.499 -25.5s-48.5 -7.5 -72.5 -7.5c-43.333 0 -85.833 8.66699 -127.5 26s-78.834 42.5 -111.501 75.5s-59.167 73.333 -79.5 121s-30.5 101.834 -30.5 162.501
c0 66.667 11.167 127.334 33.5 182.001s52.833 101.167 91.5 139.5s83.5 68 134.5 89s105.167 31.5 162.5 31.5c50.667 0 94.667 -6.16699 132 -18.5s68.666 -27.166 93.999 -44.499c2.66699 -2 1.83398 -7.33301 -2.49902 -16s-10 -18.334 -17 -29.001s-14.667 -21 -23 -31
s-15.5 -17.333 -21.5 -22l-24 4c-24 18.667 -51 36 -81 52s-65.333 24 -106 24c-21.333 0 -46 -5.33301 -74 -16s-54.5 -28.834 -79.5 -54.501s-46 -60.167 -63 -103.5s-25.5 -97.333 -25.5 -162c0 -53.333 9.83301 -100 29.5 -140s44.334 -73.5 74.001 -100.5
s61.334 -47.333 95.001 -61s64.5 -20.5 92.5 -20.5c14.667 0 29 1.33301 43 4s29.333 7.33398 46 14.001s34.834 16 54.501 28s42.167 27.333 67.5 46c5.33301 -2 10.333 -6.66699 15 -14s8.66699 -12 12 -14zM1274 630.998c0 78.667 -13.5 152.834 -40.5 222.501
s-64.667 130.5 -113 182.5s-105.833 93 -172.5 123s-139.667 45 -219 45c-78.667 0 -151.167 -15 -217.5 -45s-123.666 -71 -171.999 -123s-86 -112.833 -113 -182.5s-40.5 -143.834 -40.5 -222.501c0 -79.333 13.5 -154 40.5 -224s64.667 -131 113 -183
s105.666 -93 171.999 -123s138.833 -45 217.5 -45c79.333 0 152.333 15 219 45s124.167 71 172.5 123s86 113 113 183s40.5 144.667 40.5 224zM1360 630.998c0 -60.667 -7.16699 -119.164 -21.5 -175.497s-34.666 -109 -60.999 -158s-58.333 -93.667 -96 -134
s-79.834 -74.833 -126.501 -103.5s-97.5 -50.834 -152.5 -66.501s-112.833 -23.5 -173.5 -23.5c-91.333 0 -175.333 17.333 -252 52s-143 81.834 -199 141.501s-99.667 129.667 -131 210s-47 166.166 -47 257.499c0 90.667 15.667 176.167 47 256.5s75 150.166 131 209.499
s122.333 106.333 199 141s160.667 52 252 52c60.667 0 118.5 -7.83301 173.5 -23.5s105.833 -37.834 152.5 -66.501s88.834 -63 126.501 -103s69.667 -84.5 96 -133.5s46.666 -101.5 60.999 -157.5s21.5 -114.333 21.5 -175z" />
    <glyph glyph-name="ordfeminine" unicode="&#xaa;" horiz-adv-x="524" 
d="M514 768c-30.667 -20.667 -56.1631 -35.3359 -76.4961 -44.0029s-35.833 -13 -46.5 -13c-9.33301 0 -18.833 6.66699 -28.5 20s-16.834 34.333 -21.501 63c-32 -30 -63.5 -51.333 -94.5 -64s-57.833 -19 -80.5 -19c-13.333 0 -26.833 2 -40.5 6s-26.167 10.5 -37.5 19.5
s-20.666 20.667 -27.999 35s-11 32.166 -11 53.499c0 41.333 15.833 77.833 47.5 109.5s81.5 56.834 149.5 75.501l92 24v17c0 20.667 -1.16699 38.834 -3.5 54.501s-6.5 28.834 -12.5 39.501s-14.667 18.834 -26 24.501s-26 8.5 -44 8.5c-10 0 -20.333 -2.33301 -31 -7
s-20 -11.167 -28 -19.5s-13.833 -18.333 -17.5 -30s-2.83398 -24.5 2.49902 -38.5c0.666992 -3.33301 -3.5 -6.83301 -12.5 -10.5s-19.5 -7 -31.5 -10s-23.833 -5.33301 -35.5 -7s-19.834 -1.83398 -24.501 -0.500977l-8 20c2.66699 20.667 13.167 40.667 31.5 60
s39.5 36.5 63.5 51.5s48.667 26.833 74 35.5s46.666 13 63.999 13c24 0 44.333 -3.33301 61 -10s30.167 -17.667 40.5 -33s17.833 -35.666 22.5 -60.999s7 -56.333 7 -93v-196c0 -18.667 1.33301 -32.167 4 -40.5s6 -14.833 10 -19.5c3.33301 -2 10.166 -2.5 20.499 -1.5
s24.833 5.16699 43.5 12.5zM51.0039 585.998v73h434v-73h-434zM338.004 839.998v151.999l-43 -11c-29.333 -8 -53.5 -16.833 -72.5 -26.5s-34.167 -20 -45.5 -31s-19.166 -22.833 -23.499 -35.5s-6.5 -26 -6.5 -40s1.83301 -25.333 5.5 -34s8.16699 -15.5 13.5 -20.5
s11 -8.5 17 -10.5s11.333 -3 16 -3c20.667 0 42.667 4.83301 66 14.5s47.666 24.834 72.999 45.501z" />
    <glyph glyph-name="guillemotleft" unicode="&#xab;" horiz-adv-x="994" 
d="M80 430v35.002c0 9.33301 0.166992 17.666 0.5 24.999s0.833008 11.666 1.5 12.999l359 410l42 -30l-10 -18l-26 -47.5l-37 -67l-43 -76.5l-42.5 -76.5l-36.5 -66.5l-26 -46.5c-6.66699 -11.667 -9.66699 -17.5 -9 -17.5l231 -420l-43 -30zM450 430.002v35.002
c0 9.33301 0.166992 17.666 0.5 24.999s0.833008 11.666 1.5 12.999l359 410l42 -30l-10 -18l-26 -47.5l-37 -67l-43 -76.5l-42.5 -76.5l-36.5 -66.5l-26 -46.5c-6.66699 -11.667 -9.66699 -17.5 -9 -17.5l231 -420l-43 -30z" />
    <glyph glyph-name="logicalnot" unicode="&#xac;" horiz-adv-x="961" 
d="M891 233l-40.499 -29.001c-13.667 -9.33301 -28.834 -16.666 -45.501 -21.999l-25 25v299h-694l-25 24c3.33301 13.333 7.83301 28 13.5 44s11.5 30.667 17.5 44h770l29 -22v-363z" />
    <glyph glyph-name="uni00AD" unicode="&#xad;" horiz-adv-x="690" 
d="M629 546c-4 -14.667 -8.83301 -30.667 -14.5 -48s-11.167 -31.666 -16.5 -42.999h-512l-25 24c3.33301 14.667 7.83301 30.167 13.5 46.5s11.5 31.166 17.5 44.499h512z" />
    <glyph glyph-name="registered" unicode="&#xae;" horiz-adv-x="730" 
d="M696 1084c0 -48 -8.33301 -93 -25 -135s-39.667 -78.667 -69 -110s-64.333 -56 -105 -74s-85 -27 -133 -27s-92 9 -132 27s-74.667 42.667 -104 74s-52.166 68 -68.499 110s-24.5 87 -24.5 135s8.16699 93 24.5 135s39.166 78.667 68.499 110s64 56 104 74s84 27 132 27
s92.333 -9 133 -27s75.667 -42.667 105 -74s52.333 -68 69 -110s25 -87 25 -135zM637 1084c0 39.333 -6.83301 76.5 -20.5 111.5s-32.5 65.5 -56.5 91.5s-52.667 46.5 -86 61.5s-70 22.5 -110 22.5c-39.333 0 -75.5 -7.5 -108.5 -22.5s-61.5 -35.5 -85.5 -61.5
s-42.833 -56.5 -56.5 -91.5s-20.5 -72.167 -20.5 -111.5c0 -40 6.83301 -77.333 20.5 -112s32.5 -65 56.5 -91s52.5 -46.5 85.5 -61.5s69.167 -22.5 108.5 -22.5c40 0 76.667 7.5 110 22.5s62 35.5 86 61.5s42.833 56.333 56.5 91s20.5 72 20.5 112zM214 887
l-0.00292969 17.9971c29.333 6 44 12.333 44 19v326l-44 -6l-2 29c19.333 4.66699 39.666 8.83398 60.999 12.501s46 5.5 74 5.5c50 0 87.833 -9 113.5 -27s38.5 -40.667 38.5 -68c0 -31.333 -9.33301 -57.166 -28 -77.499s-42.667 -34.166 -72 -41.499l103 -143
c4.66699 -7.33301 10.834 -12 18.501 -14s18.834 -2.33301 33.501 -1l2 -21c-13.333 -4 -27.166 -7.83301 -41.499 -11.5s-25.166 -5.5 -32.499 -5.5c-6 0 -12 2 -18 6s-10.333 8 -13 12l-105 171h-2c-10 0 -20.333 1 -31 3v-149c0 -6.66699 14.333 -13 43 -19v-18h-142z
M335.997 1256l-11.999 0.000976562c-3.33301 0 -7 -0.333008 -11 -1v-146c5.33301 -1.33301 9.66602 -2 12.999 -2h14c34 0 58.833 7 74.5 21s23.5 33.667 23.5 59c0 19.333 -7.5 35.666 -22.5 48.999s-41.5 20 -79.5 20z" />
    <glyph glyph-name="macron" unicode="&#xaf;" horiz-adv-x="1010" 
d="M843 1281c-1.33301 -7.33301 -3.66504 -15.8311 -6.99805 -25.498s-7 -19.334 -11 -29.001l-11.5 -28.5c-3.66699 -9.33301 -6.83398 -17 -9.50098 -23h-615l-22 25c1.33301 7.33301 3.66602 15.666 6.99902 24.999s7 18.833 11 28.5l12 28c4 9 7.66699 16.833 11 23.5
h613z" />
    <glyph glyph-name="degree" unicode="&#xb0;" horiz-adv-x="733" 
d="M484 995c0 19.333 -2.49805 37.8369 -7.49805 55.5039s-12 33.334 -21 47.001s-20.167 24.5 -33.5 32.5s-28 12 -44 12c-16.667 0 -32.667 -3.33301 -48 -10s-29 -16.334 -41 -29.001s-21.5 -27.834 -28.5 -45.501s-10.5 -37.5 -10.5 -59.5
c0 -18.667 2.33301 -36.834 7 -54.501s11.5 -33.334 20.5 -47.001s20 -24.667 33 -33s27.833 -12.5 44.5 -12.5c16 0 31.667 3.16699 47 9.5s29.166 15.666 41.499 27.999s22.166 27.333 29.499 45s11 38.167 11 61.5zM593.002 1045c0 -41.333 -8 -79.333 -24 -114
s-36.667 -64.834 -62 -90.501s-53.666 -45.667 -84.999 -60s-62.333 -21.5 -93 -21.5c-27.333 0 -52.666 5 -75.999 15s-43.333 23.667 -60 41s-29.667 37.333 -39 60s-14 47 -14 73c0 41.333 7.83301 79.5 23.5 114.5s36.167 65.333 61.5 91s53.666 45.667 84.999 60
s62.666 21.5 93.999 21.5c26 0 50.5 -5.16699 73.5 -15.5s43 -24.166 60 -41.499s30.5 -37.5 40.5 -60.5s15 -47.167 15 -72.5z" />
    <glyph glyph-name="plusminus" unicode="&#xb1;" horiz-adv-x="840" 
d="M778 216c-3.33301 -13.333 -7.83301 -28.166 -13.5 -44.499s-11.167 -30.166 -16.5 -41.499h-662l-25 24c3.33301 13.333 7.83301 27.666 13.5 42.999s11.5 29.666 17.5 42.999h662zM477 366c-13.333 -6.66699 -28.002 -12.668 -44.002 -18.001
s-31.333 -9.66602 -46 -12.999l-25 22v280h-276l-25 24c3.33301 13.333 7.83301 27.666 13.5 42.999s11.5 29.666 17.5 42.999h270v274c12.667 4 27.334 9 44.001 15s32.334 10.667 47.001 14l24 -24v-279h277l24 -24c-3.33301 -13.333 -7.83301 -28.166 -13.5 -44.499
s-11.167 -30.166 -16.5 -41.499h-271v-271z" />
    <glyph glyph-name="twosuperior" unicode="&#xb2;" horiz-adv-x="673" 
d="M585 620l-506.003 -0.00390625l-20 44l145 146.5l106 112.5c29.333 32.667 53.666 61.334 72.999 86.001s34.5 46.667 45.5 66s18.667 36.833 23 52.5s6.5 31.167 6.5 46.5c0 37.333 -9.83301 66.833 -29.5 88.5s-53.5 32.5 -101.5 32.5c-18 0 -34.333 -3.33301 -49 -10
s-27.167 -15.334 -37.5 -26.001s-18.5 -23 -24.5 -37s-9 -28 -9 -42c-16 -7.33301 -33.167 -13.5 -51.5 -18.5s-38.166 -8.5 -59.499 -10.5l-18 18c0 20.667 8.16699 42.334 24.5 65.001s38.333 43.334 66 62.001s59.334 34.167 95.001 46.5s72.834 18.5 111.501 18.5
c30.667 0 58.834 -3.33301 84.501 -10s47.834 -17 66.501 -31s33.167 -31.667 43.5 -53s15.5 -46.666 15.5 -75.999c0 -26.667 -6.33301 -53.667 -19 -81s-33.667 -59.166 -63 -95.499s-68.166 -79.333 -116.499 -129l-180.5 -182.5h273c15.333 0 27.666 5 36.999 15
s16.666 21 21.999 33c6 14 10 30 12 48l45 -7z" />
    <glyph glyph-name="threesuperior" unicode="&#xb3;" horiz-adv-x="673" 
d="M587 849c0 -34 -6.67188 -65.8301 -20.0049 -95.4971s-32.666 -55.834 -57.999 -78.501s-56.166 -40.5 -92.499 -53.5s-77.166 -19.5 -122.499 -19.5c-42 0 -84.667 7.83301 -128 23.5s-86 40.834 -128 75.501l23 41c21.333 -13.333 41.166 -24.5 59.499 -33.5
s36 -16.167 53 -21.5s33.833 -9 50.5 -11s33.667 -3 51 -3c54.667 0 98.5 13.167 131.5 39.5s49.5 65.166 49.5 116.499c0 30 -5.16699 55.167 -15.5 75.5s-23.666 36.833 -39.999 49.5s-34.5 21.667 -54.5 27s-39.667 8 -59 8h-15
c-2.66699 0 -5.33398 -0.166992 -8.00098 -0.5s-5.66699 -0.833008 -9 -1.5s-8.66602 -1.33398 -15.999 -2.00098l-9 46c41.333 10 74.333 21.333 99 34s43.5 25.667 56.5 39s21.333 27 25 41s5.5 27 5.5 39c0 14 -2.16699 27.5 -6.5 40.5s-11.166 24.833 -20.499 35.5
s-21.5 19.167 -36.5 25.5s-33.167 9.5 -54.5 9.5c-35.333 0 -62 -8.33301 -80 -25s-24.333 -38.667 -19 -66c-15.333 -7.33301 -33.666 -12.833 -54.999 -16.5s-42 -6.16699 -62 -7.5l-19 19c0 16.667 7.5 34.5 22.5 53.5s35.167 36.5 60.5 52.5s54.5 29.333 87.5 40
s67.833 16 104.5 16c36 0 67 -4.83301 93 -14.5s47.5 -22.334 64.5 -38.001s29.667 -33.5 38 -53.5s12.5 -40 12.5 -60c0 -15.333 -3.33301 -30.666 -10 -45.999s-16.334 -30 -29.001 -44s-28.167 -26.833 -46.5 -38.5s-38.833 -20.834 -61.5 -27.501
c26.667 -2.66699 51.5 -9.5 74.5 -20.5s42.833 -25 59.5 -42s29.834 -36.5 39.501 -58.5s14.5 -45 14.5 -69z" />
    <glyph glyph-name="acute" unicode="&#xb4;" horiz-adv-x="653" 
d="M274 1047c-12 2.66699 -22.499 6.5 -31.499 11.5s-17.5 10.5 -25.5 16.5l234 414c8 -0.666992 18.667 -1.83398 32 -3.50098s27.166 -3.66699 41.499 -6s28 -4.66602 41 -6.99902s23.167 -4.5 30.5 -6.5l23 -39z" />
    <glyph glyph-name="mu" unicode="&#xb5;" horiz-adv-x="1105" 
d="M1085 82l-62.001 -39c-21.333 -13.333 -42 -25.5 -62 -36.5s-38.5 -20 -55.5 -27s-31.167 -10.5 -42.5 -10.5c-14 0 -26 5.66699 -36 17s-18.333 26.666 -25 45.999s-11.834 41.666 -15.501 66.999s-5.83398 52.333 -6.50098 81c-54 -70 -106.167 -122.667 -156.5 -158
s-94.833 -53 -133.5 -53c-39.333 0 -78 13.5 -116 40.5s-71.667 64.5 -101 112.5v-6c-0.666992 -74 2.83301 -140 10.5 -198s18 -109.333 31 -154s28 -82.834 45 -114.501s34.167 -57.834 51.5 -78.501c-10 -3.33301 -23.5 -8.16602 -40.5 -14.499l-53 -20l-52 -20.5
c-16.333 -6.66699 -28.5 -12 -36.5 -16l-39 29v1202c0 26 -0.833008 46.333 -2.5 61s-6.66699 26 -15 34s-21.166 13.833 -38.499 17.5s-41.666 7.16699 -72.999 10.5v40l71.5 13c21.667 4 42.167 8.5 61.5 13.5s37.833 10.5 55.5 16.5s35.167 13.667 52.5 23l4 -5l11 -11.5
l12.5 -14l10.5 -12.5v-551c0 -23.333 4.33301 -48.666 13 -75.999s20.834 -52.666 36.501 -75.999s34.834 -43 57.501 -59s48 -24 76 -24c18 0 36.5 1.66699 55.5 5s39 10.5 60 21.5s43.167 26.667 66.5 47s48.333 47.833 75 82.5v461c0 10.667 -1.16699 23.5 -3.5 38.5
s-5.33301 29.833 -9 44.5s-7.66699 28.334 -12 41.001s-8.83301 22 -13.5 28c29.333 8 59.166 17.167 89.499 27.5s59.166 21.166 86.499 32.499l28 -39c-2.66699 -17.333 -5.66699 -38.166 -9 -62.499s-5.66602 -57.5 -6.99902 -99.5v-491c0 -62 3 -105.667 9 -131
s16 -38 30 -38c14.667 0 30.5 2.5 47.5 7.5s36.5 11.833 58.5 20.5z" />
    <glyph glyph-name="paragraph" unicode="&#xb6;" horiz-adv-x="1135" 
d="M444 -250l0.000976562 43.001c46 9.33301 81.833 19.666 107.5 30.999s38.5 21.666 38.5 30.999l1 677c-12 -2 -25 -3.5 -39 -4.5s-30 -1.5 -48 -1.5c-62 0 -120.5 7.83301 -175.5 23.5s-103.333 39.334 -145 71.001s-74.5 71 -98.5 118s-36 101.833 -36 164.5
c0 56.667 11.167 108.667 33.5 156s53.833 88.166 94.5 122.499s89.167 61 145.5 80s118.166 28.5 185.499 28.5c14.667 0 32.667 -0.5 54 -1.5s44.5 -2.16699 69.5 -3.5s51 -2.83301 78 -4.5s53.5 -3.5 79.5 -5.5l194 -15h72v-43
c-45.333 -9.33301 -81 -19.666 -107 -30.999s-39 -21.666 -39 -30.999v-1300c0 -8.66699 12.167 -18.834 36.5 -30.501s60.833 -22.167 109.5 -31.5v-43h-611zM591.001 610.001l0.99707 590c-41.333 4 -75.666 6 -102.999 6c-40 0 -76.667 -7 -110 -21
s-62.166 -33 -86.499 -57s-43.333 -52.333 -57 -85s-20.5 -67.667 -20.5 -105c0 -36 6.33301 -73.333 19 -112s32.5 -74 59.5 -106s61.333 -58.333 103 -79s91.834 -31 150.501 -31h44zM790.998 1159c-13.333 4.66699 -26.668 8.66699 -40.001 12l-40 10v-1326
c0 -7.33301 4.83301 -13.833 14.5 -19.5s17.834 -9.5 24.501 -11.5c8 2 16.833 5.83301 26.5 11.5s14.5 12.167 14.5 19.5v1304z" />
    <glyph glyph-name="periodcentered" unicode="&#xb7;" horiz-adv-x="300" 
d="M250 721c0 -18.667 -3.00098 -36.3359 -9.00098 -53.0029s-14.167 -31.167 -24.5 -43.5s-22.5 -22.166 -36.5 -29.499s-29.333 -11 -46 -11c-30 0 -51.5 8.33301 -64.5 25s-19.5 40.334 -19.5 71.001c0 18.667 3 36.334 9 53.001s14.333 31.167 25 43.5
s22.834 22 36.501 29s28.5 10.5 44.5 10.5c56.667 0 85 -31.667 85 -95z" />
    <glyph glyph-name="cedilla" unicode="&#xb8;" horiz-adv-x="469" 
d="M408 -229c0 -24.667 -5.83105 -48.334 -17.498 -71.001s-29.834 -43.334 -54.501 -62.001s-56.5 -35 -95.5 -49s-85.833 -25 -140.5 -33l-22 49c34.667 6 64.167 13.5 88.5 22.5s44.166 18.833 59.499 29.5s26.5 21.834 33.5 33.501s10.5 22.834 10.5 33.501
c0 22.667 -8.66699 38.5 -26 47.5s-46.666 15.5 -87.999 19.5c1.33301 2 4.66602 11.333 9.99902 28l21.5 66l41.5 129l78 -2l-39 -116c17.333 -4 34.5 -9.16699 51.5 -15.5s32 -14.5 45 -24.5s23.5 -22 31.5 -36s12 -30.333 12 -49z" />
    <glyph glyph-name="onesuperior" unicode="&#xb9;" horiz-adv-x="673" 
d="M119 620l-0.000976562 41.9971c36.667 4 66.5 8.16699 89.5 12.5s41.167 8.83301 54.5 13.5s22.5 9.5 27.5 14.5s7.5 9.5 7.5 13.5v458c0 16 -0.666992 28.5 -2 37.5s-5 16.167 -11 21.5c-2.66699 2.66699 -7.5 4.66699 -14.5 6s-17 1.83301 -30 1.5
s-30 -1.66602 -51 -3.99902s-46.833 -6.5 -77.5 -12.5l-15 41c19.333 4.66699 43 11.334 71 20.001l85.5 27.5c29 9.66699 56.333 19.334 82 29.001s46.167 18.167 61.5 25.5l26 -21v-630c0 -4 2 -8.33301 6 -13s11.833 -9.5 23.5 -14.5s28.334 -9.66699 50.001 -14
s50.167 -8.5 85.5 -12.5v-42h-469z" />
    <glyph glyph-name="ordmasculine" unicode="&#xba;" horiz-adv-x="578" 
d="M434 967c0 28 -4.33301 54.667 -13 80s-20.334 47.5 -35.001 66.5s-31.834 34.167 -51.501 45.5s-40.5 17 -62.5 17c-20 0 -37.833 -5 -53.5 -15s-29.167 -24 -40.5 -42s-20 -39.167 -26 -63.5s-9 -50.5 -9 -78.5s4.66699 -54.667 14 -80s21.5 -47.5 36.5 -66.5
s32.167 -34.167 51.5 -45.5s39.333 -17 60 -17c18 0 34.833 5 50.5 15s29.334 24 41.001 42s20.834 39.167 27.501 63.5s10 50.5 10 78.5zM61 586v73h455v-73h-455zM528 983c0 -34 -7.49902 -67.333 -22.499 -100s-34.5 -61.834 -58.5 -87.501s-51.333 -46.167 -82 -61.5
s-61.667 -23 -93 -23c-33.333 0 -63.666 6.33301 -90.999 19s-50.833 30.167 -70.5 52.5s-34.834 48.833 -45.501 79.5s-16 64.334 -16 101.001c0 34.667 6.66699 68.334 20 101.001s31.666 61.667 54.999 87s50.5 45.666 81.5 60.999s64.167 23 99.5 23
c32 0 61.667 -6.33301 89 -19s51 -30.167 71 -52.5s35.5 -49 46.5 -80s16.5 -64.5 16.5 -100.5z" />
    <glyph glyph-name="guillemotright" unicode="&#xbb;" horiz-adv-x="994" 
d="M914 430l-361 -413l-43 30l231 420l-230 416l42 30l359 -410zM544 430l-361 -413l-43 30l231 420l-230 416l42 30l359 -410z" />
    <glyph glyph-name="onequarter" unicode="&#xbc;" horiz-adv-x="1200" 
d="M950 491l-201 -265h201v265zM1120 210l-21.999 -26.501c-6.66699 -7.66699 -14.334 -14.167 -23.001 -19.5h-31v-106c0 -2.66699 0.666992 -5 2 -7s4.5 -4.16699 9.5 -6.5s12.167 -4.83301 21.5 -7.5s21.666 -5.33398 36.999 -8.00098v-29h-274v29
c24 3.33301 43.333 6.5 58 9.5s25.834 5.83301 33.501 8.5s12.667 5.33398 15 8.00098s3.5 5.33398 3.5 8.00098v101h-278l-19 16l280 383c15.333 6 31.5 12 48.5 18s31.167 11.667 42.5 17l20 -17v-355h61zM97.001 636.999l0.00390625 33.998
c29.333 2.66699 53.333 5.83398 72 9.50098s33.167 7.33398 43.5 11.001s17.5 7.5 21.5 11.5s6 7.66699 6 11v366c0 13.333 -0.333008 23.5 -1 30.5s-3.66699 12.5 -9 16.5c-2 2 -5.83301 3.66699 -11.5 5s-13.667 1.83301 -24 1.5s-23.833 -1.5 -40.5 -3.5
s-37.334 -5.33301 -62.001 -10l-12 33c15.333 4 34.166 9.33301 56.499 16s45 13.834 68 21.501s45 15.5 66 23.5s37.5 15 49.5 21l20 -17v-504c0 -3.33301 1.66699 -6.83301 5 -10.5s9.66602 -7.5 18.999 -11.5s22.666 -7.83301 39.999 -11.5s40 -6.83398 68 -9.50098v-34
h-375zM316.005 2.99707c-15.333 -7.33301 -30.168 -13.499 -44.501 -18.499s-30.5 -9.83301 -48.5 -14.5l-25 30l762 1203l43.5 17.5c15.667 6.33301 30.834 11.166 45.501 14.499l25 -28z" />
    <glyph glyph-name="onehalf" unicode="&#xbd;" horiz-adv-x="1200" 
d="M97 637l0.00390625 33.998c29.333 2.66699 53.333 5.83398 72 9.50098s33.167 7.33398 43.5 11.001s17.5 7.5 21.5 11.5s6 7.66699 6 11v366c0 13.333 -0.333008 23.5 -1 30.5s-3.66699 12.5 -9 16.5c-2 2 -5.83301 3.66699 -11.5 5s-13.667 1.83301 -24 1.5
s-23.833 -1.5 -40.5 -3.5s-37.334 -5.33301 -62.001 -10l-12 33c15.333 4 34.166 9.33301 56.499 16s45 13.834 68 21.501s45 15.5 66 23.5s37.5 15 49.5 21l20 -17v-504c0 -3.33301 1.66699 -6.83301 5 -10.5s9.66602 -7.5 18.999 -11.5s22.666 -7.83301 39.999 -11.5
s40 -6.83398 68 -9.50098v-34h-375zM316.004 2.99805c-15.333 -7.33301 -30.168 -13.499 -44.501 -18.499s-30.5 -9.83301 -48.5 -14.5l-25 30l762 1203l43.5 17.5c15.667 6.33301 30.834 11.166 45.501 14.499l25 -28zM1112 -0.000976562l-405.001 -0.000976562l-16 35
l162 165c41.333 44 73.666 81 96.999 111s39.166 55 47.499 75s12.5 39 12.5 57c0 30 -7.83301 53.667 -23.5 71s-42.5 26 -80.5 26c-14 0 -27 -2.66699 -39 -8s-22.167 -12.333 -30.5 -21s-14.833 -18.5 -19.5 -29.5s-7 -22.167 -7 -33.5
c-13.333 -6 -27.166 -11 -41.499 -15s-30.166 -6.66699 -47.499 -8l-15 14c0 16.667 6.66699 34.167 20 52.5s31 35 53 50s47.333 27.333 76 37s58.334 14.5 89.001 14.5c24.667 0 47.167 -2.66699 67.5 -8s38 -13.666 53 -24.999s26.667 -25.5 35 -42.5
s12.5 -37.167 12.5 -60.5c0 -21.333 -5 -43 -15 -65s-26.833 -47.5 -50.5 -76.5s-54.834 -63.333 -93.501 -103l-144 -146.5h218c12.667 0 22.834 4 30.501 12s13.5 16.667 17.5 26c4.66699 11.333 7.66699 24.333 9 39l36 -5z" />
    <glyph glyph-name="threequarters" unicode="&#xbe;" horiz-adv-x="1200" 
d="M316 3c-15.333 -7.33301 -30.168 -13.499 -44.501 -18.499s-30.5 -9.83301 -48.5 -14.5l-25 30l762 1203l43.5 17.5c15.667 6.33301 30.834 11.166 45.501 14.499l25 -28zM1120 210.001l-21.999 -26.501c-6.66699 -7.66699 -14.334 -14.167 -23.001 -19.5h-31v-106
c0 -2.66699 0.666992 -5 2 -7s4.5 -4.16699 9.5 -6.5s12.167 -4.83301 21.5 -7.5s21.666 -5.33398 36.999 -8.00098v-29h-274v29c24 3.33301 43.333 6.5 58 9.5s25.834 5.83301 33.501 8.5s12.667 5.33398 15 8.00098s3.5 5.33398 3.5 8.00098v101h-278l-19 16l280 383
c15.333 6 31.5 12 48.5 18s31.167 11.667 42.5 17l20 -17v-355h61zM519.999 825c0 -27.333 -5.33008 -52.834 -15.9971 -76.501s-26.167 -44.5 -46.5 -62.5s-45 -32.167 -74 -42.5s-61.833 -15.5 -98.5 -15.5c-33.333 0 -67.333 6.16699 -102 18.5s-69 32.5 -103 60.5l19 33
c34 -22 64 -36.833 90 -44.5s53 -11.5 81 -11.5c44 0 79.167 10.667 105.5 32s39.5 52.333 39.5 93c0 24 -4.16699 44.167 -12.5 60.5s-19 29.5 -32 39.5s-27.5 17.167 -43.5 21.5s-31.667 6.5 -47 6.5h-12c-2.66699 0 -5 -0.166992 -7 -0.5
s-4.33301 -0.666016 -7 -0.999023s-7 -0.833008 -13 -1.5l-7 37c33.333 8 59.833 17 79.5 27s34.667 20.5 45 31.5s17 21.833 20 32.5s4.5 21 4.5 31c0 10.667 -1.83301 21.334 -5.5 32.001s-9.16699 20.334 -16.5 29.001s-17.166 15.5 -29.499 20.5s-26.833 7.5 -43.5 7.5
c-28 0 -49.333 -6.83301 -64 -20.5s-19.667 -31.167 -15 -52.5c-12.667 -5.33301 -27.334 -9.5 -44.001 -12.5s-33 -5.16699 -49 -6.5l-16 15c0 13.333 6 27.666 18 42.999s28.167 29.5 48.5 42.5s43.666 23.667 69.999 32s54.166 12.5 83.499 12.5
c28.667 0 53.667 -3.83301 75 -11.5s38.666 -17.834 51.999 -30.501s23.333 -27 30 -43s10 -32 10 -48c0 -24 -10.5 -48 -31.5 -72s-49.833 -41.667 -86.5 -53c21.333 -2 41.166 -7.5 59.499 -16.5s34.333 -20.167 48 -33.5s24.334 -28.833 32.001 -46.5
s11.5 -36.167 11.5 -55.5zM950.002 490.999l-201 -265h201v265z" />
    <glyph glyph-name="questiondown" unicode="&#xbf;" horiz-adv-x="887" 
d="M424 530c11.333 10.667 22.166 18.8301 32.499 24.4971s24.166 11.167 41.499 16.5l26 -20l6 -117c2.66699 -38 -2.5 -75.667 -15.5 -113s-30.167 -74.333 -51.5 -111s-44.5 -72.667 -69.5 -108s-48.5 -70.166 -70.5 -104.499s-40.333 -68 -55 -101s-22 -65.5 -22 -97.5
c0 -82.667 18.667 -147.334 56 -194.001s91 -70 161 -70c24 0 46.833 5.5 68.5 16.5s40.834 25.667 57.501 44s29.834 39.5 39.501 63.5s14.5 49 14.5 75c0 10 -1.33301 19.667 -4 29s-6 18.666 -10 27.999c22.667 12.667 45.667 21.834 69 27.501s50 9.5 80 11.5l27 -31
c1.33301 -5.33301 2 -10.666 2 -15.999v-16c0 -47.333 -11.5 -90.833 -34.5 -130.5s-54 -74 -93 -103s-83.833 -51.667 -134.5 -68s-104 -24.5 -160 -24.5c-49.333 0 -93 7.66699 -131 23s-69.833 36.833 -95.5 64.5s-45.167 60.667 -58.5 99s-20 80.5 -20 126.5
c0 50 7.83301 95.167 23.5 135.5s35.5 77.833 59.5 112.5s50 68 78 100s54.667 64.833 80 98.5s47 69.334 65 107.001s28.667 79.834 32 126.501zM586 847.996c0 -22.667 -3.66699 -43.833 -11 -63.5s-17.5 -37 -30.5 -52s-28 -26.833 -45 -35.5s-34.833 -13 -53.5 -13
c-34 0 -58.833 9.83301 -74.5 29.5s-23.5 48.167 -23.5 85.5c0 22.667 3.5 43.667 10.5 63s16.667 36.333 29 51s26.833 26.167 43.5 34.5s34.667 12.5 54 12.5c35.333 0 61 -9.66699 77 -29s24 -47 24 -83z" />
    <glyph glyph-name="Agrave" unicode="&#xc0;" horiz-adv-x="1219" 
d="M758 535l-176 514l-171 -514h347zM381 445l-111.001 -334.003c-6.66699 -20.667 2.33301 -35.667 27 -45s64.334 -17 119.001 -23v-43h-416v43c45.333 8 81.333 16.333 108 25s43.334 23 50.001 43l372 1126c15.333 16.667 34.333 31.834 57 45.501
s42.667 25.167 60 34.5l420 -1206c3.33301 -9.33301 8 -17.666 14 -24.999s14 -13.666 24 -18.999s22.667 -10 38 -14s33.666 -7.33301 54.999 -10v-43h-422v43c52 3.33301 88 10 108 20s26.333 26 19 48l-114 334h-408zM775.999 1412l-21.5 -28.5
c-5 -6.33301 -12.833 -11.833 -23.5 -16.5l-469 243l8 45c4.66699 5.33301 12.167 11.333 22.5 18s21.5 13.5 33.5 20.5l35 20l28 15.5z" />
    <glyph glyph-name="Aacute" unicode="&#xc1;" horiz-adv-x="1219" 
d="M758 535l-176 514l-171 -514h347zM381 445l-111.001 -334.003c-6.66699 -20.667 2.33301 -35.667 27 -45s64.334 -17 119.001 -23v-43h-416v43c45.333 8 81.333 16.333 108 25s43.334 23 50.001 43l372 1126c15.333 16.667 34.333 31.834 57 45.501
s42.667 25.167 60 34.5l420 -1206c3.33301 -9.33301 8 -17.666 14 -24.999s14 -13.666 24 -18.999s22.667 -10 38 -14s33.666 -7.33301 54.999 -10v-43h-422v43c52 3.33301 88 10 108 20s26.333 26 19 48l-114 334h-408zM466.999 1367
c-11.333 4.66699 -19.5 10.167 -24.5 16.5s-11.833 15.833 -20.5 28.5l387 317l27 -15.5l35 -20c12 -7 23 -13.833 33 -20.5s17.667 -12.667 23 -18l9 -45z" />
    <glyph glyph-name="Acircumflex" unicode="&#xc2;" horiz-adv-x="1219" 
d="M758 535l-176 514l-171 -514h347zM381 445l-111.001 -334.003c-6.66699 -20.667 2.33301 -35.667 27 -45s64.334 -17 119.001 -23v-43h-416v43c45.333 8 81.333 16.333 108 25s43.334 23 50.001 43l372 1126c15.333 16.667 34.333 31.834 57 45.501
s42.667 25.167 60 34.5l420 -1206c3.33301 -9.33301 8 -17.666 14 -24.999s14 -13.666 24 -18.999s22.667 -10 38 -14s33.666 -7.33301 54.999 -10v-43h-422v43c52 3.33301 88 10 108 20s26.333 26 19 48l-114 334h-408zM914.999 1412
c-8 -12.667 -14.333 -22.001 -19 -28.001s-12.667 -11.667 -24 -17l-274 208l-271 -208c-5.33301 2.66699 -9.83301 5.33398 -13.5 8.00098s-7 5.66699 -10 9s-6.16699 7.33301 -9.5 12l-12 16l264 309h107z" />
    <glyph glyph-name="Atilde" unicode="&#xc3;" horiz-adv-x="1219" 
d="M758 535l-176 514l-171 -514h347zM381 445l-111.001 -334.003c-6.66699 -20.667 2.33301 -35.667 27 -45s64.334 -17 119.001 -23v-43h-416v43c45.333 8 81.333 16.333 108 25s43.334 23 50.001 43l372 1126c15.333 16.667 34.333 31.834 57 45.501
s42.667 25.167 60 34.5l420 -1206c3.33301 -9.33301 8 -17.666 14 -24.999s14 -13.666 24 -18.999s22.667 -10 38 -14s33.666 -7.33301 54.999 -10v-43h-422v43c52 3.33301 88 10 108 20s26.333 26 19 48l-114 334h-408zM939.999 1626
c-12 -27.333 -26.333 -54.332 -43 -80.999s-35.167 -50.667 -55.5 -72s-42.5 -38.666 -66.5 -51.999s-49 -20 -75 -20c-23.333 0 -45.5 5.83301 -66.5 17.5s-41.5 24.667 -61.5 39s-39.833 27.333 -59.5 39s-39.167 17.5 -58.5 17.5c-26.667 0 -51 -10.833 -73 -32.5
s-45.333 -51.167 -70 -88.5l-53 20c12 27.333 26.167 54.5 42.5 81.5s34.833 51.167 55.5 72.5s42.834 38.666 66.501 51.999s48.5 20 74.5 20c25.333 0 49.333 -5.83301 72 -17.5s44 -24.667 64 -39s39 -27.333 57 -39s35 -17.5 51 -17.5c25.333 0 50.166 10.667 74.499 32
s47.833 51.666 70.5 90.999z" />
    <glyph glyph-name="Adieresis" unicode="&#xc4;" horiz-adv-x="1219" 
d="M758 535l-176 514l-171 -514h347zM381 445l-111.001 -334.003c-6.66699 -20.667 2.33301 -35.667 27 -45s64.334 -17 119.001 -23v-43h-416v43c45.333 8 81.333 16.333 108 25s43.334 23 50.001 43l372 1126c15.333 16.667 34.333 31.834 57 45.501
s42.667 25.167 60 34.5l420 -1206c3.33301 -9.33301 8 -17.666 14 -24.999s14 -13.666 24 -18.999s22.667 -10 38 -14s33.666 -7.33301 54.999 -10v-43h-422v43c52 3.33301 88 10 108 20s26.333 26 19 48l-114 334h-408zM898.999 1541
c0 -18.667 -3.00098 -36.3359 -9.00098 -53.0029s-14.167 -31.167 -24.5 -43.5s-22.5 -22.166 -36.5 -29.499s-29.333 -11 -46 -11c-30 0 -51.5 8.33301 -64.5 25s-19.5 40.334 -19.5 71.001c0 18.667 3 36.334 9 53.001s14.333 31.167 25 43.5s22.834 22 36.501 29
s28.5 10.5 44.5 10.5c56.667 0 85 -31.667 85 -95zM498.998 1541c0 -18.667 -3.00098 -36.3359 -9.00098 -53.0029s-14.167 -31.167 -24.5 -43.5s-22.5 -22.166 -36.5 -29.499s-29.333 -11 -46 -11c-30 0 -51.5 8.33301 -64.5 25s-19.5 40.334 -19.5 71.001
c0 18.667 3 36.334 9 53.001s14.333 31.167 25 43.5s22.834 22 36.501 29s28.5 10.5 44.5 10.5c56.667 0 85 -31.667 85 -95z" />
    <glyph glyph-name="Aring" unicode="&#xc5;" horiz-adv-x="1219" 
d="M758 535l-176 514l-171 -514h347zM381 445l-111.001 -334.003c-6.66699 -20.667 2.33301 -35.667 27 -45s64.334 -17 119.001 -23v-43h-416v43c45.333 8 81.333 16.333 108 25s43.334 23 50.001 43l372 1126c15.333 16.667 34.333 31.834 57 45.501
s42.667 25.167 60 34.5l420 -1206c3.33301 -9.33301 8 -17.666 14 -24.999s14 -13.666 24 -18.999s22.667 -10 38 -14s33.666 -7.33301 54.999 -10v-43h-422v43c52 3.33301 88 10 108 20s26.333 26 19 48l-114 334h-408zM694.999 1563c0 16 -1.99902 31.333 -5.99902 46
s-9.66699 27.5 -17 38.5s-16.333 19.833 -27 26.5s-22.667 10 -36 10c-14 0 -27.333 -2.83301 -40 -8.5s-23.834 -13.667 -33.501 -24s-17.5 -22.833 -23.5 -37.5s-9 -31 -9 -49c0 -15.333 2 -30.166 6 -44.499s9.66699 -27 17 -38s16.333 -19.833 27 -26.5
s22.667 -10 36 -10s26.333 2.5 39 7.5s24 12.5 34 22.5s18 22.167 24 36.5s9 31.166 9 50.499zM785 1604c0 -34 -6.5 -65.168 -19.5 -93.501s-30 -53 -51 -74s-44.333 -37.333 -70 -49s-51.167 -17.5 -76.5 -17.5c-22.667 0 -43.5 4 -62.5 12s-35.333 19 -49 33
s-24.334 30.333 -32.001 49s-11.5 38.667 -11.5 60c0 34 6.5 65.5 19.5 94.5s29.833 54 50.5 75s43.834 37.333 69.501 49s51.5 17.5 77.5 17.5c21.333 0 41.5 -4.16699 60.5 -12.5s35.5 -19.666 49.5 -33.999s25 -31 33 -50s12 -38.833 12 -59.5z" />
    <glyph glyph-name="AE" unicode="&#xc6;" horiz-adv-x="1595" 
d="M774 1148c0 7.33301 -3.16504 12.667 -9.49805 16s-13.833 4.5 -22.5 3.5s-17.334 -4.5 -26.001 -10.5s-15.334 -14.667 -20.001 -26l-157 -396h235v413zM1536 244.001c-6 -58 -13.334 -108.331 -22.001 -150.998s-15.667 -73.667 -21 -93h-862v43
c45.333 9.33301 80.5 19.5 105.5 30.5s37.5 21.167 37.5 30.5v547h-269l-220 -540c-8.66699 -19.333 -2.66699 -34 18 -44s58.334 -18 113.001 -24v-43h-416v43c45.333 8 80.833 16.5 106.5 25.5s42.834 23.167 51.501 42.5l413 1022c4.66699 11.333 3.5 20.833 -3.5 28.5
s-18.833 14.667 -35.5 21s-37.834 12.166 -63.501 17.499s-54.834 11 -87.501 17v43h1057l30 -25c-1.33301 -17.333 -3.16602 -36.333 -5.49902 -57s-5.33301 -41.334 -9 -62.001s-7.83398 -40.334 -12.501 -59.001s-9.33398 -34.334 -14.001 -47.001h-45
c-1.33301 30.667 -4 56.334 -8 77.001s-9.33301 37.167 -16 49.5s-14.834 21 -24.501 26s-20.834 7.5 -33.501 7.5h-366v-435h405l27 -28l-20 -30c-7.33301 -10.667 -15.166 -21.167 -23.499 -31.5s-16.666 -19.833 -24.999 -28.5s-16.166 -15.667 -23.499 -21
c-10 10 -20.667 18.333 -32 25s-24.666 12.334 -39.999 17.001s-33.333 8 -54 10s-45 3 -73 3h-141v-497c0 -10 2.5 -18.833 7.5 -26.5s15 -14.334 30 -20.001s36 -10 63 -13s62.5 -4.5 106.5 -4.5h129c30.667 0 56.834 1.66699 78.501 5s40.667 10.833 57 22.5
s31.166 28.834 44.499 51.501s27 53.667 41 93z" />
    <glyph glyph-name="Ccedilla" unicode="&#xc7;" horiz-adv-x="1098" 
d="M749 -229c0 -24.667 -5.83105 -48.3359 -17.498 -71.0029s-29.834 -43.334 -54.501 -62.001s-56.5 -35 -95.5 -49s-85.833 -25 -140.5 -33l-22 49c34.667 6 64.167 13.5 88.5 22.5s44.166 18.833 59.499 29.5s26.5 21.834 33.5 33.501s10.5 22.834 10.5 33.501
c0 22.667 -8.66699 38.5 -26 47.5s-46.666 15.5 -87.999 19.5c1.33301 2 4.66602 11.333 9.99902 28l21 66l28 85c-56.667 2.66699 -112.667 16.667 -168 42c-59.333 28 -112.666 68.333 -159.999 121s-85.5 117.167 -114.5 193.5s-43.5 162.833 -43.5 259.5
c0 106.667 16.167 203.334 48.5 290.001s76.166 160.667 131.499 222s119.666 108.666 192.999 141.999s151 50 233 50c72 0 135.167 -9.66699 189.5 -29s98.833 -43 133.5 -71c4 -3.33301 3 -10 -3 -20s-14.167 -21.333 -24.5 -34s-21.333 -25.334 -33 -38.001l-29.5 -31
l-35 6c-34 31.333 -74.333 57 -121 77s-100.334 30 -161.001 30c-22.667 0 -47.5 -4.16699 -74.5 -12.5s-54.167 -21.5 -81.5 -39.5s-53.666 -41.5 -78.999 -70.5s-47.833 -64.167 -67.5 -105.5s-35.334 -89.166 -47.001 -143.499s-17.5 -116.166 -17.5 -185.499
c0 -88.667 12.833 -166.334 38.5 -233.001s58.667 -122.167 99 -166.5s85.333 -77.666 135 -99.999s98.167 -33.5 145.5 -33.5c36 0 83 12.333 141 37s123.667 67.667 197 129c3.33301 -1.33301 6.83301 -4.16602 10.5 -8.49902s7.16699 -8.83301 10.5 -13.5
s6.33301 -9.16699 9 -13.5s5 -7.5 7 -9.5c-42.667 -45.333 -83.5 -83.5 -122.5 -114.5s-76.667 -55.833 -113 -74.5s-72.166 -32 -107.499 -40c-13.333 -2.66699 -26.666 -5 -39.999 -7l-26 -79c17.333 -4 34.5 -9.16699 51.5 -15.5s32 -14.5 45 -24.5s23.5 -22 31.5 -36
s12 -30.333 12 -49z" />
    <glyph glyph-name="Egrave" unicode="&#xc8;" horiz-adv-x="1016" 
d="M954 244c-5.33301 -57.333 -12.1748 -107.499 -20.5078 -150.499s-15.166 -74.167 -20.499 -93.5h-863v43c45.333 9.33301 80.833 19.5 106.5 30.5s38.5 21.167 38.5 30.5v1051c0 8 -12.167 18 -36.5 30s-60.5 22.667 -108.5 32v43h806l33 -25
c-1.33301 -17.333 -3.33301 -36.333 -6 -57s-6 -41.334 -10 -62.001s-8.16699 -40.334 -12.5 -59.001s-8.5 -34.334 -12.5 -47.001h-45c-1.33301 30.667 -4.16602 56.334 -8.49902 77.001s-9.83301 37.167 -16.5 49.5s-14.834 21 -24.501 26s-20.5 7.5 -32.5 7.5h-366v-435
h405l26 -28c-5.33301 -9.33301 -11.833 -19.333 -19.5 -30s-15.667 -21.167 -24 -31.5s-16.666 -19.833 -24.999 -28.5s-16.166 -15.667 -23.499 -21c-10 10 -20.833 18.333 -32.5 25s-25 12.334 -40 17.001s-32.667 8 -53 10s-44.5 3 -72.5 3h-141v-497
c0 -10 2.33301 -18.833 7 -26.5s14.334 -14.334 29.001 -20.001s35.334 -10 62.001 -13s62 -4.5 106 -4.5h129c30.667 0 56.834 1.66699 78.501 5s40.834 10.833 57.501 22.5s31.834 28.834 45.501 51.501s27.5 53.667 41.5 93zM678.991 1412l-21.5 -28.5
c-5 -6.33301 -12.833 -11.833 -23.5 -16.5l-469 243l8 45c4.66699 5.33301 12.167 11.333 22.5 18s21.5 13.5 33.5 20.5l35 20l28 15.5z" />
    <glyph glyph-name="Eacute" unicode="&#xc9;" horiz-adv-x="1016" 
d="M954 244c-5.33301 -57.333 -12.1748 -107.499 -20.5078 -150.499s-15.166 -74.167 -20.499 -93.5h-863v43c45.333 9.33301 80.833 19.5 106.5 30.5s38.5 21.167 38.5 30.5v1051c0 8 -12.167 18 -36.5 30s-60.5 22.667 -108.5 32v43h806l33 -25
c-1.33301 -17.333 -3.33301 -36.333 -6 -57s-6 -41.334 -10 -62.001s-8.16699 -40.334 -12.5 -59.001s-8.5 -34.334 -12.5 -47.001h-45c-1.33301 30.667 -4.16602 56.334 -8.49902 77.001s-9.83301 37.167 -16.5 49.5s-14.834 21 -24.501 26s-20.5 7.5 -32.5 7.5h-366v-435
h405l26 -28c-5.33301 -9.33301 -11.833 -19.333 -19.5 -30s-15.667 -21.167 -24 -31.5s-16.666 -19.833 -24.999 -28.5s-16.166 -15.667 -23.499 -21c-10 10 -20.833 18.333 -32.5 25s-25 12.334 -40 17.001s-32.667 8 -53 10s-44.5 3 -72.5 3h-141v-497
c0 -10 2.33301 -18.833 7 -26.5s14.334 -14.334 29.001 -20.001s35.334 -10 62.001 -13s62 -4.5 106 -4.5h129c30.667 0 56.834 1.66699 78.501 5s40.834 10.833 57.501 22.5s31.834 28.834 45.501 51.501s27.5 53.667 41.5 93zM369.991 1367
c-11.333 4.66699 -19.5 10.167 -24.5 16.5s-11.833 15.833 -20.5 28.5l387 317l27 -15.5l35 -20c12 -7 23 -13.833 33 -20.5s17.667 -12.667 23 -18l9 -45z" />
    <glyph glyph-name="Ecircumflex" unicode="&#xca;" horiz-adv-x="1016" 
d="M954 244c-5.33301 -57.333 -12.1748 -107.499 -20.5078 -150.499s-15.166 -74.167 -20.499 -93.5h-863v43c45.333 9.33301 80.833 19.5 106.5 30.5s38.5 21.167 38.5 30.5v1051c0 8 -12.167 18 -36.5 30s-60.5 22.667 -108.5 32v43h806l33 -25
c-1.33301 -17.333 -3.33301 -36.333 -6 -57s-6 -41.334 -10 -62.001s-8.16699 -40.334 -12.5 -59.001s-8.5 -34.334 -12.5 -47.001h-45c-1.33301 30.667 -4.16602 56.334 -8.49902 77.001s-9.83301 37.167 -16.5 49.5s-14.834 21 -24.501 26s-20.5 7.5 -32.5 7.5h-366v-435
h405l26 -28c-5.33301 -9.33301 -11.833 -19.333 -19.5 -30s-15.667 -21.167 -24 -31.5s-16.666 -19.833 -24.999 -28.5s-16.166 -15.667 -23.499 -21c-10 10 -20.833 18.333 -32.5 25s-25 12.334 -40 17.001s-32.667 8 -53 10s-44.5 3 -72.5 3h-141v-497
c0 -10 2.33301 -18.833 7 -26.5s14.334 -14.334 29.001 -20.001s35.334 -10 62.001 -13s62 -4.5 106 -4.5h129c30.667 0 56.834 1.66699 78.501 5s40.834 10.833 57.501 22.5s31.834 28.834 45.501 51.501s27.5 53.667 41.5 93zM817.991 1412
c-8 -12.667 -14.333 -22.001 -19 -28.001s-12.667 -11.667 -24 -17l-274 208l-271 -208c-5.33301 2.66699 -9.83301 5.33398 -13.5 8.00098s-7 5.66699 -10 9s-6.16699 7.33301 -9.5 12l-12 16l264 309h107z" />
    <glyph glyph-name="Edieresis" unicode="&#xcb;" horiz-adv-x="1016" 
d="M954 244c-5.33301 -57.333 -12.1748 -107.499 -20.5078 -150.499s-15.166 -74.167 -20.499 -93.5h-863v43c45.333 9.33301 80.833 19.5 106.5 30.5s38.5 21.167 38.5 30.5v1051c0 8 -12.167 18 -36.5 30s-60.5 22.667 -108.5 32v43h806l33 -25
c-1.33301 -17.333 -3.33301 -36.333 -6 -57s-6 -41.334 -10 -62.001s-8.16699 -40.334 -12.5 -59.001s-8.5 -34.334 -12.5 -47.001h-45c-1.33301 30.667 -4.16602 56.334 -8.49902 77.001s-9.83301 37.167 -16.5 49.5s-14.834 21 -24.501 26s-20.5 7.5 -32.5 7.5h-366v-435
h405l26 -28c-5.33301 -9.33301 -11.833 -19.333 -19.5 -30s-15.667 -21.167 -24 -31.5s-16.666 -19.833 -24.999 -28.5s-16.166 -15.667 -23.499 -21c-10 10 -20.833 18.333 -32.5 25s-25 12.334 -40 17.001s-32.667 8 -53 10s-44.5 3 -72.5 3h-141v-497
c0 -10 2.33301 -18.833 7 -26.5s14.334 -14.334 29.001 -20.001s35.334 -10 62.001 -13s62 -4.5 106 -4.5h129c30.667 0 56.834 1.66699 78.501 5s40.834 10.833 57.501 22.5s31.834 28.834 45.501 51.501s27.5 53.667 41.5 93zM801.991 1541
c0 -18.667 -3.00098 -36.3359 -9.00098 -53.0029s-14.167 -31.167 -24.5 -43.5s-22.5 -22.166 -36.5 -29.499s-29.333 -11 -46 -11c-30 0 -51.5 8.33301 -64.5 25s-19.5 40.334 -19.5 71.001c0 18.667 3 36.334 9 53.001s14.333 31.167 25 43.5s22.834 22 36.501 29
s28.5 10.5 44.5 10.5c56.667 0 85 -31.667 85 -95zM401.99 1541c0 -18.667 -3.00098 -36.3359 -9.00098 -53.0029s-14.167 -31.167 -24.5 -43.5s-22.5 -22.166 -36.5 -29.499s-29.333 -11 -46 -11c-30 0 -51.5 8.33301 -64.5 25s-19.5 40.334 -19.5 71.001
c0 18.667 3 36.334 9 53.001s14.333 31.167 25 43.5s22.834 22 36.501 29s28.5 10.5 44.5 10.5c56.667 0 85 -31.667 85 -95z" />
    <glyph glyph-name="Igrave" unicode="&#xcc;" horiz-adv-x="610" 
d="M70 0v42.998c45.333 9.33301 80.833 19.5 106.5 30.5s38.5 21.167 38.5 30.5v1051c0 8 -12.167 18 -36.5 30s-60.5 22.667 -108.5 32v43h450v-43c-45.333 -9.33301 -80.833 -19.666 -106.5 -30.999s-38.5 -21.666 -38.5 -30.999v-1051c0 -8 12.167 -17.833 36.5 -29.5
s60.5 -22.167 108.5 -31.5v-43h-450zM472 1412l-21.5 -28.5c-5 -6.33301 -12.833 -11.833 -23.5 -16.5l-469 243l8 45c4.66699 5.33301 12.167 11.333 22.5 18s21.5 13.5 33.5 20.5l35 20l28 15.5z" />
    <glyph glyph-name="Iacute" unicode="&#xcd;" horiz-adv-x="610" 
d="M70 0v42.998c45.333 9.33301 80.833 19.5 106.5 30.5s38.5 21.167 38.5 30.5v1051c0 8 -12.167 18 -36.5 30s-60.5 22.667 -108.5 32v43h450v-43c-45.333 -9.33301 -80.833 -19.666 -106.5 -30.999s-38.5 -21.666 -38.5 -30.999v-1051c0 -8 12.167 -17.833 36.5 -29.5
s60.5 -22.167 108.5 -31.5v-43h-450zM163 1367c-11.333 4.66699 -19.5 10.167 -24.5 16.5s-11.833 15.833 -20.5 28.5l387 317l27 -15.5l35 -20c12 -7 23 -13.833 33 -20.5s17.667 -12.667 23 -18l9 -45z" />
    <glyph glyph-name="Icircumflex" unicode="&#xce;" horiz-adv-x="610" 
d="M70 0v42.998c45.333 9.33301 80.833 19.5 106.5 30.5s38.5 21.167 38.5 30.5v1051c0 8 -12.167 18 -36.5 30s-60.5 22.667 -108.5 32v43h450v-43c-45.333 -9.33301 -80.833 -19.666 -106.5 -30.999s-38.5 -21.666 -38.5 -30.999v-1051c0 -8 12.167 -17.833 36.5 -29.5
s60.5 -22.167 108.5 -31.5v-43h-450zM611 1412c-8 -12.667 -14.333 -22.001 -19 -28.001s-12.667 -11.667 -24 -17l-274 208l-271 -208c-5.33301 2.66699 -9.83301 5.33398 -13.5 8.00098s-7 5.66699 -10 9s-6.16699 7.33301 -9.5 12l-12 16l264 309h107z" />
    <glyph glyph-name="Idieresis" unicode="&#xcf;" horiz-adv-x="610" 
d="M70 0v42.998c45.333 9.33301 80.833 19.5 106.5 30.5s38.5 21.167 38.5 30.5v1051c0 8 -12.167 18 -36.5 30s-60.5 22.667 -108.5 32v43h450v-43c-45.333 -9.33301 -80.833 -19.666 -106.5 -30.999s-38.5 -21.666 -38.5 -30.999v-1051c0 -8 12.167 -17.833 36.5 -29.5
s60.5 -22.167 108.5 -31.5v-43h-450zM595 1541c0 -18.667 -3.00098 -36.3359 -9.00098 -53.0029s-14.167 -31.167 -24.5 -43.5s-22.5 -22.166 -36.5 -29.499s-29.333 -11 -46 -11c-30 0 -51.5 8.33301 -64.5 25s-19.5 40.334 -19.5 71.001c0 18.667 3 36.334 9 53.001
s14.333 31.167 25 43.5s22.834 22 36.501 29s28.5 10.5 44.5 10.5c56.667 0 85 -31.667 85 -95zM194.999 1541c0 -18.667 -3.00098 -36.3359 -9.00098 -53.0029s-14.167 -31.167 -24.5 -43.5s-22.5 -22.166 -36.5 -29.499s-29.333 -11 -46 -11c-30 0 -51.5 8.33301 -64.5 25
s-19.5 40.334 -19.5 71.001c0 18.667 3 36.334 9 53.001s14.333 31.167 25 43.5s22.834 22 36.501 29s28.5 10.5 44.5 10.5c56.667 0 85 -31.667 85 -95z" />
    <glyph glyph-name="Eth" unicode="&#xd0;" horiz-adv-x="1214" 
d="M1123 676c0 -83.333 -8.49902 -157.834 -25.499 -223.501s-39.833 -123.667 -68.5 -174s-61.834 -93 -99.501 -128s-77.5 -63.667 -119.5 -86s-84.5 -38.666 -127.5 -48.999s-84.167 -15.5 -123.5 -15.5h-509v43c45.333 9.33301 80.833 19.5 106.5 30.5
s38.5 21.167 38.5 30.5v511h-146l-22 25l10.5 32c3.66699 11.333 7.5 22.333 11.5 33h146v483c-26.667 -3.33301 -52 -6.66602 -76 -9.99902l-69 -10l-9 62c29.333 8 63.166 15.667 101.499 23s78.833 13.833 121.5 19.5s85.834 10 129.501 13s85.167 4.5 124.5 4.5
c92.667 0 176.334 -13.833 251.001 -41.5s138.167 -67.834 190.5 -120.501s92.666 -117 120.999 -193s42.5 -162.333 42.5 -259zM453.001 1206c-33.333 0 -66.001 -1 -98.001 -3v-498h259l25 -23l-25 -67h-259v-461c0 -14.667 3.33301 -26.667 10 -36
c9.33301 -11.333 27.333 -19.833 54 -25.5s66 -8.5 118 -8.5c46 0 93.5 11.167 142.5 33.5s93.833 56.333 134.5 102s74 103.167 100 172.5s39 151 39 245c0 88.667 -11 168.167 -33 238.5s-54.167 130 -96.5 179s-94.666 86.5 -156.999 112.5s-133.5 39 -213.5 39z" />
    <glyph glyph-name="Ntilde" unicode="&#xd1;" horiz-adv-x="1329" 
d="M50 0l-0.000976562 43.001c49.333 6 85.833 15.333 109.5 28s35.5 23.667 35.5 33v1045c-22 20.667 -45.167 36.167 -69.5 46.5s-49.5 17.5 -75.5 21.5v43h212c10 0 18.167 -0.833008 24.5 -2.5s12.833 -5.16699 19.5 -10.5s13.834 -13.166 21.501 -23.499l30.5 -41.5
l657 -906v879c0 8 -10.833 18.5 -32.5 31.5s-59.167 23.167 -112.5 30.5v43h410v-43c-48 -6.66699 -84.167 -16.334 -108.5 -29.001s-36.5 -23.667 -36.5 -33v-1185c-33.333 4 -59.5 10.667 -78.5 20s-32.5 19.666 -40.5 30.999l-701 972v-889c0 -8 11.167 -18.333 33.5 -31
s59.5 -22.667 111.5 -30v-43h-410zM1006 1626c-12 -27.333 -26.333 -54.332 -43 -80.999s-35.167 -50.667 -55.5 -72s-42.5 -38.666 -66.5 -51.999s-49 -20 -75 -20c-23.333 0 -45.5 5.83301 -66.5 17.5s-41.5 24.667 -61.5 39s-39.833 27.333 -59.5 39
s-39.167 17.5 -58.5 17.5c-26.667 0 -51 -10.833 -73 -32.5s-45.333 -51.167 -70 -88.5l-53 20c12 27.333 26.167 54.5 42.5 81.5s34.833 51.167 55.5 72.5s42.834 38.666 66.501 51.999s48.5 20 74.5 20c25.333 0 49.333 -5.83301 72 -17.5s44 -24.667 64 -39
s39 -27.333 57 -39s35 -17.5 51 -17.5c25.333 0 50.166 10.667 74.499 32s47.833 51.666 70.5 90.999z" />
    <glyph glyph-name="Ograve" unicode="&#xd2;" horiz-adv-x="1229" 
d="M983 629c0 46 -4.16895 91.502 -12.502 136.502s-20.166 87.667 -35.499 128s-34.166 77.666 -56.499 111.999s-47.5 64 -75.5 89s-58.667 44.667 -92 59s-69 21.5 -107 21.5c-59.333 0 -112.5 -12.5 -159.5 -37.5s-86.667 -60.667 -119 -107
s-57.166 -102.5 -74.499 -168.5s-26 -139.667 -26 -221c0 -74.667 10.167 -145.334 30.5 -212.001s47.666 -125.167 81.999 -175.5s74.5 -90.166 120.5 -119.499s94.667 -44 146 -44c55.333 0 106.166 11.5 152.499 34.5s86.333 57.167 120 102.5
s59.834 101.666 78.501 168.999s28 145 28 233zM1138 647.002c0 -90.667 -15.0029 -176.832 -45.0029 -258.499s-70.833 -153.5 -122.5 -215.5s-111.5 -111.333 -179.5 -148s-140 -55 -216 -55c-80 0 -151.333 17.667 -214 53s-115.5 82.666 -158.5 141.999
s-75.833 127.666 -98.5 204.999s-34 158 -34 242c0 90.667 14.667 177 44 259s69.333 154 120 216s110.167 111.333 178.5 148s141.833 55 220.5 55c82.667 0 155.334 -18.167 218.001 -54.5s115.334 -84.5 158.001 -144.5s74.834 -128.667 96.501 -206
s32.5 -156.666 32.5 -237.999zM791.995 1412l-21.5 -28.5c-5 -6.33301 -12.833 -11.833 -23.5 -16.5l-469 243l8 45c4.66699 5.33301 12.167 11.333 22.5 18s21.5 13.5 33.5 20.5l35 20l28 15.5z" />
    <glyph glyph-name="Oacute" unicode="&#xd3;" horiz-adv-x="1229" 
d="M983 629c0 46 -4.16895 91.502 -12.502 136.502s-20.166 87.667 -35.499 128s-34.166 77.666 -56.499 111.999s-47.5 64 -75.5 89s-58.667 44.667 -92 59s-69 21.5 -107 21.5c-59.333 0 -112.5 -12.5 -159.5 -37.5s-86.667 -60.667 -119 -107
s-57.166 -102.5 -74.499 -168.5s-26 -139.667 -26 -221c0 -74.667 10.167 -145.334 30.5 -212.001s47.666 -125.167 81.999 -175.5s74.5 -90.166 120.5 -119.499s94.667 -44 146 -44c55.333 0 106.166 11.5 152.499 34.5s86.333 57.167 120 102.5
s59.834 101.666 78.501 168.999s28 145 28 233zM1138 647.002c0 -90.667 -15.0029 -176.832 -45.0029 -258.499s-70.833 -153.5 -122.5 -215.5s-111.5 -111.333 -179.5 -148s-140 -55 -216 -55c-80 0 -151.333 17.667 -214 53s-115.5 82.666 -158.5 141.999
s-75.833 127.666 -98.5 204.999s-34 158 -34 242c0 90.667 14.667 177 44 259s69.333 154 120 216s110.167 111.333 178.5 148s141.833 55 220.5 55c82.667 0 155.334 -18.167 218.001 -54.5s115.334 -84.5 158.001 -144.5s74.834 -128.667 96.501 -206
s32.5 -156.666 32.5 -237.999zM482.995 1367c-11.333 4.66699 -19.5 10.167 -24.5 16.5s-11.833 15.833 -20.5 28.5l387 317l27 -15.5l35 -20c12 -7 23 -13.833 33 -20.5s17.667 -12.667 23 -18l9 -45z" />
    <glyph glyph-name="Ocircumflex" unicode="&#xd4;" horiz-adv-x="1229" 
d="M983 629c0 46 -4.16895 91.502 -12.502 136.502s-20.166 87.667 -35.499 128s-34.166 77.666 -56.499 111.999s-47.5 64 -75.5 89s-58.667 44.667 -92 59s-69 21.5 -107 21.5c-59.333 0 -112.5 -12.5 -159.5 -37.5s-86.667 -60.667 -119 -107
s-57.166 -102.5 -74.499 -168.5s-26 -139.667 -26 -221c0 -74.667 10.167 -145.334 30.5 -212.001s47.666 -125.167 81.999 -175.5s74.5 -90.166 120.5 -119.499s94.667 -44 146 -44c55.333 0 106.166 11.5 152.499 34.5s86.333 57.167 120 102.5
s59.834 101.666 78.501 168.999s28 145 28 233zM1138 647.002c0 -90.667 -15.0029 -176.832 -45.0029 -258.499s-70.833 -153.5 -122.5 -215.5s-111.5 -111.333 -179.5 -148s-140 -55 -216 -55c-80 0 -151.333 17.667 -214 53s-115.5 82.666 -158.5 141.999
s-75.833 127.666 -98.5 204.999s-34 158 -34 242c0 90.667 14.667 177 44 259s69.333 154 120 216s110.167 111.333 178.5 148s141.833 55 220.5 55c82.667 0 155.334 -18.167 218.001 -54.5s115.334 -84.5 158.001 -144.5s74.834 -128.667 96.501 -206
s32.5 -156.666 32.5 -237.999zM930.995 1412c-8 -12.667 -14.333 -22.001 -19 -28.001s-12.667 -11.667 -24 -17l-274 208l-271 -208c-5.33301 2.66699 -9.83301 5.33398 -13.5 8.00098s-7 5.66699 -10 9s-6.16699 7.33301 -9.5 12l-12 16l264 309h107z" />
    <glyph glyph-name="Otilde" unicode="&#xd5;" horiz-adv-x="1229" 
d="M983 629c0 46 -4.16895 91.502 -12.502 136.502s-20.166 87.667 -35.499 128s-34.166 77.666 -56.499 111.999s-47.5 64 -75.5 89s-58.667 44.667 -92 59s-69 21.5 -107 21.5c-59.333 0 -112.5 -12.5 -159.5 -37.5s-86.667 -60.667 -119 -107
s-57.166 -102.5 -74.499 -168.5s-26 -139.667 -26 -221c0 -74.667 10.167 -145.334 30.5 -212.001s47.666 -125.167 81.999 -175.5s74.5 -90.166 120.5 -119.499s94.667 -44 146 -44c55.333 0 106.166 11.5 152.499 34.5s86.333 57.167 120 102.5
s59.834 101.666 78.501 168.999s28 145 28 233zM1138 647.002c0 -90.667 -15.0029 -176.832 -45.0029 -258.499s-70.833 -153.5 -122.5 -215.5s-111.5 -111.333 -179.5 -148s-140 -55 -216 -55c-80 0 -151.333 17.667 -214 53s-115.5 82.666 -158.5 141.999
s-75.833 127.666 -98.5 204.999s-34 158 -34 242c0 90.667 14.667 177 44 259s69.333 154 120 216s110.167 111.333 178.5 148s141.833 55 220.5 55c82.667 0 155.334 -18.167 218.001 -54.5s115.334 -84.5 158.001 -144.5s74.834 -128.667 96.501 -206
s32.5 -156.666 32.5 -237.999zM955.995 1626c-12 -27.333 -26.333 -54.332 -43 -80.999s-35.167 -50.667 -55.5 -72s-42.5 -38.666 -66.5 -51.999s-49 -20 -75 -20c-23.333 0 -45.5 5.83301 -66.5 17.5s-41.5 24.667 -61.5 39s-39.833 27.333 -59.5 39
s-39.167 17.5 -58.5 17.5c-26.667 0 -51 -10.833 -73 -32.5s-45.333 -51.167 -70 -88.5l-53 20c12 27.333 26.167 54.5 42.5 81.5s34.833 51.167 55.5 72.5s42.834 38.666 66.501 51.999s48.5 20 74.5 20c25.333 0 49.333 -5.83301 72 -17.5s44 -24.667 64 -39
s39 -27.333 57 -39s35 -17.5 51 -17.5c25.333 0 50.166 10.667 74.499 32s47.833 51.666 70.5 90.999z" />
    <glyph glyph-name="Odieresis" unicode="&#xd6;" horiz-adv-x="1229" 
d="M983 629c0 46 -4.16895 91.502 -12.502 136.502s-20.166 87.667 -35.499 128s-34.166 77.666 -56.499 111.999s-47.5 64 -75.5 89s-58.667 44.667 -92 59s-69 21.5 -107 21.5c-59.333 0 -112.5 -12.5 -159.5 -37.5s-86.667 -60.667 -119 -107
s-57.166 -102.5 -74.499 -168.5s-26 -139.667 -26 -221c0 -74.667 10.167 -145.334 30.5 -212.001s47.666 -125.167 81.999 -175.5s74.5 -90.166 120.5 -119.499s94.667 -44 146 -44c55.333 0 106.166 11.5 152.499 34.5s86.333 57.167 120 102.5
s59.834 101.666 78.501 168.999s28 145 28 233zM1138 647.002c0 -90.667 -15.0029 -176.832 -45.0029 -258.499s-70.833 -153.5 -122.5 -215.5s-111.5 -111.333 -179.5 -148s-140 -55 -216 -55c-80 0 -151.333 17.667 -214 53s-115.5 82.666 -158.5 141.999
s-75.833 127.666 -98.5 204.999s-34 158 -34 242c0 90.667 14.667 177 44 259s69.333 154 120 216s110.167 111.333 178.5 148s141.833 55 220.5 55c82.667 0 155.334 -18.167 218.001 -54.5s115.334 -84.5 158.001 -144.5s74.834 -128.667 96.501 -206
s32.5 -156.666 32.5 -237.999zM914.995 1541c0 -18.667 -3.00098 -36.3359 -9.00098 -53.0029s-14.167 -31.167 -24.5 -43.5s-22.5 -22.166 -36.5 -29.499s-29.333 -11 -46 -11c-30 0 -51.5 8.33301 -64.5 25s-19.5 40.334 -19.5 71.001c0 18.667 3 36.334 9 53.001
s14.333 31.167 25 43.5s22.834 22 36.501 29s28.5 10.5 44.5 10.5c56.667 0 85 -31.667 85 -95zM514.994 1541c0 -18.667 -3.00098 -36.3359 -9.00098 -53.0029s-14.167 -31.167 -24.5 -43.5s-22.5 -22.166 -36.5 -29.499s-29.333 -11 -46 -11c-30 0 -51.5 8.33301 -64.5 25
s-19.5 40.334 -19.5 71.001c0 18.667 3 36.334 9 53.001s14.333 31.167 25 43.5s22.834 22 36.501 29s28.5 10.5 44.5 10.5c56.667 0 85 -31.667 85 -95z" />
    <glyph glyph-name="multiply" unicode="&#xd7;" horiz-adv-x="840" 
d="M93 314l248 248l-246 246l-1 34c13.333 6 28.5 11.833 45.5 17.5s32.833 10.167 47.5 13.5l232 -233l233 233c14.667 -3.33301 30.5 -7.83301 47.5 -13.5s32.167 -11.5 45.5 -17.5v-34l-247 -247l248 -247v-34c-13.333 -5.33301 -29 -11 -47 -17s-33 -10.667 -45 -14
l-234 234l-234 -234c-12.667 3.33301 -28 8 -46 14s-33.667 11.667 -47 17v34z" />
    <glyph glyph-name="Oslash" unicode="&#xd8;" horiz-adv-x="1229" 
d="M983 629c0 59.333 -6.66797 117.168 -20.001 173.501s-32.666 108.5 -57.999 156.5l-528 -756c32 -36 67.333 -63.833 106 -83.5s79 -29.5 121 -29.5c55.333 0 106.166 11.5 152.499 34.5s86.333 57.167 120 102.5s59.834 101.666 78.501 168.999s28 145 28 233z
M224.999 641.002c0 -62.667 7 -122.332 21 -178.999s33.667 -108.334 59 -155.001l529 756c-30.667 34.667 -65.334 62 -104.001 82s-80.667 30 -126 30c-59.333 0 -112.5 -12.5 -159.5 -37.5s-86.667 -60.667 -119 -107s-57.166 -102.5 -74.499 -168.5
s-26 -139.667 -26 -221zM1003 1099c44.667 -60.667 78.3301 -130.33 100.997 -208.997s34 -159.667 34 -243c0 -90.667 -15 -176.834 -45 -258.501s-70.833 -153.5 -122.5 -215.5s-111.5 -111.333 -179.5 -148s-140 -55 -216 -55c-58 0 -110.833 9.16699 -158.5 27.5
s-91.167 43.833 -130.5 76.5l-53 -76c-6 -5.33301 -14.5 -10.5 -25.5 -15.5s-22.833 -9.66699 -35.5 -14s-25.167 -8.33301 -37.5 -12s-22.5 -6.83398 -30.5 -9.50098l-28 33l128 182c-44 60 -77.333 128.667 -100 206s-34 158.666 -34 243.999c0 90.667 14.667 177 44 259
s69.333 154 120 216s110.167 111.333 178.5 148s141.833 55 220.5 55c58 0 110.833 -9.16699 158.5 -27.5s90.834 -43.5 129.501 -75.5l54 77c18.667 11.333 39.334 21 62.001 29s44.334 14.667 65.001 20l28 -33z" />
    <glyph glyph-name="Ugrave" unicode="&#xd9;" horiz-adv-x="1339" 
d="M1275 1217c-45.333 -9.33301 -80.8301 -19.6689 -106.497 -31.002s-38.5 -21.666 -38.5 -30.999v-631c0 -87.333 -10.667 -165.333 -32 -234s-52 -126.667 -92 -174s-88.667 -83.5 -146 -108.5s-122 -37.5 -194 -37.5c-68.667 0 -131.834 9.5 -189.501 28.5
s-107.334 48 -149.001 87s-74.167 88.167 -97.5 147.5s-35 129.666 -35 210.999v711c0 8 -12.167 18 -36.5 30s-60.5 22.667 -108.5 32v43h450v-43c-45.333 -9.33301 -80.833 -19.666 -106.5 -30.999s-38.5 -21.666 -38.5 -30.999v-661c0 -64 7.5 -121.333 22.5 -172
s37.333 -93.5 67 -128.5s66.167 -61.833 109.5 -80.5s93.666 -28 150.999 -28c47.333 0 89.333 11.5 126 34.5s67.5 53.167 92.5 90.5s44 79.833 57 127.5s19.5 96.167 19.5 145.5v672c0 8 -12.167 18 -36.5 30s-60.5 22.667 -108.5 32v43h420v-43zM854.003 1412
l-21.5 -28.5c-5 -6.33301 -12.833 -11.833 -23.5 -16.5l-469 243l8 45c4.66699 5.33301 12.167 11.333 22.5 18s21.5 13.5 33.5 20.5l35 20l28 15.5z" />
    <glyph glyph-name="Uacute" unicode="&#xda;" horiz-adv-x="1339" 
d="M1275 1217c-45.333 -9.33301 -80.8301 -19.6689 -106.497 -31.002s-38.5 -21.666 -38.5 -30.999v-631c0 -87.333 -10.667 -165.333 -32 -234s-52 -126.667 -92 -174s-88.667 -83.5 -146 -108.5s-122 -37.5 -194 -37.5c-68.667 0 -131.834 9.5 -189.501 28.5
s-107.334 48 -149.001 87s-74.167 88.167 -97.5 147.5s-35 129.666 -35 210.999v711c0 8 -12.167 18 -36.5 30s-60.5 22.667 -108.5 32v43h450v-43c-45.333 -9.33301 -80.833 -19.666 -106.5 -30.999s-38.5 -21.666 -38.5 -30.999v-661c0 -64 7.5 -121.333 22.5 -172
s37.333 -93.5 67 -128.5s66.167 -61.833 109.5 -80.5s93.666 -28 150.999 -28c47.333 0 89.333 11.5 126 34.5s67.5 53.167 92.5 90.5s44 79.833 57 127.5s19.5 96.167 19.5 145.5v672c0 8 -12.167 18 -36.5 30s-60.5 22.667 -108.5 32v43h420v-43zM545.003 1367
c-11.333 4.66699 -19.5 10.167 -24.5 16.5s-11.833 15.833 -20.5 28.5l387 317l27 -15.5l35 -20c12 -7 23 -13.833 33 -20.5s17.667 -12.667 23 -18l9 -45z" />
    <glyph glyph-name="Ucircumflex" unicode="&#xdb;" horiz-adv-x="1339" 
d="M1275 1217c-45.333 -9.33301 -80.8301 -19.6689 -106.497 -31.002s-38.5 -21.666 -38.5 -30.999v-631c0 -87.333 -10.667 -165.333 -32 -234s-52 -126.667 -92 -174s-88.667 -83.5 -146 -108.5s-122 -37.5 -194 -37.5c-68.667 0 -131.834 9.5 -189.501 28.5
s-107.334 48 -149.001 87s-74.167 88.167 -97.5 147.5s-35 129.666 -35 210.999v711c0 8 -12.167 18 -36.5 30s-60.5 22.667 -108.5 32v43h450v-43c-45.333 -9.33301 -80.833 -19.666 -106.5 -30.999s-38.5 -21.666 -38.5 -30.999v-661c0 -64 7.5 -121.333 22.5 -172
s37.333 -93.5 67 -128.5s66.167 -61.833 109.5 -80.5s93.666 -28 150.999 -28c47.333 0 89.333 11.5 126 34.5s67.5 53.167 92.5 90.5s44 79.833 57 127.5s19.5 96.167 19.5 145.5v672c0 8 -12.167 18 -36.5 30s-60.5 22.667 -108.5 32v43h420v-43zM993.003 1412
c-8 -12.667 -14.333 -22.001 -19 -28.001s-12.667 -11.667 -24 -17l-274 208l-271 -208c-5.33301 2.66699 -9.83301 5.33398 -13.5 8.00098s-7 5.66699 -10 9s-6.16699 7.33301 -9.5 12l-12 16l264 309h107z" />
    <glyph glyph-name="Udieresis" unicode="&#xdc;" horiz-adv-x="1339" 
d="M1275 1217c-45.333 -9.33301 -80.8301 -19.6689 -106.497 -31.002s-38.5 -21.666 -38.5 -30.999v-631c0 -87.333 -10.667 -165.333 -32 -234s-52 -126.667 -92 -174s-88.667 -83.5 -146 -108.5s-122 -37.5 -194 -37.5c-68.667 0 -131.834 9.5 -189.501 28.5
s-107.334 48 -149.001 87s-74.167 88.167 -97.5 147.5s-35 129.666 -35 210.999v711c0 8 -12.167 18 -36.5 30s-60.5 22.667 -108.5 32v43h450v-43c-45.333 -9.33301 -80.833 -19.666 -106.5 -30.999s-38.5 -21.666 -38.5 -30.999v-661c0 -64 7.5 -121.333 22.5 -172
s37.333 -93.5 67 -128.5s66.167 -61.833 109.5 -80.5s93.666 -28 150.999 -28c47.333 0 89.333 11.5 126 34.5s67.5 53.167 92.5 90.5s44 79.833 57 127.5s19.5 96.167 19.5 145.5v672c0 8 -12.167 18 -36.5 30s-60.5 22.667 -108.5 32v43h420v-43zM977.003 1541
c0 -18.667 -3.00098 -36.3359 -9.00098 -53.0029s-14.167 -31.167 -24.5 -43.5s-22.5 -22.166 -36.5 -29.499s-29.333 -11 -46 -11c-30 0 -51.5 8.33301 -64.5 25s-19.5 40.334 -19.5 71.001c0 18.667 3 36.334 9 53.001s14.333 31.167 25 43.5s22.834 22 36.501 29
s28.5 10.5 44.5 10.5c56.667 0 85 -31.667 85 -95zM577.002 1541c0 -18.667 -3.00098 -36.3359 -9.00098 -53.0029s-14.167 -31.167 -24.5 -43.5s-22.5 -22.166 -36.5 -29.499s-29.333 -11 -46 -11c-30 0 -51.5 8.33301 -64.5 25s-19.5 40.334 -19.5 71.001
c0 18.667 3 36.334 9 53.001s14.333 31.167 25 43.5s22.834 22 36.501 29s28.5 10.5 44.5 10.5c56.667 0 85 -31.667 85 -95z" />
    <glyph glyph-name="Yacute" unicode="&#xdd;" horiz-adv-x="1217" 
d="M360 0l-0.00292969 43.0039c60.667 12.667 103.167 25.5 127.5 38.5s36.5 24.167 36.5 33.5v422c-24.667 54 -52.667 110.333 -84 169s-63.333 115.667 -96 171l-95 154.5c-30.667 47.667 -57.667 87.5 -81 119.5c-6 7.33301 -12.833 14.333 -20.5 21
s-17.5 12.5 -29.5 17.5s-27 9 -45 12s-41 4.5 -69 4.5l-4 43c39.333 5.33301 78.666 10.166 117.999 14.499s73 6.5 101 6.5c30.667 0 56.667 -13 78 -39c24.667 -32 51.334 -69.833 80.001 -113.5s57.334 -89.834 86.001 -138.501s56.667 -98.667 84 -150l76 -149l268 471
c10 17.333 6.83301 31 -9.5 41s-50.166 18.333 -101.499 25v43h396v-43c-46 -8.66699 -81.167 -17.5 -105.5 -26.5s-41.166 -22.167 -50.499 -39.5l-336 -610v-426c0 -4 2.83301 -8.83301 8.5 -14.5s15 -11.834 28 -18.501s30 -13.334 51 -20.001s47.167 -13 78.5 -19v-43
h-490zM471.997 1367c-11.333 4.66699 -19.5 10.167 -24.5 16.5s-11.833 15.833 -20.5 28.5l387 317l27 -15.5l35 -20c12 -7 23 -13.833 33 -20.5s17.667 -12.667 23 -18l9 -45z" />
    <glyph glyph-name="Thorn" unicode="&#xde;" horiz-adv-x="1071" 
d="M49 0l-0.00390625 43.001c45.333 9.33301 81 19.5 107 30.5s39 21.167 39 30.5v1051c0 8 -12.333 18 -37 30s-61 22.667 -109 32v43h481v-43c-34 -6 -62.333 -11.667 -85 -17s-40.667 -10.5 -54 -15.5s-22.666 -10 -27.999 -15s-8 -9.83301 -8 -14.5v-141
c42 4 93.667 6 155 6c72 0 137 -7.66699 195 -23s107.5 -38 148.5 -68s72.667 -67 95 -111s33.5 -94.667 33.5 -152c0 -46 -6.5 -88 -19.5 -126s-30.333 -71.833 -52 -101.5s-46.5 -55.334 -74.5 -77.001s-57.167 -39.667 -87.5 -54s-60.666 -25 -90.999 -32
s-58.5 -10.5 -84.5 -10.5c-30.667 0 -59.5 2.66699 -86.5 8s-51.833 13.666 -74.5 24.999l-23 71c28 -12.667 54.833 -20.667 80.5 -24s50.167 -5 73.5 -5c30.667 0 62.667 6 96 18s64 29.833 92 53.5s51 53.334 69 89.001s27 77.167 27 124.5
c0 55.333 -9.83301 102.666 -29.5 141.999s-46.5 71.5 -80.5 96.5s-73.667 43.333 -119 55s-93.666 17.5 -144.999 17.5c-33.333 0 -66 -1 -98 -3v-829c0 -4 2.66699 -8.33301 8 -13s14.5 -9.66699 27.5 -15s30.833 -10.666 53.5 -15.999s51.334 -11 86.001 -17v-43h-481z
" />
    <glyph glyph-name="germandbls" unicode="&#xdf;" horiz-adv-x="1157" 
d="M1067 283c0 -39.333 -6.33594 -77.6641 -19.0029 -114.997s-32.667 -70.666 -60 -99.999s-62.333 -53 -105 -71s-94 -27 -154 -27c-18.667 0 -41.667 2.5 -69 7.5s-54.333 11.167 -81 18.5s-50.5 15.666 -71.5 24.999s-33.833 18 -38.5 26
c-2 3.33301 -3.5 10.833 -4.5 22.5s-1.5 25.5 -1.5 41.5s0.333008 33 1 51s1.83398 35.333 3.50098 52s3.83398 31.167 6.50098 43.5s5.66699 20.833 9 25.5l39 -13c4.66699 -36 15.334 -66.667 32.001 -92s36.667 -46 60 -62s48.5 -27.667 75.5 -35s53.167 -11 78.5 -11
c23.333 0 45.333 3.5 66 10.5s38.667 17 54 30s27.333 28.5 36 46.5s13 38 13 60c0 34.667 -6.5 64.834 -19.5 90.501s-30.167 48.334 -51.5 68.001s-45.5 37.5 -72.5 53.5s-54.833 31.333 -83.5 46s-56.5 29.834 -83.5 45.501s-51.167 33.334 -72.5 53.001
s-38.5 42 -51.5 67s-19.5 54.5 -19.5 88.5c0 44.667 8.16699 81.167 24.5 109.5s36.833 51.666 61.5 69.999s51.334 33.833 80.001 46.5s55.334 26 80.001 40s45.167 30.667 61.5 50s24.5 45 24.5 77c0 34 -4.66699 68.833 -14 104.5s-24 68.167 -44 97.5
s-45.833 53.5 -77.5 72.5s-69.834 28.5 -114.501 28.5c-32 0 -61.5 -5.83301 -88.5 -17.5s-50.333 -32.834 -70 -63.501s-34.834 -72.334 -45.501 -125.001s-16 -120.334 -16 -203.001v-1016h-290v43c45.333 8 80 17.833 104 29.5s36 21.5 36 29.5v859
c0 80 5.5 147 16.5 201s25.5 99.333 43.5 136s39 67.167 63 91.5s49 47.166 75 68.499c36 29.333 76.333 52 121 68s91 24 139 24c57.333 0 106 -11.833 146 -35.5s72.5 -53.5 97.5 -89.5s43 -75 54 -117s16.5 -81.333 16.5 -118c0 -54.667 -8.5 -99.334 -25.5 -134.001
s-38.167 -63 -63.5 -85s-53 -40 -83 -54l-83 -40c-25.333 -12.667 -46.5 -27 -63.5 -43s-25.5 -37.333 -25.5 -64c0 -22 6.33301 -41.167 19 -57.5s29.5 -31.5 50.5 -45.5s44.667 -27.5 71 -40.5l81.5 -41.5c28 -14.667 55.167 -30.834 81.5 -48.501s50 -38.334 71 -62.001
s37.833 -51.167 50.5 -82.5s19 -67.666 19 -108.999z" />
    <glyph glyph-name="agrave" unicode="&#xe0;" horiz-adv-x="940" 
d="M352 100c40 0 82.5 10.1689 127.5 30.502s92.833 52.5 143.5 96.5v259c-56 -9.33301 -102.167 -18.333 -138.5 -27s-66.166 -17.5 -89.499 -26.5s-42 -18.5 -56 -28.5s-26.333 -20.667 -37 -32c-17.333 -18 -31.333 -38.5 -42 -61.5s-16 -50.167 -16 -81.5
c0 -26.667 4 -48.334 12 -65.001s17.667 -29.834 29 -39.501s23.166 -16.167 35.499 -19.5s22.833 -5 31.5 -5zM926 82.002c-56.667 -39.333 -103.502 -67.8301 -140.502 -85.4971s-64.833 -26.5 -83.5 -26.5c-22 0 -40.333 15.333 -55 46s-22.667 73 -24 127
c-30 -30 -60 -56 -90 -78s-59.333 -40 -88 -54s-55.834 -24.333 -81.501 -31s-49.167 -10 -70.5 -10c-24 0 -48.667 4 -74 12s-48.166 20.667 -68.499 38s-37.166 39.666 -50.499 66.999s-20 60.333 -20 99c0 50.667 8.83301 93 26.5 127s38.834 63.333 63.501 88
c16 16 34.167 31.167 54.5 45.5s47.333 28.166 81 41.499s75.834 26 126.501 38s114.334 23.667 191.001 35v141c0 22.667 -2.66699 43.834 -8 63.501s-14.333 36.667 -27 51s-29.834 25.333 -51.501 33s-48.834 11.167 -81.501 10.5
c-21.333 -0.666992 -42.333 -4.33398 -63 -11.001s-38.667 -16 -54 -28s-27.333 -26.167 -36 -42.5s-12 -34.5 -10 -54.5c0.666992 -6 -6.16602 -12.833 -20.499 -20.5s-31.333 -14.5 -51 -20.5s-39 -10.667 -58 -14s-32.5 -4 -40.5 -2l-14 39
c15.333 33.333 38.666 65.333 69.999 96s67.166 57.667 107.499 81s83 42 128 56s88.5 21 130.5 21c73.333 0 129.833 -19.167 169.5 -57.5s59.5 -91.833 59.5 -160.5v-564c0 -28 3.66699 -48 11 -60s17 -18 29 -18c9.33301 0 21.333 1.66699 36 5
s35.334 10.666 62.001 21.999zM593.998 1078c-8.66699 -8 -17.333 -14.335 -26 -19.002s-18.667 -8.66699 -30 -12l-352 377l22 41c6.66699 2 16.5 4.16699 29.5 6.5l41 7.5c14.333 2.66699 28.5 4.83398 42.5 6.50098s25 2.83398 33 3.50098z" />
    <glyph glyph-name="aacute" unicode="&#xe1;" horiz-adv-x="940" 
d="M352 100c40 0 82.5 10.1689 127.5 30.502s92.833 52.5 143.5 96.5v259c-56 -9.33301 -102.167 -18.333 -138.5 -27s-66.166 -17.5 -89.499 -26.5s-42 -18.5 -56 -28.5s-26.333 -20.667 -37 -32c-17.333 -18 -31.333 -38.5 -42 -61.5s-16 -50.167 -16 -81.5
c0 -26.667 4 -48.334 12 -65.001s17.667 -29.834 29 -39.501s23.166 -16.167 35.499 -19.5s22.833 -5 31.5 -5zM926 82.002c-56.667 -39.333 -103.502 -67.8301 -140.502 -85.4971s-64.833 -26.5 -83.5 -26.5c-22 0 -40.333 15.333 -55 46s-22.667 73 -24 127
c-30 -30 -60 -56 -90 -78s-59.333 -40 -88 -54s-55.834 -24.333 -81.501 -31s-49.167 -10 -70.5 -10c-24 0 -48.667 4 -74 12s-48.166 20.667 -68.499 38s-37.166 39.666 -50.499 66.999s-20 60.333 -20 99c0 50.667 8.83301 93 26.5 127s38.834 63.333 63.501 88
c16 16 34.167 31.167 54.5 45.5s47.333 28.166 81 41.499s75.834 26 126.501 38s114.334 23.667 191.001 35v141c0 22.667 -2.66699 43.834 -8 63.501s-14.333 36.667 -27 51s-29.834 25.333 -51.501 33s-48.834 11.167 -81.501 10.5
c-21.333 -0.666992 -42.333 -4.33398 -63 -11.001s-38.667 -16 -54 -28s-27.333 -26.167 -36 -42.5s-12 -34.5 -10 -54.5c0.666992 -6 -6.16602 -12.833 -20.499 -20.5s-31.333 -14.5 -51 -20.5s-39 -10.667 -58 -14s-32.5 -4 -40.5 -2l-14 39
c15.333 33.333 38.666 65.333 69.999 96s67.166 57.667 107.499 81s83 42 128 56s88.5 21 130.5 21c73.333 0 129.833 -19.167 169.5 -57.5s59.5 -91.833 59.5 -160.5v-564c0 -28 3.66699 -48 11 -60s17 -18 29 -18c9.33301 0 21.333 1.66699 36 5
s35.334 10.666 62.001 21.999zM436.998 1047c-12 2 -22.666 5.66797 -31.999 11.001s-17.666 11 -24.999 17l234 414c8 -0.666992 18.5 -1.83398 31.5 -3.50098l41 -5.5c14.333 -2 28.166 -4.33301 41.499 -7s23.666 -5 30.999 -7l23 -39z" />
    <glyph glyph-name="acircumflex" unicode="&#xe2;" horiz-adv-x="940" 
d="M352 100c40 0 82.5 10.1689 127.5 30.502s92.833 52.5 143.5 96.5v259c-56 -9.33301 -102.167 -18.333 -138.5 -27s-66.166 -17.5 -89.499 -26.5s-42 -18.5 -56 -28.5s-26.333 -20.667 -37 -32c-17.333 -18 -31.333 -38.5 -42 -61.5s-16 -50.167 -16 -81.5
c0 -26.667 4 -48.334 12 -65.001s17.667 -29.834 29 -39.501s23.166 -16.167 35.499 -19.5s22.833 -5 31.5 -5zM926 82.002c-56.667 -39.333 -103.502 -67.8301 -140.502 -85.4971s-64.833 -26.5 -83.5 -26.5c-22 0 -40.333 15.333 -55 46s-22.667 73 -24 127
c-30 -30 -60 -56 -90 -78s-59.333 -40 -88 -54s-55.834 -24.333 -81.501 -31s-49.167 -10 -70.5 -10c-24 0 -48.667 4 -74 12s-48.166 20.667 -68.499 38s-37.166 39.666 -50.499 66.999s-20 60.333 -20 99c0 50.667 8.83301 93 26.5 127s38.834 63.333 63.501 88
c16 16 34.167 31.167 54.5 45.5s47.333 28.166 81 41.499s75.834 26 126.501 38s114.334 23.667 191.001 35v141c0 22.667 -2.66699 43.834 -8 63.501s-14.333 36.667 -27 51s-29.834 25.333 -51.501 33s-48.834 11.167 -81.501 10.5
c-21.333 -0.666992 -42.333 -4.33398 -63 -11.001s-38.667 -16 -54 -28s-27.333 -26.167 -36 -42.5s-12 -34.5 -10 -54.5c0.666992 -6 -6.16602 -12.833 -20.499 -20.5s-31.333 -14.5 -51 -20.5s-39 -10.667 -58 -14s-32.5 -4 -40.5 -2l-14 39
c15.333 33.333 38.666 65.333 69.999 96s67.166 57.667 107.499 81s83 42 128 56s88.5 21 130.5 21c73.333 0 129.833 -19.167 169.5 -57.5s59.5 -91.833 59.5 -160.5v-564c0 -28 3.66699 -48 11 -60s17 -18 29 -18c9.33301 0 21.333 1.66699 36 5
s35.334 10.666 62.001 21.999zM795.998 1092c-8 -12.667 -14.333 -22.001 -19 -28.001s-12.667 -11.667 -24 -17l-274 268l-271 -268c-5.33301 2.66699 -9.83301 5.33398 -13.5 8.00098s-7 5.66699 -10 9s-6.16699 7.33301 -9.5 12l-12 16l264 379h107z" />
    <glyph glyph-name="atilde" unicode="&#xe3;" horiz-adv-x="940" 
d="M352 100c40 0 82.5 10.1689 127.5 30.502s92.833 52.5 143.5 96.5v259c-56 -9.33301 -102.167 -18.333 -138.5 -27s-66.166 -17.5 -89.499 -26.5s-42 -18.5 -56 -28.5s-26.333 -20.667 -37 -32c-17.333 -18 -31.333 -38.5 -42 -61.5s-16 -50.167 -16 -81.5
c0 -26.667 4 -48.334 12 -65.001s17.667 -29.834 29 -39.501s23.166 -16.167 35.499 -19.5s22.833 -5 31.5 -5zM926 82.002c-56.667 -39.333 -103.502 -67.8301 -140.502 -85.4971s-64.833 -26.5 -83.5 -26.5c-22 0 -40.333 15.333 -55 46s-22.667 73 -24 127
c-30 -30 -60 -56 -90 -78s-59.333 -40 -88 -54s-55.834 -24.333 -81.501 -31s-49.167 -10 -70.5 -10c-24 0 -48.667 4 -74 12s-48.166 20.667 -68.499 38s-37.166 39.666 -50.499 66.999s-20 60.333 -20 99c0 50.667 8.83301 93 26.5 127s38.834 63.333 63.501 88
c16 16 34.167 31.167 54.5 45.5s47.333 28.166 81 41.499s75.834 26 126.501 38s114.334 23.667 191.001 35v141c0 22.667 -2.66699 43.834 -8 63.501s-14.333 36.667 -27 51s-29.834 25.333 -51.501 33s-48.834 11.167 -81.501 10.5
c-21.333 -0.666992 -42.333 -4.33398 -63 -11.001s-38.667 -16 -54 -28s-27.333 -26.167 -36 -42.5s-12 -34.5 -10 -54.5c0.666992 -6 -6.16602 -12.833 -20.499 -20.5s-31.333 -14.5 -51 -20.5s-39 -10.667 -58 -14s-32.5 -4 -40.5 -2l-14 39
c15.333 33.333 38.666 65.333 69.999 96s67.166 57.667 107.499 81s83 42 128 56s88.5 21 130.5 21c73.333 0 129.833 -19.167 169.5 -57.5s59.5 -91.833 59.5 -160.5v-564c0 -28 3.66699 -48 11 -60s17 -18 29 -18c9.33301 0 21.333 1.66699 36 5
s35.334 10.666 62.001 21.999zM820.998 1346c-12 -27.333 -26.333 -54.332 -43 -80.999s-35.167 -50.667 -55.5 -72s-42.5 -38.666 -66.5 -51.999s-49 -20 -75 -20c-23.333 0 -45.5 5.83301 -66.5 17.5s-41.5 24.667 -61.5 39s-39.833 27.333 -59.5 39
s-39.167 17.5 -58.5 17.5c-26.667 0 -51 -10.833 -73 -32.5s-45.333 -51.167 -70 -88.5l-53 20c12 27.333 26.167 54.5 42.5 81.5s34.833 51.167 55.5 72.5s42.834 38.666 66.501 51.999s48.5 20 74.5 20c25.333 0 49.333 -5.83301 72 -17.5s44 -24.667 64 -39
s39 -27.333 57 -39s35 -17.5 51 -17.5c25.333 0 50.166 10.667 74.499 32s47.833 51.666 70.5 90.999z" />
    <glyph glyph-name="adieresis" unicode="&#xe4;" horiz-adv-x="940" 
d="M352 100c40 0 82.5 10.1689 127.5 30.502s92.833 52.5 143.5 96.5v259c-56 -9.33301 -102.167 -18.333 -138.5 -27s-66.166 -17.5 -89.499 -26.5s-42 -18.5 -56 -28.5s-26.333 -20.667 -37 -32c-17.333 -18 -31.333 -38.5 -42 -61.5s-16 -50.167 -16 -81.5
c0 -26.667 4 -48.334 12 -65.001s17.667 -29.834 29 -39.501s23.166 -16.167 35.499 -19.5s22.833 -5 31.5 -5zM926 82.002c-56.667 -39.333 -103.502 -67.8301 -140.502 -85.4971s-64.833 -26.5 -83.5 -26.5c-22 0 -40.333 15.333 -55 46s-22.667 73 -24 127
c-30 -30 -60 -56 -90 -78s-59.333 -40 -88 -54s-55.834 -24.333 -81.501 -31s-49.167 -10 -70.5 -10c-24 0 -48.667 4 -74 12s-48.166 20.667 -68.499 38s-37.166 39.666 -50.499 66.999s-20 60.333 -20 99c0 50.667 8.83301 93 26.5 127s38.834 63.333 63.501 88
c16 16 34.167 31.167 54.5 45.5s47.333 28.166 81 41.499s75.834 26 126.501 38s114.334 23.667 191.001 35v141c0 22.667 -2.66699 43.834 -8 63.501s-14.333 36.667 -27 51s-29.834 25.333 -51.501 33s-48.834 11.167 -81.501 10.5
c-21.333 -0.666992 -42.333 -4.33398 -63 -11.001s-38.667 -16 -54 -28s-27.333 -26.167 -36 -42.5s-12 -34.5 -10 -54.5c0.666992 -6 -6.16602 -12.833 -20.499 -20.5s-31.333 -14.5 -51 -20.5s-39 -10.667 -58 -14s-32.5 -4 -40.5 -2l-14 39
c15.333 33.333 38.666 65.333 69.999 96s67.166 57.667 107.499 81s83 42 128 56s88.5 21 130.5 21c73.333 0 129.833 -19.167 169.5 -57.5s59.5 -91.833 59.5 -160.5v-564c0 -28 3.66699 -48 11 -60s17 -18 29 -18c9.33301 0 21.333 1.66699 36 5
s35.334 10.666 62.001 21.999zM779.998 1261c0 -18.667 -3.00098 -36.3359 -9.00098 -53.0029s-14.167 -31.167 -24.5 -43.5s-22.5 -22.166 -36.5 -29.499s-29.333 -11 -46 -11c-30 0 -51.5 8.33301 -64.5 25s-19.5 40.334 -19.5 71.001c0 18.667 3 36.334 9 53.001
s14.333 31.167 25 43.5s22.834 22 36.501 29s28.5 10.5 44.5 10.5c56.667 0 85 -31.667 85 -95zM379.997 1261c0 -18.667 -3.00098 -36.3359 -9.00098 -53.0029s-14.167 -31.167 -24.5 -43.5s-22.5 -22.166 -36.5 -29.499s-29.333 -11 -46 -11c-30 0 -51.5 8.33301 -64.5 25
s-19.5 40.334 -19.5 71.001c0 18.667 3 36.334 9 53.001s14.333 31.167 25 43.5s22.834 22 36.501 29s28.5 10.5 44.5 10.5c56.667 0 85 -31.667 85 -95z" />
    <glyph glyph-name="aring" unicode="&#xe5;" horiz-adv-x="940" 
d="M352 100c40 0 82.5 10.1689 127.5 30.502s92.833 52.5 143.5 96.5v259c-56 -9.33301 -102.167 -18.333 -138.5 -27s-66.166 -17.5 -89.499 -26.5s-42 -18.5 -56 -28.5s-26.333 -20.667 -37 -32c-17.333 -18 -31.333 -38.5 -42 -61.5s-16 -50.167 -16 -81.5
c0 -26.667 4 -48.334 12 -65.001s17.667 -29.834 29 -39.501s23.166 -16.167 35.499 -19.5s22.833 -5 31.5 -5zM926 82.002c-56.667 -39.333 -103.502 -67.8301 -140.502 -85.4971s-64.833 -26.5 -83.5 -26.5c-22 0 -40.333 15.333 -55 46s-22.667 73 -24 127
c-30 -30 -60 -56 -90 -78s-59.333 -40 -88 -54s-55.834 -24.333 -81.501 -31s-49.167 -10 -70.5 -10c-24 0 -48.667 4 -74 12s-48.166 20.667 -68.499 38s-37.166 39.666 -50.499 66.999s-20 60.333 -20 99c0 50.667 8.83301 93 26.5 127s38.834 63.333 63.501 88
c16 16 34.167 31.167 54.5 45.5s47.333 28.166 81 41.499s75.834 26 126.501 38s114.334 23.667 191.001 35v141c0 22.667 -2.66699 43.834 -8 63.501s-14.333 36.667 -27 51s-29.834 25.333 -51.501 33s-48.834 11.167 -81.501 10.5
c-21.333 -0.666992 -42.333 -4.33398 -63 -11.001s-38.667 -16 -54 -28s-27.333 -26.167 -36 -42.5s-12 -34.5 -10 -54.5c0.666992 -6 -6.16602 -12.833 -20.499 -20.5s-31.333 -14.5 -51 -20.5s-39 -10.667 -58 -14s-32.5 -4 -40.5 -2l-14 39
c15.333 33.333 38.666 65.333 69.999 96s67.166 57.667 107.499 81s83 42 128 56s88.5 21 130.5 21c73.333 0 129.833 -19.167 169.5 -57.5s59.5 -91.833 59.5 -160.5v-564c0 -28 3.66699 -48 11 -60s17 -18 29 -18c9.33301 0 21.333 1.66699 36 5
s35.334 10.666 62.001 21.999zM575.998 1243c0 16 -1.99902 31.333 -5.99902 46s-9.66699 27.5 -17 38.5s-16.333 19.833 -27 26.5s-22.667 10 -36 10c-14 0 -27.333 -2.83301 -40 -8.5s-23.834 -13.667 -33.501 -24s-17.5 -22.833 -23.5 -37.5s-9 -31 -9 -49
c0 -15.333 2 -30.166 6 -44.499s9.66699 -27 17 -38s16.333 -19.833 27 -26.5s22.667 -10 36 -10s26.333 2.5 39 7.5s24 12.5 34 22.5s18 22.167 24 36.5s9 31.166 9 50.499zM665.999 1284c0 -34 -6.5 -65.168 -19.5 -93.501s-30 -53 -51 -74s-44.333 -37.333 -70 -49
s-51.167 -17.5 -76.5 -17.5c-22.667 0 -43.5 4 -62.5 12s-35.333 19 -49 33s-24.334 30.333 -32.001 49s-11.5 38.667 -11.5 60c0 34 6.5 65.5 19.5 94.5s29.833 54 50.5 75s43.834 37.333 69.501 49s51.5 17.5 77.5 17.5c21.333 0 41.5 -4.16699 60.5 -12.5
s35.5 -19.666 49.5 -33.999s25 -31 33 -50s12 -38.833 12 -59.5z" />
    <glyph glyph-name="ae" unicode="&#xe6;" horiz-adv-x="1417" 
d="M1337 557c-13.333 -13.333 -30.001 -25.8242 -50.001 -37.4912s-40.667 -21.834 -62 -30.501h-449c-1.33301 -11.333 -2 -23 -2 -35v-36c0 -38.667 5.16699 -76.834 15.5 -114.501s25.5 -71.5 45.5 -101.5s44.5 -54.167 73.5 -72.5s62.167 -27.5 99.5 -27.5
c20.667 0 40.5 1.16699 59.5 3.5s39.333 8 61 17s45.5 22.5 71.5 40.5s56.667 42.333 92 73c8.66699 -4.66699 16.167 -11.334 22.5 -20.001s11.166 -15.667 14.499 -21c-40 -48 -76.667 -86.667 -110 -116s-65.166 -52 -95.499 -68s-60 -26.833 -89 -32.5
s-59.167 -8.5 -90.5 -8.5c-29.333 0 -58.166 4.66699 -86.499 14s-55 23 -80 41s-47.667 39.833 -68 65.5s-37.5 55.167 -51.5 88.5c-28.667 -34.667 -59.834 -65 -93.501 -91s-67.167 -47.833 -100.5 -65.5s-65 -30.834 -95 -39.501s-55.333 -13 -76 -13
c-24 0 -48.667 4 -74 12s-48.166 20.667 -68.499 38s-37.166 39.666 -50.499 66.999s-20 60.333 -20 99c0 39.333 7.83301 77.166 23.5 113.499s39.167 70.166 70.5 101.499s71 59.833 119 85.5s104.667 47.834 170 66.501c22 6 46.833 10.833 74.5 14.5
s56.167 6.5 85.5 8.5v86c0 26 -2 51 -6 75s-11.667 45 -23 63s-27.166 32.5 -47.499 43.5s-46.833 16.5 -79.5 16.5c-21.333 0 -44.166 -4.83301 -68.499 -14.5s-46 -23 -65 -40s-33.167 -36.667 -42.5 -59s-9 -45.833 1 -70.5c2 -6 -4.16699 -12.667 -18.5 -20
s-31.333 -14 -51 -20s-39.334 -10.5 -59.001 -13.5s-33.5 -3.5 -41.5 -1.5l-14 36c3.33301 26 13 51.667 29 77s36 49.166 60 71.499s50.833 43 80.5 62s59.667 35.333 90 49s60.166 24.334 89.499 32.001s55.333 11.5 78 11.5c58.667 0 105.167 -12 139.5 -36
s59.166 -60 74.499 -108c21.333 26.667 44 49.334 68 68.001s48.167 33.5 72.5 44.5s48 19 71 24s44.167 7.5 63.5 7.5c40.667 0 76.667 -5.83301 108 -17.5s58.5 -27.334 81.5 -47.001s42.5 -42.834 58.5 -69.501s28.833 -54.834 38.5 -84.501s16.5 -60.334 20.5 -92.001
s6 -62.5 6 -92.5zM636.999 243.009c-4.66699 19.333 -8.16602 39.0039 -10.499 59.0039s-3.5 41 -3.5 63v120c-22 -1.33301 -41.667 -3 -59 -5s-30 -4.33301 -38 -7c-100 -24.667 -172 -57.834 -216 -99.501s-66 -89.834 -66 -144.501c0 -26.667 4 -48.334 12 -65.001
s17.667 -29.834 29 -39.501s23.166 -16.167 35.499 -19.5s22.833 -5 31.5 -5c18 0 38.333 3 61 9s46.5 14.833 71.5 26.5s50.5 26.5 76.5 44.5s51.333 39 76 63zM995 860.013c-15.333 0 -33.167 -3.66699 -53.5 -11s-40.5 -21.166 -60.5 -41.499
s-38.833 -48.833 -56.5 -85.5s-30.834 -84 -39.501 -142h348c14 0 23.833 2.5 29.5 7.5s8.5 14.5 8.5 28.5c0 32 -3.33301 62.667 -10 92s-17 55.166 -31 77.499s-32.167 40.333 -54.5 54s-49.166 20.5 -80.499 20.5z" />
    <glyph glyph-name="ccedilla" unicode="&#xe7;" horiz-adv-x="895" 
d="M655 -229c0 -24.667 -5.83203 -48.334 -17.499 -71.001s-29.834 -43.334 -54.501 -62.001s-56.5 -35 -95.5 -49s-85.833 -25 -140.5 -33l-22 49c34.667 6 64.167 13.5 88.5 22.5s44.166 18.833 59.499 29.5s26.5 21.834 33.5 33.501s10.5 22.834 10.5 33.501
c0 22.667 -8.66699 38.5 -26 47.5s-46.666 15.5 -87.999 19.5c1.33301 2 4.66602 11.333 9.99902 28l21 66l28 85c-48 0.666992 -94.667 11.334 -140 32.001c-46 22 -87 53.333 -123 94s-64.833 90.334 -86.5 149.001s-32.5 125 -32.5 199c0 72 13.167 139.333 39.5 202
s62.333 117.167 108 163.5s99.5 83 161.5 110s129 40.5 201 40.5c22 0 44.5 -1.83301 67.5 -5.5s45 -9 66 -16s40.333 -15.333 58 -25s32.167 -20.5 43.5 -32.5c1.33301 -8 0.333008 -19.333 -3 -34s-8 -30.167 -14 -46.5s-12.667 -32 -20 -47s-14 -27.167 -20 -36.5l-37 10
c-5.33301 12 -14 25 -26 39s-27.5 27.333 -46.5 40s-41.667 23.167 -68 31.5s-56.5 12.5 -90.5 12.5c-35.333 0 -69.166 -7.83301 -101.499 -23.5s-61 -39.167 -86 -70.5s-45 -70.333 -60 -117s-22.5 -101.334 -22.5 -164.001c0 -56.667 8.5 -108.167 25.5 -154.5
s39.667 -85.833 68 -118.5s61 -57.834 98 -75.501s75.5 -26.5 115.5 -26.5c18.667 0 36 0.833008 52 2.5s33.5 6.83398 52.5 15.501s41 21.667 66 39s56.167 42 93.5 74l39 -41c-43.333 -51.333 -81.5 -91.5 -114.5 -120.5s-63.5 -51 -91.5 -66s-55.333 -24.167 -82 -27.5
c-3.33301 -0.666992 -7 -1.33398 -11 -2.00098l-26 -78c17.333 -4 34.5 -9.16699 51.5 -15.5s32 -14.5 45 -24.5s23.5 -22 31.5 -36s12 -30.333 12 -49z" />
    <glyph glyph-name="egrave" unicode="&#xe8;" horiz-adv-x="946" 
d="M496 855c-34.667 0 -66.5 -6.66699 -95.5 -20s-54.667 -32.166 -77 -56.499s-41 -53.333 -56 -87s-25.5 -70.834 -31.5 -111.501h428c15.333 0 25.5 2.5 30.5 7.5s7.5 14.5 7.5 28.5c0 18 -2.5 40.5 -7.5 67.5s-15 53.333 -30 79s-36 47.5 -63 65.5s-62.167 27 -105.5 27
zM866 557c-12 -13.333 -28.002 -25.665 -48.002 -36.998s-40.667 -21.333 -62 -30h-526c0.666992 -52 7.83398 -101.5 21.501 -148.5s33.334 -88.333 59.001 -124s56.667 -64.167 93 -85.5s77.166 -32 122.499 -32c20.667 0 40.834 1.33301 60.501 4
s40.834 8.66699 63.501 18s47.834 23 75.501 41s60.167 42.333 97.5 73c8.66699 -4.66699 16.167 -11.334 22.5 -20.001s11.166 -15.667 14.499 -21c-44.667 -48.667 -83.834 -87.834 -117.501 -117.501s-65.334 -52.5 -95.001 -68.5s-59 -26.5 -88 -31.5
s-60.5 -7.5 -94.5 -7.5c-51.333 0 -100.166 11 -146.499 33s-87.166 53.167 -122.499 93.5s-63.5 89 -84.5 146s-31.5 120.833 -31.5 191.5c0 44.667 5 88.667 15 132s24.5 84.333 43.5 123s42.167 74.334 69.5 107.001s58.333 61 93 85c14.667 10 31.167 19.833 49.5 29.5
s37.5 18.167 57.5 25.5s39.833 13.166 59.5 17.499s38.5 6.5 56.5 6.5c43.333 0 82 -6 116 -18s63.667 -28.167 89 -48.5s46.666 -44 63.999 -71s31.5 -55.5 42.5 -85.5s18.833 -60.5 23.5 -91.5s7 -60.5 7 -88.5zM623.998 1078c-8.66699 -8 -17.333 -14.335 -26 -19.002
s-18.667 -8.66699 -30 -12l-352 377l22 41c6.66699 2 16.5 4.16699 29.5 6.5l41 7.5c14.333 2.66699 28.5 4.83398 42.5 6.50098s25 2.83398 33 3.50098z" />
    <glyph glyph-name="eacute" unicode="&#xe9;" horiz-adv-x="946" 
d="M496 855c-34.667 0 -66.5 -6.66699 -95.5 -20s-54.667 -32.166 -77 -56.499s-41 -53.333 -56 -87s-25.5 -70.834 -31.5 -111.501h428c15.333 0 25.5 2.5 30.5 7.5s7.5 14.5 7.5 28.5c0 18 -2.5 40.5 -7.5 67.5s-15 53.333 -30 79s-36 47.5 -63 65.5s-62.167 27 -105.5 27
zM866 557c-12 -13.333 -28.002 -25.665 -48.002 -36.998s-40.667 -21.333 -62 -30h-526c0.666992 -52 7.83398 -101.5 21.501 -148.5s33.334 -88.333 59.001 -124s56.667 -64.167 93 -85.5s77.166 -32 122.499 -32c20.667 0 40.834 1.33301 60.501 4
s40.834 8.66699 63.501 18s47.834 23 75.501 41s60.167 42.333 97.5 73c8.66699 -4.66699 16.167 -11.334 22.5 -20.001s11.166 -15.667 14.499 -21c-44.667 -48.667 -83.834 -87.834 -117.501 -117.501s-65.334 -52.5 -95.001 -68.5s-59 -26.5 -88 -31.5
s-60.5 -7.5 -94.5 -7.5c-51.333 0 -100.166 11 -146.499 33s-87.166 53.167 -122.499 93.5s-63.5 89 -84.5 146s-31.5 120.833 -31.5 191.5c0 44.667 5 88.667 15 132s24.5 84.333 43.5 123s42.167 74.334 69.5 107.001s58.333 61 93 85c14.667 10 31.167 19.833 49.5 29.5
s37.5 18.167 57.5 25.5s39.833 13.166 59.5 17.499s38.5 6.5 56.5 6.5c43.333 0 82 -6 116 -18s63.667 -28.167 89 -48.5s46.666 -44 63.999 -71s31.5 -55.5 42.5 -85.5s18.833 -60.5 23.5 -91.5s7 -60.5 7 -88.5zM466.998 1047c-12 2 -22.666 5.66797 -31.999 11.001
s-17.666 11 -24.999 17l234 414c8 -0.666992 18.5 -1.83398 31.5 -3.50098l41 -5.5c14.333 -2 28.166 -4.33301 41.499 -7s23.666 -5 30.999 -7l23 -39z" />
    <glyph glyph-name="ecircumflex" unicode="&#xea;" horiz-adv-x="946" 
d="M496 855c-34.667 0 -66.5 -6.66699 -95.5 -20s-54.667 -32.166 -77 -56.499s-41 -53.333 -56 -87s-25.5 -70.834 -31.5 -111.501h428c15.333 0 25.5 2.5 30.5 7.5s7.5 14.5 7.5 28.5c0 18 -2.5 40.5 -7.5 67.5s-15 53.333 -30 79s-36 47.5 -63 65.5s-62.167 27 -105.5 27
zM866 557c-12 -13.333 -28.002 -25.665 -48.002 -36.998s-40.667 -21.333 -62 -30h-526c0.666992 -52 7.83398 -101.5 21.501 -148.5s33.334 -88.333 59.001 -124s56.667 -64.167 93 -85.5s77.166 -32 122.499 -32c20.667 0 40.834 1.33301 60.501 4
s40.834 8.66699 63.501 18s47.834 23 75.501 41s60.167 42.333 97.5 73c8.66699 -4.66699 16.167 -11.334 22.5 -20.001s11.166 -15.667 14.499 -21c-44.667 -48.667 -83.834 -87.834 -117.501 -117.501s-65.334 -52.5 -95.001 -68.5s-59 -26.5 -88 -31.5
s-60.5 -7.5 -94.5 -7.5c-51.333 0 -100.166 11 -146.499 33s-87.166 53.167 -122.499 93.5s-63.5 89 -84.5 146s-31.5 120.833 -31.5 191.5c0 44.667 5 88.667 15 132s24.5 84.333 43.5 123s42.167 74.334 69.5 107.001s58.333 61 93 85c14.667 10 31.167 19.833 49.5 29.5
s37.5 18.167 57.5 25.5s39.833 13.166 59.5 17.499s38.5 6.5 56.5 6.5c43.333 0 82 -6 116 -18s63.667 -28.167 89 -48.5s46.666 -44 63.999 -71s31.5 -55.5 42.5 -85.5s18.833 -60.5 23.5 -91.5s7 -60.5 7 -88.5zM825.998 1092c-8 -12.667 -14.333 -22.001 -19 -28.001
s-12.667 -11.667 -24 -17l-274 268l-271 -268c-5.33301 2.66699 -9.83301 5.33398 -13.5 8.00098s-7 5.66699 -10 9s-6.16699 7.33301 -9.5 12l-12 16l264 379h107z" />
    <glyph glyph-name="edieresis" unicode="&#xeb;" horiz-adv-x="946" 
d="M496 855c-34.667 0 -66.5 -6.66699 -95.5 -20s-54.667 -32.166 -77 -56.499s-41 -53.333 -56 -87s-25.5 -70.834 -31.5 -111.501h428c15.333 0 25.5 2.5 30.5 7.5s7.5 14.5 7.5 28.5c0 18 -2.5 40.5 -7.5 67.5s-15 53.333 -30 79s-36 47.5 -63 65.5s-62.167 27 -105.5 27
zM866 557c-12 -13.333 -28.002 -25.665 -48.002 -36.998s-40.667 -21.333 -62 -30h-526c0.666992 -52 7.83398 -101.5 21.501 -148.5s33.334 -88.333 59.001 -124s56.667 -64.167 93 -85.5s77.166 -32 122.499 -32c20.667 0 40.834 1.33301 60.501 4
s40.834 8.66699 63.501 18s47.834 23 75.501 41s60.167 42.333 97.5 73c8.66699 -4.66699 16.167 -11.334 22.5 -20.001s11.166 -15.667 14.499 -21c-44.667 -48.667 -83.834 -87.834 -117.501 -117.501s-65.334 -52.5 -95.001 -68.5s-59 -26.5 -88 -31.5
s-60.5 -7.5 -94.5 -7.5c-51.333 0 -100.166 11 -146.499 33s-87.166 53.167 -122.499 93.5s-63.5 89 -84.5 146s-31.5 120.833 -31.5 191.5c0 44.667 5 88.667 15 132s24.5 84.333 43.5 123s42.167 74.334 69.5 107.001s58.333 61 93 85c14.667 10 31.167 19.833 49.5 29.5
s37.5 18.167 57.5 25.5s39.833 13.166 59.5 17.499s38.5 6.5 56.5 6.5c43.333 0 82 -6 116 -18s63.667 -28.167 89 -48.5s46.666 -44 63.999 -71s31.5 -55.5 42.5 -85.5s18.833 -60.5 23.5 -91.5s7 -60.5 7 -88.5zM809.998 1261
c0 -18.667 -3.00098 -36.3359 -9.00098 -53.0029s-14.167 -31.167 -24.5 -43.5s-22.5 -22.166 -36.5 -29.499s-29.333 -11 -46 -11c-30 0 -51.5 8.33301 -64.5 25s-19.5 40.334 -19.5 71.001c0 18.667 3 36.334 9 53.001s14.333 31.167 25 43.5s22.834 22 36.501 29
s28.5 10.5 44.5 10.5c56.667 0 85 -31.667 85 -95zM409.997 1261c0 -18.667 -3.00098 -36.3359 -9.00098 -53.0029s-14.167 -31.167 -24.5 -43.5s-22.5 -22.166 -36.5 -29.499s-29.333 -11 -46 -11c-30 0 -51.5 8.33301 -64.5 25s-19.5 40.334 -19.5 71.001
c0 18.667 3 36.334 9 53.001s14.333 31.167 25 43.5s22.834 22 36.501 29s28.5 10.5 44.5 10.5c56.667 0 85 -31.667 85 -95z" />
    <glyph glyph-name="igrave" unicode="&#xec;" horiz-adv-x="555" 
d="M70 0l-0.000976562 43.001c45.333 9.33301 80 19.5 104 30.5s36 21.167 36 30.5v566c0 34 -0.666992 61.5 -2 82.5s-6.33301 37.333 -15 49s-22.5 20.167 -41.5 25.5s-46.167 9.66602 -81.5 12.999v40c20.667 4 42.5 8.83301 65.5 14.5s45.833 12 68.5 19
s44.334 14.5 65.001 22.5s39.667 16 57 24h34v-856c0 -8 11.167 -17.833 33.5 -29.5s57.833 -22.167 106.5 -31.5v-43h-430zM398.999 1078c-8.66699 -8 -17.333 -14.335 -26 -19.002s-18.667 -8.66699 -30 -12l-352 377l22 41c6.66699 2 16.5 4.16699 29.5 6.5l41 7.5
c14.333 2.66699 28.5 4.83398 42.5 6.50098s25 2.83398 33 3.50098z" />
    <glyph glyph-name="iacute" unicode="&#xed;" horiz-adv-x="555" 
d="M70 0l-0.000976562 43.001c45.333 9.33301 80 19.5 104 30.5s36 21.167 36 30.5v566c0 34 -0.666992 61.5 -2 82.5s-6.33301 37.333 -15 49s-22.5 20.167 -41.5 25.5s-46.167 9.66602 -81.5 12.999v40c20.667 4 42.5 8.83301 65.5 14.5s45.833 12 68.5 19
s44.334 14.5 65.001 22.5s39.667 16 57 24h34v-856c0 -8 11.167 -17.833 33.5 -29.5s57.833 -22.167 106.5 -31.5v-43h-430zM241.999 1047c-12 2 -22.666 5.66797 -31.999 11.001s-17.666 11 -24.999 17l234 414c8 -0.666992 18.5 -1.83398 31.5 -3.50098l41 -5.5
c14.333 -2 28.166 -4.33301 41.499 -7s23.666 -5 30.999 -7l23 -39z" />
    <glyph glyph-name="icircumflex" unicode="&#xee;" horiz-adv-x="555" 
d="M70 0l-0.000976562 43.001c45.333 9.33301 80 19.5 104 30.5s36 21.167 36 30.5v566c0 34 -0.666992 61.5 -2 82.5s-6.33301 37.333 -15 49s-22.5 20.167 -41.5 25.5s-46.167 9.66602 -81.5 12.999v40c20.667 4 42.5 8.83301 65.5 14.5s45.833 12 68.5 19
s44.334 14.5 65.001 22.5s39.667 16 57 24h34v-856c0 -8 11.167 -17.833 33.5 -29.5s57.833 -22.167 106.5 -31.5v-43h-430zM600.999 1092c-8 -12.667 -14.333 -22.001 -19 -28.001s-12.667 -11.667 -24 -17l-274 268l-271 -268
c-5.33301 2.66699 -9.83301 5.33398 -13.5 8.00098s-7 5.66699 -10 9s-6.16699 7.33301 -9.5 12l-12 16l264 379h107z" />
    <glyph glyph-name="idieresis" unicode="&#xef;" horiz-adv-x="555" 
d="M70 0l-0.000976562 43.001c45.333 9.33301 80 19.5 104 30.5s36 21.167 36 30.5v566c0 34 -0.666992 61.5 -2 82.5s-6.33301 37.333 -15 49s-22.5 20.167 -41.5 25.5s-46.167 9.66602 -81.5 12.999v40c20.667 4 42.5 8.83301 65.5 14.5s45.833 12 68.5 19
s44.334 14.5 65.001 22.5s39.667 16 57 24h34v-856c0 -8 11.167 -17.833 33.5 -29.5s57.833 -22.167 106.5 -31.5v-43h-430zM584.999 1261c0 -18.667 -3.00098 -36.3359 -9.00098 -53.0029s-14.167 -31.167 -24.5 -43.5s-22.5 -22.166 -36.5 -29.499s-29.333 -11 -46 -11
c-30 0 -51.5 8.33301 -64.5 25s-19.5 40.334 -19.5 71.001c0 18.667 3 36.334 9 53.001s14.333 31.167 25 43.5s22.834 22 36.501 29s28.5 10.5 44.5 10.5c56.667 0 85 -31.667 85 -95zM184.998 1261c0 -18.667 -3.00098 -36.3359 -9.00098 -53.0029
s-14.167 -31.167 -24.5 -43.5s-22.5 -22.166 -36.5 -29.499s-29.333 -11 -46 -11c-30 0 -51.5 8.33301 -64.5 25s-19.5 40.334 -19.5 71.001c0 18.667 3 36.334 9 53.001s14.333 31.167 25 43.5s22.834 22 36.501 29s28.5 10.5 44.5 10.5c56.667 0 85 -31.667 85 -95z" />
    <glyph glyph-name="eth" unicode="&#xf0;" horiz-adv-x="1020" 
d="M785 586c-12.667 38 -30.502 73.1699 -53.502 105.503s-48.667 60.333 -77 84s-58.166 42 -89.499 55s-61.333 19.5 -90 19.5c-39.333 0 -74 -9.66699 -104 -29s-55 -45.833 -75 -79.5s-35.167 -73.5 -45.5 -119.5s-15.5 -95.667 -15.5 -149
c0 -52.667 8.66699 -102.834 26 -150.501s39.333 -89.5 66 -125.5s56 -64.5 88 -85.5s62.333 -31.5 91 -31.5c36.667 0 71.834 9.16699 105.501 27.5s63.334 46.666 89.001 84.999s46.167 87.166 61.5 146.499s23 130 23 212c0 6 0.166992 12 0.5 18
s0.166016 11.667 -0.500977 17zM934.998 592.003c0 -77.333 -7.33594 -146.331 -22.0029 -206.998s-34 -114 -58 -160s-51.5 -85.167 -82.5 -117.5s-62.833 -58.666 -95.5 -78.999s-64.667 -35.166 -96 -44.499s-59.666 -14 -84.999 -14c-65.333 0 -123.666 12 -174.999 36
s-94.833 57 -130.5 99s-63 92 -82 150s-28.5 121 -28.5 189c0 44 5.5 87.333 16.5 130s26.167 83.167 45.5 121.5s42.5 73.666 69.5 105.999s56.167 60.166 87.5 83.499s64.666 41.666 99.999 54.999s71 20 107 20c20 0 40.667 -3.33301 62 -10s42.666 -16 63.999 -28
s42 -26 62 -42s38.667 -33 56 -51c-19.333 67.333 -45.666 128.166 -78.999 182.499s-73.666 105.5 -120.999 153.5l-226 -98l-29 3c-6.66699 0.666992 -12.667 1.5 -18 2.5s-11.166 2.5 -17.499 4.5l-26.5 8l-10 37l255 111c-18 16 -36.833 30.5 -56.5 43.5
s-40.5 24 -62.5 33s-45.167 15.167 -69.5 18.5s-50.5 3 -78.5 -1l-6 41l201 72c75.333 -50 141 -101 197 -153l208 91l36.5 -6c8.33301 -1.33301 15.333 -2.66602 21 -3.99902s11 -3 16 -5s11.833 -4.33301 20.5 -7l6 -35l-238 -103c46 -50 85.667 -100.833 119 -152.5
s60.5 -103.834 81.5 -156.501s36.5 -105.667 46.5 -159s15 -106 15 -158z" />
    <glyph glyph-name="ntilde" unicode="&#xf1;" horiz-adv-x="1130" 
d="M670 0v43c48 12.667 83.333 23.667 106 33s34 18.666 34 27.999v529c0 40.667 -2.33301 73.667 -7 99s-12 45.333 -22 60s-23.167 24.667 -39.5 30s-36.166 8 -59.499 8c-20.667 0 -43.667 -5 -69 -15s-52.5 -26 -81.5 -48s-59.333 -50.833 -91 -86.5
s-63.5 -79.5 -95.5 -131.5v-445c0 -10 12.5 -20.333 37.5 -31s59.167 -20.667 102.5 -30v-43h-430v43c44 11.333 78.333 21.5 103 30.5s37 19.167 37 30.5v607c0 26 -1 46.667 -3 62s-7.5 27.333 -16.5 36s-22.833 15 -41.5 19s-45 8 -79 12v40
c45.333 7.33301 87.333 17.833 126 31.5s76.667 29.834 114 48.501l35 -35l11 -249c29.333 44.667 61.666 84.5 96.999 119.5s71 64.667 107 89s70.833 43 104.5 56s63.5 19.5 89.5 19.5c28.667 0 56.334 -4.33301 83.001 -13s50.167 -22 70.5 -40
s36.666 -40.833 48.999 -68.5s18.5 -60.167 18.5 -97.5v-637c0 -9.33301 10.167 -18.5 30.5 -27.5s56.833 -20.167 109.5 -33.5v-43h-430zM918 1346c-12 -27.333 -26.333 -54.332 -43 -80.999s-35.167 -50.667 -55.5 -72s-42.5 -38.666 -66.5 -51.999s-49 -20 -75 -20
c-23.333 0 -45.5 5.83301 -66.5 17.5s-41.5 24.667 -61.5 39s-39.833 27.333 -59.5 39s-39.167 17.5 -58.5 17.5c-26.667 0 -51 -10.833 -73 -32.5s-45.333 -51.167 -70 -88.5l-53 20c12 27.333 26.167 54.5 42.5 81.5s34.833 51.167 55.5 72.5s42.834 38.666 66.501 51.999
s48.5 20 74.5 20c25.333 0 49.333 -5.83301 72 -17.5s44 -24.667 64 -39s39 -27.333 57 -39s35 -17.5 51 -17.5c25.333 0 50.166 10.667 74.499 32s47.833 51.666 70.5 90.999z" />
    <glyph glyph-name="ograve" unicode="&#xf2;" horiz-adv-x="1030" 
d="M795 455c0 52.667 -8.66699 102.834 -26 150.501s-39.666 89.667 -66.999 126s-58.333 65.166 -93 86.499s-69 32 -103 32c-50.667 0 -93.334 -9.66699 -128.001 -29s-62.5 -45.833 -83.5 -79.5s-36.167 -73.5 -45.5 -119.5s-14 -95.667 -14 -149
c0 -52.667 9.33301 -102.834 28 -150.501s42.167 -89.5 70.5 -125.5s59.5 -64.5 93.5 -85.5s66.333 -31.5 97 -31.5c47.333 0 88 8.83301 122 26.5s62 42.834 84 75.501s38.333 72 49 118s16 97.667 16 155zM950 485c0 -44.667 -5.66895 -88.3311 -17.002 -130.998
s-27 -83 -47 -121s-44 -73.167 -72 -105.5s-58.833 -60.166 -92.5 -83.499s-69.5 -41.5 -107.5 -54.5s-77.333 -19.5 -118 -19.5c-63.333 0 -120.5 12 -171.5 36s-94.667 57 -131 99s-64.333 92 -84 150s-29.5 121 -29.5 189c0 44 5.5 87.333 16.5 130
s26.333 83.167 46 121.5s43.334 73.666 71.001 105.999s58.334 60.166 92.001 83.499s70 41.666 109 54.999s79.167 20 120.5 20c62.667 0 119.5 -12 170.5 -36s94.667 -57.167 131 -99.5s64.333 -92.5 84 -150.5s29.5 -121 29.5 -189zM648.998 1078
c-8.66699 -8 -17.333 -14.335 -26 -19.002s-18.667 -8.66699 -30 -12l-352 377l22 41c6.66699 2 16.5 4.16699 29.5 6.5l41 7.5c14.333 2.66699 28.5 4.83398 42.5 6.50098s25 2.83398 33 3.50098z" />
    <glyph glyph-name="oacute" unicode="&#xf3;" horiz-adv-x="1030" 
d="M795 455c0 52.667 -8.66699 102.834 -26 150.501s-39.666 89.667 -66.999 126s-58.333 65.166 -93 86.499s-69 32 -103 32c-50.667 0 -93.334 -9.66699 -128.001 -29s-62.5 -45.833 -83.5 -79.5s-36.167 -73.5 -45.5 -119.5s-14 -95.667 -14 -149
c0 -52.667 9.33301 -102.834 28 -150.501s42.167 -89.5 70.5 -125.5s59.5 -64.5 93.5 -85.5s66.333 -31.5 97 -31.5c47.333 0 88 8.83301 122 26.5s62 42.834 84 75.501s38.333 72 49 118s16 97.667 16 155zM950 485c0 -44.667 -5.66895 -88.3311 -17.002 -130.998
s-27 -83 -47 -121s-44 -73.167 -72 -105.5s-58.833 -60.166 -92.5 -83.499s-69.5 -41.5 -107.5 -54.5s-77.333 -19.5 -118 -19.5c-63.333 0 -120.5 12 -171.5 36s-94.667 57 -131 99s-64.333 92 -84 150s-29.5 121 -29.5 189c0 44 5.5 87.333 16.5 130
s26.333 83.167 46 121.5s43.334 73.666 71.001 105.999s58.334 60.166 92.001 83.499s70 41.666 109 54.999s79.167 20 120.5 20c62.667 0 119.5 -12 170.5 -36s94.667 -57.167 131 -99.5s64.333 -92.5 84 -150.5s29.5 -121 29.5 -189zM491.998 1047
c-12 2 -22.666 5.66797 -31.999 11.001s-17.666 11 -24.999 17l234 414c8 -0.666992 18.5 -1.83398 31.5 -3.50098l41 -5.5c14.333 -2 28.166 -4.33301 41.499 -7s23.666 -5 30.999 -7l23 -39z" />
    <glyph glyph-name="ocircumflex" unicode="&#xf4;" horiz-adv-x="1030" 
d="M795 455c0 52.667 -8.66699 102.834 -26 150.501s-39.666 89.667 -66.999 126s-58.333 65.166 -93 86.499s-69 32 -103 32c-50.667 0 -93.334 -9.66699 -128.001 -29s-62.5 -45.833 -83.5 -79.5s-36.167 -73.5 -45.5 -119.5s-14 -95.667 -14 -149
c0 -52.667 9.33301 -102.834 28 -150.501s42.167 -89.5 70.5 -125.5s59.5 -64.5 93.5 -85.5s66.333 -31.5 97 -31.5c47.333 0 88 8.83301 122 26.5s62 42.834 84 75.501s38.333 72 49 118s16 97.667 16 155zM950 485c0 -44.667 -5.66895 -88.3311 -17.002 -130.998
s-27 -83 -47 -121s-44 -73.167 -72 -105.5s-58.833 -60.166 -92.5 -83.499s-69.5 -41.5 -107.5 -54.5s-77.333 -19.5 -118 -19.5c-63.333 0 -120.5 12 -171.5 36s-94.667 57 -131 99s-64.333 92 -84 150s-29.5 121 -29.5 189c0 44 5.5 87.333 16.5 130
s26.333 83.167 46 121.5s43.334 73.666 71.001 105.999s58.334 60.166 92.001 83.499s70 41.666 109 54.999s79.167 20 120.5 20c62.667 0 119.5 -12 170.5 -36s94.667 -57.167 131 -99.5s64.333 -92.5 84 -150.5s29.5 -121 29.5 -189zM850.998 1092
c-8 -12.667 -14.333 -22.001 -19 -28.001s-12.667 -11.667 -24 -17l-274 268l-271 -268c-5.33301 2.66699 -9.83301 5.33398 -13.5 8.00098s-7 5.66699 -10 9s-6.16699 7.33301 -9.5 12l-12 16l264 379h107z" />
    <glyph glyph-name="otilde" unicode="&#xf5;" horiz-adv-x="1030" 
d="M795 455c0 52.667 -8.66699 102.834 -26 150.501s-39.666 89.667 -66.999 126s-58.333 65.166 -93 86.499s-69 32 -103 32c-50.667 0 -93.334 -9.66699 -128.001 -29s-62.5 -45.833 -83.5 -79.5s-36.167 -73.5 -45.5 -119.5s-14 -95.667 -14 -149
c0 -52.667 9.33301 -102.834 28 -150.501s42.167 -89.5 70.5 -125.5s59.5 -64.5 93.5 -85.5s66.333 -31.5 97 -31.5c47.333 0 88 8.83301 122 26.5s62 42.834 84 75.501s38.333 72 49 118s16 97.667 16 155zM950 485c0 -44.667 -5.66895 -88.3311 -17.002 -130.998
s-27 -83 -47 -121s-44 -73.167 -72 -105.5s-58.833 -60.166 -92.5 -83.499s-69.5 -41.5 -107.5 -54.5s-77.333 -19.5 -118 -19.5c-63.333 0 -120.5 12 -171.5 36s-94.667 57 -131 99s-64.333 92 -84 150s-29.5 121 -29.5 189c0 44 5.5 87.333 16.5 130
s26.333 83.167 46 121.5s43.334 73.666 71.001 105.999s58.334 60.166 92.001 83.499s70 41.666 109 54.999s79.167 20 120.5 20c62.667 0 119.5 -12 170.5 -36s94.667 -57.167 131 -99.5s64.333 -92.5 84 -150.5s29.5 -121 29.5 -189zM875.998 1346
c-12 -27.333 -26.333 -54.332 -43 -80.999s-35.167 -50.667 -55.5 -72s-42.5 -38.666 -66.5 -51.999s-49 -20 -75 -20c-23.333 0 -45.5 5.83301 -66.5 17.5s-41.5 24.667 -61.5 39s-39.833 27.333 -59.5 39s-39.167 17.5 -58.5 17.5c-26.667 0 -51 -10.833 -73 -32.5
s-45.333 -51.167 -70 -88.5l-53 20c12 27.333 26.167 54.5 42.5 81.5s34.833 51.167 55.5 72.5s42.834 38.666 66.501 51.999s48.5 20 74.5 20c25.333 0 49.333 -5.83301 72 -17.5s44 -24.667 64 -39s39 -27.333 57 -39s35 -17.5 51 -17.5c25.333 0 50.166 10.667 74.499 32
s47.833 51.666 70.5 90.999z" />
    <glyph glyph-name="odieresis" unicode="&#xf6;" horiz-adv-x="1030" 
d="M795 455c0 52.667 -8.66699 102.834 -26 150.501s-39.666 89.667 -66.999 126s-58.333 65.166 -93 86.499s-69 32 -103 32c-50.667 0 -93.334 -9.66699 -128.001 -29s-62.5 -45.833 -83.5 -79.5s-36.167 -73.5 -45.5 -119.5s-14 -95.667 -14 -149
c0 -52.667 9.33301 -102.834 28 -150.501s42.167 -89.5 70.5 -125.5s59.5 -64.5 93.5 -85.5s66.333 -31.5 97 -31.5c47.333 0 88 8.83301 122 26.5s62 42.834 84 75.501s38.333 72 49 118s16 97.667 16 155zM950 485c0 -44.667 -5.66895 -88.3311 -17.002 -130.998
s-27 -83 -47 -121s-44 -73.167 -72 -105.5s-58.833 -60.166 -92.5 -83.499s-69.5 -41.5 -107.5 -54.5s-77.333 -19.5 -118 -19.5c-63.333 0 -120.5 12 -171.5 36s-94.667 57 -131 99s-64.333 92 -84 150s-29.5 121 -29.5 189c0 44 5.5 87.333 16.5 130
s26.333 83.167 46 121.5s43.334 73.666 71.001 105.999s58.334 60.166 92.001 83.499s70 41.666 109 54.999s79.167 20 120.5 20c62.667 0 119.5 -12 170.5 -36s94.667 -57.167 131 -99.5s64.333 -92.5 84 -150.5s29.5 -121 29.5 -189zM834.998 1261
c0 -18.667 -3.00098 -36.3359 -9.00098 -53.0029s-14.167 -31.167 -24.5 -43.5s-22.5 -22.166 -36.5 -29.499s-29.333 -11 -46 -11c-30 0 -51.5 8.33301 -64.5 25s-19.5 40.334 -19.5 71.001c0 18.667 3 36.334 9 53.001s14.333 31.167 25 43.5s22.834 22 36.501 29
s28.5 10.5 44.5 10.5c56.667 0 85 -31.667 85 -95zM434.997 1261c0 -18.667 -3.00098 -36.3359 -9.00098 -53.0029s-14.167 -31.167 -24.5 -43.5s-22.5 -22.166 -36.5 -29.499s-29.333 -11 -46 -11c-30 0 -51.5 8.33301 -64.5 25s-19.5 40.334 -19.5 71.001
c0 18.667 3 36.334 9 53.001s14.333 31.167 25 43.5s22.834 22 36.501 29s28.5 10.5 44.5 10.5c56.667 0 85 -31.667 85 -95z" />
    <glyph glyph-name="divide" unicode="&#xf7;" horiz-adv-x="840" 
d="M499 340c0 -14.667 -2.33301 -28.668 -7 -42.001s-11.167 -25 -19.5 -35s-18.166 -17.833 -29.499 -23.5s-23.333 -8.5 -36 -8.5c-23.333 0 -40.333 6.66699 -51 20s-16 32.333 -16 57c0 14.667 2.33301 28.667 7 42s11.167 24.833 19.5 34.5
s18.166 17.334 29.499 23.001s23.333 8.5 36 8.5c44.667 0 67 -25.333 67 -76zM499 819.999c0 -14.667 -2.33301 -28.668 -7 -42.001s-11.167 -25 -19.5 -35s-18.166 -17.833 -29.499 -23.5s-23.333 -8.5 -36 -8.5c-23.333 0 -40.333 6.66699 -51 20s-16 32.333 -16 57
c0 14.667 2.33301 28.667 7 42s11.167 24.833 19.5 34.5s18.166 17.334 29.499 23.001s23.333 8.5 36 8.5c44.667 0 67 -25.333 67 -76zM778 592.998c-3.33301 -13.333 -7.83301 -28.166 -13.5 -44.499s-11.167 -30.166 -16.5 -41.499h-662l-25 24
c3.33301 13.333 7.83301 27.666 13.5 42.999s11.5 29.666 17.5 42.999h662z" />
    <glyph glyph-name="oslash" unicode="&#xf8;" horiz-adv-x="1030" 
d="M797 455c0 40 -5.33105 78.832 -15.998 116.499s-24.667 72.5 -42 104.5l-383 -507c26.667 -28 54.667 -49.833 84 -65.5s57.333 -23.5 84 -23.5c47.333 0 88.166 8.83301 122.499 26.5s62.666 42.834 84.999 75.501s38.833 72 49.5 118s16 97.667 16 155z
M233.002 472.999c0 -40.667 5.50195 -79.5 16.502 -116.5s25.833 -71.5 44.5 -103.5l384 508c-26 28 -53.833 49.833 -83.5 65.5s-59.167 23.5 -88.5 23.5c-50.667 0 -93.334 -9.66699 -128.001 -29s-62.834 -45.833 -84.501 -79.5s-37.167 -73.5 -46.5 -119.5
s-14 -95.667 -14 -149zM946.004 949.999l-102.003 -134.996c34 -42 60.167 -91 78.5 -147s27.5 -117 27.5 -183c0 -44.667 -5.66699 -88.334 -17 -131.001s-27 -83 -47 -121s-44 -73.167 -72 -105.5s-58.833 -60.166 -92.5 -83.499s-69.5 -41.5 -107.5 -54.5
s-77.333 -19.5 -118 -19.5c-46 0 -88.667 6.33301 -128 19s-75 30.667 -107 54l-19 -25c-6 -5.33301 -14.5 -11.5 -25.5 -18.5l-34.5 -21c-12 -7 -23.833 -13.333 -35.5 -19s-21.5 -9.83398 -29.5 -12.501l-29 33l100 132c-34.667 42 -61.334 91.167 -80.001 147.5
s-28 117.833 -28 184.5c0 44 5.5 87.333 16.5 130s26.333 83.167 46 121.5s43.334 73.666 71.001 105.999s58.334 60.166 92.001 83.499s70 41.666 109 54.999s79.167 20 120.5 20c46 0 88.833 -6.5 128.5 -19.5s75.834 -31.5 108.501 -55.5l21 28l28.5 19.5l31.5 20.5
c10.667 6.66699 21.334 12.667 32.001 18s20.667 9.33301 30 12z" />
    <glyph glyph-name="ugrave" unicode="&#xf9;" horiz-adv-x="1085" 
d="M1069 82l-71.002 -44.501c-22.667 -13.667 -43.667 -25.5 -63 -35.5s-36.333 -17.833 -51 -23.5s-26 -8.5 -34 -8.5c-23.333 0 -42.333 15.5 -57 46.5s-24 80.833 -28 149.5c-41.333 -41.333 -79.166 -74.833 -113.499 -100.5s-66 -45.5 -95 -59.5
s-55.667 -23.5 -80 -28.5s-47.166 -7.5 -68.499 -7.5c-31.333 0 -61.333 4.33301 -90 13s-54 24.5 -76 47.5s-39.5 54.5 -52.5 94.5s-19.5 91.333 -19.5 154v432c0 32 -1 56.833 -3 74.5s-7.16699 31 -15.5 40s-21.166 15.167 -38.499 18.5s-41.333 6.66602 -72 9.99902v40
c24 2.66699 46.5 6 67.5 10s41.333 8.66699 61 14s39.5 11.5 59.5 18.5s41 14.833 63 23.5l28 -39v-587c0 -46.667 3.5 -85.667 10.5 -117s17 -56.333 30 -75s29 -32 48 -40s40.5 -12 64.5 -12c21.333 0 43.166 3.16699 65.499 9.5s45.333 16.333 69 30
s48.5 31.334 74.5 53.001s53.667 48.167 83 79.5v449c0 30 -1.5 54 -4.5 72s-9.5 32 -19.5 42s-24.167 17 -42.5 21s-42.833 6.66699 -73.5 8v40c48 6 94 15.333 138 28s84.667 25.334 122 38.001l30 -39v-667c0 -41.333 1.5 -75 4.5 -101s9.16699 -42.333 18.5 -49
c8 -5.33301 21.667 -6.5 41 -3.5s46 11.833 80 26.5zM658.998 1078c-8.66699 -8 -17.333 -14.335 -26 -19.002s-18.667 -8.66699 -30 -12l-352 377l22 41c6.66699 2 16.5 4.16699 29.5 6.5l41 7.5c14.333 2.66699 28.5 4.83398 42.5 6.50098s25 2.83398 33 3.50098z" />
    <glyph glyph-name="uacute" unicode="&#xfa;" horiz-adv-x="1085" 
d="M1069 82l-71.002 -44.501c-22.667 -13.667 -43.667 -25.5 -63 -35.5s-36.333 -17.833 -51 -23.5s-26 -8.5 -34 -8.5c-23.333 0 -42.333 15.5 -57 46.5s-24 80.833 -28 149.5c-41.333 -41.333 -79.166 -74.833 -113.499 -100.5s-66 -45.5 -95 -59.5
s-55.667 -23.5 -80 -28.5s-47.166 -7.5 -68.499 -7.5c-31.333 0 -61.333 4.33301 -90 13s-54 24.5 -76 47.5s-39.5 54.5 -52.5 94.5s-19.5 91.333 -19.5 154v432c0 32 -1 56.833 -3 74.5s-7.16699 31 -15.5 40s-21.166 15.167 -38.499 18.5s-41.333 6.66602 -72 9.99902v40
c24 2.66699 46.5 6 67.5 10s41.333 8.66699 61 14s39.5 11.5 59.5 18.5s41 14.833 63 23.5l28 -39v-587c0 -46.667 3.5 -85.667 10.5 -117s17 -56.333 30 -75s29 -32 48 -40s40.5 -12 64.5 -12c21.333 0 43.166 3.16699 65.499 9.5s45.333 16.333 69 30
s48.5 31.334 74.5 53.001s53.667 48.167 83 79.5v449c0 30 -1.5 54 -4.5 72s-9.5 32 -19.5 42s-24.167 17 -42.5 21s-42.833 6.66699 -73.5 8v40c48 6 94 15.333 138 28s84.667 25.334 122 38.001l30 -39v-667c0 -41.333 1.5 -75 4.5 -101s9.16699 -42.333 18.5 -49
c8 -5.33301 21.667 -6.5 41 -3.5s46 11.833 80 26.5zM501.998 1047c-12 2 -22.666 5.66797 -31.999 11.001s-17.666 11 -24.999 17l234 414c8 -0.666992 18.5 -1.83398 31.5 -3.50098l41 -5.5c14.333 -2 28.166 -4.33301 41.499 -7s23.666 -5 30.999 -7l23 -39z" />
    <glyph glyph-name="ucircumflex" unicode="&#xfb;" horiz-adv-x="1085" 
d="M1069 82l-71.002 -44.501c-22.667 -13.667 -43.667 -25.5 -63 -35.5s-36.333 -17.833 -51 -23.5s-26 -8.5 -34 -8.5c-23.333 0 -42.333 15.5 -57 46.5s-24 80.833 -28 149.5c-41.333 -41.333 -79.166 -74.833 -113.499 -100.5s-66 -45.5 -95 -59.5
s-55.667 -23.5 -80 -28.5s-47.166 -7.5 -68.499 -7.5c-31.333 0 -61.333 4.33301 -90 13s-54 24.5 -76 47.5s-39.5 54.5 -52.5 94.5s-19.5 91.333 -19.5 154v432c0 32 -1 56.833 -3 74.5s-7.16699 31 -15.5 40s-21.166 15.167 -38.499 18.5s-41.333 6.66602 -72 9.99902v40
c24 2.66699 46.5 6 67.5 10s41.333 8.66699 61 14s39.5 11.5 59.5 18.5s41 14.833 63 23.5l28 -39v-587c0 -46.667 3.5 -85.667 10.5 -117s17 -56.333 30 -75s29 -32 48 -40s40.5 -12 64.5 -12c21.333 0 43.166 3.16699 65.499 9.5s45.333 16.333 69 30
s48.5 31.334 74.5 53.001s53.667 48.167 83 79.5v449c0 30 -1.5 54 -4.5 72s-9.5 32 -19.5 42s-24.167 17 -42.5 21s-42.833 6.66699 -73.5 8v40c48 6 94 15.333 138 28s84.667 25.334 122 38.001l30 -39v-667c0 -41.333 1.5 -75 4.5 -101s9.16699 -42.333 18.5 -49
c8 -5.33301 21.667 -6.5 41 -3.5s46 11.833 80 26.5zM860.998 1092c-8 -12.667 -14.333 -22.001 -19 -28.001s-12.667 -11.667 -24 -17l-274 268l-271 -268c-5.33301 2.66699 -9.83301 5.33398 -13.5 8.00098s-7 5.66699 -10 9s-6.16699 7.33301 -9.5 12l-12 16l264 379h107
z" />
    <glyph glyph-name="udieresis" unicode="&#xfc;" horiz-adv-x="1085" 
d="M1069 82l-71.002 -44.501c-22.667 -13.667 -43.667 -25.5 -63 -35.5s-36.333 -17.833 -51 -23.5s-26 -8.5 -34 -8.5c-23.333 0 -42.333 15.5 -57 46.5s-24 80.833 -28 149.5c-41.333 -41.333 -79.166 -74.833 -113.499 -100.5s-66 -45.5 -95 -59.5
s-55.667 -23.5 -80 -28.5s-47.166 -7.5 -68.499 -7.5c-31.333 0 -61.333 4.33301 -90 13s-54 24.5 -76 47.5s-39.5 54.5 -52.5 94.5s-19.5 91.333 -19.5 154v432c0 32 -1 56.833 -3 74.5s-7.16699 31 -15.5 40s-21.166 15.167 -38.499 18.5s-41.333 6.66602 -72 9.99902v40
c24 2.66699 46.5 6 67.5 10s41.333 8.66699 61 14s39.5 11.5 59.5 18.5s41 14.833 63 23.5l28 -39v-587c0 -46.667 3.5 -85.667 10.5 -117s17 -56.333 30 -75s29 -32 48 -40s40.5 -12 64.5 -12c21.333 0 43.166 3.16699 65.499 9.5s45.333 16.333 69 30
s48.5 31.334 74.5 53.001s53.667 48.167 83 79.5v449c0 30 -1.5 54 -4.5 72s-9.5 32 -19.5 42s-24.167 17 -42.5 21s-42.833 6.66699 -73.5 8v40c48 6 94 15.333 138 28s84.667 25.334 122 38.001l30 -39v-667c0 -41.333 1.5 -75 4.5 -101s9.16699 -42.333 18.5 -49
c8 -5.33301 21.667 -6.5 41 -3.5s46 11.833 80 26.5zM844.998 1261c0 -18.667 -3.00098 -36.3359 -9.00098 -53.0029s-14.167 -31.167 -24.5 -43.5s-22.5 -22.166 -36.5 -29.499s-29.333 -11 -46 -11c-30 0 -51.5 8.33301 -64.5 25s-19.5 40.334 -19.5 71.001
c0 18.667 3 36.334 9 53.001s14.333 31.167 25 43.5s22.834 22 36.501 29s28.5 10.5 44.5 10.5c56.667 0 85 -31.667 85 -95zM444.997 1261c0 -18.667 -3.00098 -36.3359 -9.00098 -53.0029s-14.167 -31.167 -24.5 -43.5s-22.5 -22.166 -36.5 -29.499s-29.333 -11 -46 -11
c-30 0 -51.5 8.33301 -64.5 25s-19.5 40.334 -19.5 71.001c0 18.667 3 36.334 9 53.001s14.333 31.167 25 43.5s22.834 22 36.501 29s28.5 10.5 44.5 10.5c56.667 0 85 -31.667 85 -95z" />
    <glyph glyph-name="yacute" unicode="&#xfd;" horiz-adv-x="1010" 
d="M989 887c-20 -4.66699 -36.3398 -9 -49.0068 -13s-23 -8.5 -31 -13.5s-14.167 -10.667 -18.5 -17s-8.16602 -14.5 -11.499 -24.5l-334 -901c-28 -74 -59.167 -137.333 -93.5 -190s-70 -95.834 -107 -129.501s-74.167 -58.5 -111.5 -74.5s-72.666 -24 -105.999 -24
c-25.333 0 -48.666 1.66699 -69.999 5s-39.666 7.5 -54.999 12.5s-27.333 10.667 -36 17s-13 12.5 -13 18.5c0 4 4 12 12 24s18 25.167 30 39.5s24.833 28.166 38.5 41.499s25.834 23.333 36.501 30c32 -18.667 63.833 -28.667 95.5 -30s59.834 2.66699 84.501 12
c12 4 26 13.333 42 28s32.167 32.667 48.5 54s32.333 45.5 48 72.5s29.5 54.833 41.5 83.5l29 69l-328 842c-6 18.667 -17.667 32.834 -35 42.501s-42.666 18.167 -75.999 25.5v43h386v-43c-26 -3.33301 -47.167 -6.66602 -63.5 -9.99902s-29 -7.5 -38 -12.5
s-14.167 -11.167 -15.5 -18.5s0 -16.333 4 -27l246 -637l231 637c3.33301 10 3.83301 18.5 1.5 25.5s-8 13 -17 18s-21.667 9.33301 -38 13s-36.833 7.5 -61.5 11.5v43h334v-43zM486.993 1047c-12 2 -22.666 5.66797 -31.999 11.001s-17.666 11 -24.999 17l234 414
c8 -0.666992 18.5 -1.83398 31.5 -3.50098l41 -5.5c14.333 -2 28.166 -4.33301 41.499 -7s23.666 -5 30.999 -7l23 -39z" />
    <glyph glyph-name="thorn" unicode="&#xfe;" horiz-adv-x="1085" 
d="M870 408c0 66 -6.83301 125.332 -20.5 177.999s-31.834 97.5 -54.501 134.5s-49 65.333 -79 85s-61 29.5 -93 29.5c-12 0 -27.667 -3.66699 -47 -11s-41.333 -19.666 -66 -36.999s-51 -40.5 -79 -69.5s-56.667 -64.833 -86 -107.5v-397
c51.333 -40 100.333 -70.5 147 -91.5s93 -31.5 139 -31.5c38 0 71.667 9 101 27s54.333 42 75 72s36.334 64 47.001 102s16 77 16 117zM1005 491.999c0 -38.667 -5.16699 -78.3291 -15.5 -118.996s-24.833 -80.334 -43.5 -119.001s-41 -75.334 -67 -110.001
s-55 -64.834 -87 -90.501s-66.5 -46 -103.5 -61s-75.5 -22.5 -115.5 -22.5c-10.667 0 -24.167 1.83301 -40.5 5.5s-34.5 9.66699 -54.5 18s-41.333 19 -64 32s-45.667 29.167 -69 48.5v-449c0 -10.667 12.667 -21.334 38 -32.001s69.333 -20.667 132 -30v-43h-460v43
c44 10.667 78.333 20.834 103 30.501s37 20.167 37 31.5v1671c0 30 -2 53.333 -6 70s-11.167 29.167 -21.5 37.5s-24.666 14 -42.999 17s-41.5 6.16699 -69.5 9.5v40c48 9.33301 92.167 19.666 132.5 30.999s80.5 27.666 120.5 48.999l37 -34v-783
c34 40.667 67.667 75.334 101 104.001s64.833 52.167 94.5 70.5s57.167 31.666 82.5 39.999s47.666 12.5 66.999 12.5c45.333 0 87.333 -10.667 126 -32s72 -52.166 100 -92.499s49.833 -89.5 65.5 -147.5s23.5 -123.333 23.5 -196z" />
    <glyph glyph-name="ydieresis" unicode="&#xff;" horiz-adv-x="1010" 
d="M989 887c-20 -4.66699 -36.3398 -9 -49.0068 -13s-23 -8.5 -31 -13.5s-14.167 -10.667 -18.5 -17s-8.16602 -14.5 -11.499 -24.5l-334 -901c-28 -74 -59.167 -137.333 -93.5 -190s-70 -95.834 -107 -129.501s-74.167 -58.5 -111.5 -74.5s-72.666 -24 -105.999 -24
c-25.333 0 -48.666 1.66699 -69.999 5s-39.666 7.5 -54.999 12.5s-27.333 10.667 -36 17s-13 12.5 -13 18.5c0 4 4 12 12 24s18 25.167 30 39.5s24.833 28.166 38.5 41.499s25.834 23.333 36.501 30c32 -18.667 63.833 -28.667 95.5 -30s59.834 2.66699 84.501 12
c12 4 26 13.333 42 28s32.167 32.667 48.5 54s32.333 45.5 48 72.5s29.5 54.833 41.5 83.5l29 69l-328 842c-6 18.667 -17.667 32.834 -35 42.501s-42.666 18.167 -75.999 25.5v43h386v-43c-26 -3.33301 -47.167 -6.66602 -63.5 -9.99902s-29 -7.5 -38 -12.5
s-14.167 -11.167 -15.5 -18.5s0 -16.333 4 -27l246 -637l231 637c3.33301 10 3.83301 18.5 1.5 25.5s-8 13 -17 18s-21.667 9.33301 -38 13s-36.833 7.5 -61.5 11.5v43h334v-43zM829.993 1261c0 -18.667 -3.00098 -36.3359 -9.00098 -53.0029s-14.167 -31.167 -24.5 -43.5
s-22.5 -22.166 -36.5 -29.499s-29.333 -11 -46 -11c-30 0 -51.5 8.33301 -64.5 25s-19.5 40.334 -19.5 71.001c0 18.667 3 36.334 9 53.001s14.333 31.167 25 43.5s22.834 22 36.501 29s28.5 10.5 44.5 10.5c56.667 0 85 -31.667 85 -95zM429.992 1261
c0 -18.667 -3.00098 -36.3359 -9.00098 -53.0029s-14.167 -31.167 -24.5 -43.5s-22.5 -22.166 -36.5 -29.499s-29.333 -11 -46 -11c-30 0 -51.5 8.33301 -64.5 25s-19.5 40.334 -19.5 71.001c0 18.667 3 36.334 9 53.001s14.333 31.167 25 43.5s22.834 22 36.501 29
s28.5 10.5 44.5 10.5c56.667 0 85 -31.667 85 -95z" />
    <glyph glyph-name="Amacron" unicode="&#x100;" horiz-adv-x="1219" 
d="M758 535l-176 514l-171 -514h347zM381 445l-111.001 -334.003c-6.66699 -20.667 2.33301 -35.667 27 -45s64.334 -17 119.001 -23v-43h-416v43c45.333 8 81.333 16.333 108 25s43.334 23 50.001 43l372 1126c15.333 16.667 34.333 31.834 57 45.501
s42.667 25.167 60 34.5l420 -1206c3.33301 -9.33301 8 -17.666 14 -24.999s14 -13.666 24 -18.999s22.667 -10 38 -14s33.666 -7.33301 54.999 -10v-43h-422v43c52 3.33301 88 10 108 20s26.333 26 19 48l-114 334h-408zM946.999 1561
c-1.33301 -7.33301 -3.66504 -15.8311 -6.99805 -25.498s-7 -19.334 -11 -29.001l-11.5 -28.5c-3.66699 -9.33301 -6.83398 -17 -9.50098 -23h-615l-22 25c1.33301 7.33301 3.66602 15.666 6.99902 24.999s7 18.833 11 28.5l12 28c4 9 7.66699 16.833 11 23.5h613z" />
    <glyph glyph-name="amacron" unicode="&#x101;" horiz-adv-x="940" 
d="M352 100c40 0 82.5 10.1689 127.5 30.502s92.833 52.5 143.5 96.5v259c-56 -9.33301 -102.167 -18.333 -138.5 -27s-66.166 -17.5 -89.499 -26.5s-42 -18.5 -56 -28.5s-26.333 -20.667 -37 -32c-17.333 -18 -31.333 -38.5 -42 -61.5s-16 -50.167 -16 -81.5
c0 -26.667 4 -48.334 12 -65.001s17.667 -29.834 29 -39.501s23.166 -16.167 35.499 -19.5s22.833 -5 31.5 -5zM926 82.002c-56.667 -39.333 -103.502 -67.8301 -140.502 -85.4971s-64.833 -26.5 -83.5 -26.5c-22 0 -40.333 15.333 -55 46s-22.667 73 -24 127
c-30 -30 -60 -56 -90 -78s-59.333 -40 -88 -54s-55.834 -24.333 -81.501 -31s-49.167 -10 -70.5 -10c-24 0 -48.667 4 -74 12s-48.166 20.667 -68.499 38s-37.166 39.666 -50.499 66.999s-20 60.333 -20 99c0 50.667 8.83301 93 26.5 127s38.834 63.333 63.501 88
c16 16 34.167 31.167 54.5 45.5s47.333 28.166 81 41.499s75.834 26 126.501 38s114.334 23.667 191.001 35v141c0 22.667 -2.66699 43.834 -8 63.501s-14.333 36.667 -27 51s-29.834 25.333 -51.501 33s-48.834 11.167 -81.501 10.5
c-21.333 -0.666992 -42.333 -4.33398 -63 -11.001s-38.667 -16 -54 -28s-27.333 -26.167 -36 -42.5s-12 -34.5 -10 -54.5c0.666992 -6 -6.16602 -12.833 -20.499 -20.5s-31.333 -14.5 -51 -20.5s-39 -10.667 -58 -14s-32.5 -4 -40.5 -2l-14 39
c15.333 33.333 38.666 65.333 69.999 96s67.166 57.667 107.499 81s83 42 128 56s88.5 21 130.5 21c73.333 0 129.833 -19.167 169.5 -57.5s59.5 -91.833 59.5 -160.5v-564c0 -28 3.66699 -48 11 -60s17 -18 29 -18c9.33301 0 21.333 1.66699 36 5
s35.334 10.666 62.001 21.999zM827.998 1281c-1.33301 -7.33301 -3.66504 -15.8311 -6.99805 -25.498s-7 -19.334 -11 -29.001l-11.5 -28.5c-3.66699 -9.33301 -6.83398 -17 -9.50098 -23h-615l-22 25c1.33301 7.33301 3.66602 15.666 6.99902 24.999s7 18.833 11 28.5
l12 28c4 9 7.66699 16.833 11 23.5h613z" />
    <glyph glyph-name="Abreve" unicode="&#x102;" horiz-adv-x="1219" 
d="M758 535l-176 514l-171 -514h347zM381 445l-111.001 -334.003c-6.66699 -20.667 2.33301 -35.667 27 -45s64.334 -17 119.001 -23v-43h-416v43c45.333 8 81.333 16.333 108 25s43.334 23 50.001 43l372 1126c15.333 16.667 34.333 31.834 57 45.501
s42.667 25.167 60 34.5l420 -1206c3.33301 -9.33301 8 -17.666 14 -24.999s14 -13.666 24 -18.999s22.667 -10 38 -14s33.666 -7.33301 54.999 -10v-43h-422v43c52 3.33301 88 10 108 20s26.333 26 19 48l-114 334h-408zM923.999 1680c-20 -54 -42.499 -99.333 -67.499 -136
s-51.333 -66.5 -79 -89.5s-56.5 -39.5 -86.5 -49.5s-60 -15 -90 -15c-32.667 0 -64.334 5 -95.001 15s-59.834 26.5 -87.501 49.5s-53.667 52.833 -78 89.5s-46.5 82 -66.5 136c8 12 16 21.167 24 27.5s17.667 12.166 29 17.499c16.667 -38 35.834 -70 57.501 -96
s44.5 -46.833 68.5 -62.5s48.5 -27 73.5 -34s48.5 -10.5 70.5 -10.5c23.333 0 47.833 3.5 73.5 10.5s50.667 18.333 75 34s47.333 36.5 69 62.5s40.5 58 56.5 96c11.333 -5.33301 21 -11.166 29 -17.499s16 -15.5 24 -27.5z" />
    </font>
</defs>
</svg>
